<svg width="78" height="90" viewBox="0 0 78 90" fill="none" xmlns="http://www.w3.org/2000/svg">
<g id="Group 180930">
<path id="Vector" d="M32.9848 79.3033L31.8451 77.3624L37.5322 74.0111C39.0329 73.131 39.9695 71.4948 39.9695 69.7458C39.9695 67.9968 39.0329 66.3607 37.5322 65.4805L25.1312 58.1912C22.976 56.9274 21.6445 54.5916 21.6445 52.0979V48.8481H23.9013V52.0979C23.9013 53.8018 24.8153 55.3928 26.2822 56.2503L38.6831 63.5397C40.8722 64.8261 42.2376 67.207 42.2376 69.7571C42.2376 72.3073 40.8722 74.6769 38.6831 75.9745L32.9961 79.3258L32.9848 79.3033Z" fill="#858C78"/>
<path id="Vector_2" d="M54.5041 8.23682C41.6743 8.23682 31.248 18.6744 31.248 31.4928C31.248 44.3113 41.6856 54.7489 54.5041 54.7489C67.3225 54.7489 77.7601 44.3113 77.7601 31.4928C77.7601 18.6744 67.3338 8.23682 54.5041 8.23682ZM55.6324 22.9622C58.6678 22.9171 61.2631 22.7027 63.4522 22.3981C63.9938 24.621 64.3549 27.2614 64.4226 30.3645H55.6324V22.9622ZM55.6324 20.7055V11.0014C57.5056 11.9266 60.8343 14.3414 62.8203 20.1977C60.8005 20.4685 58.4196 20.6603 55.6324 20.7055ZM53.3757 11.0014V20.7055C50.5999 20.6603 48.2077 20.4685 46.1879 20.1977C48.1738 14.3414 51.5026 11.9266 53.3757 11.0014ZM53.3757 22.9622V30.3645H44.5856C44.6533 27.2501 45.0143 24.621 45.556 22.3981C47.7338 22.7027 50.3403 22.9171 53.3757 22.9622ZM42.3288 30.3645H33.5612C33.7643 26.6069 34.9492 23.0976 36.8787 20.1187C37.9845 20.6265 40.072 21.4051 43.3218 22.0257C42.7576 24.384 42.3965 27.1486 42.3288 30.3645ZM42.3288 32.6212C42.3965 35.8371 42.7576 38.6017 43.3218 40.96C40.072 41.5806 37.9845 42.3592 36.8787 42.867C34.9492 39.888 33.7643 36.3787 33.5612 32.6212H42.3288ZM44.5856 32.6212H53.3757V40.0234C50.3403 40.0686 47.745 40.283 45.556 40.5876C45.0143 38.3647 44.6533 35.7243 44.5856 32.6212ZM53.3757 42.2802V51.9843C51.5026 51.059 48.1738 48.6443 46.1879 42.788C48.2077 42.5172 50.5886 42.3253 53.3757 42.2802ZM55.6324 51.9956V42.2915C58.4083 42.3366 60.8005 42.5284 62.8203 42.7993C60.8343 48.6556 57.5056 51.0703 55.6324 51.9956ZM55.6324 40.0234V32.6212H64.4226C64.3549 35.7356 63.9938 38.3647 63.4522 40.5876C61.2631 40.283 58.6678 40.0686 55.6324 40.0234ZM66.6793 32.6212H75.4469C75.2438 36.3787 74.059 39.888 72.1294 42.867C71.0236 42.3592 68.9361 41.5806 65.6864 40.96C66.2506 38.6017 66.6116 35.8371 66.6793 32.6212ZM66.6793 30.3645C66.6116 27.1486 66.2506 24.384 65.6864 22.0257C68.9361 21.4051 71.0236 20.6265 72.1294 20.1187C74.059 23.0976 75.2438 26.6069 75.4469 30.3645H66.6793ZM70.7754 18.2456C69.7034 18.6857 67.8416 19.3288 65.0658 19.8479C63.7117 15.6503 61.7032 12.9422 59.8188 11.2045C64.1856 12.3441 67.9995 14.8492 70.7754 18.2456ZM49.1894 11.2045C47.305 12.9309 45.2964 15.6503 43.9424 19.8479C41.1666 19.3288 39.3047 18.6969 38.2327 18.2456C41.0086 14.8492 44.8225 12.3554 49.1894 11.2045ZM38.2327 44.7514C39.3047 44.3113 41.1666 43.6681 43.9424 43.1491C45.2964 47.3466 47.305 50.0548 49.1894 51.7812C44.8225 50.6302 41.0086 48.1365 38.2327 44.7401V44.7514ZM59.83 51.7925C61.7144 50.0661 63.723 47.3466 65.077 43.1603C67.8529 43.6794 69.7147 44.3113 70.7867 44.7626C68.0108 48.1591 64.1969 50.6528 59.83 51.8038V51.7925Z" fill="#1F404E"/>
<path id="Vector_3" d="M19.6932 74.6201L6.00586 66.5747L19.6932 58.5181L33.3918 66.5747L19.6932 74.6201Z" fill="#E1D9C1"/>
<path id="Vector_4" d="M6.00586 66.5747V81.9546L19.6932 90V74.6201L6.00586 66.5747Z" fill="#B8B399"/>
<path id="Vector_5" d="M19.6934 74.6201V90L33.392 81.9546V66.5747L19.6934 74.6201Z" fill="#C8C0A7"/>
<path id="Vector_6" d="M61.5785 56.34L55.7222 56.9606C55.2483 57.0058 55.0452 57.5925 55.3837 57.9197L57.3019 59.8041L43.8629 72.5775C43.4115 73.0063 43.389 73.7171 43.8177 74.1685C44.066 74.428 44.4158 74.5521 44.7543 74.5183C44.9913 74.4957 45.2282 74.3942 45.4088 74.2136L58.9042 61.3839L61.3867 63.8099C61.7478 64.1597 62.3571 63.9002 62.3345 63.3924L62.1766 56.8816C62.1766 56.5544 61.8832 56.3062 61.556 56.34H61.5785Z" fill="#35696B"/>
<path id="Vector_7" d="M28.5626 39.0649H16.9741C16.2948 39.0649 15.7441 39.6131 15.7441 40.2892C15.7441 40.9654 16.2948 41.5135 16.9741 41.5135H28.5626C29.2419 41.5135 29.7925 40.9654 29.7925 40.2892C29.7925 39.6131 29.2419 39.0649 28.5626 39.0649Z" fill="#5E482B"/>
<path id="Vector_8" d="M28.5626 42.687H16.9741C16.2948 42.687 15.7441 43.2351 15.7441 43.9113C15.7441 44.5875 16.2948 45.1356 16.9741 45.1356H28.5626C29.2419 45.1356 29.7925 44.5875 29.7925 43.9113C29.7925 43.2351 29.2419 42.687 28.5626 42.687Z" fill="#5E482B"/>
<path id="Vector_9" d="M28.8662 41.1411H16.6797V43.0594H28.8662V41.1411Z" fill="#352715"/>
<path id="Vector_10" d="M27.9968 45.146C27.9968 47.5607 25.8529 49.9642 22.7611 49.9642C19.6806 49.9642 17.5254 47.5495 17.5254 45.146H27.9855H27.9968Z" fill="#352715"/>
<path id="Vector_11" d="M10.1363 22.3309C10.1363 14.861 16.6132 8.91437 24.2524 9.78323C29.8717 10.4264 34.4868 14.8948 35.2767 20.5029C35.7732 24.0009 34.8253 27.2732 32.9409 29.8121C31.0565 32.3509 29.6799 35.0703 28.8449 38.0493L28.5628 39.0648H16.963L16.6809 38.0606C15.8346 35.0139 14.3113 32.2268 12.472 29.6541C10.9939 27.5891 10.125 25.0728 10.125 22.3422L10.1363 22.3309Z" fill="#FABA3E"/>
<path id="Vector_12" d="M27.4226 22.7597C26.8132 22.6469 26.2265 23.0418 26.1023 23.6512C26.0459 23.922 25.493 26.2916 22.7736 26.2916C20.0542 26.2916 19.5013 23.922 19.4449 23.6512C19.332 23.0418 18.7453 22.6243 18.1247 22.7485C17.5153 22.8613 17.1091 23.4481 17.2219 24.0687C17.4815 25.4566 18.7227 27.9277 21.6452 28.4468V39.0536H23.902V28.4468C26.8132 27.9277 28.0657 25.4453 28.3253 24.0687C28.4381 23.4593 28.0319 22.8726 27.4338 22.7597H27.4226Z" fill="#F3A11E"/>
<path id="Vector_13" d="M22.7632 7.6166C23.3838 7.6166 23.8915 7.10883 23.8915 6.48821V1.12839C23.8915 0.507773 23.3838 0 22.7632 0C22.1425 0 21.6348 0.507773 21.6348 1.12839V6.48821C21.6348 7.10883 22.1425 7.6166 22.7632 7.6166Z" fill="#F8B436"/>
<path id="Vector_14" d="M9.3004 4.45693C8.90546 3.97173 8.19458 3.90402 7.70937 4.29896C7.22417 4.69389 7.15647 5.40478 7.5514 5.88998L10.9591 10.0312C11.1848 10.302 11.5007 10.4374 11.828 10.4374C12.0762 10.4374 12.3358 10.3471 12.5501 10.1778C13.0354 9.78291 13.1031 9.07203 12.7081 8.58682L9.3004 4.44565V4.45693Z" fill="#F8B436"/>
<path id="Vector_15" d="M6.45719 19.3297C6.93111 19.3297 7.37118 19.0251 7.52916 18.5512C7.72098 17.9644 7.40504 17.3212 6.80699 17.1294L1.71798 15.4481C1.13122 15.245 0.488036 15.5722 0.296211 16.159C0.104385 16.7457 0.420333 17.3889 1.01838 17.5807L6.10739 19.262C6.22023 19.3072 6.34435 19.3185 6.45719 19.3185V19.3297Z" fill="#F8B436"/>
<path id="Vector_16" d="M6.7837 27.3294L1.8865 29.5072C1.32231 29.7554 1.06278 30.4324 1.31103 30.9966C1.50285 31.4141 1.90907 31.6624 2.33786 31.6624C2.49583 31.6624 2.64252 31.6285 2.8005 31.5608L7.69769 29.383C8.26188 29.1348 8.52141 28.4578 8.27316 27.8936C8.02492 27.3181 7.34789 27.0698 6.7837 27.3181V27.3294Z" fill="#F8B436"/>
<path id="Vector_17" d="M37.8255 4.29896C37.3403 3.90402 36.6294 3.97173 36.2345 4.45693L32.8268 8.59811C32.4319 9.08331 32.4996 9.7942 32.9848 10.1891C33.1992 10.3584 33.4474 10.4487 33.7069 10.4487C34.0342 10.4487 34.3501 10.3133 34.5758 10.0424L37.9835 5.90127C38.3784 5.41606 38.3107 4.70518 37.8255 4.31024V4.29896Z" fill="#F8B436"/>
<path id="Vector_18" d="M45.2391 16.1697C45.0472 15.583 44.404 15.2557 43.8173 15.4588L38.7283 17.1401C38.1415 17.332 37.8143 17.9751 38.0061 18.5619C38.1641 19.0358 38.6041 19.3405 39.0781 19.3405C39.1909 19.3405 39.315 19.3179 39.4279 19.2841L44.5169 17.6028C45.1036 17.4109 45.4309 16.7678 45.2391 16.181V16.1697Z" fill="#F8B436"/>
<path id="Vector_19" d="M43.6486 29.4959L38.7514 27.3181C38.1872 27.0698 37.5102 27.3181 37.2619 27.8936C37.0137 28.4578 37.2619 29.1235 37.8374 29.383L42.7346 31.5608C42.8813 31.6285 43.0393 31.6624 43.1972 31.6624C43.626 31.6624 44.0435 31.4141 44.2241 30.9966C44.4723 30.4324 44.2241 29.7667 43.6486 29.5072V29.4959Z" fill="#F8B436"/>
</g>
</svg>
