<svg width="90" height="92" viewBox="0 0 90 92" fill="none" xmlns="http://www.w3.org/2000/svg">
<g id="Group 180931">
<path id="Vector" d="M65.7784 0.75293C52.4159 0.75293 41.5566 11.6239 41.5566 24.9747C41.5566 38.3255 52.4276 49.1965 65.7784 49.1965C79.1292 49.1965 90.0002 38.3255 90.0002 24.9747C90.0002 11.6239 79.1292 0.75293 65.7784 0.75293ZM66.9537 16.0899C70.1151 16.0428 72.8181 15.8196 75.0981 15.5022C75.6622 17.8175 76.0383 20.5675 76.1088 23.7995H66.9537V16.0899ZM66.9537 13.7394V3.63228C68.9046 4.59598 72.3715 7.111 74.44 13.2105C72.3363 13.4926 69.8565 13.6924 66.9537 13.7394ZM64.6032 3.63228V13.7394C61.7121 13.6924 59.2206 13.4926 57.1169 13.2105C59.1853 7.111 62.6523 4.59598 64.6032 3.63228ZM64.6032 16.0899V23.7995H55.448C55.5185 20.5558 55.8946 17.8175 56.4587 15.5022C58.7269 15.8196 61.4418 16.0428 64.6032 16.0899ZM53.0975 23.7995H43.9659C44.1774 19.8859 45.4114 16.2309 47.4211 13.1282C48.5728 13.6571 50.747 14.468 54.1317 15.1144C53.5441 17.5707 53.168 20.45 53.0975 23.7995ZM53.0975 26.1499C53.168 29.4994 53.5441 32.3787 54.1317 34.835C50.747 35.4814 48.5728 36.2923 47.4211 36.8212C45.4114 33.7185 44.1774 30.0635 43.9659 26.1499H53.0975ZM55.448 26.1499H64.6032V33.8595C61.4418 33.9065 58.7387 34.1298 56.4587 34.4472C55.8946 32.1319 55.5185 29.3819 55.448 26.1499ZM64.6032 36.21V46.3171C62.6523 45.3534 59.1853 42.8384 57.1169 36.7389C59.2206 36.4568 61.7003 36.257 64.6032 36.21ZM66.9537 46.3171V36.21C69.8448 36.257 72.3363 36.4568 74.44 36.7389C72.3715 42.8384 68.9046 45.3534 66.9537 46.3171ZM66.9537 33.8595V26.1499H76.1088C76.0383 29.3936 75.6622 32.1319 75.0981 34.4472C72.8181 34.1298 70.1151 33.9065 66.9537 33.8595ZM78.4593 26.1499H87.5909C87.3794 30.0635 86.1454 33.7185 84.1357 36.8212C82.984 36.2923 80.8098 35.4814 77.4251 34.835C78.0127 32.3787 78.3888 29.4994 78.4593 26.1499ZM78.4593 23.7995C78.3888 20.45 78.0127 17.5707 77.4251 15.1144C80.8098 14.468 82.984 13.6571 84.1357 13.1282C86.1454 16.2309 87.3794 19.8859 87.5909 23.7995H78.4593ZM82.7254 11.1773C81.6089 11.6357 79.6698 12.3056 76.7787 12.8462C75.3684 8.47428 73.2765 5.6537 71.3138 3.84382C75.862 5.03082 79.8343 7.63986 82.7254 11.1773ZM60.2313 3.84382C58.2686 5.64194 56.1767 8.47428 54.7664 12.8462C51.8753 12.3056 49.9361 11.6474 48.8196 11.1773C51.7107 7.63986 55.6831 5.04257 60.2313 3.84382ZM48.8314 38.7838C49.9479 38.3255 51.887 37.6556 54.7781 37.115C56.1884 41.4869 58.2804 44.3075 60.243 46.1056C55.6948 44.9068 51.7225 42.3095 48.8314 38.7721V38.7838ZM71.3138 46.1056C73.2765 44.3075 75.3684 41.4751 76.7787 37.115C79.6698 37.6556 81.6089 38.3137 82.7254 38.7838C79.8343 42.3213 75.862 44.9186 71.3138 46.1173V46.1056Z" fill="#1F404E"/>
<path id="Vector_2" d="M1.35156 55.9425V78.7304L22.976 91.2468V67.4598L11.9053 52.8516L1.35156 55.9425Z" fill="#B0987A"/>
<path id="Vector_3" d="M0 55.3434L10.6242 52.5815L21.601 68.0242L20.8841 68.7764L10.1424 53.6628L0.540612 56.1543L0 55.3434Z" fill="#66533E"/>
<path id="Vector_4" d="M38.0552 36.5156L49.032 51.9466L21.6018 68.0239L10.625 52.5812L38.0552 36.5156Z" fill="#7B654B"/>
<path id="Vector_5" d="M27.4302 39.2657L38.0544 36.5156L10.6242 52.5812L0 55.343L27.4302 39.2657Z" fill="#6E5A43"/>
<path id="Vector_6" d="M46.4109 53.8271L22.9766 67.554V91.2469L32.6488 85.6763V69.2581L37.6319 66.3905L39.477 65.321V81.7392L46.4109 77.7434V53.8271Z" fill="#C2A887"/>
<path id="Vector_7" d="M32.6484 69.2577V83.5487L37.6315 80.6811V66.3901L32.6484 69.2577Z" fill="#6E5A43"/>
<path id="Vector_8" d="M37.6309 66.3903V80.6812L39.476 81.739V65.3208L37.6309 66.3903Z" fill="#7B654B"/>
<path id="Vector_9" d="M48.315 52.7102L49.0319 51.9463L21.6017 68.0236L20.8848 68.7758L48.315 52.7102Z" fill="#A68865"/>
<path id="Vector_10" d="M40.8391 17.0183L37.0666 11.6592C36.7023 11.1421 35.9266 11.2126 35.6681 11.7885L34.7514 13.7746C33.7994 13.6101 32.824 13.4926 31.8485 13.4926C22.6699 13.4926 15.1953 20.9554 15.1953 30.1458C15.1953 32.9429 15.8887 35.6577 17.205 38.0904C17.5105 38.6663 18.2627 38.8191 18.8033 38.4782L18.8503 38.443C19.3439 38.1257 19.532 37.4793 19.2617 36.9622C18.1334 34.882 17.534 32.5433 17.534 30.1458C17.534 22.2599 23.9509 15.8431 31.8368 15.8431C32.4714 15.8431 33.0943 15.8901 33.7289 15.9723L32.9062 17.747C32.6477 18.3111 33.0943 18.9575 33.7172 18.8987L40.2515 18.3111C40.8744 18.2523 41.2035 17.5472 40.8391 17.0301V17.0183Z" fill="#35696B"/>
<path id="Vector_11" d="M54.2026 71.8899L57.9751 77.2491C58.3394 77.7662 59.1151 77.6957 59.3736 77.1198L60.2903 75.1336C61.2423 75.2982 62.2177 75.4157 63.1932 75.4157C72.3718 75.4157 79.8464 67.9529 79.8464 58.7625C79.8464 55.9654 79.153 53.2506 77.8367 50.8178C77.5312 50.242 76.779 50.0892 76.2384 50.43L76.1914 50.4653C75.6978 50.7826 75.5097 51.429 75.78 51.9461C76.9083 54.0262 77.5076 56.365 77.5076 58.7625C77.5076 66.6484 71.0908 73.0652 63.2049 73.0652C62.5703 73.0652 61.9474 73.0182 61.3128 72.9359L62.1355 71.1613C62.394 70.5972 61.9474 69.9508 61.3245 70.0096L54.7902 70.5972C54.1673 70.6559 53.8382 71.3611 54.2026 71.8782V71.8899Z" fill="#35696B"/>
</g>
</svg>
