<svg width="86" height="90" viewBox="0 0 86 90" fill="none" xmlns="http://www.w3.org/2000/svg">
<g id="Group 180932">
<path id="Vector" d="M39.3234 16.1263L19.8296 8.69238L3.94799 20.3327L0.324219 40.0246L16.4389 52.2126L35.7463 50.2434L45.5572 34.0355L39.3234 16.1263ZM24.0826 35.9697L11.3004 35.0259L16.6253 25.7392L24.071 35.9697H24.0826ZM18.6178 24.4808L29.7338 22.9661L26.0868 34.7462L18.6178 24.4808ZM18.0818 22.2087L20.622 12.2928L28.9182 20.7289L18.0818 22.2087ZM9.72737 33.0916L6.67455 22.5699L14.7144 24.376L9.71572 33.08L9.72737 33.0916ZM24.3623 38.3234L16.9516 48.7403L11.3237 37.3679L24.3623 38.335V38.3234ZM31.9361 23.7118L41.8402 33.1732L28.1958 35.7949L31.9361 23.7118ZM31.5399 20.0764L24.572 12.992L35.8278 17.2915L31.5282 20.0764H31.5399ZM15.6699 22.2087L7.75819 20.4259L18.0585 12.8638L15.6699 22.2087ZM7.97957 35.3987L3.15565 37.5544L5.27631 26.0538L7.97957 35.3987ZM8.83017 37.566L13.5376 47.0857L3.86642 39.7799L8.81852 37.566H8.83017ZM26.5179 39.3138L32.9148 48.181L19.2121 49.5792L26.5179 39.3138ZM28.522 38.1136L41.9218 35.5386L34.9656 47.0274L28.5337 38.1136H28.522ZM41.5839 29.7126L33.2527 21.7426L37.7854 18.7947L41.5839 29.7009V29.7126Z" fill="#1F404E"/>
<path id="Vector_2" d="M33.9511 41.2944L30.875 70.2729L53.6313 48.8799L33.9511 41.2944Z" fill="#9C8256"/>
<path id="Vector_3" d="M84.5805 43.9512L57.8392 25.7275L53.6328 48.88L84.5805 43.9512Z" fill="#EBD9B2"/>
<path id="Vector_4" d="M57.8377 90.0002L74.4534 79.7232L30.875 70.2734L57.8377 90.0002Z" fill="#8C734A"/>
<path id="Vector_5" d="M57.8397 25.7275L33.9531 41.2946L53.6333 48.88L57.8397 25.7275Z" fill="#AD9366"/>
<path id="Vector_6" d="M84.5807 43.9517L74.4551 79.7233L85.6759 70.2502L84.5807 43.9517Z" fill="#C7AF83"/>
<path id="Vector_7" d="M53.6328 48.8804L74.4549 79.7233L84.5805 43.9517L53.6328 48.8804Z" fill="#D2BA8E"/>
<path id="Vector_8" d="M30.875 70.2734L74.4534 79.7232L53.6313 48.8804L30.875 70.2734Z" fill="#94794E"/>
<path id="Vector_9" d="M29.9207 75.8661L26.1804 81.1794C25.8192 81.6921 25.0502 81.6222 24.7939 81.0513L23.885 79.0821C22.9412 79.2452 21.9741 79.3617 21.007 79.3617C11.9068 79.3617 4.49609 71.9627 4.49609 62.8509C4.49609 60.0777 5.18356 57.3861 6.48858 54.9741C6.79154 54.4032 7.53726 54.2517 8.07325 54.5896L8.11986 54.6246C8.60925 54.9392 8.79568 55.58 8.52768 56.0927C7.40909 58.1551 6.81484 60.4738 6.81484 62.8509C6.81484 70.6693 13.1768 77.0313 20.9953 77.0313C21.6245 77.0313 22.2421 76.9847 22.8713 76.9032L22.0556 75.1437C21.7993 74.5844 22.2421 73.9435 22.8596 74.0018L29.3381 74.5844C29.9557 74.6427 30.2819 75.3418 29.9207 75.8545V75.8661Z" fill="#35696B"/>
<path id="Vector_10" d="M62.418 25.7396L63.6065 15.7422L71.3783 9.34521L68.7566 20.5078L62.418 25.7396Z" fill="#FABA3E"/>
<path id="Vector_11" d="M60.4604 20.9736L56.8017 15.2058L55.9395 0L61.4159 8.12143L60.4604 20.9736Z" fill="#FABA3E"/>
</g>
</svg>
