<svg width="200" height="62" viewBox="0 0 200 62" fill="none" xmlns="http://www.w3.org/2000/svg">
<g id="_&#235;&#160;&#136;&#236;&#157;&#180;&#236;&#150;&#180;_1" clip-path="url(#clip0_1271_19815)">
<path id="Vector" d="M124.97 28.55C150.24 15.6 147.08 3.22001 121.36 0.660008C93.6505 -2.08999 53.1605 3.87001 24.9605 15.26L21.0505 16.94C-8.32952 30.07 -5.54952 43.98 20.6805 46.51C49.3305 49.28 92.8905 43.62 121.41 30.34L124.97 28.56V28.55Z" fill="#013D88"/>
<path id="Vector_2" d="M119.51 31.09C119.51 31.09 114.68 31.48 114.57 27.59V20.06C114.57 20.06 113.97 15.91 119.38 15.91C119.38 15.91 122.9 15.79 123.83 17.89C123.83 17.89 124.29 18.45 124.17 20.76H120.42V19.58C120.42 19.58 120.42 18.62 119.44 18.62C119.44 18.62 118.42 18.66 118.42 19.46V27.25C118.42 27.25 118.38 28.3 119.52 28.3C119.52 28.3 120.46 28.28 120.46 27.18V24.93H119.44V22.83H124.26V27.25C124.26 27.25 124.25 28.18 123.86 28.72C123.86 28.72 123.47 29.31 123.32 29.42C123.32 29.42 122.02 31.09 119.51 31.09Z" fill="white"/>
<path id="Vector_3" d="M109.58 16.47H105.83L106.1 25.1H105.93L102.12 16.48H97.5703V30.69H101.28L101.05 22H101.22L105.16 30.69H109.58V16.47Z" fill="white"/>
<path id="Vector_4" d="M86.3296 16.41H82.2696V27.07C82.2696 27.07 81.8496 31.1 87.5496 31.1C87.5496 31.1 92.4996 31.16 92.4996 27.25V16.4H88.5296V27.12C88.5296 27.12 88.5796 28.29 87.4996 28.29C87.4996 28.29 86.3596 28.35 86.3596 27.15V16.4L86.3296 16.41Z" fill="white"/>
<path id="Vector_5" d="M77.5999 20.81V19.03C77.5999 19.03 77.8799 16.11 73.1799 15.98C73.1799 15.98 69.4899 15.74 68.4299 17.72C68.4299 17.72 68.0099 18.17 68.0099 19.71V20.83C68.0099 20.83 67.9699 22.12 68.6299 22.95C68.6299 22.95 68.9999 23.49 69.9199 24.09C69.9199 24.09 71.7799 25.09 72.8999 25.67C72.8999 25.67 74.0299 26.31 73.8799 27.34C73.8799 27.34 73.7899 28.39 72.6999 28.35C72.6999 28.35 71.7099 28.31 71.7099 27.28V26.07H67.7199V27.83C67.7199 27.83 67.6099 31.19 72.7299 31.19C72.7299 31.19 77.6199 31.29 77.8499 27.74V26.31C77.8499 26.31 78.0199 24.14 76.1199 22.99C76.1199 22.99 75.0999 22.36 74.4699 22.12C74.4699 22.12 72.5199 21.22 72.1399 20.79C72.1399 20.79 71.3799 20.07 71.8299 19.25C71.8299 19.25 72.0199 18.7 72.8199 18.7C72.8199 18.7 73.8699 18.76 73.8699 19.62V20.83H77.6099L77.5999 20.81Z" fill="white"/>
<path id="Vector_6" d="M47.9604 16.47L47.6504 30.69H51.3504L51.4004 19.98H51.6904L53.6504 30.69H57.5404L59.4804 19.98H59.7404L59.8304 30.69H63.5504L63.1504 16.47H56.9604L55.7004 24.25H55.4104L54.2104 16.47H47.9604Z" fill="white"/>
<path id="Vector_7" d="M43.6797 30.68L41.2197 16.46H34.9297L32.4697 30.68H36.4497L37.9097 19.65H38.2297L39.6897 30.68H43.6797Z" fill="white"/>
<path id="Vector_8" d="M28.5599 20.81V19.03C28.5599 19.03 28.8399 16.11 24.1399 15.98C24.1399 15.98 20.4499 15.74 19.3899 17.72C19.3899 17.72 18.9699 18.17 18.9699 19.71V20.83C18.9699 20.83 18.9299 22.12 19.5899 22.95C19.5899 22.95 19.9599 23.49 20.8799 24.09C20.8799 24.09 22.7399 25.09 23.8599 25.67C23.8599 25.67 24.9899 26.31 24.8399 27.34C24.8399 27.34 24.7499 28.39 23.6599 28.35C23.6599 28.35 22.6699 28.31 22.6699 27.28V26.07H18.6799V27.83C18.6799 27.83 18.5699 31.19 23.6899 31.19C23.6899 31.19 28.5899 31.29 28.8199 27.74V26.31C28.8199 26.31 28.9899 24.14 27.0899 22.99C27.0899 22.99 26.0699 22.36 25.4399 22.12C25.4399 22.12 23.4899 21.22 23.1099 20.79C23.1099 20.79 22.3499 20.07 22.7899 19.25C22.7899 19.25 22.9799 18.7 23.7799 18.7C23.7799 18.7 24.8299 18.76 24.8299 19.62V20.83H28.5699L28.5599 20.81Z" fill="white"/>
<path id="Vector_9" d="M169.12 40.57H166.58V47.27H169.12V40.57Z" fill="#013D88"/>
<path id="Vector_10" d="M179.91 40.57H177.37V47.27H179.91V40.57Z" fill="#013D88"/>
<path id="Vector_11" d="M178.96 40.56H167.93V42.74H178.96V40.56Z" fill="#013D88"/>
<path id="Vector_12" d="M178.96 45.08H167.93V47.26H178.96V45.08Z" fill="#013D88"/>
<path id="Vector_13" d="M181.38 48.53H165.06V50.71H181.38V48.53Z" fill="#013D88"/>
<path id="Vector_14" d="M174.42 49.8H171.88V53.37H174.42V49.8Z" fill="#013D88"/>
<path id="Vector_15" d="M179.9 52.02H177.36V57.35H179.9V52.02Z" fill="#013D88"/>
<path id="Vector_16" d="M169.12 55.2H166.58V60.8H169.12V55.2Z" fill="#013D88"/>
<path id="Vector_17" d="M178.96 52.03H166.53V54.21H178.96V52.03Z" fill="#013D88"/>
<path id="Vector_18" d="M179.9 55.2H166.82V57.38H179.9V55.2Z" fill="#013D88"/>
<path id="Vector_19" d="M179.9 58.63H166.82V60.81H179.9V58.63Z" fill="#013D88"/>
<path id="Vector_20" d="M197.63 40.04H195.09V54.26H197.63V40.04Z" fill="#013D88"/>
<path id="Vector_21" d="M200 44.72H195.8V46.9H200V44.72Z" fill="#013D88"/>
<path id="Vector_22" d="M187.75 51.86H185.21V60.75H187.75V51.86Z" fill="#013D88"/>
<path id="Vector_23" d="M197.73 58.58H185.46V60.76H197.73V58.58Z" fill="#013D88"/>
<path id="Vector_24" d="M187.74 45.62C186.96 48.11 183.79 50.2 183.79 50.2L182.44 48.33C186.86 46.11 186.52 40.3 186.52 40.3H188.96C188.96 40.3 188.61 46.12 193.04 48.33L191.69 50.2C191.69 50.2 188.53 48.12 187.75 45.62" fill="#013D88"/>
<path id="Vector_25" d="M142.53 40.22V50.96H145.12V46.96H147.41V44.76H145.16V40.22H142.53Z" fill="#013D88"/>
<path id="Vector_26" d="M142.63 53.99H135.29V58.49H142.63V53.99ZM132.76 51.84H145.16V60.63H132.76V51.84Z" fill="#013D88"/>
<path id="Vector_27" d="M160.93 56.09C160.93 54.47 158.99 53.16 156.59 53.16C154.19 53.16 152.25 54.47 152.25 56.09C152.25 57.71 154.19 59.02 156.59 59.02C158.99 59.02 160.93 57.71 160.93 56.09ZM156.59 61.34C152.74 61.34 149.62 58.99 149.62 56.09C149.62 53.19 152.74 50.84 156.59 50.84C160.44 50.84 163.57 53.19 163.57 56.09C163.57 58.99 160.45 61.34 156.59 61.34Z" fill="#013D88"/>
<path id="Vector_28" d="M136.3 40.62C136.3 40.62 135.95 46.43 140.66 48.84L139.31 50.71C139.31 50.71 135.86 48.43 135.08 45.94C134.3 48.43 130.85 50.71 130.85 50.71L129.5 48.84C134.21 46.43 133.86 40.62 133.86 40.62H136.3Z" fill="#013D88"/>
<path id="Vector_29" d="M152.62 45.94C151.84 48.43 148.68 50.52 148.68 50.52L147.33 48.65C151.75 46.44 151.4 40.63 151.4 40.63H153.84C153.84 40.63 153.49 46.44 157.91 48.65L156.56 50.52C156.56 50.52 153.4 48.44 152.62 45.94Z" fill="#013D88"/>
<path id="Vector_30" d="M163.06 40.21V50.96H160.47V46.02H157.1V43.82H160.42V40.21H163.06Z" fill="#013D88"/>
</g>
<defs>
<clipPath id="clip0_1271_19815">
<rect width="200" height="61.34" fill="white"/>
</clipPath>
</defs>
</svg>
