<svg width="200" height="61" viewBox="0 0 200 61" fill="none" xmlns="http://www.w3.org/2000/svg">
<g id="_&#235;&#160;&#136;&#236;&#157;&#180;&#236;&#150;&#180;_1" clip-path="url(#clip0_1271_20162)">
<g id="Group">
<g id="Group_2">
<path id="Vector" d="M62.7493 20.82C55.4993 17.96 48.1793 18.27 46.3293 21.61C44.4593 24.98 47.1793 32.96 52.3393 39.59C57.4893 46.21 64.7693 46 68.7893 38.76C72.7393 31.55 69.9793 23.66 62.7593 20.81" fill="#FF9700"/>
<path id="Vector_2" d="M25.8995 23.13C32.3295 27.52 39.5295 28.85 42.0795 26C44.6495 23.13 43.7695 14.74 40.2195 7.13998C36.6695 -0.460019 29.5195 -1.86002 23.9995 4.29998C18.5495 10.45 19.4895 18.75 25.8995 23.13Z" fill="#006ECD"/>
<path id="Vector_3" d="M48.94 46.2499C47.91 38.5299 44.08 32.2799 40.26 32.2899C36.4 32.2899 30.76 38.5599 27.47 46.2899C24.19 54.0099 27.92 60.2699 36.19 60.2599C44.42 60.1999 49.96 53.9599 48.94 46.2599" fill="#EF151E"/>
</g>
<g id="Group_3">
<path id="Vector_4" d="M19.59 26.18C18.28 26.18 17.4 26.99 17.4 28.19V29.4H20.51C20.51 29.4 20.61 39.68 20.5 40.75C20.39 41.82 20.11 43.58 18.18 44.5C16.52 45.29 16.48 46.04 16.38 46.71C16.24 47.58 16.4 47.69 17.03 47.53C19.5 46.92 22.14 45.93 23.47 43.48C24.19 42.15 24.48 40.71 24.48 38.53V29.39C25.8 29.38 26.75 28.53 26.75 27.38V26.17H19.58L19.59 26.18Z" fill="black"/>
<path id="Vector_5" d="M16.13 40.03C16.13 40.03 13.63 43.61 8.78 43.61C3.93 43.61 0 39.78 0 34.7C0 29.62 3.77 25.66 8.78 25.66C13.79 25.66 16.07 29.24 16.07 29.24C16.07 29.24 14.74 30.67 13.46 30.67C12.84 30.67 12.37 30.38 11.83 30.05C11.11 29.6 10.29 29.1 8.79 29.1C5.94 29.1 3.63 31.61 3.63 34.7C3.63 37.79 5.95 40.18 8.79 40.18C10.48 40.18 11.27 39.7 11.97 39.27C12.47 38.97 12.94 38.68 13.62 38.68C15.06 38.68 16.14 40.03 16.14 40.03H16.13Z" fill="black"/>
</g>
</g>
<g id="Group_4">
<path id="Vector_6" d="M84.5801 38.2799C83.8001 38.4099 82.7401 38.5299 81.6901 38.6099C80.6501 38.6899 79.5401 38.7299 78.3801 38.7299H75.0801V28.1599C75.0801 27.5999 75.2501 27.1599 75.5601 26.8499C75.8801 26.5399 76.3001 26.3799 76.8301 26.3799H83.0701V27.2599C83.0701 27.4799 83.0301 27.6499 82.9501 27.7799C82.8601 27.8999 82.7701 27.9899 82.6601 28.0499C82.5601 28.1099 82.4601 28.1499 82.3601 28.1599C82.2601 28.1699 82.1901 28.1799 82.1501 28.1799H77.8001V36.9499H80.2401C80.7601 36.9499 81.4101 36.9199 82.1701 36.8599C82.9301 36.7999 83.8401 36.7099 84.5801 36.5999V27.4499C84.5801 26.8899 84.7201 26.4499 84.9901 26.1399C85.2601 25.8299 85.6701 25.6899 86.1901 25.6899H87.3301V31.0899H88.6601V27.4499C88.6601 26.8899 88.8001 26.4499 89.0801 26.1399C89.3601 25.8299 89.7601 25.6899 90.2701 25.6899H91.4101V41.8499C91.4101 42.4199 91.2801 42.8699 91.0001 43.1699C90.7401 43.4799 90.3501 43.6299 89.8501 43.6299H88.6501V32.8699H87.3201V41.8499C87.3201 42.4199 87.1801 42.8699 86.9001 43.1699C86.6201 43.4799 86.2301 43.6299 85.7301 43.6299H84.5701V38.2899L84.5801 38.2799Z" fill="black"/>
<path id="Vector_7" d="M104.22 27.77C104.22 28 104.17 28.17 104.09 28.31C104 28.43 103.91 28.53 103.8 28.59C103.7 28.65 103.59 28.69 103.49 28.7C103.38 28.71 103.31 28.72 103.27 28.72H102.95C103.28 29.1 103.54 29.53 103.72 29.98C103.91 30.43 104 30.92 104 31.43C104 32.08 103.86 32.68 103.59 33.23C103.31 33.78 102.94 34.25 102.46 34.65C102 35.05 101.46 35.35 100.84 35.58C100.22 35.8 99.5703 35.91 98.8803 35.91C98.1903 35.91 97.5203 35.8 96.9103 35.59C96.2903 35.37 95.7503 35.06 95.2803 34.65C94.8103 34.25 94.4403 33.78 94.1603 33.23C93.8903 32.68 93.7603 32.08 93.7603 31.43C93.7603 30.93 93.8503 30.45 94.0303 29.99C94.2103 29.53 94.4703 29.1 94.8203 28.72H93.5303V27.86C93.5303 27.64 93.5703 27.47 93.6503 27.34C93.7303 27.21 93.8303 27.11 93.9503 27.05C94.0503 26.98 94.1603 26.94 94.2603 26.93C94.3703 26.91 94.4403 26.9 94.5003 26.9H97.4503V26.5C97.4503 26.08 97.5503 25.75 97.7503 25.51C97.9603 25.28 98.2703 25.16 98.6903 25.16H100.37V26.9H104.21V27.77H104.22ZM109.32 41.84V42.68C109.32 42.91 109.28 43.08 109.2 43.2C109.12 43.33 109.02 43.42 108.91 43.48C108.81 43.54 108.71 43.58 108.6 43.59C108.49 43.6 108.42 43.61 108.38 43.61H96.3303V39.49C96.3303 38.93 96.4703 38.49 96.7403 38.18C97.0103 37.87 97.4103 37.71 97.9403 37.71H99.0803V41.83H109.31L109.32 41.84ZM101.17 31.43C101.17 31.07 101.11 30.72 100.98 30.41C100.86 30.08 100.69 29.8 100.49 29.55C100.29 29.31 100.04 29.11 99.7603 28.97C99.4803 28.82 99.1803 28.74 98.8703 28.74C98.5603 28.74 98.2603 28.82 97.9803 28.97C97.7003 29.11 97.4603 29.31 97.2603 29.55C97.0503 29.79 96.8903 30.08 96.7703 30.41C96.6603 30.73 96.5903 31.07 96.5903 31.43C96.5903 32.2 96.8203 32.84 97.2603 33.37C97.7103 33.9 98.2403 34.16 98.8703 34.16C99.5003 34.16 100.04 33.9 100.49 33.37C100.94 32.84 101.17 32.19 101.17 31.43ZM112.1 32.17H109.14V36.91C109.14 37.49 109 37.92 108.72 38.22C108.44 38.52 108.04 38.67 107.53 38.67H106.39V27.47C106.39 26.91 106.53 26.47 106.81 26.15C107.09 25.84 107.47 25.68 107.96 25.68H109.14V30.37H111.18C111.18 30.37 111.29 30.37 111.39 30.4C111.49 30.42 111.59 30.46 111.69 30.52C111.8 30.58 111.9 30.67 111.98 30.79C112.06 30.91 112.1 31.07 112.1 31.27V32.17Z" fill="black"/>
<path id="Vector_8" d="M128.251 29.3499C128.251 29.5599 128.211 29.7299 128.131 29.8599C128.051 29.9799 127.951 30.0699 127.841 30.1199C127.741 30.1799 127.641 30.2199 127.541 30.2299C127.441 30.2399 127.371 30.2499 127.331 30.2499H117.681V31.2299H128.401V32.0699C128.401 32.2799 128.361 32.4499 128.271 32.5799C128.181 32.6999 128.091 32.7999 127.991 32.8599C127.881 32.9299 127.771 32.9599 127.671 32.9799C127.571 32.9899 127.501 32.9999 127.461 32.9999H123.071V34.2499H130.681V35.0399C130.681 35.2599 130.641 35.4399 130.551 35.5599C130.461 35.6899 130.371 35.7799 130.271 35.8399C130.161 35.8999 130.051 35.9399 129.951 35.9499C129.851 35.9599 129.781 35.9699 129.751 35.9699H112.811V35.1099C112.811 34.9099 112.851 34.7499 112.931 34.6299C113.011 34.5099 113.101 34.4299 113.201 34.3699C113.311 34.3099 113.421 34.2699 113.521 34.2599C113.621 34.2499 113.701 34.2399 113.751 34.2399H120.371V32.9899H114.911V27.7799C114.911 27.2099 115.141 26.7099 115.581 26.2899C116.031 25.8699 116.571 25.6799 117.211 25.6799H128.381V26.5299C128.381 26.7499 128.341 26.9099 128.261 27.0299C128.181 27.1599 128.081 27.2599 127.971 27.3199C127.871 27.3799 127.771 27.4199 127.671 27.4299C127.571 27.4399 127.501 27.4499 127.461 27.4499H117.681V28.4899H128.251V29.3499ZM127.641 40.6099H127.661C127.661 41.1899 127.501 41.7199 127.191 42.2199C126.871 42.7199 126.451 43.1599 125.911 43.5199C125.371 43.8899 124.751 44.1799 124.021 44.3999C123.301 44.6099 122.541 44.7199 121.741 44.7199C120.941 44.7199 120.161 44.6099 119.441 44.3999C118.721 44.1799 118.091 43.8899 117.551 43.5199C117.011 43.1499 116.591 42.7199 116.281 42.2199C115.971 41.7199 115.821 41.1799 115.821 40.6099C115.821 40.0399 115.971 39.5399 116.281 39.0499C116.591 38.5499 117.011 38.1299 117.551 37.7599C118.091 37.3899 118.711 37.0999 119.441 36.8799C120.161 36.6599 120.931 36.5599 121.741 36.5599C122.551 36.5599 123.291 36.6699 124.011 36.8799C124.721 37.0999 125.351 37.3899 125.881 37.7599C126.421 38.1299 126.841 38.5599 127.161 39.0499C127.481 39.5499 127.631 40.0699 127.631 40.6099H127.641ZM124.701 40.6299C124.701 40.3299 124.621 40.0399 124.461 39.7599C124.301 39.4799 124.091 39.2399 123.831 39.0199C123.561 38.7999 123.241 38.6399 122.881 38.5099C122.521 38.3799 122.151 38.3199 121.741 38.3199C121.331 38.3199 120.941 38.3799 120.581 38.5099C120.211 38.6399 119.901 38.8099 119.641 39.0199C119.361 39.2399 119.151 39.4799 119.001 39.7599C118.851 40.0299 118.771 40.3199 118.771 40.6299C118.771 40.9399 118.851 41.2499 119.001 41.5199C119.151 41.7999 119.361 42.0399 119.641 42.2599C119.901 42.4599 120.211 42.6199 120.581 42.7499C120.941 42.8699 121.331 42.9299 121.741 42.9299C122.151 42.9299 122.521 42.8699 122.881 42.7499C123.241 42.6299 123.551 42.4699 123.831 42.2599C124.091 42.0399 124.301 41.7999 124.461 41.5199C124.621 41.2399 124.701 40.9399 124.701 40.6299Z" fill="black"/>
<path id="Vector_9" d="M149.71 35.15C149.71 35.36 149.66 35.53 149.58 35.65C149.49 35.78 149.4 35.87 149.3 35.93C149.19 36.01 149.08 36.05 148.98 36.07C148.88 36.08 148.81 36.09 148.77 36.09H142.36V37.36C142.36 37.95 142.22 38.39 141.94 38.7C141.66 39.01 141.27 39.16 140.79 39.16H139.63V36.09H131.83V35.26C131.83 35.05 131.87 34.88 131.95 34.76C132.03 34.64 132.12 34.55 132.22 34.5C132.33 34.43 132.44 34.39 132.54 34.38C132.64 34.37 132.72 34.36 132.77 34.36H149.71V35.15ZM147.67 42.68C147.67 42.91 147.63 43.08 147.55 43.2C147.47 43.33 147.38 43.42 147.28 43.48C147.18 43.54 147.08 43.58 146.98 43.59C146.88 43.6 146.81 43.61 146.78 43.61H134.09V39.79C134.09 39.23 134.23 38.79 134.49 38.49C134.76 38.19 135.15 38.03 135.68 38.03H136.84V41.84H147.68V42.68H147.67ZM146.52 29.28C146.52 29.88 146.37 30.45 146.07 30.97C145.76 31.49 145.35 31.96 144.83 32.35C144.32 32.74 143.71 33.04 143.01 33.26C142.31 33.49 141.56 33.6 140.76 33.6C139.96 33.6 139.23 33.49 138.53 33.27C137.83 33.06 137.22 32.75 136.69 32.35C136.18 31.97 135.76 31.52 135.46 30.99C135.15 30.46 135 29.9 135 29.28C135 28.69 135.15 28.14 135.45 27.62C135.75 27.1 136.16 26.65 136.69 26.25C137.21 25.87 137.82 25.56 138.51 25.33C139.21 25.1 139.96 24.98 140.76 24.98C141.56 24.98 142.3 25.09 142.99 25.33C143.69 25.56 144.3 25.87 144.81 26.25C145.34 26.64 145.76 27.1 146.06 27.62C146.36 28.14 146.51 28.69 146.51 29.28H146.52ZM143.65 29.28C143.65 28.92 143.57 28.57 143.42 28.25C143.27 27.92 143.06 27.64 142.8 27.41C142.54 27.16 142.23 26.96 141.88 26.83C141.52 26.68 141.15 26.61 140.76 26.61C140.37 26.61 139.99 26.68 139.63 26.83C139.28 26.97 138.97 27.16 138.71 27.41C138.44 27.64 138.23 27.92 138.08 28.25C137.93 28.57 137.86 28.92 137.86 29.28C137.86 29.66 137.93 30.01 138.08 30.35C138.23 30.67 138.44 30.96 138.71 31.21C138.97 31.45 139.28 31.63 139.63 31.76C139.99 31.9 140.36 31.97 140.76 31.97C141.16 31.97 141.52 31.9 141.88 31.76C142.24 31.63 142.54 31.44 142.8 31.21C143.06 30.97 143.27 30.67 143.42 30.35C143.57 30.02 143.65 29.66 143.65 29.28Z" fill="black"/>
</g>
<g id="Group_5">
<path id="Vector_10" d="M156.95 32.06C156.79 32.12 156.61 32.14 156.41 32.12C156.21 32.1 156.05 32.02 155.92 31.87L155.61 31.5C156.24 31.28 156.81 31 157.34 30.68C157.87 30.36 158.33 30.01 158.71 29.62C159.09 29.23 159.4 28.82 159.62 28.37C159.84 27.92 159.95 27.46 159.96 26.99H156V26.42C156 26.24 156.05 26.11 156.14 26.03C156.23 25.95 156.36 25.91 156.51 25.91H161.63C161.65 26.7 161.54 27.42 161.31 28.08C161.08 28.74 160.75 29.32 160.33 29.84C159.91 30.36 159.41 30.8 158.83 31.17C158.25 31.54 157.63 31.83 156.95 32.05V32.06ZM165.31 35.38V35.89C165.31 36.06 165.26 36.2 165.15 36.3C165.04 36.4 164.91 36.46 164.76 36.46H157.68V33.62C157.68 33.27 157.76 33.01 157.91 32.82C158.06 32.63 158.3 32.54 158.63 32.54H159.35V35.38H165.32H165.31ZM163.5 33.55V29.62H161.36V29.06C161.36 28.89 161.41 28.76 161.52 28.65C161.63 28.55 161.76 28.5 161.91 28.5H163.5V26.72C163.5 26.37 163.58 26.1 163.74 25.91C163.9 25.72 164.15 25.62 164.47 25.62H165.18V32.44C165.18 32.79 165.1 33.06 164.94 33.25C164.78 33.44 164.53 33.54 164.21 33.54H163.5V33.55Z" fill="#77797B"/>
<path id="Vector_11" d="M173.521 30.6C173.421 30.74 173.271 30.82 173.071 30.84C172.871 30.86 172.681 30.83 172.491 30.74C172.111 30.55 171.721 30.31 171.331 30C170.931 29.7 170.601 29.37 170.341 29.01C170.211 29.23 170.051 29.45 169.861 29.66C169.671 29.87 169.471 30.07 169.261 30.25C169.051 30.43 168.841 30.59 168.621 30.74C168.411 30.89 168.211 31.01 168.021 31.11C167.941 31.16 167.851 31.19 167.751 31.21C167.651 31.23 167.551 31.24 167.451 31.24C167.351 31.24 167.261 31.22 167.171 31.19C167.081 31.16 167.011 31.11 166.941 31.04L166.561 30.61C166.921 30.39 167.281 30.15 167.621 29.89C167.961 29.63 168.271 29.35 168.531 29.04C168.801 28.74 169.011 28.42 169.171 28.08C169.331 27.74 169.411 27.38 169.411 27V26.81C169.411 26.46 169.491 26.19 169.661 26C169.831 25.81 170.071 25.71 170.381 25.71H171.071V26.73C171.071 27.46 171.311 28.1 171.781 28.64C172.251 29.18 172.931 29.68 173.831 30.16L173.491 30.58L173.521 30.6ZM176.641 35.92C176.641 36.1 176.591 36.24 176.481 36.34C176.371 36.44 176.231 36.5 176.061 36.5H168.861V34.58C168.861 34.23 168.941 33.97 169.101 33.78C169.261 33.59 169.511 33.5 169.831 33.5H174.811V32.68H168.861V32.18C168.861 32.01 168.921 31.88 169.031 31.77C169.141 31.67 169.271 31.62 169.431 31.62H176.471V33.53C176.471 33.67 176.441 33.8 176.381 33.92C176.321 34.04 176.241 34.15 176.141 34.24C176.041 34.33 175.921 34.4 175.781 34.45C175.641 34.5 175.501 34.53 175.351 34.53H170.521V35.43H176.651V35.9L176.641 35.92ZM174.851 31.2V28.37H172.631V27.81C172.631 27.64 172.681 27.51 172.791 27.4C172.901 27.3 173.031 27.25 173.181 27.25H174.851V26.72C174.851 26.37 174.931 26.1 175.091 25.91C175.251 25.72 175.501 25.62 175.821 25.62H176.531V30.09C176.531 30.44 176.451 30.71 176.291 30.9C176.131 31.09 175.881 31.19 175.561 31.19H174.851V31.2Z" fill="#77797B"/>
<path id="Vector_12" d="M178.13 32.97V32.44C178.13 32.26 178.19 32.13 178.3 32.03C178.41 31.93 178.55 31.89 178.71 31.89H188.63V32.42C188.63 32.6 188.57 32.73 188.46 32.83C188.35 32.93 188.21 32.97 188.05 32.97H184.26V35.43C184.26 35.76 184.17 36.01 184 36.19C183.83 36.36 183.58 36.45 183.28 36.45H182.6V32.98H178.14L178.13 32.97ZM179.54 30.84V26.73C179.54 26.38 179.62 26.12 179.78 25.93C179.94 25.74 180.19 25.65 180.51 25.65H181.2V27.43H185.68V26.72C185.68 26.37 185.76 26.11 185.92 25.92C186.08 25.73 186.33 25.64 186.65 25.64H187.34V29.53C187.34 29.72 187.31 29.89 187.24 30.05C187.17 30.21 187.08 30.35 186.96 30.46C186.84 30.58 186.7 30.67 186.53 30.73C186.36 30.8 186.19 30.83 186 30.83H179.53L179.54 30.84ZM181.21 28.52V29.75H185.69V28.52H181.21Z" fill="#77797B"/>
<path id="Vector_13" d="M194.19 34.5V32.22H189.46V31.7C189.46 31.53 189.51 31.39 189.62 31.29C189.73 31.19 189.87 31.13 190.05 31.13H200V31.65C200 31.82 199.95 31.96 199.84 32.06C199.74 32.16 199.59 32.22 199.41 32.22H195.84V33.39C195.84 33.76 195.75 34.04 195.58 34.22C195.41 34.41 195.17 34.5 194.87 34.5H194.19ZM190.77 34.23C190.77 33.88 190.85 33.61 191.02 33.42C191.19 33.23 191.43 33.14 191.76 33.14H192.44V35.34H198.83V35.85C198.83 36.02 198.78 36.16 198.67 36.26C198.56 36.36 198.42 36.42 198.24 36.42H190.77V34.23ZM198.9 28.82C198.9 29.02 198.86 29.2 198.78 29.36C198.7 29.52 198.59 29.66 198.46 29.77C198.33 29.89 198.18 29.97 198.01 30.04C197.84 30.1 197.67 30.13 197.49 30.13H190.82V27.03C190.82 26.84 190.86 26.66 190.94 26.5C191.02 26.34 191.13 26.2 191.26 26.08C191.39 25.96 191.54 25.88 191.71 25.81C191.88 25.75 192.05 25.72 192.23 25.72H198.9V28.82ZM192.48 29.06H197.23V26.79H192.48V29.06Z" fill="#77797B"/>
</g>
</g>
<defs>
<clipPath id="clip0_1271_20162">
<rect width="200" height="59.81" fill="white" transform="translate(0 0.439941)"/>
</clipPath>
</defs>
</svg>
