<svg width="200" height="25" viewBox="0 0 200 25" fill="none" xmlns="http://www.w3.org/2000/svg">
<g id="_&#235;&#160;&#136;&#236;&#157;&#180;&#236;&#150;&#180;_1" clip-path="url(#clip0_1271_20182)">
<path id="Vector" d="M48.6903 3.64001H45.4103V10.84H32.0103V3.64001H28.7303C27.9603 3.64001 27.3203 4.28001 27.3203 5.06001V20.27C27.3203 21.05 27.9503 21.69 28.7303 21.69H32.0103V13.96H45.4103V21.69H48.6903C49.4703 21.69 50.1003 21.05 50.1003 20.27V5.06001C50.1003 4.28001 49.4803 3.64001 48.6903 3.64001Z" fill="#3E68E6"/>
<path id="Vector_2" d="M21.86 3.64001H18.58V17.46L8.72 6.42001C7.08 4.81001 5.95 3.64001 3.34 3.64001H0V20.27C0 21.05 0.63 21.69 1.41 21.69H4.69V7.80001L14.61 18.77C16.28 20.42 17.78 21.69 20.21 21.69H23.27V5.06001C23.27 4.28001 22.64 3.64001 21.86 3.64001Z" fill="#3E68E6"/>
<path id="Vector_3" d="M56.8496 8.10006H62.7996V9.53006H58.5496V15.0201H59.8096C60.5996 15.0201 61.3796 14.9601 62.1396 14.8401C62.9096 14.7201 63.6096 14.6001 64.2596 14.4801V15.8701C63.9596 15.9501 63.6196 16.0301 63.2396 16.1001C62.8496 16.1701 62.4496 16.2301 62.0196 16.2901C61.5896 16.3401 61.1596 16.3801 60.7096 16.4101C60.2596 16.4401 59.8396 16.4501 59.4296 16.4501H56.8496V8.10006ZM64.7496 7.06006H66.4196V19.5301H64.7496V7.06006Z" fill="#93A7E6"/>
<path id="Vector_4" d="M73.0903 12.5401C73.5003 13.1201 73.9604 13.6701 74.4604 14.1701C74.9604 14.6701 75.5204 15.1301 76.1404 15.5401L74.9804 16.7401C74.4204 16.3401 73.9204 15.9001 73.4804 15.4301C73.0404 14.9601 72.6104 14.4501 72.2104 13.9001C71.7304 14.5501 71.2004 15.1401 70.6204 15.6801C70.0304 16.2201 69.4103 16.7001 68.7403 17.1001L67.6104 16.0101C68.3904 15.5601 69.0803 15.0501 69.6703 14.4901C70.2603 13.9201 70.7604 13.3501 71.1604 12.7701C71.5604 12.1901 71.8803 11.6101 72.1003 11.0501C72.3203 10.4801 72.4504 9.98006 72.5004 9.53006C72.0604 9.55006 71.6204 9.56006 71.1904 9.56006H68.4804V8.13006H70.5903C71.1603 8.13006 71.7403 8.13006 72.3403 8.13006C72.9403 8.13006 73.6204 8.12006 74.3904 8.11006C74.3704 8.87006 74.2503 9.63006 74.0303 10.3801C73.8103 11.1301 73.5004 11.8501 73.1104 12.5501L73.0903 12.5401ZM76.3503 7.06006H78.0203V19.5301H76.3503V7.06006Z" fill="#93A7E6"/>
<path id="Vector_5" d="M82.3402 13.1799H79.9902V7.52995H85.4502V8.83995H81.6802V9.68995H85.2702V10.9499H81.6802V11.9099H82.7402C83.4302 11.9099 84.1302 11.8699 84.8402 11.7999C85.5502 11.7199 86.3102 11.6099 87.1302 11.4599V12.6999C86.3502 12.8799 85.5702 13.0099 84.7802 13.0799C84.0002 13.1599 83.1802 13.1899 82.3402 13.1899V13.1799ZM89.8602 19.3999H81.6502V15.9999H87.9602V15.3299H81.6502V13.9699H89.6202V17.3299H83.2802V18.0399H89.8602V19.3999ZM86.0602 10.6799V9.41995H87.9402V7.06995H89.6102V13.4499H87.9402V10.6899H86.0602V10.6799Z" fill="#93A7E6"/>
<g id="Group">
<path id="Vector_6" d="M102.12 5.94005H97.7497C95.7997 5.94005 94.2197 7.38005 94.2197 9.15005V17.3401C94.2197 19.1101 95.7997 20.5501 97.7497 20.5501H102.12C104.07 20.5501 105.65 19.1101 105.65 17.3401V15.4801C105.65 15.1301 105.34 14.8401 104.95 14.8401H102.65V17.0401C102.65 17.6401 102.11 18.1301 101.45 18.1301H98.4197C97.7597 18.1301 97.2197 17.6401 97.2197 17.0401V9.44005C97.2197 8.84005 97.7597 8.35005 98.4197 8.35005H101.45C102.11 8.35005 102.65 8.84005 102.65 9.44005V11.5901H104.95C105.34 11.5901 105.65 11.3101 105.65 10.9501V9.14005C105.65 7.37005 104.07 5.93005 102.12 5.93005V5.94005Z" fill="#33369E"/>
<path id="Vector_7" d="M115.12 9.05004H112.29C111.21 9.05004 110.33 9.85004 110.33 10.83V4.54004H108.24C107.77 4.54004 107.39 4.89004 107.39 5.31004V19.77C107.39 20.2 107.77 20.54 108.24 20.54H110.33V12.86C110.33 12.12 110.99 11.52 111.8 11.52H114.24C114.84 11.52 115.33 11.96 115.33 12.51V20.54H117.42C117.89 20.54 118.27 20.19 118.27 19.77V11.92C118.27 10.34 116.86 9.05004 115.11 9.05004H115.12Z" fill="#33369E"/>
<path id="Vector_8" d="M163.11 9.04997H160.28C159.2 9.04997 158.32 9.84997 158.32 10.83V8.96997H156.23C155.76 8.96997 155.38 9.31997 155.38 9.73997V19.77C155.38 20.2 155.76 20.54 156.23 20.54H158.32V12.86C158.32 12.12 158.98 11.52 159.79 11.52H162.23C162.83 11.52 163.32 11.96 163.32 12.51V20.54H165.41C165.88 20.54 166.26 20.19 166.26 19.77V11.92C166.26 10.34 164.85 9.04997 163.1 9.04997H163.11Z" fill="#33369E"/>
<path id="Vector_9" d="M123.269 8.97998C121.459 8.97998 119.989 10.31 119.989 11.96V17.55C119.989 19.2 121.459 20.53 123.269 20.53H125.899C126.939 20.53 127.779 19.77 127.779 18.82V20.53H129.969C130.439 20.53 130.829 20.18 130.829 19.75V8.97998H123.269ZM127.779 16.71C127.779 17.49 127.079 18.12 126.219 18.12H124.109C123.429 18.12 122.879 17.62 122.879 17V12.49C122.879 11.87 123.429 11.37 124.109 11.37H127.779V16.7V16.71Z" fill="#33369E"/>
<path id="Vector_10" d="M132.939 5.31003V19.75C132.939 20.18 133.329 20.53 133.799 20.53H135.899V4.53003H133.799C133.319 4.53003 132.939 4.88003 132.939 5.31003Z" fill="#33369E"/>
<path id="Vector_11" d="M140.249 4.53003H138.149V20.53H140.249C140.729 20.53 141.109 20.18 141.109 19.75V5.31003C141.109 4.88003 140.719 4.53003 140.249 4.53003Z" fill="#33369E"/>
<path id="Vector_12" d="M150.23 8.99999H146.45C144.55 8.99999 143.01 10.4 143.01 12.12V17.41C143.01 19.13 144.55 20.53 146.45 20.53H152.78C153.27 20.53 153.66 20.17 153.66 19.73V18.17H147.07C146.48 18.17 146.01 17.74 146.01 17.2V16H152.79C153.28 16 153.67 15.64 153.67 15.2V12.11C153.67 10.39 152.13 8.98999 150.23 8.98999V8.99999ZM150.73 14.08H146.01V12.4C146.01 11.85 146.5 11.41 147.1 11.41H149.63C150.23 11.41 150.72 11.85 150.72 12.4V14.08H150.73Z" fill="#33369E"/>
<path id="Vector_13" d="M190.349 16.01C190.839 16.01 191.229 15.65 191.229 15.21V12.12C191.229 10.4 189.689 9 187.789 9H184.009C182.109 9 180.569 10.4 180.569 12.12V17.41C180.569 19.13 182.109 20.53 184.009 20.53H190.339C190.829 20.53 191.219 20.17 191.219 19.73V18.17H184.629C184.039 18.17 183.569 17.74 183.569 17.2V16H190.349V16.01ZM183.579 12.4C183.579 11.85 184.069 11.41 184.669 11.41H187.199C187.799 11.41 188.289 11.85 188.289 12.4V14.08H183.569V12.4H183.579Z" fill="#33369E"/>
<path id="Vector_14" d="M171.3 8.97997C169.49 8.97997 168.02 10.31 168.02 11.96V16.98C168.02 18.63 169.49 19.96 171.3 19.96H173.93C174.97 19.96 175.81 19.2 175.81 18.25V20.87C175.81 21.4 175.34 21.83 174.76 21.83H168.78V23.46C168.78 23.91 169.18 24.27 169.67 24.27H175.42C177.32 24.27 178.86 22.87 178.86 21.14V8.96997H171.3V8.97997ZM175.81 16.14C175.81 16.92 175.11 17.55 174.25 17.55H172.14C171.46 17.55 170.91 17.05 170.91 16.43V12.49C170.91 11.87 171.46 11.37 172.14 11.37H175.81V16.13V16.14Z" fill="#33369E"/>
</g>
<path id="Vector_15" d="M200 4.1H196.68V0.25H194.55V4.1H191.23V6.23H194.55V10.09H196.68V6.23H200V4.1Z" fill="#00D664"/>
</g>
<defs>
<clipPath id="clip0_1271_20182">
<rect width="200" height="24.03" fill="white" transform="translate(0 0.25)"/>
</clipPath>
</defs>
</svg>
