<svg width="200" height="44" viewBox="0 0 200 44" fill="none" xmlns="http://www.w3.org/2000/svg">
<g id="_&#235;&#160;&#136;&#236;&#157;&#180;&#236;&#150;&#180;_1" clip-path="url(#clip0_1271_20200)">
<g id="Group">
<path id="Vector" d="M59.8999 19.0201V23.5301C59.8999 23.7901 59.7699 23.9101 59.5199 23.9101H57.9399V19.0201H51.5099C51.3599 19.0201 51.2499 19.0001 51.2199 18.9301C51.1499 18.8801 51.1299 18.7801 51.1299 18.6401V17.3901H66.7399V18.6401C66.7399 18.7901 66.6999 18.8801 66.6699 18.9301C66.5999 19.0001 66.5099 19.0201 66.3599 19.0201H59.9099H59.8999ZM64.6299 7.7301V12.4601C64.6299 13.1001 64.4799 13.6101 64.1899 14.0201C63.8799 14.4401 63.4799 14.7701 62.9599 14.9901C62.4299 15.2301 61.8199 15.3901 61.1499 15.4701C60.4499 15.5801 59.6999 15.6201 58.9299 15.6201C58.1599 15.6201 57.4099 15.5801 56.7299 15.4701C56.0299 15.4001 55.4299 15.2301 54.9199 14.9901C54.3899 14.7701 53.9899 14.4401 53.6899 14.0201C53.3799 13.6201 53.2299 13.1001 53.2299 12.4601V7.7301H55.2099V9.7501H62.6499V7.7301H64.6299ZM58.9299 13.9801C59.4399 13.9801 59.9399 13.9601 60.4099 13.9101C60.8499 13.8701 61.2499 13.7801 61.5799 13.6501C61.9099 13.5401 62.1699 13.3601 62.3699 13.1401C62.5499 12.9401 62.6399 12.6601 62.6399 12.3301V11.3801H55.1999V12.3301C55.1999 12.6601 55.2899 12.9301 55.4899 13.1401C55.6699 13.3601 55.9299 13.5401 56.2599 13.6501C56.5899 13.7801 56.9699 13.8701 57.4299 13.9101C57.8699 13.9601 58.3599 13.9801 58.9099 13.9801H58.9299Z" fill="#0052B1"/>
<path id="Vector_2" d="M68.3101 16.67C68.0901 16.78 67.9401 16.74 67.8301 16.6L67.0801 15.46C67.7001 15.19 68.2701 14.84 68.7801 14.43C69.2901 14.03 69.7301 13.59 70.1001 13.07C70.4701 12.58 70.7401 12.03 70.9601 11.44C71.1401 10.85 71.2501 10.23 71.2501 9.57V7.77H73.2501V9.49C73.2501 10.19 73.3601 10.83 73.6001 11.41C73.8201 12.01 74.1301 12.55 74.5201 13C74.8901 13.48 75.3101 13.88 75.8001 14.21C76.2801 14.56 76.7501 14.83 77.2701 15.02L76.5601 16.19C76.4101 16.39 76.2301 16.43 76.0101 16.32C75.3301 16.03 74.6701 15.59 74.0101 15.04C73.3301 14.49 72.7601 13.78 72.3201 12.9C71.8401 13.76 71.2801 14.49 70.6001 15.1C69.9001 15.72 69.1501 16.25 68.3101 16.66V16.67ZM72.1901 21.21C72.1901 21.5 72.2401 21.74 72.3701 21.89C72.4801 22.04 72.6601 22.13 72.9601 22.16C73.3801 22.21 73.7701 22.25 74.1001 22.29C74.4301 22.29 74.8101 22.31 75.2501 22.31C76.2201 22.31 77.1901 22.26 78.1401 22.15C79.0701 22.04 80.0501 21.89 81.0301 21.71L81.2101 22.77C81.2501 23.1 81.1201 23.3 80.8101 23.37C79.8201 23.55 78.8901 23.7 77.9901 23.79C77.0701 23.86 76.1201 23.9 75.1701 23.9C74.7301 23.9 74.3301 23.88 73.9201 23.88L72.6601 23.77C71.8201 23.66 71.1901 23.46 70.8101 23.13C70.4101 22.8 70.2201 22.25 70.2201 21.48V18.24H72.1801V21.21H72.1901ZM80.7901 11.72H83.0601V12.98C83.0601 13.13 83.0201 13.22 82.9901 13.27C82.9201 13.34 82.8301 13.36 82.6801 13.36H80.7901V19.11C80.7901 19.37 80.6601 19.49 80.4101 19.49H78.8301V7H80.7901V11.73V11.72Z" fill="#0052B1"/>
<path id="Vector_3" d="M94.5799 12.64H96.1599V7H98.1199V23.52C98.1199 23.78 97.9899 23.9 97.7399 23.9H96.1599V14.28H94.5799V22.6C94.5799 22.86 94.4499 22.98 94.1999 22.98H92.6199V18.71C91.6699 18.89 90.6799 19.02 89.6499 19.13C88.6099 19.26 87.5799 19.33 86.5699 19.35C85.7299 19.39 85.0999 19.22 84.7199 18.87C84.3199 18.54 84.1299 17.99 84.1299 17.22V8.15H90.8199V9.78H86.1099V16.98C86.1099 17.27 86.1599 17.47 86.2899 17.57C86.3999 17.68 86.5799 17.73 86.8199 17.73C87.7499 17.73 88.7299 17.68 89.7299 17.55C90.7199 17.44 91.6899 17.29 92.6099 17.11V7.36H94.5699V12.64H94.5799Z" fill="#0052B1"/>
<path id="Vector_4" d="M99.7999 10.17C99.6499 10.17 99.5399 10.15 99.5099 10.08C99.4399 10.03 99.4199 9.93004 99.4199 9.79004V8.53004H103.36V6.92004H105.36V8.53004H109.28V9.79004C109.28 9.94004 109.24 10.03 109.21 10.08C109.14 10.15 109.05 10.17 108.9 10.17H99.8099H99.7999ZM100.53 13.85C100.53 12.97 100.86 12.26 101.54 11.72C102.2 11.21 103.13 10.95 104.34 10.95C105.55 10.95 106.48 11.21 107.16 11.72C107.82 12.23 108.17 12.95 108.17 13.85C108.17 14.75 107.82 15.46 107.16 15.98C106.48 16.49 105.55 16.75 104.34 16.75C103.13 16.75 102.2 16.49 101.54 15.96C100.86 15.45 100.53 14.75 100.53 13.85ZM102.72 19.47C102.57 19.47 102.46 19.45 102.43 19.38C102.36 19.33 102.34 19.23 102.34 19.09V17.88H112.89V23.6C112.89 23.86 112.76 23.98 112.51 23.98H110.93V19.47H102.72ZM106.25 13.85C106.25 13.69 106.21 13.52 106.16 13.36C106.09 13.21 106 13.07 105.85 12.94C105.7 12.83 105.5 12.72 105.26 12.65C105 12.58 104.71 12.54 104.34 12.54C103.64 12.54 103.15 12.69 102.87 12.94C102.58 13.21 102.45 13.51 102.45 13.84C102.45 14.21 102.58 14.52 102.87 14.77C103.14 15.04 103.64 15.17 104.34 15.17C104.71 15.17 105 15.13 105.26 15.06C105.5 14.99 105.7 14.9 105.85 14.77C106 14.66 106.09 14.51 106.16 14.35C106.21 14.2 106.25 14.04 106.25 13.86V13.85ZM112.88 11.18H115.15V12.44C115.15 12.59 115.11 12.68 115.08 12.73C115.01 12.8 114.92 12.82 114.77 12.82H112.88V16.56C112.88 16.82 112.75 16.94 112.5 16.94H110.92V7.00004H112.88V11.18Z" fill="#0052B1"/>
<path id="Vector_5" d="M115.7 21.71C115.55 21.71 115.44 21.67 115.41 21.62C115.34 21.55 115.32 21.46 115.32 21.33V20.08H119.02V14.4H121V20.08H123.05V14.4H125.03V20.08H130.93V21.33C130.93 21.46 130.89 21.55 130.86 21.62C130.79 21.67 130.7 21.71 130.55 21.71H115.71H115.7ZM117.81 9.89003C117.66 9.89003 117.55 9.87003 117.52 9.80003C117.45 9.75003 117.43 9.65003 117.43 9.51003V8.28003H127.45C128 8.28003 128.4 8.39003 128.66 8.61003C128.9 8.83003 129.01 9.21003 129.01 9.76003C129.01 10.31 128.99 10.9 128.96 11.54C128.91 12.2 128.85 12.84 128.78 13.48C128.71 14.14 128.62 14.78 128.52 15.4C128.41 16.04 128.32 16.61 128.21 17.1C128.17 17.28 128.1 17.37 128.01 17.41C127.9 17.46 127.75 17.46 127.55 17.43L126.18 17.17C126.29 16.66 126.38 16.13 126.49 15.54C126.58 14.99 126.67 14.4 126.75 13.82C126.83 13.24 126.88 12.67 126.93 12.08C126.97 11.51 127 10.96 127.02 10.41C127.02 10.21 127 10.06 126.93 9.99003C126.84 9.92003 126.67 9.88003 126.45 9.88003H117.82L117.81 9.89003Z" fill="#0052B1"/>
<path id="Vector_6" d="M136.41 22.11C136.12 22.11 136.01 21.96 136.12 21.69L140.72 8.52002H142.96L147.54 21.69C147.65 21.96 147.54 22.11 147.25 22.11H145.58L144.41 18.63H139.24L138.1 22.11H136.41ZM139.74 17.11H143.9L141.81 10.84L139.74 17.11Z" fill="#0052B1"/>
<path id="Vector_7" d="M149.14 22.11V8.52002H151.21V21.75C151.21 21.99 151.08 22.12 150.84 22.12H149.14V22.11Z" fill="#0052B1"/>
<path id="Vector_8" d="M164.11 12.64H165.69V7H167.65V23.52C167.65 23.78 167.52 23.9 167.27 23.9H165.69V14.28H164.11V22.6C164.11 22.86 163.98 22.98 163.73 22.98H162.15V18.71C161.2 18.89 160.21 19.02 159.18 19.13C158.14 19.26 157.11 19.33 156.1 19.35C155.26 19.39 154.63 19.22 154.25 18.87C153.85 18.54 153.66 17.99 153.66 17.22V8.15H160.35V9.78H155.64V16.98C155.64 17.27 155.69 17.47 155.82 17.57C155.93 17.68 156.11 17.73 156.35 17.73C157.28 17.73 158.26 17.68 159.26 17.55C160.25 17.44 161.22 17.29 162.14 17.11V7.36H164.1V12.64H164.11Z" fill="#0052B1"/>
<path id="Vector_9" d="M169.33 10.17C169.18 10.17 169.07 10.15 169.04 10.08C168.97 10.03 168.95 9.93004 168.95 9.79004V8.53004H172.89V6.92004H174.89V8.53004H178.81V9.79004C178.81 9.94004 178.77 10.03 178.74 10.08C178.67 10.15 178.58 10.17 178.43 10.17H169.34H169.33ZM170.06 13.85C170.06 12.97 170.39 12.26 171.07 11.72C171.73 11.21 172.66 10.95 173.87 10.95C175.08 10.95 176.01 11.21 176.69 11.72C177.35 12.23 177.7 12.95 177.7 13.85C177.7 14.75 177.35 15.46 176.69 15.98C176.01 16.49 175.08 16.75 173.87 16.75C172.66 16.75 171.73 16.49 171.07 15.96C170.39 15.45 170.06 14.75 170.06 13.85ZM172.24 19.47C172.09 19.47 171.98 19.45 171.95 19.38C171.88 19.33 171.86 19.23 171.86 19.09V17.88H182.41V23.6C182.41 23.86 182.28 23.98 182.03 23.98H180.45V19.47H172.24ZM175.77 13.85C175.77 13.69 175.73 13.52 175.68 13.36C175.61 13.21 175.52 13.07 175.37 12.94C175.22 12.83 175.02 12.72 174.78 12.65C174.52 12.58 174.23 12.54 173.86 12.54C173.16 12.54 172.67 12.69 172.39 12.94C172.1 13.21 171.97 13.51 171.97 13.84C171.97 14.21 172.1 14.52 172.39 14.77C172.66 15.04 173.16 15.17 173.86 15.17C174.23 15.17 174.52 15.13 174.78 15.06C175.02 14.99 175.22 14.9 175.37 14.77C175.52 14.66 175.61 14.51 175.68 14.35C175.73 14.2 175.77 14.04 175.77 13.86V13.85ZM182.41 11.18H184.68V12.44C184.68 12.59 184.64 12.68 184.61 12.73C184.54 12.8 184.45 12.82 184.3 12.82H182.41V16.56C182.41 16.82 182.28 16.94 182.03 16.94H180.45V7.00004H182.41V11.18Z" fill="#0052B1"/>
<path id="Vector_10" d="M199.55 19.68C199.55 19.94 199.42 20.06 199.17 20.06H197.59V19.14H194.53C194.38 19.14 194.27 19.12 194.24 19.05C194.17 19 194.15 18.9 194.15 18.76V17.5H197.59V16.02C196.93 16.17 196.2 16.28 195.39 16.39C194.57 16.5 193.72 16.61 192.84 16.68C192.8 17.12 192.75 17.52 192.71 17.93L192.55 19.14C192.51 19.4 192.37 19.49 192.15 19.45L190.59 19.25C190.64 18.87 190.7 18.46 190.77 18.06C190.81 17.66 190.86 17.27 190.9 16.87C189.95 16.94 189.03 17 188.15 17.03C187.25 17.07 186.46 17.08 185.8 17.08C185.62 17.08 185.51 17.06 185.43 17.01C185.36 16.97 185.3 16.85 185.28 16.64L185.1 15.47C185.98 15.47 186.95 15.43 188.03 15.38C189.09 15.34 190.17 15.29 191.29 15.2C192.39 15.13 193.49 15.02 194.59 14.89C195.67 14.78 196.66 14.63 197.58 14.45V7.01001H199.54V19.69L199.55 19.68ZM186.33 10.99C186.33 10.48 186.42 10.02 186.64 9.62001C186.84 9.22001 187.13 8.87001 187.52 8.58001C187.89 8.31001 188.36 8.09001 188.91 7.92001C189.44 7.77001 190.05 7.70001 190.74 7.70001C192.1 7.70001 193.18 7.99001 193.98 8.56001C194.77 9.15001 195.17 9.97001 195.17 11C195.17 12.03 194.77 12.85 193.98 13.42C193.17 14.01 192.09 14.3 190.74 14.3C190.04 14.3 189.44 14.23 188.91 14.06C188.36 13.91 187.88 13.69 187.52 13.4C187.14 13.13 186.84 12.78 186.64 12.37C186.42 11.97 186.33 11.51 186.33 11V10.99ZM189.86 21.21C189.86 21.5 189.91 21.74 190.04 21.89C190.15 22.04 190.33 22.13 190.63 22.16C191.05 22.21 191.53 22.25 192.04 22.29C192.55 22.29 193.03 22.31 193.47 22.31C193.95 22.31 194.46 22.29 195.01 22.27C195.54 22.23 196.09 22.18 196.64 22.14C197.19 22.09 197.72 22.03 198.27 21.96C198.8 21.89 199.31 21.8 199.81 21.7L199.99 22.76C200.03 23.09 199.9 23.29 199.59 23.36C198.6 23.54 197.57 23.69 196.49 23.78C195.39 23.85 194.35 23.89 193.39 23.89H192.68C192.41 23.87 192.13 23.87 191.87 23.87C191.58 23.85 191.3 23.83 191.05 23.83C190.78 23.79 190.54 23.78 190.34 23.76C189.5 23.65 188.87 23.45 188.49 23.12C188.09 22.79 187.9 22.24 187.9 21.47V18.78H189.86V21.2V21.21ZM193.23 10.99C193.23 10.51 193.03 10.13 192.64 9.82001C192.24 9.53001 191.61 9.36001 190.73 9.36001C189.85 9.36001 189.26 9.52001 188.86 9.82001C188.46 10.13 188.26 10.52 188.26 10.97C188.26 11.46 188.46 11.87 188.86 12.16C189.26 12.47 189.89 12.62 190.73 12.62C191.57 12.62 192.23 12.47 192.64 12.16C193.02 11.87 193.23 11.46 193.23 10.99Z" fill="#0052B1"/>
</g>
<g id="Group_2">
<path id="Vector_11" d="M51.1299 30.1C51.1299 29.73 51.1899 29.39 51.3399 29.06C51.4699 28.76 51.6499 28.49 51.8899 28.26C52.1199 28.04 52.3899 27.87 52.7099 27.74C53.0199 27.62 53.3699 27.56 53.7399 27.56C54.1099 27.56 54.4399 27.62 54.7699 27.74C55.0799 27.87 55.3599 28.04 55.5999 28.26C55.8399 28.49 56.0199 28.76 56.1599 29.06C56.2899 29.38 56.3499 29.73 56.3499 30.1C56.3499 30.49 56.2899 30.84 56.1599 31.14C56.0199 31.45 55.8399 31.72 55.5999 31.94C55.3599 32.17 55.0799 32.34 54.7699 32.46C54.4499 32.59 54.1099 32.64 53.7399 32.64C53.3699 32.64 53.0299 32.59 52.7099 32.46C52.3899 32.34 52.1199 32.17 51.8899 31.94C51.6499 31.72 51.4699 31.45 51.3399 31.13C51.1999 30.83 51.1299 30.48 51.1299 30.1ZM55.2099 30.1C55.2099 29.65 55.0799 29.28 54.8299 28.97C54.5699 28.69 54.1999 28.54 53.7399 28.54C53.5199 28.54 53.3199 28.58 53.1499 28.65C52.9699 28.74 52.8099 28.84 52.6799 28.97C52.5499 29.11 52.4499 29.27 52.3899 29.46C52.3099 29.65 52.2799 29.87 52.2799 30.09C52.2799 30.56 52.4099 30.93 52.6799 31.22C52.9399 31.52 53.2999 31.66 53.7399 31.66C54.1799 31.66 54.5699 31.52 54.8299 31.22C55.0799 30.94 55.2099 30.56 55.2099 30.11V30.1ZM54.2599 35.52C54.2599 35.69 54.2899 35.83 54.3699 35.92C54.4299 36.01 54.5399 36.06 54.7199 36.08C54.9699 36.11 55.1999 36.13 55.3899 36.16C55.5799 36.16 55.8099 36.17 56.0699 36.17C56.6399 36.17 57.2199 36.14 57.7799 36.07C58.3299 36.01 58.9099 35.92 59.4899 35.81L59.5999 36.44C59.6199 36.63 59.5499 36.75 59.3599 36.8C58.7799 36.91 58.2199 36.99 57.6899 37.05C57.1499 37.09 56.5899 37.11 56.0199 37.11C55.7599 37.11 55.5199 37.1 55.2799 37.1L54.5299 37.04C54.0299 36.98 53.6599 36.86 53.4399 36.66C53.1999 36.47 53.0899 36.14 53.0899 35.69V33.78H54.2499V35.53L54.2599 35.52ZM59.3299 34.29C59.3299 34.44 59.2499 34.52 59.0999 34.52H58.1699V27.13H59.3299V34.29Z" fill="#04B5CF"/>
<path id="Vector_12" d="M70.9402 29.6899V31.6299H75.4402V32.3699C75.4402 32.4599 75.4202 32.5099 75.4002 32.5399C75.3602 32.5799 75.3002 32.5899 75.2202 32.5899H66.4602C66.3702 32.5899 66.3102 32.5799 66.2902 32.5399C66.2502 32.5099 66.2402 32.4499 66.2402 32.3699V31.6299H69.7902V29.6899H70.9602H70.9402ZM67.3102 35.3199C67.3102 34.6799 67.6102 34.1899 68.2202 33.8599C68.8302 33.5399 69.6902 33.3599 70.8402 33.3599C71.9902 33.3599 72.8502 33.5299 73.4602 33.8599C74.0702 34.1999 74.3702 34.6799 74.3702 35.3199C74.3702 35.9599 74.0702 36.4499 73.4602 36.7799C72.8502 37.0999 71.9802 37.2799 70.8402 37.2799C69.7002 37.2799 68.8302 37.1099 68.2202 36.7799C67.6102 36.4399 67.3102 35.9599 67.3102 35.3199ZM67.7002 28.3599C67.6102 28.3599 67.5502 28.3499 67.5302 28.3099C67.4902 28.2799 67.4802 28.2199 67.4802 28.1399V27.4299H73.4002C73.7202 27.4299 73.9602 27.4999 74.1102 27.6199C74.2502 27.7499 74.3202 27.9799 74.3202 28.2999C74.3102 28.7799 74.2802 29.2199 74.2202 29.6299C74.1602 30.0399 74.0602 30.4699 73.9502 30.9099C73.9202 31.0199 73.8702 31.0699 73.8302 31.0899C73.7702 31.1199 73.6802 31.1199 73.5602 31.0999L72.7502 30.9499C72.8502 30.5799 72.9302 30.2099 73.0102 29.8499C73.0702 29.4899 73.1202 29.0999 73.1402 28.6799C73.1402 28.5599 73.1302 28.4699 73.0902 28.4299C73.0402 28.3899 72.9402 28.3699 72.8102 28.3699H67.7102L67.7002 28.3599ZM73.2002 35.3199C73.2002 34.9699 72.9802 34.7099 72.5702 34.5499C72.1402 34.3999 71.5602 34.3099 70.8302 34.3099C70.1002 34.3099 69.5102 34.3999 69.1002 34.5499C68.6702 34.7099 68.4602 34.9699 68.4602 35.3199C68.4602 35.6699 68.6702 35.9299 69.1002 36.0899C69.5102 36.2399 70.1002 36.3299 70.8302 36.3299C71.5602 36.3299 72.1402 36.2399 72.5702 36.0899C72.9802 35.9299 73.2002 35.6699 73.2002 35.3199Z" fill="#04B5CF"/>
<path id="Vector_13" d="M85.6096 28.78V29.28C85.6096 30.19 85.8196 31.02 86.2496 31.77C86.6696 32.53 87.2896 33.17 88.0996 33.66L87.6096 34.3C87.5096 34.42 87.3896 34.43 87.2596 34.32C86.7696 33.95 86.3396 33.55 85.9496 33.11C85.5596 32.68 85.2496 32.18 85.0096 31.64C84.7596 32.19 84.4396 32.7 84.0496 33.17C83.6396 33.65 83.1696 34.07 82.6496 34.44C82.5096 34.54 82.3896 34.53 82.2996 34.42L81.8096 33.78C82.1996 33.53 82.5696 33.24 82.8896 32.9C83.2096 32.58 83.4796 32.22 83.7096 31.83C83.9296 31.45 84.0996 31.04 84.2296 30.61C84.3496 30.19 84.4096 29.74 84.4096 29.29V28.79H82.5296C82.4396 28.79 82.3796 28.78 82.3596 28.74C82.3196 28.71 82.3096 28.65 82.3096 28.57V27.82H87.7096V28.57C87.7096 28.66 87.6896 28.71 87.6696 28.74C87.6296 28.78 87.5696 28.79 87.4896 28.79H85.6096V28.78ZM90.4896 36.88C90.4896 37.03 90.4096 37.11 90.2596 37.11H89.3296V27.13H90.4896V36.89V36.88Z" fill="#04B5CF"/>
<path id="Vector_14" d="M97.6096 32.8099C97.5196 32.8099 97.4597 32.7999 97.4397 32.7599C97.3997 32.7299 97.3896 32.6699 97.3896 32.5899V31.8499H106.61V32.5899C106.61 32.6799 106.59 32.7299 106.57 32.7599C106.53 32.7999 106.47 32.8099 106.39 32.8099H97.6296H97.6096ZM98.4596 35.3699C98.4596 34.7299 98.7597 34.2599 99.3697 33.9299C99.9797 33.6299 100.84 33.4599 101.99 33.4599C103.14 33.4599 104 33.6199 104.61 33.9299C105.22 34.2499 105.52 34.7299 105.52 35.3699C105.52 36.0099 105.22 36.4799 104.61 36.8099C104 37.1099 103.13 37.2799 101.99 37.2799C100.85 37.2799 99.9797 37.1199 99.3697 36.8099C98.7597 36.4899 98.4596 36.0099 98.4596 35.3699ZM99.7796 27.3099V29.3299C99.7796 29.5099 99.8096 29.6399 99.8896 29.7299C99.9496 29.8199 100.06 29.8699 100.24 29.8899C100.49 29.9299 100.72 29.9499 100.92 29.9499C101.11 29.9699 101.35 29.9699 101.61 29.9699C101.89 29.9699 102.2 29.9699 102.53 29.9499C102.84 29.9499 103.17 29.9299 103.5 29.8999C103.82 29.8799 104.15 29.8499 104.47 29.7999C104.78 29.7699 105.09 29.7199 105.38 29.6599L105.48 30.2699C105.5 30.4799 105.43 30.5899 105.24 30.6299C104.66 30.7499 104.05 30.8199 103.4 30.8699C102.74 30.9199 102.12 30.9499 101.56 30.9499C101.3 30.9499 101.05 30.9499 100.81 30.9299C100.55 30.9299 100.3 30.9099 100.05 30.8799C99.5497 30.8299 99.1796 30.6999 98.9596 30.4999C98.7196 30.3099 98.6096 29.9799 98.6096 29.5299V27.3199H99.7696L99.7796 27.3099ZM104.36 35.3699C104.36 35.0199 104.14 34.7699 103.72 34.6199C103.29 34.4899 102.71 34.4099 101.99 34.4099C101.27 34.4099 100.68 34.4899 100.26 34.6199C99.8297 34.7699 99.6197 35.0199 99.6197 35.3699C99.6197 35.7199 99.8297 35.9699 100.26 36.1199C100.68 36.2499 101.26 36.3299 101.99 36.3299C102.72 36.3299 103.29 36.2499 103.72 36.1199C104.14 35.9699 104.36 35.7199 104.36 35.3699Z" fill="#04B5CF"/>
<path id="Vector_15" d="M114.04 35.37C114.04 34.68 114.41 34.18 115.14 33.86V32.7H113.18C113.09 32.7 113.03 32.69 113.01 32.65C112.97 32.62 112.96 32.56 112.96 32.48V31.74H122.18V32.48C122.18 32.57 122.16 32.62 122.14 32.65C122.1 32.69 122.04 32.7 121.96 32.7H120V33.86C120.74 34.18 121.1 34.68 121.1 35.37C121.1 36.01 120.8 36.48 120.19 36.81C119.58 37.11 118.71 37.28 117.57 37.28C116.43 37.28 115.56 37.12 114.95 36.81C114.34 36.49 114.04 36.01 114.04 35.37ZM121.03 29.18C121.03 29.81 120.74 30.29 120.16 30.62C119.58 30.96 118.71 31.12 117.56 31.12C116.41 31.12 115.56 30.96 114.97 30.62C114.38 30.3 114.08 29.81 114.08 29.18C114.08 28.55 114.37 28.08 114.97 27.74C115.55 27.42 116.41 27.24 117.56 27.24C118.71 27.24 119.57 27.41 120.16 27.74C120.73 28.08 121.03 28.55 121.03 29.18ZM119.93 35.37C119.93 35.02 119.71 34.77 119.29 34.62C118.86 34.49 118.28 34.41 117.56 34.41C116.84 34.41 116.25 34.49 115.83 34.62C115.4 34.77 115.19 35.02 115.19 35.37C115.19 35.72 115.4 35.97 115.83 36.12C116.25 36.25 116.83 36.33 117.56 36.33C118.29 36.33 118.86 36.25 119.29 36.12C119.71 35.97 119.93 35.72 119.93 35.37ZM117.56 28.18C116.02 28.18 115.26 28.52 115.26 29.19C115.26 29.51 115.44 29.76 115.83 29.94C116.21 30.11 116.78 30.2 117.56 30.2C118.34 30.2 118.89 30.11 119.28 29.94C119.66 29.77 119.85 29.52 119.85 29.19C119.85 28.52 119.08 28.18 117.56 28.18ZM117.56 33.47C117.79 33.47 118 33.48 118.22 33.48L118.81 33.55V32.71H116.3V33.55C116.48 33.53 116.68 33.51 116.89 33.48C117.1 33.48 117.31 33.47 117.55 33.47H117.56Z" fill="#04B5CF"/>
<path id="Vector_16" d="M128.85 28.78C128.76 28.78 128.7 28.77 128.68 28.73C128.64 28.7 128.63 28.64 128.63 28.56V27.81H130.96V26.97H132.14V27.81H134.45V28.56C134.45 28.65 134.43 28.7 134.41 28.73C134.37 28.77 134.31 28.78 134.23 28.78H128.86H128.85ZM129.28 30.9C129.28 30.38 129.47 29.97 129.88 29.68C130.27 29.4 130.82 29.25 131.54 29.25C132.26 29.25 132.81 29.39 133.21 29.67C133.6 29.96 133.8 30.37 133.8 30.9C133.8 31.43 133.59 31.84 133.21 32.12C132.81 32.41 132.26 32.55 131.54 32.55C130.82 32.55 130.27 32.41 129.88 32.12C129.48 31.84 129.28 31.43 129.28 30.9ZM136.57 33.12V35.26C136.57 35.63 136.5 35.94 136.38 36.2C136.24 36.44 136.04 36.64 135.79 36.8C135.52 36.94 135.2 37.05 134.81 37.11C134.42 37.16 133.97 37.2 133.47 37.2C132.97 37.2 132.51 37.17 132.13 37.11C131.74 37.05 131.42 36.94 131.16 36.8C130.89 36.65 130.69 36.44 130.57 36.2C130.43 35.94 130.36 35.63 130.36 35.26V33.12H131.52V34.18H135.44V33.12H136.6H136.57ZM132.66 30.9C132.66 30.8 132.64 30.71 132.61 30.62C132.57 30.53 132.51 30.46 132.43 30.39C132.35 30.32 132.22 30.27 132.08 30.23C131.93 30.2 131.76 30.18 131.54 30.18C131.13 30.18 130.84 30.26 130.67 30.39C130.5 30.54 130.42 30.7 130.42 30.9C130.42 31.12 130.5 31.29 130.67 31.42C130.83 31.57 131.12 31.64 131.54 31.64C131.76 31.64 131.93 31.62 132.08 31.58C132.22 31.55 132.34 31.49 132.43 31.43C132.52 31.37 132.57 31.29 132.61 31.2C132.64 31.11 132.66 31.03 132.66 30.92V30.9ZM133.46 36.26C133.81 36.26 134.1 36.24 134.36 36.22C134.6 36.19 134.8 36.13 134.97 36.07C135.12 35.99 135.23 35.9 135.32 35.78C135.38 35.65 135.43 35.49 135.43 35.29V35.13H131.51V35.29C131.51 35.48 131.54 35.65 131.63 35.78C131.7 35.9 131.81 36 131.98 36.07C132.13 36.13 132.33 36.19 132.59 36.22C132.83 36.24 133.13 36.26 133.48 36.26H133.46ZM136.57 29.27H137.91V30.02C137.91 30.11 137.89 30.16 137.87 30.19C137.83 30.23 137.77 30.24 137.69 30.24H136.58V32.45C136.58 32.6 136.5 32.68 136.35 32.68H135.42V27.13H136.58V29.27H136.57Z" fill="#04B5CF"/>
<path id="Vector_17" d="M144.6 30.1C144.6 29.73 144.67 29.39 144.81 29.06C144.94 28.76 145.12 28.49 145.36 28.26C145.59 28.04 145.86 27.87 146.18 27.74C146.49 27.62 146.84 27.56 147.21 27.56C147.58 27.56 147.91 27.62 148.24 27.74C148.55 27.87 148.84 28.04 149.07 28.26C149.31 28.49 149.49 28.76 149.63 29.06C149.76 29.38 149.82 29.73 149.82 30.1C149.82 30.49 149.76 30.84 149.63 31.14C149.49 31.45 149.31 31.72 149.07 31.94C148.83 32.17 148.55 32.34 148.24 32.46C147.92 32.59 147.58 32.64 147.21 32.64C146.84 32.64 146.5 32.59 146.18 32.46C145.86 32.34 145.58 32.17 145.36 31.94C145.12 31.72 144.94 31.45 144.81 31.13C144.67 30.83 144.6 30.48 144.6 30.1ZM148.68 30.1C148.68 29.65 148.55 29.28 148.3 28.97C148.04 28.69 147.67 28.54 147.21 28.54C146.99 28.54 146.79 28.58 146.62 28.65C146.44 28.74 146.28 28.84 146.15 28.97C146.02 29.11 145.92 29.27 145.86 29.46C145.78 29.65 145.75 29.87 145.75 30.09C145.75 30.56 145.88 30.93 146.15 31.22C146.41 31.52 146.77 31.66 147.21 31.66C147.65 31.66 148.04 31.52 148.3 31.22C148.55 30.94 148.68 30.56 148.68 30.11V30.1ZM147.72 35.52C147.72 35.69 147.75 35.83 147.83 35.92C147.89 36.01 148 36.06 148.18 36.08C148.43 36.11 148.66 36.13 148.85 36.16C149.04 36.16 149.27 36.17 149.53 36.17C150.1 36.17 150.68 36.14 151.24 36.07C151.79 36.01 152.37 35.92 152.95 35.81L153.06 36.44C153.08 36.63 153.01 36.75 152.82 36.8C152.24 36.91 151.68 36.99 151.15 37.05C150.61 37.09 150.05 37.11 149.48 37.11C149.22 37.11 148.98 37.1 148.74 37.1L147.99 37.04C147.49 36.98 147.12 36.86 146.9 36.66C146.66 36.47 146.55 36.14 146.55 35.69V33.78H147.71V35.53L147.72 35.52ZM152.8 34.29C152.8 34.44 152.72 34.52 152.57 34.52H151.64V31.59H150.44C150.35 31.59 150.29 31.58 150.27 31.54C150.23 31.51 150.22 31.45 150.22 31.37V30.62H151.65V29.43H150.45C150.36 29.43 150.3 29.42 150.28 29.38C150.24 29.35 150.23 29.29 150.23 29.21V28.46H151.66V27.14H152.82V34.3L152.8 34.29Z" fill="#04B5CF"/>
<path id="Vector_18" d="M164.869 33.6799V36.8799C164.869 37.0299 164.789 37.1099 164.639 37.1099H163.709V33.6799H159.909C159.819 33.6799 159.759 33.6699 159.739 33.6299C159.699 33.5999 159.689 33.5399 159.689 33.4599V32.7199H168.909V33.4599C168.909 33.5499 168.889 33.5999 168.869 33.6299C168.829 33.6699 168.769 33.6799 168.689 33.6799H164.879H164.869ZM161.159 28.6199C161.069 28.6199 161.009 28.6099 160.989 28.5699C160.949 28.5399 160.939 28.4799 160.939 28.3999V27.6799H166.859C167.179 27.6799 167.419 27.7399 167.569 27.8699C167.709 27.9999 167.779 28.2299 167.779 28.5499C167.769 29.1299 167.739 29.6899 167.689 30.2199C167.639 30.7599 167.539 31.3199 167.409 31.9199C167.389 32.0299 167.339 32.0799 167.289 32.0999C167.229 32.1299 167.139 32.1299 167.019 32.1099L166.209 31.9599C166.339 31.3799 166.429 30.8299 166.489 30.3599C166.539 29.8799 166.579 29.4199 166.599 28.9399C166.599 28.8199 166.589 28.7299 166.549 28.6899C166.499 28.6499 166.399 28.6299 166.269 28.6299H161.169L161.159 28.6199Z" fill="#04B5CF"/>
<path id="Vector_19" d="M178.59 28.86C178.59 29.54 178.76 30.15 179.13 30.68C179.49 31.22 179.97 31.64 180.59 31.96L180.11 32.62C180.07 32.69 180.01 32.72 179.97 32.72C179.91 32.72 179.84 32.7 179.76 32.64C179.37 32.41 179.05 32.15 178.76 31.85C178.47 31.57 178.23 31.24 178.04 30.9C177.63 31.66 177.02 32.27 176.2 32.77C176.11 32.82 176.05 32.85 176.01 32.85C175.94 32.85 175.9 32.82 175.86 32.75L175.38 32.09C175.68 31.94 175.95 31.74 176.21 31.53C176.46 31.31 176.68 31.08 176.87 30.79C177.04 30.53 177.18 30.24 177.29 29.91C177.39 29.6 177.44 29.25 177.44 28.88V27.59H178.58V28.86H178.59ZM178.66 35.52C178.66 35.69 178.69 35.83 178.77 35.92C178.83 36.01 178.94 36.06 179.12 36.08C179.37 36.11 179.65 36.13 179.95 36.16C180.25 36.16 180.53 36.17 180.79 36.17C181.36 36.17 181.94 36.14 182.5 36.07C183.05 36.01 183.63 35.92 184.21 35.81L184.32 36.44C184.34 36.63 184.27 36.75 184.08 36.8C183.5 36.91 182.94 36.99 182.41 37.05C181.87 37.09 181.31 37.11 180.74 37.11H180.32C180.16 37.1 180 37.1 179.84 37.1C179.67 37.09 179.5 37.08 179.35 37.08C179.19 37.06 179.05 37.05 178.93 37.04C178.43 36.98 178.06 36.86 177.84 36.66C177.6 36.47 177.49 36.14 177.49 35.69V33.78H178.65V35.53L178.66 35.52ZM182.08 34.18C182.08 34.33 182 34.41 181.85 34.41H180.92V30.25H179.86C179.77 30.25 179.71 30.24 179.69 30.2C179.65 30.17 179.64 30.11 179.64 30.03V29.28H180.93V27.35H182.09V34.19L182.08 34.18ZM184.06 34.29C184.06 34.44 183.98 34.52 183.83 34.52H182.9V27.13H184.06V34.29Z" fill="#04B5CF"/>
<path id="Vector_20" d="M196.469 27.81V28.77H192.819V30.62H196.249V31.58H192.819V33.24C192.819 33.41 192.849 33.53 192.929 33.59C192.999 33.65 193.099 33.69 193.239 33.69C193.479 33.69 193.769 33.68 194.119 33.64C194.459 33.62 194.809 33.57 195.179 33.52C195.539 33.48 195.889 33.42 196.259 33.36C196.609 33.31 196.929 33.24 197.209 33.18L197.349 33.86C197.379 34.02 197.319 34.12 197.139 34.16C196.859 34.22 196.559 34.28 196.209 34.33C195.849 34.39 195.499 34.44 195.129 34.48C194.759 34.53 194.389 34.58 194.049 34.6C193.679 34.63 193.369 34.65 193.089 34.65C192.589 34.66 192.219 34.56 191.999 34.37C191.759 34.18 191.649 33.85 191.649 33.4V27.82H196.459L196.469 27.81ZM199.529 36.88C199.529 37.03 199.449 37.11 199.299 37.11H198.369V31.43H197.059C196.969 31.43 196.909 31.42 196.889 31.38C196.849 31.35 196.839 31.29 196.839 31.21V30.46H198.379V27.13H199.539V36.89L199.529 36.88Z" fill="#04B5CF"/>
</g>
<g id="Group_3">
<g id="(&#234;&#176;&#128;&#235;&#161;&#156;)&#235;&#161;&#156;&#234;&#179;&#160;">
<g id="Group_4">
<g id="Group_5">
<path id="Vector_21" d="M5.2291 18.82C5.1091 19.44 4.6991 19.85 4.1591 19.74C3.6091 19.63 3.3591 19.05 3.4691 18.52C3.4891 18.4 3.5291 18.28 3.5991 18.18C3.5391 18.59 3.7091 19.09 4.1691 19.18C4.5891 19.26 4.8191 19 4.8991 18.62C4.9191 18.51 4.9291 18.39 4.9391 18.28L2.7591 17.85C2.4891 17.79 2.2991 17.75 2.0991 17.98H2.0791L2.2691 17.03H2.2891C2.3291 17.29 2.6891 17.34 2.9091 17.38L4.7291 17.74C4.9491 17.78 5.2991 17.88 5.4391 17.66H5.4491L5.2191 18.82H5.2291Z" fill="#004DA0"/>
<path id="Vector_22" d="M1.99958 22.08C1.71958 21.86 1.61958 21.46 1.62958 21.12C1.63958 20.8 1.75958 20.46 1.99958 20.25C2.28958 20 2.62958 20.02 2.97958 20.04L4.28958 20.08C4.50958 20.08 4.86958 20.13 4.96958 19.89H4.97958L4.94958 20.81H4.93958C4.84958 20.56 4.48958 20.58 4.26958 20.58L2.95958 20.54C2.29958 20.52 1.98958 20.78 1.97958 21.28C1.97958 21.55 2.06958 21.83 2.29958 22C2.44958 22.11 2.56958 22.11 2.73958 22.12L4.21958 22.17C4.43958 22.17 4.79958 22.22 4.89958 21.98H4.91958L4.88958 22.9H4.86958C4.77958 22.65 4.42958 22.67 4.19958 22.66L2.33958 22.6C2.11958 22.6 1.75958 22.55 1.65958 22.8H1.64958L1.66958 22.09H1.99958V22.08Z" fill="#004DA0"/>
<path id="Vector_23" d="M4.58959 25.0401C4.75959 24.8301 4.82959 24.5201 4.79959 24.2501C4.75959 23.9801 4.60959 23.6401 4.26959 23.6901C3.59959 23.7701 3.82959 25.4301 2.92959 25.5401C2.40959 25.6101 1.84959 25.1301 1.74959 24.3801C1.70959 24.0801 1.71959 23.7901 1.77959 23.5001L2.36959 23.2801C2.15959 23.6001 2.04959 24.0101 2.09959 24.3901C2.12959 24.6601 2.35959 25.0501 2.69959 25.0101C3.45959 24.9101 3.10959 23.2701 4.13959 23.1401C4.74959 23.0601 5.06959 23.6501 5.14959 24.2401C5.17959 24.4801 5.17959 24.7301 5.13959 24.9701L4.58959 25.0401Z" fill="#004DA0"/>
<path id="Vector_24" d="M4.07949 27.42L3.80949 26.5L5.13949 26.63L4.07949 27.42ZM3.76949 27.66L3.16949 28.1C2.86949 28.32 2.83949 28.37 2.65949 28.17H2.64949L2.92949 29.13H2.93949C2.99949 28.82 3.23949 28.66 3.47949 28.48L5.62949 26.83L5.41949 26.09H5.40949C5.40949 26.34 5.17949 26.31 4.98949 26.29L2.78949 26.07C2.48949 26.04 2.19949 26.04 1.98949 25.8H1.97949L2.22949 26.66H2.24949C2.26949 26.41 2.41949 26.4 2.70949 26.43L3.44949 26.48L3.78949 27.66H3.76949Z" fill="#004DA0"/>
<path id="Vector_25" d="M3.83926 29.57C3.58926 29.69 3.40926 29.77 3.38926 30.07H3.36926L2.98926 29.3H2.99926C3.24926 29.46 3.42926 29.37 3.66926 29.25L5.43926 28.41C5.68926 28.29 5.85926 28.2 5.88926 27.91H5.89926L6.21926 28.54C6.21926 28.54 6.15926 28.61 6.13926 28.66L6.07926 28.76L4.82926 31.34L6.50926 30.54C6.75926 30.42 6.93926 30.34 6.94926 30.05H6.95926L7.33926 30.81H7.32926C7.07926 30.65 6.90926 30.74 6.65926 30.86L4.17926 32.05C4.13926 31.69 4.20926 31.48 4.36926 31.17L5.55926 28.75L3.84926 29.57H3.83926Z" fill="#004DA0"/>
<path id="Vector_26" d="M6.61926 34.29C6.40926 34.47 6.25926 34.6 6.31926 34.89L5.73926 34.26H5.74926C6.03926 34.34 6.18926 34.21 6.38926 34.03L7.84926 32.74C8.05926 32.56 8.19926 32.43 8.13926 32.14H8.14926L8.62926 32.66C8.59926 32.71 8.58926 32.75 8.58926 32.8L8.55926 32.92L8.07926 35.74L9.45926 34.51C9.65926 34.33 9.81926 34.2 9.74926 33.91H9.75926L10.3393 34.53H10.3293C10.0493 34.45 9.89926 34.58 9.69926 34.76L7.64926 36.58C7.49926 36.24 7.51926 36.03 7.58926 35.68L8.04926 33.04L6.63926 34.29H6.61926Z" fill="#004DA0"/>
<path id="Vector_27" d="M10.6698 36.9901L9.89977 36.4001L11.0498 35.7301L10.6698 36.9901ZM10.5598 37.3501L10.3398 38.0501C10.2298 38.4001 10.2298 38.4601 9.96977 38.4001H9.95977L10.7598 39.0201H10.7698C10.6398 38.7301 10.7298 38.4601 10.8198 38.1801L11.5598 35.6001L10.9498 35.1301C11.0898 35.3401 10.8898 35.4501 10.7298 35.5401L8.81977 36.6401C8.55977 36.7901 8.32977 36.9501 8.00977 36.8901L8.71977 37.4501C8.58977 37.2301 8.69977 37.1301 8.94977 36.9801L9.57977 36.5901L10.5598 37.3401V37.3501Z" fill="#004DA0"/>
<path id="Vector_28" d="M12.2298 39.1301C12.0898 39.3701 11.9898 39.5301 12.1398 39.7901L11.2998 39.3201C11.5598 39.3501 11.7198 39.0301 11.8298 38.8401L12.9298 36.9701L12.5498 36.7601C12.3698 36.6601 12.1498 36.5901 11.9498 36.6401H11.9298L12.3698 36.2201H12.3798C12.4198 36.2801 12.4698 36.3101 12.5198 36.3501L12.6298 36.4101L14.2198 37.3201C14.2898 37.3601 14.3598 37.4001 14.4298 37.4001H14.4398L14.0098 37.8301H13.9998C14.0298 37.6401 13.8698 37.5201 13.7298 37.4401L13.3498 37.2201L12.2198 39.1301H12.2298Z" fill="#004DA0"/>
<path id="Vector_29" d="M14.5498 38.1901C14.6398 37.9901 14.8198 37.6801 14.6298 37.4901L15.4898 37.8501C15.2198 37.8501 15.0998 38.1901 15.0198 38.3901L14.2698 40.0601C14.1798 40.2601 14.0098 40.5701 14.1998 40.7501L13.3398 40.3901C13.5998 40.3901 13.7198 40.0501 13.8098 39.8501L14.5598 38.1801L14.5498 38.1901Z" fill="#004DA0"/>
<path id="Vector_30" d="M17.2792 38.73C18.0292 38.93 18.2892 39.71 18.0892 40.4C17.8892 41.1 17.2792 41.49 16.5592 41.29C15.8092 41.09 15.5392 40.28 15.7192 39.63C15.9192 38.92 16.5392 38.53 17.2692 38.73H17.2792ZM17.4092 38.41C16.4192 38.11 15.4292 38.64 15.1792 39.53C14.9092 40.49 15.5092 41.37 16.4492 41.63C17.3892 41.89 18.3892 41.42 18.6592 40.46C18.8992 39.62 18.4092 38.68 17.4092 38.41Z" fill="#004DA0"/>
<path id="Vector_31" d="M19.4598 41.5C19.4398 41.77 19.4198 41.97 19.6698 42.13L18.7998 42.08C19.0698 41.94 19.0898 41.74 19.1098 41.47L19.2598 39.54C19.2798 39.26 19.2898 39.07 19.0498 38.91L19.7698 38.95C19.7898 39.02 19.7998 39.04 19.8398 39.08L19.8998 39.18L21.5298 41.55L21.6698 39.71C21.6898 39.44 21.7098 39.25 21.4598 39.08L22.3198 39.13C22.0498 39.27 22.0398 39.47 22.0198 39.74L21.8198 42.45C21.4798 42.31 21.3398 42.14 21.1398 41.85L19.6198 39.62L19.4798 41.49L19.4598 41.5Z" fill="#004DA0"/>
<path id="Vector_32" d="M24.3298 40.6201L23.3598 40.7201L23.7198 39.4601L24.3298 40.6301V40.6201ZM24.5098 40.9601L24.8398 41.6101C25.0098 41.9301 25.0498 41.9801 24.8198 42.1101V42.1301L25.8298 42.0301C25.5398 41.9001 25.4198 41.6401 25.2798 41.3801L23.9998 39.0101L23.2298 39.0901C23.4798 39.1501 23.3998 39.3601 23.3498 39.5501L22.7398 41.6401C22.6598 41.9201 22.6098 42.2001 22.3398 42.3701V42.3901L23.2398 42.3001V42.2801C22.9898 42.2201 23.0098 42.0701 23.0898 41.7901L23.2698 41.0801L24.5098 40.9601Z" fill="#004DA0"/>
<path id="Vector_33" d="M27.4494 41.2201C27.7794 41.1501 28.0294 40.9701 28.2194 40.7101H28.2294L28.1494 41.3901L26.1894 41.9101C26.4094 41.7501 26.2894 41.4101 26.2294 41.2001L25.7494 39.4301C25.6894 39.2201 25.6294 38.8601 25.3594 38.8401V38.8201L26.2594 38.5801C26.0394 38.7501 26.1694 39.0901 26.2294 39.3001L26.7794 41.3401L27.4394 41.2101L27.4494 41.2201Z" fill="#004DA0"/>
<path id="Vector_34" d="M32.3097 39.12C32.2497 39.47 31.9596 39.76 31.6496 39.92C31.3696 40.07 31.0096 40.15 30.7096 40.04C30.3396 39.92 30.1896 39.63 30.0296 39.32L29.3996 38.18C29.2996 37.99 29.1496 37.66 28.8896 37.7L29.7096 37.25C29.5396 37.46 29.7396 37.76 29.8396 37.95L30.4696 39.09C30.7796 39.65 31.1696 39.79 31.6196 39.55C31.8596 39.42 32.0496 39.19 32.0896 38.92C32.1096 38.74 32.0496 38.63 31.9696 38.48L31.2596 37.2C31.1596 37.01 30.9996 36.68 30.7396 36.72L31.5596 36.27C31.3896 36.48 31.5796 36.78 31.6896 36.97L32.5797 38.58C32.6897 38.77 32.8296 39.1 33.0996 39.06L32.4596 39.41L32.3097 39.13V39.12Z" fill="#004DA0"/>
<path id="Vector_35" d="M33.9293 37.6601C34.1093 37.8701 34.2293 38.0201 34.5293 37.9701H34.5393L33.8693 38.5301C33.9693 38.2401 33.8493 38.0901 33.6693 37.8801L32.4093 36.3901C32.2293 36.1901 32.1093 36.0401 31.8193 36.0901L32.3693 35.6201C32.4193 35.6601 32.4493 35.6601 32.4993 35.6701L32.6193 35.7001L35.4593 36.2801L34.2593 34.8701C34.0793 34.6601 33.9593 34.5101 33.6593 34.5601L34.3293 34.0001C34.2293 34.2901 34.3493 34.4301 34.5293 34.6401L36.2993 36.7301C35.9593 36.8601 35.7393 36.8401 35.3893 36.7601L32.7193 36.2101L33.9393 37.6501L33.9293 37.6601Z" fill="#004DA0"/>
<path id="Vector_36" d="M35.2193 33.9301C35.0493 33.7801 34.7993 33.5201 34.5693 33.6401L35.1893 32.9401C35.0993 33.1901 35.3893 33.4101 35.5493 33.5501L36.9393 34.7601C37.1093 34.9101 37.3493 35.1701 37.5893 35.0401H37.5993L36.9793 35.7401H36.9693C37.0693 35.4901 36.7793 35.2701 36.6093 35.1301L35.2193 33.9101V33.9301Z" fill="#004DA0"/>
<path id="Vector_37" d="M37.29 31.5401C37.08 31.2301 36.84 30.8701 36.57 31.0501H36.56L36.98 30.4501L39.02 33.4101C38.64 33.5601 38.54 33.6301 38.14 33.5301L36.06 33.0001C35.8 32.9301 35.52 32.8301 35.26 32.9101H35.25L35.66 32.3201L35.7 32.3601C35.79 32.4201 36.04 32.4801 36.15 32.5101L38.35 33.0801L37.28 31.5501L37.29 31.5401Z" fill="#004DA0"/>
<path id="Vector_38" d="M39.85 30.8901L40.18 30.3601C40.35 30.0801 40.41 29.7401 40.32 29.4301L40.81 29.8901L39.91 31.7101H39.9C39.93 31.4401 39.59 31.3101 39.39 31.2101L37.72 30.4101C37.52 30.3101 37.21 30.1301 37.01 30.3201H37L37.69 28.9201C37.73 28.8501 37.77 28.7801 37.77 28.7001L38.29 28.9401C38.06 29.0101 37.96 29.1801 37.86 29.3801C37.78 29.5301 37.71 29.6901 37.67 29.8401L38.49 30.2401L38.75 29.7201C38.78 29.6501 38.82 29.5801 38.82 29.5201L39.29 29.7301C39.13 29.7501 39.04 29.9401 38.97 30.0701L38.81 30.3901L39.86 30.8901H39.85Z" fill="#004DA0"/>
<path id="Vector_39" d="M38.3097 27.18C38.5197 26.56 38.9497 26.33 39.3797 26.47C39.7897 26.6 39.9997 27.06 39.9597 27.47L41.0197 27.08C41.3297 26.96 41.6697 26.75 41.9197 26.54L41.7797 26.96C41.6997 27.21 41.5897 27.34 41.3697 27.42L40.4797 27.76L39.6797 27.97C39.7497 27.58 39.7197 27.1 39.2797 26.95C38.9397 26.84 38.6497 27.07 38.5597 27.38C38.5297 27.49 38.5097 27.59 38.4897 27.7L40.5797 28.37C40.7897 28.44 41.1297 28.58 41.2897 28.37H41.2997L41.0097 29.26H40.9997C40.9997 28.99 40.6297 28.91 40.4297 28.84L38.6597 28.28C38.4397 28.21 38.1097 28.07 37.9397 28.28H37.9297L38.2897 27.18H38.3097Z" fill="#004DA0"/>
<path id="Vector_40" d="M39.6197 24.0501C39.3997 24.2101 39.2397 24.4901 39.1897 24.7501C39.1397 25.0201 39.1897 25.3801 39.5297 25.4301C40.1897 25.5401 40.4597 23.8901 41.3597 24.0401C41.8797 24.1201 42.2797 24.7401 42.1497 25.4901C42.0997 25.7801 42.0097 26.0601 41.8597 26.3201L41.2297 26.3601C41.5197 26.1201 41.7497 25.7501 41.8097 25.3801C41.8597 25.1101 41.7597 24.6701 41.4197 24.6101C40.6597 24.4901 40.5197 26.1601 39.4897 25.9901C38.8797 25.8901 38.7497 25.2401 38.8497 24.6501C38.8897 24.4101 38.9597 24.1701 39.0797 23.9601L39.6297 24.0501H39.6197Z" fill="#004DA0"/>
<path id="Vector_41" d="M39.7693 23.2201C39.5393 23.2101 39.1893 23.1501 39.0793 23.3901H39.0693L39.1193 22.4701H39.1293C39.2093 22.7201 39.5793 22.7101 39.7993 22.7201L41.6493 22.8201C41.8693 22.8301 42.2293 22.8801 42.3393 22.6501H42.3493L42.2993 23.5701H42.2893C42.2193 23.3201 41.8493 23.3301 41.6293 23.3201L39.7793 23.2201H39.7693Z" fill="#004DA0"/>
<path id="Vector_42" d="M41.65 20.7201C41.93 20.7001 42.12 20.7001 42.26 20.4301H42.28L42.33 21.3901H42.31C42.2 21.1501 41.85 21.2001 41.63 21.2101L39.44 21.3301L39.46 21.7601C39.47 21.9701 39.54 22.1801 39.69 22.3201L39.1 22.2001C39.12 22.1301 39.12 22.0701 39.12 22.0001V21.8801L39.01 20.0701C39.01 19.9901 39 19.9101 38.96 19.8501V19.8301L39.55 19.9501C39.38 20.0401 39.37 20.2301 39.38 20.3901L39.4 20.8301L41.64 20.7101L41.65 20.7201Z" fill="#004DA0"/>
<path id="Vector_43" d="M41.2199 17.81C41.5099 17.75 41.6499 17.72 41.7799 17.45H41.7899L41.9799 18.37H41.9599C41.7899 18.17 41.4899 18.26 41.2599 18.31L40.5499 18.45L39.4199 19.5C39.2299 19.67 39.0999 19.8 39.0199 20.05L38.9299 19.62C38.8999 19.47 38.8999 19.32 38.9899 19.24L40.0899 18.23L39.0699 17.82C38.9299 17.76 38.6799 17.7 38.5999 17.99H38.5899L38.4199 17.16L40.4499 17.97L41.2099 17.82L41.2199 17.81Z" fill="#004DA0"/>
<path id="Vector_44" d="M5.24965 14.3701C5.24965 14.6001 5.05965 14.7901 4.81965 14.7901C4.57965 14.7901 4.38965 14.6001 4.38965 14.3701C4.38965 14.1401 4.57965 13.9501 4.81965 13.9501C5.05965 13.9501 5.24965 14.1401 5.24965 14.3701Z" fill="#004DA0"/>
<path id="Vector_45" d="M39.6598 14.3701C39.6598 14.6001 39.4698 14.7901 39.2298 14.7901C38.9898 14.7901 38.7998 14.6001 38.7998 14.3701C38.7998 14.1401 38.9898 13.9501 39.2298 13.9501C39.4698 13.9501 39.6598 14.1401 39.6598 14.3701Z" fill="#004DA0"/>
</g>
<path id="Vector_46" d="M23.2604 2.40002H22.8404V1.40002H22.3404V3.98002C22.1704 4.16002 21.8804 4.15002 21.8804 4.15002H20.4804C20.4804 4.15002 20.4404 4.13002 20.4404 4.11002V2.10002H21.9404V1.70002H19.9404V4.11002C19.9404 4.35002 20.1404 4.54002 20.3804 4.54002H21.8704C21.8704 4.54002 22.1104 4.56002 22.3404 4.44002V5.83002H22.8404V2.80002H23.2604V5.83002H23.7604V1.40002H23.2604V2.40002Z" fill="#004DA0"/>
<path id="Vector_47" d="M7.05977 11.8L8.32977 10.41L9.44977 11.41L9.77977 11.04L8.66977 10.05L9.92977 8.67002L9.62977 8.40002L6.75977 11.54L7.05977 11.8Z" fill="#004DA0"/>
<path id="Vector_48" d="M6.46973 10.6C6.64973 10.76 6.92973 10.75 7.08973 10.57L8.68973 8.82998C8.84973 8.64998 8.83973 8.37998 8.65973 8.21998L7.40973 7.09998L7.06973 7.46998L7.57973 7.91998L6.05973 9.57998L5.54973 9.12998L5.21973 9.48998L6.46973 10.61V10.6ZM7.87973 8.17998L8.32973 8.57998C8.32973 8.57998 8.34973 8.61998 8.32973 8.62998L6.85973 10.23C6.85973 10.23 6.81973 10.25 6.80973 10.23L6.35973 9.82998L7.87973 8.16998V8.17998Z" fill="#004DA0"/>
<path id="Vector_49" d="M14.9698 2.59998L14.5098 2.80998L15.8398 5.73998L16.2998 5.53998L15.5498 3.87998L16.1498 3.60998L15.9898 3.24998L15.3798 3.50998L14.9698 2.59998Z" fill="#004DA0"/>
<path id="Vector_50" d="M14.24 7.23001L13.75 6.14001L13.29 6.34001L13.78 7.43001C13.88 7.65001 14.14 7.75001 14.36 7.65001L16.77 6.59001L16.6 6.23001L14.28 7.25001C14.28 7.25001 14.24 7.25001 14.23 7.23001H14.24Z" fill="#004DA0"/>
<path id="Vector_51" d="M13.1499 3.98998L12.9699 3.59998L12.5099 3.79998L12.6899 4.18998C13.2199 5.34998 12.1999 6.08998 12.1299 6.12998L12.5699 6.29998C12.7999 6.09998 13.2799 5.60998 13.3199 4.97998C13.8199 5.36998 14.5099 5.33998 14.8199 5.30998L14.9899 4.86998C14.8899 4.88998 13.6699 5.13998 13.1399 3.98998H13.1499Z" fill="#004DA0"/>
<g id="Group_6">
<path id="Vector_52" d="M36.7304 9.73998L36.3904 9.38998L35.1104 10.56L34.7004 10.13L35.9804 8.94998L35.6404 8.59998L34.3604 9.76998L33.6504 9.01998L33.3604 9.27998L36.2104 12.29L36.5004 12.02L35.4504 10.92L36.7304 9.73998Z" fill="#004DA0"/>
<path id="Vector_53" d="M37.0904 10.22C36.5704 10.7 36.1504 10.85 36.1504 10.85L36.4904 11.21C36.4904 11.21 36.9104 11.06 37.4204 10.58L38.7104 9.39001L36.4504 7.01001L36.1604 7.28001L38.0804 9.30001L37.0804 10.22H37.0904Z" fill="#004DA0"/>
</g>
<g id="Group_7">
<path id="Vector_54" d="M32.1703 5.33999L32.3304 4.97999L31.7204 4.71999L32.1203 3.80999L31.6604 3.60999L30.6104 5.99999L31.0704 6.19999L31.5604 5.07999L32.1703 5.33999Z" fill="#004DA0"/>
<path id="Vector_55" d="M30.9899 6.38001L28.0899 5.14001L27.9199 5.50001L30.3699 6.55001L29.8699 7.67001L30.3299 7.86001L30.9899 6.38001Z" fill="#004DA0"/>
<path id="Vector_56" d="M31.15 3.82L29.99 3.32L30.19 2.87L29.73 2.67001L29.53 3.13L28.37 2.63L28.21 3.00001L28.78 3.24001C28.57 3.34001 28.4 3.50001 28.31 3.71001C28.08 4.22001 28.37 4.84 28.95 5.09C29.53 5.34 30.18 5.12 30.41 4.61C30.5 4.4 30.51 4.16001 30.44 3.95001L31 4.19001L31.16 3.82H31.15ZM29.09 4.73C28.77 4.59 28.62 4.23001 28.75 3.91001C28.89 3.60001 29.26 3.46 29.58 3.6C29.9 3.74 30.05 4.10001 29.91 4.41001C29.77 4.72001 29.4 4.86 29.08 4.73H29.09Z" fill="#004DA0"/>
</g>
<g id="Group_8">
<path id="Vector_57" d="M44.02 22.15C44.02 34.23 34.17 44.02 22.01 44.02C9.85 44.02 0 34.23 0 22.15C0 10.07 9.85 0.280029 22.01 0.280029C34.17 0.280029 44.02 10.07 44.02 22.15ZM22.01 0.580029C10.02 0.580029 0.3 10.23 0.3 22.15C0.3 34.07 10.02 43.72 22.01 43.72C34 43.72 43.72 34.06 43.72 22.15C43.72 10.24 34 0.580029 22.01 0.580029Z" fill="#004DA0"/>
<path id="Vector_58" d="M37.9596 22.15C37.9596 30.9 30.8196 38 22.0096 38C13.1996 38 6.05957 30.9 6.05957 22.15C6.05957 13.4 13.1996 6.30005 22.0096 6.30005C30.8196 6.30005 37.9596 13.39 37.9596 22.15ZM22.0096 6.60005C13.3696 6.60005 6.35957 13.56 6.35957 22.15C6.35957 30.74 13.3696 37.7 22.0096 37.7C30.6496 37.7 37.6596 30.74 37.6596 22.15C37.6596 13.56 30.6496 6.60005 22.0096 6.60005Z" fill="#004DA0"/>
</g>
</g>
</g>
<g id="Group_9">
<g id="Group_10">
<path id="Vector_59" d="M29.6295 32.9201H12.2695V31.8401H29.6395C31.5495 31.8401 33.0995 30.2901 33.0995 28.3801C33.0995 26.4701 31.5495 24.9201 29.6395 24.9201H12.2695V23.8401H29.6395C32.1395 23.8401 34.1695 25.8701 34.1695 28.3701C34.1695 30.8701 32.1395 32.9001 29.6395 32.9001L29.6295 32.9201Z" fill="#0C54B1"/>
<g id="Group_11">
<path id="Vector_60" d="M15.8591 27.5601C15.8591 27.9601 15.7391 28.2701 15.5191 28.4801C15.2891 28.7001 14.9491 28.8101 14.5091 28.8101H13.7391V30.2901C13.7391 30.3601 13.6991 30.4001 13.6291 30.4001H13.1191V26.3101H14.5191C14.9691 26.3101 15.3091 26.4201 15.5391 26.6401C15.7591 26.8601 15.8791 27.1701 15.8791 27.5701L15.8591 27.5601ZM14.4791 28.3101C14.6991 28.3101 14.8891 28.2501 15.0291 28.1301C15.1691 28.0101 15.2391 27.8301 15.2391 27.5701C15.2391 27.3101 15.1691 27.1301 15.0291 27.0001C14.8891 26.8801 14.6991 26.8101 14.4791 26.8101H13.7291V28.3101H14.4791Z" fill="#0C54B1"/>
<path id="Vector_61" d="M18.9994 30.4001L17.2094 26.9301V30.2901C17.2094 30.3601 17.1694 30.4001 17.0994 30.4001H16.6094V26.3101H17.4294L19.2194 29.7301V26.3101H19.8194V30.2901C19.8194 30.3601 19.7794 30.4001 19.7094 30.4001H18.9994Z" fill="#0C54B1"/>
<path id="Vector_62" d="M22.3288 30.4601C22.1088 30.4601 21.9088 30.4301 21.7188 30.3701C21.5288 30.3101 21.3588 30.2201 21.2188 30.0901C21.0788 29.9601 20.9588 29.8001 20.8788 29.5901C20.7988 29.3901 20.7588 29.1401 20.7588 28.8501V26.3101H21.3888V28.9301C21.3888 29.1201 21.4088 29.2801 21.4588 29.4001C21.4988 29.5301 21.5588 29.6401 21.6488 29.7101C21.7288 29.8001 21.8288 29.8601 21.9388 29.8901C22.0488 29.9301 22.1788 29.9501 22.3188 29.9501C22.4488 29.9501 22.5788 29.9301 22.6988 29.8901C22.8088 29.8601 22.9088 29.8001 22.9888 29.7101C23.0688 29.6301 23.1288 29.5301 23.1788 29.4001C23.2188 29.2701 23.2488 29.1101 23.2488 28.9301V26.3101H23.8788V28.8501C23.8788 29.1401 23.8388 29.3901 23.7588 29.5901C23.6788 29.8001 23.5688 29.9701 23.4288 30.0901C23.2888 30.2201 23.1188 30.3101 22.9288 30.3701C22.7388 30.4301 22.5288 30.4601 22.3188 30.4601H22.3288Z" fill="#0C54B1"/>
<path id="Vector_63" d="M26.2292 30.4C26.1392 30.4 26.1092 30.36 26.1392 30.27L27.5292 26.3H28.1992L29.5792 30.27C29.6092 30.35 29.5792 30.4 29.4892 30.4H28.9892L28.6392 29.35H27.0792L26.7392 30.4H26.2292ZM27.2292 28.9H28.4792L27.8492 27.01L27.2292 28.9Z" fill="#0C54B1"/>
<path id="Vector_64" d="M30.249 30.4001V26.3101H30.869V30.2901C30.869 30.3601 30.829 30.4001 30.759 30.4001H30.249Z" fill="#0C54B1"/>
</g>
</g>
<g id="Group_12">
<path id="Vector_65" d="M17.8796 19.49C18.1596 19.49 18.4296 19.55 18.6796 19.67C18.6796 19.67 18.6796 19.67 18.6796 19.66C18.6796 19.07 19.0996 18.57 19.6496 18.44L20.0396 17.03C19.7996 16.8 19.6596 16.47 19.6596 16.13C19.6596 15.44 20.2196 14.88 20.9096 14.88C21.1596 14.88 21.3996 14.96 21.6096 15.09L23.6096 14.05C23.5896 13.94 23.5796 13.83 23.5796 13.71C23.5796 13.58 23.5896 13.45 23.6196 13.33L22.7296 12.82C22.4896 12.99 22.1996 13.09 21.8896 13.09C21.0996 13.09 20.4496 12.45 20.4496 11.65C20.4496 10.85 21.0896 10.21 21.8896 10.21C22.1696 10.21 22.4296 10.29 22.6496 10.43C22.6296 10.33 22.6196 10.23 22.6196 10.12C22.6196 9.85005 22.6996 9.60005 22.8296 9.38005C18.5296 9.03005 17.8096 11.78 17.6096 12.84C17.5596 13.1 17.3896 13.32 17.1396 13.42L15.0096 14.3C14.5896 14.48 14.4696 15.02 14.7896 15.36L15.2896 15.88C15.4896 16.09 15.4896 16.41 15.2896 16.62L14.8596 17.07C14.7396 17.19 14.7396 17.39 14.8596 17.51C15.0396 17.7 15.0496 18 14.8596 18.19L14.7396 18.32C14.6296 18.44 14.6296 18.63 14.7396 18.75L14.8096 18.83C14.9196 18.95 14.9296 19.14 14.8196 19.27C14.6996 19.42 14.5396 19.62 14.3896 19.85C14.1496 20.21 14.1796 20.7 14.4896 21C14.8996 21.41 15.4396 21.75 16.0896 22.03C16.0096 21.83 15.9696 21.6 15.9696 21.37C15.9696 20.33 16.8196 19.48 17.8596 19.48L17.8796 19.49ZM18.7096 13.43C18.7696 13.39 18.8496 13.39 18.9096 13.43L19.6996 14.05C19.7496 14.09 19.7196 14.18 19.6596 14.18H18.6296C18.5396 14.18 18.4696 14.11 18.4696 14.02C18.4696 13.68 18.6196 13.5 18.7196 13.43H18.7096Z" fill="url(#paint0_linear_1271_20200)"/>
<path id="Vector_66" d="M22.3994 21.46C22.3994 21.46 22.3994 21.44 22.3994 21.42L20.6794 20.65C20.4594 20.81 20.1994 20.91 19.9194 20.91C19.8394 20.91 19.7694 20.91 19.6894 20.89C19.7294 21.05 19.7494 21.21 19.7494 21.38C19.7494 21.94 19.4994 22.44 19.1094 22.79C20.3894 22.93 21.7294 22.9 22.9794 22.68C22.6194 22.4 22.3894 21.96 22.3894 21.47L22.3994 21.46Z" fill="#0052B1"/>
<path id="Vector_67" d="M31.4394 16.5901C31.2394 16.5901 31.0494 16.6701 30.9194 16.8001L26.8594 14.3501C26.9494 14.1501 27.0094 13.9301 27.0094 13.7001C27.0094 13.5001 26.9694 13.3001 26.8894 13.1201L28.3994 12.2701C28.6194 12.5401 28.9494 12.7201 29.3194 12.7201C29.9694 12.7201 30.4994 12.1901 30.4994 11.5401C30.4994 10.8901 29.9694 10.3601 29.3194 10.3601C28.6694 10.3601 28.1394 10.8901 28.1394 11.5401C28.1394 11.6901 28.1694 11.8301 28.2194 11.9501L26.7094 12.8001C26.5994 12.6601 26.4694 12.5301 26.3194 12.4301L26.8194 11.4201C26.8694 11.4301 26.9194 11.4401 26.9794 11.4401C27.3894 11.4401 27.7194 11.1101 27.7194 10.7001C27.7194 10.2901 27.3894 9.96008 26.9794 9.96008C26.5694 9.96008 26.2394 10.2901 26.2394 10.7001C26.2394 10.9301 26.3394 11.1301 26.4994 11.2701L25.9994 12.2801C25.8394 12.2201 25.6794 12.1901 25.4994 12.1901C25.3694 12.1901 25.2394 12.2101 25.1094 12.2401L24.5994 10.9601C24.8894 10.7801 25.0794 10.4601 25.0794 10.1001C25.0794 9.54008 24.6194 9.08008 24.0594 9.08008C23.4994 9.08008 23.0394 9.54008 23.0394 10.1001C23.0394 10.6601 23.4994 11.1201 24.0594 11.1201C24.1294 11.1201 24.1994 11.1201 24.2694 11.1001L24.7794 12.3701C24.5894 12.4701 24.4294 12.6201 24.2994 12.7901L22.8494 11.9601C22.8894 11.8501 22.9094 11.7401 22.9094 11.6201C22.9094 11.0601 22.4494 10.6001 21.8894 10.6001C21.3294 10.6001 20.8694 11.0601 20.8694 11.6201C20.8694 12.1801 21.3294 12.6401 21.8894 12.6401C22.1994 12.6401 22.4794 12.5001 22.6694 12.2701L24.1094 13.0901C24.0294 13.2701 23.9894 13.4701 23.9894 13.6701C23.9894 13.8601 24.0294 14.0501 24.0994 14.2201L21.5394 15.5501C21.3894 15.3701 21.1594 15.2501 20.8994 15.2501C20.4394 15.2501 20.0694 15.6201 20.0694 16.0801C20.0694 16.4001 20.2494 16.6801 20.5094 16.8201L19.9594 18.7901C19.9594 18.7901 19.9294 18.7901 19.9094 18.7901C19.4494 18.7901 19.0794 19.1601 19.0794 19.6201C19.0794 19.7601 19.1094 19.8901 19.1794 20.0101L18.8694 20.2701C18.6094 20.0301 18.2594 19.8701 17.8694 19.8701C17.0594 19.8701 16.3994 20.5301 16.3994 21.3401C16.3994 22.1501 17.0594 22.8101 17.8694 22.8101C18.6794 22.8101 19.3394 22.1501 19.3394 21.3401C19.3394 21.0501 19.2494 20.7701 19.0994 20.5401L19.4094 20.2801C19.5494 20.3901 19.7294 20.4501 19.9194 20.4501C20.1894 20.4501 20.4394 20.3201 20.5894 20.1101L22.8494 21.1301C22.8294 21.2201 22.8094 21.3201 22.8094 21.4201C22.8094 22.0401 23.3094 22.5401 23.9294 22.5401C24.5494 22.5401 25.0494 22.0401 25.0494 21.4201C25.0494 20.8001 24.5494 20.3001 23.9294 20.3001C23.9294 20.3001 23.9094 20.3001 23.8994 20.3001L23.6294 18.8401C24.1294 18.6701 24.4894 18.2001 24.4894 17.6401C24.4894 17.2301 24.2894 16.8701 23.9894 16.6301L24.8894 15.0201C25.0694 15.1001 25.2794 15.1501 25.4894 15.1501C25.6694 15.1501 25.8294 15.1201 25.9894 15.0601L27.3094 18.1701C27.0394 18.3501 26.8594 18.6601 26.8594 19.0101C26.8594 19.5701 27.3194 20.0301 27.8794 20.0301C28.4394 20.0301 28.8994 19.5701 28.8994 19.0101C28.8994 18.4501 28.4394 17.9901 27.8794 17.9901C27.7994 17.9901 27.7194 18.0001 27.6394 18.0201L26.3094 14.8901C26.4394 14.8101 26.5494 14.7001 26.6494 14.5901L30.7194 17.0401C30.6994 17.1101 30.6894 17.1801 30.6894 17.2601C30.6894 17.6701 31.0194 18.0001 31.4294 18.0001C31.8394 18.0001 32.1694 17.6701 32.1694 17.2601C32.1694 16.8501 31.8394 16.5201 31.4294 16.5201L31.4394 16.5901ZM29.3194 10.7301C29.7694 10.7301 30.1394 11.1001 30.1394 11.5501C30.1394 12.0001 29.7694 12.3701 29.3194 12.3701C28.8694 12.3701 28.4994 12.0001 28.4994 11.5501C28.4994 11.1001 28.8694 10.7301 29.3194 10.7301ZM26.9894 10.3301C27.1994 10.3301 27.3694 10.5001 27.3694 10.7101C27.3694 10.9201 27.1994 11.0901 26.9894 11.0901C26.7794 11.0901 26.6094 10.9201 26.6094 10.7101C26.6094 10.5001 26.7794 10.3301 26.9894 10.3301ZM24.0594 10.7801C23.6994 10.7801 23.3994 10.4801 23.3994 10.1201C23.3994 9.76008 23.6994 9.46008 24.0594 9.46008C24.4194 9.46008 24.7194 9.76008 24.7194 10.1201C24.7194 10.4801 24.4194 10.7801 24.0594 10.7801ZM21.8994 12.3101C21.5394 12.3101 21.2394 12.0101 21.2394 11.6501C21.2394 11.2901 21.5394 10.9901 21.8994 10.9901C22.2594 10.9901 22.5594 11.2901 22.5594 11.6501C22.5594 12.0101 22.2594 12.3101 21.8994 12.3101ZM17.8794 22.4801C17.2694 22.4801 16.7694 21.9801 16.7694 21.3701C16.7694 20.7601 17.2694 20.2601 17.8794 20.2601C18.4894 20.2601 18.9894 20.7601 18.9894 21.3701C18.9894 21.9801 18.4894 22.4801 17.8794 22.4801ZM27.8994 18.4201C28.2594 18.4201 28.5594 18.7201 28.5594 19.0801C28.5594 19.4401 28.2594 19.7401 27.8994 19.7401C27.5394 19.7401 27.2394 19.4401 27.2394 19.0801C27.2394 18.7201 27.5394 18.4201 27.8994 18.4201ZM20.4394 16.1201C20.4394 15.8601 20.6494 15.6401 20.9194 15.6401C21.1894 15.6401 21.3994 15.8501 21.3994 16.1201C21.3994 16.3901 21.1894 16.6001 20.9194 16.6001C20.6494 16.6001 20.4394 16.3901 20.4394 16.1201ZM19.9294 20.1301C19.6694 20.1301 19.4494 19.9201 19.4494 19.6501C19.4494 19.3801 19.6594 19.1701 19.9294 19.1701C20.1994 19.1701 20.4094 19.3801 20.4094 19.6501C20.4094 19.9201 20.1994 20.1301 19.9294 20.1301ZM23.0094 20.8501L20.7494 19.8301C20.7594 19.7701 20.7694 19.7201 20.7694 19.6601C20.7694 19.3401 20.5894 19.0601 20.3294 18.9201L20.8794 16.9501C20.8794 16.9501 20.9094 16.9501 20.9294 16.9501C21.1594 16.9501 21.3694 16.8501 21.5194 16.7001L22.0794 17.1601C22.0094 17.3201 21.9594 17.5001 21.9594 17.6901C21.9594 18.3901 22.5294 18.9601 23.2294 18.9601C23.2494 18.9601 23.2694 18.9601 23.2894 18.9601L23.5594 20.4201C23.3294 20.5001 23.1394 20.6501 23.0094 20.8501ZM23.9394 20.7101C24.3594 20.7101 24.6994 21.0501 24.6994 21.4701C24.6994 21.8901 24.3594 22.2301 23.9394 22.2301C23.5194 22.2301 23.1794 21.8901 23.1794 21.4701C23.1794 21.0501 23.5194 20.7101 23.9394 20.7101ZM24.1394 17.6901C24.1394 18.1901 23.7294 18.6001 23.2294 18.6001C22.7294 18.6001 22.3194 18.1901 22.3194 17.6901C22.3194 17.1901 22.7294 16.7801 23.2294 16.7801C23.7294 16.7801 24.1394 17.1901 24.1394 17.6901ZM23.6794 16.5101C23.5394 16.4501 23.3794 16.4201 23.2194 16.4201C22.8394 16.4201 22.4994 16.5901 22.2594 16.8601L21.6894 16.4001C21.7194 16.3101 21.7394 16.2201 21.7394 16.1201C21.7394 16.0401 21.7294 15.9701 21.7094 15.9001L24.2694 14.5701C24.3594 14.6901 24.4594 14.8001 24.5794 14.8901L23.6694 16.5001L23.6794 16.5101ZM25.5094 14.8501C24.8794 14.8501 24.3694 14.3401 24.3694 13.7101C24.3694 13.0801 24.8794 12.5701 25.5094 12.5701C26.1394 12.5701 26.6494 13.0801 26.6494 13.7101C26.6494 14.3401 26.1394 14.8501 25.5094 14.8501ZM31.4394 17.7101C31.2294 17.7101 31.0594 17.5401 31.0594 17.3301C31.0594 17.1201 31.2294 16.9501 31.4394 16.9501C31.6494 16.9501 31.8194 17.1201 31.8194 17.3301C31.8194 17.5401 31.6494 17.7101 31.4394 17.7101Z" fill="#04B5CF"/>
<path id="Vector_68" d="M25.5642 14.4937C25.9994 14.4627 26.3271 14.0848 26.2961 13.6496C26.2652 13.2144 25.8873 12.8867 25.4521 12.9177C25.0169 12.9487 24.6892 13.3266 24.7201 13.7618C24.7511 14.197 25.129 14.5247 25.5642 14.4937Z" fill="#0052B1"/>
<path id="Vector_69" d="M21.8991 11.3701C21.7491 11.3701 21.6191 11.4901 21.6191 11.6501C21.6191 11.8101 21.7391 11.9301 21.8991 11.9301C22.0591 11.9301 22.1791 11.8101 22.1791 11.6501C22.1791 11.4901 22.0591 11.3701 21.8991 11.3701Z" fill="#04B5CF"/>
<path id="Vector_70" d="M27.8991 19.35C28.0491 19.35 28.1791 19.23 28.1791 19.07C28.1791 18.91 28.0591 18.79 27.8991 18.79C27.7391 18.79 27.6191 18.91 27.6191 19.07C27.6191 19.23 27.7391 19.35 27.8991 19.35Z" fill="#04B5CF"/>
<path id="Vector_71" d="M24.0593 9.84009C23.9093 9.84009 23.7793 9.96009 23.7793 10.1201C23.7793 10.2801 23.8993 10.4001 24.0593 10.4001C24.2193 10.4001 24.3393 10.2801 24.3393 10.1201C24.3393 9.96009 24.2193 9.84009 24.0593 9.84009Z" fill="#04B5CF"/>
<path id="Vector_72" d="M23.94 21.8601C24.161 21.8601 24.34 21.681 24.34 21.4601C24.34 21.2391 24.161 21.0601 23.94 21.0601C23.7191 21.0601 23.54 21.2391 23.54 21.4601C23.54 21.681 23.7191 21.8601 23.94 21.8601Z" fill="#04B5CF"/>
<path id="Vector_73" d="M29.3199 11.95C29.5399 11.95 29.7199 11.77 29.7199 11.55C29.7199 11.33 29.5399 11.15 29.3199 11.15C29.0999 11.15 28.9199 11.33 28.9199 11.55C28.9199 11.77 29.0999 11.95 29.3199 11.95Z" fill="#04B5CF"/>
<path id="Vector_74" d="M23.2197 18.1901C23.4959 18.1901 23.7197 17.9662 23.7197 17.6901C23.7197 17.4139 23.4959 17.1901 23.2197 17.1901C22.9436 17.1901 22.7197 17.4139 22.7197 17.6901C22.7197 17.9662 22.9436 18.1901 23.2197 18.1901Z" fill="#04B5CF"/>
<path id="Vector_75" d="M17.88 20.79C17.55 20.79 17.29 21.05 17.29 21.38C17.29 21.71 17.55 21.97 17.88 21.97C18.21 21.97 18.47 21.71 18.47 21.38C18.47 21.05 18.21 20.79 17.88 20.79Z" fill="#0052B1"/>
</g>
</g>
</g>
</g>
<defs>
<linearGradient id="paint0_linear_1271_20200" x1="14.8396" y1="13.94" x2="21.8596" y2="16.61" gradientUnits="userSpaceOnUse">
<stop offset="0.09" stop-color="#04B7D1"/>
<stop offset="1" stop-color="#0052B1"/>
</linearGradient>
<clipPath id="clip0_1271_20200">
<rect width="200" height="43.73" fill="white" transform="translate(0 0.280029)"/>
</clipPath>
</defs>
</svg>
