<svg width="200" height="30" viewBox="0 0 200 30" fill="none" xmlns="http://www.w3.org/2000/svg">
<g id="_&#235;&#160;&#136;&#236;&#157;&#180;&#236;&#150;&#180;_1" clip-path="url(#clip0_1271_19913)">
<path id="Vector" d="M43.6298 14.21C42.3098 14.21 41.1198 14.63 40.1598 15.4V14.56H37.0898V29.24H40.2398V20.37C40.2398 18.55 41.5298 17.24 43.3098 17.24C45.0898 17.24 46.1498 18.43 46.1498 20.43V29.25H49.2698V20.51C49.2698 16.69 47.0498 14.22 43.6198 14.22L43.6298 14.21Z" fill="#1F2A67"/>
<path id="Vector_2" d="M85.6798 15.96C84.6898 15 83.2398 14.21 81.4798 14.21C77.4298 14.21 74.2598 17.59 74.2598 21.91C74.2598 26.23 77.4298 29.58 81.4798 29.58C83.0298 29.58 84.5498 28.93 85.6798 27.82V29.23H88.7498V14.55H85.6798V15.95V15.96ZM81.4798 26.49C79.2398 26.49 77.4098 24.45 77.4098 21.94C77.4098 19.43 79.2398 17.31 81.4798 17.31C83.7198 17.31 85.5998 19.43 85.5998 21.94C85.5998 24.45 83.7098 26.49 81.4798 26.49Z" fill="#1F2A67"/>
<path id="Vector_3" d="M94.9596 15.5V14.54H91.8896V29.22H95.0396V20.8C95.0396 19.75 95.3497 18.91 95.9697 18.31C96.6497 17.65 97.6997 17.41 98.8697 17.41H99.3596V14.22H98.9496C97.3896 14.22 96.0696 14.39 94.9596 15.5Z" fill="#1F2A67"/>
<path id="Vector_4" d="M111.34 24.43L106.32 9.78H102.13V29.24H105.28V16.04L109.81 29.24H112.85L117.38 16.04V29.24H120.53V9.78H116.36L111.34 24.43Z" fill="#D93A2C"/>
<path id="Vector_5" d="M134.15 15.96C133.16 15 131.71 14.21 129.95 14.21C125.9 14.21 122.73 17.59 122.73 21.91C122.73 26.23 125.9 29.58 129.95 29.58C131.5 29.58 133.02 28.93 134.15 27.82V29.23H137.22V14.55H134.15V15.95V15.96ZM129.95 26.49C127.71 26.49 125.88 24.45 125.88 21.94C125.88 19.43 127.71 17.31 129.95 17.31C132.19 17.31 134.07 19.43 134.07 21.94C134.07 24.45 132.18 26.49 129.95 26.49Z" fill="#1F2A67"/>
<path id="Vector_6" d="M145 25.69C144.58 25.29 144.37 24.64 144.37 23.75V17.66H147.43V14.56H144.37V11H141.25V14.56H139.42V17.66H141.25V23.75C141.25 25.6 141.82 27.1 142.91 28.08C143.78 28.87 145.08 29.28 146.26 29.28H147.5V26.21H147.01C146.09 26.21 145.45 26.09 145.01 25.68L145 25.69Z" fill="#1F2A67"/>
<path id="Vector_7" d="M70.4003 25.69C69.9803 25.29 69.7703 24.64 69.7703 23.75V17.66H72.8303V14.56H69.7703V11H66.6503V14.56H64.8203V17.66H66.6503V23.75C66.6503 25.6 67.2203 27.1 68.3103 28.08C69.1803 28.87 70.4803 29.28 71.6603 29.28H72.9003V26.21H72.4103C71.4903 26.21 70.8503 26.09 70.4103 25.68L70.4003 25.69Z" fill="#1F2A67"/>
<path id="Vector_8" d="M170.38 0.929993V29.24L196.16 7.58999L186.6 29.24H200V0.929993H170.38Z" fill="#1F2A67"/>
<path id="Vector_9" d="M9.5 9.32999C4.26 9.32999 0 13.86 0 19.43C0 25 4.26 29.56 9.5 29.56C15.06 29.56 18.79 25.58 18.79 19.65V18.22H9.66V21.35H15.52C15 24.46 12.69 26.44 9.5 26.44C5.98 26.44 3.12 23.3 3.12 19.44C3.12 15.58 5.98 12.47 9.5 12.47C11.76 12.47 13.71 13.65 14.84 15.63H18.27C16.84 11.75 13.5 9.33999 9.5 9.33999V9.32999Z" fill="#1F2A67"/>
<path id="Vector_10" d="M57.9 19.98C55.09 19.53 54.89 19.19 54.89 18.68C54.89 17.87 56.03 17.23 57.49 17.23C58.95 17.23 60.04 17.9 60.29 19.07V19.1H63.47L63.45 18.92C63.14 16.01 60.86 14.21 57.49 14.21C53.54 14.21 51.74 16.57 51.74 18.76C51.74 21.99 54.66 22.69 57.41 23.09C60.68 23.54 60.68 24.19 60.68 24.76C60.68 25.62 59.66 26.53 57.76 26.53C55.98 26.53 54.68 25.67 54.44 24.33L54.37 23.95H51.21L51.28 24.48C51.67 27.58 54.22 29.58 57.76 29.58C61.3 29.58 63.75 27.59 63.75 24.63C63.75 20.92 60.51 20.4 57.91 19.98H57.9Z" fill="#1F2A67"/>
<path id="Vector_11" d="M156.59 26.56C154.83 26.56 152.84 25.28 152.46 22.96H163.73V22.5C163.74 20.06 162.93 17.88 161.43 16.34C160.09 14.97 158.32 14.2 156.46 14.2C152.47 14.2 149.22 17.65 149.22 21.9C149.22 26.15 152.46 29.55 156.6 29.55C159.56 29.55 161.85 28.13 163.02 25.61L160.01 24.62C159.3 25.88 158.14 26.56 156.6 26.56H156.59ZM156.46 17.1C158.09 17.1 159.64 18.29 160.18 20H152.69C153.28 18.14 155.05 17.1 156.46 17.1Z" fill="#1F2A67"/>
<path id="Vector_12" d="M27.8202 26.56C26.0602 26.56 24.0702 25.28 23.6902 22.96H34.9602V22.5C34.9702 20.06 34.1602 17.88 32.6602 16.34C31.3202 14.97 29.5502 14.2 27.6902 14.2C23.7002 14.2 20.4502 17.65 20.4502 21.9C20.4502 26.15 23.6902 29.55 27.8302 29.55C30.7902 29.55 33.0802 28.13 34.2502 25.61L31.2402 24.62C30.5302 25.88 29.3702 26.56 27.8302 26.56H27.8202ZM27.6902 17.1C29.3202 17.1 30.8702 18.29 31.4102 20H23.9202C24.5102 18.14 26.2802 17.1 27.6902 17.1Z" fill="#1F2A67"/>
</g>
<defs>
<clipPath id="clip0_1271_19913">
<rect width="200" height="28.65" fill="white" transform="translate(0 0.929993)"/>
</clipPath>
</defs>
</svg>
