<svg width="200" height="39" viewBox="0 0 200 39" fill="none" xmlns="http://www.w3.org/2000/svg">
<g id="_&#235;&#160;&#136;&#236;&#157;&#180;&#236;&#150;&#180;_1" clip-path="url(#clip0_1271_20128)">
<path id="Vector" d="M46.1698 0.739978C54.2998 0.269978 59.9598 2.45998 62.9798 10.42C65.4598 16.97 65.3198 32.24 58.8698 36.6C53.1498 40.47 50.1998 34.48 46.4198 31.44C38.2598 24.87 29.0798 24.95 19.6798 28.88C14.8798 30.89 7.3998 36.1 2.11979 34.17C-2.15021 32.62 1.11979 27.73 2.79979 25.35C11.1898 13.55 31.6298 1.56998 46.1698 0.739978ZM48.8398 5.04998C45.0898 5.44998 42.0398 8.64998 44.0498 12.42C47.0398 18.03 58.4898 17.14 57.5898 10.46C57.0698 6.63998 52.2798 4.67998 48.8398 5.04998Z" fill="#0E325A"/>
<g id="Group">
<path id="Vector_2" d="M84.5701 35.9999H82.8701V27.7799H84.5701V35.9999Z" fill="#A8A7A7"/>
<path id="Vector_3" d="M87.5899 35.9999H85.9199V29.8499H87.5199V30.9199H87.5899C87.8699 30.2099 88.5299 29.7699 89.4499 29.7599C90.7299 29.7699 91.5799 30.6399 91.5599 32.0799V35.9999H89.8899V32.3799C89.8899 31.6099 89.4799 31.1599 88.7799 31.1499C88.0799 31.1599 87.6099 31.6299 87.5999 32.4299V36.0099L87.5899 35.9999Z" fill="#A8A7A7"/>
<path id="Vector_4" d="M96.1099 31.0999H94.9499V34.1199C94.9499 34.5999 95.1899 34.7199 95.5299 34.7199C95.6999 34.7299 95.9899 34.7099 96.1999 34.6999V36.0199C96.0099 36.0399 95.7099 36.0799 95.3199 36.0899C94.0899 36.0799 93.2599 35.5299 93.2799 34.3299V31.0999H92.4199V29.8499H93.2799V28.3599H94.9499V29.8499H96.1099V31.0999Z" fill="#A8A7A7"/>
<path id="Vector_5" d="M96.8301 32.9599C96.8401 31.0599 98.0101 29.7699 99.8301 29.7599C101.43 29.7699 102.71 30.7899 102.71 32.8999V33.3599H98.5101C98.5101 34.2899 99.0601 34.8699 99.9301 34.8699C100.5 34.8699 100.91 34.6099 101.07 34.2699H102.67C102.43 35.3999 101.42 36.1299 99.9101 36.1299C98.0101 36.1299 96.8601 34.9099 96.8401 32.9699L96.8301 32.9599ZM101.13 32.3099C101.12 31.5599 100.6 31.0199 99.8501 31.0099C99.0601 31.0199 98.5301 31.5999 98.5001 32.3099H101.12H101.13Z" fill="#A8A7A7"/>
<path id="Vector_6" d="M105.43 35.9999H103.76V27.7799H105.43V35.9999Z" fill="#A8A7A7"/>
<path id="Vector_7" d="M108.42 35.9999H106.75V27.7799H108.42V35.9999Z" fill="#A8A7A7"/>
<path id="Vector_8" d="M110.58 27.3399C111.08 27.3299 111.49 27.7099 111.49 28.1799C111.49 28.6499 111.08 29.0399 110.58 29.0399C110.08 29.0399 109.66 28.6599 109.65 28.1799C109.66 27.7199 110.07 27.3299 110.58 27.3399ZM109.75 29.8499H111.42V35.9999H109.75V29.8499Z" fill="#A8A7A7"/>
<path id="Vector_9" d="M112.67 36.5199H114.32C114.41 37.0099 114.88 37.2299 115.55 37.2399C116.33 37.2299 116.85 36.8999 116.85 36.0599V34.9199H116.78C116.55 35.4199 116 35.9199 115.02 35.9199C113.63 35.9199 112.51 34.9399 112.51 32.8999C112.51 30.8599 113.66 29.7799 115.02 29.7599C116.05 29.7699 116.55 30.3899 116.78 30.8699H116.85V29.8499H118.5V36.0699C118.5 37.6399 117.27 38.4399 115.5 38.4399C113.73 38.4399 112.76 37.6699 112.67 36.5099V36.5199ZM115.55 34.6599C116.37 34.6599 116.85 33.9999 116.85 32.9199C116.85 31.8399 116.39 31.1099 115.55 31.1099C114.71 31.1099 114.23 31.8499 114.23 32.9199C114.23 33.9899 114.69 34.6599 115.55 34.6599Z" fill="#A8A7A7"/>
<path id="Vector_10" d="M119.55 32.9599C119.56 31.0599 120.73 29.7699 122.55 29.7599C124.15 29.7699 125.43 30.7899 125.43 32.8999V33.3599H121.23C121.23 34.2899 121.78 34.8699 122.65 34.8699C123.22 34.8699 123.63 34.6099 123.79 34.2699H125.39C125.15 35.3999 124.14 36.1299 122.63 36.1299C120.73 36.1299 119.58 34.9099 119.56 32.9699L119.55 32.9599ZM123.84 32.3099C123.83 31.5599 123.31 31.0199 122.56 31.0099C121.77 31.0199 121.24 31.5999 121.21 32.3099H123.83H123.84Z" fill="#A8A7A7"/>
<path id="Vector_11" d="M128.14 35.9999H126.47V29.8499H128.07V30.9199H128.14C128.42 30.2099 129.08 29.7699 130 29.7599C131.28 29.7699 132.12 30.6399 132.11 32.0799V35.9999H130.44V32.3799C130.44 31.6099 130.03 31.1599 129.33 31.1499C128.63 31.1599 128.16 31.6299 128.15 32.4299V36.0099L128.14 35.9999Z" fill="#A8A7A7"/>
<path id="Vector_12" d="M133.15 32.9399C133.16 31.0599 134.31 29.7699 136.17 29.7599C137.77 29.7699 138.84 30.6999 138.91 32.1099H137.33C137.24 31.5099 136.83 31.0899 136.19 31.0899C135.39 31.0899 134.85 31.7599 134.87 32.9199C134.86 34.1199 135.39 34.7999 136.19 34.7999C136.79 34.7999 137.22 34.4299 137.33 33.7799H138.91C138.84 35.1699 137.81 36.1299 136.19 36.1299C134.29 36.1299 133.16 34.8299 133.15 32.9499V32.9399Z" fill="#A8A7A7"/>
<path id="Vector_13" d="M139.7 32.9599C139.71 31.0599 140.88 29.7699 142.7 29.7599C144.3 29.7699 145.58 30.7899 145.58 32.8999V33.3599H141.38C141.38 34.2899 141.93 34.8699 142.8 34.8699C143.37 34.8699 143.78 34.6099 143.94 34.2699H145.54C145.3 35.3999 144.29 36.1299 142.78 36.1299C140.88 36.1299 139.73 34.9099 139.71 32.9699L139.7 32.9599ZM144 32.3099C143.99 31.5599 143.47 31.0199 142.72 31.0099C141.93 31.0199 141.4 31.5999 141.37 32.3099H143.99H144Z" fill="#A8A7A7"/>
<path id="Vector_14" d="M150.13 27.3399C150.63 27.3299 151.04 27.7099 151.04 28.1799C151.04 28.6499 150.63 29.0399 150.13 29.0399C149.63 29.0399 149.21 28.6599 149.2 28.1799C149.21 27.7199 149.62 27.3299 150.13 27.3399ZM149.29 29.8499H150.96V35.9999H149.29V29.8499Z" fill="#A8A7A7"/>
<path id="Vector_15" d="M153.96 35.9999H152.29V29.8499H153.89V30.9199H153.96C154.24 30.2099 154.9 29.7699 155.82 29.7599C157.1 29.7699 157.94 30.6399 157.93 32.0799V35.9999H156.26V32.3799C156.26 31.6099 155.85 31.1599 155.15 31.1499C154.45 31.1599 153.98 31.6299 153.97 32.4299V36.0099L153.96 35.9999Z" fill="#A8A7A7"/>
<path id="Vector_16" d="M163.37 27.7799L165.25 31.3299H165.34L167.22 27.7799H169.12L166.12 33.0699V35.9999H164.42V33.0699L161.42 27.7799H163.35H163.37Z" fill="#A8A7A7"/>
<path id="Vector_17" d="M173.2 36.1199C171.02 36.1199 169.37 34.5599 169.37 31.8899C169.37 29.2199 171.02 27.6699 173.2 27.6899C175.38 27.6799 177.04 29.2199 177.03 31.8899C177.04 34.5699 175.38 36.1199 173.2 36.1199ZM173.2 34.6099C174.48 34.5999 175.31 33.6499 175.31 31.8899C175.31 30.1299 174.47 29.1799 173.2 29.1999C171.93 29.1899 171.1 30.1399 171.11 31.8899C171.1 33.6399 171.93 34.5999 173.2 34.6099Z" fill="#A8A7A7"/>
<path id="Vector_18" d="M185.07 27.7799V33.1199C185.07 34.9199 183.71 36.1199 181.68 36.1199C179.65 36.1199 178.29 34.9199 178.29 33.1199V27.7799H179.99V32.9799C179.99 33.9299 180.66 34.6199 181.69 34.6099C182.71 34.6199 183.37 33.9399 183.39 32.9799V27.7799H185.09H185.07Z" fill="#A8A7A7"/>
<path id="Vector_19" d="M186.46 27.7799H189.66C191.54 27.7899 192.61 28.8399 192.61 30.4699C192.61 31.5799 192.1 32.3999 191.16 32.7999L192.91 35.9899H191.01L189.44 33.0599H188.15V35.9899H186.45V27.7699L186.46 27.7799ZM189.36 31.7099C190.37 31.7099 190.86 31.2899 190.85 30.4799C190.86 29.6399 190.37 29.1899 189.36 29.1999H188.15V31.7099H189.36Z" fill="#A8A7A7"/>
<path id="Vector_20" d="M196.84 29.1099C195.97 29.1099 195.49 29.4999 195.49 30.0399C195.47 30.6599 196.08 30.9199 196.79 31.0899L197.53 31.2799C198.93 31.5799 199.98 32.2999 199.99 33.6699C199.98 35.1699 198.81 36.1299 196.81 36.1299C194.81 36.1299 193.56 35.2099 193.51 33.4599H195.16C195.23 34.2799 195.88 34.6899 196.79 34.6899C197.7 34.6899 198.26 34.2799 198.28 33.6699C198.27 33.1099 197.77 32.8499 196.86 32.6199L195.98 32.4099C194.59 32.0599 193.74 31.3799 193.73 30.1599C193.73 28.6899 195.05 27.6899 196.84 27.6999C198.66 27.6899 199.86 28.6999 199.88 30.1599H198.23C198.18 29.4999 197.66 29.1099 196.84 29.1099Z" fill="#A8A7A7"/>
</g>
<g id="Group_2">
<path id="Vector_21" d="M88.2697 6.42C86.6697 6.42 85.7997 7.14 85.7997 8.12C85.7597 9.25 86.8897 9.74 88.1797 10.04L89.5397 10.38C92.1097 10.93 94.0297 12.25 94.0497 14.76C94.0297 17.5 91.8797 19.27 88.2197 19.27C84.5597 19.27 82.2597 17.59 82.1797 14.38H85.1997C85.3297 15.89 86.5197 16.64 88.1797 16.64C89.8397 16.64 90.8797 15.9 90.8997 14.77C90.8797 13.75 89.9597 13.26 88.2997 12.85L86.6797 12.47C84.1297 11.83 82.5697 10.58 82.5497 8.34C82.5497 5.64 84.9797 3.81 88.2497 3.83C91.5897 3.81 93.7797 5.66 93.8197 8.34H90.7997C90.7097 7.13 89.7597 6.42 88.2497 6.42H88.2697Z" fill="#231815"/>
<path id="Vector_22" d="M97.5398 3.39995C98.4498 3.37995 99.1998 4.07995 99.1998 4.92995C99.1998 5.77995 98.4598 6.49995 97.5398 6.49995C96.6198 6.49995 95.8598 5.79995 95.8398 4.92995C95.8598 4.07995 96.6098 3.37995 97.5398 3.39995ZM96.0098 7.98995H99.0698V19.27H96.0098V7.98995Z" fill="#231815"/>
<path id="Vector_23" d="M101.029 13.48C101.049 9.98999 103.199 7.62999 106.519 7.60999C109.459 7.62999 111.799 9.49999 111.799 13.36V14.21H104.099C104.099 15.91 105.099 16.98 106.699 16.98C107.739 16.98 108.489 16.51 108.789 15.87H111.729C111.279 17.93 109.429 19.27 106.669 19.27C103.179 19.27 101.069 17.04 101.049 13.48H101.029ZM108.899 12.29C108.879 10.91 107.919 9.92999 106.559 9.90999C105.109 9.92999 104.129 11 104.089 12.29H108.899Z" fill="#231815"/>
<path id="Vector_24" d="M113.71 7.98995H116.69V9.94995H116.82C117.22 8.54995 118.27 7.81995 119.54 7.81995C119.86 7.81995 120.24 7.85995 120.52 7.90995V10.6799C120.24 10.5699 119.65 10.5099 119.2 10.5099C117.82 10.5099 116.8 11.4699 116.77 12.8499V19.2799H113.71V7.98995Z" fill="#231815"/>
<path id="Vector_25" d="M122.01 7.98995H124.99V9.94995H125.12C125.52 8.54995 126.57 7.81995 127.84 7.81995C128.16 7.81995 128.54 7.85995 128.82 7.90995V10.6799C128.54 10.5699 127.95 10.5099 127.5 10.5099C126.12 10.5099 125.1 11.4699 125.07 12.8499V19.2799H122.01V7.98995Z" fill="#231815"/>
<path id="Vector_26" d="M150.949 5.06995H156.599C159.709 5.08995 161.269 6.58995 161.289 8.71995C161.269 10.3999 160.189 11.4499 158.719 11.7699V11.9299C160.319 11.9899 161.829 13.2499 161.849 15.3799C161.829 17.6099 160.149 19.2699 156.959 19.2699H150.939V5.06995H150.949ZM156.169 11.0499C157.389 11.0299 158.319 10.3499 158.339 9.20995C158.319 8.18995 157.559 7.48995 156.209 7.48995H153.879V11.0599H156.169V11.0499ZM156.369 16.8599C158.069 16.8399 158.819 16.1399 158.819 15.0599C158.819 13.8799 157.899 13.0299 156.449 13.0599H153.879V16.8699H156.369V16.8599Z" fill="#231815"/>
<path id="Vector_27" d="M162.899 19.2699L167.789 5.06995H171.599L176.489 19.2699H173.319L172.259 16.0199H167.129L166.069 19.2699H162.899ZM171.519 13.6999L169.759 8.28995H169.639L167.879 13.6999H171.529H171.519Z" fill="#231815"/>
<path id="Vector_28" d="M183.03 7.1599C181.53 7.1599 180.7 7.8399 180.7 8.7599C180.66 9.8199 181.72 10.2799 182.95 10.5599L184.23 10.8799C186.66 11.3999 188.46 12.6399 188.48 15.0099C188.46 17.5999 186.43 19.2599 182.99 19.2599C179.55 19.2599 177.38 17.6799 177.3 14.6499H180.15C180.27 16.0699 181.39 16.7799 182.96 16.7799C184.53 16.7799 185.51 16.0799 185.53 15.0199C185.51 14.0599 184.65 13.5999 183.08 13.2199L181.56 12.8599C179.15 12.2599 177.69 11.0799 177.67 8.9699C177.67 6.4199 179.96 4.6999 183.04 4.7199C186.19 4.6999 188.25 6.4399 188.29 8.9699H185.44C185.36 7.8299 184.46 7.1699 183.03 7.1699V7.1599Z" fill="#231815"/>
<path id="Vector_29" d="M190.41 5.06995H199.91V7.51995H193.33V10.9699H199.43V13.3799H193.33V16.8299H199.95V19.2799H190.41V5.06995Z" fill="#231815"/>
<path id="Vector_30" d="M138.449 7.7999H141.359V18.9799H138.449V17.7999C137.879 18.3199 137.309 18.6999 136.739 18.9299C136.169 19.1599 135.549 19.2699 134.879 19.2699C133.379 19.2699 132.089 18.7099 130.999 17.5899C129.909 16.4699 129.359 15.0799 129.359 13.4099C129.359 11.7399 129.889 10.2699 130.949 9.1699C132.009 8.0699 133.289 7.5199 134.799 7.5199C135.499 7.5199 136.149 7.6499 136.759 7.8999C137.369 8.1499 137.929 8.5299 138.449 9.0399V7.8099V7.7999ZM134.969 9.9199C133.989 9.9199 133.179 10.2399 132.529 10.8899C131.879 11.5399 131.559 12.3599 131.559 13.3699C131.559 14.3799 131.889 15.2199 132.549 15.8799C133.209 16.5399 134.019 16.8599 134.989 16.8599C135.959 16.8599 136.809 16.5399 137.469 15.8899C138.129 15.2399 138.449 14.3999 138.449 13.3499C138.449 12.2999 138.119 11.4999 137.469 10.8599C136.809 10.2299 135.979 9.9099 134.979 9.9099L134.969 9.9199Z" fill="#231815"/>
</g>
</g>
<defs>
<clipPath id="clip0_1271_20128">
<rect width="200" height="37.76" fill="white" transform="translate(0 0.679932)"/>
</clipPath>
</defs>
</svg>
