<svg width="200" height="39" viewBox="0 0 200 39" fill="none" xmlns="http://www.w3.org/2000/svg">
<g id="_&#235;&#160;&#136;&#236;&#157;&#180;&#236;&#150;&#180;_1" clip-path="url(#clip0_1271_19879)">
<path id="Vector" d="M109.01 23.16C100.24 23.16 93.1299 26.21 93.1299 29.95C93.1299 33.69 100.23 36.74 109.01 36.74C117.79 36.74 124.89 33.69 124.89 29.95C124.89 26.21 117.79 23.16 109.01 23.16ZM109.01 33.42C105.71 33.42 103.01 31.88 103.01 29.95C103.01 28.02 105.69 26.5 109.01 26.5C112.33 26.5 114.99 28.04 114.99 29.95C114.99 31.86 112.31 33.42 109.01 33.42Z" fill="#040000"/>
<path id="Vector_2" d="M124.03 12.44C123.85 10.26 121.93 8.53999 119.59 8.53999C117.25 8.53999 115.31 10.26 115.13 12.44H115.1V14.01H111.52V17.59H115.1V22.55H124.06V12.45H124.01L124.03 12.43V12.44Z" fill="#040000"/>
<path id="Vector_3" d="M100.62 8.39999C98.2799 8.39999 96.2698 9.63999 95.5998 11.32L88.5898 22.52H97.4898L100.65 17.46L103.81 22.52H112.69L105.49 10.98C104.69 9.45999 102.81 8.39999 100.63 8.39999" fill="#040000"/>
<path id="Vector_4" d="M186.77 28.12H186.72C186.54 25.94 184.62 24.24 182.28 24.24C179.94 24.24 178 25.94 177.82 28.12H177.79V32.52H164.64V36.1H199.9V32.52H186.77V28.12Z" fill="#040000"/>
<path id="Vector_5" d="M173.44 27.75L182.28 15.95L191.12 27.75H200L189.16 13.27H199.55V9.68999H165.01V13.27H175.39L164.55 27.75H173.45H173.44Z" fill="#040000"/>
<path id="Vector_6" d="M162.19 23.85H126.91V27.43H153.23V36.39H162.19V23.86V23.85Z" fill="#040000"/>
<path id="Vector_7" d="M147.66 22.54H154.28V17.21H155.47V22.54H162.08V12.33C162.08 12.33 162.1 12.23 162.1 12.15C162.1 10.32 160.61 8.81 158.78 8.81C156.95 8.81 155.48 10.32 155.48 12.15V13.61H154.29V12.15C154.29 10.32 152.81 8.81 150.97 8.81C149.13 8.81 147.67 10.32 147.67 12.15V22.53L147.66 22.54Z" fill="#040000"/>
<path id="Vector_8" d="M85.15 18.86V13.66C85.15 13.66 85.17 13.52 85.17 13.44C85.17 11.4 83.53 9.75999 81.51 9.75999H50.98V13.36H76.19V18.86H49.54V22.45H86.34V18.86H85.15Z" fill="#040000"/>
<path id="Vector_9" d="M76.1302 23.73H51.4302V32.38C51.4302 32.38 51.4102 32.52 51.4102 32.59C51.4102 32.67 51.4302 32.75 51.4302 32.82C51.5402 34.75 53.1502 36.25 55.0902 36.25H85.0902V23.73H76.1302ZM76.1302 32.65H60.4002V27.32H76.1302V32.65Z" fill="#040000"/>
<path id="Vector_10" d="M19.0801 21.59C15.5501 24.35 13.3502 26.4 13.3502 26.4C11.7901 28.02 11.6301 27.72 11.6301 27.72C10.9201 27.43 11.6601 26.4 11.6601 26.4C14.5901 21.78 16.2301 19.39 16.2301 19.39C17.3201 18.03 21.3101 11.3 21.3101 11.3C23.4101 7.55999 22.7101 5.02999 22.7101 5.02999C22.2601 3.56999 20.6301 3.85999 20.6301 3.85999C19.4401 3.85999 17.2901 5.86999 17.2901 5.86999C15.6501 7.85999 11.5202 10.06 11.5202 10.06C10.7201 10.59 8.70015 11.07 8.70015 11.07V11.38L11.0401 11.14C10.3801 14.45 5.52015 22.92 5.52015 22.92C2.00015 29.2 0.310149 33.9 0.310149 33.9C-0.829851 37.88 1.51015 38.25 1.51015 38.25C3.19015 38.88 7.12015 34.4 7.12015 34.4C10.0101 30.79 10.8102 30.02 10.8102 30.02C12.4502 28.03 16.5701 24.71 19.0701 22.7V21.59H19.0801Z" fill="#149D4F"/>
<path id="Vector_11" d="M19.0698 22.7C20.9098 21.21 22.2798 20.16 22.2798 20.16C25.7598 17.48 27.3298 18.33 27.3298 18.33C28.9998 19.2 27.5498 20.85 27.5498 20.85C26.3598 22.09 24.1198 23.47 24.1198 23.47C21.6798 25.33 21.2298 27.13 21.2298 27.13C19.4498 32.92 24.2098 35.86 24.2098 35.86C29.5498 38.97 33.5298 38.83 33.5298 38.83C37.5998 38.88 37.8598 35.36 37.8598 35.36C38.1298 31.41 33.0298 31.07 33.0298 31.07C26.6198 30.33 25.8098 27.22 25.8098 27.22C24.6698 24.73 30.9298 20.69 30.9298 20.69C32.9698 19.47 37.8898 16.31 37.8898 16.31C40.6298 14.37 40.5398 12.17 40.5398 12.17C40.4298 9.08999 35.4598 11.09 35.4598 11.09C29.1298 14.11 23.1898 18.33 19.0498 21.57V22.69H19.0698V22.7Z" fill="#02569D"/>
<path id="Vector_12" d="M45.7803 4.84999C45.7803 7.13999 43.8903 9.01999 41.5303 9.01999C39.1703 9.01999 37.2803 7.13999 37.2803 4.84999C37.2803 2.55999 39.1903 0.679993 41.5303 0.679993C43.8703 0.679993 45.7803 2.53999 45.7803 4.84999Z" fill="#DC2525"/>
<path id="Vector_13" d="M146.65 22.54V12.45H146.62C146.46 10.27 144.66 8.54999 142.45 8.54999C140.24 8.54999 138.44 10.27 138.3 12.45H138.28V13.62H135.25V12.45H135.22C135.04 10.27 133.25 8.54999 131.05 8.54999C128.85 8.54999 127.04 10.27 126.88 12.45H126.85V22.54H146.67H146.65ZM138.26 19.15H135.23V17.21H138.26V19.15Z" fill="#040000"/>
</g>
<defs>
<clipPath id="clip0_1271_19879">
<rect width="200" height="38.15" fill="white" transform="translate(0 0.679993)"/>
</clipPath>
</defs>
</svg>
