<svg width="200" height="46" viewBox="0 0 200 46" fill="none" xmlns="http://www.w3.org/2000/svg">
<g id="_&#235;&#160;&#136;&#236;&#157;&#180;&#236;&#150;&#180;_1" clip-path="url(#clip0_1271_19868)">
<path id="Vector" d="M26.39 37.9L17.64 27.15L30.36 11.52H23.43C20.3 11.52 18.18 12.47 16.28 14.67L9.59 22.89V0.339996H2.85C1.28 0.339996 0 1.62 0 3.19V45.34H6.71C8.29 45.34 9.56 44.06 9.56 42.49V31.28L15 37.96L19.62 43.63C20.54 44.8 21.79 45.34 23.04 45.34H32.42L26.36 37.9H26.39Z" fill="#040000"/>
<path id="Vector_2" d="M43.6299 45.34C38.4699 45.34 34.8799 41.78 34.8799 36.6V3.19C34.8799 1.62 36.1599 0.339996 37.7599 0.339996H44.4699V34.81C44.4699 36.22 45.6399 37.39 47.0299 37.39H53.8799V42.49C53.8799 44.06 52.5999 45.34 50.9999 45.34H43.6099H43.6399H43.6299Z" fill="#040000"/>
<path id="Vector_3" d="M55.2595 9.05L54.6895 9.67C54.6895 9.67 52.8695 11.52 47.6795 11.52H23.2395C19.3795 11.52 17.5595 13.09 16.1695 14.78L15.4095 15.73C15.4095 15.73 15.3795 15.76 15.3595 15.78L10.5195 21.72C12.2895 20.39 14.7095 19.6 17.1795 19.6H47.6995C51.3995 19.6 54.9595 18.51 55.2595 15.75C55.2895 15.53 55.2895 15.4 55.2895 15.4V9.05H55.2595Z" fill="#D61518"/>
<path id="Vector_4" d="M67.0596 32.01C67.0596 24.19 69.7196 18.36 78.6396 18.36C87.5596 18.36 89.2696 24.47 89.2696 29.46V32.17C89.2696 33.88 88.2596 34.59 86.7696 34.59H72.8796C72.8796 38.74 75.4896 40.81 79.4596 40.81C82.9096 40.81 86.0396 39.91 88.2096 38.8V42.76C88.2096 43.52 87.7496 43.95 87.1996 44.31C85.6496 45.31 81.8996 45.91 78.9396 45.91C69.9696 45.91 67.0596 40.4 67.0596 32.04M83.5596 29.71V29.25C83.5596 25.15 81.5196 23.44 78.3396 23.44C74.8896 23.44 73.0096 25.64 72.9896 29.71H83.5596Z" fill="#D61518"/>
<path id="Vector_5" d="M94.7797 44.52C94.2897 44.17 93.7197 43.57 93.7197 42.81L93.7697 39.06C95.8597 40.12 98.5797 40.66 101.19 40.66C104.1 40.66 105.21 39.47 105.21 37.95C105.21 36.43 104.61 35.51 102.65 34.8L100.09 33.9C96.3897 32.6 93.8697 30.51 93.8697 26.14C93.8697 20.68 97.7297 18.73 103.68 18.73C106.04 18.73 108.3 18.62 109.39 18.19V22.59C109.39 23.65 106.97 23.95 103.93 23.95C101.21 23.95 99.8797 24.55 99.8797 26.26C99.8797 27.35 100.34 28.21 102.08 28.81L104.58 29.65C108.28 30.9 111.21 33.15 111.21 37.71C111.21 42.87 108.25 45.88 100.88 45.88C98.8697 45.88 96.0697 45.34 94.7597 44.52H94.7797Z" fill="#D61518"/>
<path id="Vector_6" d="M116.93 38.55V23.95H113.12V20.15C113.12 19.25 113.61 18.74 114.56 18.74H116.92V13.69C116.92 12.69 117.33 12.25 118.33 12.25H122.84V18.76H126.1C127.7 18.76 128.95 18.71 130.15 18.22V21.97C130.15 23.76 127.79 23.98 125.8 23.98H122.84V37.31C122.84 39.45 123.44 40.65 125.94 40.65C128.09 40.65 129.09 40.3 130.15 39.86V43.71C130.15 44.44 129.69 45.01 129.09 45.2C127.73 45.69 126.13 45.91 123.98 45.91C119.88 45.91 116.91 44.15 116.91 38.61" fill="#D61518"/>
<path id="Vector_7" d="M132.78 38.01C132.78 30.3 139.3 28.89 145.96 28.89H147.75V27.83C147.75 24.11 146.09 23.32 142.53 23.32C140.46 23.32 137.88 23.78 136.17 24.27C135.41 24.46 134.81 24.32 134.81 23.46V19.66C137.26 18.85 140.22 18.3 143.83 18.3C148.99 18.3 153.51 19.9 153.51 27.12V39.63C153.51 40.47 153.81 40.82 154.52 40.82C154.93 40.82 155.12 40.77 155.53 40.66V43.7C155.53 45.06 154.03 45.79 152.21 45.79C150.39 45.79 148.59 44.98 147.94 43.29C146.58 44.84 143.48 45.79 141.36 45.79C136.66 45.79 132.74 43.37 132.74 37.92M147.76 39.26V33.15H146.4C139.93 33.15 138.49 35 138.49 37.76C138.49 39.96 140.15 40.83 142.76 40.83C144.47 40.83 146.51 40.23 147.76 39.28" fill="#D61518"/>
<path id="Vector_8" d="M161.87 38.55V23.95H158.06V20.15C158.06 19.25 158.55 18.74 159.53 18.74H161.9V13.69C161.9 12.69 162.31 12.25 163.31 12.25H167.82V18.76H171.08C172.68 18.76 173.93 18.71 175.13 18.22V21.97C175.13 23.76 172.79 23.98 170.78 23.98H167.82V37.31C167.82 39.45 168.42 40.65 170.92 40.65C173.07 40.65 174.07 40.3 175.13 39.86V43.71C175.13 44.44 174.7 45.01 174.07 45.2C172.71 45.69 171.11 45.91 168.96 45.91C164.86 45.91 161.89 44.15 161.89 38.61" fill="#D61518"/>
<path id="Vector_9" d="M177.79 32.01C177.79 24.19 180.45 18.36 189.37 18.36C198.29 18.36 200 24.47 200 29.46V32.17C200 33.88 198.99 34.59 197.5 34.59H183.61C183.61 38.74 186.22 40.81 190.19 40.81C193.64 40.81 196.77 39.91 198.97 38.8V42.76C198.97 43.52 198.51 43.95 197.96 44.31C196.41 45.31 192.63 45.91 189.7 45.91C180.73 45.91 177.82 40.4 177.82 32.04M194.29 29.71V29.25C194.29 25.15 192.22 23.44 189.07 23.44C185.59 23.44 183.74 25.64 183.71 29.71H194.28H194.29Z" fill="#D61518"/>
</g>
<defs>
<clipPath id="clip0_1271_19868">
<rect width="200" height="45.57" fill="white" transform="translate(0 0.339996)"/>
</clipPath>
</defs>
</svg>
