<svg width="200" height="54" viewBox="0 0 200 54" fill="none" xmlns="http://www.w3.org/2000/svg">
<g id="_&#235;&#160;&#136;&#236;&#157;&#180;&#236;&#150;&#180;_1" clip-path="url(#clip0_1271_19847)">
<path id="Vector" d="M72.7401 9.17999H64.8301V43.44H89.1301V36.77H72.7401V9.17999Z" fill="#6B6B6B"/>
<path id="Vector_2" d="M106.54 30.38H112.98V36.37C111.8 36.82 109.48 37.28 107.28 37.28C100.16 37.28 97.7798 33.66 97.7798 26.31C97.7798 18.96 100.04 15.17 107.16 15.17C111.12 15.17 113.38 16.41 115.24 18.79L120.16 14.27C117.16 9.97 111.9 8.67 106.99 8.67C95.9098 8.67 90.0898 14.72 90.0898 26.25C90.0898 37.78 95.3498 43.95 106.94 43.95C112.25 43.95 117.45 42.59 120.28 40.62V24H106.55V30.39L106.54 30.38Z" fill="#6B6B6B"/>
<path id="Vector_3" d="M127.34 9.67V14.69H134.27V15.98C134.27 21.16 132.18 23.9 126.54 25.69L128.67 30.49C132.55 29.58 136.36 27.29 137.92 24.17C139.59 27.29 143.25 29.46 146.64 30.26L149.34 24.78C144.43 23.72 140.89 21.05 140.89 15.94V14.68H147.7V9.66H127.34V9.67ZM158.9 8.98H152.54V16.21H146.56V21.43H152.54V34.64H158.14C158.6 32.85 158.9 29.84 158.9 27.67V8.98ZM159.55 39.36H140.82C140.33 39.36 140.17 39.25 140.17 38.71V31.29H133.81V41.3C133.81 43.47 134.91 44.5 137.09 44.5H159.55V39.36ZM163.16 9.63V14.62H170.39V17.03C170.39 23.39 169.1 27.38 162.51 30.28L164.98 34.7C168.75 33.29 172.29 30.63 173.92 27.24C175.56 30.44 178.98 33.07 182.29 34.36L185.26 29.18C178.87 26.78 176.66 23.05 176.66 17V14.63H183.7V9.64H163.15L163.16 9.63ZM200 18.43H193.68V8.98H187.59V44.5H192.92C193.42 42.41 193.68 38.81 193.68 35.99V23.53H200V18.43Z" fill="#6B6B6B"/>
<path id="Vector_4" d="M26.49 53.34C41.12 53.34 52.98 41.47 52.98 26.84C52.98 12.21 41.12 0.339996 26.49 0.339996C11.86 0.339996 0 12.2 0 26.83C0 41.46 11.86 53.33 26.49 53.33V53.34Z" fill="#9C1E35"/>
<path id="Vector_5" d="M25.4404 15.2V38.43H32.8204V36.36H27.5504V15.2H25.4404Z" fill="white"/>
<path id="Vector_6" d="M18.0401 21.55C19.8001 21.55 21.2201 20.13 21.2201 18.38C21.2201 16.63 19.8001 15.2 18.0401 15.2C16.2801 15.2 14.8701 16.62 14.8701 18.38C14.8701 20.14 16.3001 21.55 18.0401 21.55Z" fill="white"/>
<path id="Vector_7" d="M27.5503 4.65998C27.2803 4.64998 26.7503 4.63998 26.5003 4.63998C14.2703 4.64998 4.32031 14.6 4.32031 26.83C4.32031 32.76 6.62031 38.32 10.8003 42.51C15.0003 46.7 20.5703 49.01 26.4903 49.01C32.4103 49.01 37.9803 46.71 42.1803 42.51C46.3603 38.32 48.6603 32.76 48.6603 26.83V25.82H47.7803H32.8403V27.88H46.5603V28.18C45.8603 38.64 37.1303 46.93 26.5003 46.93C21.1303 46.93 16.0903 44.84 12.2903 41.04C8.49031 37.24 6.40031 32.19 6.40031 26.82C6.40031 21.45 8.49031 16.4 12.2903 12.6C16.0903 8.79998 21.1303 6.70998 26.5003 6.70998C26.7403 6.70998 27.3103 6.70998 27.5503 6.71998V4.64998V4.65998Z" fill="white"/>
</g>
<defs>
<clipPath id="clip0_1271_19847">
<rect width="200" height="53" fill="white" transform="translate(0 0.339996)"/>
</clipPath>
</defs>
</svg>
