<svg width="200" height="47" viewBox="0 0 200 47" fill="none" xmlns="http://www.w3.org/2000/svg">
<g id="_&#235;&#160;&#136;&#236;&#157;&#180;&#236;&#150;&#180;_1" clip-path="url(#clip0_1271_19927)">
<path id="Vector" d="M65.5902 34.27C64.2202 34.27 63.0302 34.89 62.2002 35.86C61.3702 36.82 60.9002 38.11 60.9002 39.46C60.9002 40.37 61.1902 41.23 61.7602 41.85C62.3302 42.46 63.1702 42.85 64.2402 42.85H64.2602C65.6802 42.85 66.8702 42.2 67.6802 41.22C68.5002 40.25 68.9602 38.96 68.9602 37.7C68.9602 36.84 68.7002 35.98 68.1502 35.34C67.6002 34.7 66.7602 34.28 65.6002 34.28M66.4602 40.34C65.9402 41.08 65.2202 41.58 64.4002 41.58H64.3802C63.8102 41.58 63.3402 41.35 63.0202 40.97C62.7002 40.59 62.5102 40.04 62.5102 39.39C62.5102 38.49 62.8102 37.51 63.3102 36.77C63.8202 36.03 64.5502 35.52 65.4202 35.52C66.1402 35.52 66.6002 35.83 66.9002 36.26C67.1902 36.68 67.2902 37.23 67.2902 37.68C67.2902 38.6 66.9802 39.59 66.4602 40.33M81.6702 34.78C81.2701 34.43 80.7402 34.27 80.2402 34.27C79.0402 34.29 77.9902 34.86 77.2402 35.92C77.1702 35.49 77.0102 35.1 76.7202 34.81C76.3802 34.47 75.8902 34.27 75.2302 34.27C74.1602 34.27 73.1302 34.79 72.3502 35.83L72.5602 34.46H71.1402V34.53C71.0402 35.19 70.9302 35.97 70.7502 36.87L69.6102 42.67H71.1802L71.9702 38.57C72.1302 37.73 72.5302 36.98 73.0202 36.44C73.5002 35.91 74.0702 35.59 74.5702 35.59C75.0702 35.59 75.3602 35.75 75.5202 35.99C75.6802 36.23 75.7302 36.56 75.7302 36.89C75.7302 37.2 75.7002 37.49 75.6302 37.85L74.6802 42.67H76.2302L77.0402 38.49C77.2102 37.61 77.6002 36.87 78.0702 36.37C78.5402 35.87 79.0901 35.59 79.5901 35.59C80.0401 35.59 80.3202 35.72 80.5002 35.94C80.6802 36.16 80.7702 36.49 80.7702 36.9C80.7702 37.23 80.7102 37.64 80.6502 37.93L79.7402 42.67H81.3102L82.2502 37.85C82.3401 37.4 82.3902 36.84 82.3902 36.47C82.3902 35.7 82.1102 35.14 81.7102 34.78M44.3802 34.27C43.8002 34.27 43.2802 34.48 42.8302 34.83C42.4602 35.13 42.1502 35.53 41.8902 35.97C41.9702 35.47 42.0302 35 42.0702 34.52V34.44H40.6602V34.51C40.5602 35.26 40.4502 36.32 40.2402 37.36L39.2002 42.65H40.8002L41.5002 39.03C41.6802 38.11 42.0402 37.29 42.5002 36.71C42.9602 36.13 43.5302 35.79 44.1202 35.79C44.2702 35.79 44.4002 35.8 44.5002 35.82H44.5702L44.8802 34.31H44.8002C44.6802 34.28 44.5202 34.26 44.3802 34.26M28.6502 34.78C28.2502 34.43 27.7202 34.27 27.2302 34.27C26.0302 34.29 24.9702 34.86 24.2202 35.92C24.1602 35.49 23.9902 35.1 23.7002 34.81C23.3702 34.47 22.8702 34.27 22.2102 34.27C21.1402 34.27 20.1102 34.79 19.3402 35.83L19.5402 34.46H18.1202V34.53C18.0202 35.19 17.9102 35.97 17.7402 36.87L16.6002 42.67H18.1602L18.9502 38.57C19.1102 37.73 19.5102 36.98 20.0002 36.44C20.4802 35.91 21.0602 35.59 21.5602 35.59C22.0602 35.59 22.3402 35.75 22.5102 35.99C22.6702 36.23 22.7202 36.56 22.7202 36.89C22.7202 37.2 22.6902 37.49 22.6202 37.85L21.6702 42.67H23.2202L24.0202 38.49C24.1902 37.61 24.5802 36.87 25.0502 36.37C25.5202 35.87 26.0702 35.59 26.5702 35.59C27.0202 35.59 27.3002 35.72 27.4902 35.94C27.6702 36.16 27.7502 36.49 27.7502 36.9C27.7502 37.23 27.7002 37.64 27.6302 37.93L26.7202 42.67H28.2802L29.2202 37.85C29.3102 37.4 29.3602 36.84 29.3602 36.47C29.3602 35.7 29.0802 35.14 28.6702 34.78M13.9402 31.13C12.8502 31.13 11.8402 31.45 11.1102 32.03C10.3902 32.62 9.92016 33.46 9.92016 34.5C9.92016 35.12 10.1302 35.66 10.5402 36.15C10.9402 36.63 11.5302 37.05 12.2802 37.45C12.8902 37.76 13.3002 38.07 13.5702 38.39C13.8302 38.71 13.9402 39.06 13.9402 39.46C13.9402 40.1 13.6502 40.6 13.2002 40.95C12.7602 41.3 12.1402 41.48 11.4902 41.48C10.5402 41.48 9.67016 41.19 9.07016 40.78L8.99016 40.73L8.95016 40.82L8.41016 42L8.45016 42.04C8.70016 42.26 9.12016 42.45 9.62016 42.59C10.1202 42.73 10.7002 42.83 11.3002 42.83C12.6202 42.83 13.7002 42.44 14.4402 41.81C15.1702 41.17 15.5802 40.27 15.5802 39.28C15.5802 38.58 15.3802 38 15.0002 37.5C14.6202 37.01 14.0602 36.6 13.3202 36.22C12.7202 35.9 12.2702 35.61 11.9802 35.3C11.6902 34.99 11.5602 34.65 11.5602 34.22C11.5602 33.79 11.7602 33.36 12.1402 33.03C12.5202 32.7 13.0802 32.48 13.7902 32.48H13.8602C14.7202 32.48 15.4202 32.8 15.7602 33L15.8402 33.04L16.4202 31.77L16.3702 31.73C15.9502 31.45 15.1002 31.14 13.9402 31.14V31.13ZM47.3502 39.55L48.1002 35.69H50.1102L50.3602 34.45H48.3502L48.7302 32.48L48.6102 32.51L47.0502 32.97L46.7602 34.44H45.5702L45.3302 35.68H46.5202L45.7302 39.66C45.6102 40.24 45.5402 40.71 45.5402 41.19C45.5402 41.62 45.6702 42.03 45.9702 42.34C46.2602 42.64 46.7302 42.83 47.3702 42.83C47.7902 42.83 48.2302 42.78 48.5002 42.68L48.5502 42.66L48.6302 41.42L48.5302 41.45C48.3502 41.5 48.1402 41.51 47.8802 41.51C47.6202 41.51 47.4502 41.44 47.3302 41.32C47.2202 41.21 47.1602 41.03 47.1602 40.81C47.1602 40.4 47.2302 40 47.3302 39.55H47.3402H47.3502ZM36.2902 34.27C34.4502 34.27 32.9902 35.01 31.9902 36.12C30.9902 37.23 30.4402 38.68 30.4402 40.1C30.4402 40.88 30.6702 41.57 31.1002 42.06C31.5302 42.55 32.1502 42.84 32.9202 42.84C33.5202 42.84 34.1202 42.69 34.6902 42.33C35.1902 42.01 35.6602 41.51 36.0802 40.8C36.0002 41.51 35.9302 42.15 35.9302 42.58V42.65H37.4302V42.22C37.4302 41.34 37.5402 40.08 37.7802 38.87L38.6402 34.59L38.5702 34.57C37.9902 34.4 37.1002 34.27 36.3002 34.27M36.3702 37.97C36.1702 39.03 35.7302 39.93 35.1802 40.56C34.6402 41.19 33.9902 41.55 33.4202 41.54C32.9002 41.54 32.5702 41.34 32.3702 41.03C32.1602 40.72 32.0802 40.29 32.0802 39.85C32.0802 38.75 32.5102 37.66 33.2102 36.86C33.9102 36.05 34.8802 35.53 35.9302 35.53C36.3602 35.53 36.6302 35.57 36.8202 35.62L36.3602 37.98H36.3702V37.97ZM58.2402 36.01H53.0402L53.9702 31.28H52.3702L50.1302 42.65H51.7202L52.7602 37.38H57.9402L56.9302 42.65H58.5302L60.7802 31.28H59.1802L58.2502 36.01H58.2402ZM155.96 34.45L153.8 38.97C153.42 39.75 153.19 40.28 152.99 40.76C152.9 40.23 152.8 39.66 152.64 38.84L151.8 34.45H150.14L151.85 42.1C151.85 42.16 151.87 42.21 151.87 42.25C151.87 42.31 151.87 42.35 151.82 42.41C151.38 43.19 150.78 43.84 150.21 44.25C149.66 44.67 149.06 44.88 148.69 45.02L148.62 45.04L149.03 46.36L149.1 46.34C149.58 46.24 150.61 45.85 151.56 44.94C152.71 43.85 153.56 42.43 154.46 40.68L157.67 34.44H155.96V34.46V34.45ZM140.96 34.32H140.87C140.75 34.29 140.59 34.27 140.45 34.27C139.87 34.27 139.36 34.48 138.9 34.83C138.53 35.13 138.22 35.53 137.96 35.97C138.04 35.47 138.09 35 138.14 34.52V34.44H136.74V34.51C136.64 35.26 136.52 36.32 136.32 37.36L135.28 42.65H136.88L137.58 39.03C137.76 38.11 138.12 37.29 138.59 36.71C139.05 36.13 139.62 35.79 140.2 35.79C140.35 35.79 140.48 35.8 140.58 35.82H140.65L140.96 34.31H140.97L140.96 34.32ZM140.57 42.66H142.17L143.79 34.45H142.19L140.57 42.66ZM143.48 31.09C142.9 31.09 142.44 31.55 142.42 32.15C142.42 32.43 142.51 32.67 142.68 32.84C142.84 33.02 143.07 33.12 143.35 33.12H143.37C143.67 33.12 143.94 33.02 144.14 32.83C144.34 32.64 144.46 32.37 144.47 32.07C144.47 31.79 144.37 31.55 144.2 31.37C144.03 31.2 143.78 31.09 143.49 31.09M133.13 34.45L132.31 38.64C132.14 39.5 131.73 40.23 131.24 40.73C130.75 41.23 130.17 41.51 129.66 41.51C129.15 41.51 128.88 41.37 128.69 41.15C128.5 40.93 128.42 40.6 128.42 40.19C128.42 39.85 128.47 39.47 128.56 39.03L129.45 34.44H127.87L126.95 39.05C126.84 39.58 126.79 40.04 126.79 40.42C126.79 41.35 127.09 41.97 127.52 42.34C127.96 42.71 128.53 42.83 129.08 42.83C130.14 42.83 131.19 42.25 131.95 41.29L131.75 42.64H133.22V42.57C133.29 41.91 133.42 41.14 133.59 40.23L134.75 34.43H133.13V34.45ZM147.41 41.52C147.15 41.52 146.98 41.45 146.87 41.33C146.76 41.22 146.7 41.04 146.7 40.82C146.7 40.41 146.77 40.01 146.87 39.56L147.61 35.7H149.62L149.88 34.46H147.87L148.26 32.49L148.13 32.52L146.58 32.98L146.29 34.45H145.1L144.86 35.69H146.05L145.26 39.67C145.14 40.25 145.06 40.72 145.06 41.2C145.06 41.63 145.19 42.04 145.49 42.35C145.78 42.65 146.25 42.84 146.89 42.84C147.31 42.84 147.75 42.79 148.02 42.69L148.07 42.67L148.15 41.43L148.05 41.46C147.86 41.51 147.65 41.52 147.39 41.52M116.31 34.27C114.94 34.27 113.77 34.96 112.96 35.98C112.15 36.98 111.67 38.3 111.67 39.52C111.67 40.42 111.92 41.26 112.45 41.86C112.98 42.47 113.8 42.84 114.93 42.84C116.06 42.84 117.1 42.54 117.73 42.2L117.79 42.18V42.12L117.55 40.99L117.46 41.04C116.95 41.3 116.23 41.58 115.25 41.58C114.83 41.58 114.46 41.5 114.16 41.33C113.86 41.16 113.62 40.9 113.46 40.55C113.33 40.26 113.26 39.79 113.26 39.43C113.26 39.32 113.27 39.22 113.28 39.14H113.58C115.05 39.14 116.35 38.99 117.3 38.59C117.78 38.39 118.17 38.12 118.43 37.76C118.7 37.41 118.85 36.97 118.85 36.45C118.85 35.85 118.62 35.31 118.19 34.91C117.76 34.52 117.13 34.29 116.31 34.29V34.27ZM117.3 36.45C117.3 36.73 117.21 36.95 117.04 37.13C116.79 37.41 116.34 37.6 115.76 37.72C115.19 37.84 114.48 37.88 113.69 37.88H113.48C113.66 37.3 113.98 36.71 114.41 36.26C114.87 35.79 115.44 35.49 116.1 35.49C116.47 35.49 116.77 35.58 116.97 35.74C117.18 35.9 117.29 36.12 117.29 36.42V36.44H117.3V36.45ZM99.9002 37.92C99.5402 38.94 99.1502 39.74 98.6502 40.36C98.2102 39.75 97.6202 38.88 97.1602 38.14C97.8902 37.8 98.4402 37.45 98.8302 37.04C99.2102 36.63 99.4102 36.15 99.4102 35.64C99.4102 35.17 99.2502 34.73 98.9402 34.41C98.6302 34.09 98.1601 33.89 97.5602 33.89C96.8602 33.89 96.2602 34.16 95.8202 34.6C95.3902 35.04 95.1402 35.64 95.1402 36.3C95.1402 36.81 95.3102 37.3 95.6102 37.83C95.0802 38.09 94.5502 38.43 94.1402 38.88C93.7202 39.34 93.4402 39.92 93.4402 40.62C93.4402 41.23 93.6601 41.77 94.0901 42.18C94.5101 42.58 95.1302 42.82 95.9102 42.82C96.8602 42.82 97.6602 42.55 98.3802 41.94C98.5702 42.21 98.7302 42.42 98.9402 42.65L98.9602 42.68H100.46L100.35 42.55C99.9402 42.07 99.6002 41.62 99.2802 41.2C100.08 40.39 100.63 39.33 101.12 38L101.16 37.89H99.9702L99.9501 37.95H99.9202L99.9002 37.92ZM96.6402 35.17C96.8401 34.93 97.1302 34.78 97.4402 34.78H97.4501C97.7502 34.78 97.9402 34.88 98.0702 35.04C98.1902 35.2 98.2502 35.42 98.2502 35.65C98.2502 36.03 98.1002 36.35 97.8202 36.64C97.5602 36.92 97.1702 37.16 96.6702 37.4C96.4202 36.99 96.3002 36.6 96.3002 36.16C96.3002 35.77 96.4302 35.42 96.6402 35.18M96.1902 41.82H96.1702C95.6901 41.82 95.3202 41.66 95.0702 41.42C94.8202 41.17 94.6902 40.83 94.6902 40.44C94.6902 39.95 94.9002 39.56 95.1902 39.25C95.4602 38.96 95.7902 38.74 96.0602 38.57C96.6802 39.57 97.3902 40.55 97.8202 41.14C97.4002 41.55 96.8502 41.82 96.1902 41.82ZM108.76 31.13C107.68 31.13 106.67 31.45 105.94 32.03C105.21 32.62 104.75 33.46 104.75 34.5C104.75 35.12 104.97 35.66 105.37 36.15C105.77 36.63 106.36 37.06 107.11 37.45C107.72 37.76 108.14 38.07 108.4 38.39C108.66 38.71 108.77 39.06 108.77 39.46C108.77 40.1 108.48 40.6 108.03 40.95C107.59 41.3 106.98 41.48 106.32 41.48C105.37 41.48 104.5 41.19 103.89 40.78L103.81 40.73L103.77 40.82L103.23 42L103.27 42.04C103.53 42.26 103.94 42.45 104.44 42.59C104.94 42.73 105.52 42.83 106.13 42.83C107.46 42.83 108.53 42.44 109.27 41.81C110 41.17 110.41 40.27 110.4 39.28C110.4 38.58 110.2 38 109.82 37.5C109.44 37.01 108.88 36.6 108.15 36.22C107.54 35.9 107.1 35.61 106.81 35.3C106.52 34.99 106.38 34.65 106.38 34.22C106.38 33.79 106.58 33.36 106.96 33.03C107.34 32.7 107.9 32.48 108.61 32.48H108.68C109.54 32.48 110.23 32.8 110.58 33L110.66 33.04L111.24 31.77L111.19 31.73C110.77 31.45 109.91 31.14 108.75 31.14M88.1302 34.27C86.7602 34.27 85.5901 34.96 84.7802 35.98C83.9702 36.98 83.5002 38.3 83.5002 39.52C83.5002 40.42 83.7402 41.26 84.2802 41.86C84.8102 42.47 85.6301 42.84 86.7502 42.84C87.8702 42.84 88.9202 42.54 89.5502 42.2L89.6002 42.18V42.12L89.3602 40.99L89.2702 41.04C88.7602 41.3 88.0302 41.58 87.0502 41.58C86.6302 41.58 86.2602 41.5 85.9602 41.33C85.6502 41.16 85.4202 40.9 85.2602 40.55C85.1302 40.26 85.0702 39.79 85.0702 39.43C85.0702 39.32 85.0702 39.22 85.0901 39.14H85.3902C86.8602 39.14 88.1602 38.99 89.1102 38.59C89.5802 38.39 89.9702 38.12 90.2402 37.76C90.5102 37.41 90.6602 36.97 90.6602 36.45C90.6602 35.85 90.4302 35.31 90.0002 34.91C89.5702 34.52 88.9402 34.29 88.1202 34.29M89.1302 36.45C89.1302 36.73 89.0402 36.95 88.8702 37.13C88.6202 37.41 88.1702 37.6 87.6002 37.72C87.0202 37.84 86.3202 37.88 85.5302 37.88H85.3202C85.5002 37.3 85.8202 36.71 86.2502 36.26C86.7102 35.79 87.2802 35.49 87.9402 35.49C88.3102 35.49 88.6102 35.58 88.8202 35.74C89.0202 35.9 89.1402 36.12 89.1402 36.42V36.44H89.1302V36.45ZM125.62 34.4C125.31 34.33 124.93 34.27 124.54 34.27C123.01 34.27 121.72 34.91 120.8 35.91C119.89 36.9 119.36 38.26 119.36 39.65C119.36 40.52 119.63 41.33 120.18 41.91C120.72 42.49 121.55 42.84 122.65 42.84C123.75 42.84 124.66 42.55 125.1 42.33L125.15 42.31V42.25L124.99 41.06L124.89 41.11C124.46 41.31 123.84 41.55 122.98 41.55C122.32 41.55 121.83 41.35 121.48 40.99C121.15 40.63 120.98 40.12 120.98 39.47C120.98 38.54 121.32 37.55 121.91 36.81C122.51 36.07 123.38 35.57 124.43 35.57C125.04 35.57 125.49 35.72 125.81 35.86L125.88 35.9L126.35 34.68L126.29 34.65C126.15 34.57 125.9 34.48 125.59 34.4" fill="#005795"/>
<path id="Vector_2" d="M50.2505 14.44C49.2305 18.73 47.9805 22.54 41.4205 22.54C34.8605 22.54 35.4205 18.74 36.4305 14.44C37.4905 9.97002 38.8305 6.35002 45.2705 6.35002C51.7105 6.35002 51.3205 9.97002 50.2505 14.44ZM46.2805 0.580017C31.6505 0.580017 29.3005 6.78002 27.6805 14.44C26.1705 21.52 25.3105 28.3 40.4005 28.3C55.4905 28.3 57.5305 21.41 59.0005 14.44C60.6305 6.78002 60.6605 0.580017 46.2705 0.580017" fill="#005795"/>
<path id="Vector_3" d="M98.5004 1.36002H89.0904C88.3604 1.36002 87.7004 1.80002 87.3704 2.35002L78.6304 17.37L76.8504 2.49002C76.7704 1.87002 76.2504 1.36002 75.5704 1.36002H66.3804C65.7004 1.36002 65.1204 1.86002 64.9704 2.47002L59.2804 26.37C59.1304 26.98 59.4804 27.48 60.1604 27.48H66.2904C67.0204 27.48 67.5504 26.99 67.6904 26.37L71.0704 12.17C71.2104 11.56 71.4004 11.57 71.4904 12.19L73.5304 26.35C73.6204 26.97 74.1004 27.48 74.8304 27.48H78.1104C78.9304 27.48 79.4604 27.12 79.8404 26.5L88.3204 12.05C88.6404 11.51 88.7804 11.56 88.6304 12.17L85.2504 26.37C85.1004 26.98 85.4504 27.48 86.1304 27.48H92.2604C92.9404 27.48 93.5204 26.99 93.6704 26.37L99.3604 2.47002C99.5004 1.85002 99.1104 1.36002 98.4804 1.36002" fill="#005795"/>
<path id="Vector_4" d="M157.5 14.78H149.85L157.5 4.10002V14.78ZM139.61 27.49C140.39 27.49 141.05 27.08 141.42 26.56L145.9 20.32H157.51V26.35C157.51 26.98 157.92 27.49 158.65 27.49H164.37L160.99 31.79C160.6 32.29 160.79 32.69 161.42 32.69H170.4C171.18 32.69 171.84 32.28 172.23 31.77L183.56 16.43L187 26.5C187.21 27.09 187.73 27.58 188.52 27.58H195.74C196.42 27.58 196.69 27.11 196.45 26.52L191.22 13.6L199.81 2.28002C200.19 1.78002 199.99 1.37002 199.36 1.37002H191.1C190.32 1.37002 189.66 1.79002 189.28 2.29002L183.28 10.52L180.67 2.45002C180.48 1.85002 179.96 1.36002 179.17 1.36002H171.62C170.94 1.36002 170.67 1.84002 170.9 2.42002L175.32 13.57L165.86 25.59V2.51002C165.86 1.88002 165.45 1.37002 164.72 1.37002H150.69C149.91 1.37002 149.25 1.79002 148.87 2.29002L133.17 24.03L138.31 2.47002C138.45 1.86002 138.06 1.36002 137.43 1.36002H128.02C127.29 1.36002 126.62 1.80002 126.3 2.35002L117.56 17.37L115.78 2.49002C115.7 1.86002 115.18 1.36002 114.5 1.36002H105.31C104.63 1.36002 104.06 1.86002 103.91 2.47002L98.2098 26.37C98.0698 26.98 98.4098 27.48 99.0898 27.48H105.22C105.95 27.48 106.48 26.99 106.62 26.37L110 12.17C110.14 11.56 110.34 11.57 110.43 12.19L112.47 26.35C112.56 26.97 113.04 27.48 113.77 27.48H117.05C117.87 27.48 118.4 27.13 118.78 26.5L127.26 12.05C127.58 11.51 127.72 11.56 127.57 12.18L124.19 26.38C124.04 26.99 124.39 27.49 125.06 27.49H139.62H139.61Z" fill="#005795"/>
<path id="Vector_5" d="M23.5799 21.45C21.8299 21.52 18.5799 21.62 16.3499 21.6C12.6299 21.55 10.2099 20.35 9.41987 18.62C8.81987 17.31 9.07987 15.66 9.37987 14.44C9.66987 13.21 10.1999 11.59 11.4599 10.31C13.0799 8.65002 15.8299 7.58002 19.7199 7.42002C22.1999 7.32002 25.3899 7.45002 27.0699 7.53002C27.7599 7.57002 28.1499 7.15002 28.2699 6.63002L29.2399 2.53002C29.3699 1.99002 29.0899 1.49002 28.5099 1.40002C26.0399 1.04002 20.7599 0.700024 17.6199 0.960024C13.4999 1.31002 9.85987 2.22002 6.87987 4.43002C3.38987 6.99002 1.27987 10.57 0.41987 14.4C-0.48013 18.16 0.04987 21.86 2.23987 24.35C4.17987 26.56 7.19987 27.77 11.1699 28.11C14.2699 28.37 19.5699 28.03 22.1499 27.65C22.7799 27.56 23.2099 27.06 23.3399 26.53L24.3399 22.38C24.4599 21.85 24.1299 21.45 23.5899 21.47" fill="#005795"/>
</g>
<defs>
<clipPath id="clip0_1271_19927">
<rect width="200" height="45.78" fill="white" transform="translate(0 0.580017)"/>
</clipPath>
</defs>
</svg>
