<svg width="200" height="73" viewBox="0 0 200 73" fill="none" xmlns="http://www.w3.org/2000/svg">
<g id="_&#235;&#160;&#136;&#236;&#157;&#180;&#236;&#150;&#180;_1" clip-path="url(#clip0_1271_20027)">
<path id="Vector" d="M18.0703 23.15L31.4303 10.33H22.3903L9.32031 23.15L30.8503 44.19H40.0803L18.0703 23.15Z" fill="#00478E"/>
<path id="Vector_2" d="M53.0502 9.96001V14.15C59.2102 14.15 62.9502 17.51 62.9502 23.16C62.9502 28.81 59.2102 32.24 53.0502 32.24V36.36C64.2002 36.36 71.4102 31.19 71.4102 23.16C71.4102 15.13 64.2002 9.95001 53.0502 9.95001V9.96001ZM53.0502 9.96001C41.9002 9.96001 34.7002 15.12 34.7002 23.16C34.7002 31.2 41.9102 36.36 53.0502 36.36V32.24H52.9602C46.8002 32.24 43.0502 28.81 43.0502 23.16C43.0502 17.51 46.8002 14.17 52.9602 14.17H53.0502V9.97001V9.96001Z" fill="#00478E"/>
<path id="Vector_3" d="M91.31 35.87H99.19V32.14H96.12C91.03 32.14 89.2 30.41 89.2 25.93V14.17H99.2V10.35H89.2V0.48999H81.23V10.34H74.5V14.15H81.23V28.22C81.23 33.19 84.77 35.86 91.32 35.86L91.31 35.87Z" fill="#00478E"/>
<path id="Vector_4" d="M150.61 35.87H166.36V19.7C166.36 13.49 161.66 10.33 152.34 10.33H150.61V14.34C154.64 14.54 158.11 15.41 158.11 19.61V21.05H150.61V24.78H158.21V32.05H150.61V35.87ZM145.13 35.87H150.61V32.04H149.07C146.28 32.04 143.11 32.04 143.11 28.69C143.11 25.06 146.48 24.77 149.74 24.77H150.6V21.04H148.38C138.67 21.04 134.73 23.34 134.73 28.89C134.73 33.38 138.48 35.87 145.11 35.87H145.13ZM150.61 10.34H137.15V14.35H150.61V10.34Z" fill="#00478E"/>
<path id="Vector_5" d="M115.14 10.34C108.11 10.34 105.82 11.87 105.82 16.46V35.87H113.8V17.89C113.8 14.35 119.08 14.35 121.48 14.35H130.8L135.03 10.34H115.14Z" fill="#00478E"/>
<path id="Vector_6" d="M7.88 35.87V0.48999H0V35.87H7.88Z" fill="#00478E"/>
<path id="Vector_7" d="M36.92 67.01C36.85 67.06 36.78 67.1 36.72 67.12C36.32 67.24 35.84 67.33 35.28 67.42C34.72 67.49 34.14 67.55 33.54 67.61C32.93 67.66 32.33 67.69 31.73 67.7C31.13 67.72 30.6 67.71 30.13 67.68C29.69 67.66 29.35 67.55 29.13 67.37C28.9 67.18 28.79 66.88 28.79 66.46V57.82C28.79 57.39 28.88 57.1 29.06 56.93C29.23 56.75 29.56 56.67 30.02 56.67H35.35C35.52 56.67 35.6 56.76 35.6 56.93V58.18C35.6 58.35 35.51 58.42 35.35 58.42H31.26C31.03 58.42 30.91 58.53 30.91 58.73V65.39C30.91 65.59 30.94 65.72 31.01 65.77C31.08 65.83 31.22 65.86 31.46 65.89C31.71 65.94 32.06 65.94 32.47 65.94C32.89 65.92 33.33 65.89 33.8 65.86C34.27 65.81 34.74 65.77 35.19 65.71C35.65 65.65 36.05 65.58 36.39 65.51C36.48 65.49 36.56 65.49 36.62 65.51C36.69 65.53 36.74 65.59 36.77 65.69L36.99 66.8C37.02 66.91 36.99 67 36.92 67.04V67.01ZM41.44 55.46C41.44 55.29 41.53 55.22 41.69 55.22H43.27C43.43 55.22 43.51 55.29 43.51 55.46V72.31C43.51 72.48 43.43 72.55 43.27 72.55H41.68C41.52 72.55 41.45 72.48 41.45 72.31V63.67H39.74V71.61C39.74 71.79 39.66 71.87 39.5 71.87H37.99C37.82 71.87 37.74 71.79 37.74 71.61V55.78C37.74 55.63 37.83 55.54 37.99 55.54H39.5C39.66 55.54 39.74 55.62 39.74 55.78V61.92H41.45V55.46H41.44Z" fill="#6D6C6C"/>
<path id="Vector_8" d="M55.8401 59.63C55.7901 59.69 55.7201 59.71 55.6401 59.71H45.9101C45.8401 59.71 45.7701 59.69 45.7101 59.62C45.6501 59.56 45.6201 59.49 45.6201 59.41V58.32C45.6201 58.26 45.6501 58.2 45.7201 58.14C45.7901 58.08 45.8501 58.05 45.9301 58.05H55.6401C55.7101 58.05 55.7801 58.09 55.8401 58.13C55.8901 58.19 55.9201 58.25 55.9201 58.32V59.42C55.9201 59.5 55.8901 59.57 55.8401 59.62V59.63ZM50.9301 60.35C51.4801 60.35 52.0001 60.43 52.4901 60.61C52.9801 60.78 53.4001 61 53.7601 61.3C54.1201 61.6 54.4101 61.94 54.6101 62.33C54.8201 62.73 54.9201 63.16 54.9201 63.61C54.9201 64.06 54.8101 64.5 54.6101 64.9C54.4001 65.29 54.1101 65.63 53.7601 65.93C53.4001 66.23 52.9801 66.45 52.4901 66.63C52.0001 66.8 51.4701 66.88 50.9101 66.88C50.3501 66.88 49.8401 66.8 49.3701 66.63C48.8901 66.45 48.4701 66.23 48.1101 65.93C47.7501 65.63 47.4701 65.29 47.2601 64.9C47.0501 64.5 46.9501 64.07 46.9501 63.61C46.9501 63.15 47.0601 62.73 47.2601 62.33C47.4701 61.94 47.7601 61.6 48.1101 61.3C48.4701 61 48.8901 60.78 49.3801 60.61C49.8601 60.43 50.3801 60.35 50.9301 60.35ZM53.4701 57.18C53.4201 57.24 53.3401 57.26 53.2401 57.26H48.4501C48.4501 57.26 48.3401 57.24 48.2801 57.19C48.2101 57.14 48.1801 57.07 48.1801 56.99V55.91C48.1801 55.82 48.2101 55.73 48.2801 55.7C48.3501 55.65 48.4101 55.62 48.4501 55.62H53.2401C53.3301 55.62 53.4001 55.66 53.4601 55.71C53.5201 55.77 53.5501 55.84 53.5501 55.93V56.97C53.5501 57.04 53.5201 57.1 53.4701 57.17V57.18ZM59.8401 72.22C59.7801 72.26 59.7201 72.28 59.6601 72.28H49.9701C49.4201 72.28 49.0501 72.17 48.8501 71.98C48.6601 71.79 48.5601 71.45 48.5601 70.97V68.13C48.5601 68.07 48.5901 68.01 48.6501 67.95C48.7101 67.89 48.7701 67.86 48.8301 67.86H50.3901C50.4801 67.86 50.5401 67.9 50.6001 67.95C50.6501 68.01 50.6801 68.07 50.6801 68.13V70.21C50.6801 70.33 50.7001 70.41 50.7501 70.45C50.8001 70.49 50.8801 70.51 51.0101 70.51H59.6501C59.7101 70.51 59.7701 70.53 59.8301 70.58C59.8901 70.63 59.9201 70.69 59.9201 70.75V72.05C59.9201 72.12 59.8901 72.18 59.8301 72.22H59.8401ZM50.9301 61.98C50.3501 61.98 49.8801 62.13 49.5001 62.45C49.1201 62.76 48.9301 63.15 48.9301 63.6C48.9301 64.05 49.1201 64.46 49.5001 64.78C49.8801 65.11 50.3601 65.28 50.9301 65.28C51.5001 65.28 52.0001 65.11 52.3701 64.78C52.7501 64.46 52.9301 64.06 52.9301 63.6C52.9301 63.14 52.7401 62.77 52.3701 62.45C52.0001 62.13 51.5201 61.98 50.9301 61.98ZM61.8901 63.02C61.8401 63.06 61.7701 63.09 61.7001 63.09H59.2201V68.34C59.2201 68.49 59.1401 68.58 58.9801 68.58H57.3501C57.1901 68.58 57.1101 68.5 57.1101 68.34V55.45C57.1101 55.28 57.1901 55.21 57.3501 55.21H58.9801C59.1401 55.21 59.2201 55.28 59.2201 55.45V61.33H61.7001C61.7701 61.33 61.8301 61.35 61.8901 61.4C61.9401 61.45 61.9701 61.51 61.9701 61.57V62.87C61.9701 62.93 61.9401 62.98 61.8901 63.02Z" fill="#6D6C6C"/>
<path id="Vector_9" d="M78.8797 66.28C78.8197 66.34 78.7597 66.37 78.6897 66.37H71.7897V72.16C71.7897 72.34 71.6997 72.41 71.5297 72.41H69.9397C69.7697 72.41 69.6897 72.33 69.6897 72.16V66.37H62.7197C62.6497 66.37 62.5897 66.33 62.5397 66.28C62.4897 66.21 62.4697 66.15 62.4697 66.08V64.9C62.4697 64.83 62.4997 64.76 62.5397 64.71C62.5897 64.65 62.6497 64.63 62.7197 64.63H78.7097C78.7697 64.63 78.8297 64.67 78.8997 64.72C78.9597 64.78 78.9897 64.84 78.9897 64.91V66.09C78.9897 66.15 78.9597 66.22 78.8997 66.28H78.8797ZM76.2097 62.36C75.9997 62.55 75.6697 62.64 75.2097 62.64H66.2897C65.7397 62.64 65.3697 62.55 65.1797 62.36C64.9897 62.16 64.8997 61.83 64.8997 61.35V56.81C64.8997 56.35 64.9997 56.02 65.1997 55.83C65.3997 55.65 65.7297 55.55 66.1997 55.55H75.1197C75.6697 55.55 76.0397 55.64 76.2297 55.82C76.4197 56 76.5097 56.34 76.5097 56.83V61.37C76.5097 61.83 76.4097 62.16 76.2097 62.36ZM74.3997 57.54C74.3997 57.43 74.3897 57.37 74.3497 57.34C74.3197 57.3 74.2597 57.29 74.1597 57.29H67.2597C67.1597 57.29 67.0997 57.3 67.0697 57.33C67.0397 57.35 67.0197 57.41 67.0197 57.51V60.63C67.0197 60.76 67.0297 60.83 67.0697 60.85C67.0997 60.87 67.1597 60.89 67.2597 60.89H74.1597C74.2597 60.89 74.3197 60.88 74.3497 60.85C74.3797 60.83 74.3997 60.76 74.3997 60.63V57.53V57.54Z" fill="#6D6C6C"/>
<path id="Vector_10" d="M94.26 65.14H92.63C92.47 65.14 92.39 65.06 92.39 64.9V62.95H88.59C88.19 63.38 87.7 63.7 87.12 63.93C86.54 64.17 85.9 64.27 85.19 64.27C84.54 64.27 83.94 64.16 83.4 63.96C82.86 63.76 82.39 63.46 82.01 63.1C81.63 62.72 81.33 62.28 81.11 61.76C80.9 61.24 80.79 60.68 80.79 60.08C80.79 59.48 80.9 58.94 81.11 58.42C81.32 57.9 81.63 57.45 82.01 57.07C82.4 56.68 82.86 56.38 83.4 56.16C83.94 55.95 84.54 55.83 85.19 55.83C85.97 55.83 86.68 55.98 87.3 56.29C87.92 56.6 88.43 57 88.83 57.51H92.39V55.45C92.39 55.28 92.47 55.21 92.63 55.21H94.26C94.42 55.21 94.5 55.28 94.5 55.45V64.89C94.5 65.04 94.42 65.13 94.26 65.13V65.14ZM87.61 60.11C87.61 59.39 87.39 58.8 86.95 58.36C86.51 57.92 85.92 57.7 85.19 57.7C84.46 57.7 83.9 57.92 83.46 58.36C83.02 58.8 82.8 59.39 82.8 60.11C82.8 60.83 83.02 61.45 83.46 61.89C83.9 62.33 84.48 62.54 85.19 62.54C85.9 62.54 86.51 62.33 86.95 61.89C87.39 61.45 87.61 60.86 87.61 60.11ZM94.41 72.43C94.36 72.49 94.3 72.51 94.24 72.51H92.66C92.59 72.51 92.52 72.49 92.47 72.43C92.42 72.38 92.39 72.32 92.39 72.26V68.11C92.39 67.98 92.36 67.9 92.32 67.86C92.27 67.81 92.19 67.8 92.07 67.8H83.64C83.58 67.8 83.52 67.79 83.46 67.74C83.4 67.69 83.37 67.65 83.37 67.59V66.29C83.37 66.21 83.4 66.15 83.46 66.11C83.52 66.06 83.58 66.05 83.64 66.05H93.29C93.75 66.05 94.07 66.16 94.25 66.35C94.43 66.54 94.5 66.87 94.5 67.33V72.26C94.5 72.32 94.47 72.38 94.42 72.44L94.41 72.43ZM89.69 60.08C89.69 60.51 89.64 60.9 89.53 61.26H92.39V59.2H89.6C89.66 59.51 89.69 59.79 89.69 60.08Z" fill="#6D6C6C"/>
<path id="Vector_11" d="M113.38 66.8C113.32 66.86 113.26 66.89 113.2 66.89H106.3V72.17C106.3 72.34 106.21 72.42 106.05 72.42H104.45C104.28 72.42 104.2 72.34 104.2 72.17V66.89H97.2305C97.1605 66.89 97.1005 66.85 97.0505 66.8C97.0005 66.74 96.9805 66.68 96.9805 66.62V65.42C96.9805 65.23 97.0705 65.14 97.2405 65.14H113.23C113.29 65.14 113.35 65.16 113.41 65.22C113.47 65.28 113.5 65.35 113.5 65.42V66.62C113.5 66.68 113.47 66.74 113.41 66.8H113.4H113.38ZM111.14 63.51C111.14 63.51 111.05 63.58 110.98 63.58H100.62C100.13 63.58 99.7905 63.47 99.6005 63.25C99.4105 63.01 99.3105 62.69 99.3105 62.27V56.76C99.3105 56.3 99.4105 55.98 99.6205 55.81C99.8305 55.64 100.16 55.56 100.63 55.56H110.82C110.99 55.56 111.07 55.64 111.07 55.81V56.99C111.07 57.16 110.98 57.24 110.82 57.24H101.75C101.53 57.24 101.42 57.35 101.42 57.56V58.74H110.58C110.64 58.74 110.7 58.76 110.75 58.81C110.8 58.86 110.83 58.92 110.83 58.99V60.1C110.83 60.18 110.8 60.24 110.75 60.28C110.7 60.33 110.64 60.35 110.58 60.35H101.42V61.5C101.42 61.77 101.53 61.9 101.75 61.9H110.91C111.01 61.9 111.09 61.91 111.13 61.94C111.18 61.96 111.2 62.02 111.2 62.12V63.28C111.2 63.39 111.18 63.45 111.13 63.5L111.14 63.51Z" fill="#6D6C6C"/>
<path id="Vector_12" d="M115.49 68.15C115.39 68.21 115.29 68.23 115.19 68.22C115.08 68.21 115 68.16 114.94 68.05L114.22 67.12C114.13 67.01 114.12 66.91 114.17 66.81C114.22 66.7 114.29 66.63 114.36 66.59C115.13 66.12 115.87 65.57 116.56 64.95C117.26 64.33 117.89 63.67 118.45 62.99C119.01 62.3 119.49 61.61 119.88 60.9C120.27 60.18 120.56 59.49 120.72 58.84C120.77 58.64 120.77 58.5 120.74 58.44C120.71 58.38 120.58 58.36 120.37 58.36H115.63C115.54 58.36 115.48 58.32 115.44 58.27C115.4 58.22 115.37 58.15 115.37 58.08V56.85C115.37 56.78 115.4 56.72 115.45 56.67C115.5 56.62 115.57 56.6 115.64 56.6H121.62C122.1 56.6 122.47 56.69 122.74 56.87C123.01 57.06 123.14 57.28 123.14 57.58C123.14 57.75 123.13 57.9 123.11 58.07C123.08 58.24 123.06 58.39 123.02 58.52C122.85 59.18 122.62 59.85 122.34 60.5C122.06 61.17 121.71 61.83 121.3 62.49C121.53 62.8 121.8 63.13 122.11 63.48C122.42 63.82 122.73 64.15 123.05 64.49C123.36 64.81 123.69 65.11 124.01 65.39C124.33 65.66 124.61 65.89 124.87 66.08C124.96 66.14 125.01 66.21 125.04 66.32C125.07 66.41 125.04 66.51 124.97 66.62L124.18 67.51C124.02 67.69 123.82 67.7 123.58 67.55C123.36 67.4 123.11 67.21 122.81 66.95C122.52 66.69 122.21 66.41 121.9 66.09C121.59 65.78 121.28 65.44 120.96 65.1C120.65 64.76 120.37 64.43 120.13 64.11C118.88 65.65 117.32 67.02 115.47 68.19V68.21L115.49 68.15ZM130.91 63.6C130.86 63.65 130.8 63.67 130.74 63.67H128.24V72.31C128.24 72.48 128.16 72.55 128 72.55H126.37C126.21 72.55 126.13 72.48 126.13 72.31V55.46C126.13 55.29 126.21 55.22 126.37 55.22H128C128.16 55.22 128.24 55.29 128.24 55.46V61.92H130.74C130.8 61.92 130.86 61.94 130.91 61.99C130.96 62.04 130.99 62.08 130.99 62.14V63.43C130.99 63.49 130.96 63.55 130.91 63.6Z" fill="#6D6C6C"/>
<path id="Vector_13" d="M133.32 65.89C133.23 65.93 133.13 65.94 133.02 65.94C132.91 65.94 132.81 65.87 132.74 65.74L132.19 64.85C132.13 64.74 132.12 64.65 132.14 64.54C132.17 64.43 132.25 64.36 132.37 64.3C133.04 63.97 133.69 63.58 134.31 63.13C134.93 62.68 135.49 62.2 136 61.69C136.51 61.17 136.95 60.66 137.32 60.12C137.7 59.59 137.97 59.07 138.16 58.57C138.21 58.45 138.23 58.35 138.22 58.26C138.22 58.19 138.11 58.14 137.9 58.14H133.39C133.3 58.14 133.24 58.12 133.2 58.06C133.16 58.01 133.13 57.94 133.13 57.87V56.65C133.13 56.47 133.22 56.39 133.41 56.39H139.23C139.77 56.39 140.16 56.5 140.42 56.69C140.68 56.89 140.78 57.2 140.71 57.58C140.68 57.72 140.66 57.85 140.62 57.98C140.59 58.11 140.55 58.24 140.51 58.35C140.38 58.81 140.18 59.28 139.92 59.76C139.67 60.25 139.36 60.73 139.02 61.2C139.24 61.44 139.49 61.69 139.77 61.93C140.05 62.17 140.34 62.4 140.64 62.63C140.94 62.86 141.24 63.06 141.53 63.26C141.82 63.45 142.09 63.63 142.33 63.76C142.58 63.88 142.62 64.07 142.48 64.3L141.88 65.23C141.76 65.43 141.57 65.48 141.31 65.34C141.09 65.23 140.83 65.08 140.53 64.88C140.23 64.68 139.92 64.45 139.59 64.21C139.27 63.96 138.95 63.7 138.64 63.42C138.33 63.14 138.05 62.88 137.8 62.62C137.18 63.28 136.49 63.89 135.72 64.44C134.96 65.01 134.16 65.49 133.32 65.91H133.33L133.32 65.89ZM146.56 72.22C146.5 72.26 146.44 72.28 146.37 72.28H136.77C136.22 72.28 135.85 72.17 135.66 71.98C135.47 71.79 135.37 71.45 135.37 70.97V67.1C135.37 67.04 135.4 66.98 135.45 66.91C135.5 66.85 135.56 66.83 135.62 66.83H137.21C137.28 66.83 137.35 66.85 137.4 66.9C137.45 66.96 137.48 67.02 137.48 67.1V70.22C137.48 70.34 137.5 70.42 137.55 70.46C137.6 70.5 137.68 70.52 137.81 70.52H146.34C146.4 70.52 146.46 70.54 146.52 70.59C146.58 70.64 146.61 70.7 146.61 70.76V72.06C146.61 72.13 146.58 72.18 146.53 72.23H146.54L146.56 72.22ZM146.08 67.41C146.08 67.58 146 67.65 145.84 67.65H144.21C144.05 67.65 143.97 67.57 143.97 67.4V55.46C143.97 55.29 144.05 55.22 144.21 55.22H145.84C146 55.22 146.08 55.29 146.08 55.46V67.42V67.41Z" fill="#6D6C6C"/>
<path id="Vector_14" d="M165.13 66.67C165.07 66.73 165.01 66.76 164.95 66.76H148.98C148.91 66.76 148.85 66.74 148.8 66.67C148.75 66.61 148.73 66.55 148.73 66.49V65.41C148.73 65.21 148.82 65.11 148.98 65.11H164.87C164.93 65.11 165 65.13 165.09 65.2C165.18 65.26 165.22 65.32 165.22 65.4V66.48C165.22 66.54 165.19 66.6 165.13 66.66V66.67ZM163.5 58.85C163.45 58.9 163.38 58.93 163.31 58.93H150.62C150.56 58.93 150.5 58.89 150.44 58.82C150.38 58.76 150.35 58.68 150.35 58.61V57.65C150.35 57.58 150.38 57.52 150.45 57.46C150.52 57.4 150.58 57.37 150.64 57.37H163.31C163.38 57.37 163.44 57.39 163.5 57.45C163.55 57.5 163.58 57.57 163.58 57.64V58.62C163.58 58.7 163.55 58.77 163.5 58.83V58.85ZM162.8 70.09C162.8 70.86 162.31 71.49 161.31 71.96C160.32 72.45 158.87 72.68 156.96 72.68C155.05 72.68 153.6 72.44 152.61 71.96C151.62 71.49 151.12 70.86 151.12 70.09C151.12 69.32 151.62 68.71 152.61 68.22C153.6 67.75 155.05 67.51 156.96 67.51C158.87 67.51 160.32 67.75 161.31 68.22C162.3 68.69 162.8 69.32 162.8 70.09ZM156.96 64.3C156.13 64.3 155.41 64.23 154.8 64.1C154.19 63.96 153.68 63.78 153.28 63.57C152.88 63.36 152.58 63.1 152.37 62.81C152.16 62.53 152.07 62.22 152.07 61.9C152.07 61.58 152.17 61.26 152.37 60.98C152.57 60.68 152.87 60.42 153.28 60.21C153.68 59.99 154.19 59.82 154.8 59.68C155.41 59.54 156.13 59.48 156.96 59.48C157.79 59.48 158.52 59.54 159.14 59.68C159.76 59.81 160.27 59.99 160.67 60.21C161.07 60.42 161.37 60.68 161.58 60.98C161.78 61.26 161.88 61.57 161.88 61.9C161.88 62.23 161.78 62.53 161.58 62.81C161.38 63.09 161.07 63.35 160.67 63.57C160.27 63.79 159.75 63.96 159.14 64.1C158.52 64.23 157.8 64.3 156.96 64.3ZM156.96 69.01C155.74 69.01 154.81 69.12 154.19 69.34C153.57 69.58 153.25 69.83 153.25 70.1C153.25 70.37 153.56 70.63 154.19 70.85C154.81 71.07 155.74 71.18 156.96 71.18C158.18 71.18 159.11 71.06 159.73 70.85C160.35 70.64 160.67 70.39 160.67 70.1C160.67 69.81 160.36 69.57 159.73 69.34C159.11 69.12 158.18 69.01 156.96 69.01ZM159.85 56.62C159.8 56.68 159.72 56.71 159.64 56.71H154.3C154.3 56.71 154.19 56.69 154.13 56.64C154.06 56.59 154.03 56.52 154.03 56.44V55.4C154.03 55.32 154.06 55.25 154.13 55.2C154.2 55.15 154.26 55.13 154.3 55.13H159.64C159.71 55.13 159.78 55.17 159.84 55.22C159.9 55.27 159.93 55.35 159.93 55.42V56.43C159.93 56.5 159.9 56.57 159.85 56.63V56.62ZM156.96 60.88C156.03 60.88 155.32 60.99 154.82 61.18C154.32 61.37 154.08 61.62 154.08 61.91C154.08 62.2 154.33 62.42 154.82 62.62C155.32 62.82 156.03 62.92 156.96 62.92C157.89 62.92 158.62 62.83 159.12 62.62C159.62 62.42 159.86 62.19 159.86 61.91C159.86 61.63 159.61 61.38 159.12 61.18C158.62 60.99 157.91 60.88 156.96 60.88Z" fill="#6D6C6C"/>
<path id="Vector_15" d="M182.38 64.25C182.32 64.31 182.26 64.34 182.2 64.34H166.23C166.16 64.34 166.1 64.32 166.05 64.25C166 64.19 165.98 64.13 165.98 64.07V62.89C165.98 62.82 166.01 62.75 166.05 62.69C166.1 62.63 166.16 62.6 166.23 62.6H172.54V59.69C172.54 59.52 172.63 59.44 172.79 59.44H174.38C174.55 59.44 174.63 59.52 174.63 59.69V62.6H182.1C182.16 62.6 182.23 62.64 182.32 62.69C182.41 62.76 182.45 62.83 182.45 62.89V64.07C182.45 64.13 182.42 64.19 182.36 64.25H182.37H182.38ZM180.07 69.01C180.07 69.51 179.94 69.97 179.67 70.39C179.41 70.82 179.03 71.18 178.53 71.5C178.03 71.82 177.42 72.06 176.69 72.23C175.96 72.41 175.14 72.5 174.22 72.5C173.3 72.5 172.48 72.42 171.75 72.23C171.02 72.05 170.41 71.8 169.91 71.5C169.41 71.18 169.03 70.81 168.77 70.39C168.51 69.96 168.37 69.5 168.37 69.01C168.37 68.52 168.5 68.06 168.77 67.64C169.03 67.21 169.41 66.85 169.91 66.53C170.41 66.22 171.02 65.97 171.75 65.8C172.48 65.63 173.3 65.54 174.22 65.54C175.14 65.54 175.96 65.62 176.69 65.8C177.42 65.98 178.03 66.23 178.53 66.53C179.03 66.84 179.41 67.22 179.67 67.64C179.93 68.07 180.07 68.52 180.07 69.01ZM180.05 56.92C180.05 57.17 180.04 57.5 180.01 57.91C179.98 58.34 179.96 58.76 179.92 59.21C179.89 59.66 179.84 60.07 179.79 60.48C179.74 60.88 179.69 61.18 179.64 61.37C179.61 61.48 179.57 61.56 179.5 61.63C179.43 61.7 179.35 61.74 179.25 61.72L177.84 61.59C177.65 61.58 177.59 61.45 177.62 61.2C177.65 61 177.69 60.74 177.73 60.42C177.76 60.11 177.8 59.79 177.82 59.47C177.84 59.15 177.87 58.83 177.89 58.54C177.9 58.23 177.92 58 177.92 57.81C177.92 57.63 177.88 57.54 177.8 57.49C177.72 57.45 177.59 57.42 177.42 57.42H168.9C168.84 57.42 168.78 57.41 168.72 57.36C168.66 57.31 168.63 57.27 168.63 57.21V55.93C168.63 55.85 168.66 55.8 168.72 55.76C168.78 55.71 168.84 55.7 168.9 55.7H178.83C179.15 55.7 179.43 55.78 179.67 55.97C179.92 56.14 180.04 56.46 180.04 56.9L180.05 56.92ZM174.23 67.13C173.62 67.13 173.08 67.19 172.62 67.31C172.16 67.42 171.77 67.57 171.45 67.75C171.14 67.93 170.9 68.14 170.73 68.37C170.56 68.59 170.48 68.82 170.48 69.03C170.48 69.25 170.56 69.48 170.73 69.7C170.9 69.92 171.13 70.13 171.45 70.32C171.76 70.5 172.15 70.65 172.62 70.76C173.08 70.88 173.62 70.94 174.23 70.94C174.84 70.94 175.37 70.88 175.84 70.76C176.31 70.65 176.7 70.5 177.01 70.32C177.32 70.13 177.56 69.93 177.73 69.7C177.9 69.48 177.98 69.25 177.98 69.03C177.98 68.82 177.9 68.59 177.73 68.37C177.56 68.15 177.33 67.94 177.01 67.75C176.7 67.57 176.31 67.42 175.84 67.31C175.37 67.19 174.84 67.13 174.23 67.13Z" fill="#6D6C6C"/>
<path id="Vector_16" d="M184.97 68.51C184.74 68.69 184.53 68.69 184.33 68.49L183.47 67.69C183.3 67.52 183.32 67.33 183.52 67.12C184.32 66.41 184.99 65.61 185.56 64.73C186.12 63.85 186.57 62.92 186.92 61.93C187.07 61.48 187.19 61.05 187.3 60.62C187.41 60.19 187.49 59.74 187.55 59.31C187.61 58.86 187.65 58.41 187.68 57.93C187.71 57.46 187.71 56.95 187.7 56.4C187.7 56.33 187.73 56.26 187.78 56.21C187.83 56.15 187.89 56.13 187.95 56.13L189.58 56.19C189.64 56.19 189.69 56.21 189.75 56.26C189.8 56.32 189.82 56.38 189.82 56.46C189.82 57.19 189.79 57.89 189.75 58.53C189.7 59.17 189.62 59.78 189.51 60.38C189.63 60.96 189.82 61.53 190.08 62.11C190.33 62.68 190.64 63.22 190.98 63.75C191.32 64.28 191.69 64.77 192.09 65.22C192.49 65.66 192.88 66.04 193.28 66.36C193.47 66.5 193.49 66.69 193.32 66.93L192.55 67.86C192.49 67.94 192.4 67.99 192.3 68C192.2 68.01 192.09 67.98 191.96 67.88C191.67 67.66 191.36 67.36 191.02 67.03C190.69 66.69 190.38 66.32 190.08 65.92C189.78 65.53 189.5 65.12 189.24 64.7C188.99 64.27 188.78 63.87 188.62 63.48C188.4 64 188.15 64.5 187.87 64.98C187.59 65.47 187.29 65.93 186.97 66.35C186.65 66.79 186.32 67.19 185.99 67.56C185.66 67.93 185.32 68.26 184.99 68.52L184.97 68.51ZM199.92 63.57C199.87 63.62 199.81 63.64 199.75 63.64H197.25V72.31C197.25 72.48 197.17 72.55 197.02 72.55H195.39C195.23 72.55 195.16 72.48 195.16 72.31V55.46C195.16 55.29 195.24 55.22 195.39 55.22H197.02C197.18 55.22 197.25 55.29 197.25 55.46V61.89H199.75C199.81 61.89 199.87 61.9 199.92 61.95C199.97 62 200 62.04 200 62.1V63.38C200 63.46 199.97 63.52 199.92 63.57Z" fill="#6D6C6C"/>
</g>
<defs>
<clipPath id="clip0_1271_20027">
<rect width="200" height="72.19" fill="white" transform="translate(0 0.48999)"/>
</clipPath>
</defs>
</svg>
