<svg width="200" height="33" viewBox="0 0 200 33" fill="none" xmlns="http://www.w3.org/2000/svg">
<g id="_&#235;&#160;&#136;&#236;&#157;&#180;&#236;&#150;&#180;_1" clip-path="url(#clip0_1271_19977)">
<path id="Vector" d="M7.56 11.39H7.62C9.17 9.52997 10.79 8.90997 12.92 8.90997C17.05 8.90997 18.28 11.51 17.68 15.28L16.18 24.77H10.73L11.91 17.29C12.14 15.82 12.79 13.25 10.1 13.25C7.89 13.25 7 14.89 6.7 16.81L5.44 24.77H0L2.43 9.41997H7.88L7.57 11.39H7.56Z" fill="#003E7F"/>
<path id="Vector_2" d="M28.9201 3.51997C28.6601 5.18997 27.0601 6.56997 25.3801 6.56997C23.7001 6.56997 22.5501 5.18997 22.8101 3.51997C23.0701 1.84997 24.6701 0.469971 26.3501 0.469971C28.0301 0.469971 29.1801 1.84997 28.9201 3.51997Z" fill="#C8161D"/>
<path id="Vector_3" d="M25.2496 24.76H19.8096L22.2396 9.40997H27.6796L25.2496 24.76Z" fill="#003E7F"/>
<path id="Vector_4" d="M32.8697 32.42H27.4297L31.0597 9.40997H36.5097L32.8797 32.42H32.8697Z" fill="#003E7F"/>
<path id="Vector_5" d="M59.6502 24.76H54.2002L56.6302 9.40997H62.0802L59.6502 24.76Z" fill="#003E7F"/>
<path id="Vector_6" d="M52.4801 8.87C50.2201 8.87 48.0201 9.8 46.3001 11.3C46.3001 11.3 43.7001 13.34 43.0201 16.89C43.0101 16.95 42.9901 17.01 42.9901 17.07C42.9801 17.13 42.9801 17.19 42.9601 17.25C42.5801 19.04 40.8601 20.49 39.0401 20.49C37.2201 20.49 35.8701 18.95 36.1701 17.07C36.4601 15.2 38.2501 13.66 40.1301 13.66C41.1101 13.66 41.9401 14.09 42.4501 14.76C43.2901 12.43 44.9101 10.98 45.5001 10.5C44.3001 9.48 42.7001 8.88 40.8801 8.88C36.3801 8.88 32.1001 12.58 31.3901 17.07C30.6801 21.57 33.7901 25.26 38.2901 25.26C40.5501 25.26 42.7501 24.33 44.4701 22.83C47.1601 20.72 47.7601 17.2 47.7601 17.2C47.7601 17.15 47.7801 17.11 47.7901 17.06C47.7901 17.02 47.8001 16.97 47.8101 16.92C48.1701 15.11 49.9101 13.65 51.7301 13.65C53.5501 13.65 54.9001 15.19 54.6001 17.06C54.3101 18.93 52.5201 20.48 50.6401 20.48C49.6601 20.48 48.8401 20.05 48.3201 19.38C48.0201 20.24 47.1701 22.18 45.2701 23.64C46.4701 24.66 48.0701 25.26 49.8801 25.26C54.3801 25.26 58.6601 21.56 59.3801 17.07C60.0901 12.57 56.9801 8.88 52.4801 8.88V8.87Z" fill="url(#paint0_linear_1271_19977)"/>
<path id="Vector_7" d="M70.6201 26.14H71.8601L73.6601 29.04H73.6701L74.1301 26.14H75.3701L74.6201 30.88H73.3801L71.5801 27.98H71.5701L71.1101 30.88H69.8701L70.6201 26.14Z" fill="#717171"/>
<path id="Vector_8" d="M78.9096 30.88H77.7596L77.8196 30.52H77.8096C77.5596 30.84 77.1396 30.98 76.7596 30.98C75.7996 30.98 75.2596 30.18 75.4096 29.26C75.5496 28.34 76.3396 27.54 77.2996 27.54C77.6696 27.54 78.0396 27.68 78.2296 27.96L78.2796 27.65H79.4296L78.9196 30.88H78.9096ZM76.5896 29.27C76.5296 29.68 76.7496 29.99 77.2096 29.99C77.6696 29.99 77.9896 29.68 78.0596 29.27C78.1196 28.88 77.8996 28.54 77.4396 28.54C76.9796 28.54 76.6496 28.87 76.5896 29.27Z" fill="#717171"/>
<path id="Vector_9" d="M80.9198 30.88H79.7698L80.1298 28.6H79.7598L79.9098 27.65H80.2798L80.4398 26.68H81.5898L81.4398 27.65H82.0898L81.9398 28.6H81.2898L80.9298 30.88H80.9198Z" fill="#717171"/>
<path id="Vector_10" d="M83.0797 30.88H81.9297L82.4397 27.65H83.5897L83.0797 30.88ZM83.8597 26.41C83.7997 26.76 83.4697 27.05 83.1097 27.05C82.7497 27.05 82.5097 26.76 82.5697 26.41C82.6297 26.06 82.9597 25.77 83.3197 25.77C83.6797 25.77 83.9197 26.06 83.8597 26.41Z" fill="#717171"/>
<path id="Vector_11" d="M87.7396 29.27C87.5596 30.37 86.5596 30.99 85.5296 30.99C84.4996 30.99 83.6896 30.38 83.8596 29.27C84.0396 28.17 85.0396 27.55 86.0696 27.55C87.0996 27.55 87.9096 28.17 87.7396 29.27ZM85.0596 29.27C84.9996 29.68 85.2196 29.99 85.6796 29.99C86.1396 29.99 86.4596 29.68 86.5296 29.27C86.5896 28.88 86.3696 28.54 85.9096 28.54C85.4496 28.54 85.1196 28.87 85.0596 29.27Z" fill="#717171"/>
<path id="Vector_12" d="M89.5898 28.07H89.5998C89.9298 27.68 90.2598 27.55 90.7198 27.55C91.5898 27.55 91.8498 28.1 91.7198 28.89L91.4098 30.88H90.2598L90.5098 29.31C90.5598 29 90.6898 28.46 90.1298 28.46C89.6698 28.46 89.4798 28.8 89.4198 29.21L89.1598 30.88H88.0098L88.5198 27.65H89.6698L89.6098 28.06L89.5898 28.07Z" fill="#717171"/>
<path id="Vector_13" d="M95.6798 30.88H94.5298L94.5898 30.52H94.5798C94.3298 30.84 93.9098 30.98 93.5298 30.98C92.5798 30.98 92.0298 30.18 92.1798 29.26C92.3198 28.34 93.1098 27.54 94.0698 27.54C94.4398 27.54 94.8098 27.68 94.9998 27.96L95.0498 27.65H96.1898L95.6798 30.88ZM93.3598 29.27C93.2998 29.68 93.5198 29.99 93.9798 29.99C94.4398 29.99 94.7598 29.68 94.8298 29.27C94.8898 28.88 94.6698 28.54 94.2098 28.54C93.7498 28.54 93.4198 28.87 93.3598 29.27Z" fill="#717171"/>
<path id="Vector_14" d="M97.5904 30.88H96.4404L97.2704 25.66H98.4204L97.5904 30.88Z" fill="#717171"/>
<path id="Vector_15" d="M101.76 30.88H100.52L101.27 26.14H102.51L101.76 30.88Z" fill="#717171"/>
<path id="Vector_16" d="M104.44 30.8799H103.2L103.78 27.1799H102.76L102.92 26.1299H106.19L106.03 27.1799H105.01L104.43 30.8799H104.44Z" fill="#717171"/>
<path id="Vector_17" d="M109.3 30.88H108.06L108.81 26.14H110.05L109.3 30.88Z" fill="#717171"/>
<path id="Vector_18" d="M111.67 28.07H111.68C112.01 27.68 112.35 27.55 112.8 27.55C113.67 27.55 113.93 28.1 113.8 28.89L113.49 30.88H112.34L112.59 29.31C112.64 29 112.77 28.46 112.21 28.46C111.75 28.46 111.56 28.8 111.5 29.21L111.24 30.88H110.09L110.6 27.65H111.74L111.68 28.06L111.67 28.07Z" fill="#717171"/>
<path id="Vector_19" d="M116.72 30.52H116.71C116.46 30.84 116.04 30.98 115.66 30.98C114.71 30.98 114.16 30.18 114.31 29.26C114.45 28.34 115.24 27.54 116.2 27.54C116.57 27.54 116.94 27.68 117.13 27.96L117.49 25.65H118.64L117.81 30.87H116.66L116.72 30.51V30.52ZM115.49 29.27C115.43 29.68 115.65 29.99 116.11 29.99C116.57 29.99 116.89 29.68 116.96 29.27C117.02 28.88 116.8 28.54 116.34 28.54C115.88 28.54 115.55 28.87 115.49 29.27Z" fill="#717171"/>
<path id="Vector_20" d="M120.16 27.65L119.88 29.37C119.82 29.78 119.87 30.07 120.34 30.07C120.81 30.07 120.96 29.78 121.02 29.37L121.29 27.65H122.44L122.13 29.59C121.96 30.65 121.16 30.98 120.19 30.98C119.22 30.98 118.52 30.65 118.69 29.59L119 27.65H120.15H120.16Z" fill="#717171"/>
<path id="Vector_21" d="M125.18 28.48C125.02 28.39 124.79 28.32 124.59 28.32C124.46 28.32 124.23 28.38 124.2 28.54C124.17 28.76 124.52 28.79 124.67 28.82C125.19 28.93 125.55 29.18 125.45 29.78C125.31 30.63 124.48 30.98 123.74 30.98C123.28 30.98 122.85 30.85 122.5 30.61L123.05 29.81C123.26 29.97 123.62 30.14 123.9 30.14C124.04 30.14 124.27 30.07 124.29 29.9C124.33 29.65 123.97 29.64 123.63 29.54C123.29 29.45 122.96 29.27 123.05 28.69C123.18 27.9 123.95 27.54 124.65 27.54C125.01 27.54 125.37 27.6 125.68 27.75L125.18 28.48Z" fill="#717171"/>
<path id="Vector_22" d="M127.15 30.88H126L126.36 28.6H125.99L126.14 27.65H126.51L126.66 26.68H127.81L127.65 27.65H128.3L128.15 28.6H127.5L127.14 30.88H127.15Z" fill="#717171"/>
<path id="Vector_23" d="M129.73 28.18H129.74C130.02 27.79 130.43 27.61 130.87 27.61H131.09L130.91 28.71C130.77 28.62 130.62 28.6 130.45 28.6C129.82 28.6 129.59 29.02 129.5 29.57L129.29 30.87H128.14L128.65 27.64H129.8L129.72 28.17L129.73 28.18Z" fill="#717171"/>
<path id="Vector_24" d="M131.3 27.65H132.62L133.22 29.31L134.32 27.65H135.62L132.27 32.48H130.98L132.4 30.43L131.28 27.65H131.3Z" fill="#717171"/>
<path id="Vector_25" d="M138.3 26.14H140.19C141.21 26.14 141.84 26.61 141.66 27.7C141.48 28.82 140.8 29.31 139.73 29.31H139.03L138.78 30.88H137.55L138.3 26.14ZM139.19 28.31H139.4C139.85 28.31 140.28 28.31 140.38 27.73C140.47 27.13 140.07 27.13 139.59 27.13H139.38L139.19 28.31Z" fill="#717171"/>
<path id="Vector_26" d="M143.25 28.18H143.26C143.54 27.79 143.95 27.61 144.39 27.61H144.61L144.43 28.71C144.29 28.62 144.14 28.6 143.97 28.6C143.34 28.6 143.11 29.02 143.02 29.57L142.81 30.87H141.66L142.17 27.64H143.32L143.24 28.17L143.25 28.18Z" fill="#717171"/>
<path id="Vector_27" d="M148.32 29.27C148.14 30.37 147.14 30.99 146.11 30.99C145.08 30.99 144.27 30.38 144.44 29.27C144.62 28.17 145.62 27.55 146.66 27.55C147.7 27.55 148.5 28.17 148.33 29.27H148.32ZM145.64 29.27C145.58 29.68 145.8 29.99 146.26 29.99C146.72 29.99 147.04 29.68 147.11 29.27C147.17 28.88 146.95 28.54 146.49 28.54C146.03 28.54 145.7 28.87 145.64 29.27Z" fill="#717171"/>
<path id="Vector_28" d="M150.17 28.06H150.18C150.51 27.7 150.86 27.55 151.28 27.55C151.74 27.55 152.12 27.74 152.28 28.16C152.56 27.76 153.03 27.55 153.47 27.55C154.29 27.55 154.49 28.08 154.37 28.83L154.04 30.89H152.89L153.13 29.35C153.18 29.02 153.28 28.47 152.8 28.47C152.27 28.47 152.17 28.97 152.11 29.35L151.87 30.89H150.72L150.96 29.35C151.02 28.99 151.1 28.45 150.6 28.45C150.1 28.45 150 29 149.95 29.35L149.71 30.89H148.56L149.07 27.66H150.22L150.16 28.06H150.17Z" fill="#717171"/>
<path id="Vector_29" d="M158.7 29.27C158.52 30.37 157.52 30.99 156.49 30.99C155.46 30.99 154.65 30.38 154.82 29.27C155 28.17 156 27.55 157.03 27.55C158.06 27.55 158.87 28.17 158.7 29.27ZM156.03 29.27C155.97 29.68 156.19 29.99 156.65 29.99C157.11 29.99 157.43 29.68 157.5 29.27C157.56 28.88 157.34 28.54 156.88 28.54C156.42 28.54 156.09 28.87 156.03 29.27Z" fill="#717171"/>
<path id="Vector_30" d="M160.21 30.88H159.07L159.43 28.6H159.06L159.21 27.65H159.58L159.74 26.68H160.88L160.72 27.65H161.37L161.22 28.6H160.57L160.21 30.88Z" fill="#717171"/>
<path id="Vector_31" d="M162.37 30.88H161.22L161.73 27.65H162.88L162.37 30.88ZM163.15 26.41C163.09 26.76 162.76 27.05 162.4 27.05C162.04 27.05 161.8 26.76 161.86 26.41C161.92 26.06 162.25 25.77 162.61 25.77C162.97 25.77 163.21 26.06 163.15 26.41Z" fill="#717171"/>
<path id="Vector_32" d="M167.03 29.27C166.85 30.37 165.85 30.99 164.82 30.99C163.79 30.99 162.98 30.38 163.15 29.27C163.33 28.17 164.33 27.55 165.36 27.55C166.39 27.55 167.2 28.17 167.03 29.27ZM164.35 29.27C164.29 29.68 164.51 29.99 164.97 29.99C165.43 29.99 165.75 29.68 165.82 29.27C165.88 28.88 165.66 28.54 165.2 28.54C164.74 28.54 164.41 28.87 164.35 29.27Z" fill="#717171"/>
<path id="Vector_33" d="M168.89 28.07C169.22 27.68 169.55 27.55 170.01 27.55C170.88 27.55 171.14 28.1 171.01 28.89L170.7 30.88H169.56L169.81 29.31C169.86 29 169.99 28.46 169.43 28.46C168.97 28.46 168.78 28.8 168.72 29.21L168.46 30.88H167.32L167.83 27.65H168.98L168.91 28.06L168.89 28.07Z" fill="#717171"/>
<path id="Vector_34" d="M174.97 30.06L174.51 30.88H173.2L175.78 26.14H177.13L178.16 30.88H176.84L176.66 30.06H174.96H174.97ZM176.21 27.6H176.2L175.45 29.11H176.47L176.21 27.6Z" fill="#717171"/>
<path id="Vector_35" d="M182.1 30.56C181.88 31.93 181.12 32.48 179.93 32.48C179.19 32.48 178.26 32.1 178.29 31.25H179.58C179.59 31.36 179.66 31.44 179.76 31.49C179.86 31.54 179.97 31.57 180.07 31.57C180.68 31.57 180.87 31.17 180.95 30.65L180.98 30.5C180.64 30.79 180.32 30.94 179.88 30.94C178.94 30.94 178.41 30.23 178.55 29.29C178.7 28.35 179.5 27.54 180.48 27.54C180.86 27.54 181.18 27.67 181.36 27.99H181.37L181.42 27.65H182.57L182.11 30.56H182.1ZM179.73 29.25C179.67 29.66 179.89 29.97 180.35 29.97C180.81 29.97 181.13 29.66 181.2 29.25C181.26 28.86 181.04 28.52 180.58 28.52C180.12 28.52 179.79 28.85 179.73 29.25Z" fill="#717171"/>
<path id="Vector_36" d="M186.31 29.46H183.9C183.82 29.92 184.03 30.17 184.5 30.17C184.74 30.17 184.93 30.09 185.1 29.88H186.2C185.9 30.64 185.12 30.98 184.38 30.98C183.31 30.98 182.61 30.38 182.79 29.26C182.96 28.18 183.8 27.54 184.85 27.54C185.97 27.54 186.51 28.23 186.33 29.33L186.31 29.45V29.46ZM185.35 28.8C185.35 28.49 185.09 28.29 184.79 28.29C184.46 28.29 184.15 28.47 184.03 28.8H185.36H185.35Z" fill="#717171"/>
<path id="Vector_37" d="M188.19 28.07H188.2C188.53 27.68 188.87 27.55 189.32 27.55C190.19 27.55 190.45 28.1 190.32 28.89L190.01 30.88H188.86L189.11 29.31C189.16 29 189.29 28.46 188.73 28.46C188.27 28.46 188.08 28.8 188.02 29.21L187.76 30.88H186.61L187.12 27.65H188.27L188.2 28.06L188.19 28.07Z" fill="#717171"/>
<path id="Vector_38" d="M193.44 28.71C193.29 28.58 193.1 28.48 192.88 28.48C192.44 28.48 192.04 28.82 191.97 29.26C191.89 29.72 192.18 30.05 192.65 30.05C192.85 30.05 193.08 29.97 193.26 29.83L193.11 30.8C192.84 30.93 192.55 30.98 192.28 30.98C191.33 30.98 190.64 30.27 190.79 29.29C190.95 28.26 191.86 27.53 192.87 27.53C193.13 27.53 193.39 27.59 193.6 27.72L193.45 28.69L193.44 28.71Z" fill="#717171"/>
<path id="Vector_39" d="M193.84 27.65H195.16L195.76 29.31L196.86 27.65H198.16L194.81 32.48H193.53L194.95 30.43L193.83 27.65H193.82H193.84Z" fill="#717171"/>
<path id="Vector_40" d="M75.6101 14.46C75.2701 14.18 75.0001 13.85 74.8101 13.47C74.3001 14.06 73.6001 14.54 72.7301 14.89C72.0001 15.18 71.3001 15.34 70.6201 15.37L70.8801 13.75C71.9501 13.63 72.7701 13.3 73.3301 12.76C73.7901 12.32 74.1001 11.71 74.2601 10.94H71.4101L71.6501 9.39996H79.2401L79.0001 10.94H76.1301C76.0501 11.7 76.1701 12.3 76.5001 12.75C76.9001 13.29 77.6101 13.62 78.6301 13.74L78.4301 15.01C79.3901 15.17 80.1501 15.59 80.6901 16.26C81.3001 16.99 81.5201 17.87 81.3701 18.88C81.1901 20.03 80.6001 20.97 79.6001 21.73C78.6601 22.43 77.6401 22.78 76.5201 22.78C75.4001 22.78 74.4901 22.43 73.8001 21.73C73.0501 20.98 72.7701 20.03 72.9501 18.88C73.1001 17.92 73.5501 17.09 74.2901 16.38C74.9901 15.72 75.8001 15.28 76.7501 15.06C76.3201 14.9 75.9401 14.7 75.6201 14.45L75.6101 14.46ZM75.7701 17.25C75.2001 17.7 74.8701 18.25 74.7701 18.88C74.6701 19.51 74.8301 20.05 75.2601 20.5C75.6701 20.94 76.1801 21.16 76.8001 21.16C77.4201 21.16 78.0101 20.94 78.5601 20.5C79.1301 20.05 79.4601 19.51 79.5601 18.88C79.6601 18.24 79.5001 17.7 79.0701 17.25C78.6601 16.83 78.1401 16.62 77.5201 16.62C76.9001 16.62 76.3201 16.83 75.7801 17.25H75.7701ZM81.3201 11.49L81.6501 9.39996H83.3901L82.4401 15.4H80.7001L81.0801 13.02H79.0101L79.2501 11.48H81.3201V11.49Z" fill="#717171"/>
<path id="Vector_41" d="M96.7296 15.03C96.6696 15.44 96.5296 15.73 96.3196 15.91C96.1296 16.07 95.8596 16.15 95.4996 16.15H91.8596L91.2796 19.83H96.7696L96.5296 21.4H83.8496L84.0896 19.83H89.5796L90.1596 16.15H86.4896C86.1396 16.15 85.8996 16.07 85.7596 15.91C85.6196 15.73 85.5796 15.43 85.6496 15.03L86.5396 9.39996H88.2796L87.9996 11.18H95.6096L95.8896 9.39996H97.6296L96.7396 15.03H96.7296ZM87.4496 14.63H95.0596L95.3696 12.7H87.7596L87.4496 14.63Z" fill="#717171"/>
<path id="Vector_42" d="M106.67 14.71L106.58 15.25H112.07L111.84 16.74H108.64C108.93 17.05 109.14 17.39 109.27 17.77C109.41 18.18 109.45 18.62 109.38 19.09C109.2 20.19 108.63 21.1 107.65 21.82C106.72 22.51 105.69 22.85 104.57 22.85C103.45 22.85 102.54 22.51 101.83 21.82C101.08 21.1 100.79 20.19 100.96 19.09C101.03 18.63 101.2 18.19 101.47 17.77C101.71 17.4 102.02 17.06 102.41 16.74H99.1904L99.4204 15.25H104.89L104.98 14.71H100.98C100.63 14.71 100.39 14.63 100.25 14.45C100.1 14.26 100.06 13.95 100.12 13.53L100.77 9.40997H112.54L112.31 10.88H102.32L102.24 11.34H112.23L112 12.76H102.01L101.93 13.24H111.94L111.71 14.69H106.67V14.71ZM103.69 17.44C103.12 17.9 102.78 18.45 102.68 19.09C102.58 19.72 102.74 20.26 103.17 20.72C103.59 21.16 104.13 21.38 104.78 21.38C105.43 21.38 106 21.16 106.57 20.72C107.15 20.26 107.49 19.72 107.59 19.09C107.69 18.45 107.52 17.9 107.08 17.44C106.66 17.01 106.13 16.79 105.5 16.79C104.87 16.79 104.25 17 103.69 17.44Z" fill="#717171"/>
<path id="Vector_43" d="M120.01 9.40997C119.78 10.85 119.82 11.96 120.13 12.75C120.51 13.67 121.26 14.2 122.41 14.36L122.15 16.02C121.32 15.97 120.6 15.76 119.97 15.37C119.27 14.93 118.77 14.3 118.47 13.5C117.89 14.31 117.16 14.94 116.26 15.39C115.5 15.77 114.74 15.98 113.97 16.02L114.23 14.37C115.45 14.2 116.37 13.66 117 12.75C117.53 11.99 117.91 10.88 118.14 9.40997H120.01ZM114.63 17.64H116.37L115.92 20.46H125.48L125.24 22H114.98C114.64 22 114.39 21.92 114.25 21.75C114.1 21.57 114.06 21.29 114.12 20.88L114.63 17.64ZM125.38 9.40997H127.12L125.77 17.97H124.03L125.38 9.40997Z" fill="#717171"/>
<path id="Vector_44" d="M134.58 9.40997C134.35 10.85 134.39 11.96 134.7 12.75C135.08 13.67 135.83 14.2 136.98 14.36L136.72 16.02C135.89 15.97 135.17 15.76 134.54 15.37C133.84 14.93 133.34 14.3 133.04 13.5C132.46 14.31 131.73 14.94 130.83 15.39C130.07 15.77 129.31 15.98 128.54 16.02L128.8 14.37C130.02 14.2 130.94 13.66 131.57 12.75C132.1 11.99 132.48 10.88 132.71 9.40997H134.58ZM129.21 17.64H130.95L130.5 20.46H140.06L139.82 22H129.56C129.22 22 128.97 21.92 128.83 21.75C128.68 21.57 128.64 21.29 128.7 20.88L129.21 17.64ZM141.02 13.67L140.34 17.97H138.6L139.95 9.40997H141.69L141.26 12.11H143.03L142.78 13.68H141.01L141.02 13.67Z" fill="#717171"/>
<path id="Vector_45" d="M143.96 16.54H145.67L145.48 17.76H153.25L153.44 16.54H155.18L154.49 20.89C154.43 21.3 154.28 21.59 154.07 21.76C153.88 21.93 153.61 22.02 153.27 22.02H144.15C143.8 22.02 143.55 21.94 143.41 21.76C143.26 21.58 143.22 21.29 143.28 20.89L143.97 16.54H143.96ZM148.94 14.86C148.2 15.32 147.42 15.54 146.6 15.54C145.63 15.54 144.84 15.24 144.22 14.62C143.56 13.98 143.31 13.17 143.47 12.18C143.63 11.18 144.13 10.36 144.99 9.72998C145.8 9.13998 146.69 8.84998 147.66 8.84998C148.5 8.84998 149.21 9.07998 149.81 9.53998C150.43 10.03 150.77 10.68 150.82 11.49H154.2L154.53 9.40998H156.3L155.35 15.38H153.58L153.95 13.03H150.55C150.24 13.79 149.7 14.4 148.93 14.86H148.94ZM153.02 19.2H145.25L145.04 20.49H152.81L153.02 19.2ZM146.04 10.93C145.59 11.27 145.32 11.69 145.24 12.18C145.16 12.68 145.29 13.1 145.63 13.45C145.96 13.78 146.36 13.95 146.85 13.95C147.34 13.95 147.82 13.79 148.25 13.45C148.71 13.11 148.99 12.68 149.07 12.18C149.15 11.68 149.01 11.26 148.66 10.93C148.33 10.61 147.91 10.45 147.42 10.45C146.93 10.45 146.47 10.61 146.04 10.93Z" fill="#717171"/>
<path id="Vector_46" d="M158.36 17.64H160.1L159.65 20.46H169.21L168.97 22H158.71C158.37 22 158.12 21.92 157.98 21.75C157.83 21.57 157.79 21.29 157.85 20.88L158.36 17.64ZM166.48 10.94H163.57C163.41 11.98 163.49 12.78 163.8 13.34C164.17 13.99 164.88 14.38 165.96 14.51L165.69 16.2C165.11 16.2 164.49 16.04 163.82 15.72C162.99 15.31 162.43 14.77 162.16 14.12C161.65 14.78 160.91 15.31 159.95 15.71C159.19 16.03 158.52 16.19 157.94 16.21L158.21 14.52C159.33 14.39 160.17 14 160.73 13.35C161.19 12.81 161.52 12.01 161.71 10.95H158.86L159.1 9.40997H166.72L166.48 10.95V10.94ZM169.11 9.40997H170.85L169.5 17.97H167.76L169.11 9.40997Z" fill="#717171"/>
<path id="Vector_47" d="M172.15 16.09L172.39 14.55H175.73C175.54 14.3 175.41 14.03 175.35 13.73C175.27 13.43 175.27 13.11 175.32 12.78C175.37 12.46 175.48 12.15 175.63 11.86C175.78 11.59 175.98 11.33 176.22 11.08H173.4L173.63 9.66997H178.55L178.74 8.46997H180.63L180.44 9.66997H185.41L185.18 11.08H182.21C182.39 11.31 182.52 11.56 182.6 11.83C182.68 12.13 182.69 12.45 182.64 12.78C182.58 13.12 182.46 13.44 182.26 13.75C182.08 14.04 181.85 14.31 181.56 14.55H185.05L184.81 16.09H181.65C181.99 16.43 182.24 16.82 182.38 17.25C182.54 17.73 182.57 18.24 182.49 18.79C182.3 19.97 181.68 20.95 180.63 21.72C179.65 22.45 178.57 22.81 177.4 22.81C176.23 22.81 175.19 22.45 174.42 21.72C173.6 20.95 173.29 19.97 173.47 18.79C173.56 18.26 173.75 17.76 174.06 17.29C174.35 16.85 174.73 16.46 175.2 16.1H172.12H172.13L172.15 16.09ZM176.45 16.9C175.81 17.41 175.43 18.02 175.32 18.71C175.21 19.41 175.4 20.01 175.87 20.51C176.33 21 176.92 21.24 177.63 21.24C178.34 21.24 179 21 179.6 20.51C180.24 20.01 180.62 19.41 180.72 18.71C180.83 18.01 180.64 17.41 180.17 16.9C179.72 16.42 179.14 16.18 178.43 16.18C177.72 16.18 177.06 16.42 176.44 16.9H176.45ZM177.82 11.61C177.41 11.93 177.17 12.33 177.09 12.81C177.01 13.28 177.13 13.68 177.44 14.01C177.76 14.35 178.19 14.52 178.73 14.52C179.27 14.52 179.73 14.35 180.15 14.01C180.56 13.67 180.81 13.27 180.88 12.81C180.96 12.33 180.84 11.93 180.53 11.61C180.22 11.3 179.8 11.15 179.26 11.15C178.72 11.15 178.23 11.31 177.82 11.61Z" fill="#717171"/>
<path id="Vector_48" d="M190.93 15.7H186.8L187.04 14.16H188.8C188.51 13.89 188.29 13.58 188.15 13.23C188.02 12.85 187.99 12.44 188.06 12C188.21 11.04 188.71 10.26 189.57 9.63998C190.37 9.06998 191.26 8.78998 192.25 8.78998C193.24 8.78998 193.96 9.06998 194.55 9.63998C195.2 10.26 195.45 11.04 195.3 12C195.23 12.44 195.07 12.85 194.8 13.23C194.56 13.58 194.25 13.89 193.88 14.16H195.91L195.67 15.7H192.66L192.19 18.65H190.45L190.92 15.7H190.93ZM187.59 17.18H189.3L188.78 20.45H198.37L198.13 21.99H187.87C187.53 21.99 187.28 21.91 187.14 21.74C186.99 21.56 186.95 21.27 187.01 20.86L187.59 17.19V17.18ZM190.51 10.71C190.08 11.07 189.83 11.49 189.76 11.98C189.68 12.45 189.8 12.87 190.11 13.24C190.44 13.61 190.87 13.79 191.4 13.79C191.93 13.79 192.38 13.61 192.82 13.24C193.26 12.87 193.51 12.45 193.58 11.98C193.66 11.49 193.54 11.06 193.22 10.71C192.9 10.35 192.49 10.17 191.98 10.17C191.47 10.17 190.96 10.35 190.53 10.71H190.51ZM197.1 16.74L198.26 9.40998H200L198.43 19.32H196.69L196.86 18.24H193.88L194.12 16.74H197.11H197.1Z" fill="#717171"/>
</g>
<defs>
<linearGradient id="paint0_linear_1271_19977" x1="31.9701" y1="15.86" x2="59.1901" y2="18.31" gradientUnits="userSpaceOnUse">
<stop offset="0.15" stop-color="#003E7F"/>
<stop offset="0.52" stop-color="#056EB4"/>
<stop offset="0.87" stop-color="#003E7F"/>
</linearGradient>
<clipPath id="clip0_1271_19977">
<rect width="200" height="32.02" fill="white" transform="translate(0 0.469971)"/>
</clipPath>
</defs>
</svg>
