<svg width="200" height="34" viewBox="0 0 200 34" fill="none" xmlns="http://www.w3.org/2000/svg">
<g id="_&#235;&#160;&#136;&#236;&#157;&#180;&#236;&#150;&#180;_1" clip-path="url(#clip0_1271_19894)">
<path id="Vector" d="M200 23.32H176.75V26.37H200V23.32Z" fill="#152749"/>
<path id="Vector_2" d="M150.31 23.31H126.97V26.38H150.31V23.31Z" fill="#152749"/>
<path id="Vector_3" d="M64.8899 25.87C61.7099 25.87 59.8099 25.09 59.8099 24.33C59.8099 23.36 61.8999 22.69 64.8899 22.69C67.8799 22.69 70.0599 23.37 70.0599 24.33C70.0599 25.08 68.1199 25.87 64.8899 25.87ZM64.8899 19.62C58.9399 19.62 55.3799 21.36 55.3799 24.28C55.3799 27.2 59.0499 28.94 64.9599 28.94C70.8699 28.94 74.5099 27.11 74.5099 24.28C74.5099 21.45 70.8299 19.62 64.9099 19.62" fill="#152749"/>
<path id="Vector_4" d="M98.6503 5.87002V5.71002H80.2003V8.75002H94.3403C94.3403 10.09 94.1103 12.83 93.7703 14.11H78.3203V17.15H87.1103V19.92H79.7203V22.99H94.2503V28.94H98.5703V19.93H91.4603V17.16H100.25V14.12H97.9603C98.4703 12.12 98.7403 8.87002 98.6703 5.87002H98.6503Z" fill="#152749"/>
<path id="Vector_5" d="M67.1597 15.46V14.03H74.3097V10.99H60.0797V8.80002H74.2997V5.71002H55.7597V14.03H62.7997V15.46H53.9697V18.5H75.8797V15.46H67.1497H67.1597Z" fill="#152749"/>
<path id="Vector_6" d="M124.05 5.14001H119.91V28.94H124.05V5.14001Z" fill="#152749"/>
<path id="Vector_7" d="M118.37 20.65C113.37 17.7 112.35 14.08 112.35 9.54003V6.87003H108.07V9.54003C108.07 14.08 107.05 17.71 102.05 20.65L101.86 20.76L104.53 23.68L104.57 23.72L104.69 23.66C106.68 22.67 109.12 20.13 110.21 17.95C111.29 20.14 113.73 22.68 115.73 23.66L115.85 23.72L118.56 20.75L118.37 20.64V20.65Z" fill="#152749"/>
<path id="Vector_8" d="M183.15 14.05C181.4 15.45 179.06 16.41 176.74 16.68L178.68 20.12C180.53 19.75 182.56 18.93 184.23 17.86C186.24 16.57 187.68 15.51 188.37 13.82C189.06 15.5 190.49 16.57 192.51 17.86C194.19 18.93 196.21 19.75 198.07 20.12L199.99 16.7V16.68C197.68 16.41 195.35 15.45 193.59 14.05C191.55 12.42 190.81 10.67 190.6 9.26002H198.19V6.24002H178.55V9.26002H186.14C185.93 10.67 185.19 12.43 183.15 14.05Z" fill="#152749"/>
<path id="Vector_9" d="M143.88 13.1C141.34 11.08 140.81 8.84001 140.81 7.32001V5.76001H136.48V7.32001C136.48 8.83001 135.95 11.07 133.41 13.1C131.65 14.5 129.3 15.47 126.98 15.74V15.76L128.92 19.19C130.79 18.82 132.81 18 134.49 16.92C136.51 15.63 137.95 14.56 138.64 12.87C139.34 14.57 140.77 15.63 142.79 16.92C144.47 18 146.5 18.82 148.36 19.19L150.3 15.74C147.97 15.47 145.63 14.51 143.87 13.1" fill="#152749"/>
<path id="Vector_10" d="M163.26 17.93V15.13L163.14 15.15C162 15.37 159.6 15.54 157.79 15.54C157.44 15.54 157.09 15.53 156.73 15.5V13.81H161.82V11.01H156.73V9.13003H162.64V6.31003H152.85V18.33L153.24 18.35C154.25 18.4 155.21 18.44 156.19 18.44C159.18 18.44 161.81 18.17 163.26 17.93Z" fill="#152749"/>
<path id="Vector_11" d="M165.14 19.04H168.73V5.71002H165.14V10.42H163.26V13.75H165.14V19.04Z" fill="#152749"/>
<path id="Vector_12" d="M173.72 5.14001H170.13V19.74H173.72V5.14001Z" fill="#152749"/>
<path id="Vector_13" d="M159.86 23.46H169.61V26.09H159.86V23.46ZM155.79 28.86H173.72V20.71H155.79V28.86Z" fill="#152749"/>
<path id="Vector_14" d="M45.74 5.71002H37.48L26.21 18.21L35.95 29.04H44.21L34.47 18.22L45.74 5.71002Z" fill="#152749"/>
<path id="Vector_15" d="M12.0703 33.93H19.7903L28.5203 24.24L24.6603 19.95L12.0703 33.93Z" fill="#BA202A"/>
<path id="Vector_16" d="M31.0398 0.830017L20.7998 12.2L24.6498 16.48L38.7598 0.830017H31.0398Z" fill="#BA202A"/>
<path id="Vector_17" d="M19.68 15.41C19.66 15.29 19.64 15.18 19.62 15.06C19.44 14.21 19.17 13.39 18.82 12.61C18.77 12.49 18.71 12.38 18.66 12.26C16.76 8.42001 12.81 5.77001 8.34 5.73001H0V12.26H8.38C9.04 12.26 9.66 12.39 10.23 12.61C11.41 13.07 12.37 13.95 12.94 15.06C13 15.18 13.06 15.29 13.11 15.41C13.36 16.01 13.5 16.68 13.5 17.38C13.5 19.56 12.14 21.4 10.23 22.15C9.66 22.37 9.03 22.5 8.38 22.5H5.74V15.41H0.01V29.04H8.59C12.95 28.89 16.78 26.26 18.65 22.49C18.71 22.37 18.76 22.26 18.81 22.14C19.47 20.68 19.84 19.07 19.84 17.38C19.84 16.71 19.78 16.05 19.67 15.41H19.68Z" fill="#152749"/>
</g>
<defs>
<clipPath id="clip0_1271_19894">
<rect width="200" height="33.1" fill="white" transform="translate(0 0.830017)"/>
</clipPath>
</defs>
</svg>
