<svg width="200" height="86" viewBox="0 0 200 86" fill="none" xmlns="http://www.w3.org/2000/svg">
<g id="_&#235;&#160;&#136;&#236;&#157;&#180;&#236;&#150;&#180;_1" clip-path="url(#clip0_1271_19860)">
<path id="Vector" d="M194.37 0.910004H181.28V34.71H127.79V0.910004H114.7C111.61 0.910004 109.09 3.89 109.09 7.58V79C109.09 82.67 111.6 85.67 114.7 85.67H127.79V49.38H181.28V85.67H194.37C197.47 85.67 200 82.66 200 79V7.58C200 3.89 197.51 0.910004 194.37 0.910004Z" fill="#0958A6"/>
<path id="Vector_2" d="M87.26 0.910004H74.17V65.81L34.82 13.97C28.28 6.4 23.78 0.910004 13.34 0.910004H0V79C0 82.67 2.51 85.67 5.64 85.67H18.72V20.47L58.31 71.96C64.99 79.7 70.96 85.68 80.65 85.68H92.88V7.58C92.88 3.89 90.37 0.910004 87.27 0.910004H87.25H87.26Z" fill="#0958A6"/>
</g>
<defs>
<clipPath id="clip0_1271_19860">
<rect width="200" height="84.77" fill="white" transform="translate(0 0.910004)"/>
</clipPath>
</defs>
</svg>
