<svg width="200" height="122" viewBox="0 0 200 122" fill="none" xmlns="http://www.w3.org/2000/svg">
<g id="_&#235;&#160;&#136;&#236;&#157;&#180;&#236;&#150;&#180;_1" clip-path="url(#clip0_1271_20045)">
<g id="Group">
<path id="Vector" d="M130.71 40.1299C130.71 40.1299 130.72 40.1999 130.75 40.2299C130.78 40.2599 130.81 40.2699 130.85 40.2699H131.22C131.22 40.2699 131.3 40.2599 131.32 40.2299C131.35 40.1999 131.36 40.1699 131.36 40.1299V34.8099H133.19C133.19 34.8099 133.27 34.7999 133.3 34.7699C133.33 34.7399 133.35 34.7099 133.35 34.6699V34.3499C133.35 34.3499 133.33 34.2699 133.3 34.2399C133.27 34.2099 133.23 34.1899 133.19 34.1899H128.88C128.88 34.1899 128.8 34.2099 128.78 34.2399C128.75 34.2699 128.74 34.3099 128.74 34.3499V34.6699C128.74 34.6699 128.75 34.7499 128.78 34.7699C128.81 34.7999 128.84 34.8099 128.88 34.8099H130.72V40.1299H130.71Z" fill="#707070"/>
<path id="Vector_2" d="M137.86 34.8099C137.86 34.8099 137.94 34.7999 137.97 34.7699C138 34.7399 138.02 34.7099 138.02 34.6699V34.3499C138.02 34.3499 138 34.2699 137.97 34.2399C137.94 34.2099 137.9 34.1899 137.86 34.1899H134.4C134.4 34.1899 134.33 34.2099 134.3 34.2399C134.27 34.2699 134.26 34.3099 134.26 34.3499V40.1399C134.26 40.1399 134.27 40.2099 134.3 40.2399C134.33 40.2699 134.36 40.2799 134.4 40.2799H137.86C137.86 40.2799 137.94 40.2699 137.97 40.2399C138 40.2099 138.02 40.1799 138.02 40.1399V39.8099C138.02 39.8099 138 39.7399 137.97 39.7099C137.94 39.6799 137.9 39.6599 137.86 39.6599H134.92V37.5099H137.28C137.28 37.5099 137.36 37.4999 137.38 37.4699C137.41 37.4399 137.42 37.4099 137.42 37.3699V37.0499C137.42 37.0499 137.41 36.9699 137.38 36.9499C137.35 36.9199 137.32 36.9099 137.28 36.9099H134.92V34.8299H137.86V34.8099Z" fill="#707070"/>
<path id="Vector_3" d="M140.161 34.26C139.891 34.37 139.651 34.53 139.451 34.74C139.251 34.95 139.091 35.2 138.981 35.5C138.871 35.8 138.811 36.12 138.811 36.47V37.99C138.811 38.34 138.871 38.66 138.981 38.95C139.091 39.24 139.251 39.49 139.461 39.7C139.671 39.91 139.911 40.07 140.181 40.18C140.451 40.29 140.751 40.35 141.051 40.35C141.351 40.35 141.631 40.3 141.901 40.19C142.161 40.08 142.391 39.94 142.581 39.75C142.771 39.56 142.921 39.34 143.031 39.1C143.141 38.85 143.201 38.6 143.221 38.33C143.221 38.3 143.221 38.28 143.191 38.26C143.171 38.24 143.141 38.23 143.121 38.23H142.661C142.601 38.23 142.561 38.27 142.551 38.34C142.501 38.76 142.351 39.1 142.081 39.35C141.811 39.61 141.471 39.74 141.051 39.74C140.781 39.74 140.541 39.68 140.331 39.57C140.121 39.46 139.961 39.32 139.831 39.15C139.701 38.98 139.611 38.79 139.561 38.59C139.501 38.38 139.481 38.18 139.481 37.99V36.48C139.481 36.21 139.521 35.96 139.611 35.71C139.701 35.46 139.831 35.26 140.011 35.11C140.191 34.96 140.361 34.85 140.541 34.8C140.721 34.75 140.881 34.72 141.041 34.72C141.351 34.72 141.621 34.79 141.841 34.94C142.071 35.09 142.241 35.26 142.341 35.47C142.441 35.68 142.511 35.87 142.541 36.04C142.561 36.13 142.601 36.18 142.651 36.18H143.091C143.181 36.18 143.221 36.13 143.211 36.04C143.161 35.64 143.031 35.29 142.821 35C142.611 34.71 142.351 34.48 142.051 34.33C141.751 34.18 141.401 34.1 141.031 34.1C140.721 34.1 140.421 34.15 140.151 34.27L140.161 34.26Z" fill="#707070"/>
<path id="Vector_4" d="M148.11 40.2299C148.11 40.2299 148.17 40.2699 148.21 40.2699H148.58C148.58 40.2699 148.66 40.2599 148.69 40.2299C148.72 40.1999 148.74 40.1699 148.74 40.1299V34.3399C148.74 34.3399 148.72 34.2599 148.69 34.2299C148.66 34.1999 148.62 34.1799 148.58 34.1799H148.21C148.21 34.1799 148.14 34.1999 148.11 34.2299C148.08 34.2599 148.07 34.2999 148.07 34.3399V36.8499H145.12V34.3399C145.12 34.3399 145.1 34.2599 145.07 34.2299C145.04 34.1999 145 34.1799 144.96 34.1799H144.59C144.59 34.1799 144.52 34.1999 144.49 34.2299C144.46 34.2599 144.45 34.2999 144.45 34.3399V40.1299C144.45 40.1299 144.46 40.1999 144.49 40.2299C144.52 40.2599 144.55 40.2699 144.59 40.2699H144.96C144.96 40.2699 145.04 40.2599 145.07 40.2299C145.1 40.1999 145.12 40.1699 145.12 40.1299V37.4599H148.07V40.1299C148.07 40.1299 148.08 40.1999 148.11 40.2299Z" fill="#707070"/>
<path id="Vector_5" d="M129.71 44.62C129.71 44.62 129.64 44.64 129.61 44.67C129.58 44.7 129.57 44.74 129.57 44.78V50.57C129.57 50.57 129.58 50.64 129.61 50.67C129.64 50.7 129.67 50.71 129.71 50.71H130.08C130.08 50.71 130.16 50.7 130.19 50.67C130.22 50.64 130.24 50.61 130.24 50.57V44.78C130.24 44.78 130.22 44.7 130.19 44.67C130.16 44.64 130.12 44.62 130.08 44.62H129.71Z" fill="#707070"/>
<path id="Vector_6" d="M135.581 44.62C135.581 44.62 135.511 44.64 135.481 44.67C135.451 44.7 135.441 44.74 135.441 44.78V49.47L132.461 44.75C132.411 44.67 132.351 44.63 132.291 44.63H131.861C131.861 44.63 131.791 44.65 131.761 44.68C131.731 44.71 131.721 44.75 131.721 44.79V50.58C131.721 50.58 131.731 50.65 131.761 50.68C131.791 50.71 131.821 50.72 131.861 50.72H132.221C132.221 50.72 132.301 50.71 132.321 50.68C132.351 50.65 132.361 50.62 132.361 50.58V45.74L135.411 50.56C135.471 50.67 135.551 50.73 135.641 50.73H135.941C135.941 50.73 136.021 50.72 136.041 50.69C136.071 50.66 136.081 50.63 136.081 50.59V44.8C136.081 44.8 136.071 44.72 136.041 44.69C136.011 44.66 135.981 44.64 135.941 44.64H135.581V44.62Z" fill="#707070"/>
<path id="Vector_7" d="M140.451 50.6399C140.711 50.5299 140.941 50.3899 141.131 50.1999C141.321 50.0099 141.471 49.7899 141.581 49.5499C141.691 49.2999 141.751 49.0499 141.771 48.7799C141.771 48.7499 141.771 48.7299 141.741 48.7099C141.721 48.6899 141.691 48.6799 141.671 48.6799H141.211C141.151 48.6799 141.111 48.7199 141.101 48.7899C141.051 49.2099 140.901 49.5499 140.631 49.7999C140.361 50.0599 140.021 50.1899 139.601 50.1899C139.331 50.1899 139.091 50.1299 138.881 50.0199C138.671 49.9099 138.511 49.7699 138.381 49.5999C138.251 49.4299 138.161 49.2399 138.111 49.0399C138.051 48.8299 138.031 48.6299 138.031 48.4399V46.9299C138.031 46.6599 138.071 46.4099 138.161 46.1599C138.251 45.9099 138.381 45.7099 138.561 45.5599C138.741 45.4099 138.911 45.2999 139.091 45.2499C139.271 45.1999 139.431 45.1699 139.591 45.1699C139.901 45.1699 140.171 45.2399 140.391 45.3899C140.621 45.5399 140.791 45.7099 140.891 45.9199C140.991 46.1299 141.061 46.3199 141.091 46.4899C141.111 46.5799 141.151 46.6299 141.201 46.6299H141.641C141.731 46.6299 141.771 46.5799 141.761 46.4899C141.711 46.0899 141.581 45.7399 141.371 45.4499C141.161 45.1599 140.901 44.9299 140.601 44.7799C140.301 44.6299 139.951 44.5499 139.581 44.5499C139.271 44.5499 138.971 44.5999 138.701 44.7199C138.431 44.8299 138.191 44.9899 137.991 45.1999C137.791 45.4099 137.631 45.6599 137.521 45.9599C137.411 46.2599 137.351 46.5799 137.351 46.9299V48.4499C137.351 48.7999 137.411 49.1199 137.521 49.4099C137.631 49.6999 137.791 49.9499 138.001 50.1599C138.211 50.3699 138.451 50.5299 138.721 50.6399C138.991 50.7499 139.291 50.8099 139.591 50.8099C139.891 50.8099 140.171 50.7599 140.441 50.6499L140.451 50.6399Z" fill="#707070"/>
<path id="Vector_8" d="M146.461 50.31C146.621 50.17 146.751 50.01 146.861 49.83C146.971 49.64 147.061 49.43 147.121 49.2C147.181 48.97 147.211 48.72 147.211 48.46V44.79C147.211 44.79 147.201 44.71 147.171 44.68C147.141 44.65 147.111 44.63 147.071 44.63H146.701C146.701 44.63 146.621 44.65 146.601 44.68C146.571 44.71 146.561 44.75 146.561 44.79V48.46C146.561 48.8 146.511 49.08 146.411 49.31C146.311 49.54 146.191 49.72 146.041 49.85C145.891 49.98 145.741 50.07 145.571 50.12C145.401 50.17 145.241 50.19 145.081 50.19C144.811 50.19 144.581 50.14 144.391 50.03C144.201 49.92 144.041 49.79 143.921 49.62C143.801 49.45 143.721 49.27 143.671 49.06C143.621 48.85 143.601 48.65 143.601 48.46V44.79C143.601 44.79 143.581 44.71 143.551 44.68C143.521 44.65 143.481 44.63 143.441 44.63H143.071C143.071 44.63 143.001 44.65 142.971 44.68C142.941 44.71 142.931 44.75 142.931 44.79V48.46C142.931 48.81 142.991 49.15 143.111 49.48C143.231 49.81 143.411 50.08 143.641 50.28C143.881 50.49 144.121 50.63 144.361 50.7C144.601 50.77 144.841 50.81 145.061 50.81C145.371 50.81 145.641 50.76 145.871 50.67C146.101 50.57 146.301 50.46 146.451 50.32L146.461 50.31Z" fill="#707070"/>
<path id="Vector_9" d="M152.62 50C152.79 49.76 152.87 49.46 152.87 49.1V48.99C152.87 48.75 152.82 48.53 152.73 48.32C152.64 48.11 152.51 47.95 152.36 47.83C152.21 47.71 152.06 47.62 151.92 47.56C152.45 47.29 152.72 46.88 152.72 46.31V46.17C152.72 45.85 152.65 45.57 152.51 45.35C152.37 45.13 152.16 44.95 151.88 44.82C151.6 44.69 151.24 44.63 150.81 44.63H148.75C148.75 44.63 148.68 44.65 148.65 44.68C148.62 44.71 148.61 44.75 148.61 44.79V50.58C148.61 50.58 148.62 50.65 148.65 50.68C148.68 50.71 148.71 50.72 148.75 50.72H150.84C151.27 50.72 151.63 50.66 151.93 50.54C152.23 50.42 152.46 50.24 152.63 50H152.62ZM149.26 45.25H150.77C151.62 45.25 152.05 45.56 152.05 46.19V46.32C152.05 46.95 151.64 47.26 150.83 47.26H149.26V45.25ZM149.26 50.09V47.87H150.86C151.13 47.87 151.36 47.91 151.57 47.99C151.78 48.07 151.94 48.19 152.05 48.35C152.16 48.51 152.22 48.72 152.22 48.96V49.06C152.22 49.74 151.77 50.09 150.86 50.09H149.26Z" fill="#707070"/>
<path id="Vector_10" d="M153.5 50.61C153.5 50.61 153.51 50.66 153.53 50.68C153.55 50.7 153.57 50.71 153.6 50.71H154.03C154.09 50.71 154.14 50.68 154.16 50.62L154.7 49.09H157.34L157.9 50.62C157.92 50.68 157.96 50.71 158.04 50.71H158.48C158.48 50.71 158.55 50.7 158.56 50.67C158.57 50.64 158.58 50.63 158.58 50.61C158.58 50.58 158.57 50.53 158.55 50.49L156.45 44.75C156.42 44.66 156.36 44.62 156.29 44.62H155.79C155.71 44.62 155.66 44.67 155.62 44.76L153.56 50.44L153.51 50.61H153.5ZM156.01 45.39L157.11 48.49H154.91L156.01 45.39Z" fill="#707070"/>
<path id="Vector_11" d="M161.591 45.25H163.421C163.421 45.25 163.501 45.24 163.531 45.21C163.561 45.18 163.581 45.15 163.581 45.11V44.79C163.581 44.79 163.561 44.71 163.531 44.68C163.501 44.65 163.461 44.63 163.421 44.63H159.111C159.111 44.63 159.031 44.65 159.011 44.68C158.981 44.71 158.971 44.75 158.971 44.79V45.11C158.971 45.11 158.981 45.19 159.011 45.21C159.041 45.24 159.071 45.25 159.111 45.25H160.951V50.57C160.951 50.57 160.961 50.64 160.991 50.67C161.021 50.7 161.051 50.71 161.091 50.71H161.461C161.461 50.71 161.541 50.7 161.561 50.67C161.591 50.64 161.601 50.61 161.601 50.57V45.25H161.591Z" fill="#707070"/>
<path id="Vector_12" d="M168.351 49.3899C168.461 49.0999 168.521 48.7799 168.521 48.4299V46.9199C168.521 46.5699 168.461 46.2499 168.351 45.9499C168.241 45.6499 168.081 45.3999 167.881 45.1899C167.681 44.9799 167.441 44.8199 167.161 44.7099C166.881 44.5999 166.591 44.5399 166.291 44.5399C165.991 44.5399 165.671 44.5999 165.361 44.7299C165.051 44.8599 164.801 45.0499 164.591 45.3099C164.381 45.5699 164.241 45.8399 164.171 46.1099C164.091 46.3899 164.061 46.6499 164.061 46.9099V48.4199C164.061 48.7699 164.121 49.0899 164.231 49.3799C164.341 49.6699 164.501 49.9199 164.711 50.1299C164.921 50.3399 165.161 50.4999 165.431 50.6099C165.701 50.7199 166.001 50.7799 166.301 50.7799C166.601 50.7799 166.901 50.7199 167.171 50.6099C167.451 50.4999 167.681 50.3399 167.881 50.1299C168.081 49.9199 168.241 49.6699 168.351 49.3799V49.3899ZM167.861 48.4299C167.861 48.6999 167.811 48.9499 167.721 49.1999C167.631 49.4499 167.491 49.6499 167.321 49.7999C167.141 49.9499 166.971 50.0499 166.791 50.0999C166.621 50.1499 166.451 50.1799 166.291 50.1799C166.021 50.1799 165.781 50.1199 165.571 50.0099C165.361 49.8999 165.201 49.7599 165.071 49.5899C164.941 49.4199 164.851 49.2299 164.801 49.0299C164.741 48.8199 164.721 48.6199 164.721 48.4299V46.9299C164.721 46.6599 164.761 46.4199 164.841 46.1899C164.921 45.9699 165.031 45.7799 165.171 45.6299C165.311 45.4799 165.481 45.3599 165.671 45.2799C165.861 45.1999 166.061 45.1599 166.281 45.1599C166.501 45.1599 166.701 45.1999 166.891 45.2799C167.081 45.3599 167.251 45.4799 167.391 45.6299C167.531 45.7799 167.651 45.9699 167.731 46.1899C167.811 46.4099 167.851 46.6599 167.851 46.9299V48.4299H167.861Z" fill="#707070"/>
<path id="Vector_13" d="M169.84 44.67C169.84 44.67 169.8 44.74 169.8 44.78V50.57C169.8 50.57 169.81 50.64 169.84 50.67C169.87 50.7 169.9 50.71 169.94 50.71H170.31C170.31 50.71 170.39 50.7 170.42 50.67C170.45 50.64 170.47 50.61 170.47 50.57V48.25H171.93L173.15 50.6C173.19 50.68 173.25 50.71 173.32 50.71H173.8C173.8 50.71 173.88 50.7 173.89 50.67C173.9 50.64 173.91 50.63 173.91 50.61C173.91 50.59 173.9 50.55 173.87 50.49L172.62 48.14C172.89 48.07 173.13 47.96 173.34 47.8C173.55 47.64 173.7 47.45 173.79 47.21C173.88 46.98 173.93 46.74 173.93 46.5V46.37C173.93 45.81 173.76 45.38 173.42 45.07C173.08 44.77 172.62 44.62 172.05 44.62H169.97C169.97 44.62 169.9 44.64 169.87 44.67H169.84ZM170.46 45.25H171.99C172.24 45.25 172.46 45.29 172.65 45.37C172.84 45.45 172.98 45.58 173.08 45.74C173.18 45.9 173.23 46.12 173.23 46.37V46.51C173.23 46.78 173.16 47 173.02 47.18C172.88 47.36 172.71 47.48 172.52 47.54C172.32 47.6 172.15 47.63 171.99 47.63H170.46V45.25Z" fill="#707070"/>
<path id="Vector_14" d="M131.51 55.0599H129.43C129.43 55.0599 129.36 55.0799 129.33 55.1099C129.3 55.1399 129.29 55.1799 129.29 55.2199V61.0099C129.29 61.0099 129.3 61.0799 129.33 61.1099C129.36 61.1399 129.39 61.1499 129.43 61.1499H129.8C129.8 61.1499 129.88 61.1399 129.91 61.1099C129.94 61.0799 129.96 61.0499 129.96 61.0099V58.8599H131.52C132.08 58.8599 132.54 58.6899 132.88 58.3599C133.22 58.0299 133.4 57.5799 133.4 57.0099V56.8399C133.4 56.2799 133.23 55.8399 132.89 55.5299C132.55 55.2199 132.09 55.0599 131.52 55.0599H131.51ZM132.73 57.0199C132.73 57.3199 132.66 57.5699 132.52 57.7599C132.38 57.9499 132.21 58.0799 132.02 58.1399C131.82 58.1999 131.65 58.2399 131.49 58.2399H129.96V55.6799H131.49C131.74 55.6799 131.96 55.7199 132.15 55.8099C132.34 55.8999 132.48 56.0299 132.58 56.1999C132.68 56.3699 132.73 56.5799 132.73 56.8399V57.0199Z" fill="#707070"/>
<path id="Vector_15" d="M138.07 55.5099C137.73 55.2099 137.27 55.0599 136.7 55.0599H134.62C134.62 55.0599 134.55 55.0799 134.52 55.1099C134.49 55.1399 134.48 55.1799 134.48 55.2199V61.0099C134.48 61.0099 134.49 61.0799 134.52 61.1099C134.55 61.1399 134.58 61.1499 134.62 61.1499H134.99C134.99 61.1499 135.07 61.1399 135.1 61.1099C135.13 61.0799 135.15 61.0499 135.15 61.0099V58.6899H136.61L137.83 61.0399C137.87 61.1199 137.93 61.1499 138 61.1499H138.48C138.48 61.1499 138.56 61.1399 138.57 61.1099C138.58 61.0799 138.59 61.0699 138.59 61.0499C138.59 61.0299 138.58 60.9899 138.55 60.9299L137.3 58.5799C137.57 58.5099 137.81 58.3999 138.02 58.2399C138.23 58.0799 138.38 57.8899 138.47 57.6499C138.56 57.4199 138.61 57.1799 138.61 56.9399V56.8099C138.61 56.2499 138.44 55.8199 138.1 55.5099H138.07ZM137.92 56.9599C137.92 57.2299 137.85 57.4499 137.71 57.6299C137.57 57.8099 137.4 57.9299 137.21 57.9899C137.01 58.0499 136.84 58.0799 136.68 58.0799H135.15V55.6999H136.68C136.93 55.6999 137.15 55.7399 137.34 55.8199C137.53 55.8999 137.67 56.0299 137.77 56.1899C137.87 56.3499 137.92 56.5699 137.92 56.8199V56.9599Z" fill="#707070"/>
<path id="Vector_16" d="M143.4 55.62C143.2 55.41 142.96 55.25 142.68 55.14C142.4 55.03 142.11 54.97 141.81 54.97C141.51 54.97 141.19 55.03 140.88 55.16C140.57 55.29 140.32 55.48 140.11 55.74C139.9 56 139.76 56.27 139.69 56.54C139.61 56.82 139.58 57.08 139.58 57.34V58.85C139.58 59.2 139.64 59.52 139.75 59.81C139.86 60.1 140.02 60.35 140.23 60.56C140.44 60.77 140.68 60.93 140.95 61.04C141.22 61.15 141.52 61.21 141.82 61.21C142.12 61.21 142.42 61.15 142.69 61.04C142.97 60.93 143.2 60.77 143.4 60.56C143.6 60.35 143.76 60.1 143.87 59.81C143.98 59.52 144.04 59.2 144.04 58.85V57.34C144.04 56.99 143.98 56.67 143.87 56.37C143.76 56.07 143.6 55.82 143.4 55.61V55.62ZM143.38 58.87C143.38 59.14 143.33 59.39 143.24 59.64C143.15 59.89 143.01 60.09 142.84 60.24C142.66 60.39 142.49 60.49 142.31 60.54C142.14 60.59 141.97 60.62 141.81 60.62C141.54 60.62 141.3 60.56 141.09 60.45C140.88 60.34 140.72 60.2 140.59 60.03C140.46 59.86 140.37 59.67 140.32 59.47C140.26 59.26 140.24 59.06 140.24 58.87V57.37C140.24 57.1 140.28 56.86 140.36 56.63C140.44 56.41 140.55 56.22 140.69 56.07C140.83 55.92 141 55.8 141.19 55.72C141.38 55.64 141.58 55.6 141.8 55.6C142.02 55.6 142.22 55.64 142.41 55.72C142.6 55.8 142.77 55.92 142.91 56.07C143.05 56.22 143.17 56.41 143.25 56.63C143.33 56.85 143.37 57.1 143.37 57.37V58.87H143.38Z" fill="#707070"/>
<path id="Vector_17" d="M147.34 61.2299C147.59 61.2299 147.83 61.1899 148.06 61.0999C148.29 61.0099 148.48 60.9 148.62 60.77C148.76 60.64 148.87 60.5099 148.94 60.3899V61C148.94 61 148.95 61.0699 148.98 61.0999C149.01 61.1299 149.04 61.1399 149.08 61.1399H149.39C149.39 61.1399 149.47 61.1299 149.49 61.0999C149.52 61.0699 149.53 61.04 149.53 61V58.2C149.53 58.2 149.52 58.1199 149.49 58.0999C149.46 58.0699 149.43 58.06 149.39 58.06H147.41C147.41 58.06 147.33 58.0699 147.31 58.0999C147.28 58.1299 147.27 58.16 147.27 58.2V58.51C147.27 58.51 147.28 58.58 147.31 58.61C147.34 58.64 147.37 58.65 147.41 58.65H148.9V59.0999C148.9 59.3499 148.83 59.59 148.7 59.83C148.57 60.06 148.39 60.25 148.17 60.4C147.95 60.54 147.68 60.61 147.37 60.61C147.1 60.61 146.86 60.5499 146.65 60.4399C146.44 60.3299 146.28 60.19 146.15 60.02C146.02 59.85 145.93 59.6599 145.87 59.4599C145.81 59.2499 145.79 59.05 145.79 58.86V57.36C145.79 57.09 145.83 56.8499 145.91 56.6199C145.99 56.3999 146.1 56.21 146.25 56.06C146.39 55.91 146.56 55.7899 146.75 55.7099C146.94 55.6299 147.14 55.59 147.36 55.59C147.68 55.59 147.96 55.67 148.2 55.82C148.43 55.98 148.6 56.16 148.7 56.36C148.8 56.56 148.86 56.7399 148.88 56.8899C148.9 56.9799 148.93 57.0299 148.99 57.0299H149.46C149.52 57.0299 149.55 57 149.55 56.93V56.79C149.49 56.54 149.41 56.3 149.3 56.08C149.18 55.86 149.03 55.66 148.85 55.49C148.67 55.32 148.45 55.19 148.2 55.09C147.95 54.99 147.67 54.95 147.37 54.95C147.07 54.95 146.76 55.0099 146.49 55.1199C146.21 55.2299 145.98 55.3899 145.77 55.5999C145.57 55.8099 145.41 56.06 145.3 56.36C145.19 56.66 145.13 56.98 145.13 57.33V58.84C145.13 59.16 145.18 59.46 145.28 59.75C145.38 60.04 145.53 60.29 145.72 60.51C145.91 60.73 146.15 60.9 146.43 61.02C146.71 61.14 147.02 61.2099 147.36 61.2099L147.34 61.2299Z" fill="#707070"/>
<path id="Vector_18" d="M151.57 61.1099C151.57 61.1099 151.62 61.0499 151.62 61.0099V58.6899H153.08L154.3 61.0399C154.34 61.1199 154.4 61.1499 154.47 61.1499H154.95C154.95 61.1499 155.03 61.1399 155.04 61.1099C155.05 61.0799 155.06 61.0699 155.06 61.0499C155.06 61.0299 155.05 60.9899 155.02 60.9299L153.77 58.5799C154.04 58.5099 154.28 58.3999 154.49 58.2399C154.7 58.0799 154.85 57.8899 154.94 57.6499C155.03 57.4199 155.08 57.1799 155.08 56.9399V56.8099C155.08 56.2499 154.91 55.8199 154.57 55.5099C154.23 55.2099 153.77 55.0599 153.2 55.0599H151.12C151.12 55.0599 151.05 55.0799 151.02 55.1099C150.99 55.1399 150.98 55.1799 150.98 55.2199V61.0099C150.98 61.0099 150.99 61.0799 151.02 61.1099C151.05 61.1399 151.08 61.1499 151.12 61.1499H151.49C151.49 61.1499 151.57 61.1399 151.6 61.1099H151.57ZM151.62 55.6899H153.15C153.4 55.6899 153.62 55.7299 153.81 55.8099C154 55.8899 154.14 56.0199 154.24 56.1799C154.34 56.3399 154.39 56.5599 154.39 56.8099V56.9499C154.39 57.2199 154.32 57.4399 154.18 57.6199C154.04 57.7999 153.87 57.9199 153.68 57.9799C153.48 58.0399 153.31 58.0699 153.15 58.0699H151.62V55.6899Z" fill="#707070"/>
<path id="Vector_19" d="M158.65 55.1899C158.62 55.0999 158.56 55.0599 158.49 55.0599H157.99C157.91 55.0599 157.86 55.1099 157.82 55.1999L155.76 60.8799L155.71 61.0499C155.71 61.0499 155.72 61.0999 155.74 61.1199C155.76 61.1399 155.78 61.1499 155.81 61.1499H156.24C156.3 61.1499 156.35 61.1199 156.37 61.0599L156.91 59.5299H159.55L160.11 61.0599C160.13 61.1199 160.17 61.1499 160.25 61.1499H160.69C160.69 61.1499 160.76 61.1399 160.77 61.1099C160.78 61.0799 160.79 61.0699 160.79 61.0499C160.79 61.0199 160.78 60.9699 160.76 60.9299L158.66 55.1899H158.65ZM157.13 58.9199L158.23 55.8199L159.33 58.9199H157.13Z" fill="#707070"/>
<path id="Vector_20" d="M166.92 61.1099C166.92 61.1099 166.98 61.1499 167.02 61.1499H167.38C167.38 61.1499 167.46 61.1399 167.48 61.1099C167.51 61.0799 167.52 61.0499 167.52 61.0099V55.2199C167.52 55.2199 167.5 55.1399 167.47 55.1099C167.44 55.0799 167.4 55.0599 167.37 55.0599H166.69C166.64 55.0599 166.6 55.0899 166.57 55.1599L164.63 60.2599L162.71 55.1499C162.68 55.0899 162.63 55.0599 162.57 55.0599H161.87C161.87 55.0599 161.8 55.0799 161.77 55.1099C161.74 55.1399 161.73 55.1799 161.73 55.2199V61.0099C161.73 61.0099 161.74 61.0799 161.77 61.1099C161.8 61.1399 161.83 61.1499 161.87 61.1499H162.22C162.22 61.1499 162.3 61.1399 162.32 61.1099C162.35 61.0799 162.36 61.0499 162.36 61.0099V55.9899L164.31 61.0499C164.34 61.1099 164.39 61.1499 164.45 61.1499H164.79C164.85 61.1499 164.9 61.1199 164.93 61.0499L166.87 55.9899V61.0099C166.87 61.0099 166.88 61.0799 166.91 61.1099H166.92Z" fill="#707070"/>
<path id="Vector_21" d="M132.89 65.5H129.43C129.43 65.5 129.36 65.52 129.33 65.55C129.3 65.58 129.29 65.62 129.29 65.66V71.45C129.29 71.45 129.3 71.52 129.33 71.55C129.36 71.58 129.39 71.59 129.43 71.59H129.8C129.8 71.59 129.88 71.58 129.91 71.55C129.94 71.52 129.96 71.49 129.96 71.45V69.01H132.32C132.32 69.01 132.4 69 132.42 68.97C132.45 68.94 132.46 68.91 132.46 68.87V68.55C132.46 68.55 132.45 68.47 132.42 68.45C132.39 68.42 132.36 68.41 132.32 68.41H129.96V66.14H132.9C132.9 66.14 132.98 66.13 133.01 66.1C133.04 66.07 133.06 66.04 133.06 66V65.68C133.06 65.68 133.04 65.6 133.01 65.57C132.98 65.54 132.94 65.52 132.9 65.52L132.89 65.5Z" fill="#707070"/>
<path id="Vector_22" d="M137.51 66.0599C137.31 65.8499 137.07 65.6899 136.79 65.5799C136.51 65.4699 136.22 65.4099 135.92 65.4099C135.62 65.4099 135.3 65.4699 134.99 65.5999C134.68 65.7299 134.43 65.9199 134.22 66.1799C134.01 66.4399 133.87 66.7099 133.8 66.9799C133.72 67.2599 133.69 67.5199 133.69 67.7799V69.2899C133.69 69.6399 133.75 69.9599 133.86 70.2499C133.97 70.5399 134.13 70.7899 134.34 70.9999C134.55 71.2099 134.79 71.3699 135.06 71.4799C135.33 71.5899 135.63 71.6499 135.93 71.6499C136.23 71.6499 136.53 71.5899 136.8 71.4799C137.08 71.3699 137.31 71.2099 137.51 70.9999C137.71 70.7899 137.87 70.5399 137.98 70.2499C138.09 69.9599 138.15 69.6399 138.15 69.2899V67.7799C138.15 67.4299 138.09 67.1099 137.98 66.8099C137.87 66.5099 137.71 66.2599 137.51 66.0499V66.0599ZM137.49 69.3099C137.49 69.5799 137.44 69.8299 137.35 70.0799C137.26 70.3299 137.12 70.5299 136.95 70.6799C136.77 70.8299 136.6 70.9299 136.42 70.9799C136.25 71.0299 136.08 71.0599 135.92 71.0599C135.65 71.0599 135.41 70.9999 135.2 70.8899C134.99 70.7799 134.83 70.6399 134.7 70.4699C134.57 70.2999 134.48 70.1099 134.43 69.9099C134.37 69.6999 134.35 69.4999 134.35 69.3099V67.8099C134.35 67.5399 134.39 67.2999 134.47 67.0699C134.55 66.8499 134.66 66.6599 134.8 66.5099C134.94 66.3599 135.11 66.2399 135.3 66.1599C135.49 66.0799 135.69 66.0399 135.91 66.0399C136.13 66.0399 136.33 66.0799 136.52 66.1599C136.71 66.2399 136.88 66.3599 137.02 66.5099C137.16 66.6599 137.28 66.8499 137.36 67.0699C137.44 67.2899 137.48 67.5399 137.48 67.8099V69.3099H137.49Z" fill="#707070"/>
<path id="Vector_23" d="M143.021 65.95C142.681 65.65 142.221 65.5 141.651 65.5H139.571C139.571 65.5 139.501 65.52 139.471 65.55C139.441 65.58 139.431 65.62 139.431 65.66V71.45C139.431 71.45 139.441 71.52 139.471 71.55C139.501 71.58 139.531 71.59 139.571 71.59H139.941C139.941 71.59 140.021 71.58 140.051 71.55C140.081 71.52 140.101 71.49 140.101 71.45V69.13H141.561L142.781 71.48C142.821 71.56 142.881 71.59 142.951 71.59H143.431C143.431 71.59 143.511 71.58 143.521 71.55C143.531 71.52 143.541 71.51 143.541 71.49C143.541 71.47 143.531 71.43 143.501 71.37L142.251 69.02C142.521 68.95 142.761 68.84 142.971 68.68C143.181 68.52 143.331 68.33 143.421 68.09C143.511 67.86 143.561 67.62 143.561 67.38V67.25C143.561 66.69 143.391 66.26 143.051 65.95H143.021ZM142.871 67.39C142.871 67.66 142.801 67.88 142.661 68.06C142.521 68.24 142.351 68.36 142.161 68.42C141.961 68.48 141.791 68.51 141.631 68.51H140.101V66.13H141.631C141.881 66.13 142.101 66.17 142.291 66.25C142.481 66.33 142.621 66.46 142.721 66.62C142.821 66.78 142.871 67 142.871 67.25V67.39Z" fill="#707070"/>
<path id="Vector_24" d="M150.32 68.9299C150.19 68.7999 150.03 68.6899 149.84 68.5899C149.65 68.4899 149.31 68.3799 148.81 68.2499C148.31 68.1199 147.96 67.9899 147.77 67.8799C147.58 67.7699 147.44 67.6299 147.37 67.4799C147.3 67.3299 147.26 67.1699 147.26 67.0099C147.26 66.6799 147.36 66.4299 147.57 66.2599C147.78 66.0899 148.12 65.9999 148.61 65.9999C149.02 65.9999 149.33 66.0799 149.55 66.2399C149.76 66.3999 149.88 66.6499 149.91 66.9999C149.93 67.0899 149.98 67.1299 150.06 67.1299H150.43C150.43 67.1299 150.5 67.1199 150.53 67.0899C150.56 67.0599 150.58 67.0299 150.58 66.9899C150.58 66.8199 150.55 66.6399 150.48 66.4599C150.41 66.2799 150.31 66.0999 150.16 65.9399C150.01 65.7799 149.81 65.6499 149.55 65.5499C149.29 65.4499 148.98 65.3999 148.61 65.3999C148.24 65.3999 147.92 65.4399 147.67 65.5299C147.41 65.6199 147.2 65.7399 147.04 65.8899C146.88 66.0399 146.76 66.2099 146.7 66.4099C146.64 66.6099 146.6 66.7999 146.6 67.0099C146.6 67.2899 146.65 67.5299 146.74 67.7399C146.83 67.9499 146.95 68.1099 147.1 68.2199C147.24 68.3399 147.4 68.4399 147.59 68.5199C147.77 68.6099 148.11 68.7199 148.62 68.8499C149.12 68.9899 149.46 69.1099 149.62 69.2199C149.79 69.3299 149.9 69.4399 149.97 69.5699C150.03 69.6899 150.07 69.8299 150.07 69.9699C150.07 70.3499 149.94 70.6199 149.68 70.7999C149.42 70.9799 149.07 71.0699 148.64 71.0699C148.34 71.0699 148.09 71.0299 147.89 70.9399C147.68 70.8499 147.52 70.7399 147.41 70.5999C147.29 70.4599 147.21 70.3199 147.17 70.1699C147.12 70.0199 147.1 69.8999 147.1 69.7999C147.1 69.7699 147.08 69.7299 147.05 69.6999C147.02 69.6699 146.99 69.6599 146.95 69.6599H146.58C146.58 69.6599 146.5 69.6699 146.48 69.6999C146.45 69.7299 146.44 69.7599 146.44 69.7999C146.44 69.9899 146.48 70.1899 146.56 70.4099C146.64 70.6199 146.77 70.8299 146.95 71.0199C147.13 71.2099 147.36 71.3699 147.65 71.4899C147.94 71.6099 148.27 71.6699 148.65 71.6699C149.07 71.6699 149.43 71.5999 149.75 71.4699C150.06 71.3399 150.31 71.1499 150.48 70.8999C150.66 70.6499 150.75 70.3499 150.75 69.9799C150.75 69.7799 150.72 69.5799 150.65 69.3999C150.59 69.2099 150.49 69.0599 150.35 68.9299H150.32Z" fill="#707070"/>
<path id="Vector_25" d="M155.831 66.08C155.831 66.08 155.881 66.02 155.881 65.98V65.66C155.881 65.66 155.861 65.58 155.831 65.55C155.801 65.52 155.761 65.5 155.721 65.5H151.411C151.411 65.5 151.331 65.52 151.311 65.55C151.281 65.58 151.271 65.62 151.271 65.66V65.98C151.271 65.98 151.281 66.06 151.311 66.08C151.341 66.11 151.371 66.12 151.411 66.12H153.251V71.44C153.251 71.44 153.26 71.51 153.29 71.54C153.32 71.57 153.351 71.58 153.391 71.58H153.76C153.76 71.58 153.841 71.57 153.861 71.54C153.891 71.51 153.9 71.48 153.9 71.44V66.12H155.73C155.73 66.12 155.81 66.11 155.84 66.08H155.831Z" fill="#707070"/>
<path id="Vector_26" d="M158.461 65.63C158.431 65.54 158.371 65.5 158.301 65.5H157.801C157.721 65.5 157.671 65.55 157.631 65.64L155.571 71.32L155.521 71.49C155.521 71.49 155.531 71.54 155.551 71.56C155.571 71.58 155.59 71.59 155.62 71.59H156.051C156.111 71.59 156.16 71.56 156.18 71.5L156.721 69.97H159.361L159.921 71.5C159.941 71.56 159.981 71.59 160.061 71.59H160.501C160.501 71.59 160.571 71.58 160.581 71.55C160.591 71.52 160.601 71.51 160.601 71.49C160.601 71.46 160.591 71.41 160.571 71.37L158.471 65.63H158.461ZM156.941 69.36L158.04 66.26L159.141 69.36H156.941Z" fill="#707070"/>
<path id="Vector_27" d="M165.14 65.95C164.8 65.65 164.34 65.5 163.77 65.5H161.69C161.69 65.5 161.62 65.52 161.59 65.55C161.56 65.58 161.55 65.62 161.55 65.66V71.45C161.55 71.45 161.56 71.52 161.59 71.55C161.62 71.58 161.65 71.59 161.69 71.59H162.06C162.06 71.59 162.14 71.58 162.17 71.55C162.2 71.52 162.22 71.49 162.22 71.45V69.13H163.68L164.9 71.48C164.94 71.56 165 71.59 165.07 71.59H165.55C165.55 71.59 165.63 71.58 165.64 71.55C165.65 71.52 165.66 71.51 165.66 71.49C165.66 71.47 165.65 71.43 165.62 71.37L164.37 69.02C164.64 68.95 164.88 68.84 165.09 68.68C165.3 68.52 165.45 68.33 165.54 68.09C165.63 67.86 165.68 67.62 165.68 67.38V67.25C165.68 66.69 165.51 66.26 165.17 65.95H165.14ZM164.99 67.39C164.99 67.66 164.92 67.88 164.78 68.06C164.64 68.24 164.47 68.36 164.28 68.42C164.08 68.48 163.91 68.51 163.75 68.51H162.22V66.13H163.75C164 66.13 164.22 66.17 164.41 66.25C164.6 66.33 164.74 66.46 164.84 66.62C164.94 66.78 164.99 67 164.99 67.25V67.39Z" fill="#707070"/>
<path id="Vector_28" d="M170.73 65.5H166.42C166.42 65.5 166.34 65.52 166.32 65.55C166.29 65.58 166.28 65.62 166.28 65.66V65.98C166.28 65.98 166.29 66.06 166.32 66.08C166.35 66.11 166.38 66.12 166.42 66.12H168.26V71.44C168.26 71.44 168.27 71.51 168.3 71.54C168.33 71.57 168.36 71.58 168.4 71.58H168.77C168.77 71.58 168.85 71.57 168.87 71.54C168.9 71.51 168.91 71.48 168.91 71.44V66.12H170.74C170.74 66.12 170.82 66.11 170.85 66.08C170.88 66.05 170.9 66.02 170.9 65.98V65.66C170.9 65.66 170.88 65.58 170.85 65.55C170.82 65.52 170.78 65.5 170.74 65.5H170.73Z" fill="#707070"/>
<path id="Vector_29" d="M175.84 65.5H175.47C175.47 65.5 175.39 65.52 175.37 65.55C175.34 65.58 175.33 65.62 175.33 65.66V69.33C175.33 69.67 175.28 69.95 175.18 70.18C175.08 70.41 174.96 70.59 174.81 70.72C174.66 70.85 174.51 70.94 174.34 70.99C174.17 71.04 174.01 71.06 173.85 71.06C173.58 71.06 173.35 71.01 173.16 70.9C172.97 70.79 172.81 70.66 172.69 70.49C172.57 70.32 172.49 70.14 172.44 69.93C172.39 69.72 172.37 69.52 172.37 69.33V65.66C172.37 65.66 172.35 65.58 172.32 65.55C172.29 65.52 172.25 65.5 172.21 65.5H171.84C171.84 65.5 171.77 65.52 171.74 65.55C171.71 65.58 171.7 65.62 171.7 65.66V69.33C171.7 69.68 171.76 70.02 171.88 70.35C172 70.68 172.18 70.95 172.41 71.15C172.65 71.36 172.89 71.5 173.13 71.57C173.37 71.64 173.61 71.68 173.83 71.68C174.14 71.68 174.41 71.63 174.64 71.54C174.87 71.44 175.07 71.33 175.22 71.19C175.38 71.05 175.51 70.89 175.62 70.71C175.73 70.52 175.82 70.31 175.88 70.08C175.94 69.85 175.97 69.6 175.97 69.34V65.67C175.97 65.67 175.96 65.59 175.93 65.56C175.9 65.53 175.87 65.51 175.83 65.51L175.84 65.5Z" fill="#707070"/>
<path id="Vector_30" d="M179.6 65.5H177.52C177.52 65.5 177.45 65.52 177.42 65.55C177.39 65.58 177.38 65.62 177.38 65.66V71.45C177.38 71.45 177.39 71.52 177.42 71.55C177.45 71.58 177.48 71.59 177.52 71.59H177.89C177.89 71.59 177.97 71.58 178 71.55C178.03 71.52 178.05 71.49 178.05 71.45V69.3H179.61C180.17 69.3 180.63 69.13 180.97 68.8C181.31 68.47 181.49 68.02 181.49 67.45V67.28C181.49 66.72 181.32 66.28 180.98 65.97C180.64 65.66 180.18 65.5 179.61 65.5H179.6ZM180.82 67.46C180.82 67.76 180.75 68.01 180.61 68.2C180.47 68.39 180.3 68.52 180.11 68.58C179.91 68.64 179.74 68.68 179.58 68.68H178.05V66.12H179.58C179.83 66.12 180.05 66.16 180.24 66.25C180.43 66.34 180.57 66.47 180.67 66.64C180.77 66.81 180.82 67.02 180.82 67.28V67.46Z" fill="#707070"/>
<path id="Vector_31" d="M130.28 25.2299H131.24C131.35 25.2299 131.44 25.1999 131.53 25.1299C131.61 25.0599 131.66 24.9699 131.66 24.8699V20.0999L134.37 17.1399L139.28 24.9399C139.39 25.1399 139.54 25.2399 139.74 25.2399H141.07C141.18 25.2399 141.25 25.2099 141.28 25.1399C141.31 25.0699 141.33 25.0199 141.33 24.9899C141.33 24.9399 141.27 24.8099 141.15 24.5999L135.6 15.8599L141.06 9.93992C141.24 9.72992 141.34 9.56992 141.34 9.45992C141.34 9.33992 141.31 9.25992 141.24 9.22992C141.17 9.19992 141.12 9.17992 141.09 9.17992H139.83C139.69 9.17992 139.49 9.31992 139.21 9.58992L131.69 17.8499V9.58992C131.69 9.47992 131.65 9.38992 131.56 9.29992C131.48 9.21992 131.38 9.16992 131.27 9.16992H130.31C130.22 9.16992 130.13 9.20992 130.06 9.29992C129.98 9.37992 129.95 9.47992 129.95 9.58992V24.8699C129.95 24.9799 129.99 25.0599 130.06 25.1299C130.14 25.1999 130.22 25.2299 130.31 25.2299H130.28Z" fill="#707070"/>
<path id="Vector_32" d="M144.95 23.74C145.49 24.29 146.13 24.71 146.85 25.01C147.58 25.3099 148.34 25.46 149.16 25.46C149.98 25.46 150.74 25.3099 151.47 25.01C152.2 24.71 152.82 24.29 153.35 23.74C153.88 23.1899 154.29 22.53 154.59 21.76C154.89 20.99 155.04 20.1399 155.04 19.2299V15.24C155.04 14.32 154.89 13.47 154.59 12.68C154.29 11.89 153.87 11.22 153.34 10.67C152.8 10.12 152.17 9.69995 151.45 9.39995C150.72 9.09995 149.95 8.94995 149.14 8.94995C148.33 8.94995 147.5 9.11995 146.69 9.44995C145.88 9.78995 145.2 10.3 144.66 10.99C144.12 11.68 143.75 12.39 143.55 13.11C143.35 13.84 143.25 14.54 143.25 15.23V19.22C143.25 20.14 143.4 20.9799 143.7 21.75C144 22.52 144.42 23.1799 144.96 23.7299L144.95 23.74ZM145.01 15.25C145.01 14.55 145.12 13.9 145.33 13.31C145.54 12.72 145.84 12.23 146.21 11.83C146.58 11.43 147.02 11.13 147.53 10.91C148.03 10.7 148.57 10.59 149.14 10.59C149.71 10.59 150.24 10.7 150.75 10.91C151.25 11.12 151.7 11.43 152.08 11.83C152.46 12.23 152.76 12.72 152.97 13.31C153.18 13.9 153.29 14.55 153.29 15.25V19.22C153.29 19.92 153.17 20.6 152.92 21.25C152.68 21.9 152.32 22.42 151.85 22.82C151.38 23.2199 150.92 23.49 150.46 23.62C150 23.76 149.57 23.83 149.15 23.83C148.43 23.83 147.8 23.6799 147.26 23.3899C146.72 23.0999 146.28 22.73 145.94 22.29C145.6 21.85 145.36 21.3499 145.22 20.8099C145.07 20.2699 145 19.74 145 19.22V15.25H145.01Z" fill="#707070"/>
<path id="Vector_33" d="M159.691 25.2299H160.651C160.761 25.2299 160.851 25.1999 160.941 25.1299C161.021 25.0599 161.071 24.9699 161.071 24.8699V18.7399H164.921L168.131 24.9299C168.241 25.1299 168.381 25.2299 168.571 25.2299H169.831C169.951 25.2299 170.031 25.1999 170.061 25.1299C170.091 25.0599 170.111 25.0099 170.111 24.9799C170.111 24.9199 170.071 24.8099 170.001 24.6599L166.701 18.4699C167.421 18.2899 168.051 17.9799 168.591 17.5599C169.131 17.1399 169.531 16.6199 169.771 16.0099C170.011 15.3999 170.141 14.7699 170.141 14.1299V13.7899C170.141 12.3099 169.691 11.1699 168.801 10.3699C167.911 9.56993 166.701 9.17993 165.191 9.17993H159.711C159.621 9.17993 159.531 9.21993 159.461 9.30993C159.381 9.38993 159.351 9.48993 159.351 9.59993V24.8799C159.351 24.9899 159.391 25.0699 159.461 25.1399C159.541 25.2099 159.621 25.2399 159.711 25.2399L159.691 25.2299ZM161.071 10.8199H165.111C165.771 10.8199 166.341 10.9299 166.841 11.1399C167.341 11.3499 167.721 11.6799 167.991 12.1299C168.261 12.5699 168.391 13.1299 168.391 13.7999V14.1699C168.391 14.8699 168.211 15.4599 167.841 15.9299C167.471 16.3999 167.031 16.7099 166.511 16.8699C165.991 17.0299 165.521 17.1099 165.111 17.1099H161.071V10.8199Z" fill="#707070"/>
<path id="Vector_34" d="M184.691 9.16992H174.581C174.491 9.16992 174.401 9.20992 174.331 9.29992C174.251 9.37992 174.221 9.47992 174.221 9.58992V24.8699C174.221 24.9799 174.261 25.0599 174.331 25.1299C174.411 25.1999 174.491 25.2299 174.581 25.2299H184.691C184.801 25.2299 184.891 25.1999 184.981 25.1299C185.061 25.0599 185.111 24.9699 185.111 24.8699V23.9999C185.111 23.9099 185.071 23.8199 184.981 23.7399C184.901 23.6599 184.801 23.6099 184.691 23.6099H175.961V17.9399H183.151C183.261 17.9399 183.351 17.8999 183.431 17.8299C183.511 17.7499 183.541 17.6599 183.541 17.5499V16.6999C183.541 16.5899 183.501 16.4999 183.431 16.4199C183.351 16.3399 183.261 16.3099 183.151 16.3099H175.961V10.8299H184.691C184.801 10.8299 184.891 10.7899 184.981 10.7199C185.061 10.6399 185.111 10.5499 185.111 10.4399V9.58992C185.111 9.47992 185.071 9.38992 184.981 9.29992C184.901 9.21992 184.801 9.16992 184.691 9.16992Z" fill="#707070"/>
<path id="Vector_35" d="M199.91 24.6499L194.36 9.50992C194.27 9.27992 194.13 9.16992 193.95 9.16992H192.64C192.44 9.16992 192.3 9.28992 192.2 9.53992L186.76 24.5199L186.62 24.9799C186.62 25.0599 186.65 25.1199 186.7 25.1599C186.75 25.2099 186.81 25.2299 186.87 25.2299H188.02C188.19 25.2299 188.3 25.1499 188.36 24.9999L189.78 20.9599H196.73L198.2 24.9999C198.25 25.1499 198.37 25.2299 198.57 25.2299H199.74C199.85 25.2299 199.92 25.1999 199.95 25.1299C199.98 25.0599 200 25.0099 200 24.9799C200 24.8899 199.97 24.7799 199.91 24.6599V24.6499ZM190.36 19.3499L193.25 11.1799L196.16 19.3499H190.36Z" fill="#707070"/>
</g>
<path id="Vector_36" d="M90.72 0.679932V30.9599H60.61V61.2299H30.27V91.5099H0V121.78H30.27H60.61H90.72H121.59V91.5099V61.2299V30.9599V0.679932H90.72Z" fill="#C81250"/>
<g id="Group_2">
<path id="Vector_37" d="M112.611 18.3099C112.341 17.7199 111.951 17.2199 111.461 16.7899C110.961 16.3599 110.391 15.9999 109.731 15.7099C109.071 15.4199 108.361 15.1899 107.601 15.0099L105.951 14.6099C105.451 14.4899 104.971 14.3399 104.521 14.1499C104.071 13.9699 103.711 13.7299 103.451 13.4299C103.191 13.1299 103.051 12.7599 103.051 12.3099C103.051 11.8999 103.171 11.5399 103.401 11.2199C103.631 10.8999 103.971 10.6499 104.421 10.4799C104.871 10.2999 105.401 10.2099 106.031 10.2099C106.961 10.2099 107.701 10.4099 108.261 10.8099C108.821 11.2099 109.131 11.7699 109.191 12.5099H112.791C112.771 11.4399 112.491 10.4999 111.921 9.68991C111.361 8.86991 110.581 8.2299 109.581 7.7799C108.581 7.3299 107.411 7.0899 106.071 7.0899C104.731 7.0899 103.581 7.31991 102.551 7.76991C101.521 8.22991 100.711 8.85991 100.121 9.6799C99.5305 10.4999 99.2405 11.4599 99.2405 12.5599C99.2405 13.8799 99.6705 14.9399 100.551 15.7399C101.421 16.5399 102.621 17.1299 104.161 17.4999L106.161 17.9999C106.831 18.1499 107.391 18.3299 107.861 18.5399C108.331 18.7499 108.681 18.9899 108.931 19.2699C109.181 19.5499 109.301 19.8999 109.301 20.3099C109.301 20.7699 109.161 21.1799 108.891 21.5299C108.611 21.8799 108.231 22.1499 107.741 22.3399C107.251 22.5299 106.671 22.6299 106.001 22.6299C105.331 22.6299 104.741 22.5299 104.211 22.3199C103.681 22.1199 103.261 21.8099 102.941 21.3999C102.621 20.9899 102.441 20.4799 102.391 19.8699H98.7705C98.8005 21.1499 99.1205 22.2399 99.7205 23.1099C100.321 23.9899 101.161 24.6499 102.241 25.0999C103.321 25.5499 104.581 25.7699 106.041 25.7699C107.501 25.7699 108.771 25.5499 109.821 25.0999C110.871 24.6499 111.671 24.0199 112.221 23.1999C112.771 22.3799 113.051 21.4299 113.051 20.3299C113.051 19.5699 112.911 18.8899 112.641 18.3099H112.611Z" fill="white"/>
<path id="Vector_38" d="M81.3501 39.3999C80.3501 38.9099 79.1301 38.6699 77.7001 38.6699H70.3701V56.3299H74.2201V50.0799H77.6101C79.0601 50.0799 80.2901 49.8399 81.3001 49.3599C82.3101 48.8799 83.0901 48.2099 83.6201 47.3599C84.1501 46.5099 84.4201 45.5199 84.4201 44.3999C84.4201 43.2799 84.1601 42.2999 83.6301 41.4399C83.1001 40.5799 82.3401 39.8999 81.3401 39.4199L81.3501 39.3999ZM80.0801 45.8899C79.8301 46.3199 79.4501 46.6599 78.9401 46.9099C78.4301 47.1599 77.7801 47.2799 76.9901 47.2799H74.2101V41.5399H76.9701C77.7601 41.5399 78.4101 41.6599 78.9301 41.8999C79.4401 42.1399 79.8201 42.4699 80.0701 42.8999C80.3201 43.3299 80.4401 43.8299 80.4401 44.3999C80.4401 44.9699 80.3201 45.4699 80.0701 45.8999L80.0801 45.8899Z" fill="white"/>
<path id="Vector_39" d="M47.5003 68.2999H43.7803V85.7399H47.5003V68.2999Z" fill="white"/>
<path id="Vector_40" d="M7.74023 102.42H13.3102V116.96H17.0402V102.42H22.5902V99.33H7.74023V102.42Z" fill="white"/>
</g>
</g>
<defs>
<clipPath id="clip0_1271_20045">
<rect width="200" height="121.1" fill="white" transform="translate(0 0.679932)"/>
</clipPath>
</defs>
</svg>
