<svg width="200" height="25" viewBox="0 0 200 25" fill="none" xmlns="http://www.w3.org/2000/svg">
<g id="_&#235;&#160;&#136;&#236;&#157;&#180;&#236;&#150;&#180;_1" clip-path="url(#clip0_1271_20110)">
<g id="Group">
<path id="Vector" d="M4.47048 24.6799C3.82048 24.6799 3.20048 24.6099 2.60048 24.4799C2.00048 24.3499 1.49048 24.0999 1.07048 23.7399C0.650476 23.3799 0.340476 22.8799 0.150476 22.2399C-0.0395239 21.5999 -0.059524 20.7599 0.120476 19.7199L2.74048 4.90991C3.48048 4.90991 4.14048 5.02991 4.74048 5.26991C5.34048 5.50991 5.84048 5.83991 6.23048 6.27991C6.63048 6.71991 6.90048 7.23991 7.06048 7.82991C7.22048 8.42991 7.23048 9.07991 7.09048 9.77991L4.48048 24.6699L4.47048 24.6799Z" fill="#0055B8"/>
<path id="Vector_2" d="M14.0808 24.6799C13.4308 24.6799 12.8108 24.6099 12.2108 24.4799C11.6108 24.3499 11.1008 24.0999 10.6808 23.7399C10.2608 23.3799 9.95077 22.8799 9.76077 22.2399C9.57077 21.5999 9.56077 20.7599 9.73077 19.7199L12.3408 4.90991C13.0808 4.90991 13.7508 5.02991 14.3408 5.26991C14.9408 5.50991 15.4308 5.83991 15.8308 6.27991C16.2208 6.71991 16.5008 7.23991 16.6608 7.82991C16.8208 8.42991 16.8308 9.07991 16.6908 9.77991L14.0808 24.6699V24.6799Z" fill="#0055B8"/>
<path id="Vector_3" d="M58.7602 12.2899C58.5002 13.7499 58.1002 14.9599 57.5702 15.9099C57.0402 16.8699 56.3702 17.6299 55.5402 18.1999C54.7102 18.7699 53.7302 19.1799 52.5902 19.4099C51.4502 19.6499 50.1302 19.7699 48.6402 19.7699H45.6602C44.6902 19.7699 43.6702 19.6999 42.5802 19.5599C42.4402 20.2999 42.2202 20.9799 41.9202 21.6199C41.6202 22.2499 41.2202 22.7899 40.7202 23.2399C40.2202 23.6899 39.6002 24.0399 38.8602 24.2899C38.1202 24.5499 37.2402 24.6699 36.2002 24.6699L38.3602 12.2799C38.6002 10.9099 38.9802 9.75991 39.4902 8.81991C40.0002 7.87991 40.6602 7.11991 41.4802 6.53991C42.3002 5.95991 43.2802 5.53991 44.4402 5.28991C45.6002 5.03991 46.9602 4.90991 48.5202 4.90991H51.2602C52.7002 4.90991 53.9502 5.01991 55.0102 5.24991C56.0702 5.47991 56.9202 5.86991 57.5502 6.41991C58.1802 6.96991 58.6102 7.71991 58.8102 8.66991C59.0202 9.61991 58.9902 10.8199 58.7302 12.2799L58.7602 12.2899ZM43.7402 13.1899C43.7602 13.5599 43.8602 13.8699 44.0402 14.1399C44.2202 14.3999 44.4502 14.6099 44.7202 14.7699C44.9902 14.9299 45.3002 15.0499 45.6402 15.1299C45.9802 15.2099 46.3102 15.2499 46.6302 15.2499H49.5002C49.8402 15.2499 50.1802 15.2099 50.5602 15.1299C50.9302 15.0499 51.2802 14.9299 51.6102 14.7699C51.9502 14.6099 52.2402 14.3999 52.5102 14.1399C52.7702 13.8799 52.9802 13.5599 53.1202 13.1899C53.3302 12.6499 53.4402 12.0799 53.4402 11.4999C53.4402 11.1299 53.3502 10.8099 53.1602 10.5499C52.9802 10.2899 52.7402 10.0699 52.4602 9.91991C52.1802 9.75991 51.8702 9.63991 51.5202 9.55991C51.1802 9.47991 50.8402 9.43991 50.5102 9.43991H47.6402C47.3202 9.43991 46.9802 9.47991 46.6102 9.55991C46.2402 9.63991 45.8902 9.75991 45.5702 9.91991C45.2502 10.0799 44.9502 10.2899 44.6802 10.5499C44.4102 10.8099 44.2002 11.1299 44.0602 11.4999C43.9602 11.7499 43.8802 12.0299 43.8202 12.3399C43.7702 12.6599 43.7402 12.9399 43.7402 13.1799V13.1899Z" fill="#0055B8"/>
<path id="Vector_4" d="M39.8901 0.0799561C37.9401 5.38996 24.1001 5.30996 20.7101 5.11996L19.8701 8.72996C23.8601 9.00996 41.6601 9.22996 39.8901 0.0899561V0.0799561Z" fill="#FF6C0E"/>
<path id="Vector_5" d="M30.8 9.55994L28.26 24.6799H23.04L25.65 10.0299C27.27 9.95994 29.04 9.81994 30.79 9.55994H30.8Z" fill="#0055B8"/>
</g>
<g id="Group_2">
<path id="Vector_6" d="M73.7 9.51993V9.71993C73.7 11.6699 74.81 13.5099 77.11 14.0699L76.65 14.9299C76.4 15.3899 75.84 15.3399 75.53 15.2299C74.49 14.8499 73.1 13.8899 72.65 12.6499C72.12 14.0399 70.58 15.1799 69.62 15.4899C69.26 15.6099 68.74 15.6699 68.45 15.0899L68 14.2299C70.08 13.7199 71.42 11.9799 71.42 9.70993V9.50993H68.61V8.16993H76.55V9.50993H73.71L73.7 9.51993ZM77.67 16.2899C78.45 15.9599 78.43 15.2799 78.43 14.5699V12.1999H75.67V10.8599H78.43V7.67993H80.6V14.6299C80.6 15.8499 79.96 16.6299 79.11 16.9999C79.85 17.5599 80.33 18.3899 80.33 19.3999C80.33 21.0499 78.92 22.7099 76.16 22.7199C73.96 22.7399 71.98 21.5999 72.01 19.3999C72.04 17.1199 74.13 16.0899 76.18 16.0899C76.69 16.0899 77.21 16.1599 77.67 16.2899ZM74.18 19.3999C74.18 20.4299 74.86 21.3699 76.16 21.3699C77.46 21.3699 78.16 20.5099 78.16 19.3999C78.16 18.1099 77.3 17.4499 76.18 17.4499C74.89 17.4499 74.18 18.3599 74.18 19.3999Z" fill="#717071"/>
<path id="Vector_7" d="M91.12 15.1299V17.5899H96.91V18.9299H83.5V17.5899H88.93V15.1299H86.91C85.69 15.1299 85.16 14.4799 85.16 13.5299V8.18994H87.34V10.3199H92.75V8.18994H94.92V13.8799C94.92 14.8099 94.72 15.1399 93.73 15.1399H91.13L91.12 15.1299ZM87.33 11.6599V13.2499C87.33 13.6099 87.5 13.7999 87.91 13.7999H92.74V11.6699H87.33V11.6599Z" fill="#717071"/>
<path id="Vector_8" d="M109.79 13.54H106.13V14.78H111.79V16.09H98.3604V14.78H103.93V13.54H101.61C100.67 13.54 100.02 12.86 100.02 11.94V7.87H109.61V9.18H102.2V9.97H109.61V11.28H102.2V11.58C102.2 12.01 102.4 12.24 102.91 12.24H109.77V13.55L109.79 13.54ZM109.2 19.73C109.2 21.71 107.36 22.71 105.16 22.71C102.96 22.71 101.12 21.72 101.12 19.73C101.12 17.74 102.97 16.74 105.16 16.74C107.35 16.74 109.2 17.75 109.2 19.73ZM103.29 19.73C103.29 20.72 104.02 21.4 105.16 21.4C106.3 21.4 107.03 20.72 107.03 19.73C107.03 18.74 106.35 18.08 105.16 18.08C103.97 18.08 103.29 18.74 103.29 19.73Z" fill="#717071"/>
<path id="Vector_9" d="M118.28 8.26994V9.86994C118.28 11.8199 119.45 13.8599 121.74 14.4199L121.24 15.2799C120.93 15.8599 120.36 15.6299 120.07 15.5299C119.09 15.1799 117.74 14.0199 117.24 12.8499C116.81 14.0599 115.17 15.4999 114.23 15.7899C113.87 15.9099 113.34 16.0499 113.04 15.4799L112.59 14.6499C114.64 13.9999 116.03 12.1499 116.03 9.86994V8.26994H118.28ZM117.68 20.3899C117.68 20.6999 117.85 20.8499 118.14 20.8499H125.4V22.2099H117.26C116.33 22.2099 115.49 21.7999 115.49 20.4399V17.2499H117.67V20.3899H117.68ZM125.26 7.68994V17.0499C125.26 17.5999 125 18.0599 124.3 18.0599H122.76C122.93 17.9399 123.06 17.7599 123.06 17.3999V7.68994H125.26Z" fill="#717071"/>
<path id="Vector_10" d="M133.44 10.17C133.44 9.99 133.39 9.76 133.01 9.76H128.63V8.43999H133.96C135.27 8.43999 135.58 9.1 135.58 9.96V10.8C135.58 12.7 134.97 14.22 133.89 15.48C132.88 16.64 131.64 17.5 129.95 18.13C129.45 18.31 129.17 18.16 128.97 17.73L128.61 16.97C130.4 16.21 131.54 15.38 132.33 14.32C133.31 13.03 133.49 11.52 133.44 10.17ZM140.14 19.55C140.14 20.1 139.86 20.56 139.16 20.56H137.64C137.82 20.44 137.94 20.26 137.94 19.9V7.87H140.14V19.55Z" fill="#717071"/>
<path id="Vector_11" d="M150.4 10.5699C150.68 10.9499 150.85 11.3999 150.85 11.9399C150.85 13.2799 149.84 14.0899 148.6 14.3999V15.2299H150.63C151.79 15.2299 152.55 15.0299 153.01 14.6999V7.69994H155.18V16.1899C155.18 16.7399 154.92 17.3599 154.22 17.3599H152.71C152.89 17.2399 153.01 16.8999 153.01 16.5299V16.0299C152.36 16.4099 151.5 16.5599 150.69 16.5599H142.8V15.2199H146.46V14.4299C145.17 14.1499 144.06 13.3199 144.06 11.9299C144.06 11.3799 144.23 10.9399 144.51 10.5599H143.05V9.18994H146.49V7.18994H148.69V7.86994C148.69 8.50994 148.47 8.97994 147.91 9.18994H151.96V10.5599H150.39L150.4 10.5699ZM155.04 21.3799C155.04 21.9299 154.76 22.3899 154.06 22.3899H152.55C152.73 22.2699 152.85 22.0899 152.85 21.7299V19.1799H144.93V17.8399H154.11C154.77 17.8399 155.04 18.0999 155.04 18.7299V21.3799ZM147.44 13.2499C148.27 13.2499 148.75 12.7399 148.75 11.9399C148.75 11.0799 148.27 10.5999 147.46 10.5999C146.65 10.5999 146.17 11.0799 146.17 11.9099C146.17 12.7399 146.67 13.2499 147.44 13.2499Z" fill="#717071"/>
<path id="Vector_12" d="M166.31 14.8C165.85 15.01 165.22 15.15 164.49 15.15H157.59V13.83H159.44C159.06 13.73 158.86 13.48 158.86 12.97V9.52995H157.59V8.18995H165.98V9.52995H164.57V12.82C164.57 13.45 164.42 13.66 164.02 13.83H164.55C165.08 13.83 165.72 13.71 166.3 13.47V14.81L166.31 14.8ZM162.5 9.51995H160.93V13.08C160.93 13.51 161.01 13.82 161.43 13.82H162.01C162.41 13.82 162.51 13.52 162.51 13.14V9.51995H162.5ZM166.99 16.29C167.77 15.96 167.75 15.28 167.75 14.57V13.18C167.49 13.26 167.14 13.31 166.87 13.31H165.75V11.99H167.21C167.41 11.99 167.61 11.97 167.76 11.91V11.17C167.59 11.12 167.38 11.09 167.18 11.09H165.74V9.76995H166.9C167.13 9.76995 167.5 9.79995 167.76 9.89995V7.69995H169.93V14.65C169.93 15.87 169.28 16.65 168.44 17.02C169.18 17.58 169.66 18.41 169.66 19.42C169.66 21.07 168.25 22.73 165.49 22.74C163.29 22.76 161.31 21.62 161.34 19.42C161.37 17.14 163.46 16.11 165.51 16.11C166.02 16.11 166.54 16.18 167 16.31L166.99 16.29ZM163.5 19.4C163.5 20.43 164.18 21.37 165.48 21.37C166.78 21.37 167.48 20.51 167.48 19.4C167.48 18.11 166.62 17.45 165.5 17.45C164.21 17.45 163.5 18.36 163.5 19.4Z" fill="#717071"/>
<path id="Vector_13" d="M177.97 10.17C177.97 9.99 177.92 9.76 177.54 9.76H173.16V8.43999H178.49C179.8 8.43999 180.11 9.1 180.11 9.96V10.8C180.11 12.7 179.5 14.22 178.42 15.48C177.41 16.64 176.17 17.5 174.48 18.13C173.98 18.31 173.7 18.16 173.5 17.73L173.14 16.97C174.93 16.21 176.07 15.38 176.86 14.32C177.84 13.03 178.02 11.52 177.97 10.17ZM184.34 12.67C184.51 12.52 184.75 12.27 185.45 12.27H186.76V13.61H184.35V19.53C184.35 20.08 184.09 20.54 183.39 20.54H181.87C182.05 20.42 182.17 20.24 182.17 19.88V7.87H184.35V12.67H184.34Z" fill="#717071"/>
<path id="Vector_14" d="M187.38 15.3599V14.0199H193.4C194.24 14.0199 195.72 14.0399 196.82 13.5099V14.8999C196.01 15.2999 194.39 15.3599 193.43 15.3599H192.49V16.5499C192.49 17.0999 192.21 17.5599 191.51 17.5599H189.99C190.17 17.4399 190.29 17.2599 190.29 16.8999V15.3599H187.38ZM195.63 10.4799C195.63 12.2199 194.01 13.3199 191.86 13.3199C189.71 13.3199 188.12 12.2099 188.12 10.4799C188.12 8.74989 189.76 7.63989 191.86 7.63989C193.96 7.63989 195.63 8.75989 195.63 10.4799ZM191.94 20.3899C191.94 20.6999 192.11 20.8499 192.4 20.8499H199.99V22.2099H191.52C190.59 22.2099 189.75 21.7999 189.75 20.4399V18.2899H191.93V20.3899H191.94ZM191.86 11.9699C192.87 11.9699 193.51 11.3899 193.51 10.4799C193.51 9.56989 192.87 8.98989 191.87 8.98989C190.94 8.98989 190.27 9.58989 190.27 10.4499C190.27 11.3599 190.93 11.9699 191.86 11.9699ZM194.76 16.1899H197.65V7.68989H199.85V17.8799C199.85 18.4299 199.57 18.8899 198.87 18.8899H197.35C197.53 18.7699 197.65 18.5899 197.65 18.2299V17.4999H194.76V16.1899Z" fill="#717071"/>
</g>
</g>
<defs>
<clipPath id="clip0_1271_20110">
<rect width="200" height="24.6" fill="white" transform="translate(0 0.0799561)"/>
</clipPath>
</defs>
</svg>
