<svg width="200" height="56" viewBox="0 0 200 56" fill="none" xmlns="http://www.w3.org/2000/svg">
<g id="_&#235;&#160;&#136;&#236;&#157;&#180;&#236;&#150;&#180;_1" clip-path="url(#clip0_1271_20089)">
<g id="Group">
<path id="Vector" d="M39.8595 28.1499C37.7995 27.4399 36.3095 26.5999 35.3895 25.6099C34.4795 24.6199 34.0195 23.4299 34.0195 22.0399C34.0195 20.4499 34.5295 19.1899 35.5395 18.2599C36.5495 17.3399 37.9495 16.8699 39.7195 16.8699C41.3895 16.8699 42.8495 17.0699 44.1195 17.4699C44.4995 17.5999 44.8095 17.8399 45.0595 18.1899C45.2995 18.5399 45.4295 18.9399 45.4295 19.3699C45.4295 19.6799 45.2895 19.9099 45.0195 20.0799C44.7495 20.2499 44.4695 20.2599 44.1795 20.1299C42.7995 19.5499 41.4095 19.2599 39.9995 19.2599C39.0195 19.2599 38.2695 19.4999 37.7495 19.9899C37.2195 20.4799 36.9595 21.1599 36.9595 22.0299C36.9595 22.7399 37.1995 23.3699 37.6895 23.9499C38.1795 24.5199 38.8995 24.9699 39.8595 25.2899C42.2495 26.0899 43.9095 26.9699 44.8395 27.9499C45.7695 28.9299 46.2395 30.1699 46.2395 31.6699C46.2395 33.4999 45.6795 34.8799 44.5595 35.8299C43.4395 36.7699 41.7795 37.2399 39.5895 37.2399C38.1595 37.2399 36.8595 37.0199 35.7095 36.5899C34.8595 36.2499 34.4295 35.5799 34.4295 34.5799C34.4295 34.2699 34.5695 34.0499 34.8395 33.8999C35.1095 33.7599 35.3795 33.7599 35.6495 33.8999C36.7695 34.4999 37.9895 34.7999 39.3195 34.7999C41.9495 34.7999 43.2595 33.7599 43.2595 31.6799C43.2595 30.8799 42.9995 30.1999 42.4895 29.6399C41.9695 29.0799 41.0995 28.5799 39.8695 28.1499H39.8595Z" fill="#221E1F"/>
<path id="Vector_2" d="M48.0693 24.5799C47.7593 24.5799 47.4993 24.4699 47.2993 24.2499C47.0893 24.0299 46.9893 23.7799 46.9893 23.4899C46.9893 23.1999 47.0893 22.9499 47.2993 22.7299C47.5093 22.5099 47.7693 22.3999 48.0693 22.3999H49.2593C49.4193 22.3999 49.4993 22.3199 49.4993 22.1599V19.6399C49.4993 19.2399 49.6393 18.9099 49.9093 18.6399C50.1793 18.3699 50.5193 18.2299 50.9193 18.2299C51.3193 18.2299 51.6593 18.3699 51.9393 18.6399C52.2193 18.9099 52.3593 19.2499 52.3593 19.6399V22.1599C52.3593 22.3199 52.4393 22.3999 52.5993 22.3999H55.1593C55.4693 22.3999 55.7293 22.5099 55.9293 22.7299C56.1393 22.9499 56.2393 23.1999 56.2393 23.4899C56.2393 23.7799 56.1393 24.0299 55.9293 24.2499C55.7193 24.4699 55.4593 24.5799 55.1593 24.5799H52.5993C52.4393 24.5799 52.3593 24.6599 52.3593 24.8199V32.0799C52.3593 34.0999 53.0893 35.0699 53.9593 35.0699C54.3793 35.0699 54.7693 35.0399 55.1593 34.9899C55.4493 34.9499 55.7093 35.0199 55.9293 35.1799C56.1593 35.3399 56.2693 35.5599 56.2693 35.8299C56.2693 36.1599 56.1593 36.4499 55.9393 36.6999C55.7193 36.9499 55.4493 37.0999 55.1293 37.1299C54.3693 37.1999 54.3793 37.2399 53.9993 37.2399C52.3293 37.2399 51.1693 36.8899 50.5093 36.1799C49.8493 35.4699 49.5193 34.1999 49.5193 32.3499V24.8199C49.5193 24.6599 49.4393 24.5799 49.2793 24.5799H48.0893H48.0693Z" fill="#221E1F"/>
<path id="Vector_3" d="M80.1191 24.5799C79.8091 24.5799 79.5491 24.4699 79.3491 24.2499C79.1391 24.0299 79.0391 23.7799 79.0391 23.4899C79.0391 23.1999 79.1391 22.9499 79.3491 22.7299C79.5591 22.5099 79.8191 22.3999 80.1191 22.3999H81.3091C81.4691 22.3999 81.5491 22.3199 81.5491 22.1599V19.6399C81.5491 19.2399 81.6891 18.9099 81.9591 18.6399C82.2291 18.3699 82.5691 18.2299 82.9691 18.2299C83.3691 18.2299 83.7091 18.3699 83.9891 18.6399C84.2691 18.9099 84.4091 19.2499 84.4091 19.6399V22.1599C84.4091 22.3199 84.4891 22.3999 84.6491 22.3999H87.2091C87.5191 22.3999 87.7791 22.5099 87.9791 22.7299C88.1891 22.9499 88.2891 23.1999 88.2891 23.4899C88.2891 23.7799 88.1891 24.0299 87.9791 24.2499C87.7691 24.4699 87.5091 24.5799 87.2091 24.5799H84.6491C84.4891 24.5799 84.4091 24.6599 84.4091 24.8199V32.0799C84.4091 34.0999 85.1391 35.0699 86.0091 35.0699C86.4291 35.0699 86.8191 35.0399 87.2091 34.9899C87.4991 34.9499 87.7591 35.0199 87.9791 35.1799C88.2091 35.3399 88.3191 35.5599 88.3191 35.8299C88.3191 36.1599 88.2091 36.4499 87.9891 36.6999C87.7691 36.9499 87.4991 37.0999 87.1791 37.1299C86.4191 37.1999 86.4291 37.2399 86.0491 37.2399C84.3791 37.2399 83.2191 36.8899 82.5591 36.1799C81.8991 35.4699 81.5691 34.1999 81.5691 32.3499V24.8199C81.5691 24.6599 81.4891 24.5799 81.3291 24.5799H80.1391H80.1191Z" fill="#221E1F"/>
<path id="Vector_4" d="M61.3496 37.2498C60.1196 37.2498 59.1096 36.8498 58.3196 36.0498C57.5296 35.2498 57.1396 34.1998 57.1396 32.8998C57.1396 31.3098 57.7496 30.0698 58.9596 29.1898C60.1696 28.3098 62.0097 27.8698 64.4697 27.8698H65.7197C65.8797 27.8698 65.9596 27.7898 65.9596 27.6298V27.3298C65.9596 26.3698 65.7296 25.6998 65.2796 25.3198C64.8296 24.9398 64.0096 24.7498 62.8396 24.7498C61.7896 24.7498 60.5396 24.9698 59.0896 25.3998C58.8196 25.4898 58.5596 25.4498 58.3196 25.2798C58.0796 25.1098 57.9496 24.8798 57.9496 24.5898C57.9496 24.2298 58.0596 23.8998 58.2796 23.6098C58.4996 23.3198 58.7796 23.1398 59.1196 23.0698C60.4196 22.7398 61.6596 22.5798 62.8396 22.5798C65.1196 22.5798 66.6896 22.9898 67.5396 23.7998C68.3897 24.6198 68.8196 26.1098 68.8196 28.2798V35.6398C68.8196 35.9998 68.6896 36.3098 68.4296 36.5798C68.1696 36.8398 67.8496 36.9698 67.4896 36.9698C67.1296 36.9698 66.8197 36.8398 66.5497 36.5798C66.2897 36.3198 66.1496 36.0098 66.1296 35.6398L66.0996 34.9598C66.0996 34.9598 66.0996 34.9298 66.0696 34.9298C66.0296 34.9298 66.0196 34.9298 66.0196 34.9598C64.9696 36.4798 63.4096 37.2398 61.3496 37.2398V37.2498ZM64.4697 29.8598C62.9797 29.8598 61.8696 30.1098 61.1196 30.6098C60.3696 31.1098 59.9897 31.7798 59.9897 32.6298C59.9897 33.2998 60.1896 33.8498 60.5896 34.2898C60.9896 34.7198 61.4696 34.9398 62.0296 34.9398C63.2296 34.9398 64.1797 34.5598 64.8997 33.8098C65.6197 33.0598 65.9697 32.0298 65.9697 30.7298V30.0798C65.9697 29.9398 65.8897 29.8598 65.7297 29.8598H64.4797H64.4697Z" fill="#221E1F"/>
<path id="Vector_5" d="M73.6594 36.7699C73.3694 37.0599 73.0194 37.1999 72.5994 37.1999C72.1794 37.1999 71.8294 37.0599 71.5394 36.7699C71.2494 36.4799 71.1094 36.1299 71.1094 35.7099V23.7399C71.1094 23.3399 71.2494 23.0099 71.5194 22.7399C71.7894 22.4699 72.1294 22.3299 72.5294 22.3299C72.9294 22.3299 73.2694 22.4699 73.5494 22.7399C73.8294 23.0099 73.9694 23.3499 73.9694 23.7399V25.0199C73.9694 25.0199 73.9694 25.0499 73.9994 25.0499C74.0394 25.0499 74.0494 25.0499 74.0494 25.0199C75.2294 22.6899 76.8094 22.4099 77.8794 22.3299C78.2094 22.3099 78.4794 22.4099 78.7094 22.6299C78.9394 22.8499 79.0494 23.1199 79.0494 23.4499C79.0494 23.7799 78.9394 24.0499 78.7094 24.2799C78.4794 24.5099 78.2094 24.6299 77.8794 24.6499C76.1394 24.7199 74.1094 26.2899 74.1094 29.6699V35.7099C74.1094 36.1299 73.9594 36.4799 73.6794 36.7699H73.6594Z" fill="#221E1F"/>
<path id="Vector_6" d="M89.8793 27.9599C89.5693 27.9599 89.2993 27.8499 89.0793 27.6199C88.8493 27.3899 88.7393 27.1299 88.7393 26.8199C88.7393 26.5099 88.8493 26.2499 89.0793 26.0199C89.3093 25.7899 89.5693 25.6799 89.8793 25.6799H97.0693C97.3793 25.6799 97.6393 25.7899 97.8693 26.0199C98.0993 26.2499 98.2093 26.5099 98.2093 26.8199C98.2093 27.1299 98.0993 27.3999 97.8693 27.6199C97.6393 27.8499 97.3793 27.9599 97.0693 27.9599H89.8793Z" fill="#221E1F"/>
<path id="Vector_7" d="M104.96 37.2498C103.37 37.2498 102.2 36.8098 101.46 35.9298C100.72 35.0498 100.35 33.5898 100.35 31.5398V24.2298C100.35 23.8498 100.49 23.5198 100.76 23.2498C101.03 22.9798 101.36 22.8398 101.74 22.8398C102.12 22.8398 102.45 22.9798 102.73 23.2498C103.01 23.5198 103.15 23.8498 103.15 24.2298V31.1298C103.15 32.6298 103.35 33.6698 103.75 34.2298C104.15 34.7898 104.83 35.0698 105.79 35.0698C106.64 35.0698 107.44 34.6898 108.19 33.9398C108.94 33.1898 109.51 32.3898 109.51 31.5398V24.2598C109.51 23.8598 109.65 23.5298 109.93 23.2598C110.21 22.9898 110.55 22.8498 110.95 22.8498C111.35 22.8498 111.68 22.9898 111.96 23.2598C112.24 23.5298 112.37 23.8698 112.37 24.2598V35.6398C112.37 35.9998 112.24 36.3098 111.98 36.5798C111.72 36.8398 111.4 36.9698 111.04 36.9698C110.68 36.9698 110.36 36.8398 110.09 36.5798C109.82 36.3198 109.67 36.0098 109.66 35.6398V35.2298C109.66 35.2298 109.66 35.1998 109.63 35.1998C109.6 35.1998 109.59 35.1998 109.58 35.2298C108.29 36.5698 106.64 37.2398 104.99 37.2398L104.96 37.2498Z" fill="#221E1F"/>
<path id="Vector_8" d="M117.91 41.8898C117.63 42.1598 117.29 42.2998 116.89 42.2998C116.49 42.2998 116.16 42.1598 115.88 41.8898C115.61 41.6198 115.47 41.2798 115.47 40.8898V24.1898C115.47 23.8298 115.6 23.5198 115.86 23.2498C116.12 22.9898 116.43 22.8598 116.8 22.8598C117.17 22.8598 117.48 22.9898 117.75 23.2498C118.02 23.5098 118.17 23.8298 118.18 24.1898V24.5998C118.18 24.5998 118.18 24.6298 118.21 24.6298C118.24 24.6298 118.25 24.6298 118.26 24.5998C118.93 23.8598 119.59 23.3398 120.24 23.0398C120.89 22.7398 121.65 22.5898 122.52 22.5898C124.24 22.5898 125.62 23.2298 126.66 24.5198C127.7 25.8098 128.22 27.6098 128.22 29.9298C128.22 32.2498 127.68 33.9598 126.6 35.2798C125.52 36.5998 124.16 37.2598 122.51 37.2598C120.86 37.2598 119.52 36.6798 118.38 35.5198C118.36 35.4998 118.34 35.4898 118.33 35.4898C118.32 35.4898 118.3 35.4898 118.3 35.5198V40.8898C118.3 41.2898 118.16 41.6198 117.88 41.8898H117.91ZM118.33 27.8798V31.9498C118.33 32.7798 118.68 33.5098 119.38 34.1398C120.08 34.7598 120.91 35.0798 121.87 35.0798C122.96 35.0798 123.82 34.6498 124.45 33.7798C125.08 32.9098 125.4 31.6298 125.4 29.9198C125.4 26.4798 124.22 24.7598 121.87 24.7598C120.91 24.7598 120.08 25.0698 119.38 25.6998C118.68 26.3198 118.33 27.0498 118.33 27.8898V27.8798Z" fill="#221E1F"/>
</g>
<g id="Group_2">
<path id="Vector_9" d="M135.02 38.95C134.56 38.95 134.16 38.78 133.82 38.44C133.48 38.1 133.31 37.7 133.31 37.24V18.72C133.31 18.26 133.48 17.86 133.82 17.52C134.16 17.18 134.56 17.01 135.02 17.01H136.49C137.63 17.01 138.46 17.51 138.99 18.51L145.3 30.45C145.3 30.45 145.3 30.48 145.33 30.48C145.36 30.48 145.36 30.48 145.36 30.45V18.72C145.36 18.26 145.53 17.86 145.87 17.52C146.21 17.18 146.61 17.01 147.07 17.01H148.54C149 17.01 149.4 17.18 149.74 17.52C150.08 17.86 150.25 18.26 150.25 18.72V37.24C150.25 37.7 150.08 38.1 149.74 38.44C149.4 38.78 149 38.95 148.54 38.95H147.07C145.93 38.95 145.1 38.45 144.57 37.45L138.26 25.51C138.26 25.51 138.25 25.48 138.23 25.48C138.21 25.48 138.2 25.49 138.2 25.51V37.24C138.2 37.7 138.03 38.1 137.69 38.44C137.35 38.78 136.95 38.95 136.49 38.95H135.02Z" fill="#221E1F"/>
<path id="Vector_10" d="M154.11 38.95C153.65 38.95 153.25 38.78 152.92 38.44C152.59 38.1 152.42 37.7 152.42 37.24V18.72C152.42 18.26 152.59 17.86 152.92 17.52C153.25 17.18 153.65 17.01 154.11 17.01H165.53C165.99 17.01 166.39 17.18 166.72 17.52C167.05 17.86 167.22 18.26 167.22 18.72V19.41C167.22 19.87 167.05 20.27 166.72 20.61C166.39 20.95 165.99 21.12 165.53 21.12H157.78C157.62 21.12 157.54 21.2 157.54 21.36V25.33C157.54 25.51 157.62 25.6 157.78 25.6H164.15C164.61 25.6 165.01 25.77 165.34 26.11C165.67 26.45 165.84 26.85 165.84 27.31V27.76C165.84 28.22 165.67 28.62 165.34 28.96C165.01 29.3 164.61 29.47 164.15 29.47H157.78C157.62 29.47 157.54 29.55 157.54 29.71V34.58C157.54 34.74 157.62 34.82 157.78 34.82H165.46C165.92 34.82 166.32 34.99 166.65 35.33C166.98 35.67 167.15 36.07 167.15 36.53V37.22C167.15 37.68 166.98 38.08 166.65 38.42C166.32 38.76 165.92 38.93 165.46 38.93H154.11V38.95Z" fill="#221E1F"/>
<path id="Vector_11" d="M175.41 30.17C172.88 29.37 171.06 28.37 169.94 27.18C168.82 25.99 168.26 24.53 168.26 22.81C168.26 20.93 168.92 19.44 170.23 18.34C171.54 17.25 173.42 16.7 175.87 16.7C177.71 16.7 179.39 16.91 180.89 17.33C181.37 17.47 181.76 17.76 182.05 18.19C182.34 18.62 182.49 19.1 182.49 19.62V20.49C182.49 20.89 182.32 21.2 181.98 21.42C181.64 21.64 181.28 21.68 180.9 21.54C179.2 20.94 177.62 20.64 176.18 20.64C174.34 20.64 173.41 21.36 173.41 22.81C173.41 24.03 174.21 24.9 175.82 25.43C178.59 26.27 180.51 27.25 181.58 28.38C182.65 29.5 183.19 30.98 183.19 32.8C183.19 37.11 180.47 39.26 175.04 39.26C173.32 39.26 171.75 38.99 170.35 38.4499C169.87 38.2699 169.49 37.95 169.22 37.5C168.95 37.05 168.81 36.55 168.81 36.01V35.05C168.81 34.69 168.97 34.41 169.29 34.2199C169.61 34.0299 169.93 34.01 170.25 34.17C171.71 34.8899 173.21 35.25 174.73 35.25C175.79 35.25 176.6 35.0399 177.15 34.6299C177.7 34.2199 177.98 33.63 177.98 32.87C177.98 32.21 177.79 31.67 177.41 31.25C177.03 30.83 176.37 30.47 175.43 30.17H175.41Z" fill="#221E1F"/>
<path id="Vector_12" d="M184.88 21.24C184.42 21.24 184.02 21.07 183.68 20.73C183.34 20.39 183.17 19.99 183.17 19.53V18.72C183.17 18.26 183.34 17.86 183.68 17.52C184.02 17.18 184.42 17.01 184.88 17.01H198.29C198.75 17.01 199.15 17.18 199.49 17.52C199.83 17.86 200 18.26 200 18.72V19.53C200 19.99 199.83 20.39 199.49 20.73C199.15 21.07 198.75 21.24 198.29 21.24H194.44C194.28 21.24 194.2 21.32 194.2 21.48V37.24C194.2 37.7 194.03 38.1 193.69 38.44C193.35 38.78 192.95 38.95 192.49 38.95H190.69C190.23 38.95 189.83 38.78 189.49 38.44C189.15 38.1 188.98 37.7 188.98 37.24V21.48C188.98 21.32 188.9 21.24 188.74 21.24H184.89H184.88Z" fill="#221E1F"/>
</g>
<path id="Vector_13" d="M14.3798 11.38L19.0098 15.92C21.2598 18.12 25.0498 16.53 25.0498 13.38V4.33996C25.0498 1.18996 21.2598 -0.400039 19.0098 1.79996L14.3798 6.33996C12.9698 7.72996 12.9698 9.99996 14.3798 11.39V11.38Z" fill="#EC008C"/>
<path id="Vector_14" d="M20.9503 49.5299L16.3203 54.0699C14.0703 56.2699 10.2803 54.6799 10.2803 51.5299V42.4899C10.2803 39.3399 14.0703 37.7499 16.3203 39.9499L20.9503 44.4899C22.3603 45.8799 22.3603 48.1499 20.9503 49.5399V49.5299Z" fill="#38B549"/>
<path id="Vector_15" d="M23.0201 23.2399L12.6601 33.3899C12.1901 33.8499 12.1901 34.6199 12.6601 35.0799L23.0201 45.2299C23.7701 45.9699 25.0401 45.4299 25.0401 44.3799V24.0999C25.0401 23.0499 23.7701 22.5099 23.0201 23.2499V23.2399Z" fill="#F7941C"/>
<path id="Vector_16" d="M0.34957 20.7099C-0.12043 21.1699 -0.12043 21.9199 0.34957 22.3799L10.2796 32.0999V10.9899L0.34957 20.7099Z" fill="#27AAE1"/>
<path id="Vector_17" d="M22.6703 22.3799C23.1403 21.9199 23.1403 21.1699 22.6703 20.7099L12.3303 10.5899C11.8703 10.1399 11.1503 10.1399 10.6903 10.5899L10.2803 10.9899V32.0999L10.6903 32.4999C11.1503 32.9499 11.8703 32.9499 12.3303 32.4999L22.6703 22.3799Z" fill="#662C91"/>
</g>
<defs>
<clipPath id="clip0_1271_20089">
<rect width="200" height="54.3" fill="white" transform="translate(0 0.779907)"/>
</clipPath>
</defs>
</svg>
