<svg width="200" height="43" viewBox="0 0 200 43" fill="none" xmlns="http://www.w3.org/2000/svg">
<g id="_&#235;&#160;&#136;&#236;&#157;&#180;&#236;&#150;&#180;_1" clip-path="url(#clip0_1271_19934)">
<path id="Vector" d="M48.8799 36H49.8399V38.82H49.8599L51.8299 36H52.7999L50.6799 38.91L53.0299 42.38H51.8899L49.8599 39.29H49.8399V42.38H48.8799V36.01V36Z" fill="#787A7C"/>
<path id="Vector_2" d="M55.3296 39.18C55.3296 38.05 55.4796 36.44 56.6596 36.44C57.8396 36.44 57.9996 38.05 57.9996 39.18C57.9996 40.31 57.8396 41.91 56.6596 41.91C55.4796 41.91 55.3296 40.31 55.3296 39.18ZM56.6496 42.47C58.3396 42.47 59.0096 41.09 59.0096 39.18C59.0096 37.27 58.3396 35.89 56.6496 35.89C54.9596 35.89 54.3096 37.27 54.3096 39.18C54.3096 41.09 54.9596 42.47 56.6496 42.47Z" fill="#787A7C"/>
<path id="Vector_3" d="M62.4602 36.6H62.8202C63.7302 36.6 64.2002 36.85 64.2002 37.71C64.2002 38.71 63.4302 38.92 62.8202 38.92H62.4602V36.6ZM61.4902 42.36H62.4502V39.53H62.8102C63.7502 39.53 63.9202 40.12 64.0502 40.66L64.3902 42.36H65.3602L65.0402 40.71C64.9002 39.97 64.7702 39.33 63.8602 39.16V39.14C64.3802 39.03 65.1502 38.68 65.1502 37.66C65.1502 36.14 63.8302 35.99 62.8102 35.99H61.4902V42.35V42.36Z" fill="#787A7C"/>
<path id="Vector_4" d="M67.7402 36H70.9102V36.62H68.7002V38.76H70.7902V39.37H68.7002V41.72H70.9802V42.38H67.7402V36.01V36Z" fill="#787A7C"/>
<path id="Vector_5" d="M74.8101 36.91H74.8301L75.6801 39.86H73.9601L74.8101 36.91ZM72.3801 42.36H73.2201L73.7701 40.47H75.8501L76.4001 42.36H77.4001L75.3801 36H74.3801L72.3701 42.36H72.3801Z" fill="#787A7C"/>
<path id="Vector_6" d="M86.3597 42.06C86.0297 42.26 85.5297 42.46 84.7497 42.46C82.8897 42.46 82.2197 40.85 82.2197 39.05C82.2197 37.51 82.7497 35.88 84.5897 35.88C85.9297 35.88 86.5997 36.67 86.5997 37.71H85.4897C85.4897 37.19 85.3197 36.43 84.5197 36.43C83.4197 36.43 83.2497 37.99 83.2497 38.88C83.2497 40.31 83.5697 41.79 84.9197 41.79C85.6497 41.79 86.1097 41.38 86.3697 41.18V42.05L86.3597 42.06Z" fill="#787A7C"/>
<path id="Vector_7" d="M89.5601 36.6H89.9201C90.8301 36.6 91.3001 36.85 91.3001 37.71C91.3001 38.71 90.5301 38.92 89.9201 38.92H89.5601V36.6ZM88.5901 42.36H89.5501V39.53H89.9101C90.8401 39.53 91.0201 40.12 91.1501 40.66L91.4801 42.36H92.4501L92.1201 40.71C91.9701 39.97 91.8501 39.33 90.9501 39.16V39.14C91.4601 39.03 92.2401 38.68 92.2401 37.66C92.2401 36.14 90.9101 35.99 89.9001 35.99H88.5801V42.35L88.5901 42.36Z" fill="#787A7C"/>
<path id="Vector_8" d="M94.8401 36H98.0101V36.62H95.7901V38.76H97.8801V39.37H95.7901V41.72H98.0801V42.38H94.8301V36.01L94.8401 36Z" fill="#787A7C"/>
<path id="Vector_9" d="M101.14 36.6H101.53C102.53 36.6 103.3 36.87 103.3 39.11C103.3 40.82 103.01 41.75 101.53 41.75H101.14V36.6ZM100.18 42.36H101.53C103.19 42.36 104.26 41.76 104.26 39.11C104.26 36.46 103.18 35.99 101.53 35.99H100.18V42.36Z" fill="#787A7C"/>
<path id="Vector_10" d="M106.62 36H107.58V42.37H106.62V36Z" fill="#787A7C"/>
<path id="Vector_11" d="M110.99 36.6H109.53V35.99H113.41V36.6H111.95V42.36H110.99V36.6Z" fill="#787A7C"/>
<path id="Vector_12" d="M122.23 41.86C121.83 42.12 121.27 42.47 120.35 42.47C118.5 42.47 117.81 40.92 117.81 39.03C117.81 37.34 118.33 35.9 120.15 35.9C121.79 35.9 122.17 36.86 122.23 37.71H121.11C121.11 37.05 120.91 36.46 120.15 36.46C118.93 36.46 118.83 38.02 118.83 39.04C118.83 40.64 119.16 41.92 120.45 41.92C120.79 41.92 121.09 41.79 121.26 41.6V39.34H120.07V38.73H122.22V41.87L122.23 41.86Z" fill="#787A7C"/>
<path id="Vector_13" d="M128.86 40.1C128.86 41.27 128.68 42.46 126.82 42.46C124.96 42.46 124.78 41.26 124.78 40.1V35.99H125.74V40.1C125.74 41.11 125.81 41.91 126.82 41.91C127.83 41.91 127.91 41.12 127.91 40.1V35.99H128.87V40.1H128.86Z" fill="#787A7C"/>
<path id="Vector_14" d="M132.88 36.91H132.9L133.74 39.86H132.03L132.88 36.91ZM130.44 42.36H131.29L131.84 40.47H133.92L134.47 42.36H135.46L133.44 36H132.44L130.43 42.36H130.44Z" fill="#787A7C"/>
<path id="Vector_15" d="M138.25 36.6H138.6C139.51 36.6 139.98 36.85 139.98 37.71C139.98 38.71 139.21 38.92 138.6 38.92H138.25V36.6ZM137.28 42.36H138.24V39.53H138.59C139.52 39.53 139.7 40.12 139.83 40.66L140.17 42.36H141.13L140.81 40.71C140.66 39.97 140.54 39.33 139.64 39.16V39.14C140.15 39.03 140.93 38.68 140.93 37.66C140.93 36.14 139.61 35.99 138.59 35.99H137.27V42.35L137.28 42.36Z" fill="#787A7C"/>
<path id="Vector_16" d="M144.99 36.91H145.01L145.86 39.86H144.14L144.99 36.91ZM142.56 42.36H143.41L143.96 40.47H146.03L146.58 42.36H147.58L145.56 36H144.57L142.56 42.36Z" fill="#787A7C"/>
<path id="Vector_17" d="M149.4 36H150.47L152.86 41.04H152.87V36H153.67V42.37H152.67L150.21 37.18H150.19V42.37H149.39V36H149.4Z" fill="#787A7C"/>
<path id="Vector_18" d="M157.05 36.6H155.59V35.99H159.46V36.6H158V42.36H157.04V36.6H157.05Z" fill="#787A7C"/>
<path id="Vector_19" d="M161.38 36H164.56V36.62H162.34V38.76H164.43V39.37H162.34V41.72H164.63V42.38H161.38V36.01V36Z" fill="#787A7C"/>
<path id="Vector_20" d="M166.81 36H169.99V36.62H167.77V38.76H169.86V39.37H167.77V41.72H170.05V42.38H166.8V36.01L166.81 36Z" fill="#787A7C"/>
<path id="Vector_21" d="M175.36 36H178.43V36.62H176.32V38.76H178.32V39.37H176.32V42.38H175.36V36.02V36Z" fill="#787A7C"/>
<path id="Vector_22" d="M184.67 40.1C184.67 41.27 184.48 42.46 182.63 42.46C180.78 42.46 180.59 41.26 180.59 40.1V35.99H181.55V40.1C181.55 41.11 181.62 41.91 182.63 41.91C183.64 41.91 183.71 41.12 183.71 40.1V35.99H184.67V40.1Z" fill="#787A7C"/>
<path id="Vector_23" d="M187.39 36H188.45L190.84 41.04H190.86V36H191.65V42.37H190.66L188.2 37.18H188.18V42.37H187.39V36Z" fill="#787A7C"/>
<path id="Vector_24" d="M195.4 36.6H195.79C196.8 36.6 197.56 36.87 197.56 39.11C197.56 40.82 197.27 41.75 195.79 41.75H195.4V36.6ZM194.44 42.36H195.79C197.45 42.36 198.52 41.76 198.52 39.11C198.52 36.46 197.44 35.99 195.79 35.99H194.44V42.36Z" fill="#787A7C"/>
<path id="Vector_25" d="M36.4602 11.39C36.4602 6.28 32.5002 2.13 27.6202 2.13H20.9902V20.63H26.6502C26.6802 20.38 26.6902 20.14 26.6902 19.89C26.6902 19.07 26.5302 18.29 26.2302 17.55C26.2002 17.46 26.1602 17.38 26.1202 17.3H24.6702V5.47001H26.9702C30.1202 5.47001 32.6802 8.12001 32.6802 11.39C32.6802 13.25 31.8502 14.92 30.5502 16.01C31.0402 17.22 31.2902 18.49 31.3002 19.81C34.3402 18.34 36.4602 15.13 36.4602 11.4V11.39Z" fill="#0B73B9"/>
<path id="Vector_26" d="M41.6204 2.14001H37.9404V20.63H41.6204V2.14001Z" fill="#0B73B9"/>
<path id="Vector_27" d="M57.0898 2.14001H43.0898V5.47001H48.2398V20.64H51.9298V5.47001H57.0898V2.14001Z" fill="#0B73B9"/>
<path id="Vector_28" d="M25.05 10.77V15.2C26.29 16.36 27.07 18.03 27.07 19.9C27.07 23.37 24.35 26.18 20.99 26.18C17.63 26.18 14.91 23.36 14.91 19.9C14.91 16.44 17.44 13.82 20.62 13.62V9.92002C16.66 10.07 13.29 12.54 11.82 16.02L6.81 11.21L15.47 2.14001H10.5L3.68 9.35001V2.14001H0V20.63H3.68V13.05L11.08 20.66C11.47 25.82 15.76 29.87 21 29.87C26.49 29.87 30.95 25.4 30.95 19.89C30.95 15.83 28.53 12.32 25.06 10.76L25.05 10.77Z" fill="#88B927"/>
<path id="Vector_29" d="M83.7099 1.70001H80.3799V19.75H83.7099V1.70001Z" fill="#787A7C"/>
<path id="Vector_30" d="M119.29 17.07V23.99H110.99V27.09H131.62V23.99H122.68V17.07H129.95V2.37H126.62V6.38H115.97V2.37H112.64V17.07H119.28H119.29ZM115.98 9.45H126.63V13.96H115.98V9.45Z" fill="#787A7C"/>
<path id="Vector_31" d="M83.9102 28.43V25.32H71.0602V18.41H67.7402V28.43H83.9102Z" fill="#787A7C"/>
<path id="Vector_32" d="M104.01 10.45C105.7 9.49 106.67 8 106.67 6.04999C106.67 2.35999 103.27 0.369995 98.0103 0.369995C92.7503 0.369995 89.3603 2.35999 89.3603 6.04999C89.3603 8.00999 90.3303 9.49 92.0203 10.45V13.66H87.5303V16.73H108.49V13.66H104V10.45H104.01ZM98.0103 3.35C101.19 3.35 103.24 4.29999 103.24 6.04999C103.24 7.79999 101.19 8.74 98.0103 8.74C94.8303 8.74 92.7903 7.79 92.7903 6.04999C92.7903 4.30999 94.8403 3.35 98.0103 3.35ZM95.3503 11.53C96.1703 11.66 97.0603 11.72 98.0103 11.72C98.9603 11.72 99.8503 11.66 100.67 11.53V13.67H95.3503V11.53Z" fill="#787A7C"/>
<path id="Vector_33" d="M75.6703 16.78L78.5103 14.72C78.5103 14.72 72.8803 8.83996 72.3903 2.01996H69.1903C68.6903 8.84996 63.0703 14.72 63.0703 14.72L65.9203 16.78C65.9203 16.78 68.9103 13.65 70.7903 8.69996C72.6703 13.66 75.6703 16.78 75.6703 16.78Z" fill="#787A7C"/>
<path id="Vector_34" d="M180.86 28.43H198.16V17.73H180.86V28.43ZM194.84 25.32H184.19V20.84H194.84V25.32Z" fill="#787A7C"/>
<path id="Vector_35" d="M98.0101 18.07C92.4601 18.07 88.8701 20.13 88.8701 23.92C88.8701 27.71 92.4601 29.77 98.0101 29.77C103.56 29.77 107.16 27.72 107.16 23.92C107.16 20.12 103.57 18.07 98.0101 18.07ZM98.0101 26.81C94.5401 26.81 92.2901 25.79 92.2901 23.92C92.2901 22.05 94.5301 21.03 98.0101 21.03C101.49 21.03 103.74 22.04 103.74 23.92C103.74 25.8 101.49 26.81 98.0101 26.81Z" fill="#787A7C"/>
<path id="Vector_36" d="M155.08 13.66H134.12V16.73H155.08V13.66Z" fill="#787A7C"/>
<path id="Vector_37" d="M144.6 18.07C139.05 18.07 135.45 20.13 135.45 23.92C135.45 27.71 139.04 29.77 144.6 29.77C150.16 29.77 153.75 27.72 153.75 23.92C153.75 20.12 150.16 18.07 144.6 18.07ZM144.6 26.81C141.12 26.81 138.88 25.79 138.88 23.92C138.88 22.05 141.12 21.03 144.6 21.03C148.08 21.03 150.32 22.04 150.32 23.92C150.32 25.8 148.07 26.81 144.6 26.81Z" fill="#787A7C"/>
<path id="Vector_38" d="M197.83 2.02997H181.19V5.13997H194.5V6.80997C194.5 8.88997 194.24 10.81 194.1 11.73H179.03V14.81H199.99V11.73H197.28C197.48 10.72 197.83 8.68997 197.83 6.80997V2.02997Z" fill="#787A7C"/>
<path id="Vector_39" d="M134.92 9.68997L137.02 12.39C137.02 12.39 141.36 11.05 144.6 7.59997C147.85 11.05 152.19 12.39 152.19 12.39L154.29 9.68997C149.67 8.25997 147.35 5.74997 146.75 5.03997H153.15V2.02997H136.05V5.03997H142.45C141.86 5.74997 139.53 8.24997 134.92 9.67997V9.68997Z" fill="#787A7C"/>
<path id="Vector_40" d="M176.21 1.70001H172.88V28.78H176.21V1.70001Z" fill="#787A7C"/>
<path id="Vector_41" d="M157.57 5.45001H166.05C165.54 13.88 157.39 20.18 156.34 20.96L158.91 23.22C158.91 23.22 169.89 15.93 169.89 2.38H157.57V5.46V5.45001Z" fill="#787A7C"/>
</g>
<defs>
<clipPath id="clip0_1271_19934">
<rect width="200" height="42.11" fill="white" transform="translate(0 0.359985)"/>
</clipPath>
</defs>
</svg>
