<svg width="149" height="50" viewBox="0 0 149 50" fill="none" xmlns="http://www.w3.org/2000/svg">
<rect width="149" height="50" fill="#CECECE"/>
<g id="Homepage_WideDesktop">
<rect width="1920" height="10664.8" transform="translate(-405 -8437.99)" fill="white"/>
<g id="Housing">
<mask id="path-1-inside-1_44_2494" fill="white">
<path d="M-405 -3161.99H1515V538H-405V-3161.99Z"/>
</mask>
<path d="M-405 -3161.99H1515V538H-405V-3161.99Z" fill="#FAFBFC"/>
<path d="M-405 -3161.99V-3160.99H1515V-3161.99V-3162.99H-405V-3161.99ZM1515 538V537H-405V538V539H1515V538Z" fill="#EEF1F4" mask="url(#path-1-inside-1_44_2494)"/>
<g id="Housing-CaseStudies">
<g id="Case3-GS&#237;&#143;&#172;&#236;&#138;&#164;&#236;&#189;&#148;">
<mask id="path-3-inside-2_44_2494" fill="white">
<path d="M-65 -21C-65 -29.8366 -57.8366 -37 -49 -37H1159C1167.84 -37 1175 -29.8366 1175 -21V417C1175 425.837 1167.84 433 1159 433H-49C-57.8366 433 -65 425.837 -65 417V-21Z"/>
</mask>
<path d="M-65 -21C-65 -29.8366 -57.8366 -37 -49 -37H1159C1167.84 -37 1175 -29.8366 1175 -21V417C1175 425.837 1167.84 433 1159 433H-49C-57.8366 433 -65 425.837 -65 417V-21Z" fill="white"/>
<path d="M-49 -37V-36H1159V-37V-38H-49V-37ZM1175 -21H1174V417H1175H1176V-21H1175ZM1159 433V432H-49V433V434H1159V433ZM-65 417H-64V-21H-65H-66V417H-65ZM-49 433V432C-57.2843 432 -64 425.284 -64 417H-65H-66C-66 426.389 -58.3889 434 -49 434V433ZM1175 417H1174C1174 425.284 1167.28 432 1159 432V433V434C1168.39 434 1176 426.389 1176 417H1175ZM1159 -37V-36C1167.28 -36 1174 -29.2843 1174 -21H1175H1176C1176 -30.3888 1168.39 -38 1159 -38V-37ZM-49 -37V-38C-58.3888 -38 -66 -30.3888 -66 -21H-65H-64C-64 -29.2843 -57.2843 -36 -49 -36V-37Z" fill="#E6EBF0" mask="url(#path-3-inside-2_44_2494)"/>
<g id="Frame 90">
<g id="Container">
<g id="gs&#234;&#177;&#180;&#236;&#132;&#164; 1" clip-path="url(#clip0_44_2494)">
<g id="Layer 1">
<g id="Group">
<g id="Group_2">
<path id="Vector" d="M5.23037 13.3162L3.44323 11.3467C1.251 15.0834 0 19.4212 0 23.8363H1.23313C1.23313 19.7068 2.67476 15.9522 5.23037 13.3162Z" fill="url(#paint0_linear_44_2494)"/>
<path id="Vector_2" d="M4.90868 32.673C2.6688 30.5547 1.23313 27.6866 1.23313 23.8606V23.8428H0C0 28.3293 0.804214 32.5004 2.38286 36.136L4.90868 32.6789V32.673Z" fill="url(#paint1_linear_44_2494)"/>
<path id="Vector_3" d="M44.1665 20.6533L41.873 23.0156C45.0482 23.0632 46.9962 25.5087 46.9247 28.6326H48.1578C48.1578 25.5504 46.7102 22.7538 44.1606 20.6533H44.1665Z" fill="url(#paint2_linear_44_2494)"/>
<path id="Vector_4" d="M48.1641 28.6328H46.9309C46.8714 31.2033 45.4953 33.3573 42.4512 34.9579L45.668 39.3849C47.2348 36.4872 48.1641 32.9348 48.1641 28.6328Z" fill="url(#paint3_linear_44_2494)"/>
<path id="Vector_5" d="M6.51787 20.2423C6.42852 20.7183 6.38086 21.2063 6.38086 21.712C6.38086 29.0666 11.8674 33.7673 18.8015 33.7673C31.9727 33.7673 35.8866 23.0151 41.7841 23.0151C41.8139 23.0151 41.8437 23.0151 41.8735 23.0151L44.167 20.6529C41.3195 18.3144 37.0959 16.8447 31.9727 16.8447C21.5418 16.8447 15.9897 25.544 11.2538 25.544C9.19263 25.544 7.61399 23.2829 7.61399 21.0932C7.61399 20.8671 7.63186 20.6469 7.64973 20.4268L6.51192 20.2364L6.51787 20.2423Z" fill="url(#paint4_linear_44_2494)"/>
<path id="Vector_6" d="M14.6786 9.44901C22.2919 9.44901 27.5758 15.2029 34.3729 15.2029C42.5223 15.2029 47.0259 11.24 48.1578 3.4928L46.9246 3.29049C46.5791 5.34333 45.2447 7.80674 42.844 7.80674C40.5803 7.80674 38.1795 5.81935 34.6827 3.90337C31.1799 1.91598 27.1648 0 22.1608 0C14.1008 0 7.30368 4.74235 3.4375 11.3412L5.22464 13.3107C7.53601 10.9187 10.7648 9.44901 14.6786 9.44901Z" fill="url(#paint5_linear_44_2494)"/>
<path id="Vector_7" d="M22.6371 38.0816C16.7395 38.0816 9.28714 36.8083 4.90864 32.6729L2.38281 36.13C6.01667 44.4782 13.7729 50 25.3833 50C33.0621 50 41.551 46.9654 45.6614 39.3847L42.4446 34.9577C38.6618 36.9451 32.2936 38.0816 22.6371 38.0816Z" fill="url(#paint6_linear_44_2494)"/>
</g>
<g id="Group_3">
<g id="Group_4">
<path id="Vector_8" d="M68.3993 37.4096C60.7742 37.4096 56.5625 32.4055 56.5625 24.9974C56.5625 17.5893 61.1257 12.5078 68.5423 12.5078C71.503 12.5078 73.9752 13.204 75.8875 14.281L75.0892 19.4637C73.2782 18.3153 71.1515 17.4168 68.6793 17.4168C64.5332 17.4168 62.5196 20.4752 62.5196 24.9617C62.5196 29.4482 64.6106 32.6494 68.7508 32.6494C70.0733 32.6494 71.0145 32.4055 71.9915 31.8818V27.6036H67.8155L67.1186 23.1885H77.1861V34.8748C74.6782 36.5111 71.7175 37.4096 68.4113 37.4096" fill="#0069B4"/>
<path id="Vector_9" d="M88.5948 37.2373C85.3541 37.2373 82.6436 36.5411 80.2012 35.4284L81.0709 30.3528C83.5431 31.6738 86.2953 32.5782 88.6961 32.5782C90.3998 32.5782 91.5853 31.8463 91.5853 30.4242C91.5853 29.0021 90.8883 28.4369 87.5106 27.1516C82.7091 25.307 80.6182 23.7421 80.6182 19.7792C80.6182 15.1559 84.2401 12.6865 88.8331 12.6865C91.9725 12.6865 93.9919 13.2815 96.0769 14.2871L95.1715 19.2973C93.015 18.0418 90.7513 17.3515 88.9046 17.3515C87.0578 17.3515 86.2238 18.1132 86.2238 19.2259C86.2238 20.4397 86.8851 21.0347 89.8756 22.1831C95.1059 24.0932 97.1909 25.902 97.1909 29.7281C97.1909 34.9464 93.3605 37.2373 88.5888 37.2373" fill="#0069B4"/>
</g>
<g id="Group_5">
<g id="Group_6">
<path id="Vector_10" d="M124.129 29.3228V13.1143H121.55V18.9039H116.141V21.2185H121.55V29.3228H124.129Z" fill="#93989C"/>
<path id="Vector_11" d="M116.736 13.6261H105.065V15.9407H113.542C112.303 20.7485 108.521 23.2179 103.576 24.402L104.809 26.3834C110.582 24.8899 115.913 21.4447 116.736 13.6201V13.6261Z" fill="#93989C"/>
<path id="Vector_12" d="M110.988 27.7813H108.414V35.4988C108.414 36.195 109.01 36.7841 109.701 36.7841H124.385V34.4694H110.988V27.7754V27.7813Z" fill="#93989C"/>
</g>
<g id="Group_7">
<path id="Vector_13" d="M148.867 24.9493V13.1143H146.294V16.3333H140.885V18.648H146.294V24.9493H148.867Z" fill="#93989C"/>
<path id="Vector_14" d="M135.011 20.0879C136.531 22.4025 138.925 23.9496 141.505 24.7231L142.744 22.7655C139.217 21.7599 136.358 19.7308 136.358 15.2503V13.376H133.677V15.2503C133.677 19.7308 130.818 21.7599 127.291 22.7655L128.524 24.7231C131.098 23.9496 133.492 22.4085 135.017 20.0879H135.011Z" fill="#93989C"/>
<path id="Vector_15" d="M135.476 32.3334H148.868V25.9785H132.766V28.2158H146.294V30.221H132.897V35.4989C132.897 36.1951 133.486 36.7842 134.183 36.7842H148.993V34.5469H135.47V32.3334H135.476Z" fill="#93989C"/>
</g>
</g>
</g>
</g>
</g>
</g>
</g>
</g>
</g>
</g>
</g>
</g>
<defs>
<linearGradient id="paint0_linear_44_2494" x1="5.94523" y1="13.9886" x2="-1.35573" y2="21.298" gradientUnits="userSpaceOnUse">
<stop stop-color="#F6BF00"/>
<stop offset="1" stop-color="#C9C61B"/>
</linearGradient>
<linearGradient id="paint1_linear_44_2494" x1="-1.56077" y1="26.6156" x2="4.69889" y2="32.8825" gradientUnits="userSpaceOnUse">
<stop stop-color="#C9C61B"/>
<stop offset="1" stop-color="#80BD2E"/>
</linearGradient>
<linearGradient id="paint2_linear_44_2494" x1="42.9036" y1="21.9564" x2="48.2232" y2="27.2881" gradientUnits="userSpaceOnUse">
<stop stop-color="#7ECBF1"/>
<stop offset="1" stop-color="#00B0C3"/>
</linearGradient>
<linearGradient id="paint3_linear_44_2494" x1="49.284" y1="31.0189" x2="43.9109" y2="36.4041" gradientUnits="userSpaceOnUse">
<stop stop-color="#00B0C3"/>
<stop offset="1" stop-color="#009C96"/>
</linearGradient>
<linearGradient id="paint4_linear_44_2494" x1="9.03179" y1="25.306" x2="41.7841" y2="25.306" gradientUnits="userSpaceOnUse">
<stop stop-color="#0069B4"/>
<stop offset="1" stop-color="#7ECBF1"/>
</linearGradient>
<linearGradient id="paint5_linear_44_2494" x1="3.4375" y1="7.60443" x2="48.1637" y2="7.60443" gradientUnits="userSpaceOnUse">
<stop stop-color="#F6BF00"/>
<stop offset="0.63" stop-color="#EE8113"/>
<stop offset="1" stop-color="#EA621D"/>
</linearGradient>
<linearGradient id="paint6_linear_44_2494" x1="4.9146" y1="41.3364" x2="42.4446" y2="41.3364" gradientUnits="userSpaceOnUse">
<stop stop-color="#80BD2E"/>
<stop offset="1" stop-color="#009C96"/>
</linearGradient>
<clipPath id="clip0_44_2494">
<rect width="149" height="50" fill="white"/>
</clipPath>
</defs>
</svg>
