<svg width="102" height="68" viewBox="0 0 102 68" fill="none" xmlns="http://www.w3.org/2000/svg">
<path fill-rule="evenodd" clip-rule="evenodd" d="M19.2255 1.0656C19.1806 1.0656 19.1204 1.05045 19.0554 1.03045C18.9147 0.913234 18.6744 0.81544 18.4342 0.93457L2.86584 0.934757C2.47004 0.934757 2.20618 1.19645 2.20618 1.58899V19.6645H1.26718C0.956571 19.6645 0.75 19.9262 0.75 20.3187V32.9923C0.75 33.3848 0.956571 33.6465 1.26718 33.6465H2.20618V38.2261C2.20618 38.6186 2.47004 38.8804 2.86584 38.8804H29.2523C29.6481 38.8804 29.9121 38.6186 29.9121 38.2261V33.6465H30.2328C30.5434 33.6465 30.75 33.3848 30.75 32.9923V20.3187C30.75 19.9262 30.5434 19.6645 30.2328 19.6645H29.9121V12.1877C29.9121 11.9259 29.9121 11.7951 29.7801 11.6643L19.2255 1.0656ZM3.5255 33.6465H28.5927V37.5719H3.5255V33.6465ZM29.2609 32.338H29.7156V20.973H1.78435V32.338H2.85732C2.86015 32.338 2.86299 32.338 2.86584 32.338H29.2523C29.2553 32.338 29.2581 32.338 29.2609 32.338ZM3.5255 2.24323H18.0384V12.1874C18.0384 12.58 18.3023 12.8417 18.6981 12.8417H28.5927V19.6459H3.5255V2.24323ZM23.689 7.52278L19.3578 3.17138V11.5332H27.6695L23.689 7.52278Z" fill="#717880"/>
<path d="M6.95118 50.5655C7.80201 50.5655 8.52024 50.7238 9.10588 51.0406C9.6952 51.3537 10.1353 51.7864 10.4263 52.3389C10.721 52.8914 10.8683 53.5231 10.8683 54.234C10.8683 54.9448 10.721 55.5783 10.4263 56.1345C10.1317 56.687 9.68967 57.1216 9.10035 57.4384C8.51472 57.7551 7.79649 57.9135 6.94566 57.9135H4.62522V61.8804H2.90698V50.5655H6.95118ZM6.77439 56.4494C7.57365 56.4494 8.16665 56.2487 8.55339 55.8472C8.94382 55.4457 9.13903 54.908 9.13903 54.234C9.13903 53.5599 8.94382 53.0259 8.55339 52.6318C8.16665 52.2376 7.57181 52.0406 6.76886 52.0406H4.62522V56.4494H6.77439ZM19.5124 61.8804H12.6726V50.5655H14.3908V60.3997H19.5124V61.8804ZM23.6491 57.4439L19.5497 50.5655H21.5055L24.4502 55.6981H24.5718L27.5165 50.5655H29.4723L25.3729 57.4439V61.8804H23.6491V57.4439Z" fill="#1B1B1B"/>
<path fill-rule="evenodd" clip-rule="evenodd" d="M89.7255 1.0656C89.6806 1.0656 89.6204 1.05045 89.5554 1.03045C89.4147 0.913234 89.1744 0.81544 88.9342 0.93457L73.3658 0.934757C72.97 0.934757 72.7062 1.19645 72.7062 1.58899V19.6645H71.7672C71.4566 19.6645 71.25 19.9262 71.25 20.3187V32.9923C71.25 33.3848 71.4566 33.6465 71.7672 33.6465H72.7062V38.2261C72.7062 38.6186 72.97 38.8804 73.3658 38.8804H99.7523C100.148 38.8804 100.412 38.6186 100.412 38.2261V33.6465H100.733C101.043 33.6465 101.25 33.3848 101.25 32.9923V20.3187C101.25 19.9262 101.043 19.6645 100.733 19.6645H100.412V12.1877C100.412 11.9259 100.412 11.7951 100.28 11.6643L89.7255 1.0656ZM74.0255 33.6465H99.0927V37.5719H74.0255V33.6465ZM99.7609 32.338H100.216V20.973H72.2844V32.338H73.3573C73.3602 32.338 73.363 32.338 73.3658 32.338H99.7523C99.7553 32.338 99.7581 32.338 99.7609 32.338ZM74.0255 2.24323H88.5384V12.1874C88.5384 12.58 88.8023 12.8417 89.1981 12.8417H99.0927V19.6459H74.0255V2.24323ZM94.189 7.52278L89.8578 3.17138V11.5332H98.1695L94.189 7.52278Z" fill="#717880"/>
<path d="M73.4766 61.8804V50.5679H80.5703V52.0522H75.1953V55.4741H80.1953V56.9429H75.1953V60.396H80.6328V61.8804H73.4766ZM86.3672 62.0366C84.2266 62.0366 82.6172 60.7241 82.5391 58.9272H84.2109C84.3047 59.896 85.2266 60.5991 86.3672 60.5991C87.7422 60.5991 88.7266 59.5991 88.7266 58.2554C88.7266 56.8804 87.7109 55.8804 86.2891 55.8647C85.3828 55.8647 84.6953 56.1616 84.3047 56.8647H82.6797L83.4141 50.5679H89.8203V52.0366H84.8359L84.4609 55.2085H84.5703C85.0391 54.7554 85.8359 54.4429 86.6953 54.4429C88.8203 54.4429 90.3984 56.021 90.3984 58.2085C90.3984 60.4429 88.7266 62.0366 86.3672 62.0366ZM92.6172 61.8804L97.6641 52.1304V52.0366H91.8359V50.5679H99.4453V52.0991L94.4141 61.8804H92.6172Z" fill="#1B1B1B"/>
</svg>
