<svg width="101" height="68" viewBox="0 0 101 68" fill="none" xmlns="http://www.w3.org/2000/svg">
<path fill-rule="evenodd" clip-rule="evenodd" d="M18.7255 0.565605C18.6806 0.565605 18.6204 0.550449 18.5554 0.530453C18.4147 0.413234 18.1744 0.31544 17.9342 0.43457L2.36584 0.434757C1.97004 0.434757 1.70618 0.696451 1.70618 1.08899V19.1645H0.767177C0.456571 19.1645 0.25 19.4262 0.25 19.8187V32.4923C0.25 32.8848 0.456571 33.1465 0.767177 33.1465H1.70618V37.7261C1.70618 38.1186 1.97004 38.3804 2.36584 38.3804H28.7523C29.1481 38.3804 29.4121 38.1186 29.4121 37.7261V33.1465H29.7328C30.0434 33.1465 30.25 32.8848 30.25 32.4923V19.8187C30.25 19.4262 30.0434 19.1645 29.7328 19.1645H29.4121V11.6877C29.4121 11.4259 29.4121 11.2951 29.2801 11.1643L18.7255 0.565605ZM3.0255 33.1465H28.0927V37.0719H3.0255V33.1465ZM28.7609 31.838H29.2156V20.473H1.28435V31.838H2.35732C2.36015 31.838 2.36299 31.838 2.36584 31.838H28.7523C28.7553 31.838 28.7581 31.838 28.7609 31.838ZM3.0255 1.74323H17.5384V11.6874C17.5384 12.08 17.8023 12.3417 18.1981 12.3417H28.0927V19.1459H3.0255V1.74323ZM23.189 7.02278L18.8578 2.67138V11.0332H27.1695L23.189 7.02278Z" fill="#717880"/>
<path d="M2.42188 61.3804V50.0679H6.45312C9.07812 50.0679 10.375 51.646 10.375 53.7397C10.375 55.8179 9.07812 57.4116 6.45312 57.4116H4.14062V61.3804H2.42188ZM4.14062 55.9429H6.28125C7.95312 55.9429 8.64062 55.0054 8.64062 53.7397C8.64062 52.4585 7.95312 51.5366 6.28125 51.5366H4.14062V55.9429ZM12.1875 61.3804V50.0679H13.9062V59.896H19.0156V61.3804H12.1875ZM19.0469 50.0679H21L23.9375 55.1929H24.0625L27.0156 50.0679H28.9688L24.8594 56.9429V61.3804H23.1406V56.9429L19.0469 50.0679Z" fill="#1B1B1B"/>
<path fill-rule="evenodd" clip-rule="evenodd" d="M89.2255 0.565605C89.1806 0.565605 89.1204 0.550449 89.0554 0.530453C88.9147 0.413234 88.6744 0.31544 88.4342 0.43457L72.8658 0.434757C72.47 0.434757 72.2062 0.696451 72.2062 1.08899V19.1645H71.2672C70.9566 19.1645 70.75 19.4262 70.75 19.8187V32.4923C70.75 32.8848 70.9566 33.1465 71.2672 33.1465H72.2062V37.7261C72.2062 38.1186 72.47 38.3804 72.8658 38.3804H99.2523C99.6481 38.3804 99.9121 38.1186 99.9121 37.7261V33.1465H100.233C100.543 33.1465 100.75 32.8848 100.75 32.4923V19.8187C100.75 19.4262 100.543 19.1645 100.233 19.1645H99.9121V11.6877C99.9121 11.4259 99.9121 11.2951 99.7801 11.1643L89.2255 0.565605ZM73.5255 33.1465H98.5927V37.0719H73.5255V33.1465ZM99.2609 31.838H99.7156V20.473H71.7844V31.838H72.8573C72.8602 31.838 72.863 31.838 72.8658 31.838H99.2523C99.2553 31.838 99.2581 31.838 99.2609 31.838ZM73.5255 1.74323H88.0384V11.6874C88.0384 12.08 88.3023 12.3417 88.6981 12.3417H98.5927V19.1459H73.5255V1.74323ZM93.689 7.02278L89.3578 2.67138V11.0332H97.6695L93.689 7.02278Z" fill="#717880"/>
<path d="M81.6484 55.7241C81.6484 59.3335 79.4766 61.5366 76.5547 61.5366C73.6016 61.5366 71.4453 59.3335 71.4453 55.7241C71.4453 52.0991 73.6016 49.9116 76.5547 49.9116C79.4766 49.9116 81.6484 52.0991 81.6484 55.7241ZM79.9453 55.7241C79.9453 52.9741 78.4922 51.4897 76.5547 51.4897C74.6016 51.4897 73.1484 52.9741 73.1484 55.7241C73.1484 58.4741 74.6016 59.9585 76.5547 59.9585C78.4922 59.9585 79.9453 58.4741 79.9453 55.7241ZM83.5859 61.3804V50.0679H87.7266C90.1328 50.0679 91.3047 51.3647 91.3047 53.0366C91.3047 54.4429 90.4453 55.1616 89.3984 55.4272V55.5366C90.5234 55.5991 91.7422 56.5835 91.7422 58.3335C91.7422 60.0679 90.5547 61.3804 87.9141 61.3804H83.5859ZM87.7578 59.9116C89.3828 59.9116 90.0391 59.1929 90.0391 58.2554C90.0391 57.1772 89.1797 56.3022 87.8203 56.3022H85.3047V59.9116H87.7578ZM87.5859 54.9585C88.7266 54.9585 89.6172 54.2554 89.6172 53.1772C89.6172 52.2397 88.9766 51.5366 87.6172 51.5366H85.3047V54.9585H87.5859ZM97.9766 50.0679H99.6953V58.0835C99.6953 60.271 98.3203 61.5366 96.2422 61.5366C94.3203 61.5366 92.8828 60.4585 92.8828 58.5366H94.5859C94.6016 59.4897 95.3047 60.0679 96.2891 60.0679C97.3672 60.0679 97.9766 59.3804 97.9766 58.0835V50.0679Z" fill="#1B1B1B"/>
</svg>
