<?xml version="1.0" encoding="UTF-8"?>
<svg id="_레이어_1" data-name="레이어 1" xmlns="http://www.w3.org/2000/svg" viewBox="0 0 512 512">
  <defs>
    <style>
      .cls-1 {
        fill: #38beed;
      }

      .cls-2 {
        fill: #004592;
      }

      .cls-3 {
        fill: #006ade;
      }
    </style>
  </defs>
  <rect class="cls-1" x="176.71" y="0" width="335.29" height="158.58" rx="45.31" ry="45.31"/>
  <rect class="cls-3" x="0" y="0" width="308.11" height="312.64" rx="45.31" ry="45.31"/>
  <path class="cls-2" d="M308.11,0H45.31C20.29,0,0,20.29,0,45.31v222.02c0,25.02,20.29,45.31,45.31,45.31h67.96c25.02,0,45.31-20.29,45.31-45.31v-108.74h149.52c25.02,0,45.31-20.29,45.31-45.31V45.31c0-25.02-20.29-45.31-45.31-45.31Z"/>
  <path class="cls-2" d="M466.69,199.36h-222.02c-25.02,0-45.31,20.29-45.31,45.31v108.74H45.31c-25.02,0-45.31,20.29-45.31,45.31v67.96c0,25.02,20.29,45.31,45.31,45.31h421.38c25.02,0,45.31-20.29,45.31-45.31v-222.02c0-25.02-20.29-45.31-45.31-45.31Z"/>
  <path class="cls-1" d="M466.69,199.36h-90.62c-25.02,0-45.31,20.29-45.31,45.31v108.74h-149.52c-25.02,0-45.31,20.29-45.31,45.31v67.96c0,25.02,20.29,45.31,45.31,45.31h285.45c25.02,0,45.31-20.29,45.31-45.31v-222.02c0-25.02-20.29-45.31-45.31-45.31Z"/>
</svg>