<?xml version="1.0" encoding="UTF-8"?>
<svg id="_레이어_1" data-name="레이어 1" xmlns="http://www.w3.org/2000/svg" viewBox="0 0 500 281">
  <defs>
    <style>
      .cls-1 {
        fill: #38beed;
      }

      .cls-2 {
        fill: #fff;
      }

      .cls-3 {
        fill: #004592;
      }

      .cls-4 {
        fill: #006ade;
      }
    </style>
  </defs>
  <g>
    <path class="cls-2" d="M178.11,108.47h13.99c2.93,0,5.41.46,7.44,1.36,2.02.91,3.67,2.14,4.93,3.7,1.26,1.55,2.17,3.36,2.73,5.41.56,2.05.84,4.25.84,6.6v2.82c0,2.82-.35,5.31-1.06,7.48-.7,2.17-1.73,3.99-3.08,5.46-1.35,1.47-3.01,2.57-4.97,3.3-1.97.73-4.24,1.1-6.82,1.1h-5.19v24.38h-8.8v-61.6ZM186.91,137.77h4.75c1.06,0,2.05-.15,2.99-.44.94-.29,1.75-.73,2.42-1.32.67-.59,1.2-1.32,1.58-2.2.38-.88.57-1.91.57-3.08v-6.51c0-1.47-.19-2.7-.57-3.7-.38-1-.92-1.8-1.63-2.42-.7-.62-1.54-1.06-2.51-1.32-.97-.26-2.01-.4-3.12-.4h-4.49v21.38Z"/>
    <path class="cls-2" d="M232.14,139.18v7.92h-19.71v-7.92h19.71Z"/>
    <path class="cls-2" d="M239.18,108.47h26.14v8.36h-17.34v18.13h15.31v7.92h-15.31v18.83h17.6v8.36h-26.4v-61.6Z"/>
    <path class="cls-2" d="M280.54,108.47l14.7,38.72v-38.72h8.8v61.6h-8.8l-14.7-38.72v38.72h-8.8v-61.6h8.8Z"/>
    <path class="cls-2" d="M336.07,165.31c-.65,1.12-1.35,2-2.11,2.64-.76.65-1.47,1.14-2.11,1.5-.65.35-1.29.63-1.94.84-.65.21-1.28.35-1.89.44-.62.09-1.19.15-1.72.18-.53.03-.97.04-1.32.04-1.58,0-3.24-.28-4.97-.84s-3.33-1.75-4.8-3.56c-.7-.88-1.26-1.8-1.67-2.77-.41-.97-.73-1.92-.97-2.86-.24-.94-.38-1.85-.44-2.73s-.09-1.67-.09-2.38v-31.15c0-1.88.15-3.75.44-5.63.29-1.88,1.11-3.75,2.46-5.63.88-1.23,1.86-2.23,2.95-2.99,1.08-.76,2.18-1.35,3.3-1.76,1.11-.41,2.21-.69,3.3-.84,1.08-.15,2.04-.22,2.86-.22,2.29,0,4.37.35,6.25,1.06,1.88.7,3.43,1.67,4.66,2.9,1.17,1.17,2.21,2.76,3.12,4.75.91,2,1.36,4.43,1.36,7.3v2.46h-8.8v-3.08c0-.76-.09-1.58-.26-2.46s-.68-1.73-1.5-2.55c-.47-.47-1.09-.88-1.85-1.23-.76-.35-1.73-.53-2.9-.53s-2.16.21-2.95.62c-.79.41-1.45.94-1.98,1.58-.82,1-1.31,2.05-1.45,3.17-.15,1.12-.22,2.23-.22,3.34v28.86c0,.94.07,2,.22,3.17.15,1.17.57,2.23,1.28,3.17.53.65,1.22,1.17,2.07,1.58.85.41,1.8.62,2.86.62.94,0,1.88-.22,2.82-.66.94-.44,1.7-1.04,2.29-1.8.82-1,1.29-2.17,1.41-3.52.12-1.35.18-2.58.18-3.7v-8.27h-7.48v-7.92h16.28v33.62h-4.4l-2.29-4.75Z"/>
    <path class="cls-2" d="M359.56,108.47v61.6h-8.8v-61.6h8.8Z"/>
    <path class="cls-2" d="M376.72,108.47l14.7,38.72v-38.72h8.8v61.6h-8.8l-14.7-38.72v38.72h-8.8v-61.6h8.8Z"/>
    <path class="cls-2" d="M408.58,108.47h26.14v8.36h-17.34v18.13h15.31v7.92h-15.31v18.83h17.6v8.36h-26.4v-61.6Z"/>
  </g>
  <g>
    <rect class="cls-1" x="86.5" y="89.27" width="65.49" height="30.97" rx="8.85" ry="8.85"/>
    <rect class="cls-4" x="51.99" y="89.27" width="60.18" height="61.06" rx="8.85" ry="8.85"/>
    <path class="cls-3" d="M112.17,89.27h-51.33c-4.89,0-8.85,3.96-8.85,8.85v43.36c0,4.89,3.96,8.85,8.85,8.85h13.27c4.89,0,8.85-3.96,8.85-8.85v-21.24h29.2c4.89,0,8.85-3.96,8.85-8.85v-13.27c0-4.89-3.96-8.85-8.85-8.85Z"/>
    <path class="cls-3" d="M143.14,128.2h-43.36c-4.89,0-8.85,3.96-8.85,8.85v21.24h-30.09c-4.89,0-8.85,3.96-8.85,8.85v13.27c0,4.89,3.96,8.85,8.85,8.85h82.3c4.89,0,8.85-3.96,8.85-8.85v-43.36c0-4.89-3.96-8.85-8.85-8.85Z"/>
    <path class="cls-1" d="M143.14,128.2h-17.7c-4.89,0-8.85,3.96-8.85,8.85v21.24h-29.2c-4.89,0-8.85,3.96-8.85,8.85v13.27c0,4.89,3.96,8.85,8.85,8.85h55.75c4.89,0,8.85-3.96,8.85-8.85v-43.36c0-4.89-3.96-8.85-8.85-8.85Z"/>
  </g>
</svg>