<svg width="115" height="158" viewBox="0 0 115 158" fill="none" xmlns="http://www.w3.org/2000/svg">
<g id="Vector">
<path d="M0 129.057H6.2639C7.57562 129.057 8.68609 129.262 9.59171 129.668C10.4973 130.074 11.2341 130.627 11.7983 131.321C12.3625 132.018 12.7686 132.827 13.0201 133.743C13.2681 134.663 13.3939 135.648 13.3939 136.697V137.959C13.3939 139.22 13.2358 140.338 12.9195 141.308C12.6033 142.278 12.1433 143.094 11.5395 143.752C10.9358 144.409 10.1919 144.902 9.31499 145.229C8.43452 145.556 7.41749 145.721 6.26031 145.721H3.93515V156.635H0V129.057ZM3.93875 142.174H6.06624C6.54062 142.174 6.98624 142.109 7.40671 141.976C7.82718 141.847 8.18656 141.649 8.48843 141.387C8.79031 141.125 9.02749 140.798 9.1964 140.402C9.3653 140.007 9.45155 139.551 9.45155 139.022V136.108C9.45155 135.45 9.3653 134.9 9.1964 134.455C9.0239 134.009 8.78312 133.646 8.46687 133.369C8.15062 133.093 7.77687 132.895 7.34562 132.78C6.91078 132.661 6.44718 132.604 5.94765 132.604H3.93875V142.178V142.174Z" fill="#00428A"/>
<path d="M24.1894 142.806V146.353H15.3632V142.806H24.1894Z" fill="#00428A"/>
<path d="M27.3411 129.057H39.0423V132.798H31.2798V140.913H38.1367V144.46H31.2798V152.891H39.1609V156.632H27.3411V129.053V129.057Z" fill="#00428A"/>
<path d="M45.8558 129.057L52.4359 146.393V129.057H56.3747V156.635H52.4359L45.8558 139.299V156.635H41.917V129.057H45.8558Z" fill="#00428A"/>
<path d="M70.7179 154.508C70.4268 155.007 70.1142 155.399 69.7728 155.69C69.4313 155.978 69.1151 156.204 68.8276 156.359C68.5365 156.517 68.249 156.639 67.9615 156.732C67.6704 156.826 67.3901 156.891 67.1134 156.93C66.8367 156.97 66.5815 156.995 66.3443 157.009C66.1071 157.024 65.9095 157.027 65.7549 157.027C65.047 157.027 64.3031 156.901 63.5304 156.653C62.7542 156.405 62.039 155.874 61.3849 155.058C61.0687 154.662 60.8207 154.249 60.6374 153.818C60.4542 153.383 60.3104 152.959 60.2026 152.539C60.0984 152.118 60.0301 151.712 60.0049 151.317C59.9798 150.921 59.9654 150.569 59.9654 150.253V136.306C59.9654 135.465 60.0301 134.624 60.1631 133.783C60.2924 132.942 60.6626 132.101 61.2663 131.26C61.6617 130.71 62.1001 130.261 62.5853 129.919C63.0704 129.578 63.5628 129.316 64.0623 129.132C64.5618 128.949 65.0542 128.823 65.5393 128.759C66.0245 128.694 66.4521 128.662 66.8187 128.662C67.8429 128.662 68.7737 128.82 69.6146 129.136C70.4556 129.452 71.1528 129.884 71.7026 130.437C72.2273 130.962 72.6945 131.673 73.1006 132.564C73.5067 133.459 73.7115 134.548 73.7115 135.835V136.938H69.7728V135.558C69.7728 135.217 69.7332 134.85 69.6542 134.455C69.5751 134.06 69.3523 133.679 68.9857 133.312C68.7737 133.104 68.5006 132.917 68.1592 132.762C67.8177 132.604 67.3829 132.525 66.8582 132.525C66.3335 132.525 65.8915 132.618 65.5393 132.802C65.1835 132.985 64.8888 133.222 64.6517 133.51C64.2851 133.955 64.0659 134.43 64.0012 134.929C63.9365 135.429 63.9042 135.928 63.9042 136.428V149.351C63.9042 149.771 63.9365 150.242 64.0012 150.77C64.0659 151.295 64.2563 151.769 64.5726 152.19C64.8098 152.481 65.1188 152.715 65.4998 152.898C65.8807 153.081 66.3084 153.175 66.7792 153.175C67.1996 153.175 67.6201 153.078 68.0406 152.88C68.461 152.682 68.8024 152.413 69.0648 152.071C69.4313 151.626 69.6434 151.101 69.6937 150.494C69.7476 149.89 69.7728 149.34 69.7728 148.841V145.139H66.4234V141.592H73.7115V156.643H71.7421L70.7179 154.515V154.508Z" fill="#00428A"/>
<path d="M81.2367 129.057V156.635H77.2979V129.057H81.2367Z" fill="#00428A"/>
<path d="M88.9199 129.057L95.5001 146.393V129.057H99.4388V156.635H95.5001L88.9199 139.299V156.635H84.9812V129.057H88.9199Z" fill="#00428A"/>
<path d="M103.18 129.057H114.881V132.798H107.119V140.913H113.976V144.46H107.119V152.891H115V156.632H103.18V129.053V129.057Z" fill="#00428A"/>
<path d="M104.823 0.810547H49.8669C44.2461 0.810547 39.6894 5.36717 39.6894 10.988V26.2543C39.6894 31.8752 44.2461 36.4318 49.8669 36.4318H104.823C110.443 36.4318 115 31.8752 115 26.2543V10.988C115 5.36717 110.443 0.810547 104.823 0.810547Z" fill="#3EB3DE"/>
<path d="M59.0273 0.810547H10.1775C4.55662 0.810547 0 5.36717 0 10.988V60.8549C0 66.4757 4.55662 71.0324 10.1775 71.0324H59.0273C64.6482 71.0324 69.2048 66.4757 69.2048 60.8549V10.988C69.2048 5.36717 64.6482 0.810547 59.0273 0.810547Z" fill="#2264B0"/>
<path d="M69.2048 0.810547H10.1775C4.55662 0.810547 0 5.36717 0 10.988V60.8549C0 66.4757 4.55662 71.0324 10.1775 71.0324H25.4437C31.0644 71.0324 35.6212 66.4755 35.6212 60.8549V36.4318H69.2048C74.8254 36.4318 79.3823 31.8749 79.3823 26.2543V10.988C79.3823 5.36742 74.8254 0.810547 69.2048 0.810547Z" fill="#00428A"/>
<path d="M104.822 45.5888H54.9556C49.335 45.5888 44.7781 50.1457 44.7781 55.7663V80.1894H10.1775C4.55687 80.1894 0 84.7463 0 90.3669V105.633C0 111.254 4.55687 115.811 10.1775 115.811H104.822C110.443 115.811 115 111.254 115 105.633V55.7663C115 50.1457 110.443 45.5888 104.822 45.5888Z" fill="#00428A"/>
<path d="M104.822 45.5888H84.4674C78.8468 45.5888 74.2899 50.1457 74.2899 55.7663V80.1894H40.7064C35.0857 80.1894 30.5289 84.7463 30.5289 90.3669V105.633C30.5289 111.254 35.0857 115.811 40.7064 115.811H104.822C110.443 115.811 115 111.254 115 105.633V55.7663C115 50.1457 110.443 45.5888 104.822 45.5888Z" fill="#3EB3DE"/>
</g>
</svg>
