<svg width="115" height="168" viewBox="0 0 115 168" fill="none" xmlns="http://www.w3.org/2000/svg">
<g id="Group 180942">
<g id="Group">
<path id="Vector" d="M4.12469 138.885H10.4605C11.7902 138.885 12.9114 139.094 13.8278 139.509C14.7442 139.923 15.4881 140.489 16.0595 141.198C16.6309 141.908 17.0442 142.733 17.2958 143.67C17.5473 144.607 17.6731 145.612 17.6731 146.686V147.972C17.6731 149.259 17.515 150.397 17.1952 151.388C16.8753 152.379 16.4117 153.211 15.8008 153.881C15.1898 154.551 14.4387 155.052 13.5475 155.387C12.6562 155.722 11.6284 155.888 10.4569 155.888H8.10656V167.022H4.12109V138.885H4.12469ZM8.11016 152.271H10.2628C10.7408 152.271 11.1936 152.206 11.6177 152.069C12.0417 151.936 12.4083 151.734 12.7137 151.467C13.0192 151.201 13.2564 150.866 13.4325 150.462C13.605 150.058 13.6912 149.59 13.6912 149.057V146.081C13.6912 145.41 13.605 144.848 13.4325 144.391C13.26 143.937 13.0156 143.566 12.6958 143.285C12.3759 143.004 11.9986 142.802 11.5602 142.683C11.1217 142.564 10.6509 142.503 10.1442 142.503H8.11016V152.271Z" fill="#00428A"/>
<path id="Vector_2" d="M28.5909 152.913V156.53H19.6641V152.913H28.5909Z" fill="#00428A"/>
<path id="Vector_3" d="M35.7687 138.885V150.984H41.1485V138.885H45.134V167.022H41.1485V154.602H35.7687V167.022H31.7832V138.885H35.7687Z" fill="#00428A"/>
<path id="Vector_4" d="M52.9703 166.943C52.1581 166.622 51.4502 166.179 50.8392 165.617C50.3613 165.163 49.9839 164.691 49.7036 164.212C49.4233 163.733 49.2184 163.239 49.0855 162.745C48.9525 162.248 48.8662 161.74 48.8267 161.218C48.7872 160.695 48.7656 160.166 48.7656 159.629V146.283C48.7656 145.746 48.7872 145.216 48.8267 144.694C48.8662 144.172 48.9525 143.664 49.0855 143.166C49.2184 142.669 49.4233 142.183 49.7036 141.7C49.9839 141.217 50.3613 140.749 50.8392 140.295C51.4502 139.733 52.1617 139.289 52.9703 138.969C53.7789 138.648 54.7025 138.486 55.7411 138.486C56.7797 138.486 57.6997 138.648 58.5119 138.969C59.3205 139.289 60.032 139.733 60.643 140.295C61.1209 140.752 61.4983 141.221 61.7786 141.7C62.0589 142.183 62.2637 142.673 62.3967 143.166C62.5297 143.664 62.6159 144.172 62.6555 144.694C62.695 145.216 62.7166 145.746 62.7166 146.283V159.629C62.7166 160.166 62.695 160.695 62.6555 161.218C62.6159 161.74 62.5297 162.248 62.3967 162.745C62.2637 163.243 62.0589 163.729 61.7786 164.212C61.4983 164.695 61.1209 165.163 60.643 165.617C60.032 166.179 59.3205 166.622 58.5119 166.943C57.6997 167.264 56.7797 167.426 55.7411 167.426C54.7025 167.426 53.7825 167.264 52.9703 166.943ZM57.0348 163.243C57.3942 163.081 57.6781 162.893 57.8902 162.681C58.2603 162.306 58.4939 161.91 58.5873 161.495C58.6808 161.081 58.7275 160.659 58.7275 160.231V145.678C58.7275 145.249 58.6808 144.827 58.5873 144.413C58.4939 143.999 58.2603 143.602 57.8902 143.228C57.6781 143.015 57.3906 142.824 57.0348 142.665C56.6755 142.503 56.2442 142.424 55.7411 142.424C55.238 142.424 54.8031 142.503 54.4437 142.665C54.0844 142.828 53.8005 143.015 53.5884 143.228C53.2147 143.602 52.9847 143.999 52.8912 144.413C52.7978 144.827 52.7511 145.252 52.7511 145.678V160.231C52.7511 160.659 52.7978 161.081 52.8912 161.495C52.9847 161.91 53.2147 162.306 53.5884 162.681C53.8005 162.897 54.088 163.084 54.4437 163.243C54.8031 163.405 55.2344 163.484 55.7411 163.484C56.2478 163.484 56.6791 163.405 57.0348 163.243Z" fill="#00428A"/>
<path id="Vector_5" d="M70.325 138.885V160.23C70.325 161.196 70.5514 161.977 71.0042 162.583C71.457 163.184 72.1183 163.487 72.9952 163.487C73.872 163.487 74.5369 163.184 74.9897 162.583C75.4425 161.981 75.6689 161.196 75.6689 160.23V138.885H79.6544V159.628C79.6544 161.181 79.4495 162.464 79.0362 163.466C78.623 164.471 78.0947 165.267 77.4406 165.858C76.7902 166.449 76.0714 166.856 75.288 167.083C74.5045 167.31 73.7391 167.425 72.9952 167.425C72.2512 167.425 71.4858 167.31 70.7023 167.083C69.9189 166.856 69.2002 166.445 68.5497 165.858C67.8992 165.267 67.3673 164.471 66.9541 163.466C66.5408 162.46 66.3359 161.181 66.3359 159.628V138.885H70.3214H70.325Z" fill="#00428A"/>
<path id="Vector_6" d="M92.6472 145.919C92.6472 145.624 92.6148 145.224 92.5466 144.712C92.4819 144.204 92.2878 143.747 91.968 143.347C91.7811 143.134 91.5295 142.925 91.2097 142.723C90.8898 142.522 90.437 142.421 89.8548 142.421C89.5637 142.421 89.2439 142.468 88.8989 142.561C88.5539 142.655 88.2197 142.864 87.9034 143.185C87.5297 143.588 87.2997 144.049 87.2062 144.572C87.1128 145.094 87.0661 145.584 87.0661 146.038C87.0661 146.413 87.1056 146.903 87.1847 147.505C87.2637 148.106 87.4362 148.596 87.7022 148.971C87.9142 149.321 88.2017 149.58 88.5575 149.757C88.9169 149.93 89.2403 150.084 89.535 150.218L91.968 151.101C92.5789 151.317 93.2042 151.591 93.8403 151.926C94.4764 152.261 95.0622 152.79 95.5941 153.515C96.1259 154.264 96.4566 155.042 96.5895 155.846C96.7225 156.649 96.7872 157.492 96.7872 158.379V159.344C96.7872 160.793 96.6147 162.036 96.2697 163.081C95.9247 164.126 95.4575 164.958 94.8753 165.574C94.3434 166.111 93.6391 166.554 92.7622 166.9C91.8853 167.25 90.8611 167.422 89.6931 167.422C88.2592 167.422 87.0841 167.174 86.1641 166.68C85.2477 166.183 84.5612 165.614 84.112 164.972C83.7922 164.544 83.5478 164.068 83.3753 163.546C83.2028 163.023 83.077 162.533 82.998 162.079C82.9189 161.625 82.8722 161.222 82.8578 160.872C82.8434 160.523 82.8398 160.31 82.8398 160.227V159.301H86.8253V160.065C86.8253 160.386 86.8577 160.789 86.9259 161.272C86.9906 161.755 87.1703 162.184 87.465 162.558C87.81 162.987 88.1945 163.25 88.6222 163.344C89.0462 163.437 89.3913 163.484 89.6572 163.484C90.4263 163.484 90.9977 163.369 91.3714 163.142C91.7416 162.915 92.0075 162.692 92.1692 162.479C92.4603 162.104 92.64 161.654 92.7083 161.132C92.773 160.609 92.8089 160.133 92.8089 159.705V158.66C92.8089 158.177 92.7694 157.669 92.6903 157.132C92.6112 156.595 92.4387 156.141 92.1728 155.767C91.9069 155.392 91.5763 155.111 91.1773 154.923C90.7784 154.736 90.473 154.603 90.2609 154.52L87.35 153.475C86.6313 153.208 85.9412 152.852 85.2764 152.408C84.6116 151.965 84.0797 151.277 83.6808 150.34C83.3897 149.695 83.2172 149.029 83.1633 148.33C83.1094 147.634 83.0842 146.935 83.0842 146.24V145.436C83.0842 144.258 83.2819 143.231 83.6808 142.363C84.0797 141.491 84.572 140.774 85.1542 140.212C85.8191 139.567 86.5558 139.12 87.368 138.864C88.1766 138.609 89.0498 138.483 89.977 138.483C90.9869 138.483 91.8961 138.645 92.7083 138.965C93.5169 139.286 94.2141 139.754 94.7998 140.371C95.3856 140.987 95.8348 141.743 96.1547 142.64C96.4745 143.538 96.6327 144.575 96.6327 145.757V146.683H92.6472V145.919Z" fill="#00428A"/>
<path id="Vector_7" d="M99.9805 138.885H111.818V142.705H103.966V150.984H110.902V154.602H103.966V163.206H111.937V167.025H99.9805V138.889V138.885Z" fill="#00428A"/>
</g>
<g id="Group_2">
<path id="Vector_8" fill-rule="evenodd" clip-rule="evenodd" d="M0 33.5352V100.102L57.5 133.384L115 100.102V33.5352L57.5 0.249878L0 33.5352Z" fill="#0B2846"/>
<g id="Group_3">
<path id="Vector_9" d="M57.3802 8.93454L79.816 21.9237L41.3557 44.1835L18.9199 31.198L57.3802 8.93454Z" fill="#3EB3DE"/>
<path id="Vector_10" d="M79.8177 21.9244L41.3574 44.1842V50.3743L79.8177 28.1109V21.9244Z" fill="#00428A"/>
<g id="Group_4">
<path id="Vector_11" d="M41.3557 44.1821L18.9199 31.1966V57.1712L24.2638 60.2663L41.3557 50.3722V44.1821Z" fill="#4864AE"/>
<path id="Vector_12" d="M84.7387 25.2592L79.8152 28.1092L41.3549 50.3727L24.263 60.2668L7.81445 69.7861L30.2502 82.7716L107.174 38.2483L84.7387 25.2592Z" fill="white"/>
</g>
<path id="Vector_13" d="M7.81445 69.7867L30.2502 82.7722V108.747L7.81445 95.7614V69.7867Z" fill="#D9D9D9"/>
<path id="Vector_14" d="M34.4668 85.37L52.5541 95.8406L56.9026 98.3591L95.3629 76.0957L91.0144 73.5771L72.9271 63.1065L34.4668 85.37Z" fill="#3EB3DE"/>
<path id="Vector_15" d="M30.252 82.7723V108.747L34.4638 106.311V85.3701L72.9241 63.1067L91.0115 73.5772L107.176 64.22V38.249L30.252 82.7723Z" fill="#B3B3B3"/>
<path id="Vector_16" d="M34.4668 111.345L56.9026 124.33V98.3591L34.4668 85.37V106.311V111.345Z" fill="#4864AE"/>
<path id="Vector_17" d="M56.8965 98.3594L95.3568 76.0959V102.067L56.8965 124.33V98.3594Z" fill="#00428A"/>
</g>
</g>
</g>
</svg>
