<svg width="22" height="22" viewBox="0 0 22 22" fill="none" xmlns="http://www.w3.org/2000/svg">
<mask id="mask0_2095_22736" style="mask-type:luminance" maskUnits="userSpaceOnUse" x="1" y="1" width="20" height="20">
<path d="M10.9987 20.1663C12.2027 20.1678 13.3951 19.9314 14.5075 19.4706C15.6198 19.0099 16.6302 18.3339 17.4805 17.4814C18.3329 16.6311 19.0089 15.6208 19.4697 14.5085C19.9304 13.3961 20.1669 12.2037 20.1654 10.9997C20.1669 9.79568 19.9304 8.60325 19.4697 7.49091C19.0089 6.37856 18.3329 5.36822 17.4805 4.51793C16.6302 3.66551 15.6198 2.98949 14.5075 2.52873C13.3951 2.06796 12.2027 1.83153 10.9987 1.83301C9.7947 1.83153 8.60228 2.06796 7.48993 2.52873C6.37758 2.98949 5.36724 3.66551 4.51695 4.51793C3.66453 5.36822 2.98851 6.37856 2.52775 7.49091C2.06699 8.60325 1.83055 9.79568 1.83204 10.9997C1.83055 12.2037 2.06699 13.3961 2.52775 14.5085C2.98851 15.6208 3.66453 16.6311 4.51695 17.4814C5.36724 18.3339 6.37758 19.0099 7.48993 19.4706C8.60228 19.9314 9.7947 20.1678 10.9987 20.1663Z" fill="white" stroke="white" stroke-width="1.5" stroke-linejoin="round"/>
<path d="M7.33203 11L10.082 13.75L15.582 8.25" stroke="black" stroke-width="1.5" stroke-linecap="round" stroke-linejoin="round"/>
</mask>
<g mask="url(#mask0_2095_22736)">
<path d="M0 0H22V22H0V0Z" fill="#276BB4"/>
</g>
</svg>
