<svg width="18" height="19" viewBox="0 0 18 19" fill="none" xmlns="http://www.w3.org/2000/svg">
<g clip-path="url(#clip0_2123_20225)">
<path d="M7.875 3.85303L8.4375 2.72803L9.5625 2.16553L8.4375 1.60303L7.875 0.478027L7.3125 1.60303L6.1875 2.16553L7.3125 2.72803L7.875 3.85303ZM2.8125 6.10303L3.74977 4.22814L5.625 3.29053L3.74977 2.35291L2.8125 0.478027L1.87523 2.35291L0 3.29053L1.87523 4.22814L2.8125 6.10303ZM15.1875 10.603L14.2502 12.4779L12.375 13.4155L14.2502 14.3531L15.1875 16.228L16.1248 14.3531L18 13.4155L16.1248 12.4779L15.1875 10.603ZM17.6702 3.7908L14.6872 0.807793C14.4679 0.587715 14.1799 0.478027 13.892 0.478027C13.6041 0.478027 13.3161 0.587715 13.0964 0.807793L0.329766 13.5744C-0.109687 14.0139 -0.109687 14.7262 0.329766 15.1653L3.31277 18.1483C3.5325 18.368 3.82043 18.4777 4.10801 18.4777C4.39594 18.4777 4.68387 18.368 4.90359 18.1483L17.6702 5.38127C18.1097 4.94252 18.1097 4.2299 17.6702 3.7908ZM12.6369 7.63092L10.8471 5.84111L13.8916 2.79658L15.6814 4.58639L12.6369 7.63092Z" fill="#276BB4"/>
</g>
<defs>
<clipPath id="clip0_2123_20225">
<rect width="18" height="18" fill="white" transform="translate(0 0.478027)"/>
</clipPath>
</defs>
</svg>
