<svg width="24" height="24" viewBox="0 0 24 24" fill="none" xmlns="http://www.w3.org/2000/svg">
<g id="shipping">
<path id="Icon" d="M16.248 9.20068L7.24805 4.01068M3.01758 6.76068L11.7476 11.8107L20.4776 6.76068M11.748 21.8807V11.8007M20.748 15.8007V7.80068C20.7477 7.44996 20.6551 7.10549 20.4796 6.80185C20.3041 6.4982 20.0518 6.24605 19.748 6.07068L12.748 2.07068C12.444 1.89515 12.0991 1.80273 11.748 1.80273C11.397 1.80273 11.0521 1.89515 10.748 2.07068L3.74805 6.07068C3.44431 6.24605 3.19203 6.4982 3.01651 6.80185C2.84099 7.10549 2.74841 7.44996 2.74805 7.80068V15.8007C2.74841 16.1514 2.84099 16.4959 3.01651 16.7995C3.19203 17.1032 3.44431 17.3553 3.74805 17.5307L10.748 21.5307C11.0521 21.7062 11.397 21.7986 11.748 21.7986C12.0991 21.7986 12.444 21.7062 12.748 21.5307L19.748 17.5307C20.0518 17.3553 20.3041 17.1032 20.4796 16.7995C20.6551 16.4959 20.7477 16.1514 20.748 15.8007Z" stroke="#38BEED" stroke-width="1.5" stroke-linecap="round" stroke-linejoin="round"/>
</g>
</svg>
