<svg width="48" height="45" viewBox="0 0 48 45" fill="none" xmlns="http://www.w3.org/2000/svg">
<path d="M29.659 34.3356H35.4677C41.2857 34.3356 46 29.6214 46 23.8034C46 18.715 42.3895 14.4591 37.5816 13.4863C37.2262 7.0884 31.932 2 25.4498 2C20.5485 2 16.3299 4.90899 14.4031 9.09008C13.7577 8.85624 13.0655 8.72529 12.3359 8.72529C8.92177 8.72529 6.14371 11.494 6.14371 14.9174C6.14371 15.7218 6.30272 16.4795 6.58333 17.1904C3.84269 18.7805 2 21.7456 2 25.141C2 30.22 6.11565 34.345 11.2041 34.345H18.4439" stroke="#38BEED" stroke-width="3" stroke-linecap="round" stroke-linejoin="round"/>
<path d="M24.0479 43.3903V18.1729" stroke="#38BEED" stroke-width="3" stroke-linecap="round" stroke-linejoin="round"/>
<path d="M30.8941 25.4126L24.0472 18.1729L17.1909 25.4126" stroke="#38BEED" stroke-width="3" stroke-linecap="round" stroke-linejoin="round"/>
</svg>
