<svg width="72" height="73" viewBox="0 0 72 73" fill="none" xmlns="http://www.w3.org/2000/svg">
<rect y="0.40918" width="72" height="72" rx="8" fill="#276BB4" fill-opacity="0.26"/>
<path fill-rule="evenodd" clip-rule="evenodd" d="M48 25.1592C48 31.7868 42.6276 37.1592 36 37.1592C29.3724 37.1592 24 31.7868 24 25.1592C24 18.5316 29.3724 13.1592 36 13.1592C42.6276 13.1592 48 18.5316 48 25.1592Z" fill="white"/>
<path d="M45.75 40.1595C45.5904 40.1232 45.4232 40.1424 45.276 40.2138C45.1288 40.2853 45.0103 40.4047 44.94 40.5525L39 57.5175V52.1595L38.1375 46.128C38.4128 46.07 38.6663 45.9357 38.869 45.7405C39.0716 45.5453 39.2153 45.297 39.2835 45.024L40.0335 42.024C40.0889 41.803 40.0932 41.5722 40.046 41.3493C39.9989 41.1263 39.9016 40.917 39.7615 40.7373C39.6214 40.5576 39.4421 40.4121 39.2374 40.312C39.0327 40.2119 38.8079 40.1598 38.58 40.1595H33.423C33.1952 40.1596 32.9703 40.2116 32.7656 40.3115C32.5608 40.4114 32.3815 40.5567 32.2412 40.7363C32.101 40.9158 32.0035 41.125 31.9562 41.3479C31.9088 41.5707 31.9129 41.8015 31.968 42.0225L32.718 45.0225C32.786 45.2958 32.9295 45.5444 33.1322 45.7399C33.3349 45.9354 33.5885 46.0699 33.864 46.128L33 52.1595V56.2035L27.06 40.5525C26.9898 40.4047 26.8712 40.2853 26.724 40.2138C26.5768 40.1424 26.4096 40.1232 26.25 40.1595C25.6766 40.298 25.1026 40.434 24.528 40.5675C21.135 41.3625 16.941 42.3435 14.712 43.8075C12.0675 45.543 10.5 47.589 10.5 49.9095V59.6595H61.5V49.9095C61.5 47.589 59.9325 45.5445 57.288 43.8075C55.059 42.3435 50.865 41.3625 47.472 40.5675C46.8675 40.4265 46.287 40.2915 45.75 40.1595Z" fill="white"/>
</svg>
