<svg width="23" height="22" viewBox="0 0 23 22" fill="none" xmlns="http://www.w3.org/2000/svg">
<g id="Group 180912">
<path id="Vector" d="M22.2797 11.25C22.2797 10.47 22.2097 9.72 22.0797 9H11.7197V13.26H17.6397C17.3797 14.63 16.5997 15.79 15.4297 16.57V19.34H18.9997C21.0797 17.42 22.2797 14.6 22.2797 11.25Z" fill="#4285F4"/>
<path id="Vector_2" d="M11.7199 22.0001C14.6899 22.0001 17.1799 21.0201 18.9999 19.3401L15.4299 16.5701C14.4499 17.2301 13.1999 17.6301 11.7199 17.6301C8.8599 17.6301 6.4299 15.7001 5.5599 13.1001H1.8999V15.9401C3.7099 19.5301 7.4199 22.0001 11.7199 22.0001Z" fill="#34A853"/>
<path id="Vector_3" d="M5.55973 13.0901C5.33973 12.4301 5.20973 11.7301 5.20973 11.0001C5.20973 10.2701 5.33973 9.57007 5.55973 8.91007V6.07007H1.89973C1.14973 7.55007 0.719727 9.22007 0.719727 11.0001C0.719727 12.7801 1.14973 14.4501 1.89973 15.9301L4.74973 13.7101L5.55973 13.0901Z" fill="#FBBC05"/>
<path id="Vector_4" d="M11.7199 4.38C13.3399 4.38 14.7799 4.94 15.9299 6.02L19.0799 2.87C17.1699 1.09 14.6899 0 11.7199 0C7.4199 0 3.7099 2.47 1.8999 6.07L5.5599 8.91C6.4299 6.31 8.8599 4.38 11.7199 4.38Z" fill="#EA4335"/>
</g>
</svg>
