<?xml version="1.0" encoding="UTF-8"?>
<svg id="_레이어_1" data-name="레이어 1" xmlns="http://www.w3.org/2000/svg" viewBox="0 0 500 500">
  <defs>
    <style>
      .cls-1 {
        fill: currentColor;
      }
    </style>
  </defs>
  <path class="cls-1" d="M359.21,67.96h-218.44c-40.2,0-72.81,32.6-72.81,72.82v218.45c0,40.2,32.6,72.81,72.81,72.81h218.44c40.24,0,72.83-32.6,72.83-72.81v-218.45c0-40.22-32.59-72.82-72.83-72.82ZM188.45,359.53h-49.54v-147.83h49.54v147.83ZM150.07,188.96c-15.41-7.22-19.4-29-6.89-40.89,14.18-13.47,42.2-8.71,47.29,11.68,6.06,24.3-19.52,39-40.4,29.21ZM315.89,359.53l-1.2-1.2v-87.1c0-1.69-1.85-7.46-2.59-9.4-7.27-19.16-33.49-18.76-43.62-2.46-1.04,1.68-4.13,8.72-4.13,10.26v88.7l-1.2,1.2h-48.34v-147.83h49.54v19.18l10.38-11.6c41.02-27.33,86.11-3.51,89.5,45.56v94.68s-48.33,0-48.33,0Z"/>
</svg>