<svg width="91" height="27" viewBox="0 0 91 27" fill="none" xmlns="http://www.w3.org/2000/svg">
<g id="_&#235;&#160;&#136;&#236;&#157;&#180;&#236;&#150;&#180;_1" clip-path="url(#clip0_1271_20616)">
<g id="Group">
<g id="Group_2">
<path id="Vector" d="M28.5506 9.20031C25.2518 7.90923 21.9212 8.04917 21.0795 9.55694C20.2286 11.0783 21.4662 14.6807 23.814 17.6736C26.1573 20.6621 29.4697 20.5673 31.2988 17.299C33.096 14.0442 31.8402 10.4824 28.5551 9.1958" fill="#FF9700"/>
<path id="Vector_2" d="M11.7836 10.243C14.7093 12.2248 17.9853 12.8252 19.1455 11.5387C20.3149 10.243 19.9145 6.45555 18.2992 3.02469C16.684 -0.406175 13.4307 -1.03818 10.9191 1.74263C8.43936 4.51892 8.86706 8.26579 11.7836 10.243Z" fill="#006ECD"/>
<path id="Vector_3" d="M22.2669 20.6801C21.7983 17.1951 20.0556 14.3737 18.3175 14.3782C16.5612 14.3782 13.995 17.2086 12.4981 20.6982C11.0057 24.1832 12.7028 27.0092 16.4657 27.0047C20.2103 26.9776 22.731 24.1607 22.2669 20.6846" fill="#EF151E"/>
</g>
<g id="Group_3">
<path id="Vector_4" d="M8.91359 11.6197C8.31754 11.6197 7.91714 11.9854 7.91714 12.5271V13.0734H9.33219C9.33219 13.0734 9.37769 17.714 9.32764 18.1971C9.27759 18.6801 9.15019 19.4746 8.27204 19.8899C7.51674 20.2466 7.49854 20.5851 7.45304 20.8876C7.38934 21.2803 7.46214 21.33 7.74879 21.2578C8.87264 20.9824 10.0738 20.5355 10.679 19.4295C11.0066 18.8291 11.1385 18.179 11.1385 17.1949V13.0688C11.7391 13.0643 12.1714 12.6806 12.1714 12.1615V11.6152H8.90904L8.91359 11.6197Z" fill="black"/>
<path id="Vector_5" d="M7.33915 17.8721C7.33915 17.8721 6.20165 19.4882 3.9949 19.4882C1.78815 19.4882 0 17.7592 0 15.4659C0 13.1727 1.71535 11.385 3.9949 11.385C6.27445 11.385 7.31185 13.0011 7.31185 13.0011C7.31185 13.0011 6.7067 13.6467 6.1243 13.6467C5.8422 13.6467 5.62835 13.5158 5.38265 13.3668C5.05505 13.1636 4.68195 12.9379 3.99945 12.9379C2.7027 12.9379 1.65165 14.071 1.65165 15.4659C1.65165 16.8608 2.70725 17.9398 3.99945 17.9398C4.7684 17.9398 5.12785 17.7231 5.44635 17.529C5.67385 17.3935 5.8877 17.2626 6.1971 17.2626C6.8523 17.2626 7.3437 17.8721 7.3437 17.8721H7.33915Z" fill="black"/>
</g>
</g>
<g id="Group_4">
<path id="Vector_6" d="M38.4846 17.0822C38.1297 17.1409 37.6474 17.195 37.1697 17.2312C36.6965 17.2673 36.1914 17.2853 35.6636 17.2853H34.1621V12.5137C34.1621 12.2609 34.2395 12.0623 34.3805 11.9223C34.5261 11.7824 34.7172 11.7102 34.9584 11.7102H37.7976V12.1074C37.7976 12.2067 37.7794 12.2835 37.743 12.3422C37.702 12.3963 37.6611 12.437 37.611 12.4641C37.5655 12.4911 37.52 12.5092 37.4745 12.5137C37.429 12.5182 37.3972 12.5227 37.379 12.5227H35.3997V16.4818H36.5099C36.7465 16.4818 37.0423 16.4682 37.3881 16.4411C37.7339 16.4141 38.1479 16.3734 38.4846 16.3238V12.1932C38.4846 11.9404 38.5483 11.7418 38.6712 11.6018C38.794 11.4619 38.9806 11.3987 39.2172 11.3987H39.7359V13.8364H40.341V12.1932C40.341 11.9404 40.4047 11.7418 40.5321 11.6018C40.6595 11.4619 40.8415 11.3987 41.0736 11.3987H41.5923V18.6938C41.5923 18.9511 41.5331 19.1542 41.4057 19.2897C41.2874 19.4296 41.11 19.4973 40.8825 19.4973H40.3365V14.6399H39.7313V18.6938C39.7313 18.9511 39.6676 19.1542 39.5402 19.2897C39.4128 19.4296 39.2354 19.4973 39.0079 19.4973H38.4801V17.0867L38.4846 17.0822Z" fill="black"/>
<path id="Vector_7" d="M47.4206 12.3377C47.4206 12.4415 47.3978 12.5182 47.3614 12.5814C47.3205 12.6356 47.2795 12.6807 47.2295 12.7078C47.184 12.7349 47.1339 12.753 47.0884 12.7575C47.0384 12.762 47.0065 12.7665 46.9883 12.7665H46.8427C46.9929 12.9381 47.1112 13.1322 47.1931 13.3353C47.2795 13.5385 47.3205 13.7597 47.3205 13.9899C47.3205 14.2833 47.2568 14.5542 47.1339 14.8025C47.0065 15.0507 46.8382 15.2629 46.6198 15.4435C46.4105 15.6241 46.1648 15.7595 45.8827 15.8633C45.6006 15.9626 45.3048 16.0123 44.9909 16.0123C44.6769 16.0123 44.3721 15.9626 44.0945 15.8678C43.8124 15.7685 43.5667 15.6286 43.3529 15.4435C43.139 15.2629 42.9707 15.0507 42.8433 14.8025C42.7204 14.5542 42.6613 14.2833 42.6613 13.9899C42.6613 13.7642 42.7022 13.5475 42.7841 13.3398C42.866 13.1322 42.9843 12.9381 43.1436 12.7665H42.5566V12.3783C42.5566 12.279 42.5748 12.2022 42.6112 12.1435C42.6476 12.0849 42.6931 12.0397 42.7477 12.0126C42.7932 11.981 42.8433 11.963 42.8888 11.9585C42.9388 11.9494 42.9707 11.9449 42.998 11.9449H44.3402V11.7643C44.3402 11.5747 44.3857 11.4258 44.4767 11.3174C44.5723 11.2136 44.7133 11.1594 44.9044 11.1594H45.6688V11.9449H47.416V12.3377H47.4206ZM49.7411 18.6893V19.0685C49.7411 19.1723 49.7229 19.249 49.6865 19.3032C49.6501 19.3619 49.6046 19.4025 49.5545 19.4296C49.509 19.4567 49.4635 19.4748 49.4135 19.4793C49.3634 19.4838 49.3316 19.4883 49.3134 19.4883H43.8306V17.6284C43.8306 17.3756 43.8943 17.177 44.0172 17.037C44.14 16.8971 44.322 16.8249 44.5632 16.8249H45.0819V18.6848H49.7365L49.7411 18.6893ZM46.0328 13.9899C46.0328 13.8274 46.0055 13.6694 45.9464 13.5294C45.8918 13.3805 45.8144 13.2541 45.7234 13.1412C45.6324 13.0329 45.5187 12.9426 45.3913 12.8794C45.2639 12.8117 45.1274 12.7755 44.9863 12.7755C44.8453 12.7755 44.7088 12.8117 44.5814 12.8794C44.454 12.9426 44.3448 13.0329 44.2538 13.1412C44.1582 13.2495 44.0854 13.3805 44.0308 13.5294C43.9808 13.6739 43.9489 13.8274 43.9489 13.9899C43.9489 14.3375 44.0536 14.6264 44.2538 14.8657C44.4585 15.1049 44.6997 15.2223 44.9863 15.2223C45.273 15.2223 45.5187 15.1049 45.7234 14.8657C45.9282 14.6264 46.0328 14.333 46.0328 13.9899ZM51.006 14.3239H49.6592V16.4637C49.6592 16.7256 49.5955 16.9197 49.4681 17.0551C49.3407 17.1905 49.1587 17.2582 48.9266 17.2582H48.4079V12.2022C48.4079 11.9494 48.4716 11.7508 48.599 11.6063C48.7264 11.4664 48.8993 11.3942 49.1223 11.3942H49.6592V13.5114H50.5874C50.5874 13.5114 50.6374 13.5114 50.6829 13.5249C50.7284 13.5339 50.7739 13.552 50.8194 13.5791C50.8695 13.6062 50.915 13.6468 50.9514 13.701C50.9878 13.7551 51.006 13.8274 51.006 13.9177V14.3239Z" fill="black"/>
<path id="Vector_8" d="M58.3553 13.0508C58.3553 13.1456 58.3371 13.2223 58.3007 13.281C58.2643 13.3352 58.2188 13.3758 58.1687 13.3984C58.1232 13.4255 58.0777 13.4435 58.0322 13.448C57.9867 13.4526 57.9549 13.4571 57.9367 13.4571H53.5459V13.8995H58.4235V14.2787C58.4235 14.3735 58.4053 14.4502 58.3644 14.5089C58.3234 14.5631 58.2825 14.6082 58.237 14.6353C58.1869 14.6669 58.1369 14.6805 58.0914 14.6895C58.0459 14.694 58.014 14.6985 57.9958 14.6985H55.9984V15.2628H59.4609V15.6194C59.4609 15.7187 59.4427 15.8 59.4018 15.8542C59.3608 15.9129 59.3199 15.9535 59.2744 15.9806C59.2243 16.0077 59.1743 16.0257 59.1288 16.0302C59.0833 16.0347 59.0514 16.0393 59.0378 16.0393H51.3301V15.651C51.3301 15.5607 51.3483 15.4885 51.3847 15.4343C51.4211 15.3802 51.462 15.3441 51.5075 15.317C51.5576 15.2899 51.6076 15.2718 51.6531 15.2673C51.6986 15.2628 51.735 15.2583 51.7578 15.2583H54.7699V14.694H52.2856V12.342C52.2856 12.0847 52.3902 11.859 52.5904 11.6694C52.7952 11.4798 53.0409 11.394 53.3321 11.394H58.4144V11.7778C58.4144 11.8771 58.3962 11.9493 58.3598 12.0035C58.3234 12.0622 58.2779 12.1073 58.2279 12.1344C58.1824 12.1615 58.1369 12.1795 58.0914 12.184C58.0459 12.1886 58.014 12.1931 57.9958 12.1931H53.5459V12.6626H58.3553V13.0508ZM58.0777 18.1339H58.0868C58.0868 18.3957 58.014 18.635 57.873 18.8607C57.7274 19.0864 57.5363 19.285 57.2906 19.4475C57.0449 19.6146 56.7628 19.7455 56.4306 19.8448C56.103 19.9396 55.7572 19.9893 55.3932 19.9893C55.0292 19.9893 54.6743 19.9396 54.3467 19.8448C54.0191 19.7455 53.7325 19.6146 53.4868 19.4475C53.2411 19.2805 53.05 19.0864 52.9089 18.8607C52.7679 18.635 52.6996 18.3912 52.6996 18.1339C52.6996 17.8766 52.7679 17.6509 52.9089 17.4297C53.05 17.2039 53.2411 17.0143 53.4868 16.8473C53.7325 16.6803 54.0146 16.5494 54.3467 16.4501C54.6743 16.3507 55.0247 16.3056 55.3932 16.3056C55.7618 16.3056 56.0985 16.3553 56.4261 16.4501C56.7491 16.5494 57.0358 16.6803 57.2769 16.8473C57.5226 17.0143 57.7137 17.2085 57.8593 17.4297C58.0049 17.6554 58.0732 17.8901 58.0732 18.1339H58.0777ZM56.74 18.1429C56.74 18.0075 56.7036 17.8766 56.6308 17.7502C56.558 17.6238 56.4625 17.5154 56.3442 17.4161C56.2213 17.3168 56.0757 17.2446 55.9119 17.1859C55.7481 17.1272 55.5798 17.1001 55.3932 17.1001C55.2067 17.1001 55.0292 17.1272 54.8654 17.1859C54.6971 17.2446 54.556 17.3213 54.4377 17.4161C54.3103 17.5154 54.2148 17.6238 54.1465 17.7502C54.0783 17.8721 54.0419 18.003 54.0419 18.1429C54.0419 18.2829 54.0783 18.4228 54.1465 18.5447C54.2148 18.6711 54.3103 18.7794 54.4377 18.8787C54.556 18.969 54.6971 19.0413 54.8654 19.0999C55.0292 19.1541 55.2067 19.1812 55.3932 19.1812C55.5798 19.1812 55.7481 19.1541 55.9119 19.0999C56.0757 19.0458 56.2168 18.9735 56.3442 18.8787C56.4625 18.7794 56.558 18.6711 56.6308 18.5447C56.7036 18.4183 56.74 18.2829 56.74 18.1429Z" fill="black"/>
<path id="Vector_9" d="M68.1178 15.6692C68.1178 15.764 68.0951 15.8407 68.0587 15.8949C68.0177 15.9536 67.9768 15.9942 67.9313 16.0213C67.8812 16.0574 67.8312 16.0754 67.7857 16.0845C67.7402 16.089 67.7083 16.0935 67.6901 16.0935H64.7736V16.6668C64.7736 16.9332 64.7099 17.1318 64.5825 17.2717C64.4551 17.4117 64.2776 17.4794 64.0592 17.4794H63.5314V16.0935H59.9824V15.7188C59.9824 15.624 60.0006 15.5473 60.037 15.4931C60.0734 15.4389 60.1144 15.3983 60.1599 15.3757C60.2099 15.3441 60.26 15.3261 60.3055 15.3216C60.351 15.317 60.3874 15.3125 60.4101 15.3125H68.1178V15.6692ZM67.1896 19.0684C67.1896 19.1723 67.1714 19.249 67.135 19.3032C67.0986 19.3619 67.0577 19.4025 67.0122 19.4296C66.9667 19.4567 66.9212 19.4747 66.8757 19.4792C66.8302 19.4837 66.7983 19.4883 66.7847 19.4883H61.0107V17.7638C61.0107 17.511 61.0744 17.3124 61.1927 17.1769C61.3156 17.0415 61.493 16.9693 61.7342 16.9693H62.262V18.6892H67.1942V19.0684H67.1896ZM66.6664 13.0193C66.6664 13.2901 66.5981 13.5474 66.4616 13.7822C66.3206 14.0169 66.134 14.2291 65.8974 14.4052C65.6654 14.5812 65.3878 14.7166 65.0693 14.816C64.7508 14.9198 64.4096 14.9694 64.0456 14.9694C63.6816 14.9694 63.3494 14.9198 63.0309 14.8205C62.7124 14.7257 62.4349 14.5857 62.1937 14.4052C61.9617 14.2336 61.7706 14.0305 61.6341 13.7912C61.493 13.552 61.4248 13.2992 61.4248 13.0193C61.4248 12.7529 61.493 12.5046 61.6295 12.2699C61.766 12.0352 61.9526 11.832 62.1937 11.6514C62.4303 11.4799 62.7079 11.34 63.0218 11.2361C63.3403 11.1323 63.6816 11.0781 64.0456 11.0781C64.4096 11.0781 64.7463 11.1278 65.0602 11.2361C65.3787 11.34 65.6563 11.4799 65.8883 11.6514C66.1295 11.8275 66.3206 12.0352 66.4571 12.2699C66.5936 12.5046 66.6618 12.7529 66.6618 13.0193H66.6664ZM65.3605 13.0193C65.3605 12.8568 65.3241 12.6988 65.2559 12.5543C65.1876 12.4053 65.0921 12.2789 64.9738 12.1751C64.8555 12.0622 64.7144 11.972 64.5552 11.9133C64.3914 11.8456 64.223 11.814 64.0456 11.814C63.8681 11.814 63.6952 11.8456 63.5314 11.9133C63.3722 11.9765 63.2311 12.0622 63.1128 12.1751C62.99 12.2789 62.8944 12.4053 62.8262 12.5543C62.7579 12.6988 62.7261 12.8568 62.7261 13.0193C62.7261 13.1908 62.7579 13.3488 62.8262 13.5023C62.8944 13.6468 62.99 13.7777 63.1128 13.8905C63.2311 13.9989 63.3722 14.0801 63.5314 14.1388C63.6952 14.202 63.8636 14.2336 64.0456 14.2336C64.2276 14.2336 64.3914 14.202 64.5552 14.1388C64.719 14.0801 64.8555 13.9944 64.9738 13.8905C65.0921 13.7822 65.1876 13.6468 65.2559 13.5023C65.3241 13.3533 65.3605 13.1908 65.3605 13.0193Z" fill="black"/>
</g>
<g id="Group_5">
<path id="Vector_10" d="M71.4124 14.2742C71.3396 14.3012 71.2577 14.3103 71.1667 14.3012C71.0757 14.2922 71.0029 14.2561 70.9438 14.1884L70.8027 14.0213C71.0894 13.922 71.3487 13.7956 71.5899 13.6512C71.831 13.5067 72.0403 13.3487 72.2132 13.1727C72.3861 12.9966 72.5272 12.8115 72.6273 12.6084C72.7274 12.4052 72.7774 12.1976 72.782 11.9854H70.9802V11.7281C70.9802 11.6468 71.0029 11.5881 71.0439 11.552C71.0848 11.5159 71.144 11.4979 71.2122 11.4979H73.5418C73.5509 11.8545 73.5009 12.1795 73.3962 12.4775C73.2916 12.7754 73.1414 13.0372 72.9503 13.272C72.7592 13.5067 72.5317 13.7053 72.2678 13.8724C72.0039 14.0394 71.7218 14.1703 71.4124 14.2696V14.2742ZM75.2162 15.7729V16.0031C75.2162 16.0799 75.1935 16.1431 75.1434 16.1882C75.0934 16.2334 75.0342 16.2604 74.966 16.2604H71.7446V14.9784C71.7446 14.8204 71.781 14.703 71.8492 14.6172C71.9175 14.5315 72.0267 14.4908 72.1768 14.4908H72.5044V15.7729H75.2208H75.2162ZM74.3927 14.9468V13.1727H73.419V12.9199C73.419 12.8431 73.4417 12.7844 73.4918 12.7348C73.5418 12.6896 73.601 12.6671 73.6692 12.6671H74.3927V11.8635C74.3927 11.7055 74.4291 11.5836 74.5019 11.4979C74.5747 11.4121 74.6884 11.3669 74.834 11.3669H75.1571V14.4457C75.1571 14.6037 75.1207 14.7256 75.0479 14.8114C74.9751 14.8971 74.8613 14.9423 74.7157 14.9423H74.3927V14.9468Z" fill="#77797B"/>
<path id="Vector_11" d="M78.952 13.6151C78.9065 13.6783 78.8382 13.7144 78.7472 13.7234C78.6562 13.7324 78.5698 13.7189 78.4833 13.6783C78.3104 13.5925 78.133 13.4841 77.9555 13.3442C77.7735 13.2088 77.6234 13.0598 77.5051 12.8973C77.4459 12.9966 77.3731 13.0959 77.2867 13.1907C77.2002 13.2855 77.1092 13.3758 77.0137 13.4571C76.9181 13.5383 76.8226 13.6105 76.7225 13.6783C76.6269 13.746 76.5359 13.8001 76.4495 13.8453C76.4131 13.8679 76.3721 13.8814 76.3266 13.8904C76.2811 13.8995 76.2356 13.904 76.1901 13.904C76.1446 13.904 76.1037 13.8949 76.0627 13.8814C76.0218 13.8679 75.9899 13.8453 75.9581 13.8137L75.7852 13.6196C75.949 13.5203 76.1128 13.4119 76.2675 13.2945C76.4222 13.1772 76.5632 13.0508 76.6815 12.9108C76.8044 12.7754 76.8999 12.6309 76.9727 12.4775C77.0455 12.324 77.0819 12.1615 77.0819 11.9899V11.9041C77.0819 11.7461 77.1183 11.6243 77.1957 11.5385C77.273 11.4527 77.3822 11.4076 77.5233 11.4076H77.8372V11.868C77.8372 12.1976 77.9464 12.4865 78.1603 12.7303C78.3741 12.974 78.6835 13.1997 79.093 13.4164L78.9383 13.606L78.952 13.6151ZM80.3716 16.0167C80.3716 16.0979 80.3488 16.1611 80.2988 16.2063C80.2487 16.2514 80.185 16.2785 80.1077 16.2785H76.8317V15.4118C76.8317 15.2538 76.8681 15.1364 76.9409 15.0506C77.0137 14.9648 77.1274 14.9242 77.273 14.9242H79.5389V14.554H76.8317V14.3283C76.8317 14.2516 76.859 14.1929 76.909 14.1432C76.9591 14.0981 77.0182 14.0755 77.091 14.0755H80.2942V14.9378C80.2942 15.001 80.2806 15.0596 80.2533 15.1138C80.226 15.168 80.1896 15.2176 80.1441 15.2583C80.0986 15.2989 80.044 15.3305 79.9803 15.3531C79.9166 15.3756 79.8529 15.3892 79.7846 15.3892H77.587V15.7955H80.3761V16.0076L80.3716 16.0167ZM79.5571 13.8859V12.6084H78.547V12.3556C78.547 12.2788 78.5698 12.2201 78.6198 12.1705C78.6699 12.1253 78.729 12.1028 78.7973 12.1028H79.5571V11.8635C79.5571 11.7055 79.5935 11.5836 79.6663 11.4979C79.7391 11.4121 79.8529 11.3669 79.9985 11.3669H80.3215V13.3848C80.3215 13.5428 80.2851 13.6647 80.2123 13.7505C80.1395 13.8363 80.0258 13.8814 79.8802 13.8814H79.5571V13.8859Z" fill="#77797B"/>
<path id="Vector_12" d="M81.0488 14.685V14.4457C81.0488 14.3644 81.0761 14.3058 81.1262 14.2606C81.1762 14.2155 81.2399 14.1974 81.3127 14.1974H85.8263V14.4367C85.8263 14.5179 85.799 14.5766 85.749 14.6218C85.6989 14.6669 85.6352 14.685 85.5624 14.685H83.838V15.7955C83.838 15.9444 83.797 16.0573 83.7197 16.1386C83.6423 16.2153 83.5286 16.2559 83.3921 16.2559H83.0827V14.6895H81.0534L81.0488 14.685ZM81.6904 13.7234V11.868C81.6904 11.71 81.7268 11.5927 81.7996 11.5069C81.8724 11.4211 81.9861 11.3805 82.1317 11.3805H82.4457V12.184H84.4841V11.8635C84.4841 11.7055 84.5205 11.5881 84.5933 11.5024C84.6661 11.4166 84.7798 11.376 84.9254 11.376H85.2394V13.132C85.2394 13.2178 85.2257 13.2946 85.1939 13.3668C85.162 13.439 85.1211 13.5022 85.0665 13.5519C85.0119 13.606 84.9482 13.6467 84.8708 13.6738C84.7935 13.7054 84.7161 13.7189 84.6297 13.7189H81.6858L81.6904 13.7234ZM82.4502 12.6761V13.2314H84.4886V12.6761H82.4502Z" fill="#77797B"/>
<path id="Vector_13" d="M88.3572 15.3757V14.3464H86.2051V14.1117C86.2051 14.0349 86.2278 13.9717 86.2779 13.9266C86.3279 13.8814 86.3916 13.8543 86.4735 13.8543H91.0008V14.0891C91.0008 14.1658 90.978 14.229 90.928 14.2742C90.8825 14.3193 90.8142 14.3464 90.7323 14.3464H89.108V14.8746C89.108 15.0416 89.067 15.168 88.9897 15.2493C88.9123 15.335 88.8031 15.3757 88.6666 15.3757H88.3572ZM86.8011 15.2538C86.8011 15.0958 86.8375 14.9739 86.9149 14.8881C86.9922 14.8023 87.1014 14.7617 87.2516 14.7617H87.561V15.7549H90.4684V15.9851C90.4684 16.0618 90.4457 16.125 90.3956 16.1702C90.3456 16.2153 90.2819 16.2424 90.2 16.2424H86.8011V15.2538ZM90.5003 12.8115C90.5003 12.9018 90.4821 12.9831 90.4457 13.0553C90.4093 13.1275 90.3592 13.1907 90.3001 13.2404C90.2409 13.2946 90.1727 13.3307 90.0953 13.3623C90.018 13.3894 89.9406 13.4029 89.8587 13.4029H86.8239V12.0035C86.8239 11.9177 86.8421 11.8365 86.8785 11.7642C86.9149 11.692 86.9649 11.6288 87.0241 11.5746C87.0832 11.5205 87.1515 11.4843 87.2288 11.4527C87.3062 11.4257 87.3835 11.4121 87.4654 11.4121H90.5003V12.8115ZM87.5792 12.9199H89.7404V11.8951H87.5792V12.9199Z" fill="#77797B"/>
</g>
</g>
<defs>
<clipPath id="clip0_1271_20616">
<rect width="91" height="27" fill="white"/>
</clipPath>
</defs>
</svg>
