<svg width="118" height="27" viewBox="0 0 118 27" fill="none" xmlns="http://www.w3.org/2000/svg">
<g id="_&#235;&#160;&#136;&#236;&#157;&#180;&#236;&#150;&#180;_1" clip-path="url(#clip0_1271_20389)">
<path id="Vector" d="M38.6971 19.8696C37.8888 19.8696 37.1867 20.2353 36.697 20.8074C36.2073 21.3736 35.93 22.1344 35.93 22.9306C35.93 23.4673 36.1011 23.9745 36.4374 24.3401C36.7737 24.6999 37.2693 24.9299 37.9006 24.9299H37.9124C38.7502 24.9299 39.4523 24.5466 39.9302 23.9686C40.414 23.3965 40.6854 22.6357 40.6854 21.8926C40.6854 21.3854 40.532 20.8782 40.2075 20.5007C39.883 20.1232 39.3874 19.8755 38.703 19.8755M39.2104 23.4496C38.9036 23.886 38.4788 24.1809 37.995 24.1809H37.9832C37.6469 24.1809 37.3696 24.0453 37.1808 23.8211C36.992 23.597 36.8799 23.2726 36.8799 22.8893C36.8799 22.3585 37.0569 21.7805 37.3519 21.3441C37.6528 20.9076 38.0835 20.6069 38.5968 20.6069C39.0216 20.6069 39.293 20.7897 39.47 21.0433C39.6411 21.291 39.7001 21.6154 39.7001 21.8808C39.7001 22.4234 39.5172 23.0072 39.2104 23.4437M48.1843 20.1704C47.9483 19.964 47.6356 19.8696 47.3406 19.8696C46.6326 19.8814 46.0131 20.2176 45.5706 20.8428C45.5293 20.5892 45.4349 20.3591 45.2638 20.1881C45.0632 19.9876 44.7741 19.8696 44.3847 19.8696C43.7534 19.8696 43.1457 20.1763 42.6855 20.7897L42.8094 19.9817H41.9716V20.023C41.9126 20.4122 41.8477 20.8723 41.7415 21.4031L41.0689 24.8238H41.9952L42.4613 22.4057C42.5557 21.9103 42.7917 21.4679 43.0808 21.1494C43.364 20.8369 43.7003 20.6481 43.9953 20.6481C44.2903 20.6481 44.4614 20.7425 44.5558 20.884C44.6502 21.0256 44.6797 21.2202 44.6797 21.4148C44.6797 21.5977 44.662 21.7687 44.6207 21.981L44.0602 24.8238H44.9747L45.4526 22.3585C45.5529 21.8395 45.783 21.4031 46.0603 21.1082C46.3376 20.8133 46.6621 20.6481 46.9571 20.6481C47.2226 20.6481 47.3878 20.7248 47.494 20.8546C47.6002 20.9843 47.6533 21.1789 47.6533 21.4207C47.6533 21.6154 47.6179 21.8572 47.5825 22.0282L47.0456 24.8238H47.9719L48.5265 21.981C48.5796 21.7156 48.6091 21.3854 48.6091 21.1671C48.6091 20.713 48.4439 20.3827 48.2079 20.1704M26.1832 19.8696C25.841 19.8696 25.5342 19.9935 25.2687 20.1999C25.0504 20.3768 24.8675 20.6128 24.7141 20.8723C24.7613 20.5774 24.7967 20.3002 24.8203 20.0171V19.9699H23.9884V20.0112C23.9294 20.4535 23.8645 21.0787 23.7406 21.692L23.127 24.812H24.071L24.484 22.677C24.5902 22.1344 24.8026 21.6508 25.074 21.3087C25.3454 20.9666 25.6817 20.7661 26.0298 20.7661C26.1183 20.7661 26.195 20.772 26.254 20.7838H26.2953L26.4782 19.8932H26.431C26.3602 19.8755 26.2658 19.8637 26.1832 19.8637M16.9025 20.1704C16.6665 19.964 16.3538 19.8696 16.0647 19.8696C15.3567 19.8814 14.7313 20.2176 14.2888 20.8428C14.2534 20.5892 14.1531 20.3591 13.982 20.1881C13.7873 19.9876 13.4923 19.8696 13.1029 19.8696C12.4716 19.8696 11.8639 20.1763 11.4096 20.7897L11.5276 19.9817H10.6898V20.023C10.6308 20.4122 10.5659 20.8723 10.4656 21.4031L9.79304 24.8238H10.7134L11.1795 22.4057C11.2739 21.9103 11.5099 21.4679 11.799 21.1494C12.0822 20.8369 12.4244 20.6481 12.7194 20.6481C13.0144 20.6481 13.1796 20.7425 13.2799 20.884C13.3743 21.0256 13.4038 21.2202 13.4038 21.4148C13.4038 21.5977 13.3861 21.7687 13.3448 21.981L12.7843 24.8238H13.6988L14.1708 22.3585C14.2711 21.8395 14.5012 21.4031 14.7785 21.1082C15.0558 20.8133 15.3803 20.6481 15.6753 20.6481C15.9408 20.6481 16.106 20.7248 16.2181 20.8546C16.3243 20.9843 16.3715 21.1789 16.3715 21.4207C16.3715 21.6154 16.342 21.8572 16.3007 22.0282L15.7638 24.8238H16.6842L17.2388 21.981C17.2919 21.7156 17.3214 21.3854 17.3214 21.1671C17.3214 20.713 17.1562 20.3827 16.9143 20.1704M8.22364 18.0177C7.58054 18.0177 6.98464 18.2065 6.55394 18.5485C6.12914 18.8965 5.85184 19.3919 5.85184 20.0053C5.85184 20.3709 5.97574 20.6894 6.21764 20.9784C6.45364 21.2615 6.80174 21.5092 7.24424 21.7451C7.60414 21.928 7.84604 22.1108 8.00534 22.2995C8.15874 22.4882 8.22364 22.6947 8.22364 22.9306C8.22364 23.308 8.05254 23.6029 7.78704 23.8093C7.52744 24.0158 7.16164 24.1219 6.77814 24.1219C6.21764 24.1219 5.70434 23.9509 5.35034 23.7091L5.30314 23.6796L5.27954 23.7327L4.96094 24.4286L4.98454 24.4522C5.13204 24.582 5.37984 24.694 5.67484 24.7766C5.96984 24.8591 6.31204 24.9181 6.66604 24.9181C7.44484 24.9181 8.08204 24.6881 8.51864 24.3166C8.94934 23.9391 9.19124 23.4083 9.19124 22.8244C9.19124 22.4116 9.07324 22.0695 8.84904 21.7746C8.62484 21.4856 8.29444 21.2438 7.85784 21.0197C7.50384 20.831 7.23834 20.6599 7.06724 20.4771C6.89614 20.2943 6.81944 20.0937 6.81944 19.8401C6.81944 19.5865 6.93744 19.3329 7.16164 19.1383C7.38584 18.9437 7.71624 18.8139 8.13514 18.8139H8.17644C8.68384 18.8139 9.09684 19.0027 9.29744 19.1206L9.34464 19.1442L9.68684 18.3952L9.65734 18.3716C9.40954 18.2065 8.90804 18.0236 8.22364 18.0236V18.0177ZM27.9355 22.9837L28.378 20.7071H29.5639L29.7114 19.9758H28.5255L28.7497 18.8139L28.6789 18.8316L27.7585 19.1029L27.5874 19.9699H26.8853L26.7437 20.7012H27.4458L26.9797 23.0485C26.9089 23.3906 26.8676 23.6678 26.8676 23.9509C26.8676 24.2045 26.9443 24.4463 27.1213 24.6291C27.2924 24.8061 27.5697 24.9181 27.9473 24.9181C28.1951 24.9181 28.4547 24.8886 28.614 24.8297L28.6435 24.8179L28.6907 24.0865L28.6317 24.1042C28.5255 24.1337 28.4016 24.1396 28.2482 24.1396C28.0948 24.1396 27.9945 24.0983 27.9237 24.0276C27.8588 23.9627 27.8234 23.8565 27.8234 23.7268C27.8234 23.485 27.8647 23.2491 27.9237 22.9837H27.9296H27.9355ZM21.4101 19.8696C20.3245 19.8696 19.4631 20.3061 18.8731 20.9607C18.2831 21.6154 17.9586 22.4706 17.9586 23.308C17.9586 23.7681 18.0943 24.175 18.348 24.464C18.6017 24.753 18.9675 24.924 19.4218 24.924C19.7758 24.924 20.1298 24.8356 20.4661 24.6232C20.7611 24.4345 21.0384 24.1396 21.2862 23.7209C21.239 24.1396 21.1977 24.5171 21.1977 24.7707V24.812H22.0827V24.5584C22.0827 24.0394 22.1476 23.2962 22.2892 22.5826L22.7966 20.0584L22.7553 20.0466C22.4131 19.9463 21.888 19.8696 21.416 19.8696M21.4573 22.0518C21.3393 22.677 21.0797 23.2078 20.7552 23.5793C20.4366 23.9509 20.0531 24.1632 19.7168 24.1573C19.41 24.1573 19.2153 24.0394 19.0973 23.8565C18.9734 23.6737 18.9262 23.4201 18.9262 23.1606C18.9262 22.5118 19.1799 21.869 19.5929 21.3972C20.0059 20.9194 20.5782 20.6128 21.1977 20.6128C21.4514 20.6128 21.6107 20.6363 21.7228 20.6658L21.4514 22.0577H21.4573V22.0518ZM34.3606 20.8958H31.2926L31.8413 18.1062H30.8973L29.5757 24.812H30.5138L31.1274 21.7038H34.1836L33.5877 24.812H34.5317L35.8592 18.1062H34.9152L34.3665 20.8958H34.3606ZM92.0154 19.9758L90.741 22.6416C90.5168 23.1016 90.3811 23.4142 90.2631 23.6973C90.21 23.3847 90.151 23.0485 90.0566 22.5649L89.561 19.9758H88.5816L89.5905 24.4876C89.5905 24.523 89.6023 24.5525 89.6023 24.5761C89.6023 24.6114 89.6023 24.635 89.5728 24.6704C89.3132 25.1304 88.9592 25.5138 88.6229 25.7556C88.2984 26.0033 87.9444 26.1272 87.7261 26.2097L87.6848 26.2215L87.9267 27L87.968 26.9882C88.2512 26.9293 88.8589 26.6993 89.4194 26.1626C90.0979 25.5197 90.5994 24.6822 91.1304 23.6501L93.0243 19.9699H92.0154V19.9817V19.9758ZM83.1654 19.8991H83.1123C83.0415 19.8814 82.9471 19.8696 82.8645 19.8696C82.5223 19.8696 82.2214 19.9935 81.95 20.1999C81.7317 20.3768 81.5488 20.6128 81.3954 20.8723C81.4426 20.5774 81.4721 20.3002 81.5016 20.0171V19.9699H80.6756V20.0112C80.6166 20.4535 80.5458 21.0787 80.4278 21.692L79.8142 24.812H80.7582L81.1712 22.677C81.2774 22.1344 81.4898 21.6508 81.7671 21.3087C82.0385 20.9666 82.3748 20.7661 82.717 20.7661C82.8055 20.7661 82.8822 20.772 82.9412 20.7838H82.9825L83.1654 19.8932H83.1713L83.1654 19.8991ZM82.9353 24.8179H83.8793L84.8351 19.9758H83.8911L82.9353 24.8179ZM84.6522 17.9941C84.31 17.9941 84.0386 18.2654 84.0268 18.6193C84.0268 18.7844 84.0799 18.926 84.1802 19.0262C84.2746 19.1324 84.4103 19.1914 84.5755 19.1914H84.5873C84.7643 19.1914 84.9236 19.1324 85.0416 19.0204C85.1596 18.9083 85.2304 18.7491 85.2363 18.5721C85.2363 18.407 85.1773 18.2654 85.077 18.1593C84.9767 18.059 84.8292 17.9941 84.6581 17.9941M78.5457 19.9758L78.0619 22.447C77.9616 22.9542 77.7197 23.3847 77.4306 23.6796C77.1415 23.9745 76.7993 24.1396 76.4984 24.1396C76.1975 24.1396 76.0382 24.0571 75.9261 23.9273C75.814 23.7975 75.7668 23.6029 75.7668 23.3611C75.7668 23.1606 75.7963 22.9365 75.8494 22.677L76.3745 19.9699H75.4423L74.8995 22.6888C74.8346 23.0013 74.8051 23.2726 74.8051 23.4968C74.8051 24.0453 74.9821 24.4109 75.2358 24.6291C75.4954 24.8474 75.8317 24.9181 76.1562 24.9181C76.7816 24.9181 77.4011 24.5761 77.8495 24.0099L77.7315 24.8061H78.5988V24.7648C78.6401 24.3755 78.7168 23.9214 78.8171 23.3847L79.5015 19.964H78.5457V19.9758ZM86.9709 24.1455C86.8175 24.1455 86.7172 24.1042 86.6523 24.0335C86.5874 23.9686 86.552 23.8624 86.552 23.7327C86.552 23.4909 86.5933 23.255 86.6523 22.9896L87.0889 20.713H88.2748L88.4282 19.9817H87.2423L87.4724 18.8198L87.3957 18.8375L86.4812 19.1088L86.3101 19.9758H85.608L85.4664 20.7071H86.1685L85.7024 23.0544C85.6316 23.3965 85.5844 23.6737 85.5844 23.9568C85.5844 24.2104 85.6611 24.4522 85.8381 24.635C86.0092 24.812 86.2865 24.924 86.6641 24.924C86.9119 24.924 87.1715 24.8945 87.3308 24.8356L87.3603 24.8238L87.4075 24.0924L87.3485 24.1101C87.2364 24.1396 87.1125 24.1455 86.9591 24.1455M68.6219 19.8696C67.8136 19.8696 67.1233 20.2766 66.6454 20.8782C66.1675 21.4679 65.8843 22.2464 65.8843 22.966C65.8843 23.4968 66.0318 23.9922 66.3445 24.346C66.6572 24.7058 67.141 24.924 67.8077 24.924C68.4744 24.924 69.088 24.7471 69.4597 24.5466L69.4951 24.5348V24.4994L69.3535 23.8329L69.3004 23.8624C68.9995 24.0158 68.5747 24.1809 67.9965 24.1809C67.7487 24.1809 67.5304 24.1337 67.3534 24.0335C67.1764 23.9332 67.0348 23.7799 66.9404 23.5734C66.8637 23.4024 66.8224 23.1252 66.8224 22.9129C66.8224 22.848 66.8283 22.789 66.8342 22.7418H67.0112C67.8785 22.7418 68.6455 22.6534 69.206 22.4175C69.4892 22.2995 69.7193 22.1403 69.8727 21.928C70.032 21.7215 70.1205 21.462 70.1205 21.1553C70.1205 20.8015 69.9848 20.483 69.7311 20.2471C69.4774 20.0171 69.1057 19.8814 68.6219 19.8814V19.8696ZM69.206 21.1553C69.206 21.3205 69.1529 21.4502 69.0526 21.5564C68.9051 21.7215 68.6396 21.8336 68.2974 21.9044C67.9611 21.9751 67.5422 21.9987 67.0761 21.9987H66.9522C67.0584 21.6567 67.2472 21.3087 67.5009 21.0433C67.7723 20.7661 68.1086 20.5892 68.498 20.5892C68.7163 20.5892 68.8933 20.6422 69.0113 20.7366C69.1352 20.831 69.2001 20.9607 69.2001 21.1377V21.1494H69.206V21.1553ZM58.94 22.0223C58.7276 22.6239 58.4975 23.0957 58.2025 23.4614C57.9429 23.1016 57.5948 22.5885 57.3234 22.1521C57.7541 21.9515 58.0786 21.7451 58.3087 21.5033C58.5329 21.2615 58.6509 20.9784 58.6509 20.6776C58.6509 20.4004 58.5565 20.1409 58.3736 19.9522C58.1907 19.7635 57.9134 19.6455 57.5594 19.6455C57.1464 19.6455 56.7924 19.8048 56.5328 20.0643C56.2791 20.3238 56.1316 20.6776 56.1316 21.0669C56.1316 21.3677 56.2319 21.6567 56.4089 21.9692C56.0962 22.1226 55.7835 22.3231 55.5416 22.5885C55.2938 22.8598 55.1286 23.2019 55.1286 23.6147C55.1286 23.9745 55.2584 24.293 55.5121 24.5348C55.7599 24.7707 56.1257 24.9122 56.5859 24.9122C57.1464 24.9122 57.6184 24.753 58.0432 24.3932C58.1553 24.5525 58.2497 24.6763 58.3736 24.812L58.3854 24.8297H59.2704L59.2055 24.753C58.9636 24.4699 58.763 24.2045 58.5742 23.9568C59.0462 23.4791 59.3707 22.8539 59.6598 22.0695L59.6834 22.0046H58.9813L58.9695 22.04H58.9518L58.94 22.0223ZM57.0166 20.4004C57.1346 20.2589 57.3057 20.1704 57.4886 20.1704H57.4945C57.6715 20.1704 57.7836 20.2294 57.8603 20.3238C57.9311 20.4181 57.9665 20.5479 57.9665 20.6835C57.9665 20.9076 57.878 21.0964 57.7128 21.2674C57.5594 21.4325 57.3293 21.5741 57.0343 21.7156C56.8868 21.4738 56.816 21.2438 56.816 20.9843C56.816 20.7543 56.8927 20.5479 57.0166 20.4063M56.7511 24.3225H56.7393C56.4561 24.3225 56.2378 24.2281 56.0903 24.0865C55.9428 23.9391 55.8661 23.7386 55.8661 23.5086C55.8661 23.2196 55.99 22.9896 56.1611 22.8067C56.3204 22.6357 56.5151 22.5059 56.6744 22.4057C57.0402 22.9955 57.4591 23.5734 57.7128 23.9214C57.465 24.1632 57.1405 24.3225 56.7511 24.3225ZM64.1674 18.0177C63.5302 18.0177 62.9343 18.2065 62.5036 18.5485C62.0729 18.8965 61.8015 19.3919 61.8015 20.0053C61.8015 20.3709 61.9313 20.6894 62.1673 20.9784C62.4033 21.2615 62.7514 21.5151 63.1939 21.7451C63.5538 21.928 63.8016 22.1108 63.955 22.2995C64.1084 22.4882 64.1733 22.6947 64.1733 22.9306C64.1733 23.308 64.0022 23.6029 63.7367 23.8093C63.4771 24.0158 63.1172 24.1219 62.7278 24.1219C62.1673 24.1219 61.654 23.9509 61.2941 23.7091L61.2469 23.6796L61.2233 23.7327L60.9047 24.4286L60.9283 24.4522C61.0817 24.582 61.3236 24.694 61.6186 24.7766C61.9136 24.8591 62.2558 24.9181 62.6157 24.9181C63.4004 24.9181 64.0317 24.6881 64.4683 24.3166C64.899 23.9391 65.1409 23.4083 65.135 22.8244C65.135 22.4116 65.017 22.0695 64.7928 21.7746C64.5686 21.4856 64.2382 21.2438 63.8075 21.0197C63.4476 20.831 63.188 20.6599 63.0169 20.4771C62.8458 20.2943 62.7632 20.0937 62.7632 19.8401C62.7632 19.5865 62.8812 19.3329 63.1054 19.1383C63.3296 18.9437 63.66 18.8139 64.0789 18.8139H64.1202C64.6276 18.8139 65.0347 19.0027 65.2412 19.1206L65.2884 19.1442L65.6306 18.3952L65.6011 18.3716C65.3533 18.2065 64.8459 18.0236 64.1615 18.0236M51.9957 19.8696C51.1874 19.8696 50.4971 20.2766 50.0192 20.8782C49.5413 21.4679 49.264 22.2464 49.264 22.966C49.264 23.4968 49.4056 23.9922 49.7242 24.346C50.0369 24.7058 50.5207 24.924 51.1815 24.924C51.8423 24.924 52.4618 24.7471 52.8335 24.5466L52.863 24.5348V24.4994L52.7214 23.8329L52.6683 23.8624C52.3674 24.0158 51.9367 24.1809 51.3585 24.1809C51.1107 24.1809 50.8924 24.1337 50.7154 24.0335C50.5325 23.9332 50.3968 23.7799 50.3024 23.5734C50.2257 23.4024 50.1903 23.1252 50.1903 22.9129C50.1903 22.848 50.1903 22.789 50.2021 22.7418H50.3791C51.2464 22.7418 52.0134 22.6534 52.5739 22.4175C52.8512 22.2995 53.0813 22.1403 53.2406 21.928C53.3999 21.7215 53.4884 21.462 53.4884 21.1553C53.4884 20.8015 53.3527 20.483 53.099 20.2471C52.8453 20.0171 52.4736 19.8814 51.9898 19.8814M52.5857 21.1553C52.5857 21.3205 52.5326 21.4502 52.4323 21.5564C52.2848 21.7215 52.0193 21.8336 51.683 21.9044C51.3408 21.9751 50.9278 21.9987 50.4617 21.9987H50.3378C50.444 21.6567 50.6328 21.3087 50.8865 21.0433C51.1579 20.7661 51.4942 20.5892 51.8836 20.5892C52.1019 20.5892 52.2789 20.6422 52.4028 20.7366C52.5208 20.831 52.5916 20.9607 52.5916 21.1377V21.1494H52.5857V21.1553ZM74.1148 19.9463C73.9319 19.905 73.7077 19.8696 73.4776 19.8696C72.5749 19.8696 71.8138 20.2471 71.271 20.8369C70.7341 21.4207 70.4214 22.2228 70.4214 23.0426C70.4214 23.5557 70.5807 24.0335 70.9052 24.3755C71.2238 24.7176 71.7135 24.924 72.3625 24.924C73.0115 24.924 73.5484 24.753 73.808 24.6232L73.8375 24.6114V24.5761L73.7431 23.8742L73.6841 23.9037C73.4304 24.0217 73.0646 24.1632 72.5572 24.1632C72.1678 24.1632 71.8787 24.0453 71.6722 23.8329C71.4775 23.6206 71.3772 23.3198 71.3772 22.9365C71.3772 22.388 71.5778 21.8041 71.9259 21.3677C72.2799 20.9312 72.7932 20.6363 73.4127 20.6363C73.7726 20.6363 74.0381 20.7248 74.2269 20.8074L74.2682 20.831L74.5455 20.1114L74.5101 20.0937C74.4275 20.0466 74.28 19.9935 74.0971 19.9463" fill="#005795"/>
<path id="Vector_2" d="M29.6476 8.17431C29.0458 10.7045 28.3083 12.9515 24.4379 12.9515C20.5675 12.9515 20.8979 10.7104 21.4938 8.17431C22.1192 5.53801 22.9098 3.40301 26.7094 3.40301C30.509 3.40301 30.2789 5.53801 29.6476 8.17431ZM27.3053 0C18.6736 0 17.2871 3.65662 16.3313 8.17431C15.4404 12.3499 14.933 16.3486 23.8361 16.3486C32.7392 16.3486 33.9428 12.2851 34.8101 8.17431C35.7718 3.65662 35.7895 0 27.2994 0" fill="#005795"/>
<path id="Vector_3" d="M58.1151 0.459961H52.5632C52.1325 0.459961 51.7431 0.719463 51.5484 1.04384L46.3918 9.90229L45.3416 1.12641C45.2944 0.760747 44.9876 0.459961 44.5864 0.459961H39.1643C38.7631 0.459961 38.4209 0.75485 38.3324 1.11461L34.9753 15.2103C34.8868 15.5701 35.0933 15.8649 35.4945 15.8649H39.1112C39.5419 15.8649 39.8546 15.5759 39.9372 15.2103L41.9314 6.83545C42.014 6.47569 42.1261 6.48159 42.1792 6.84725L43.3828 15.1985C43.4359 15.5642 43.7191 15.8649 44.1498 15.8649H46.085C46.5688 15.8649 46.8815 15.6526 47.1057 15.287L52.1089 6.76468C52.2977 6.4462 52.3803 6.47569 52.2918 6.83545L50.2976 15.2103C50.2091 15.5701 50.4156 15.8649 50.8168 15.8649H54.4335C54.8347 15.8649 55.1769 15.5759 55.2654 15.2103L58.6225 1.11461C58.7051 0.748952 58.475 0.459961 58.1033 0.459961" fill="#005795"/>
<path id="Vector_4" d="M92.9252 8.37477H88.4117L92.9252 2.07595V8.37477ZM82.3701 15.8708C82.8303 15.8708 83.2197 15.629 83.438 15.3223L86.0812 11.6421H92.9311V15.1985C92.9311 15.5701 93.173 15.8708 93.6037 15.8708H96.9785L94.9843 18.4069C94.7542 18.7018 94.8663 18.9377 95.238 18.9377H100.536C100.996 18.9377 101.386 18.6959 101.616 18.3951L108.301 9.3479L110.33 15.287C110.454 15.6349 110.761 15.9239 111.227 15.9239H115.487C115.888 15.9239 116.047 15.6467 115.906 15.2988L112.82 7.67883L117.888 1.00256C118.112 0.707667 117.994 0.465859 117.623 0.465859H112.749C112.289 0.465859 111.9 0.713565 111.675 1.00845L108.135 5.86232L106.596 1.10282C106.483 0.748952 106.177 0.459961 105.711 0.459961H101.256C100.855 0.459961 100.696 0.743054 100.831 1.08512L103.439 7.66114L97.8576 14.7503V1.1382C97.8576 0.766645 97.6157 0.465859 97.185 0.465859H88.9073C88.4471 0.465859 88.0577 0.713565 87.8335 1.00845L78.5705 13.8302L81.6031 1.11461C81.6857 0.75485 81.4556 0.459961 81.0839 0.459961H75.532C75.1013 0.459961 74.706 0.719463 74.5172 1.04384L69.3606 9.90229L68.3104 1.12641C68.2632 0.75485 67.9564 0.459961 67.5552 0.459961H62.1331C61.7319 0.459961 61.3956 0.75485 61.3071 1.11461L57.9441 15.2103C57.8615 15.5701 58.0621 15.8649 58.4633 15.8649H62.08C62.5107 15.8649 62.8234 15.576 62.906 15.2103L64.9002 6.83545C64.9828 6.47569 65.1008 6.48159 65.1539 6.84725L66.3575 15.1985C66.4106 15.5642 66.6938 15.8649 67.1245 15.8649H69.0597C69.5435 15.8649 69.8562 15.6585 70.0804 15.287L75.0836 6.76468C75.2724 6.4462 75.355 6.47569 75.2665 6.84135L73.2723 15.2162C73.1838 15.576 73.3903 15.8708 73.7856 15.8708H82.376H82.3701Z" fill="#005795"/>
<path id="Vector_5" d="M13.9129 12.3087C12.8804 12.35 10.9629 12.409 9.64723 12.3972C7.45243 12.3677 6.02462 11.66 5.55852 10.6396C5.20452 9.86704 5.35792 8.89391 5.53492 8.17438C5.70602 7.44895 6.01872 6.49351 6.76212 5.7386C7.71792 4.75957 9.34042 4.12851 11.6355 4.03414C13.0987 3.97516 14.9808 4.05184 15.972 4.09902C16.3791 4.12261 16.6092 3.8749 16.68 3.56822L17.2523 1.15013C17.329 0.831652 17.1638 0.536763 16.8216 0.483683C15.3643 0.271363 12.2491 0.0708391 10.3965 0.224181C7.96573 0.430603 5.81812 0.9673 4.05992 2.27071C2.00082 3.78054 0.755924 5.89194 0.248524 8.15079C-0.282476 10.3683 0.0302241 12.5505 1.32232 14.0191C2.46692 15.3225 4.24872 16.0361 6.59102 16.2366C8.42002 16.39 11.547 16.1895 13.0692 15.9653C13.4409 15.9123 13.6946 15.6174 13.7713 15.3048L14.3613 12.8572C14.4321 12.5446 14.2374 12.3087 13.9188 12.3205" fill="#005795"/>
</g>
<defs>
<clipPath id="clip0_1271_20389">
<rect width="118" height="27" fill="white"/>
</clipPath>
</defs>
</svg>
