<svg width="163" height="27" viewBox="0 0 163 27" fill="none" xmlns="http://www.w3.org/2000/svg">
<g id="_&#235;&#160;&#136;&#236;&#157;&#180;&#236;&#150;&#180;_1" clip-path="url(#clip0_1271_20358)">
<path id="Vector" d="M163 18.3452H144.051V20.8331H163V18.3452Z" fill="#152749"/>
<path id="Vector_2" d="M122.503 18.3372H103.48V20.8414H122.503V18.3372Z" fill="#152749"/>
<path id="Vector_3" d="M52.8854 20.4253C50.2937 20.4253 48.7452 19.7891 48.7452 19.1691C48.7452 18.3779 50.4486 17.8314 52.8854 17.8314C55.3223 17.8314 57.099 18.3861 57.099 19.1691C57.099 19.7809 55.5179 20.4253 52.8854 20.4253ZM52.8854 15.3271C48.0362 15.3271 45.1348 16.7465 45.1348 19.1284C45.1348 21.5102 48.1258 22.9296 52.9425 22.9296C57.7591 22.9296 60.7257 21.4368 60.7257 19.1284C60.7257 16.8199 57.7265 15.3271 52.9017 15.3271" fill="#152749"/>
<path id="Vector_4" d="M80.399 4.11123V3.98071H65.3623V6.46047H76.8864C76.8864 7.55352 76.6989 9.78857 76.4218 10.8327H63.8301V13.3124H70.9939V15.572H64.9711V18.0762H76.813V22.9297H80.3338V15.5801H74.5392V13.3206H81.703V10.8408H79.8367C80.2523 9.20941 80.4724 6.55836 80.4153 4.11123H80.399Z" fill="#152749"/>
<path id="Vector_5" d="M54.7362 11.9339V10.7674H60.5634V8.28766H48.966V6.50126H60.5553V3.98071H45.4452V10.7674H51.1828V11.9339H43.9863V14.4136H61.843V11.9339H54.728H54.7362Z" fill="#152749"/>
<path id="Vector_6" d="M101.101 3.51562H97.7266V22.9295H101.101V3.51562Z" fill="#152749"/>
<path id="Vector_7" d="M96.4713 16.1675C92.3963 13.7611 91.565 10.8083 91.565 7.10495V4.927H88.0768V7.10495C88.0768 10.8083 87.2455 13.7693 83.1705 16.1675L83.0156 16.2572L85.1917 18.6391L85.2243 18.6717L85.3221 18.6228C86.9439 17.8152 88.9325 15.7433 89.8209 13.9651C90.7011 15.7515 92.6897 17.8234 94.3197 18.6228L94.4175 18.6717L96.6261 16.2491L96.4713 16.1593V16.1675Z" fill="#152749"/>
<path id="Vector_8" d="M149.267 10.7838C147.841 11.9258 145.934 12.7089 144.043 12.9291L145.624 15.7351C147.132 15.4333 148.786 14.7644 150.147 13.8916C151.785 12.8394 152.959 11.9747 153.521 10.5962C154.084 11.9666 155.249 12.8394 156.896 13.8916C158.265 14.7644 159.911 15.4333 161.427 15.7351L162.992 12.9454V12.9291C161.109 12.7089 159.21 11.9258 157.776 10.7838C156.113 9.45417 155.51 8.02668 155.339 6.87653H161.525V4.41309H145.518V6.87653H151.704C151.533 8.02668 150.93 9.46233 149.267 10.7838Z" fill="#152749"/>
<path id="Vector_9" d="M117.262 10.0088C115.192 8.36106 114.76 6.53387 114.76 5.29399V4.02148H111.231V5.29399C111.231 6.52571 110.799 8.35291 108.729 10.0088C107.294 11.1508 105.379 11.942 103.488 12.1623V12.1786L105.069 14.9765C106.593 14.6747 108.24 14.0058 109.609 13.1248C111.255 12.0725 112.429 11.1997 112.991 9.82118C113.562 11.2079 114.727 12.0725 116.373 13.1248C117.743 14.0058 119.397 14.6747 120.913 14.9765L122.494 12.1623C120.595 11.942 118.688 11.1589 117.254 10.0088" fill="#152749"/>
<path id="Vector_10" d="M133.056 13.9485V11.6645L132.959 11.6808C132.03 11.8603 130.074 11.999 128.598 11.999C128.313 11.999 128.028 11.9908 127.734 11.9663V10.5878H131.883V8.30381H127.734V6.77027H132.551V4.46997H124.572V14.2748L124.89 14.2911C125.713 14.3319 126.496 14.3645 127.294 14.3645C129.731 14.3645 131.875 14.1443 133.056 13.9485Z" fill="#152749"/>
<path id="Vector_11" d="M134.589 14.8541H137.515V3.98071H134.589V7.82271H133.057V10.539H134.589V14.8541Z" fill="#152749"/>
<path id="Vector_12" d="M141.582 3.51562H138.656V15.425H141.582V3.51562Z" fill="#152749"/>
<path id="Vector_13" d="M130.286 18.4595H138.232V20.6048H130.286V18.4595ZM126.969 22.8643H141.582V16.2163H126.969V22.8643Z" fill="#152749"/>
<path id="Vector_14" d="M37.2783 3.98071H30.5464L21.3613 14.1771L29.2994 23.0112H36.0313L28.0932 14.1852L37.2783 3.98071Z" fill="#152749"/>
<path id="Vector_15" d="M9.83789 27.0001H16.1297L23.2446 19.0958L20.0987 15.5964L9.83789 27.0001Z" fill="#BA202A"/>
<path id="Vector_16" d="M25.2968 0L16.9512 9.27462L20.0889 12.7659L31.5886 0H25.2968Z" fill="#BA202A"/>
<path id="Vector_17" d="M16.0392 11.8931C16.0229 11.7953 16.0066 11.7055 15.9903 11.6076C15.8436 10.9143 15.6235 10.2454 15.3383 9.60915C15.2975 9.51127 15.2486 9.42154 15.2079 9.32366C13.6594 6.19133 10.4402 4.0297 6.7971 3.99707H0V9.32366H6.8297C7.3676 9.32366 7.8729 9.4297 8.33745 9.60915C9.29915 9.98438 10.0815 10.7022 10.5461 11.6076C10.595 11.7055 10.6439 11.7953 10.6846 11.8931C10.8884 12.3826 11.0025 12.9291 11.0025 13.5001C11.0025 15.2783 9.8941 16.7792 8.33745 17.391C7.8729 17.5705 7.35945 17.6765 6.8297 17.6765H4.6781V11.8931H0.00815V23.0113H7.00085C10.5542 22.8889 13.6757 20.7436 15.1997 17.6684C15.2486 17.5705 15.2894 17.4808 15.3301 17.3829C15.868 16.1919 16.1696 14.8786 16.1696 13.5001C16.1696 12.9536 16.1207 12.4152 16.031 11.8931H16.0392Z" fill="#152749"/>
</g>
<defs>
<clipPath id="clip0_1271_20358">
<rect width="163" height="27" fill="white"/>
</clipPath>
</defs>
</svg>
