<svg width="188" height="27" viewBox="0 0 188 27" fill="none" xmlns="http://www.w3.org/2000/svg">
<g id="_&#235;&#160;&#136;&#236;&#157;&#180;&#236;&#150;&#180;_1" clip-path="url(#clip0_1271_20376)">
<path id="Vector" d="M41.0128 12.5151C39.772 12.5151 38.6534 12.9109 37.751 13.6366V12.845H34.8652V26.6795H37.8262V18.3204C37.8262 16.6052 39.0388 15.3706 40.712 15.3706C42.3852 15.3706 43.3816 16.4921 43.3816 18.3769V26.689H46.3144V18.4523C46.3144 14.8523 44.2276 12.5246 41.0034 12.5246L41.0128 12.5151Z" fill="#1F2A67"/>
<path id="Vector_2" d="M80.5395 14.1644C79.6089 13.2596 78.2459 12.5151 76.5915 12.5151C72.7845 12.5151 69.8047 15.7005 69.8047 19.7717C69.8047 23.8429 72.7845 27 76.5915 27C78.0485 27 79.4773 26.3874 80.5395 25.3413V26.6701H83.4253V12.8356H80.5395V14.1549V14.1644ZM76.5915 24.0879C74.4859 24.0879 72.7657 22.1654 72.7657 19.8C72.7657 17.4345 74.4859 15.4366 76.5915 15.4366C78.6971 15.4366 80.4643 17.4345 80.4643 19.8C80.4643 22.1654 78.6877 24.0879 76.5915 24.0879Z" fill="#1F2A67"/>
<path id="Vector_3" d="M89.2628 13.7309V12.8262H86.377V26.6608H89.338V18.7257C89.338 17.7362 89.6294 16.9446 90.2122 16.3791C90.8514 15.7571 91.8384 15.5309 92.9382 15.5309H93.3988V12.5247H93.0134C91.547 12.5247 90.3062 12.6849 89.2628 13.7309Z" fill="#1F2A67"/>
<path id="Vector_4" d="M104.659 22.1466L99.9406 8.34033H96.002V26.6796H98.963V14.2398L103.221 26.6796H106.079L110.337 14.2398V26.6796H113.298V8.34033H109.378L104.659 22.1466Z" fill="#D93A2C"/>
<path id="Vector_5" d="M126.1 14.1644C125.169 13.2596 123.806 12.5151 122.152 12.5151C118.345 12.5151 115.365 15.7005 115.365 19.7717C115.365 23.8429 118.345 27 122.152 27C123.609 27 125.038 26.3874 126.1 25.3413V26.6701H128.986V12.8356H126.1V14.1549V14.1644ZM122.152 24.0879C120.046 24.0879 118.326 22.1654 118.326 19.8C118.326 17.4345 120.046 15.4366 122.152 15.4366C124.258 15.4366 126.025 17.4345 126.025 19.8C126.025 22.1654 124.248 24.0879 122.152 24.0879Z" fill="#1F2A67"/>
<path id="Vector_6" d="M136.3 23.334C135.905 22.957 135.708 22.3444 135.708 21.5057V15.7664H138.584V12.845H135.708V9.48999H132.775V12.845H131.055V15.7664H132.775V21.5057C132.775 23.2492 133.311 24.6628 134.335 25.5863C135.153 26.3308 136.375 26.7172 137.484 26.7172H138.65V23.824H138.189C137.324 23.824 136.723 23.7109 136.309 23.3245L136.3 23.334Z" fill="#1F2A67"/>
<path id="Vector_7" d="M66.1768 23.334C65.782 22.957 65.5846 22.3444 65.5846 21.5057V15.7664H68.461V12.845H65.5846V9.48999H62.6518V12.845H60.9316V15.7664H62.6518V21.5057C62.6518 23.2492 63.1876 24.6628 64.2122 25.5863C65.03 26.3308 66.252 26.7172 67.3612 26.7172H68.5268V23.824H68.0662C67.2014 23.824 66.5998 23.7109 66.1862 23.3245L66.1768 23.334Z" fill="#1F2A67"/>
<path id="Vector_8" d="M160.156 0V26.6796L184.389 6.27644L175.403 26.6796H187.999V0H160.156Z" fill="#1F2A67"/>
<path id="Vector_9" d="M8.93 7.91626C4.0044 7.91626 0 12.1854 0 17.4346C0 22.6838 4.0044 26.9812 8.93 26.9812C14.1564 26.9812 17.6626 23.2304 17.6626 17.6419V16.2943H9.0804V19.244H14.5888C14.1 22.1749 11.9286 24.0409 8.93 24.0409C5.6212 24.0409 2.9328 21.0817 2.9328 17.444C2.9328 13.8063 5.6212 10.8754 8.93 10.8754C11.0544 10.8754 12.8874 11.9875 13.9496 13.8534H17.1738C15.8296 10.1969 12.69 7.92568 8.93 7.92568V7.91626Z" fill="#1F2A67"/>
<path id="Vector_10" d="M54.4253 17.9528C51.7839 17.5287 51.5959 17.2083 51.5959 16.7277C51.5959 15.9644 52.6675 15.3612 54.0399 15.3612C55.4123 15.3612 56.4369 15.9926 56.6719 17.0952V17.1235H59.6611L59.6423 16.9539C59.3509 14.2115 57.2077 12.5151 54.0399 12.5151C50.3269 12.5151 48.6349 14.7392 48.6349 16.8031C48.6349 19.8471 51.3797 20.5068 53.9647 20.8837C57.0385 21.3078 57.0385 21.9204 57.0385 22.4575C57.0385 23.268 56.0797 24.1256 54.2937 24.1256C52.6205 24.1256 51.3985 23.3151 51.1729 22.0523L51.1071 21.6942H48.1367L48.2025 22.1937C48.5691 25.1151 50.9661 27 54.2937 27C57.6213 27 59.9243 25.1246 59.9243 22.335C59.9243 18.8387 56.8787 18.3486 54.4347 17.9528H54.4253Z" fill="#1F2A67"/>
<path id="Vector_11" d="M147.195 24.154C145.541 24.154 143.67 22.9477 143.313 20.7614H153.907V20.3278C153.916 18.0284 153.155 15.9739 151.745 14.5226C150.485 13.2315 148.822 12.5059 147.073 12.5059C143.323 12.5059 140.268 15.7572 140.268 19.7624C140.268 23.7676 143.313 26.9718 147.205 26.9718C149.987 26.9718 152.14 25.6336 153.24 23.2587L150.41 22.3258C149.743 23.5132 148.652 24.154 147.205 24.154H147.195ZM147.073 15.2388C148.605 15.2388 150.062 16.3603 150.57 17.9718H143.529C144.084 16.2189 145.748 15.2388 147.073 15.2388Z" fill="#1F2A67"/>
<path id="Vector_12" d="M26.1505 24.154C24.4961 24.154 22.6255 22.9477 22.2683 20.7614H32.8621V20.3278C32.8715 18.0284 32.1101 15.9739 30.7001 14.5226C29.4405 13.2315 27.7767 12.5059 26.0283 12.5059C22.2777 12.5059 19.2227 15.7572 19.2227 19.7624C19.2227 23.7676 22.2683 26.9718 26.1599 26.9718C28.9423 26.9718 31.0949 25.6336 32.1947 23.2587L29.3653 22.3258C28.6979 23.5132 27.6075 24.154 26.1599 24.154H26.1505ZM26.0283 15.2388C27.5605 15.2388 29.0175 16.3603 29.5251 17.9718H22.4845C23.0391 16.2189 24.7029 15.2388 26.0283 15.2388Z" fill="#1F2A67"/>
</g>
<defs>
<clipPath id="clip0_1271_20376">
<rect width="188" height="27" fill="white"/>
</clipPath>
</defs>
</svg>
