<svg width="220" height="27" viewBox="0 0 220 27" fill="none" xmlns="http://www.w3.org/2000/svg">
<g id="_&#235;&#160;&#136;&#236;&#157;&#180;&#236;&#150;&#180;_1" clip-path="url(#clip0_1271_20566)">
<g id="Group">
<path id="Vector" d="M4.91596 27C4.20096 27 3.51896 26.9232 2.85896 26.7805C2.19896 26.6379 1.63796 26.3635 1.17596 25.9683C0.713961 25.5732 0.372961 25.0244 0.163961 24.322C-0.0450388 23.6196 -0.0670389 22.6976 0.130961 21.5561L3.01296 5.30127C3.82696 5.30127 4.55296 5.43298 5.21296 5.69639C5.87296 5.95981 6.42296 6.322 6.85196 6.80493C7.29196 7.28785 7.58896 7.85859 7.76496 8.50615C7.94096 9.16468 7.95196 9.8781 7.79796 10.6464L4.92696 26.9891L4.91596 27Z" fill="#0055B8"/>
<path id="Vector_2" d="M15.4878 27C14.7728 27 14.0908 26.9232 13.4308 26.7805C12.7708 26.6379 12.2098 26.3635 11.7478 25.9683C11.2858 25.5732 10.9448 25.0244 10.7358 24.322C10.5268 23.6196 10.5158 22.6976 10.7028 21.5561L13.5738 5.30127C14.3878 5.30127 15.1248 5.43298 15.7738 5.69639C16.4338 5.95981 16.9728 6.322 17.4128 6.80493C17.8418 7.28785 18.1498 7.85859 18.3258 8.50615C18.5018 9.16468 18.5128 9.8781 18.3588 10.6464L15.4878 26.9891V27Z" fill="#0055B8"/>
<path id="Vector_3" d="M64.6344 13.4013C64.3484 15.0037 63.9084 16.3318 63.3254 17.3744C62.7424 18.4281 62.0054 19.2622 61.0924 19.8879C60.1794 20.5135 59.1014 20.9635 57.8474 21.2159C56.5934 21.4793 55.1414 21.611 53.5024 21.611H50.2244C49.1574 21.611 48.0354 21.5342 46.8364 21.3805C46.6824 22.1927 46.4404 22.9391 46.1104 23.6415C45.7804 24.333 45.3404 24.9257 44.7904 25.4196C44.2404 25.9135 43.5584 26.2976 42.7444 26.572C41.9304 26.8574 40.9624 26.9891 39.8184 26.9891L42.1944 13.3903C42.4584 11.8866 42.8764 10.6244 43.4374 9.59273C43.9984 8.56103 44.7244 7.72688 45.6264 7.09029C46.5284 6.45371 47.6064 5.99273 48.8824 5.71834C50.1584 5.44395 51.6544 5.30127 53.3704 5.30127H56.3844C57.9684 5.30127 59.3434 5.422 60.5094 5.67444C61.6754 5.92688 62.6104 6.35493 63.3034 6.95859C63.9964 7.56225 64.4694 8.38542 64.6894 9.4281C64.9204 10.4708 64.8874 11.7879 64.6014 13.3903L64.6344 13.4013ZM48.1124 14.3891C48.1344 14.7952 48.2444 15.1354 48.4424 15.4318C48.6404 15.7171 48.8934 15.9476 49.1904 16.1232C49.4874 16.2988 49.8284 16.4305 50.2024 16.5183C50.5764 16.6061 50.9394 16.6501 51.2914 16.6501H54.4484C54.8224 16.6501 55.1964 16.6061 55.6144 16.5183C56.0214 16.4305 56.4064 16.2988 56.7694 16.1232C57.1434 15.9476 57.4624 15.7171 57.7594 15.4318C58.0454 15.1464 58.2764 14.7952 58.4304 14.3891C58.6614 13.7964 58.7824 13.1708 58.7824 12.5342C58.7824 12.1281 58.6834 11.7769 58.4744 11.4915C58.2764 11.2061 58.0124 10.9647 57.7044 10.8001C57.3964 10.6244 57.0554 10.4927 56.6704 10.4049C56.2964 10.3171 55.9224 10.2732 55.5594 10.2732H52.4024C52.0504 10.2732 51.6764 10.3171 51.2694 10.4049C50.8624 10.4927 50.4774 10.6244 50.1254 10.8001C49.7734 10.9757 49.4434 11.2061 49.1464 11.4915C48.8494 11.7769 48.6184 12.1281 48.4644 12.5342C48.3544 12.8086 48.2664 13.1159 48.2004 13.4561C48.1454 13.8074 48.1124 14.1147 48.1124 14.3781V14.3891Z" fill="#0055B8"/>
<path id="Vector_4" d="M43.8775 0C41.7325 5.82805 26.5085 5.74024 22.7795 5.53171L21.8555 9.4939C26.2445 9.80122 45.8245 10.0427 43.8775 0.0109756V0Z" fill="#FF6C0E"/>
<path id="Vector_5" d="M33.8797 10.4048L31.0858 26.9999H25.3438L28.2147 10.9206C29.9967 10.8438 31.9438 10.6902 33.8688 10.4048H33.8797Z" fill="#0055B8"/>
</g>
<g id="Group_2">
<path id="Vector_6" d="M81.0708 10.3611V10.5806C81.0708 12.7208 82.2918 14.7403 84.8218 15.355L84.3158 16.2989C84.0408 16.8037 83.4248 16.7489 83.0838 16.6281C81.9398 16.2111 80.4108 15.1574 79.9158 13.7964C79.3328 15.322 77.6388 16.5733 76.5828 16.9135C76.1868 17.0452 75.6148 17.1111 75.2958 16.4745L74.8008 15.5306C77.0888 14.9708 78.5628 13.0611 78.5628 10.5696V10.3501H75.4718V8.87936H84.2058V10.3501H81.0818L81.0708 10.3611ZM85.4378 17.7916C86.2958 17.4294 86.2738 16.683 86.2738 15.9037V13.3025H83.2378V11.8318H86.2738V8.34155H88.6608V15.9696C88.6608 17.3086 87.9568 18.1647 87.0218 18.5708C87.8358 19.1855 88.3638 20.0964 88.3638 21.205C88.3638 23.0159 86.8128 24.8379 83.7768 24.8489C81.3568 24.8708 79.1788 23.6196 79.2118 21.205C79.2448 18.7025 81.5438 17.572 83.7988 17.572C84.3598 17.572 84.9318 17.6489 85.4378 17.7916ZM81.5988 21.205C81.5988 22.3355 82.3468 23.3672 83.7768 23.3672C85.2068 23.3672 85.9768 22.4233 85.9768 21.205C85.9768 19.7891 85.0308 19.0647 83.7988 19.0647C82.3798 19.0647 81.5988 20.0635 81.5988 21.205Z" fill="#717071"/>
<path id="Vector_7" d="M100.234 16.5184V19.2184H106.603V20.6892H91.8516V19.2184H97.8246V16.5184H95.6026C94.2606 16.5184 93.6776 15.805 93.6776 14.7623V8.90137H96.0756V11.2392H102.027V8.90137H104.414V15.1465C104.414 16.1672 104.194 16.5294 103.105 16.5294H100.245L100.234 16.5184ZM96.0646 12.7099V14.455C96.0646 14.8501 96.2516 15.0587 96.7026 15.0587H102.016V12.7209H96.0646V12.7099Z" fill="#717071"/>
<path id="Vector_8" d="M120.77 14.7732H116.744V16.1342H122.97V17.572H108.197V16.1342H114.324V14.7732H111.772C110.738 14.7732 110.023 14.0269 110.023 13.0171V8.55005H120.572V9.98785H112.421V10.8549H120.572V12.2927H112.421V12.622C112.421 13.094 112.641 13.3464 113.202 13.3464H120.748V14.7842L120.77 14.7732ZM120.121 21.5671C120.121 23.7403 118.097 24.8379 115.677 24.8379C113.257 24.8379 111.233 23.7513 111.233 21.5671C111.233 19.383 113.268 18.2854 115.677 18.2854C118.086 18.2854 120.121 19.394 120.121 21.5671ZM113.62 21.5671C113.62 22.6537 114.423 23.4 115.677 23.4C116.931 23.4 117.734 22.6537 117.734 21.5671C117.734 20.4805 116.986 19.7561 115.677 19.7561C114.368 19.7561 113.62 20.4805 113.62 21.5671Z" fill="#717071"/>
<path id="Vector_9" d="M130.109 8.98912V10.7452C130.109 12.8855 131.396 15.1245 133.915 15.7391L133.365 16.683C133.024 17.3196 132.397 17.0672 132.078 16.9574C131 16.5733 129.515 15.3001 128.965 14.016C128.492 15.344 126.688 16.9245 125.654 17.2428C125.258 17.3745 124.675 17.5281 124.345 16.9025L123.85 15.9916C126.105 15.2781 127.634 13.2477 127.634 10.7452V8.98912H130.109ZM129.449 22.2916C129.449 22.6318 129.636 22.7964 129.955 22.7964H137.941V24.2891H128.987C127.964 24.2891 127.04 23.8391 127.04 22.3464V18.8452H129.438V22.2916H129.449ZM137.787 8.35254V18.6257C137.787 19.2294 137.501 19.7342 136.731 19.7342H135.037C135.224 19.6025 135.367 19.405 135.367 19.0099V8.35254H137.787Z" fill="#717071"/>
<path id="Vector_10" d="M146.786 11.0744C146.786 10.8769 146.731 10.6244 146.313 10.6244H141.495V9.17566H147.358C148.799 9.17566 149.14 9.90005 149.14 10.844V11.7659C149.14 13.8513 148.469 15.5196 147.281 16.9025C146.17 18.1757 144.806 19.1196 142.947 19.811C142.397 20.0086 142.089 19.844 141.869 19.372L141.473 18.5379C143.442 17.7037 144.696 16.7927 145.565 15.6293C146.643 14.2135 146.841 12.5561 146.786 11.0744ZM154.156 21.3696C154.156 21.9732 153.848 22.4781 153.078 22.4781H151.406C151.604 22.3464 151.736 22.1488 151.736 21.7537V8.55005H154.156V21.3696Z" fill="#717071"/>
<path id="Vector_11" d="M165.44 11.5135C165.748 11.9305 165.935 12.4244 165.935 13.0171C165.935 14.4879 164.824 15.3769 163.46 15.7171V16.6281H165.693C166.969 16.6281 167.805 16.4086 168.311 16.0464V8.36347H170.698V17.6818C170.698 18.2854 170.412 18.9659 169.642 18.9659H167.981C168.179 18.8342 168.311 18.461 168.311 18.0549V17.5062C167.596 17.9232 166.65 18.0879 165.759 18.0879H157.08V16.6171H161.106V15.7501C159.687 15.4427 158.466 14.5318 158.466 13.0062C158.466 12.4025 158.653 11.9196 158.961 11.5025H157.355V9.99883H161.139V7.80371H163.559V8.55005C163.559 9.25249 163.317 9.76834 162.701 9.99883H167.156V11.5025H165.429L165.44 11.5135ZM170.544 23.3781C170.544 23.9818 170.236 24.4866 169.466 24.4866H167.805C168.003 24.3549 168.135 24.1574 168.135 23.7622V20.9635H159.423V19.4927H169.521C170.247 19.4927 170.544 19.7781 170.544 20.4696V23.3781ZM162.184 14.4549C163.097 14.4549 163.625 13.8952 163.625 13.0171C163.625 12.0732 163.097 11.5464 162.206 11.5464C161.315 11.5464 160.787 12.0732 160.787 12.9842C160.787 13.8952 161.337 14.4549 162.184 14.4549Z" fill="#717071"/>
<path id="Vector_12" d="M182.942 16.1562C182.436 16.3867 181.743 16.5404 180.94 16.5404H173.35V15.0916H175.385C174.967 14.9818 174.747 14.7074 174.747 14.1477V10.3721H173.35V8.90133H182.579V10.3721H181.028V13.983C181.028 14.6745 180.863 14.905 180.423 15.0916H181.006C181.589 15.0916 182.293 14.9599 182.931 14.6965V16.1672L182.942 16.1562ZM178.751 10.3611H177.024V14.2684C177.024 14.7404 177.112 15.0806 177.574 15.0806H178.212C178.652 15.0806 178.762 14.7513 178.762 14.3343V10.3611H178.751ZM183.69 17.7916C184.548 17.4294 184.526 16.683 184.526 15.9038V14.3782C184.24 14.466 183.855 14.5208 183.558 14.5208H182.326V13.0721H183.932C184.152 13.0721 184.372 13.0501 184.537 12.9843V12.1721C184.35 12.1172 184.119 12.0843 183.899 12.0843H182.315V10.6355H183.591C183.844 10.6355 184.251 10.6684 184.537 10.7782V8.36353H186.924V15.9916C186.924 17.3306 186.209 18.1867 185.285 18.5928C186.099 19.2074 186.627 20.1184 186.627 21.2269C186.627 23.0379 185.076 24.8599 182.04 24.8708C179.62 24.8928 177.442 23.6416 177.475 21.2269C177.508 18.7245 179.807 17.594 182.062 17.594C182.623 17.594 183.195 17.6708 183.701 17.8135L183.69 17.7916ZM179.851 21.205C179.851 22.3355 180.599 23.3672 182.029 23.3672C183.459 23.3672 184.229 22.4233 184.229 21.205C184.229 19.7891 183.283 19.0647 182.051 19.0647C180.632 19.0647 179.851 20.0635 179.851 21.205Z" fill="#717071"/>
<path id="Vector_13" d="M195.768 11.0744C195.768 10.8769 195.713 10.6244 195.295 10.6244H190.477V9.17566H196.34C197.781 9.17566 198.122 9.90005 198.122 10.844V11.7659C198.122 13.8513 197.451 15.5196 196.263 16.9025C195.152 18.1757 193.788 19.1196 191.929 19.811C191.379 20.0086 191.071 19.844 190.851 19.372L190.455 18.5379C192.424 17.7037 193.678 16.7927 194.547 15.6293C195.625 14.2135 195.823 12.5561 195.768 11.0744ZM202.775 13.8183C202.962 13.6537 203.226 13.3793 203.996 13.3793H205.437V14.85H202.786V21.3476C202.786 21.9513 202.5 22.4561 201.73 22.4561H200.058C200.256 22.3244 200.388 22.1269 200.388 21.7318V8.55005H202.786V13.8183H202.775Z" fill="#717071"/>
<path id="Vector_14" d="M206.119 16.7708V15.3H212.741C213.665 15.3 215.293 15.322 216.503 14.7403V16.2659C215.612 16.7049 213.83 16.7708 212.774 16.7708H211.74V18.0769C211.74 18.6805 211.432 19.1854 210.662 19.1854H208.99C209.188 19.0537 209.32 18.8561 209.32 18.461V16.7708H206.119ZM215.194 11.4147C215.194 13.3244 213.412 14.5318 211.047 14.5318C208.682 14.5318 206.933 13.3135 206.933 11.4147C206.933 9.5159 208.737 8.29761 211.047 8.29761C213.357 8.29761 215.194 9.52688 215.194 11.4147ZM211.135 22.2915C211.135 22.6318 211.322 22.7964 211.641 22.7964H219.99V24.2891H210.673C209.65 24.2891 208.726 23.8391 208.726 22.3464V19.9866H211.124V22.2915H211.135ZM211.047 13.05C212.158 13.05 212.862 12.4135 212.862 11.4147C212.862 10.4159 212.158 9.77931 211.058 9.77931C210.035 9.77931 209.298 10.4379 209.298 11.3818C209.298 12.3805 210.024 13.05 211.047 13.05ZM214.237 17.6818H217.416V8.35249H219.836V19.5366C219.836 20.1403 219.528 20.6452 218.758 20.6452H217.086C217.284 20.5135 217.416 20.3159 217.416 19.9208V19.1196H214.237V17.6818Z" fill="#717071"/>
</g>
</g>
<defs>
<clipPath id="clip0_1271_20566">
<rect width="220" height="27" fill="white"/>
</clipPath>
</defs>
</svg>
