<svg width="142" height="27" viewBox="0 0 142 27" fill="none" xmlns="http://www.w3.org/2000/svg">
<g id="_&#235;&#160;&#136;&#236;&#157;&#180;&#236;&#150;&#180;_1" clip-path="url(#clip0_1271_20344)">
<path id="Vector" d="M77.3979 15.9099C71.1711 15.9099 66.123 18.0685 66.123 20.7154C66.123 23.3623 71.1641 25.5209 77.3979 25.5209C83.6316 25.5209 88.6726 23.3623 88.6726 20.7154C88.6726 18.0685 83.6316 15.9099 77.3979 15.9099ZM77.3979 23.1713C75.0549 23.1713 73.1379 22.0813 73.1379 20.7154C73.1379 19.3495 75.0407 18.2737 77.3979 18.2737C79.755 18.2737 81.6436 19.3636 81.6436 20.7154C81.6436 22.0672 79.7408 23.1713 77.3979 23.1713Z" fill="#040000"/>
<path id="Vector_2" d="M88.0618 8.3229C87.934 6.78004 86.5708 5.56274 84.9094 5.56274C83.248 5.56274 81.8706 6.78004 81.7428 8.3229H81.7215V9.43404H79.1797V11.9677H81.7215V15.4781H88.0831V8.32998H88.0476L88.0618 8.31582V8.3229Z" fill="#040000"/>
<path id="Vector_3" d="M71.4397 5.46362C69.7783 5.46362 68.3512 6.34121 67.8755 7.5302L62.8984 15.4568H69.2174L71.461 11.8757L73.7046 15.4568H80.0094L74.8974 7.28957C74.3294 6.21382 72.9946 5.46362 71.4468 5.46362" fill="#040000"/>
<path id="Vector_4" d="M132.607 19.4201H132.571C132.444 17.8772 131.08 16.6741 129.419 16.6741C127.758 16.6741 126.38 17.8772 126.252 19.4201H126.231V22.5341H116.895V25.0678H141.929V22.5341H132.607V19.4201Z" fill="#040000"/>
<path id="Vector_5" d="M123.142 19.1584L129.418 10.8071L135.695 19.1584H142L134.303 8.91039H141.68V6.37671H117.157V8.91039H124.526L116.83 19.1584H123.149H123.142Z" fill="#040000"/>
<path id="Vector_6" d="M115.154 16.3982H90.1055V18.9319H108.793V25.2732H115.154V16.4053V16.3982Z" fill="#040000"/>
<path id="Vector_7" d="M104.838 15.4711H109.538V11.6989H110.383V15.4711H115.076V8.24512C115.076 8.24512 115.09 8.17435 115.09 8.11773C115.09 6.82258 114.032 5.75391 112.733 5.75391C111.434 5.75391 110.39 6.82258 110.39 8.11773V9.15102H109.545V8.11773C109.545 6.82258 108.494 5.75391 107.188 5.75391C105.882 5.75391 104.845 6.82258 104.845 8.11773V15.464L104.838 15.4711Z" fill="#040000"/>
<path id="Vector_8" d="M60.4569 12.8666V9.18643C60.4569 9.18643 60.4711 9.08734 60.4711 9.03073C60.4711 7.58695 59.3067 6.42627 57.8725 6.42627H36.1962V8.97411H54.0953V12.8666H35.1738V15.4074H61.3018V12.8666H60.4569Z" fill="#040000"/>
<path id="Vector_9" d="M54.0532 16.3132H36.5162V22.4351C36.5162 22.4351 36.502 22.5342 36.502 22.5837C36.502 22.6404 36.5162 22.697 36.5162 22.7465C36.5943 24.1124 37.7374 25.174 39.1148 25.174H60.4148V16.3132H54.0532ZM54.0532 22.6262H42.8849V18.854H54.0532V22.6262Z" fill="#040000"/>
<path id="Vector_10" d="M13.547 14.7986C11.0407 16.7519 9.47873 18.2028 9.47873 18.2028C8.37113 19.3493 8.25753 19.137 8.25753 19.137C7.75343 18.9317 8.27883 18.2028 8.27883 18.2028C10.3591 14.933 11.5235 13.2416 11.5235 13.2416C12.2974 12.279 15.1303 7.51601 15.1303 7.51601C16.6213 4.86909 16.1243 3.07852 16.1243 3.07852C15.8048 2.04523 14.6475 2.25048 14.6475 2.25048C13.8026 2.25048 12.2761 3.67302 12.2761 3.67302C11.1117 5.08141 8.17943 6.63842 8.17943 6.63842C7.61143 7.01352 6.17723 7.35323 6.17723 7.35323V7.57263L7.83863 7.40277C7.37003 9.74537 3.91943 15.7399 3.91943 15.7399C1.42023 20.1844 0.220333 23.5108 0.220333 23.5108C-0.589067 26.3275 1.07233 26.5894 1.07233 26.5894C2.26513 27.0353 5.05543 23.8646 5.05543 23.8646C7.10733 21.3097 7.67533 20.7648 7.67533 20.7648C8.83973 19.3564 11.7649 17.0067 13.5399 15.5842V14.7986H13.547Z" fill="#149D4F"/>
<path id="Vector_11" d="M13.5396 15.5844C14.846 14.5298 15.8187 13.7867 15.8187 13.7867C18.2895 11.89 19.4042 12.4916 19.4042 12.4916C20.5899 13.1073 19.5604 14.275 19.5604 14.275C18.7155 15.1526 17.1251 16.1293 17.1251 16.1293C15.3927 17.4457 15.0732 18.7196 15.0732 18.7196C13.8094 22.8174 17.189 24.8981 17.189 24.8981C20.9804 27.0992 23.8062 27.0001 23.8062 27.0001C26.6959 27.0355 26.8805 24.5442 26.8805 24.5442C27.0722 21.7487 23.4512 21.5081 23.4512 21.5081C18.9001 20.9844 18.325 18.7833 18.325 18.7833C17.5156 17.0211 21.9602 14.1618 21.9602 14.1618C23.4086 13.2984 26.9018 11.0619 26.9018 11.0619C28.8472 9.68894 28.7833 8.13193 28.7833 8.13193C28.7052 5.95211 25.1765 7.36758 25.1765 7.36758C20.6822 9.50493 16.4648 12.4916 13.5254 14.7846V15.5773H13.5396V15.5844Z" fill="#02569D"/>
<path id="Vector_12" d="M32.5037 2.95125C32.5037 4.57195 31.1618 5.90249 29.4862 5.90249C27.8106 5.90249 26.4688 4.57195 26.4688 2.95125C26.4688 1.33054 27.8248 0 29.4862 0C31.1476 0 32.5037 1.31638 32.5037 2.95125Z" fill="#DC2525"/>
<path id="Vector_13" d="M104.122 15.471V8.32998H104.101C103.988 6.78712 102.71 5.56982 101.14 5.56982C99.5714 5.56982 98.2934 6.78712 98.194 8.32998H98.1798V9.15803H96.0285V8.32998H96.0072C95.8794 6.78712 94.6085 5.56982 93.0465 5.56982C91.4845 5.56982 90.1994 6.78712 90.0858 8.32998H90.0645V15.471H104.137H104.122ZM98.1656 13.0718H96.0143V11.6988H98.1656V13.0718Z" fill="#040000"/>
</g>
<defs>
<clipPath id="clip0_1271_20344">
<rect width="142" height="27" fill="white"/>
</clipPath>
</defs>
</svg>
