<svg width="128" height="27" viewBox="0 0 128 27" fill="none" xmlns="http://www.w3.org/2000/svg">
<g id="_&#235;&#160;&#136;&#236;&#157;&#180;&#236;&#150;&#180;_1" clip-path="url(#clip0_1271_20395)">
<path id="Vector" d="M31.2832 22.8516H31.8976V24.6597H31.9104L33.1712 22.8516H33.792L32.4352 24.7174L33.9392 26.9423H33.2096L31.9104 24.961H31.8976V26.9423H31.2832V22.858V22.8516Z" fill="#787A7C"/>
<path id="Vector_2" d="M35.4106 24.8905C35.4106 24.166 35.5066 23.1337 36.2618 23.1337C37.017 23.1337 37.1194 24.166 37.1194 24.8905C37.1194 25.615 37.017 26.6409 36.2618 26.6409C35.5066 26.6409 35.4106 25.615 35.4106 24.8905ZM36.2554 27C37.337 27 37.7658 26.1151 37.7658 24.8905C37.7658 23.6658 37.337 22.781 36.2554 22.781C35.1738 22.781 34.7578 23.6658 34.7578 24.8905C34.7578 26.1151 35.1738 27 36.2554 27Z" fill="#787A7C"/>
<path id="Vector_3" d="M39.9743 23.2363H40.2047C40.7871 23.2363 41.0879 23.3966 41.0879 23.948C41.0879 24.5892 40.5951 24.7239 40.2047 24.7239H39.9743V23.2363ZM39.3535 26.9295H39.9679V25.115H40.1983C40.7999 25.115 40.9087 25.4933 40.9919 25.8395L41.2095 26.9295H41.8303L41.6255 25.8716C41.5359 25.3971 41.4527 24.9867 40.8703 24.8777V24.8649C41.2031 24.7944 41.6959 24.57 41.6959 23.916C41.6959 22.9414 40.8511 22.8452 40.1983 22.8452H39.3535V26.9231V26.9295Z" fill="#787A7C"/>
<path id="Vector_4" d="M43.3535 22.8516H45.3823V23.2491H43.9679V24.6212H45.3055V25.0123H43.9679V26.5191H45.4271V26.9423H43.3535V22.858V22.8516Z" fill="#787A7C"/>
<path id="Vector_5" d="M47.878 23.435H47.8908L48.4348 25.3265H47.334L47.878 23.435ZM46.3228 26.9295H46.8604L47.2124 25.7176H48.5436L48.8956 26.9295H49.5356L48.2428 22.8516H47.6028L46.3164 26.9295H46.3228Z" fill="#787A7C"/>
<path id="Vector_6" d="M55.2707 26.7371C55.0595 26.8654 54.7395 26.9936 54.2403 26.9936C53.0499 26.9936 52.6211 25.9613 52.6211 24.8072C52.6211 23.8198 52.9603 22.7747 54.1379 22.7747C54.9955 22.7747 55.4243 23.2812 55.4243 23.948H54.7139C54.7139 23.6146 54.6051 23.1273 54.0931 23.1273C53.3891 23.1273 53.2803 24.1275 53.2803 24.6982C53.2803 25.6151 53.4851 26.564 54.3491 26.564C54.8163 26.564 55.1107 26.3011 55.2771 26.1729V26.7307L55.2707 26.7371Z" fill="#787A7C"/>
<path id="Vector_7" d="M57.3186 23.2363H57.549C58.1314 23.2363 58.4322 23.3966 58.4322 23.948C58.4322 24.5892 57.9394 24.7239 57.549 24.7239H57.3186V23.2363ZM56.6978 26.9295H57.3122V25.115H57.5426C58.1378 25.115 58.253 25.4933 58.3362 25.8395L58.5474 26.9295H59.1682L58.957 25.8716C58.861 25.3971 58.7842 24.9867 58.2082 24.8777V24.8649C58.5346 24.7944 59.0338 24.57 59.0338 23.916C59.0338 22.9414 58.1826 22.8452 57.5362 22.8452H56.6914V26.9231L56.6978 26.9295Z" fill="#787A7C"/>
<path id="Vector_8" d="M60.6978 22.8516H62.7266V23.2491H61.3058V24.6212H62.6434V25.0123H61.3058V26.5191H62.7714V26.9423H60.6914V22.858L60.6978 22.8516Z" fill="#787A7C"/>
<path id="Vector_9" d="M64.7296 23.2363H64.9792C65.6192 23.2363 66.112 23.4095 66.112 24.8457C66.112 25.9421 65.9264 26.5384 64.9792 26.5384H64.7296V23.2363ZM64.1152 26.9295H64.9792C66.0416 26.9295 66.7264 26.5448 66.7264 24.8457C66.7264 23.1466 66.0352 22.8452 64.9792 22.8452H64.1152V26.9295Z" fill="#787A7C"/>
<path id="Vector_10" d="M68.2363 22.8516H68.8507V26.9359H68.2363V22.8516Z" fill="#787A7C"/>
<path id="Vector_11" d="M71.034 23.2363H70.0996V22.8452H72.5828V23.2363H71.6484V26.9295H71.034V23.2363Z" fill="#787A7C"/>
<path id="Vector_12" d="M78.2272 26.6088C77.9712 26.7755 77.6128 26.9999 77.024 26.9999C75.84 26.9999 75.3984 26.0061 75.3984 24.7942C75.3984 23.7106 75.7312 22.7874 76.896 22.7874C77.9456 22.7874 78.1888 23.4029 78.2272 23.9479H77.5104C77.5104 23.5247 77.3824 23.1464 76.896 23.1464C76.1152 23.1464 76.0512 24.1467 76.0512 24.8007C76.0512 25.8265 76.2624 26.6472 77.088 26.6472C77.3056 26.6472 77.4976 26.5639 77.6064 26.4421V24.993H76.8448V24.6019H78.2208V26.6152L78.2272 26.6088Z" fill="#787A7C"/>
<path id="Vector_13" d="M82.4706 25.4805C82.4706 26.2306 82.3554 26.9936 81.165 26.9936C79.9746 26.9936 79.8594 26.2242 79.8594 25.4805V22.8452H80.4738V25.4805C80.4738 26.128 80.5186 26.641 81.165 26.641C81.8114 26.641 81.8626 26.1345 81.8626 25.4805V22.8452H82.477V25.4805H82.4706Z" fill="#787A7C"/>
<path id="Vector_14" d="M85.0426 23.435H85.0554L85.593 25.3265H84.4986L85.0426 23.435ZM83.481 26.9295H84.025L84.377 25.7176H85.7082L86.0602 26.9295H86.6938L85.401 22.8516H84.761L83.4746 26.9295H83.481Z" fill="#787A7C"/>
<path id="Vector_15" d="M88.4807 23.2363H88.7047C89.2871 23.2363 89.5879 23.3966 89.5879 23.948C89.5879 24.5892 89.0951 24.7239 88.7047 24.7239H88.4807V23.2363ZM87.8599 26.9295H88.4743V25.115H88.6983C89.2935 25.115 89.4087 25.4933 89.4919 25.8395L89.7095 26.9295H90.3239L90.1191 25.8716C90.0231 25.3971 89.9463 24.9867 89.3703 24.8777V24.8649C89.6967 24.7944 90.1959 24.57 90.1959 23.916C90.1959 22.9414 89.3511 22.8452 88.6983 22.8452H87.8535V26.9231L87.8599 26.9295Z" fill="#787A7C"/>
<path id="Vector_16" d="M92.7935 23.435H92.8063L93.3503 25.3265H92.2495L92.7935 23.435ZM91.2383 26.9295H91.7823L92.1343 25.7176H93.4591L93.8111 26.9295H94.4511L93.1583 22.8516H92.5247L91.2383 26.9295Z" fill="#787A7C"/>
<path id="Vector_17" d="M95.6158 22.8516H96.3006L97.8302 26.0831H97.8366V22.8516H98.3486V26.9359H97.7086L96.1342 23.6082H96.1214V26.9359H95.6094V22.8516H95.6158Z" fill="#787A7C"/>
<path id="Vector_18" d="M100.513 23.2363H99.5781V22.8452H102.055V23.2363H101.121V26.9295H100.506V23.2363H100.513Z" fill="#787A7C"/>
<path id="Vector_19" d="M103.283 22.8516H105.318V23.2491H103.898V24.6212H105.235V25.0123H103.898V26.5191H105.363V26.9423H103.283V22.858V22.8516Z" fill="#787A7C"/>
<path id="Vector_20" d="M106.758 22.8516H108.794V23.2491H107.373V24.6212H108.71V25.0123H107.373V26.5191H108.832V26.9423H106.752V22.858L106.758 22.8516Z" fill="#787A7C"/>
<path id="Vector_21" d="M112.23 22.8516H114.195V23.2491H112.845V24.6212H114.125V25.0123H112.845V26.9423H112.23V22.8644V22.8516Z" fill="#787A7C"/>
<path id="Vector_22" d="M118.189 25.4805C118.189 26.2306 118.068 26.9936 116.884 26.9936C115.7 26.9936 115.578 26.2242 115.578 25.4805V22.8452H116.193V25.4805C116.193 26.128 116.237 26.641 116.884 26.641C117.53 26.641 117.575 26.1345 117.575 25.4805V22.8452H118.189V25.4805Z" fill="#787A7C"/>
<path id="Vector_23" d="M119.93 22.8516H120.608L122.138 26.0831H122.15V22.8516H122.656V26.9359H122.022L120.448 23.6082H120.435V26.9359H119.93V22.8516Z" fill="#787A7C"/>
<path id="Vector_24" d="M125.056 23.2363H125.305C125.952 23.2363 126.438 23.4095 126.438 24.8457C126.438 25.9421 126.253 26.5384 125.305 26.5384H125.056V23.2363ZM124.441 26.9295H125.305C126.368 26.9295 127.053 26.5448 127.053 24.8457C127.053 23.1466 126.361 22.8452 125.305 22.8452H124.441V26.9295Z" fill="#787A7C"/>
<path id="Vector_25" d="M23.3344 7.07207C23.3344 3.79565 20.8 1.13477 17.6768 1.13477H13.4336V12.9966H17.056C17.0752 12.8363 17.0816 12.6824 17.0816 12.5221C17.0816 11.9963 16.9792 11.4962 16.7872 11.0217C16.768 10.964 16.7424 10.9127 16.7168 10.8614H15.7888V3.2763H17.2608C19.2768 3.2763 20.9152 4.97542 20.9152 7.07207C20.9152 8.26466 20.384 9.33543 19.552 10.0343C19.8656 10.8101 20.0256 11.6244 20.032 12.4708C21.9776 11.5283 23.3344 9.47008 23.3344 7.07849V7.07207Z" fill="#0B73B9"/>
<path id="Vector_26" d="M26.6365 1.14136H24.2812V12.9967H26.6365V1.14136Z" fill="#0B73B9"/>
<path id="Vector_27" d="M36.5381 1.14136H27.5781V3.27648H30.8741V13.0031H33.2357V3.27648H36.5381V1.14136Z" fill="#0B73B9"/>
<path id="Vector_28" d="M16.032 6.67472V9.51514C16.8256 10.2589 17.3248 11.3297 17.3248 12.5287C17.3248 14.7536 15.584 16.5553 13.4336 16.5553C11.2832 16.5553 9.5424 14.7472 9.5424 12.5287C9.5424 10.3102 11.1616 8.63031 13.1968 8.50208V6.12972C10.6624 6.2259 8.5056 7.80961 7.5648 10.0409L4.3584 6.95684L9.9008 1.14136H6.72L2.3552 5.76425V1.14136H0V12.9967H2.3552V8.13661L7.0912 13.016C7.3408 16.3244 10.0864 18.9212 13.44 18.9212C16.9536 18.9212 19.808 16.0552 19.808 12.5223C19.808 9.91908 18.2592 7.66855 16.0384 6.66831L16.032 6.67472Z" fill="#88B927"/>
<path id="Vector_29" d="M53.5746 0.859131H51.4434V12.4324H53.5746V0.859131Z" fill="#787A7C"/>
<path id="Vector_30" d="M76.3452 10.7141V15.1511H71.0332V17.1387H84.2364V15.1511H78.5148V10.7141H83.1676V1.28882H81.0364V3.85994H74.2204V1.28882H72.0892V10.7141H76.3388H76.3452ZM74.2268 5.82836H81.0428V8.72007H74.2268V5.82836Z" fill="#787A7C"/>
<path id="Vector_31" d="M53.7023 17.9978V16.0038H45.4783V11.5732H43.3535V17.9978H53.7023Z" fill="#787A7C"/>
<path id="Vector_32" d="M66.5667 6.46942C67.6483 5.85389 68.2691 4.89853 68.2691 3.64824C68.2691 1.28229 66.0931 0.00634766 62.7267 0.00634766C59.3603 0.00634766 57.1907 1.28229 57.1907 3.64824C57.1907 4.90495 57.8115 5.85389 58.8931 6.46942V8.5276H56.0195V10.496H69.4339V8.5276H66.5603V6.46942H66.5667ZM62.7267 1.91706C64.7619 1.91706 66.0739 2.52618 66.0739 3.64824C66.0739 4.7703 64.7619 5.37301 62.7267 5.37301C60.6915 5.37301 59.3859 4.76389 59.3859 3.64824C59.3859 2.53259 60.6979 1.91706 62.7267 1.91706ZM61.0243 7.16189C61.5491 7.24525 62.1187 7.28372 62.7267 7.28372C63.3347 7.28372 63.9043 7.24525 64.4291 7.16189V8.53401H61.0243V7.16189Z" fill="#787A7C"/>
<path id="Vector_33" d="M48.4292 10.5282L50.2468 9.20741C50.2468 9.20741 46.6436 5.43729 46.33 1.06445H44.282C43.962 5.4437 40.3652 9.20741 40.3652 9.20741L42.1892 10.5282C42.1892 10.5282 44.1028 8.52135 45.306 5.34752C46.5092 8.52776 48.4292 10.5282 48.4292 10.5282Z" fill="#787A7C"/>
<path id="Vector_34" d="M115.75 17.9978H126.822V11.1372H115.75V17.9978ZM124.697 16.0037H117.881V13.1313H124.697V16.0037Z" fill="#787A7C"/>
<path id="Vector_35" d="M62.7266 11.3552C59.1746 11.3552 56.877 12.6761 56.877 15.1061C56.877 17.5362 59.1746 18.857 62.7266 18.857C66.2786 18.857 68.5826 17.5426 68.5826 15.1061C68.5826 12.6696 66.285 11.3552 62.7266 11.3552ZM62.7266 16.9591C60.5058 16.9591 59.0658 16.3051 59.0658 15.1061C59.0658 13.9071 60.4994 13.2531 62.7266 13.2531C64.9538 13.2531 66.3938 13.9007 66.3938 15.1061C66.3938 16.3115 64.9538 16.9591 62.7266 16.9591Z" fill="#787A7C"/>
<path id="Vector_36" d="M99.2503 8.52759H85.8359V10.496H99.2503V8.52759Z" fill="#787A7C"/>
<path id="Vector_37" d="M92.5435 11.3552C88.9915 11.3552 86.6875 12.6761 86.6875 15.1061C86.6875 17.5362 88.9851 18.857 92.5435 18.857C96.1019 18.857 98.3995 17.5426 98.3995 15.1061C98.3995 12.6696 96.1019 11.3552 92.5435 11.3552ZM92.5435 16.9591C90.3163 16.9591 88.8827 16.3051 88.8827 15.1061C88.8827 13.9071 90.3163 13.2531 92.5435 13.2531C94.7707 13.2531 96.2043 13.9007 96.2043 15.1061C96.2043 16.3115 94.7643 16.9591 92.5435 16.9591Z" fill="#787A7C"/>
<path id="Vector_38" d="M126.612 1.0708H115.962V3.06486H124.481V4.13563C124.481 5.46928 124.314 6.70034 124.225 7.29023H114.58V9.26505H127.994V7.29023H126.26C126.388 6.64264 126.612 5.34105 126.612 4.13563V1.0708Z" fill="#787A7C"/>
<path id="Vector_39" d="M86.3496 5.98222L87.6936 7.7134C87.6936 7.7134 90.4712 6.85423 92.5448 4.64216C94.6248 6.85423 97.4024 7.7134 97.4024 7.7134L98.7464 5.98222C95.7896 5.06534 94.3048 3.45598 93.9208 3.00075H98.0168V1.0708H87.0728V3.00075H91.1688C90.7912 3.45598 89.3 5.05893 86.3496 5.97581V5.98222Z" fill="#787A7C"/>
<path id="Vector_40" d="M112.774 0.859131H110.643V18.2222H112.774V0.859131Z" fill="#787A7C"/>
<path id="Vector_41" d="M100.844 3.26358H106.271C105.945 8.66871 100.729 12.7081 100.057 13.2083L101.701 14.6573C101.701 14.6573 108.729 9.98313 108.729 1.29517H100.844V3.26999V3.26358Z" fill="#787A7C"/>
</g>
<defs>
<clipPath id="clip0_1271_20395">
<rect width="128" height="27" fill="white"/>
</clipPath>
</defs>
</svg>
