<svg width="75" height="27" viewBox="0 0 75 27" fill="none" xmlns="http://www.w3.org/2000/svg">
<g id="_&#235;&#160;&#136;&#236;&#157;&#180;&#236;&#150;&#180;_1" clip-path="url(#clip0_1271_20486)">
<path id="Vector" d="M6.77539 8.47502L11.7854 3.68018H8.39539L3.49414 8.47502L11.5679 16.3443H15.0291L6.77539 8.47502Z" fill="#00478E"/>
<path id="Vector_2" d="M19.893 3.54183V5.10894C22.203 5.10894 23.6055 6.36562 23.6055 8.4788C23.6055 10.592 22.203 11.8748 19.893 11.8748V13.4158C24.0742 13.4158 26.778 11.4821 26.778 8.4788C26.778 5.47547 24.0742 3.53809 19.893 3.53809V3.54183ZM19.893 3.54183C15.7117 3.54183 13.0117 5.47173 13.0117 8.4788C13.0117 11.4859 15.7155 13.4158 19.893 13.4158V11.8748H19.8592C17.5492 11.8748 16.143 10.592 16.143 8.4788C16.143 6.36562 17.5492 5.11642 19.8592 5.11642H19.893V3.54557V3.54183Z" fill="#00478E"/>
<path id="Vector_3" d="M34.2412 13.2326H37.1963V11.8375H36.045C34.1363 11.8375 33.45 11.1905 33.45 9.51489V5.1165H37.2V3.68777H33.45V0H30.4613V3.68403H27.9375V5.10902H30.4613V10.3714C30.4613 12.2302 31.7887 13.2288 34.245 13.2288L34.2412 13.2326Z" fill="#00478E"/>
<path id="Vector_4" d="M56.4784 13.2325H62.3847V7.18468C62.3847 4.86206 60.6222 3.68018 57.1272 3.68018H56.4784V5.17997C57.9897 5.25477 59.2909 5.58016 59.2909 7.15102V7.68959H56.4784V9.08466H59.3284V11.8037H56.4784V13.2325ZM54.4234 13.2325H56.4784V11.8H55.9009C54.8547 11.8 53.6659 11.8 53.6659 10.5471C53.6659 9.18939 54.9297 9.08092 56.1522 9.08092H56.4747V7.68585H55.6422C52.0009 7.68585 50.5234 8.54608 50.5234 10.6219C50.5234 12.3012 51.9297 13.2325 54.4159 13.2325H54.4234ZM56.4784 3.68392H51.4309V5.18371H56.4784V3.68392Z" fill="#00478E"/>
<path id="Vector_5" d="M43.1766 3.68408C40.5404 3.68408 39.6816 4.25632 39.6816 5.97304V13.2326H42.6741V6.50788C42.6741 5.18387 44.6541 5.18387 45.5541 5.18387H49.0491L50.6354 3.68408H43.1766Z" fill="#00478E"/>
<path id="Vector_6" d="M2.955 13.2326V0H0V13.2326H2.955Z" fill="#00478E"/>
<path id="Vector_7" d="M13.8456 24.8793C13.8194 24.898 13.7931 24.913 13.7706 24.9205C13.6206 24.9654 13.4406 24.999 13.2306 25.0327C13.0206 25.0589 12.8031 25.0813 12.5781 25.1037C12.3494 25.1224 12.1244 25.1337 11.8994 25.1374C11.6744 25.1449 11.4756 25.1411 11.2994 25.1299C11.1344 25.1224 11.0069 25.0813 10.9244 25.014C10.8381 24.9429 10.7969 24.8307 10.7969 24.6736V21.4422C10.7969 21.2813 10.8306 21.1729 10.8981 21.1093C10.9619 21.042 11.0856 21.012 11.2581 21.012H13.2569C13.3206 21.012 13.3506 21.0457 13.3506 21.1093V21.5768C13.3506 21.6404 13.3169 21.6666 13.2569 21.6666H11.7231C11.6369 21.6666 11.5919 21.7077 11.5919 21.7825V24.2734C11.5919 24.3482 11.6031 24.3969 11.6294 24.4156C11.6556 24.438 11.7081 24.4492 11.7981 24.4604C11.8919 24.4791 12.0231 24.4791 12.1769 24.4791C12.3344 24.4717 12.4994 24.4604 12.6756 24.4492C12.8519 24.4305 13.0281 24.4156 13.1969 24.3931C13.3694 24.3707 13.5194 24.3445 13.6469 24.3183C13.6806 24.3108 13.7106 24.3108 13.7331 24.3183C13.7594 24.3258 13.7781 24.3482 13.7894 24.3856L13.8719 24.8008C13.8831 24.8419 13.8719 24.8756 13.8456 24.8906V24.8793ZM15.5406 20.5595C15.5406 20.4959 15.5744 20.4697 15.6344 20.4697H16.2269C16.2869 20.4697 16.3169 20.4959 16.3169 20.5595V26.8616C16.3169 26.9252 16.2869 26.9514 16.2269 26.9514H15.6306C15.5706 26.9514 15.5444 26.9252 15.5444 26.8616V23.6301H14.9031V26.5998C14.9031 26.6671 14.8731 26.697 14.8131 26.697H14.2469C14.1831 26.697 14.1531 26.6671 14.1531 26.5998V20.6792C14.1531 20.6231 14.1869 20.5894 14.2469 20.5894H14.8131C14.8731 20.5894 14.9031 20.6193 14.9031 20.6792V22.9756H15.5444V20.5595H15.5406Z" fill="#6D6C6C"/>
<path id="Vector_8" d="M20.9399 22.1192C20.9212 22.1416 20.8949 22.1491 20.8649 22.1491H17.2162C17.1899 22.1491 17.1637 22.1416 17.1412 22.1155C17.1187 22.093 17.1074 22.0668 17.1074 22.0369V21.6292C17.1074 21.6068 17.1187 21.5844 17.1449 21.5619C17.1712 21.5395 17.1937 21.5283 17.2237 21.5283H20.8649C20.8912 21.5283 20.9174 21.5432 20.9399 21.5582C20.9587 21.5806 20.9699 21.6031 20.9699 21.6292V22.0407C20.9699 22.0706 20.9587 22.0968 20.9399 22.1155V22.1192ZM19.0987 22.3885C19.3049 22.3885 19.4999 22.4184 19.6837 22.4857C19.8674 22.5493 20.0249 22.6316 20.1599 22.7438C20.2949 22.856 20.4037 22.9832 20.4787 23.129C20.5574 23.2786 20.5949 23.4395 20.5949 23.6078C20.5949 23.7761 20.5537 23.9406 20.4787 24.0903C20.3999 24.2361 20.2912 24.3633 20.1599 24.4755C20.0249 24.5877 19.8674 24.67 19.6837 24.7373C19.4999 24.8009 19.3012 24.8308 19.0912 24.8308C18.8812 24.8308 18.6899 24.8009 18.5137 24.7373C18.3337 24.67 18.1762 24.5877 18.0412 24.4755C17.9062 24.3633 17.8012 24.2361 17.7224 24.0903C17.6437 23.9406 17.6062 23.7798 17.6062 23.6078C17.6062 23.4357 17.6474 23.2786 17.7224 23.129C17.8012 22.9832 17.9099 22.856 18.0412 22.7438C18.1762 22.6316 18.3337 22.5493 18.5174 22.4857C18.6974 22.4184 18.8924 22.3885 19.0987 22.3885ZM20.0512 21.2029C20.0324 21.2253 20.0024 21.2328 19.9649 21.2328H18.1687C18.1687 21.2328 18.1274 21.2253 18.1049 21.2066C18.0787 21.1879 18.0674 21.1617 18.0674 21.1318V20.7279C18.0674 20.6942 18.0787 20.6606 18.1049 20.6493C18.1312 20.6306 18.1537 20.6194 18.1687 20.6194H19.9649C19.9987 20.6194 20.0249 20.6344 20.0474 20.6531C20.0699 20.6755 20.0812 20.7017 20.0812 20.7354V21.1243C20.0812 21.1505 20.0699 21.1729 20.0512 21.1991V21.2029ZM22.4399 26.828C22.4174 26.843 22.3949 26.8505 22.3724 26.8505H18.7387C18.5324 26.8505 18.3937 26.8093 18.3187 26.7383C18.2474 26.6672 18.2099 26.54 18.2099 26.3605V25.2983C18.2099 25.2759 18.2212 25.2534 18.2437 25.231C18.2662 25.2085 18.2887 25.1973 18.3112 25.1973H18.8962C18.9299 25.1973 18.9524 25.2123 18.9749 25.231C18.9937 25.2534 19.0049 25.2759 19.0049 25.2983V26.0763C19.0049 26.1211 19.0124 26.1511 19.0312 26.166C19.0499 26.181 19.0799 26.1885 19.1287 26.1885H22.3687C22.3912 26.1885 22.4137 26.1959 22.4362 26.2146C22.4587 26.2333 22.4699 26.2558 22.4699 26.2782V26.7644C22.4699 26.7906 22.4587 26.8131 22.4362 26.828H22.4399ZM19.0987 22.9981C18.8812 22.9981 18.7049 23.0542 18.5624 23.1739C18.4199 23.2899 18.3487 23.4357 18.3487 23.604C18.3487 23.7723 18.4199 23.9257 18.5624 24.0454C18.7049 24.1688 18.8849 24.2324 19.0987 24.2324C19.3124 24.2324 19.4999 24.1688 19.6387 24.0454C19.7812 23.9257 19.8487 23.7761 19.8487 23.604C19.8487 23.432 19.7774 23.2936 19.6387 23.1739C19.4999 23.0542 19.3199 22.9981 19.0987 22.9981ZM23.2087 23.3871C23.1899 23.4021 23.1637 23.4133 23.1374 23.4133H22.2074V25.3769C22.2074 25.433 22.1774 25.4666 22.1174 25.4666H21.5062C21.4462 25.4666 21.4162 25.4367 21.4162 25.3769V20.5558C21.4162 20.4922 21.4462 20.4661 21.5062 20.4661H22.1174C22.1774 20.4661 22.2074 20.4922 22.2074 20.5558V22.755H23.1374C23.1637 22.755 23.1862 22.7625 23.2087 22.7812C23.2274 22.7999 23.2387 22.8223 23.2387 22.8448V23.331C23.2387 23.3534 23.2274 23.3721 23.2087 23.3871Z" fill="#6D6C6C"/>
<path id="Vector_9" d="M29.5795 24.6064C29.557 24.6289 29.5345 24.6401 29.5083 24.6401H26.9208V26.8056C26.9208 26.8729 26.887 26.8991 26.8233 26.8991H26.227C26.1633 26.8991 26.1333 26.8692 26.1333 26.8056V24.6401H23.5195C23.4933 24.6401 23.4708 24.6251 23.452 24.6064C23.4333 24.5802 23.4258 24.5578 23.4258 24.5316V24.0903C23.4258 24.0641 23.437 24.0379 23.452 24.0192C23.4708 23.9968 23.4933 23.9893 23.5195 23.9893H29.5158C29.5383 23.9893 29.5608 24.0043 29.587 24.023C29.6095 24.0454 29.6208 24.0678 29.6208 24.094V24.5354C29.6208 24.5578 29.6095 24.584 29.587 24.6064H29.5795ZM28.5783 23.1403C28.4995 23.2114 28.3758 23.245 28.2033 23.245H24.8583C24.652 23.245 24.5133 23.2114 24.442 23.1403C24.3708 23.0655 24.337 22.9421 24.337 22.7625V21.0645C24.337 20.8925 24.3745 20.769 24.4495 20.698C24.5245 20.6307 24.6483 20.5933 24.8245 20.5933H28.1695C28.3758 20.5933 28.5145 20.6269 28.5858 20.6942C28.657 20.7616 28.6908 20.8887 28.6908 21.072V22.77C28.6908 22.9421 28.6533 23.0655 28.5783 23.1403ZM27.8995 21.3375C27.8995 21.2964 27.8958 21.274 27.8808 21.2627C27.8695 21.2478 27.847 21.244 27.8095 21.244H25.222C25.1845 21.244 25.162 21.2478 25.1508 21.259C25.1395 21.2665 25.132 21.2889 25.132 21.3263V22.4932C25.132 22.5419 25.1358 22.5681 25.1508 22.5755C25.162 22.583 25.1845 22.5905 25.222 22.5905H27.8095C27.847 22.5905 27.8695 22.5868 27.8808 22.5755C27.892 22.5681 27.8995 22.5419 27.8995 22.4932V21.3338V21.3375Z" fill="#6D6C6C"/>
<path id="Vector_10" d="M35.3481 24.18H34.7369C34.6769 24.18 34.6469 24.1501 34.6469 24.0903V23.3609H33.2219C33.0719 23.5217 32.8881 23.6414 32.6706 23.7275C32.4531 23.8172 32.2131 23.8546 31.9469 23.8546C31.7031 23.8546 31.4781 23.8135 31.2756 23.7387C31.0731 23.6639 30.8969 23.5517 30.7544 23.417C30.6119 23.2749 30.4994 23.1103 30.4169 22.9158C30.3381 22.7214 30.2969 22.5119 30.2969 22.2875C30.2969 22.0631 30.3381 21.8611 30.4169 21.6666C30.4956 21.4722 30.6119 21.3039 30.7544 21.1617C30.9006 21.0159 31.0731 20.9037 31.2756 20.8214C31.4781 20.7428 31.7031 20.698 31.9469 20.698C32.2394 20.698 32.5056 20.7541 32.7381 20.87C32.9706 20.9859 33.1619 21.1355 33.3119 21.3263H34.6469V20.5558C34.6469 20.4922 34.6769 20.4661 34.7369 20.4661H35.3481C35.4081 20.4661 35.4381 20.4922 35.4381 20.5558V24.0865C35.4381 24.1426 35.4081 24.1763 35.3481 24.1763V24.18ZM32.8544 22.2987C32.8544 22.0294 32.7719 21.8088 32.6069 21.6442C32.4419 21.4796 32.2206 21.3974 31.9469 21.3974C31.6731 21.3974 31.4631 21.4796 31.2981 21.6442C31.1331 21.8088 31.0506 22.0294 31.0506 22.2987C31.0506 22.568 31.1331 22.7999 31.2981 22.9645C31.4631 23.129 31.6806 23.2076 31.9469 23.2076C32.2131 23.2076 32.4419 23.129 32.6069 22.9645C32.7719 22.7999 32.8544 22.5792 32.8544 22.2987ZM35.4044 26.9066C35.3856 26.929 35.3631 26.9365 35.3406 26.9365H34.7481C34.7219 26.9365 34.6956 26.929 34.6769 26.9066C34.6581 26.8879 34.6469 26.8654 34.6469 26.843V25.2908C34.6469 25.2422 34.6356 25.2123 34.6206 25.1973C34.6019 25.1786 34.5719 25.1749 34.5269 25.1749H31.3656C31.3431 25.1749 31.3206 25.1711 31.2981 25.1524C31.2756 25.1337 31.2644 25.1188 31.2644 25.0963V24.6101C31.2644 24.5802 31.2756 24.5578 31.2981 24.5428C31.3206 24.5241 31.3431 24.5204 31.3656 24.5204H34.9844C35.1569 24.5204 35.2769 24.5615 35.3444 24.6326C35.4119 24.7036 35.4381 24.8271 35.4381 24.9991V26.843C35.4381 26.8654 35.4269 26.8879 35.4081 26.9103L35.4044 26.9066ZM33.6344 22.2875C33.6344 22.4483 33.6156 22.5942 33.5744 22.7288H34.6469V21.9584H33.6006C33.6231 22.0743 33.6344 22.179 33.6344 22.2875Z" fill="#6D6C6C"/>
<path id="Vector_11" d="M42.5172 24.8008C42.4947 24.8233 42.4722 24.8345 42.4497 24.8345H39.8622V26.8093C39.8622 26.8729 39.8284 26.9028 39.7684 26.9028H39.1684C39.1047 26.9028 39.0747 26.8729 39.0747 26.8093V24.8345H36.4609C36.4347 24.8345 36.4122 24.8195 36.3934 24.8008C36.3747 24.7784 36.3672 24.7559 36.3672 24.7335V24.2847C36.3672 24.2136 36.4009 24.18 36.4647 24.18H42.4609C42.4834 24.18 42.5059 24.1875 42.5284 24.2099C42.5509 24.2323 42.5622 24.2585 42.5622 24.2847V24.7335C42.5622 24.7559 42.5509 24.7784 42.5284 24.8008H42.5247H42.5172ZM41.6772 23.5703C41.6772 23.5703 41.6434 23.5965 41.6172 23.5965H37.7322C37.5484 23.5965 37.4209 23.5554 37.3497 23.4731C37.2784 23.3833 37.2409 23.2636 37.2409 23.1066V21.0457C37.2409 20.8737 37.2784 20.754 37.3572 20.6904C37.4359 20.6268 37.5597 20.5969 37.7359 20.5969H41.5572C41.6209 20.5969 41.6509 20.6268 41.6509 20.6904V21.1318C41.6509 21.1953 41.6172 21.2253 41.5572 21.2253H38.1559C38.0734 21.2253 38.0322 21.2664 38.0322 21.3449V21.7863H41.4672C41.4897 21.7863 41.5122 21.7938 41.5309 21.8125C41.5497 21.8312 41.5609 21.8536 41.5609 21.8798V22.2949C41.5609 22.3249 41.5497 22.3473 41.5309 22.3623C41.5122 22.381 41.4897 22.3884 41.4672 22.3884H38.0322V22.8186C38.0322 22.9195 38.0734 22.9682 38.1559 22.9682H41.5909C41.6284 22.9682 41.6584 22.9719 41.6734 22.9831C41.6922 22.9906 41.6997 23.013 41.6997 23.0504V23.4843C41.6997 23.5254 41.6922 23.5479 41.6734 23.5666L41.6772 23.5703Z" fill="#6D6C6C"/>
<path id="Vector_12" d="M43.309 25.3057C43.2715 25.3282 43.234 25.3356 43.1965 25.3319C43.1552 25.3282 43.1252 25.3095 43.1027 25.2683L42.8327 24.9205C42.799 24.8793 42.7952 24.8419 42.814 24.8045C42.8327 24.7634 42.859 24.7372 42.8852 24.7223C43.174 24.5465 43.4515 24.3408 43.7102 24.1089C43.9727 23.877 44.209 23.6301 44.419 23.3758C44.629 23.1177 44.809 22.8597 44.9552 22.5941C45.1015 22.3248 45.2102 22.0668 45.2702 21.8237C45.289 21.7489 45.289 21.6965 45.2777 21.674C45.2665 21.6516 45.2177 21.6441 45.139 21.6441H43.3615C43.3277 21.6441 43.3052 21.6292 43.2902 21.6105C43.2752 21.5918 43.264 21.5656 43.264 21.5394V21.0794C43.264 21.0532 43.2752 21.0307 43.294 21.012C43.3127 20.9933 43.339 20.9859 43.3652 20.9859H45.6077C45.7877 20.9859 45.9265 21.0195 46.0277 21.0868C46.129 21.1579 46.1777 21.2402 46.1777 21.3524C46.1777 21.416 46.174 21.4721 46.1665 21.5357C46.1552 21.5992 46.1477 21.6553 46.1327 21.704C46.069 21.9508 45.9827 22.2014 45.8777 22.4445C45.7727 22.6951 45.6415 22.942 45.4877 23.1888C45.574 23.3047 45.6752 23.4282 45.7915 23.5591C45.9077 23.6862 46.024 23.8097 46.144 23.9368C46.2602 24.0565 46.384 24.1687 46.504 24.2734C46.624 24.3744 46.729 24.4604 46.8265 24.5315C46.8602 24.5539 46.879 24.5801 46.8902 24.6213C46.9015 24.6549 46.8902 24.6923 46.864 24.7335L46.5677 25.0663C46.5077 25.1337 46.4327 25.1374 46.3427 25.0813C46.2602 25.0252 46.1665 24.9541 46.054 24.8569C45.9452 24.7597 45.829 24.6549 45.7127 24.5352C45.5965 24.4193 45.4802 24.2921 45.3602 24.165C45.244 24.0378 45.139 23.9144 45.049 23.7947C44.5802 24.3707 43.9952 24.8831 43.3015 25.3207V25.3282L43.309 25.3057ZM49.0915 23.604C49.0727 23.6227 49.0502 23.6301 49.0277 23.6301H48.0902V26.8616C48.0902 26.9252 48.0602 26.9514 48.0002 26.9514H47.389C47.329 26.9514 47.299 26.9252 47.299 26.8616V20.5595C47.299 20.4959 47.329 20.4697 47.389 20.4697H48.0002C48.0602 20.4697 48.0902 20.4959 48.0902 20.5595V22.9756H49.0277C49.0502 22.9756 49.0727 22.9831 49.0915 23.0018C49.1102 23.0205 49.1215 23.0355 49.1215 23.0579V23.5404C49.1215 23.5628 49.1102 23.5853 49.0915 23.604Z" fill="#6D6C6C"/>
<path id="Vector_13" d="M49.9948 24.4604C49.9611 24.4754 49.9236 24.4791 49.8823 24.4791C49.8411 24.4791 49.8036 24.453 49.7773 24.4043L49.5711 24.0715C49.5486 24.0303 49.5448 23.9967 49.5523 23.9555C49.5636 23.9144 49.5936 23.8882 49.6386 23.8658C49.8898 23.7423 50.1336 23.5965 50.3661 23.4282C50.5986 23.2599 50.8086 23.0803 50.9998 22.8896C51.1911 22.6951 51.3561 22.5044 51.4948 22.3024C51.6373 22.1042 51.7386 21.9097 51.8098 21.7227C51.8286 21.6778 51.8361 21.6404 51.8323 21.6067C51.8323 21.5805 51.7911 21.5618 51.7123 21.5618H50.0211C49.9873 21.5618 49.9648 21.5544 49.9498 21.5319C49.9348 21.5132 49.9236 21.487 49.9236 21.4609V21.0046C49.9236 20.9372 49.9573 20.9073 50.0286 20.9073H52.2111C52.4136 20.9073 52.5598 20.9485 52.6573 21.0195C52.7548 21.0943 52.7923 21.2103 52.7661 21.3524C52.7548 21.4048 52.7473 21.4534 52.7323 21.502C52.7211 21.5506 52.7061 21.5992 52.6911 21.6404C52.6423 21.8124 52.5673 21.9882 52.4698 22.1677C52.3761 22.351 52.2598 22.5305 52.1323 22.7063C52.2148 22.7961 52.3086 22.8896 52.4136 22.9794C52.5186 23.0691 52.6273 23.1551 52.7398 23.2412C52.8523 23.3272 52.9648 23.402 53.0736 23.4768C53.1823 23.5479 53.2836 23.6152 53.3736 23.6638C53.4673 23.7087 53.4823 23.7797 53.4298 23.8658L53.2048 24.2136C53.1598 24.2884 53.0886 24.3071 52.9911 24.2547C52.9086 24.2136 52.8111 24.1575 52.6986 24.0827C52.5861 24.0079 52.4698 23.9219 52.3461 23.8321C52.2261 23.7386 52.1061 23.6414 51.9898 23.5366C51.8736 23.4319 51.7686 23.3347 51.6748 23.2374C51.4423 23.4843 51.1836 23.7124 50.8948 23.9181C50.6098 24.1313 50.3098 24.3108 49.9948 24.4679H49.9986L49.9948 24.4604ZM54.9598 26.8279C54.9373 26.8429 54.9148 26.8504 54.8886 26.8504H51.2886C51.0823 26.8504 50.9436 26.8092 50.8723 26.7382C50.8011 26.6671 50.7636 26.54 50.7636 26.3604V24.913C50.7636 24.8906 50.7748 24.8681 50.7936 24.8419C50.8123 24.8195 50.8348 24.812 50.8573 24.812H51.4536C51.4798 24.812 51.5061 24.8195 51.5248 24.8382C51.5436 24.8606 51.5548 24.8831 51.5548 24.913V26.0799C51.5548 26.1248 51.5623 26.1547 51.5811 26.1697C51.5998 26.1846 51.6298 26.1921 51.6786 26.1921H54.8773C54.8998 26.1921 54.9223 26.1996 54.9448 26.2183C54.9673 26.237 54.9786 26.2594 54.9786 26.2819V26.7681C54.9786 26.7943 54.9673 26.813 54.9486 26.8317H54.9523L54.9598 26.8279ZM54.7798 25.0289C54.7798 25.0925 54.7498 25.1187 54.6898 25.1187H54.0786C54.0186 25.1187 53.9886 25.0888 53.9886 25.0252V20.5595C53.9886 20.4959 54.0186 20.4697 54.0786 20.4697H54.6898C54.7498 20.4697 54.7798 20.4959 54.7798 20.5595V25.0327V25.0289Z" fill="#6D6C6C"/>
<path id="Vector_14" d="M61.9234 24.7521C61.9009 24.7746 61.8784 24.7858 61.8559 24.7858H55.8672C55.8409 24.7858 55.8184 24.7783 55.7997 24.7521C55.7809 24.7297 55.7734 24.7073 55.7734 24.6848V24.2809C55.7734 24.2061 55.8072 24.1687 55.8672 24.1687H61.8259C61.8484 24.1687 61.8747 24.1762 61.9084 24.2023C61.9422 24.2248 61.9572 24.2472 61.9572 24.2772V24.6811C61.9572 24.7035 61.9459 24.726 61.9234 24.7484V24.7521ZM61.3122 21.8274C61.2934 21.8461 61.2672 21.8573 61.2409 21.8573H56.4822C56.4597 21.8573 56.4372 21.8423 56.4147 21.8161C56.3922 21.7937 56.3809 21.7638 56.3809 21.7376V21.3785C56.3809 21.3524 56.3922 21.3299 56.4184 21.3075C56.4447 21.285 56.4672 21.2738 56.4897 21.2738H61.2409C61.2672 21.2738 61.2897 21.2813 61.3122 21.3037C61.3309 21.3224 61.3422 21.3486 61.3422 21.3748V21.7413C61.3422 21.7713 61.3309 21.7974 61.3122 21.8199V21.8274ZM61.0497 26.0313C61.0497 26.3193 60.8659 26.5549 60.4909 26.7307C60.1197 26.9139 59.5759 27 58.8597 27C58.1434 27 57.5997 26.9102 57.2284 26.7307C56.8572 26.5549 56.6697 26.3193 56.6697 26.0313C56.6697 25.7433 56.8572 25.5151 57.2284 25.3319C57.5997 25.1561 58.1434 25.0663 58.8597 25.0663C59.5759 25.0663 60.1197 25.1561 60.4909 25.3319C60.8622 25.5077 61.0497 25.7433 61.0497 26.0313ZM58.8597 23.8657C58.5484 23.8657 58.2784 23.8396 58.0497 23.7909C57.8209 23.7386 57.6297 23.6712 57.4797 23.5927C57.3297 23.5142 57.2172 23.4169 57.1384 23.3085C57.0597 23.2037 57.0259 23.0878 57.0259 22.9681C57.0259 22.8484 57.0634 22.7287 57.1384 22.624C57.2134 22.5118 57.3259 22.4146 57.4797 22.336C57.6297 22.2537 57.8209 22.1902 58.0497 22.1378C58.2784 22.0854 58.5484 22.063 58.8597 22.063C59.1709 22.063 59.4447 22.0854 59.6772 22.1378C59.9097 22.1864 60.1009 22.2537 60.2509 22.336C60.4009 22.4146 60.5134 22.5118 60.5922 22.624C60.6672 22.7287 60.7047 22.8447 60.7047 22.9681C60.7047 23.0915 60.6672 23.2037 60.5922 23.3085C60.5172 23.4132 60.4009 23.5104 60.2509 23.5927C60.1009 23.675 59.9059 23.7386 59.6772 23.7909C59.4447 23.8396 59.1747 23.8657 58.8597 23.8657ZM58.8597 25.6273C58.4022 25.6273 58.0534 25.6685 57.8209 25.7508C57.5884 25.8405 57.4684 25.934 57.4684 26.035C57.4684 26.136 57.5847 26.2332 57.8209 26.3155C58.0534 26.3978 58.4022 26.4389 58.8597 26.4389C59.3172 26.4389 59.6659 26.3941 59.8984 26.3155C60.1309 26.237 60.2509 26.1435 60.2509 26.035C60.2509 25.9265 60.1347 25.8368 59.8984 25.7508C59.6659 25.6685 59.3172 25.6273 58.8597 25.6273ZM59.9434 20.9933C59.9247 21.0158 59.8947 21.027 59.8647 21.027H57.8622C57.8622 21.027 57.8209 21.0195 57.7984 21.0008C57.7722 20.9821 57.7609 20.9559 57.7609 20.926V20.537C57.7609 20.5071 57.7722 20.4809 57.7984 20.4622C57.8247 20.4435 57.8472 20.436 57.8622 20.436H59.8647C59.8909 20.436 59.9172 20.451 59.9397 20.4697C59.9622 20.4884 59.9734 20.5183 59.9734 20.5445V20.9223C59.9734 20.9484 59.9622 20.9746 59.9434 20.9971V20.9933ZM58.8597 22.5866C58.5109 22.5866 58.2447 22.6278 58.0572 22.6988C57.8697 22.7699 57.7797 22.8634 57.7797 22.9718C57.7797 23.0803 57.8734 23.1626 58.0572 23.2374C58.2447 23.3122 58.5109 23.3496 58.8597 23.3496C59.2084 23.3496 59.4822 23.3159 59.6697 23.2374C59.8572 23.1626 59.9472 23.0766 59.9472 22.9718C59.9472 22.8671 59.8534 22.7736 59.6697 22.6988C59.4822 22.6278 59.2159 22.5866 58.8597 22.5866Z" fill="#6D6C6C"/>
<path id="Vector_15" d="M68.3922 23.847C68.3697 23.8694 68.3472 23.8806 68.3247 23.8806H62.3359C62.3097 23.8806 62.2872 23.8732 62.2684 23.847C62.2497 23.8245 62.2422 23.8021 62.2422 23.7797V23.3383C62.2422 23.3121 62.2534 23.286 62.2684 23.2635C62.2872 23.2411 62.3097 23.2299 62.3359 23.2299H64.7022V22.1415C64.7022 22.0779 64.7359 22.048 64.7959 22.048H65.3922C65.4559 22.048 65.4859 22.0779 65.4859 22.1415V23.2299H68.2872C68.3097 23.2299 68.3359 23.2448 68.3697 23.2635C68.4034 23.2897 68.4184 23.3159 68.4184 23.3383V23.7797C68.4184 23.8021 68.4072 23.8245 68.3847 23.847H68.3884H68.3922ZM67.5259 25.6273C67.5259 25.8143 67.4772 25.9863 67.3759 26.1434C67.2784 26.3042 67.1359 26.4389 66.9484 26.5586C66.7609 26.6783 66.5322 26.768 66.2584 26.8316C65.9847 26.8989 65.6772 26.9326 65.3322 26.9326C64.9872 26.9326 64.6797 26.9027 64.4059 26.8316C64.1322 26.7643 63.9034 26.6708 63.7159 26.5586C63.5284 26.4389 63.3859 26.3005 63.2884 26.1434C63.1909 25.9826 63.1384 25.8105 63.1384 25.6273C63.1384 25.444 63.1872 25.272 63.2884 25.1149C63.3859 24.9541 63.5284 24.8194 63.7159 24.6997C63.9034 24.5838 64.1322 24.4903 64.4059 24.4267C64.6797 24.3631 64.9872 24.3295 65.3322 24.3295C65.6772 24.3295 65.9847 24.3594 66.2584 24.4267C66.5322 24.494 66.7609 24.5875 66.9484 24.6997C67.1359 24.8157 67.2784 24.9578 67.3759 25.1149C67.4734 25.2757 67.5259 25.444 67.5259 25.6273ZM67.5184 21.1055C67.5184 21.199 67.5147 21.3224 67.5034 21.4757C67.4922 21.6366 67.4847 21.7937 67.4697 21.962C67.4584 22.1303 67.4397 22.2836 67.4209 22.437C67.4022 22.5866 67.3834 22.6988 67.3647 22.7698C67.3534 22.811 67.3384 22.8409 67.3122 22.8671C67.2859 22.8932 67.2559 22.9082 67.2184 22.9007L66.6897 22.8521C66.6184 22.8484 66.5959 22.7997 66.6072 22.7062C66.6184 22.6314 66.6334 22.5342 66.6484 22.4145C66.6597 22.2986 66.6747 22.1789 66.6822 22.0592C66.6897 21.9395 66.7009 21.8198 66.7084 21.7114C66.7122 21.5954 66.7197 21.5094 66.7197 21.4383C66.7197 21.371 66.7047 21.3374 66.6747 21.3187C66.6447 21.3037 66.5959 21.2925 66.5322 21.2925H63.3372C63.3147 21.2925 63.2922 21.2887 63.2697 21.27C63.2472 21.2513 63.2359 21.2364 63.2359 21.2139V20.7352C63.2359 20.7053 63.2472 20.6866 63.2697 20.6716C63.2922 20.6529 63.3147 20.6492 63.3372 20.6492H67.0609C67.1809 20.6492 67.2859 20.6791 67.3759 20.7502C67.4697 20.8137 67.5147 20.9334 67.5147 21.098L67.5184 21.1055ZM65.3359 24.9241C65.1072 24.9241 64.9047 24.9466 64.7322 24.9915C64.5597 25.0326 64.4134 25.0887 64.2934 25.156C64.1772 25.2234 64.0872 25.3019 64.0234 25.3879C63.9597 25.4702 63.9297 25.5562 63.9297 25.6348C63.9297 25.717 63.9597 25.8031 64.0234 25.8854C64.0872 25.9676 64.1734 26.0462 64.2934 26.1172C64.4097 26.1846 64.5559 26.2407 64.7322 26.2818C64.9047 26.3267 65.1072 26.3491 65.3359 26.3491C65.5647 26.3491 65.7634 26.3267 65.9397 26.2818C66.1159 26.2407 66.2622 26.1846 66.3784 26.1172C66.4947 26.0462 66.5847 25.9714 66.6484 25.8854C66.7122 25.8031 66.7422 25.717 66.7422 25.6348C66.7422 25.5562 66.7122 25.4702 66.6484 25.3879C66.5847 25.3056 66.4984 25.2271 66.3784 25.156C66.2622 25.0887 66.1159 25.0326 65.9397 24.9915C65.7634 24.9466 65.5647 24.9241 65.3359 24.9241Z" fill="#6D6C6C"/>
<path id="Vector_16" d="M69.3634 25.4404C69.2772 25.5077 69.1984 25.5077 69.1234 25.4329L68.8009 25.1337C68.7372 25.0701 68.7447 24.999 68.8197 24.9205C69.1197 24.6549 69.3709 24.3557 69.5847 24.0266C69.7947 23.6975 69.9634 23.3496 70.0947 22.9794C70.1509 22.811 70.1959 22.6502 70.2372 22.4894C70.2784 22.3286 70.3084 22.1603 70.3309 21.9994C70.3534 21.8311 70.3684 21.6628 70.3797 21.4833C70.3909 21.3075 70.3909 21.1168 70.3872 20.9111C70.3872 20.8849 70.3984 20.8587 70.4172 20.84C70.4359 20.8176 70.4584 20.8101 70.4809 20.8101L71.0922 20.8325C71.1147 20.8325 71.1334 20.84 71.1559 20.8587C71.1747 20.8811 71.1822 20.9036 71.1822 20.9335C71.1822 21.2065 71.1709 21.4683 71.1559 21.7077C71.1372 21.9471 71.1072 22.1752 71.0659 22.3996C71.1109 22.6166 71.1822 22.8297 71.2797 23.0467C71.3734 23.2599 71.4897 23.4618 71.6172 23.6601C71.7447 23.8583 71.8834 24.0416 72.0334 24.2099C72.1834 24.3744 72.3297 24.5165 72.4797 24.6362C72.5509 24.6886 72.5584 24.7597 72.4947 24.8494L72.2059 25.1973C72.1834 25.2272 72.1497 25.2459 72.1122 25.2496C72.0747 25.2534 72.0334 25.2421 71.9847 25.2047C71.8759 25.1224 71.7597 25.0102 71.6322 24.8868C71.5084 24.7597 71.3922 24.6213 71.2797 24.4717C71.1672 24.3258 71.0622 24.1725 70.9647 24.0154C70.8709 23.8545 70.7922 23.7049 70.7322 23.5591C70.6497 23.7536 70.5559 23.9406 70.4509 24.1201C70.3459 24.3034 70.2334 24.4754 70.1134 24.6325C69.9934 24.7971 69.8697 24.9467 69.7459 25.085C69.6222 25.2234 69.4947 25.3469 69.3709 25.4441L69.3634 25.4404ZM74.9697 23.5927C74.9509 23.6114 74.9284 23.6189 74.9059 23.6189H73.9684V26.8616C73.9684 26.9252 73.9384 26.9514 73.8822 26.9514H73.2709C73.2109 26.9514 73.1847 26.9252 73.1847 26.8616V20.5595C73.1847 20.4959 73.2147 20.4697 73.2709 20.4697H73.8822C73.9422 20.4697 73.9684 20.4959 73.9684 20.5595V22.9644H74.9059C74.9284 22.9644 74.9509 22.9681 74.9697 22.9868C74.9884 23.0055 74.9997 23.0205 74.9997 23.0429V23.5217C74.9997 23.5516 74.9884 23.574 74.9697 23.5927Z" fill="#6D6C6C"/>
</g>
<defs>
<clipPath id="clip0_1271_20486">
<rect width="75" height="27" fill="white"/>
</clipPath>
</defs>
</svg>
