<svg width="118" height="27" viewBox="0 0 118 27" fill="none" xmlns="http://www.w3.org/2000/svg">
<g id="_&#235;&#160;&#136;&#236;&#157;&#180;&#236;&#150;&#180;_1" clip-path="url(#clip0_1271_20331)">
<path id="Vector" d="M15.5701 22.2541L10.4076 15.8848L17.9124 6.62409H13.8237C11.977 6.62409 10.7262 7.18696 9.6052 8.49045L5.6581 13.3608V0H1.6815C0.7552 0 0 0.758394 0 1.68861V26.6623H3.9589C4.8911 26.6623 5.6404 25.9039 5.6404 24.9737V18.3318L8.85 22.2897L11.5758 25.6491C12.1186 26.3423 12.8561 26.6623 13.5936 26.6623H19.1278L15.5524 22.2541H15.5701Z" fill="#040000"/>
<path id="Vector_2" d="M25.7426 26.6623C22.6982 26.6623 20.5801 24.553 20.5801 21.4839V1.68861C20.5801 0.758394 21.3353 0 22.2793 0H26.2382V20.4233C26.2382 21.2587 26.9285 21.9519 27.7486 21.9519H31.7901V24.9737C31.7901 25.9039 31.0349 26.6623 30.0909 26.6623H25.7308H25.7485H25.7426Z" fill="#040000"/>
<path id="Vector_3" d="M32.6036 5.16064L32.2673 5.52799C32.2673 5.52799 31.1935 6.62411 28.1314 6.62411H13.7118C11.4344 6.62411 10.3606 7.55432 9.54053 8.55564L9.09213 9.11851C9.09213 9.11851 9.07443 9.13629 9.06263 9.14814L6.20703 12.6676C7.25133 11.8795 8.67913 11.4115 10.1364 11.4115H28.1432C30.3262 11.4115 32.4266 10.7656 32.6036 9.13036C32.6213 9.00001 32.6213 8.92299 32.6213 8.92299V5.16064H32.6036Z" fill="#D61518"/>
<path id="Vector_4" d="M39.5645 18.7643C39.5645 14.131 41.1339 10.6768 46.3967 10.6768C51.6595 10.6768 52.6684 14.2969 52.6684 17.2535V18.8591C52.6684 19.8723 52.0725 20.293 51.1934 20.293H42.9983C42.9983 22.7518 44.5382 23.9783 46.8805 23.9783C48.916 23.9783 50.7627 23.445 52.043 22.7874V25.1336C52.043 25.5839 51.7716 25.8387 51.4471 26.052C50.5326 26.6445 48.3201 27 46.5737 27C41.2814 27 39.5645 23.7353 39.5645 18.7821M49.2995 17.4016V17.129C49.2995 14.6998 48.0959 13.6866 46.2197 13.6866C44.1842 13.6866 43.075 14.9901 43.0632 17.4016H49.2995Z" fill="#D61518"/>
<path id="Vector_5" d="M55.9203 26.1763C55.6312 25.969 55.2949 25.6135 55.2949 25.1632L55.3244 22.9413C56.5575 23.5693 58.1623 23.8893 59.7022 23.8893C61.4191 23.8893 62.074 23.1842 62.074 22.2836C62.074 21.383 61.72 20.8379 60.5636 20.4173L59.0532 19.884C56.8702 19.1138 55.3834 17.8755 55.3834 15.2863C55.3834 12.0512 57.6608 10.8959 61.1713 10.8959C62.5637 10.8959 63.8971 10.8307 64.5402 10.5759V13.1829C64.5402 13.811 63.1124 13.9887 61.3188 13.9887C59.714 13.9887 58.9293 14.3442 58.9293 15.3574C58.9293 16.0032 59.2007 16.5127 60.2273 16.8682L61.7023 17.3659C63.8853 18.1065 65.614 19.4397 65.614 22.1414C65.614 25.1987 63.8676 26.9821 59.5193 26.9821C58.3334 26.9821 56.6814 26.6622 55.9085 26.1763H55.9203Z" fill="#D61518"/>
<path id="Vector_6" d="M68.9881 22.6393V13.9888H66.7402V11.7374C66.7402 11.2041 67.0293 10.9019 67.5898 10.9019H68.9822V7.90983C68.9822 7.31734 69.2241 7.05664 69.8141 7.05664H72.475V10.9138H74.3984C75.3424 10.9138 76.0799 10.8842 76.7879 10.5938V12.8157C76.7879 13.8763 75.3955 14.0066 74.2214 14.0066H72.475V21.9046C72.475 23.1725 72.829 23.8835 74.304 23.8835C75.5725 23.8835 76.1625 23.6761 76.7879 23.4154V25.6965C76.7879 26.1291 76.5165 26.4668 76.1625 26.5794C75.3601 26.8697 74.4161 27 73.1476 27C70.7286 27 68.9763 25.9572 68.9763 22.6748" fill="#D61518"/>
<path id="Vector_7" d="M78.34 22.3192C78.34 17.7511 82.1868 16.9156 86.1162 16.9156H87.1723V16.2876C87.1723 14.0835 86.1929 13.6154 84.0925 13.6154C82.8712 13.6154 81.349 13.888 80.3401 14.1783C79.8917 14.2909 79.5377 14.2079 79.5377 13.6984V11.4469C80.9832 10.967 82.7296 10.6411 84.8595 10.6411C87.9039 10.6411 90.5707 11.5891 90.5707 15.8669V23.279C90.5707 23.7767 90.7477 23.9841 91.1666 23.9841C91.4085 23.9841 91.5206 23.9545 91.7625 23.8893V25.6905C91.7625 26.4963 90.8775 26.9288 89.8037 26.9288C88.7299 26.9288 87.6679 26.4489 87.2844 25.4476C86.482 26.3659 84.653 26.9288 83.4022 26.9288C80.6292 26.9288 78.3164 25.495 78.3164 22.2659M87.1782 23.0598V19.4397H86.3758C82.5585 19.4397 81.7089 20.5358 81.7089 22.1711C81.7089 23.4746 82.6883 23.99 84.2282 23.99C85.2371 23.99 86.4407 23.6345 87.1782 23.0717" fill="#D61518"/>
<path id="Vector_8" d="M95.5038 22.6393V13.9888H93.2559V11.7374C93.2559 11.2041 93.545 10.9019 94.1232 10.9019H95.5215V7.90983C95.5215 7.31734 95.7634 7.05664 96.3534 7.05664H99.0143V10.9138H100.938C101.882 10.9138 102.619 10.8842 103.327 10.5938V12.8157C103.327 13.8763 101.947 14.0066 100.761 14.0066H99.0143V21.9046C99.0143 23.1725 99.3683 23.8835 100.843 23.8835C102.112 23.8835 102.702 23.6761 103.327 23.4154V25.6965C103.327 26.1291 103.073 26.4668 102.702 26.5794C101.899 26.8697 100.955 27 99.6869 27C97.2679 27 95.5156 25.9572 95.5156 22.6748" fill="#D61518"/>
<path id="Vector_9" d="M104.896 18.7643C104.896 14.131 106.466 10.6768 111.729 10.6768C116.991 10.6768 118 14.2969 118 17.2535V18.8591C118 19.8723 117.404 20.293 116.525 20.293H108.33C108.33 22.7518 109.87 23.9783 112.212 23.9783C114.248 23.9783 116.095 23.445 117.393 22.7874V25.1336C117.393 25.5839 117.121 25.8387 116.797 26.052C115.882 26.6445 113.652 27 111.923 27C106.631 27 104.914 23.7353 104.914 18.7821M114.631 17.4016V17.129C114.631 14.6998 113.41 13.6866 111.552 13.6866C109.498 13.6866 108.407 14.9901 108.389 17.4016H114.626H114.631Z" fill="#D61518"/>
</g>
<defs>
<clipPath id="clip0_1271_20331">
<rect width="118" height="27" fill="white"/>
</clipPath>
</defs>
</svg>
