<svg width="102" height="27" viewBox="0 0 102 27" fill="none" xmlns="http://www.w3.org/2000/svg">
<g id="_&#235;&#160;&#136;&#236;&#157;&#180;&#236;&#150;&#180;_1" clip-path="url(#clip0_1271_20323)">
<path id="Vector" d="M37.0966 4.50342H33.0625V21.9566H45.4555V18.5587H37.0966V4.50342Z" fill="#6B6B6B"/>
<path id="Vector_2" d="M54.3348 15.3035H57.6192V18.355C57.0174 18.5842 55.8342 18.8186 54.7122 18.8186C51.081 18.8186 49.8672 16.9744 49.8672 13.2301C49.8672 9.48573 51.0198 7.55497 54.651 7.55497C56.6706 7.55497 57.8232 8.18667 58.7718 9.39912L61.281 7.09648C59.751 4.90592 57.0684 4.24365 54.5643 4.24365C48.9135 4.24365 45.9453 7.32573 45.9453 13.1995C45.9453 19.0733 48.6279 22.2165 54.5388 22.2165C57.2469 22.2165 59.8989 21.5237 61.3422 20.5201V12.0533H54.3399V15.3086L54.3348 15.3035Z" fill="#6B6B6B"/>
<path id="Vector_3" d="M64.9432 4.75312V7.31048H68.4775V7.96765C68.4775 10.6065 67.4116 12.0024 64.5352 12.9143L65.6215 15.3595C67.6003 14.896 69.5434 13.7293 70.339 12.1399C71.1907 13.7293 73.0573 14.8348 74.7862 15.2424L76.1632 12.4507C73.6591 11.9107 71.8537 10.5505 71.8537 7.94727V7.30538H75.3268V4.74803H64.9432V4.75312ZM81.0388 4.40161H77.7952V8.08482H74.7454V10.7441H77.7952V17.4737H80.6512C80.8858 16.5618 81.0388 15.0284 81.0388 13.9229V4.40161ZM81.3703 19.8782H71.818C71.5681 19.8782 71.4865 19.8222 71.4865 19.5471V15.7671H68.2429V20.8665C68.2429 21.972 68.8039 22.4967 69.9157 22.4967H81.3703V19.8782ZM83.2114 4.73274V7.27482H86.8987V8.50255C86.8987 11.7426 86.2408 13.7752 82.8799 15.2526L84.1396 17.5043C86.0623 16.786 87.8677 15.4309 88.699 13.7039C89.5354 15.3341 91.2796 16.6739 92.9677 17.331L94.4824 14.6922C91.2235 13.4695 90.0964 11.5693 90.0964 8.48727V7.27991H93.6868V4.73784H83.2063L83.2114 4.73274ZM102 9.21576H98.7766V4.40161H95.6707V22.4967H98.389C98.644 21.432 98.7766 19.598 98.7766 18.1614V11.8139H102V9.21576Z" fill="#6B6B6B"/>
<path id="Vector_4" d="M13.5099 27C20.9712 27 27.0198 20.953 27.0198 13.5C27.0198 6.04698 20.9712 0 13.5099 0C6.0486 0 0 6.04189 0 13.4949C0 20.9479 6.0486 26.9949 13.5099 26.9949V27Z" fill="#9C1E35"/>
<path id="Vector_5" d="M12.9746 7.57007V19.4042H16.7384V18.3497H14.0507V7.57007H12.9746Z" fill="white"/>
<path id="Vector_6" d="M9.20068 10.805C10.0983 10.805 10.8225 10.0816 10.8225 9.19007C10.8225 8.29856 10.0983 7.57007 9.20068 7.57007C8.30308 7.57007 7.58398 8.29347 7.58398 9.19007C7.58398 10.0867 8.31328 10.805 9.20068 10.805Z" fill="white"/>
<path id="Vector_7" d="M14.0504 2.20086C13.9127 2.19577 13.6424 2.19067 13.5149 2.19067C7.27763 2.19577 2.20312 7.26464 2.20312 13.495C2.20312 16.516 3.37613 19.3484 5.50793 21.4829C7.64992 23.6175 10.4906 24.7943 13.5098 24.7943C16.529 24.7943 19.3697 23.6226 21.5117 21.4829C23.6435 19.3484 24.8165 16.516 24.8165 13.495V12.9805H24.3677H16.7483V14.0299H23.7455V14.1828C23.3885 19.5114 18.9362 23.7346 13.5149 23.7346C10.7762 23.7346 8.20582 22.6699 6.26782 20.7341C4.32982 18.7982 3.26392 16.2256 3.26392 13.4899C3.26392 10.7543 4.32982 8.18162 6.26782 6.24577C8.20582 4.30992 10.7762 3.2452 13.5149 3.2452C13.6373 3.2452 13.928 3.2452 14.0504 3.2503V2.19577V2.20086Z" fill="white"/>
</g>
<defs>
<clipPath id="clip0_1271_20323">
<rect width="102" height="27" fill="white"/>
</clipPath>
</defs>
</svg>
