<svg width="99" height="27" viewBox="0 0 99 27" fill="none" xmlns="http://www.w3.org/2000/svg">
<g id="_&#235;&#160;&#136;&#236;&#157;&#180;&#236;&#150;&#180;_1" clip-path="url(#clip0_1271_20546)">
<g id="Group">
<path id="Vector" d="M19.7306 13.6093C18.7109 13.2563 17.9734 12.8386 17.518 12.3463C17.0675 11.8541 16.8398 11.2624 16.8398 10.5712C16.8398 9.7806 17.0923 9.15408 17.5922 8.69165C18.0922 8.23419 18.7852 8.00049 19.6613 8.00049C20.488 8.00049 21.2107 8.09994 21.8393 8.29883C22.0274 8.36347 22.1809 8.48281 22.3046 8.65684C22.4234 8.83087 22.4878 9.02977 22.4878 9.24358C22.4878 9.39773 22.4185 9.51209 22.2848 9.59662C22.1512 9.68115 22.0126 9.68612 21.869 9.62148C21.1859 9.33309 20.4979 9.18889 19.7999 9.18889C19.3148 9.18889 18.9436 9.30822 18.6862 9.55187C18.4238 9.79552 18.2951 10.1336 18.2951 10.5662C18.2951 10.9193 18.4139 11.2325 18.6565 11.5209C18.899 11.8044 19.2554 12.0281 19.7306 12.1872C20.9137 12.585 21.7354 13.0226 22.1957 13.5099C22.6561 13.9972 22.8887 14.6137 22.8887 15.3596C22.8887 16.2695 22.6115 16.9557 22.0571 17.4281C21.5027 17.8955 20.681 18.1292 19.597 18.1292C18.8891 18.1292 18.2456 18.0198 17.6764 17.806C17.2556 17.637 17.0428 17.3038 17.0428 16.8066C17.0428 16.6524 17.1121 16.543 17.2457 16.4684C17.3794 16.3988 17.513 16.3988 17.6467 16.4684C18.2011 16.7668 18.805 16.916 19.4633 16.916C20.7652 16.916 21.4136 16.3988 21.4136 15.3646C21.4136 14.9668 21.2849 14.6287 21.0325 14.3502C20.7751 14.0718 20.3444 13.8231 19.7356 13.6093H19.7306Z" fill="#221E1F"/>
<path id="Vector_2" d="M23.7944 11.8342C23.6409 11.8342 23.5122 11.7795 23.4132 11.6701C23.3093 11.5607 23.2598 11.4364 23.2598 11.2922C23.2598 11.148 23.3093 11.0237 23.4132 10.9143C23.5172 10.8049 23.6459 10.7502 23.7944 10.7502H24.3834C24.4626 10.7502 24.5022 10.7105 24.5022 10.6309V9.37786C24.5022 9.17897 24.5715 9.01488 24.7052 8.88063C24.8388 8.74637 25.0071 8.67676 25.2051 8.67676C25.4031 8.67676 25.5714 8.74637 25.71 8.88063C25.8486 9.01488 25.9179 9.18394 25.9179 9.37786V10.6309C25.9179 10.7105 25.9575 10.7502 26.0367 10.7502H27.3039C27.4574 10.7502 27.5861 10.8049 27.6851 10.9143C27.789 11.0237 27.8385 11.148 27.8385 11.2922C27.8385 11.4364 27.789 11.5607 27.6851 11.6701C27.5811 11.7795 27.4524 11.8342 27.3039 11.8342H26.0367C25.9575 11.8342 25.9179 11.874 25.9179 11.9536V15.5635C25.9179 16.5679 26.2793 17.0502 26.7099 17.0502C26.9178 17.0502 27.1109 17.0353 27.3039 17.0105C27.4475 16.9906 27.5762 17.0254 27.6851 17.1049C27.7989 17.1845 27.8534 17.2939 27.8534 17.4281C27.8534 17.5922 27.7989 17.7364 27.69 17.8607C27.5811 17.985 27.4475 18.0596 27.2891 18.0745C26.9129 18.1094 26.9178 18.1292 26.7297 18.1292C25.9031 18.1292 25.3289 17.9552 25.0022 17.6022C24.6755 17.2491 24.5121 16.6176 24.5121 15.6978V11.9536C24.5121 11.874 24.4725 11.8342 24.3933 11.8342H23.8043H23.7944Z" fill="#221E1F"/>
<path id="Vector_3" d="M39.6596 11.8342C39.5062 11.8342 39.3774 11.7795 39.2784 11.6701C39.1745 11.5607 39.125 11.4364 39.125 11.2922C39.125 11.148 39.1745 11.0237 39.2784 10.9143C39.3824 10.8049 39.5111 10.7502 39.6596 10.7502H40.2486C40.3278 10.7502 40.3675 10.7105 40.3675 10.6309V9.37786C40.3675 9.17897 40.4367 9.01488 40.5704 8.88063C40.704 8.74637 40.8724 8.67676 41.0704 8.67676C41.2684 8.67676 41.4366 8.74637 41.5752 8.88063C41.7138 9.01488 41.7832 9.18394 41.7832 9.37786V10.6309C41.7832 10.7105 41.8228 10.7502 41.902 10.7502H43.1691C43.3226 10.7502 43.4513 10.8049 43.5503 10.9143C43.6543 11.0237 43.7038 11.148 43.7038 11.2922C43.7038 11.4364 43.6543 11.5607 43.5503 11.6701C43.4464 11.7795 43.3176 11.8342 43.1691 11.8342H41.902C41.8228 11.8342 41.7832 11.874 41.7832 11.9536V15.5635C41.7832 16.5679 42.1445 17.0502 42.5752 17.0502C42.7831 17.0502 42.9761 17.0353 43.1691 17.0105C43.3127 16.9906 43.4414 17.0254 43.5503 17.1049C43.6642 17.1845 43.7186 17.2939 43.7186 17.4281C43.7186 17.5922 43.6641 17.7364 43.5552 17.8607C43.4463 17.985 43.3127 18.0596 43.1543 18.0745C42.7781 18.1094 42.7831 18.1292 42.595 18.1292C41.7683 18.1292 41.1941 17.9552 40.8674 17.6022C40.5407 17.2491 40.3773 16.6176 40.3773 15.6978V11.9536C40.3773 11.874 40.3378 11.8342 40.2586 11.8342H39.6695H39.6596Z" fill="#221E1F"/>
<path id="Vector_4" d="M30.3691 18.1341C29.7603 18.1341 29.2603 17.9352 28.8693 17.5374C28.4782 17.1396 28.2852 16.6175 28.2852 15.9711C28.2852 15.1805 28.5871 14.5639 29.1861 14.1263C29.785 13.6888 30.6958 13.47 31.9135 13.47H32.5323C32.6115 13.47 32.6511 13.4302 32.6511 13.3506V13.2015C32.6511 12.7241 32.5372 12.391 32.3145 12.202C32.0917 12.0131 31.6858 11.9186 31.1067 11.9186C30.5869 11.9186 29.9682 12.028 29.2504 12.2418C29.1168 12.2866 28.9881 12.2667 28.8693 12.1821C28.7505 12.0976 28.6861 11.9832 28.6861 11.839C28.6861 11.66 28.7406 11.496 28.8495 11.3518C28.9584 11.2076 29.097 11.1181 29.2653 11.0832C29.9088 10.9192 30.5226 10.8396 31.1067 10.8396C32.2353 10.8396 33.0124 11.0435 33.4332 11.4462C33.8539 11.854 34.0668 12.5948 34.0668 13.6739V17.3335C34.0668 17.5125 34.0024 17.6667 33.8737 17.8009C33.745 17.9302 33.5866 17.9948 33.4084 17.9948C33.2302 17.9948 33.0768 17.9302 32.9431 17.8009C32.8144 17.6716 32.7451 17.5175 32.7352 17.3335L32.7204 16.9954C32.7204 16.9954 32.7204 16.9805 32.7055 16.9805C32.6857 16.9805 32.6808 16.9805 32.6808 16.9954C32.161 17.7512 31.3888 18.1291 30.3691 18.1291V18.1341ZM31.9135 14.4595C31.176 14.4595 30.6265 14.5838 30.2553 14.8324C29.884 15.081 29.6959 15.4142 29.6959 15.8368C29.6959 16.17 29.7949 16.4435 29.9929 16.6623C30.1909 16.8761 30.4285 16.9855 30.7057 16.9855C31.2997 16.9855 31.77 16.7965 32.1264 16.4236C32.4828 16.0506 32.656 15.5385 32.656 14.8921V14.5689C32.656 14.4993 32.6164 14.4595 32.5372 14.4595H31.9185H31.9135Z" fill="#221E1F"/>
<path id="Vector_5" d="M36.4615 17.8955C36.3179 18.0397 36.1447 18.1093 35.9368 18.1093C35.7289 18.1093 35.5556 18.0397 35.4121 17.8955C35.2685 17.7513 35.1992 17.5772 35.1992 17.3684V11.4165C35.1992 11.2176 35.2685 11.0535 35.4022 10.9192C35.5358 10.785 35.7041 10.7154 35.9021 10.7154C36.1001 10.7154 36.2684 10.785 36.407 10.9192C36.5456 11.0535 36.6149 11.2225 36.6149 11.4165V12.0529C36.6149 12.0529 36.6149 12.0678 36.6298 12.0678C36.6496 12.0678 36.6545 12.0678 36.6545 12.0529C37.2386 10.8944 38.0207 10.7551 38.5504 10.7154C38.7137 10.7054 38.8474 10.7551 38.9612 10.8645C39.0751 10.9739 39.1295 11.1082 39.1295 11.2723C39.1295 11.4363 39.0751 11.5706 38.9612 11.685C38.8474 11.7993 38.7137 11.859 38.5504 11.8689C37.6891 11.9038 36.6842 12.6844 36.6842 14.3651V17.3684C36.6842 17.5772 36.61 17.7513 36.4714 17.8955H36.4615Z" fill="#221E1F"/>
<path id="Vector_6" d="M44.4901 13.5148C44.3366 13.5148 44.203 13.4601 44.0941 13.3457C43.9802 13.2314 43.9258 13.1021 43.9258 12.948C43.9258 12.7938 43.9802 12.6645 44.0941 12.5502C44.2079 12.4358 44.3366 12.3811 44.4901 12.3811H48.0491C48.2026 12.3811 48.3313 12.4358 48.4451 12.5502C48.559 12.6645 48.6134 12.7938 48.6134 12.948C48.6134 13.1021 48.559 13.2364 48.4451 13.3457C48.3313 13.4601 48.2026 13.5148 48.0491 13.5148H44.4901Z" fill="#221E1F"/>
<path id="Vector_7" d="M51.9558 18.1342C51.1687 18.1342 50.5896 17.9154 50.2233 17.4778C49.857 17.0403 49.6738 16.3143 49.6738 15.295V11.6602C49.6738 11.4712 49.7431 11.3071 49.8768 11.1729C50.0104 11.0386 50.1738 10.969 50.3619 10.969C50.55 10.969 50.7133 11.0386 50.8519 11.1729C50.9905 11.3071 51.0598 11.4712 51.0598 11.6602V15.0911C51.0598 15.837 51.1588 16.3541 51.3568 16.6325C51.5548 16.911 51.8914 17.0502 52.3666 17.0502C52.7874 17.0502 53.1834 16.8613 53.5546 16.4883C53.9259 16.1154 54.208 15.7176 54.208 15.295V11.6751C54.208 11.4762 54.2773 11.3121 54.4159 11.1778C54.5545 11.0436 54.7228 10.974 54.9208 10.974C55.1188 10.974 55.2822 11.0436 55.4208 11.1778C55.5594 11.3121 55.6237 11.4811 55.6237 11.6751V17.3336C55.6237 17.5126 55.5594 17.6668 55.4307 17.801C55.302 17.9303 55.1436 17.995 54.9654 17.995C54.7872 17.995 54.6288 17.9303 54.4951 17.801C54.3615 17.6718 54.2872 17.5176 54.2823 17.3336V17.1298C54.2823 17.1298 54.2823 17.1149 54.2674 17.1149C54.2526 17.1149 54.2476 17.1149 54.2427 17.1298C53.6041 17.7961 52.7874 18.1292 51.9706 18.1292L51.9558 18.1342Z" fill="#221E1F"/>
<path id="Vector_8" d="M58.366 20.4414C58.2274 20.5757 58.0591 20.6453 57.8611 20.6453C57.6631 20.6453 57.4998 20.5757 57.3612 20.4414C57.2275 20.3072 57.1582 20.1381 57.1582 19.9442V11.6403C57.1582 11.4613 57.2226 11.3072 57.3513 11.1729C57.48 11.0436 57.6334 10.979 57.8166 10.979C57.9997 10.979 58.1532 11.0436 58.2868 11.1729C58.4205 11.3022 58.4947 11.4613 58.4997 11.6403V11.8442C58.4997 11.8442 58.4997 11.8591 58.5145 11.8591C58.5294 11.8591 58.5343 11.8591 58.5393 11.8442C58.8709 11.4762 59.1976 11.2177 59.5194 11.0685C59.8411 10.9193 60.2173 10.8447 60.648 10.8447C61.4994 10.8447 62.1825 11.163 62.6973 11.8044C63.2121 12.4458 63.4695 13.3409 63.4695 14.4945C63.4695 15.648 63.2022 16.4983 62.6676 17.1547C62.133 17.811 61.4598 18.1392 60.643 18.1392C59.8263 18.1392 59.163 17.8508 58.5987 17.274C58.5888 17.2641 58.5789 17.2591 58.5739 17.2591C58.569 17.2591 58.5591 17.2591 58.5591 17.274V19.9442C58.5591 20.1431 58.4898 20.3072 58.3512 20.4414H58.366ZM58.5739 13.4751V15.4989C58.5739 15.9116 58.7472 16.2746 59.0937 16.5878C59.4402 16.8961 59.851 17.0552 60.3262 17.0552C60.8658 17.0552 61.2915 16.8414 61.6033 16.4088C61.9152 15.9762 62.0736 15.3398 62.0736 14.4895C62.0736 12.779 61.4895 11.9237 60.3262 11.9237C59.851 11.9237 59.4402 12.0779 59.0937 12.3911C58.7472 12.6994 58.5739 13.0624 58.5739 13.4801V13.4751Z" fill="#221E1F"/>
</g>
<g id="Group_2">
<path id="Vector_9" d="M66.8347 18.9795C66.607 18.9795 66.409 18.8949 66.2407 18.7259C66.0724 18.5568 65.9883 18.3579 65.9883 18.1292V8.92035C65.9883 8.69162 66.0724 8.49272 66.2407 8.32366C66.409 8.1546 66.607 8.07007 66.8347 8.07007H67.5624C68.1267 8.07007 68.5375 8.31869 68.7999 8.81592L71.9233 14.7529C71.9233 14.7529 71.9233 14.7679 71.9382 14.7679C71.953 14.7679 71.953 14.7679 71.953 14.7529V8.92035C71.953 8.69162 72.0372 8.49272 72.2055 8.32366C72.3738 8.1546 72.5718 8.07007 72.7995 8.07007H73.5271C73.7548 8.07007 73.9528 8.1546 74.1211 8.32366C74.2894 8.49272 74.3736 8.69162 74.3736 8.92035V18.1292C74.3736 18.3579 74.2894 18.5568 74.1211 18.7259C73.9528 18.8949 73.7548 18.9795 73.5271 18.9795H72.7995C72.2352 18.9795 71.8243 18.7308 71.562 18.2336L68.4385 12.2966C68.4385 12.2966 68.4336 12.2817 68.4237 12.2817C68.4138 12.2817 68.4088 12.2866 68.4088 12.2966V18.1292C68.4088 18.3579 68.3247 18.5568 68.1564 18.7259C67.9881 18.8949 67.7901 18.9795 67.5624 18.9795H66.8347Z" fill="#221E1F"/>
<path id="Vector_10" d="M76.2838 18.9795C76.0561 18.9795 75.8581 18.8949 75.6948 18.7259C75.5314 18.5568 75.4473 18.3579 75.4473 18.1292V8.92035C75.4473 8.69162 75.5314 8.49272 75.6948 8.32366C75.8581 8.1546 76.0561 8.07007 76.2838 8.07007H81.9367C82.1644 8.07007 82.3624 8.1546 82.5258 8.32366C82.6891 8.49272 82.7733 8.69162 82.7733 8.92035V9.26344C82.7733 9.49217 82.6891 9.69106 82.5258 9.86012C82.3624 10.0292 82.1644 10.1137 81.9367 10.1137H78.1005C78.0213 10.1137 77.9817 10.1535 77.9817 10.2331V12.2071C77.9817 12.2966 78.0213 12.3413 78.1005 12.3413H81.2536C81.4813 12.3413 81.6793 12.4259 81.8427 12.5949C82.006 12.764 82.0902 12.9629 82.0902 13.1916V13.4154C82.0902 13.6441 82.006 13.843 81.8427 14.0121C81.6793 14.1811 81.4813 14.2656 81.2536 14.2656H78.1005C78.0213 14.2656 77.9817 14.3054 77.9817 14.385V16.8065C77.9817 16.8861 78.0213 16.9259 78.1005 16.9259H81.9021C82.1298 16.9259 82.3278 17.0104 82.4911 17.1795C82.6545 17.3485 82.7386 17.5474 82.7386 17.7761V18.1192C82.7386 18.348 82.6545 18.5469 82.4911 18.7159C82.3278 18.885 82.1298 18.9695 81.9021 18.9695H76.2838V18.9795Z" fill="#221E1F"/>
<path id="Vector_11" d="M86.8283 14.6138C85.576 14.216 84.6751 13.7188 84.1207 13.1271C83.5663 12.5354 83.2891 11.8094 83.2891 10.9541C83.2891 10.0193 83.6158 9.27845 84.2642 8.73148C84.9127 8.1895 85.8433 7.91602 87.056 7.91602C87.9668 7.91602 88.7984 8.02044 89.5409 8.22927C89.7785 8.29889 89.9716 8.44309 90.1151 8.6569C90.2587 8.87071 90.3329 9.10939 90.3329 9.36795V9.80055C90.3329 9.99944 90.2488 10.1536 90.0805 10.263C89.9122 10.3724 89.734 10.3923 89.5459 10.3226C88.7044 10.0243 87.9223 9.87513 87.2095 9.87513C86.2987 9.87513 85.8383 10.2331 85.8383 10.9541C85.8383 11.5608 86.2343 11.9934 87.0313 12.2569C88.4024 12.6746 89.3528 13.1619 89.8825 13.7238C90.4121 14.2807 90.6794 15.0166 90.6794 15.9215C90.6794 18.0646 89.333 19.1337 86.6452 19.1337C85.7938 19.1337 85.0166 18.9994 84.3236 18.7309C84.086 18.6414 83.8979 18.4823 83.7643 18.2586C83.6306 18.0348 83.5613 17.7862 83.5613 17.5177V17.0403C83.5613 16.8613 83.6405 16.7221 83.7989 16.6276C83.9573 16.5331 84.1157 16.5232 84.2741 16.6028C84.9968 16.9608 85.7393 17.1398 86.4917 17.1398C87.0164 17.1398 87.4174 17.0354 87.6896 16.8315C87.9619 16.6276 88.1005 16.3342 88.1005 15.9563C88.1005 15.6282 88.0064 15.3597 87.8183 15.1508C87.6302 14.942 87.3035 14.763 86.8382 14.6138H86.8283Z" fill="#221E1F"/>
<path id="Vector_12" d="M91.5164 10.1734C91.2887 10.1734 91.0907 10.0889 90.9224 9.91979C90.7541 9.75073 90.6699 9.55184 90.6699 9.32311V8.92035C90.6699 8.69162 90.7541 8.49272 90.9224 8.32366C91.0907 8.1546 91.2887 8.07007 91.5164 8.07007H98.1543C98.382 8.07007 98.58 8.1546 98.7483 8.32366C98.9166 8.49272 99.0008 8.69162 99.0008 8.92035V9.32311C99.0008 9.55184 98.9166 9.75073 98.7483 9.91979C98.58 10.0889 98.382 10.1734 98.1543 10.1734H96.2486C96.1694 10.1734 96.1298 10.2132 96.1298 10.2927V18.1292C96.1298 18.3579 96.0456 18.5568 95.8773 18.7259C95.709 18.8949 95.511 18.9795 95.2833 18.9795H94.3923C94.1646 18.9795 93.9666 18.8949 93.7983 18.7259C93.63 18.5568 93.5459 18.3579 93.5459 18.1292V10.2927C93.5459 10.2132 93.5063 10.1734 93.4271 10.1734H91.5213H91.5164Z" fill="#221E1F"/>
</g>
<path id="Vector_13" d="M7.11721 5.27062L9.40906 7.52808C10.5228 8.622 12.3989 7.83139 12.3989 6.2651V1.77007C12.3989 0.20377 10.5228 -0.586838 9.40906 0.507085L7.11721 2.76454C6.41926 3.4557 6.41926 4.58443 7.11721 5.27559V5.27062Z" fill="#EC008C"/>
<path id="Vector_14" d="M10.3695 24.2403L8.07769 26.4978C6.96394 27.5917 5.08789 26.8011 5.08789 25.2348V20.7398C5.08789 19.1735 6.96394 18.3829 8.07769 19.4768L10.3695 21.7343C11.0675 22.4254 11.0675 23.5542 10.3695 24.2453V24.2403Z" fill="#38B549"/>
<path id="Vector_15" d="M11.3945 11.168L6.26628 16.2149C6.03363 16.4437 6.03363 16.8265 6.26628 17.0553L11.3945 22.1022C11.7657 22.4702 12.3944 22.2017 12.3944 21.6796V11.5956C12.3944 11.0735 11.7657 10.805 11.3945 11.1729V11.168Z" fill="#F7941C"/>
<path id="Vector_16" d="M0.172534 9.91005C-0.0601156 10.1388 -0.0601156 10.5117 0.172534 10.7404L5.08788 15.5736V5.0769L0.172534 9.91005Z" fill="#27AAE1"/>
<path id="Vector_17" d="M11.2209 10.7405C11.4536 10.5117 11.4536 10.1388 11.2209 9.91007L6.10264 4.87802C5.87494 4.65427 5.51854 4.65427 5.29084 4.87802L5.08789 5.07692V15.5736L5.29084 15.7725C5.51854 15.9963 5.87494 15.9963 6.10264 15.7725L11.2209 10.7405Z" fill="#662C91"/>
</g>
<defs>
<clipPath id="clip0_1271_20546">
<rect width="99" height="27" fill="white"/>
</clipPath>
</defs>
</svg>
