<svg width="226" height="27" viewBox="0 0 226 27" fill="none" xmlns="http://www.w3.org/2000/svg">
<g id="_&#235;&#160;&#136;&#236;&#157;&#180;&#236;&#150;&#180;_1" clip-path="url(#clip0_1271_20635)">
<path id="Vector" d="M55.2756 3.80908H51.5856V11.899H36.5106V3.80908H32.8206C31.9544 3.80908 31.2344 4.52818 31.2344 5.40459V22.4945C31.2344 23.3709 31.9431 24.09 32.8206 24.09H36.5106V15.4046H51.5856V24.09H55.2756C56.1531 24.09 56.8619 23.3709 56.8619 22.4945V5.40459C56.8619 4.52818 56.1644 3.80908 55.2756 3.80908Z" fill="#3E68E6"/>
<path id="Vector_2" d="M25.0925 3.80908H21.4025V19.3372L10.31 6.93268C8.465 5.12369 7.19375 3.80908 4.2575 3.80908H0.5V22.4945C0.5 23.3709 1.20875 24.09 2.08625 24.09H5.77625V8.48324L16.9362 20.8091C18.815 22.663 20.5025 24.09 23.2362 24.09H26.6788V5.40459C26.6788 4.52818 25.97 3.80908 25.0925 3.80908Z" fill="#3E68E6"/>
<path id="Vector_3" d="M64.457 8.82015H71.1508V10.4269H66.3695V16.5954H67.787C68.6758 16.5954 69.5533 16.528 70.4083 16.3932C71.2745 16.2584 72.062 16.1235 72.7933 15.9887V17.5505C72.4558 17.6404 72.0733 17.7303 71.6458 17.8089C71.207 17.8876 70.757 17.955 70.2733 18.0224C69.7895 18.0786 69.3058 18.1235 68.7995 18.1572C68.2933 18.1909 67.8208 18.2022 67.3595 18.2022H64.457V8.82015ZM73.3445 7.65161H75.2233V21.6628H73.3445V7.65161Z" fill="#93A7E6"/>
<path id="Vector_4" d="M82.7255 13.8089C83.1868 14.4606 83.7043 15.0786 84.2668 15.6404C84.8293 16.2022 85.4593 16.719 86.1568 17.1797L84.8518 18.528C84.2218 18.0786 83.6593 17.5842 83.1643 17.0561C82.6693 16.528 82.1855 15.955 81.7355 15.337C81.1955 16.0673 80.5993 16.7303 79.9468 17.337C79.283 17.9437 78.5855 18.4831 77.8318 18.9325L76.5605 17.7078C77.438 17.2022 78.2143 16.6291 78.878 15.9999C79.5418 15.3595 80.1043 14.719 80.5543 14.0673C81.0043 13.4157 81.3643 12.764 81.6118 12.1348C81.8593 11.4943 82.0055 10.9325 82.0618 10.4269C81.5668 10.4494 81.0718 10.4606 80.588 10.4606H77.5393V8.85386H79.913C80.5543 8.85386 81.2068 8.85386 81.8818 8.85386C82.5568 8.85386 83.3218 8.84262 84.188 8.83139C84.1655 9.68532 84.0305 10.5393 83.783 11.3819C83.5355 12.2246 83.1868 13.0336 82.748 13.8202L82.7255 13.8089ZM86.393 7.65161H88.2718V21.6628H86.393V7.65161Z" fill="#93A7E6"/>
<path id="Vector_5" d="M93.132 14.528H90.4883V8.1797H96.6308V9.65161H92.3895V10.6067H96.4283V12.0224H92.3895V13.101H93.582C94.3583 13.101 95.1458 13.0561 95.9445 12.9774C96.7433 12.8876 97.5983 12.764 98.5208 12.5954V13.9887C97.6433 14.1909 96.7658 14.337 95.877 14.4157C94.9995 14.5055 94.077 14.5392 93.132 14.5392V14.528ZM101.592 21.5168H92.3558V17.6965H99.4545V16.9437H92.3558V15.4157H101.322V19.1909H94.1895V19.9887H101.592V21.5168ZM97.317 11.719V10.3033H99.432V7.66284H101.311V14.8314H99.432V11.7303H97.317V11.719Z" fill="#93A7E6"/>
<g id="Group">
<path id="Vector_6" d="M115.386 6.39332H110.469C108.276 6.39332 106.498 8.01129 106.498 10.0001V19.2023C106.498 21.1911 108.276 22.809 110.469 22.809H115.386C117.579 22.809 119.357 21.1911 119.357 19.2023V17.1124C119.357 16.7192 119.008 16.3933 118.569 16.3933H115.982V18.8652C115.982 19.5394 115.374 20.0899 114.632 20.0899H111.223C110.481 20.0899 109.873 19.5394 109.873 18.8652V10.3259C109.873 9.65174 110.481 9.10118 111.223 9.10118H114.632C115.374 9.10118 115.982 9.65174 115.982 10.3259V12.7416H118.569C119.008 12.7416 119.357 12.427 119.357 12.0225V9.98882C119.357 8.00006 117.579 6.38208 115.386 6.38208V6.39332Z" fill="#33369E"/>
<path id="Vector_7" d="M130.011 9.88773H126.827C125.612 9.88773 124.622 10.7866 124.622 11.8877V4.82031H122.271C121.742 4.82031 121.314 5.21357 121.314 5.68548V21.9327C121.314 22.4158 121.742 22.7978 122.271 22.7978H124.622V14.1686C124.622 13.3372 125.364 12.663 126.276 12.663H129.021C129.696 12.663 130.247 13.1574 130.247 13.7754V22.7978H132.598C133.127 22.7978 133.554 22.4046 133.554 21.9327V13.1124C133.554 11.3372 131.968 9.88773 129.999 9.88773H130.011Z" fill="#33369E"/>
<path id="Vector_8" d="M183.999 9.88774H180.815C179.6 9.88774 178.61 10.7866 178.61 11.8877V9.79785H176.259C175.73 9.79785 175.303 10.1911 175.303 10.663V21.9327C175.303 22.4158 175.73 22.7979 176.259 22.7979H178.61V14.1686C178.61 13.3372 179.353 12.663 180.264 12.663H183.009C183.684 12.663 184.235 13.1574 184.235 13.7754V22.7979H186.586C187.115 22.7979 187.543 22.4046 187.543 21.9327V13.1125C187.543 11.3372 185.956 9.88774 183.988 9.88774H183.999Z" fill="#33369E"/>
<path id="Vector_9" d="M139.18 9.80908C137.144 9.80908 135.49 11.3035 135.49 13.1574V19.4383C135.49 21.2922 137.144 22.7866 139.18 22.7866H142.139C143.309 22.7866 144.254 21.9327 144.254 20.8653V22.7866H146.718C147.246 22.7866 147.685 22.3934 147.685 21.9102V9.80908H139.18ZM144.254 18.4945C144.254 19.3709 143.466 20.0787 142.499 20.0787H140.125C139.36 20.0787 138.741 19.5169 138.741 18.8203V13.7529C138.741 13.0563 139.36 12.4945 140.125 12.4945H144.254V18.4832V18.4945Z" fill="#33369E"/>
<path id="Vector_10" d="M150.059 5.68549V21.9102C150.059 22.3934 150.497 22.7866 151.026 22.7866H153.389V4.80908H151.026C150.486 4.80908 150.059 5.20234 150.059 5.68549Z" fill="#33369E"/>
<path id="Vector_11" d="M158.282 4.80908H155.92V22.7866H158.282C158.822 22.7866 159.25 22.3934 159.25 21.9102V5.68549C159.25 5.20234 158.811 4.80908 158.282 4.80908Z" fill="#33369E"/>
<path id="Vector_12" d="M169.509 9.83155H165.257C163.119 9.83155 161.387 11.4046 161.387 13.3372V19.281C161.387 21.2136 163.119 22.7866 165.257 22.7866H172.378C172.929 22.7866 173.368 22.3821 173.368 21.8877V20.1349H165.954C165.29 20.1349 164.762 19.6518 164.762 19.045V17.6967H172.389C172.94 17.6967 173.379 17.2922 173.379 16.7978V13.3259C173.379 11.3933 171.647 9.82031 169.509 9.82031V9.83155ZM170.072 15.5394H164.762V13.6518C164.762 13.0338 165.313 12.5394 165.988 12.5394H168.834C169.509 12.5394 170.06 13.0338 170.06 13.6518V15.5394H170.072Z" fill="#33369E"/>
<path id="Vector_13" d="M214.645 17.7079C215.196 17.7079 215.635 17.3035 215.635 16.8091V13.3372C215.635 11.4046 213.903 9.83154 211.765 9.83154H207.513C205.375 9.83154 203.643 11.4046 203.643 13.3372V19.281C203.643 21.2136 205.375 22.7866 207.513 22.7866H214.634C215.185 22.7866 215.624 22.3821 215.624 21.8877V20.1349H208.21C207.546 20.1349 207.018 19.6518 207.018 19.045V17.6967H214.645V17.7079ZM207.029 13.6518C207.029 13.0338 207.58 12.5394 208.255 12.5394H211.101C211.776 12.5394 212.328 13.0338 212.328 13.6518V15.5394H207.018V13.6518H207.029Z" fill="#33369E"/>
<path id="Vector_14" d="M193.213 9.80909C191.177 9.80909 189.523 11.3035 189.523 13.1574V18.7979C189.523 20.6518 191.177 22.1462 193.213 22.1462H196.172C197.342 22.1462 198.287 21.2922 198.287 20.2248V23.1686C198.287 23.7641 197.758 24.2473 197.106 24.2473H190.378V26.0787C190.378 26.5844 190.828 26.9889 191.38 26.9889H197.848C199.986 26.9889 201.718 25.4158 201.718 23.472V9.79785H193.213V9.80909ZM198.287 17.854C198.287 18.7304 197.5 19.4383 196.532 19.4383H194.158C193.393 19.4383 192.775 18.8765 192.775 18.1799V13.7529C192.775 13.0563 193.393 12.4945 194.158 12.4945H198.287V17.8428V17.854Z" fill="#33369E"/>
</g>
<path id="Vector_15" d="M225.499 4.32584H221.764V0H219.368V4.32584H215.633V6.7191H219.368V11.0562H221.764V6.7191H225.499V4.32584Z" fill="#00D664"/>
</g>
<defs>
<clipPath id="clip0_1271_20635">
<rect width="225" height="27" fill="white" transform="translate(0.5)"/>
</clipPath>
</defs>
</svg>
