<svg width="64" height="27" viewBox="0 0 64 27" fill="none" xmlns="http://www.w3.org/2000/svg">
<g id="_&#235;&#160;&#136;&#236;&#157;&#180;&#236;&#150;&#180;_1" clip-path="url(#clip0_1271_20341)">
<path id="Vector" d="M62.1978 0H58.009V10.7656H40.8922V0H36.7034C35.7146 0 34.9082 0.949157 34.9082 2.12445V24.8724C34.9082 26.0413 35.7114 26.9968 36.7034 26.9968H40.8922V15.4381H58.009V26.9968H62.1978C63.1898 26.9968 63.9994 26.0381 63.9994 24.8724V2.12445C63.9994 0.949157 63.2026 0 62.1978 0Z" fill="#0958A6"/>
<path id="Vector_2" d="M27.9232 0H23.7344V20.6712L11.1424 4.15973C9.0496 1.74861 7.6096 0 4.2688 0H0V24.8724C0 26.0413 0.8032 26.9968 1.8048 26.9968H5.9904V6.23003L18.6592 22.6301C20.7968 25.0953 22.7072 27 25.808 27H29.7216V2.12445C29.7216 0.949157 28.9184 0 27.9264 0H27.92H27.9232Z" fill="#0958A6"/>
</g>
<defs>
<clipPath id="clip0_1271_20341">
<rect width="64" height="27" fill="white"/>
</clipPath>
</defs>
</svg>
