<svg width="169" height="27" viewBox="0 0 169 27" fill="none" xmlns="http://www.w3.org/2000/svg">
<g id="_&#235;&#160;&#136;&#236;&#157;&#180;&#236;&#150;&#180;_1" clip-path="url(#clip0_1271_20437)">
<path id="Vector" d="M6.3882 9.20789H6.4389C7.74865 7.6395 9.11755 7.1167 10.9174 7.1167C14.4072 7.1167 15.4466 9.30908 14.9396 12.488L13.6721 20.4902H9.06685L10.0639 14.1829C10.2583 12.9434 10.8076 10.7763 8.5345 10.7763C6.66705 10.7763 5.915 12.1592 5.6615 13.7782L4.5968 20.4902H0L2.05335 7.54674H6.6586L6.39665 9.20789H6.3882Z" fill="#003E7F"/>
<path id="Vector_2" d="M24.4381 2.57183C24.2184 3.98001 22.8664 5.14366 21.4468 5.14366C20.0272 5.14366 19.0554 3.98001 19.2751 2.57183C19.4948 1.16365 20.8468 0 22.2664 0C23.686 0 24.6578 1.16365 24.4381 2.57183Z" fill="#C8161D"/>
<path id="Vector_3" d="M21.337 20.4818H16.7402L18.7936 7.53833H23.3904L21.337 20.4818Z" fill="#003E7F"/>
<path id="Vector_4" d="M27.7745 26.9409H23.1777L26.2451 7.53833H30.8503L27.783 26.9409H27.7745Z" fill="#003E7F"/>
<path id="Vector_5" d="M50.4041 20.4818H45.7988L47.8522 7.53833H52.4574L50.4041 20.4818Z" fill="#003E7F"/>
<path id="Vector_6" d="M44.3459 7.08301C42.4362 7.08301 40.5772 7.86721 39.1238 9.13204C39.1238 9.13204 36.9268 10.8522 36.3522 13.8457C36.3437 13.8962 36.3268 13.9468 36.3268 13.9974C36.3184 14.048 36.3184 14.0986 36.3015 14.1492C35.9804 15.6586 34.527 16.8813 32.9891 16.8813C31.4512 16.8813 30.3104 15.5827 30.5639 13.9974C30.809 12.4206 32.3215 11.122 33.9101 11.122C34.7382 11.122 35.4396 11.4846 35.8705 12.0496C36.5803 10.0849 37.9492 8.86221 38.4478 8.45746C37.4338 7.59737 36.0818 7.09144 34.5439 7.09144C30.7414 7.09144 27.1248 10.2114 26.5248 13.9974C25.9249 17.7919 28.5528 20.9034 32.3553 20.9034C34.265 20.9034 36.124 20.1192 37.5774 18.8544C39.8505 17.0752 40.3575 14.1071 40.3575 14.1071C40.3575 14.0649 40.3744 14.0312 40.3828 13.989C40.3828 13.9553 40.3913 13.9131 40.3997 13.871C40.7039 12.3447 42.1742 11.1136 43.7121 11.1136C45.25 11.1136 46.3908 12.4122 46.1373 13.989C45.8922 15.5658 44.3797 16.8728 42.7911 16.8728C41.963 16.8728 41.2701 16.5102 40.8307 15.9453C40.5772 16.6705 39.8589 18.3063 38.2534 19.5374C39.2674 20.3975 40.6194 20.9034 42.1489 20.9034C45.9514 20.9034 49.568 17.7835 50.1764 13.9974C50.7763 10.2029 48.1484 7.09144 44.3459 7.09144V7.08301Z" fill="url(#paint0_linear_1271_20437)"/>
<path id="Vector_7" d="M59.6748 21.6455H60.7226L62.2436 24.0909H62.252L62.6407 21.6455H63.6885L63.0548 25.6424H62.007L60.486 23.197H60.4775L60.0888 25.6424H59.041L59.6748 21.6455Z" fill="#717171"/>
<path id="Vector_8" d="M66.6796 25.6423H65.7079L65.7586 25.3387H65.7501C65.5389 25.6086 65.184 25.7266 64.8629 25.7266C64.0517 25.7266 63.5954 25.052 63.7221 24.2763C63.8404 23.5005 64.508 22.8259 65.3192 22.8259C65.6318 22.8259 65.9445 22.944 66.105 23.1801L66.1473 22.9187H67.119L66.6881 25.6423H66.6796ZM64.7192 24.2847C64.6685 24.6304 64.8544 24.8918 65.2431 24.8918C65.6318 24.8918 65.9022 24.6304 65.9614 24.2847C66.0121 23.9558 65.8262 23.6692 65.4375 23.6692C65.0488 23.6692 64.7699 23.9474 64.7192 24.2847Z" fill="#717171"/>
<path id="Vector_9" d="M68.3767 25.6424H67.4049L67.7091 23.7198H67.3965L67.5232 22.9188H67.8359L67.9711 22.1008H68.9428L68.8161 22.9188H69.3653L69.2386 23.7198H68.6893L68.3851 25.6424H68.3767Z" fill="#717171"/>
<path id="Vector_10" d="M70.2022 25.6424H69.2305L69.6614 22.9188H70.6332L70.2022 25.6424ZM70.8613 21.8732C70.8106 22.1683 70.5318 22.4128 70.2276 22.4128C69.9234 22.4128 69.7206 22.1683 69.7713 21.8732C69.822 21.578 70.1008 21.3335 70.405 21.3335C70.7092 21.3335 70.912 21.578 70.8613 21.8732Z" fill="#717171"/>
<path id="Vector_11" d="M74.1395 24.2848C73.9874 25.2124 73.1424 25.7352 72.2721 25.7352C71.4017 25.7352 70.7173 25.2208 70.8609 24.2848C71.013 23.3573 71.858 22.8345 72.7284 22.8345C73.5987 22.8345 74.2832 23.3573 74.1395 24.2848ZM71.8749 24.2848C71.8242 24.6305 72.0101 24.8919 72.3988 24.8919C72.7875 24.8919 73.0579 24.6305 73.1171 24.2848C73.1678 23.956 72.9819 23.6693 72.5932 23.6693C72.2045 23.6693 71.9256 23.9475 71.8749 24.2848Z" fill="#717171"/>
<path id="Vector_12" d="M75.7042 23.2729H75.7127C75.9915 22.9441 76.2704 22.8345 76.6591 22.8345C77.3942 22.8345 77.6139 23.2982 77.5041 23.9644L77.2421 25.6424H76.2704L76.4816 24.3185C76.5239 24.0571 76.6337 23.6018 76.1605 23.6018C75.7718 23.6018 75.6113 23.8885 75.5606 24.2342L75.3409 25.6424H74.3691L74.8001 22.9188H75.7718L75.7211 23.2645L75.7042 23.2729Z" fill="#717171"/>
<path id="Vector_13" d="M80.8493 25.6423H79.8775L79.9282 25.3387H79.9198C79.7085 25.6086 79.3536 25.7266 79.0325 25.7266C78.2298 25.7266 77.765 25.052 77.8918 24.2763C78.0101 23.5005 78.6776 22.8259 79.4888 22.8259C79.8015 22.8259 80.1141 22.944 80.2747 23.1801L80.3169 22.9187H81.2802L80.8493 25.6423ZM78.8889 24.2847C78.8382 24.6304 79.0241 24.8918 79.4128 24.8918C79.8015 24.8918 80.0719 24.6304 80.131 24.2847C80.1817 23.9558 79.9958 23.6692 79.6071 23.6692C79.2184 23.6692 78.9396 23.9474 78.8889 24.2847Z" fill="#717171"/>
<path id="Vector_14" d="M82.4639 25.6423H81.4922L82.1935 21.2407H83.1653L82.4639 25.6423Z" fill="#717171"/>
<path id="Vector_15" d="M85.9873 25.6424H84.9395L85.5732 21.6455H86.621L85.9873 25.6424Z" fill="#717171"/>
<path id="Vector_16" d="M88.2516 25.6425H87.2038L87.6939 22.5226H86.832L86.9672 21.6372H89.7304L89.5952 22.5226H88.7333L88.2432 25.6425H88.2516Z" fill="#717171"/>
<path id="Vector_17" d="M92.3584 25.6424H91.3105L91.9443 21.6455H92.9921L92.3584 25.6424Z" fill="#717171"/>
<path id="Vector_18" d="M94.3605 23.2729H94.3689C94.6478 22.9441 94.9351 22.8345 95.3153 22.8345C96.0505 22.8345 96.2702 23.2982 96.1603 23.9644L95.8984 25.6424H94.9266L95.1379 24.3185C95.1801 24.0571 95.29 23.6018 94.8168 23.6018C94.4281 23.6018 94.2675 23.8885 94.2168 24.2342L93.9971 25.6424H93.0254L93.4563 22.9188H94.4196L94.3689 23.2645L94.3605 23.2729Z" fill="#717171"/>
<path id="Vector_19" d="M98.6275 25.3389H98.619C98.4078 25.6087 98.0529 25.7268 97.7318 25.7268C96.929 25.7268 96.4643 25.0522 96.591 24.2765C96.7093 23.5007 97.3769 22.8261 98.1881 22.8261C98.5007 22.8261 98.8134 22.9442 98.9739 23.1803L99.2781 21.2324H100.25L99.5485 25.634H98.5768L98.6275 25.3305V25.3389ZM97.5881 24.2849C97.5374 24.6306 97.7233 24.892 98.112 24.892C98.5007 24.892 98.7711 24.6306 98.8303 24.2849C98.881 23.956 98.6951 23.6693 98.3064 23.6693C97.9177 23.6693 97.6388 23.9476 97.5881 24.2849Z" fill="#717171"/>
<path id="Vector_20" d="M101.535 22.9187L101.299 24.369C101.248 24.7148 101.29 24.9593 101.687 24.9593C102.084 24.9593 102.211 24.7148 102.262 24.369L102.49 22.9187H103.462L103.2 24.5546C103.056 25.4484 102.38 25.7266 101.561 25.7266C100.741 25.7266 100.149 25.4484 100.293 24.5546L100.555 22.9187H101.527H101.535Z" fill="#717171"/>
<path id="Vector_21" d="M105.776 23.6186C105.641 23.5427 105.447 23.4836 105.278 23.4836C105.168 23.4836 104.974 23.5342 104.948 23.6692C104.923 23.8547 105.219 23.88 105.345 23.9053C105.785 23.998 106.089 24.2088 106.004 24.7147C105.886 25.4315 105.185 25.7266 104.56 25.7266C104.171 25.7266 103.807 25.617 103.512 25.4146L103.976 24.74C104.154 24.875 104.458 25.0183 104.695 25.0183C104.813 25.0183 105.007 24.9593 105.024 24.8159C105.058 24.6051 104.754 24.5967 104.467 24.5124C104.179 24.4365 103.9 24.2847 103.976 23.7956C104.086 23.1295 104.737 22.8259 105.328 22.8259C105.633 22.8259 105.937 22.8765 106.199 23.003L105.776 23.6186Z" fill="#717171"/>
<path id="Vector_22" d="M107.441 25.6424H106.469L106.774 23.7198H106.461L106.588 22.9188H106.9L107.027 22.1008H107.999L107.864 22.9188H108.413L108.286 23.7198H107.737L107.433 25.6424H107.441Z" fill="#717171"/>
<path id="Vector_23" d="M109.621 23.3656H109.629C109.866 23.0368 110.212 22.885 110.584 22.885H110.77L110.618 23.8126C110.5 23.7367 110.373 23.7198 110.229 23.7198C109.697 23.7198 109.503 24.074 109.427 24.5377L109.249 25.6339H108.277L108.708 22.9103H109.68L109.612 23.3572L109.621 23.3656Z" fill="#717171"/>
<path id="Vector_24" d="M110.948 22.9187H112.064L112.571 24.3185L113.5 22.9187H114.599L111.768 26.9915H110.678L111.878 25.2629L110.931 22.9187H110.948Z" fill="#717171"/>
<path id="Vector_25" d="M116.864 21.6455H118.461C119.323 21.6455 119.856 22.0418 119.703 22.9609C119.551 23.9053 118.977 24.3185 118.073 24.3185H117.481L117.27 25.6424H116.23L116.864 21.6455ZM117.616 23.4753H117.794C118.174 23.4753 118.537 23.4753 118.622 22.9862C118.698 22.4803 118.36 22.4803 117.954 22.4803H117.777L117.616 23.4753Z" fill="#717171"/>
<path id="Vector_26" d="M121.047 23.3656H121.055C121.292 23.0368 121.638 22.885 122.01 22.885H122.196L122.044 23.8126C121.925 23.7367 121.799 23.7198 121.655 23.7198C121.123 23.7198 120.928 24.074 120.852 24.5377L120.675 25.6339H119.703L120.134 22.9103H121.106L121.038 23.3572L121.047 23.3656Z" fill="#717171"/>
<path id="Vector_27" d="M125.331 24.2848C125.179 25.2124 124.334 25.7352 123.463 25.7352C122.593 25.7352 121.909 25.2208 122.052 24.2848C122.204 23.3573 123.049 22.8345 123.928 22.8345C124.807 22.8345 125.483 23.3573 125.339 24.2848H125.331ZM123.066 24.2848C123.016 24.6305 123.202 24.8919 123.59 24.8919C123.979 24.8919 124.249 24.6305 124.308 24.2848C124.359 23.956 124.173 23.6693 123.785 23.6693C123.396 23.6693 123.117 23.9475 123.066 24.2848Z" fill="#717171"/>
<path id="Vector_28" d="M126.894 23.2645H126.902C127.181 22.961 127.477 22.8345 127.832 22.8345C128.22 22.8345 128.541 22.9947 128.677 23.3488C128.913 23.0115 129.31 22.8345 129.682 22.8345C130.375 22.8345 130.544 23.2814 130.443 23.9138L130.164 25.6508H129.192L129.395 24.3523C129.437 24.074 129.522 23.6102 129.116 23.6102C128.668 23.6102 128.584 24.0318 128.533 24.3523L128.33 25.6508H127.358L127.561 24.3523C127.612 24.0487 127.68 23.5934 127.257 23.5934C126.835 23.5934 126.75 24.0571 126.708 24.3523L126.505 25.6508H125.533L125.964 22.9272H126.936L126.885 23.2645H126.894Z" fill="#717171"/>
<path id="Vector_29" d="M134.102 24.2848C133.95 25.2124 133.105 25.7352 132.235 25.7352C131.365 25.7352 130.68 25.2208 130.824 24.2848C130.976 23.3573 131.821 22.8345 132.691 22.8345C133.562 22.8345 134.246 23.3573 134.102 24.2848ZM131.846 24.2848C131.796 24.6305 131.981 24.8919 132.37 24.8919C132.759 24.8919 133.029 24.6305 133.088 24.2848C133.139 23.956 132.953 23.6693 132.565 23.6693C132.176 23.6693 131.897 23.9475 131.846 24.2848Z" fill="#717171"/>
<path id="Vector_30" d="M135.378 25.6424H134.415L134.719 23.7198H134.406L134.533 22.9188H134.846L134.981 22.1008H135.944L135.809 22.9188H136.358L136.231 23.7198H135.682L135.378 25.6424Z" fill="#717171"/>
<path id="Vector_31" d="M137.202 25.6424H136.23L136.661 22.9188H137.633L137.202 25.6424ZM137.861 21.8732C137.811 22.1683 137.532 22.4128 137.228 22.4128C136.923 22.4128 136.721 22.1683 136.771 21.8732C136.822 21.578 137.101 21.3335 137.405 21.3335C137.709 21.3335 137.912 21.578 137.861 21.8732Z" fill="#717171"/>
<path id="Vector_32" d="M141.14 24.2848C140.987 25.2124 140.142 25.7352 139.272 25.7352C138.402 25.7352 137.717 25.2208 137.861 24.2848C138.013 23.3573 138.858 22.8345 139.728 22.8345C140.599 22.8345 141.283 23.3573 141.14 24.2848ZM138.875 24.2848C138.824 24.6305 139.01 24.8919 139.399 24.8919C139.788 24.8919 140.058 24.6305 140.117 24.2848C140.168 23.956 139.982 23.6693 139.593 23.6693C139.204 23.6693 138.926 23.9475 138.875 24.2848Z" fill="#717171"/>
<path id="Vector_33" d="M142.711 23.2729C142.99 22.9441 143.269 22.8345 143.658 22.8345C144.393 22.8345 144.613 23.2982 144.503 23.9644L144.241 25.6424H143.278L143.489 24.3185C143.531 24.0571 143.641 23.6018 143.168 23.6018C142.779 23.6018 142.618 23.8885 142.568 24.2342L142.348 25.6424H141.385L141.816 22.9188H142.787L142.728 23.2645L142.711 23.2729Z" fill="#717171"/>
<path id="Vector_34" d="M147.849 24.9509L147.46 25.6424H146.354L148.534 21.6455H149.674L150.545 25.6424H149.429L149.277 24.9509H147.841H147.849ZM148.897 22.8766H148.889L148.255 24.1499H149.117L148.897 22.8766Z" fill="#717171"/>
<path id="Vector_35" d="M153.874 25.3725C153.688 26.5277 153.046 26.9914 152.041 26.9914C151.415 26.9914 150.63 26.671 150.655 25.9543H151.745C151.753 26.047 151.813 26.1145 151.897 26.1567C151.982 26.1988 152.075 26.2241 152.159 26.2241C152.674 26.2241 152.835 25.8868 152.903 25.4484L152.928 25.3219C152.641 25.5664 152.37 25.6929 151.998 25.6929C151.204 25.6929 150.756 25.0942 150.875 24.3016C151.001 23.5089 151.677 22.8259 152.505 22.8259C152.827 22.8259 153.097 22.9355 153.249 23.2054H153.257L153.3 22.9187H154.272L153.883 25.3725H153.874ZM151.872 24.2678C151.821 24.6136 152.007 24.875 152.396 24.875C152.784 24.875 153.055 24.6136 153.114 24.2678C153.165 23.939 152.979 23.6523 152.59 23.6523C152.201 23.6523 151.922 23.9306 151.872 24.2678Z" fill="#717171"/>
<path id="Vector_36" d="M157.432 24.4449H155.395C155.328 24.8328 155.505 25.0436 155.902 25.0436C156.105 25.0436 156.266 24.9761 156.409 24.7991H157.339C157.085 25.4399 156.426 25.7266 155.801 25.7266C154.897 25.7266 154.305 25.2207 154.457 24.2763C154.601 23.3656 155.311 22.8259 156.198 22.8259C157.145 22.8259 157.601 23.4078 157.449 24.3353L157.432 24.4365V24.4449ZM156.621 23.8884C156.621 23.627 156.401 23.4583 156.147 23.4583C155.869 23.4583 155.607 23.6101 155.505 23.8884H156.629H156.621Z" fill="#717171"/>
<path id="Vector_37" d="M159.021 23.2729H159.029C159.308 22.9441 159.595 22.8345 159.976 22.8345C160.711 22.8345 160.93 23.2982 160.821 23.9644L160.559 25.6424H159.587L159.798 24.3185C159.84 24.0571 159.95 23.6018 159.477 23.6018C159.088 23.6018 158.928 23.8885 158.877 24.2342L158.657 25.6424H157.686L158.116 22.9188H159.088L159.029 23.2645L159.021 23.2729Z" fill="#717171"/>
<path id="Vector_38" d="M163.456 23.8126C163.329 23.703 163.169 23.6187 162.983 23.6187C162.611 23.6187 162.273 23.9054 162.214 24.2764C162.146 24.6643 162.391 24.9425 162.788 24.9425C162.957 24.9425 163.152 24.8751 163.304 24.757L163.177 25.575C162.949 25.6846 162.704 25.7267 162.476 25.7267C161.673 25.7267 161.09 25.1281 161.217 24.3017C161.352 23.4332 162.121 22.8176 162.974 22.8176C163.194 22.8176 163.414 22.8682 163.591 22.9778L163.464 23.7958L163.456 23.8126Z" fill="#717171"/>
<path id="Vector_39" d="M163.795 22.9187H164.911L165.418 24.3185L166.347 22.9187H167.446L164.615 26.9915H163.533L164.733 25.2629L163.787 22.9187H163.778H163.795Z" fill="#717171"/>
<path id="Vector_40" d="M63.8904 11.7967C63.6031 11.5606 63.3749 11.2824 63.2144 10.9619C62.7834 11.4594 62.1919 11.8642 61.4568 12.1593C60.8399 12.4039 60.2484 12.5388 59.6738 12.5641L59.8935 11.198C60.7977 11.0969 61.4906 10.8186 61.9638 10.3633C62.3525 9.99224 62.6144 9.47787 62.7496 8.82859H60.3414L60.5442 7.53003H66.9577L66.7549 8.82859H64.3298C64.2622 9.46944 64.3636 9.97538 64.6424 10.3548C64.9804 10.8102 65.5804 11.0884 66.4423 11.1896L66.2733 12.2605C67.0845 12.3954 67.7267 12.7496 68.183 13.3145C68.6984 13.9301 68.8843 14.6721 68.7576 15.5238C68.6055 16.4935 68.1069 17.2861 67.2619 17.927C66.4676 18.5172 65.6057 18.8124 64.6593 18.8124C63.7129 18.8124 62.944 18.5172 62.3609 17.927C61.7272 17.2946 61.4906 16.4935 61.6427 15.5238C61.7694 14.7143 62.1497 14.0144 62.775 13.4157C63.3665 12.8592 64.0509 12.4882 64.8537 12.3027C64.4903 12.1678 64.1692 11.9991 63.8988 11.7883L63.8904 11.7967ZM64.0256 14.1493C63.5439 14.5288 63.2651 14.9926 63.1806 15.5238C63.0961 16.055 63.2313 16.5104 63.5946 16.8898C63.9411 17.2608 64.372 17.4463 64.8959 17.4463C65.4198 17.4463 65.9184 17.2608 66.3831 16.8898C66.8648 16.5104 67.1436 16.055 67.2281 15.5238C67.3126 14.9841 67.1774 14.5288 66.8141 14.1493C66.4676 13.7952 66.0282 13.6181 65.5043 13.6181C64.9804 13.6181 64.4903 13.7952 64.034 14.1493H64.0256ZM68.7153 9.29237L68.9942 7.53003H70.4645L69.6617 12.5894H68.1914L68.5125 10.5825H66.7634L66.9662 9.28393H68.7153V9.29237Z" fill="#717171"/>
<path id="Vector_41" d="M81.7371 12.2774C81.6864 12.6231 81.5681 12.8676 81.3907 13.0194C81.2301 13.1543 81.002 13.2218 80.6978 13.2218H77.622L77.1319 16.3248H81.7709L81.5681 17.6487H70.8535L71.0563 16.3248H75.6954L76.1855 13.2218H73.0843C72.7886 13.2218 72.5858 13.1543 72.4675 13.0194C72.3492 12.8676 72.3154 12.6147 72.3745 12.2774L73.1266 7.53003H74.5969L74.3603 9.03097H80.7907L81.0273 7.53003H82.4976L81.7456 12.2774H81.7371ZM73.8955 11.9401H80.326L80.5879 10.3127H74.1575L73.8955 11.9401Z" fill="#717171"/>
<path id="Vector_42" d="M90.137 12.0074L90.061 12.4628H94.7L94.5057 13.7192H91.8017C92.0467 13.9806 92.2242 14.2672 92.334 14.5877C92.4523 14.9334 92.4861 15.3044 92.427 15.7007C92.2749 16.6283 91.7932 17.3956 90.9651 18.0027C90.1793 18.5846 89.3089 18.8712 88.3625 18.8712C87.4161 18.8712 86.6472 18.5846 86.0472 18.0027C85.4135 17.3956 85.1684 16.6283 85.3121 15.7007C85.3712 15.3128 85.5149 14.9418 85.743 14.5877C85.9458 14.2757 86.2078 13.989 86.5373 13.7192H83.8164L84.0108 12.4628H88.6329L88.709 12.0074H85.329C85.0332 12.0074 84.8304 11.94 84.7121 11.7882C84.5854 11.628 84.5516 11.3666 84.6023 11.0124L85.1515 7.53833H95.0972L94.9028 8.77787H86.4613L86.3937 9.16575H94.8352L94.6409 10.3631H86.1993L86.1317 10.7679H94.5902L94.3958 11.9905H90.137V12.0074ZM87.6189 14.3094C87.1373 14.6973 86.85 15.1611 86.7655 15.7007C86.681 16.232 86.8162 16.6873 87.1795 17.0752C87.5344 17.4462 87.9907 17.6317 88.54 17.6317C89.0892 17.6317 89.5709 17.4462 90.0525 17.0752C90.5426 16.6873 90.8299 16.232 90.9144 15.7007C90.9989 15.1611 90.8553 14.6973 90.4835 14.3094C90.1286 13.9468 89.6807 13.7613 89.1484 13.7613C88.616 13.7613 88.0921 13.9384 87.6189 14.3094Z" fill="#717171"/>
<path id="Vector_43" d="M101.408 7.53833C101.214 8.75257 101.248 9.68855 101.51 10.3547C101.831 11.1305 102.465 11.5774 103.436 11.7123L103.217 13.112C102.515 13.0699 101.907 12.8928 101.375 12.5639C100.783 12.1929 100.361 11.6617 100.107 10.9871C99.6171 11.6701 99.0002 12.2014 98.2397 12.5808C97.5975 12.9012 96.9553 13.0783 96.3047 13.112L96.5244 11.7207C97.5553 11.5774 98.3327 11.122 98.865 10.3547C99.3129 9.71385 99.634 8.77787 99.8283 7.53833H101.408ZM96.8624 14.4781H98.3327L97.9524 16.8559H106.031L105.828 18.1545H97.1581C96.8708 18.1545 96.6596 18.0871 96.5413 17.9437C96.4145 17.7919 96.3807 17.5558 96.4314 17.2101L96.8624 14.4781ZM105.946 7.53833H107.416L106.276 14.7563H104.805L105.946 7.53833Z" fill="#717171"/>
<path id="Vector_44" d="M113.721 7.53833C113.527 8.75257 113.56 9.68855 113.822 10.3547C114.143 11.1305 114.777 11.5774 115.749 11.7123L115.529 13.112C114.828 13.0699 114.22 12.8928 113.687 12.5639C113.096 12.1929 112.673 11.6617 112.42 10.9871C111.93 11.6701 111.313 12.2014 110.552 12.5808C109.91 12.9012 109.268 13.0783 108.617 13.112L108.837 11.7207C109.868 11.5774 110.645 11.122 111.178 10.3547C111.625 9.71385 111.946 8.77787 112.141 7.53833H113.721ZM109.183 14.4781H110.654L110.273 16.8559H118.352L118.149 18.1545H109.479C109.192 18.1545 108.981 18.0871 108.862 17.9437C108.735 17.7919 108.702 17.5558 108.752 17.2101L109.183 14.4781ZM119.163 11.1305L118.588 14.7563H117.118L118.259 7.53833H119.729L119.366 9.81503H120.861L120.65 11.1389H119.154L119.163 11.1305Z" fill="#717171"/>
<path id="Vector_45" d="M121.646 13.5505H123.091L122.93 14.5793H129.496L129.657 13.5505H131.127L130.544 17.2186C130.493 17.5643 130.366 17.8088 130.189 17.9522C130.028 18.0955 129.8 18.1714 129.513 18.1714H121.807C121.511 18.1714 121.3 18.104 121.181 17.9522C121.055 17.8004 121.021 17.5559 121.071 17.2186L121.654 13.5505H121.646ZM125.854 12.1339C125.229 12.5218 124.57 12.7073 123.877 12.7073C123.057 12.7073 122.39 12.4544 121.866 11.9316C121.308 11.3919 121.097 10.7089 121.232 9.87409C121.367 9.03087 121.79 8.33943 122.516 7.8082C123.201 7.3107 123.953 7.06616 124.773 7.06616C125.482 7.06616 126.082 7.2601 126.589 7.64799C127.113 8.06116 127.4 8.60926 127.443 9.29227H130.299L130.578 7.53837H132.073L131.271 12.5724H129.775L130.088 10.5908H127.215C126.953 11.2317 126.496 11.746 125.846 12.1339H125.854ZM129.302 15.7935H122.736L122.559 16.8813H129.124L129.302 15.7935ZM123.404 8.82007C123.023 9.10676 122.795 9.46092 122.728 9.87409C122.66 10.2957 122.77 10.6499 123.057 10.945C123.336 11.2233 123.674 11.3666 124.088 11.3666C124.502 11.3666 124.908 11.2317 125.271 10.945C125.66 10.6583 125.896 10.2957 125.964 9.87409C126.032 9.45248 125.913 9.09833 125.618 8.82007C125.339 8.55023 124.984 8.41532 124.57 8.41532C124.156 8.41532 123.767 8.55023 123.404 8.82007Z" fill="#717171"/>
<path id="Vector_46" d="M133.815 14.4781H135.285L134.905 16.8559H142.983L142.78 18.1545H134.111C133.823 18.1545 133.612 18.0871 133.494 17.9437C133.367 17.7919 133.333 17.5558 133.384 17.2101L133.815 14.4781ZM140.676 8.82846H138.217C138.082 9.70541 138.15 10.38 138.412 10.8522C138.724 11.4003 139.324 11.7291 140.237 11.8388L140.009 13.2638C139.519 13.2638 138.995 13.1289 138.429 12.8591C137.727 12.5133 137.254 12.058 137.026 11.5099C136.595 12.0664 135.97 12.5133 135.158 12.8506C134.516 13.1205 133.95 13.2554 133.46 13.2722L133.688 11.8472C134.635 11.7376 135.344 11.4087 135.818 10.8606C136.206 10.4053 136.485 9.73071 136.646 8.83689H134.237L134.44 7.53833H140.879L140.676 8.83689V8.82846ZM142.899 7.53833H144.369L143.228 14.7563H141.758L142.899 7.53833Z" fill="#717171"/>
<path id="Vector_47" d="M145.467 13.1712L145.67 11.8726H148.492C148.331 11.6618 148.221 11.4342 148.171 11.1812C148.103 10.9282 148.103 10.6584 148.145 10.3801C148.188 10.1103 148.281 9.84891 148.407 9.60438C148.534 9.37671 148.703 9.15747 148.906 8.94666H146.523L146.717 7.75772H150.875L151.035 6.74585H152.632L152.472 7.75772H156.671L156.477 8.94666H153.967C154.12 9.1406 154.229 9.35141 154.297 9.57908C154.365 9.83205 154.373 10.1019 154.331 10.3801C154.28 10.6668 154.179 10.9367 154.01 11.1981C153.858 11.4426 153.663 11.6703 153.418 11.8726H156.367L156.164 13.1712H153.494C153.782 13.4579 153.993 13.7868 154.111 14.1493C154.246 14.5541 154.272 14.9841 154.204 15.4479C154.044 16.4429 153.52 17.2693 152.632 17.9186C151.804 18.5341 150.892 18.8377 149.903 18.8377C148.914 18.8377 148.036 18.5341 147.385 17.9186C146.692 17.2693 146.43 16.4429 146.582 15.4479C146.658 15.001 146.819 14.5794 147.081 14.1831C147.326 13.8121 147.647 13.4832 148.044 13.1796H145.441H145.45L145.467 13.1712ZM149.1 13.8542C148.559 14.2843 148.238 14.7986 148.145 15.3805C148.052 15.9707 148.213 16.4766 148.61 16.8983C148.999 17.3114 149.497 17.5138 150.097 17.5138C150.697 17.5138 151.255 17.3114 151.762 16.8983C152.303 16.4766 152.624 15.9707 152.708 15.3805C152.801 14.7902 152.641 14.2843 152.244 13.8542C151.863 13.4495 151.373 13.2471 150.773 13.2471C150.173 13.2471 149.616 13.4495 149.092 13.8542H149.1ZM150.258 9.39357C149.911 9.6634 149.709 10.0007 149.641 10.4054C149.573 10.8018 149.675 11.139 149.937 11.4173C150.207 11.704 150.571 11.8473 151.027 11.8473C151.483 11.8473 151.872 11.704 152.227 11.4173C152.573 11.1306 152.784 10.7933 152.844 10.4054C152.911 10.0007 152.81 9.6634 152.548 9.39357C152.286 9.13217 151.931 9.00569 151.475 9.00569C151.018 9.00569 150.604 9.1406 150.258 9.39357Z" fill="#717171"/>
<path id="Vector_48" d="M161.336 12.8423H157.846L158.048 11.5437H159.536C159.291 11.3161 159.105 11.0547 158.986 10.7595C158.877 10.4391 158.851 10.0934 158.91 9.72237C159.037 8.91288 159.46 8.25516 160.186 7.73236C160.862 7.25173 161.614 7.01562 162.451 7.01562C163.288 7.01562 163.896 7.25173 164.394 7.73236C164.944 8.25516 165.155 8.91288 165.028 9.72237C164.969 10.0934 164.834 10.4391 164.606 10.7595C164.403 11.0547 164.141 11.3161 163.828 11.5437H165.544L165.341 12.8423H162.797L162.4 15.3298H160.93L161.327 12.8423H161.336ZM158.513 14.0903H159.958L159.519 16.8476H167.622L167.42 18.1462H158.75C158.463 18.1462 158.251 18.0787 158.133 17.9354C158.006 17.7836 157.972 17.539 158.023 17.1933L158.513 14.0987V14.0903ZM160.981 8.63461C160.617 8.93817 160.406 9.29233 160.347 9.70551C160.279 10.1018 160.381 10.456 160.643 10.768C160.922 11.08 161.285 11.2317 161.733 11.2317C162.181 11.2317 162.561 11.08 162.933 10.768C163.304 10.456 163.516 10.1018 163.575 9.70551C163.642 9.29233 163.541 8.92974 163.271 8.63461C163 8.33105 162.654 8.17927 162.223 8.17927C161.792 8.17927 161.361 8.33105 160.998 8.63461H160.981ZM166.549 13.7192L167.529 7.53842H169L167.673 15.8948H166.203L166.346 14.9841H163.828L164.031 13.7192H166.558H166.549Z" fill="#717171"/>
</g>
<defs>
<linearGradient id="paint0_linear_1271_20437" x1="27.0149" y1="12.9771" x2="50.015" y2="15.0517" gradientUnits="userSpaceOnUse">
<stop offset="0.15" stop-color="#003E7F"/>
<stop offset="0.52" stop-color="#056EB4"/>
<stop offset="0.87" stop-color="#003E7F"/>
</linearGradient>
<clipPath id="clip0_1271_20437">
<rect width="169" height="27" fill="white"/>
</clipPath>
</defs>
</svg>
