<svg width="124" height="27" viewBox="0 0 124 27" fill="none" xmlns="http://www.w3.org/2000/svg">
<g id="_&#235;&#160;&#136;&#236;&#157;&#180;&#236;&#150;&#180;_1" clip-path="url(#clip0_1271_20652)">
<g id="Group">
<path id="Vector" d="M37.3389 11.5703V14.3549C37.3389 14.5155 37.2589 14.5895 37.1052 14.5895H36.1335V11.5703H32.179C32.0868 11.5703 32.0191 11.558 32.0007 11.5148C31.9576 11.4839 31.9453 11.4222 31.9453 11.3357V10.5639H41.5455V11.3357C41.5455 11.4283 41.5209 11.4839 41.5024 11.5148C41.4594 11.558 41.404 11.5703 41.3118 11.5703H37.345H37.3389ZM40.2478 4.59961V7.52003C40.2478 7.91518 40.1556 8.23007 39.9772 8.48321C39.7866 8.74253 39.5406 8.94628 39.2208 9.08212C38.8948 9.2303 38.5197 9.32909 38.1076 9.37848C37.6771 9.4464 37.2159 9.47109 36.7423 9.47109C36.2688 9.47109 35.8075 9.4464 35.3893 9.37848C34.9588 9.33526 34.5898 9.2303 34.2762 9.08212C33.9502 8.94628 33.7042 8.74253 33.5197 8.48321C33.3291 8.23624 33.2368 7.91518 33.2368 7.52003V4.59961H34.4545V5.84681H39.0301V4.59961H40.2478ZM36.7423 8.45852C37.056 8.45852 37.3635 8.44617 37.6525 8.4153C37.9231 8.3906 38.1691 8.33503 38.3721 8.25477C38.575 8.18685 38.7349 8.07571 38.8579 7.93988C38.9686 7.81639 39.024 7.64352 39.024 7.43977V6.85321H34.4484V7.43977C34.4484 7.64352 34.5037 7.81022 34.6267 7.93988C34.7374 8.07571 34.8973 8.18685 35.1003 8.25477C35.3032 8.33503 35.5369 8.3906 35.8198 8.4153C36.0904 8.44617 36.3918 8.45852 36.73 8.45852H36.7423Z" fill="#0052B1"/>
<path id="Vector_2" d="M42.5104 10.1194C42.3751 10.1873 42.2828 10.1626 42.2152 10.0762L41.7539 9.37234C42.1352 9.20564 42.4858 8.98954 42.7994 8.73639C43.1131 8.48942 43.3837 8.21776 43.6112 7.8967C43.8388 7.59416 44.0048 7.25457 44.1401 6.89029C44.2508 6.52601 44.3185 6.14321 44.3185 5.73571V4.62434H45.5485V5.68631C45.5485 6.11851 45.6161 6.51366 45.7637 6.87177C45.899 7.24223 46.0897 7.57564 46.3295 7.85348C46.5571 8.14984 46.8154 8.39681 47.1167 8.60056C47.4119 8.81666 47.701 8.98337 48.0208 9.10068L47.5841 9.82306C47.4919 9.94655 47.3812 9.97125 47.2459 9.90333C46.8277 9.72428 46.4218 9.45261 46.0159 9.11302C45.5977 8.77344 45.2471 8.33507 44.9765 7.79173C44.6813 8.32272 44.3369 8.77344 43.9187 9.15007C43.4882 9.53287 43.027 9.86011 42.5104 10.1133V10.1194ZM44.8966 12.9225C44.8966 13.1016 44.9273 13.2498 45.0073 13.3424C45.0749 13.435 45.1856 13.4906 45.3701 13.5091C45.6284 13.54 45.8683 13.5647 46.0712 13.5894C46.2742 13.5894 46.5079 13.6017 46.7785 13.6017C47.375 13.6017 47.9716 13.5708 48.5558 13.5029C49.1278 13.435 49.7305 13.3424 50.3332 13.2312L50.4439 13.8857C50.4685 14.0895 50.3885 14.213 50.1979 14.2562C49.589 14.3673 49.0171 14.4599 48.4636 14.5155C47.8978 14.5587 47.3135 14.5834 46.7293 14.5834C46.4587 14.5834 46.2127 14.5711 45.9605 14.5711L45.1856 14.5031C44.669 14.4352 44.2816 14.3117 44.0479 14.108C43.8019 13.9042 43.685 13.5647 43.685 13.0892V11.0888H44.8904V12.9225H44.8966ZM50.1856 7.06317H51.5816V7.84113C51.5816 7.93374 51.557 7.98931 51.5386 8.02018C51.4955 8.0634 51.4402 8.07575 51.3479 8.07575H50.1856V11.6259C50.1856 11.7865 50.1056 11.8606 49.9519 11.8606H48.9802V4.14893H50.1856V7.06935V7.06317Z" fill="#0052B1"/>
<path id="Vector_3" d="M58.667 7.6312H59.6387V4.14893H60.8441V14.3488C60.8441 14.5093 60.7641 14.5834 60.6104 14.5834H59.6387V8.64378H58.667V13.7808C58.667 13.9413 58.587 14.0154 58.4333 14.0154H57.4616V11.379C56.8773 11.4901 56.2685 11.5704 55.635 11.6383C54.9954 11.7186 54.362 11.7618 53.7408 11.7741C53.2242 11.7988 52.8368 11.6939 52.6031 11.4778C52.3571 11.274 52.2402 10.9344 52.2402 10.459V4.85896H56.3546V5.86537H53.4579V10.3108C53.4579 10.4899 53.4887 10.6134 53.5686 10.6751C53.6363 10.743 53.747 10.7739 53.8946 10.7739C54.4665 10.7739 55.0692 10.743 55.6842 10.6628C56.2931 10.5948 56.8896 10.5022 57.4554 10.3911V4.3712H58.6608V7.6312H58.667Z" fill="#0052B1"/>
<path id="Vector_4" d="M61.8782 6.10624C61.786 6.10624 61.7183 6.09389 61.6999 6.05067C61.6568 6.0198 61.6445 5.95806 61.6445 5.87162V5.09366H64.0676V4.09961H65.2976V5.09366H67.7084V5.87162C67.7084 5.96423 67.6838 6.0198 67.6654 6.05067C67.6223 6.09389 67.567 6.10624 67.4747 6.10624H61.8844H61.8782ZM62.3272 8.37837C62.3272 7.83503 62.5301 7.39666 62.9483 7.06325C63.3542 6.74836 63.9262 6.58783 64.6703 6.58783C65.4145 6.58783 65.9864 6.74836 66.4046 7.06325C66.8105 7.37814 67.0258 7.82268 67.0258 8.37837C67.0258 8.93405 66.8105 9.37242 66.4046 9.69348C65.9864 10.0084 65.4145 10.1689 64.6703 10.1689C63.9262 10.1689 63.3542 10.0084 62.9483 9.68113C62.5301 9.36625 62.3272 8.93405 62.3272 8.37837ZM63.674 11.8483C63.5818 11.8483 63.5141 11.8359 63.4957 11.7927C63.4526 11.7619 63.4403 11.7001 63.4403 11.6137V10.8666H69.9286V14.3983C69.9286 14.5588 69.8486 14.6329 69.6949 14.6329H68.7232V11.8483H63.674ZM65.845 8.37837C65.845 8.27958 65.8204 8.17462 65.7896 8.07583C65.7466 7.98321 65.6912 7.89677 65.599 7.81651C65.5067 7.74859 65.3837 7.68068 65.2361 7.63746C65.0762 7.59424 64.8979 7.56954 64.6703 7.56954C64.2398 7.56954 63.9385 7.66215 63.7663 7.81651C63.5879 7.98321 63.508 8.16844 63.508 8.37219C63.508 8.60064 63.5879 8.79204 63.7663 8.9464C63.9323 9.1131 64.2398 9.19337 64.6703 9.19337C64.8979 9.19337 65.0762 9.16867 65.2361 9.12545C65.3837 9.08223 65.5067 9.02666 65.599 8.9464C65.6912 8.87848 65.7466 8.78587 65.7896 8.68708C65.8204 8.59446 65.845 8.49568 65.845 8.38454V8.37837ZM69.9224 6.72984H71.3185V7.5078C71.3185 7.60041 71.2939 7.65598 71.2754 7.68685C71.2324 7.73007 71.177 7.74242 71.0848 7.74242H69.9224V10.0516C69.9224 10.2121 69.8425 10.2862 69.6887 10.2862H68.717V4.149H69.9224V6.72984Z" fill="#0052B1"/>
<path id="Vector_5" d="M71.6556 13.2312C71.5633 13.2312 71.4957 13.2065 71.4772 13.1757C71.4342 13.1324 71.4219 13.0769 71.4219 12.9966V12.2248H73.6974V8.71785H74.9151V12.2248H76.1758V8.71785H77.3935V12.2248H81.022V12.9966C81.022 13.0769 80.9974 13.1324 80.979 13.1757C80.9359 13.2065 80.8806 13.2312 80.7883 13.2312H71.6617H71.6556ZM72.9532 5.93326C72.861 5.93326 72.7933 5.92092 72.7749 5.8777C72.7318 5.84682 72.7195 5.78508 72.7195 5.69864V4.93921H78.8818C79.2201 4.93921 79.4661 5.00713 79.626 5.14296C79.7736 5.27879 79.8412 5.51341 79.8412 5.853C79.8412 6.19258 79.8289 6.55686 79.8105 6.95202C79.7797 7.35952 79.7428 7.75467 79.6998 8.14982C79.6567 8.55732 79.6014 8.95247 79.5399 9.33528C79.4722 9.73043 79.4169 10.0824 79.3492 10.3849C79.3246 10.496 79.2816 10.5516 79.2262 10.5763C79.1586 10.6072 79.0663 10.6072 78.9433 10.5886L78.1008 10.4281C78.1684 10.1132 78.2238 9.786 78.2914 9.42172C78.3468 9.08213 78.4021 8.71785 78.4513 8.35974C78.5005 8.00164 78.5313 7.64971 78.562 7.28542C78.5866 6.93349 78.6051 6.59391 78.6174 6.25432C78.6174 6.13084 78.6051 6.03823 78.562 5.99501C78.5067 5.95179 78.4021 5.92709 78.2668 5.92709H72.9594L72.9532 5.93326Z" fill="#0052B1"/>
<path id="Vector_6" d="M84.3916 13.4782C84.2133 13.4782 84.1456 13.3856 84.2133 13.2189L87.0423 5.0874H88.4199L91.2366 13.2189C91.3042 13.3856 91.2366 13.4782 91.0582 13.4782H90.0312L89.3116 11.3296H86.1321L85.431 13.4782H84.3916ZM86.4396 10.3911H88.998L87.7126 6.51983L86.4396 10.3911Z" fill="#0052B1"/>
<path id="Vector_7" d="M92.2207 13.4782V5.0874H93.4938V13.2559C93.4938 13.4041 93.4138 13.4844 93.2662 13.4844H92.2207V13.4782Z" fill="#0052B1"/>
<path id="Vector_8" d="M101.429 7.6312H102.4V4.14893H103.606V14.3488C103.606 14.5093 103.526 14.5834 103.372 14.5834H102.4V8.64378H101.429V13.7808C101.429 13.9413 101.349 14.0154 101.195 14.0154H100.223V11.379C99.639 11.4901 99.0302 11.5704 98.3967 11.6383C97.7571 11.7186 97.1237 11.7618 96.5026 11.7741C95.986 11.7988 95.5985 11.6939 95.3648 11.4778C95.1188 11.274 95.002 10.9344 95.002 10.459V4.85896H99.1163V5.86537H96.2197V10.3108C96.2197 10.4899 96.2504 10.6134 96.3304 10.6751C96.398 10.743 96.5087 10.7739 96.6563 10.7739C97.2283 10.7739 97.8309 10.743 98.4459 10.6628C99.0548 10.5948 99.6514 10.5022 100.217 10.3911V4.3712H101.423V7.6312H101.429Z" fill="#0052B1"/>
<path id="Vector_9" d="M104.638 6.10624C104.546 6.10624 104.478 6.09389 104.46 6.05067C104.417 6.0198 104.404 5.95806 104.404 5.87162V5.09366H106.827V4.09961H108.057V5.09366H110.468V5.87162C110.468 5.96423 110.444 6.0198 110.425 6.05067C110.382 6.09389 110.327 6.10624 110.234 6.10624H104.644H104.638ZM105.087 8.37837C105.087 7.83503 105.29 7.39666 105.708 7.06325C106.114 6.74836 106.686 6.58783 107.43 6.58783C108.174 6.58783 108.746 6.74836 109.164 7.06325C109.57 7.37814 109.786 7.82268 109.786 8.37837C109.786 8.93405 109.57 9.37242 109.164 9.69348C108.746 10.0084 108.174 10.1689 107.43 10.1689C106.686 10.1689 106.114 10.0084 105.708 9.68113C105.29 9.36625 105.087 8.93405 105.087 8.37837ZM106.428 11.8483C106.335 11.8483 106.268 11.8359 106.249 11.7927C106.206 11.7619 106.194 11.7001 106.194 11.6137V10.8666H112.682V14.3983C112.682 14.5588 112.602 14.6329 112.448 14.6329H111.477V11.8483H106.428ZM108.599 8.37837C108.599 8.27958 108.574 8.17462 108.543 8.07583C108.5 7.98321 108.445 7.89677 108.353 7.81651C108.26 7.74859 108.137 7.68068 107.99 7.63746C107.83 7.59424 107.651 7.56954 107.424 7.56954C106.993 7.56954 106.692 7.66215 106.52 7.81651C106.342 7.98321 106.262 8.16844 106.262 8.37219C106.262 8.60064 106.342 8.79204 106.52 8.9464C106.686 9.1131 106.993 9.19337 107.424 9.19337C107.651 9.19337 107.83 9.16867 107.99 9.12545C108.137 9.08223 108.26 9.02666 108.353 8.9464C108.445 8.87848 108.5 8.78587 108.543 8.68708C108.574 8.59446 108.599 8.49568 108.599 8.38454V8.37837ZM112.682 6.72984H114.078V7.5078C114.078 7.60041 114.054 7.65598 114.035 7.68685C113.992 7.73007 113.937 7.74242 113.845 7.74242H112.682V10.0516C112.682 10.2121 112.602 10.2862 112.448 10.2862H111.477V4.149H112.682V6.72984Z" fill="#0052B1"/>
<path id="Vector_10" d="M123.223 11.9781C123.223 12.1386 123.143 12.2127 122.989 12.2127H122.017V11.6446H120.135C120.043 11.6446 119.975 11.6323 119.957 11.5891C119.914 11.5582 119.902 11.4965 119.902 11.41V10.6321H122.017V9.71827C121.611 9.81089 121.162 9.87881 120.664 9.94672C120.16 10.0146 119.637 10.0826 119.096 10.1258C119.071 10.3974 119.041 10.6444 119.016 10.8976L118.918 11.6446C118.893 11.8052 118.807 11.8607 118.672 11.836L117.712 11.7126C117.743 11.4779 117.78 11.2248 117.823 10.9778C117.848 10.7309 117.878 10.4901 117.903 10.2431C117.319 10.2863 116.753 10.3234 116.212 10.3419C115.658 10.3666 115.172 10.3727 114.766 10.3727C114.656 10.3727 114.588 10.3604 114.539 10.3295C114.496 10.3048 114.459 10.2307 114.447 10.1011L114.336 9.37869C114.877 9.37869 115.474 9.35399 116.138 9.32312C116.79 9.29843 117.454 9.26755 118.143 9.21199C118.819 9.16877 119.496 9.10085 120.172 9.02058C120.836 8.95267 121.445 8.86005 122.011 8.74892V4.15527H123.217V11.9842L123.223 11.9781ZM115.092 6.61263C115.092 6.29774 115.148 6.01372 115.283 5.76675C115.406 5.51978 115.584 5.30368 115.824 5.12463C116.052 4.95793 116.341 4.82209 116.679 4.71713C117.005 4.62452 117.38 4.5813 117.805 4.5813C118.641 4.5813 119.305 4.76035 119.797 5.11228C120.283 5.47656 120.529 5.98285 120.529 6.6188C120.529 7.25475 120.283 7.76104 119.797 8.11297C119.299 8.47725 118.635 8.6563 117.805 8.6563C117.374 8.6563 117.005 8.61308 116.679 8.50812C116.341 8.41551 116.046 8.27967 115.824 8.10062C115.591 7.93392 115.406 7.71782 115.283 7.46467C115.148 7.2177 115.092 6.93369 115.092 6.6188V6.61263ZM117.263 12.9227C117.263 13.1018 117.294 13.2499 117.374 13.3426C117.442 13.4352 117.552 13.4907 117.737 13.5093C117.995 13.5401 118.29 13.5648 118.604 13.5895C118.918 13.5895 119.213 13.6019 119.483 13.6019C119.779 13.6019 120.092 13.5895 120.431 13.5772C120.757 13.5525 121.095 13.5216 121.433 13.4969C121.771 13.466 122.097 13.429 122.435 13.3858C122.761 13.3426 123.075 13.287 123.383 13.2252L123.493 13.8797C123.518 14.0835 123.438 14.207 123.247 14.2502C122.638 14.3613 122.005 14.4539 121.341 14.5095C120.664 14.5527 120.025 14.5774 119.434 14.5774H118.998C118.832 14.5651 118.659 14.5651 118.499 14.5651C118.321 14.5527 118.149 14.5404 117.995 14.5404C117.829 14.5157 117.682 14.5095 117.559 14.4971C117.042 14.4292 116.654 14.3057 116.421 14.102C116.175 13.8982 116.058 13.5587 116.058 13.0832V11.4224H117.263V12.9165V12.9227ZM119.336 6.61263C119.336 6.31626 119.213 6.08164 118.973 5.89024C118.727 5.71118 118.34 5.60622 117.798 5.60622C117.257 5.60622 116.894 5.70501 116.648 5.89024C116.402 6.08164 116.279 6.32244 116.279 6.60028C116.279 6.90282 116.402 7.15596 116.648 7.33501C116.894 7.52641 117.282 7.61903 117.798 7.61903C118.315 7.61903 118.721 7.52641 118.973 7.33501C119.207 7.15596 119.336 6.90282 119.336 6.61263Z" fill="#0052B1"/>
</g>
<g id="Group_2">
<path id="Vector_11" d="M31.9453 18.4116C31.9453 18.1832 31.9822 17.9733 32.0745 17.7695C32.1544 17.5843 32.2651 17.4176 32.4127 17.2756C32.5542 17.1397 32.7202 17.0348 32.917 16.9545C33.1077 16.8804 33.3229 16.8434 33.5505 16.8434C33.778 16.8434 33.981 16.8804 34.1839 16.9545C34.3746 17.0348 34.5468 17.1397 34.6944 17.2756C34.842 17.4176 34.9527 17.5843 35.0388 17.7695C35.1187 17.9671 35.1556 18.1832 35.1556 18.4116C35.1556 18.6524 35.1187 18.8685 35.0388 19.0538C34.9527 19.2452 34.842 19.4119 34.6944 19.5477C34.5468 19.6897 34.3746 19.7947 34.1839 19.8688C33.9871 19.949 33.778 19.9799 33.5505 19.9799C33.3229 19.9799 33.1138 19.949 32.917 19.8688C32.7202 19.7947 32.5542 19.6897 32.4127 19.5477C32.2651 19.4119 32.1544 19.2452 32.0745 19.0476C31.9884 18.8624 31.9453 18.6463 31.9453 18.4116ZM34.4545 18.4116C34.4545 18.1338 34.3746 17.9053 34.2208 17.7139C34.0609 17.5411 33.8334 17.4485 33.5505 17.4485C33.4152 17.4485 33.2922 17.4731 33.1876 17.5164C33.0769 17.5719 32.9785 17.6337 32.8986 17.7139C32.8186 17.8004 32.7571 17.8992 32.7202 18.0165C32.671 18.1338 32.6526 18.2696 32.6526 18.4055C32.6526 18.6956 32.7325 18.9241 32.8986 19.1031C33.0585 19.2884 33.2799 19.3748 33.5505 19.3748C33.8211 19.3748 34.0609 19.2884 34.2208 19.1031C34.3746 18.9303 34.4545 18.6956 34.4545 18.4178V18.4116ZM33.8703 21.7581C33.8703 21.863 33.8887 21.9495 33.9379 22.005C33.9748 22.0606 34.0425 22.0915 34.1532 22.1038C34.3069 22.1224 34.4484 22.1347 34.5652 22.1532C34.6821 22.1532 34.8235 22.1594 34.9834 22.1594C35.334 22.1594 35.6907 22.1409 36.0351 22.0977C36.3733 22.0606 36.73 22.005 37.0867 21.9371L37.1544 22.3261C37.1667 22.4434 37.1236 22.5175 37.0068 22.5484C36.6501 22.6163 36.3057 22.6657 35.9797 22.7027C35.6476 22.7274 35.3032 22.7398 34.9527 22.7398C34.7928 22.7398 34.6452 22.7336 34.4976 22.7336L34.0363 22.6966C33.7288 22.6595 33.5013 22.5854 33.366 22.4619C33.2184 22.3446 33.1507 22.1409 33.1507 21.863V20.6838H33.8641V21.7643L33.8703 21.7581ZM36.9883 20.9986C36.9883 21.0913 36.9391 21.1407 36.8469 21.1407H36.2749V16.5779H36.9883V20.9986Z" fill="#04B5CF"/>
<path id="Vector_12" d="M44.1288 18.1583V19.3561H46.8963V19.813C46.8963 19.8686 46.884 19.8995 46.8717 19.918C46.8471 19.9427 46.8102 19.9489 46.761 19.9489H41.3736C41.3182 19.9489 41.2813 19.9427 41.269 19.918C41.2444 19.8995 41.2383 19.8624 41.2383 19.813V19.3561H43.4215V18.1583H44.1411H44.1288ZM41.8963 21.6344C41.8963 21.2393 42.0808 20.9367 42.456 20.733C42.8311 20.5354 43.36 20.4243 44.0673 20.4243C44.7745 20.4243 45.3034 20.5292 45.6786 20.733C46.0537 20.9429 46.2382 21.2393 46.2382 21.6344C46.2382 22.0296 46.0537 22.3321 45.6786 22.5359C45.3034 22.7334 44.7684 22.8446 44.0673 22.8446C43.3662 22.8446 42.8311 22.7396 42.456 22.5359C42.0808 22.3259 41.8963 22.0296 41.8963 21.6344ZM42.1362 17.3371C42.0808 17.3371 42.0439 17.331 42.0316 17.3063C42.007 17.2878 42.0009 17.2507 42.0009 17.2013V16.7629H45.6417C45.8385 16.7629 45.9861 16.8062 46.0783 16.8803C46.1644 16.9605 46.2075 17.1025 46.2075 17.3001C46.2013 17.5965 46.1829 17.8681 46.146 18.1213C46.1091 18.3744 46.0476 18.6399 45.9799 18.9116C45.9615 18.9795 45.9307 19.0104 45.9061 19.0227C45.8692 19.0412 45.8139 19.0412 45.7401 19.0289L45.2419 18.9363C45.3034 18.7078 45.3526 18.4794 45.4018 18.2571C45.4387 18.0348 45.4695 17.794 45.4818 17.5347C45.4818 17.4606 45.4756 17.4051 45.451 17.3804C45.4203 17.3557 45.3588 17.3433 45.2788 17.3433H42.1423L42.1362 17.3371ZM45.5187 21.6344C45.5187 21.4183 45.3834 21.2578 45.1312 21.159C44.8668 21.0664 44.5101 21.0108 44.0611 21.0108C43.6122 21.0108 43.2493 21.0664 42.9972 21.159C42.7327 21.2578 42.6036 21.4183 42.6036 21.6344C42.6036 21.8505 42.7327 22.0111 42.9972 22.1098C43.2493 22.2025 43.6122 22.258 44.0611 22.258C44.5101 22.258 44.8668 22.2025 45.1312 22.1098C45.3834 22.0111 45.5187 21.8505 45.5187 21.6344Z" fill="#04B5CF"/>
<path id="Vector_13" d="M53.1515 17.5966V17.9053C53.1515 18.4672 53.2806 18.9797 53.5451 19.4427C53.8034 19.912 54.1847 20.3071 54.6828 20.6097L54.3815 21.0048C54.32 21.0789 54.2462 21.0851 54.1662 21.0172C53.8649 20.7887 53.6004 20.5418 53.3606 20.2701C53.1207 20.0046 52.9301 19.6959 52.7825 19.3625C52.6287 19.7021 52.4319 20.0169 52.1921 20.3071C51.9399 20.6035 51.6509 20.8628 51.3311 21.0913C51.245 21.153 51.1712 21.1468 51.1158 21.0789L50.8145 20.6838C51.0543 20.5294 51.2819 20.3503 51.4787 20.1404C51.6755 19.9428 51.8415 19.7206 51.983 19.4798C52.1183 19.2452 52.2228 18.992 52.3028 18.7265C52.3766 18.4672 52.4135 18.1894 52.4135 17.9115V17.6028H51.2573C51.2019 17.6028 51.165 17.5966 51.1527 17.5719C51.1281 17.5534 51.122 17.5164 51.122 17.467V17.0039H54.443V17.467C54.443 17.5225 54.4307 17.5534 54.4184 17.5719C54.3938 17.5966 54.3569 17.6028 54.3077 17.6028H53.1515V17.5966ZM56.1527 22.5978C56.1527 22.6904 56.1035 22.7398 56.0112 22.7398H55.4393V16.5779H56.1527V22.604V22.5978Z" fill="#04B5CF"/>
<path id="Vector_14" d="M60.5298 20.0848C60.4745 20.0848 60.4376 20.0786 60.4253 20.0539C60.4007 20.0354 60.3945 19.9984 60.3945 19.949V19.4921H66.0648V19.949C66.0648 20.0045 66.0525 20.0354 66.0402 20.0539C66.0156 20.0786 65.9787 20.0848 65.9295 20.0848H60.5421H60.5298ZM61.0526 21.6654C61.0526 21.2703 61.2371 20.9801 61.6122 20.7763C61.9874 20.5911 62.5163 20.4861 63.2235 20.4861C63.9308 20.4861 64.4597 20.5849 64.8348 20.7763C65.21 20.9739 65.3945 21.2703 65.3945 21.6654C65.3945 22.0606 65.21 22.3508 64.8348 22.5545C64.4597 22.7397 63.9246 22.8447 63.2235 22.8447C62.5224 22.8447 61.9874 22.7459 61.6122 22.5545C61.2371 22.3569 61.0526 22.0606 61.0526 21.6654ZM61.8644 16.689V17.9362C61.8644 18.0473 61.8828 18.1276 61.932 18.1831C61.9689 18.2387 62.0366 18.2696 62.1473 18.2819C62.301 18.3066 62.4425 18.319 62.5655 18.319C62.6823 18.3313 62.8299 18.3313 62.9898 18.3313C63.162 18.3313 63.3527 18.3313 63.5556 18.319C63.7463 18.319 63.9492 18.3066 64.1522 18.2881C64.349 18.2757 64.5519 18.2572 64.7487 18.2264C64.9394 18.2078 65.13 18.177 65.3084 18.1399L65.3699 18.5165C65.3822 18.6462 65.3391 18.7141 65.2223 18.7388C64.8656 18.8129 64.4904 18.8561 64.0907 18.887C63.6848 18.9179 63.3035 18.9364 62.9591 18.9364C62.7992 18.9364 62.6454 18.9364 62.4978 18.924C62.3379 18.924 62.1842 18.9117 62.0304 18.8932C61.7229 18.8623 61.4954 18.782 61.3601 18.6586C61.2125 18.5412 61.1448 18.3375 61.1448 18.0596V16.6951H61.8582L61.8644 16.689ZM64.6811 21.6654C64.6811 21.4493 64.5458 21.295 64.2875 21.2023C64.023 21.1221 63.6663 21.0727 63.2235 21.0727C62.7807 21.0727 62.4179 21.1221 62.1596 21.2023C61.8951 21.295 61.766 21.4493 61.766 21.6654C61.766 21.8815 61.8951 22.0359 62.1596 22.1285C62.4179 22.2087 62.7746 22.2581 63.2235 22.2581C63.6725 22.2581 64.023 22.2087 64.2875 22.1285C64.5458 22.0359 64.6811 21.8815 64.6811 21.6654Z" fill="#04B5CF"/>
<path id="Vector_15" d="M70.6349 21.6654C70.6349 21.2394 70.8625 20.9307 71.3114 20.7331V20.0169H70.106C70.0507 20.0169 70.0138 20.0107 70.0015 19.986C69.9769 19.9675 69.9707 19.9305 69.9707 19.8811V19.4242H75.641V19.8811C75.641 19.9366 75.6287 19.9675 75.6164 19.986C75.5918 20.0107 75.5549 20.0169 75.5057 20.0169H74.3003V20.7331C74.7554 20.9307 74.9768 21.2394 74.9768 21.6654C74.9768 22.0606 74.7923 22.3508 74.4172 22.5545C74.042 22.7397 73.507 22.8447 72.8059 22.8447C72.1048 22.8447 71.5697 22.7459 71.1946 22.5545C70.8194 22.3569 70.6349 22.0606 70.6349 21.6654ZM74.9338 17.8436C74.9338 18.2325 74.7554 18.5289 74.3987 18.7326C74.042 18.9426 73.507 19.0414 72.7997 19.0414C72.0925 19.0414 71.5697 18.9426 71.2069 18.7326C70.844 18.5351 70.6595 18.2325 70.6595 17.8436C70.6595 17.4546 70.8379 17.1644 71.2069 16.9545C71.5636 16.7569 72.0925 16.6458 72.7997 16.6458C73.507 16.6458 74.0359 16.7507 74.3987 16.9545C74.7493 17.1644 74.9338 17.4546 74.9338 17.8436ZM74.2573 21.6654C74.2573 21.4493 74.122 21.295 73.8637 21.2024C73.5992 21.1221 73.2425 21.0727 72.7997 21.0727C72.3569 21.0727 71.9941 21.1221 71.7358 21.2024C71.4713 21.295 71.3422 21.4493 71.3422 21.6654C71.3422 21.8815 71.4713 22.0359 71.7358 22.1285C71.9941 22.2088 72.3508 22.2581 72.7997 22.2581C73.2487 22.2581 73.5992 22.2088 73.8637 22.1285C74.122 22.0359 74.2573 21.8815 74.2573 21.6654ZM72.7997 17.2261C71.8526 17.2261 71.3852 17.4361 71.3852 17.8497C71.3852 18.0473 71.4959 18.2017 71.7358 18.3128C71.9695 18.4178 72.32 18.4733 72.7997 18.4733C73.2794 18.4733 73.6177 18.4178 73.8575 18.3128C74.0912 18.2078 74.2081 18.0535 74.2081 17.8497C74.2081 17.4361 73.7345 17.2261 72.7997 17.2261ZM72.7997 20.4923C72.9412 20.4923 73.0703 20.4985 73.2056 20.4985L73.5685 20.5417V20.0231H72.0248V20.5417C72.1355 20.5294 72.2585 20.517 72.3877 20.4985C72.5168 20.4985 72.646 20.4923 72.7936 20.4923H72.7997Z" fill="#04B5CF"/>
<path id="Vector_16" d="M79.7427 17.5965C79.6874 17.5965 79.6505 17.5904 79.6382 17.5657C79.6136 17.5471 79.6074 17.5101 79.6074 17.4607V16.9976H81.0404V16.479H81.7661V16.9976H83.1867V17.4607C83.1867 17.5163 83.1744 17.5471 83.1621 17.5657C83.1375 17.5904 83.1006 17.5965 83.0514 17.5965H79.7489H79.7427ZM80.0072 18.9055C80.0072 18.5844 80.124 18.3313 80.3762 18.1522C80.616 17.9793 80.9543 17.8867 81.3971 17.8867C81.8399 17.8867 82.1781 17.9732 82.4241 18.1461C82.664 18.3251 82.787 18.5782 82.787 18.9055C82.787 19.2327 82.6578 19.4859 82.4241 19.6587C82.1781 19.8378 81.8399 19.9242 81.3971 19.9242C80.9543 19.9242 80.616 19.8378 80.3762 19.6587C80.1302 19.4859 80.0072 19.2327 80.0072 18.9055ZM84.4905 20.2762V21.5975C84.4905 21.8259 84.4475 22.0173 84.3737 22.1778C84.2876 22.326 84.1646 22.4495 84.0108 22.5483C83.8448 22.6347 83.648 22.7027 83.4081 22.7397C83.1683 22.7706 82.8915 22.7953 82.584 22.7953C82.2765 22.7953 81.9936 22.7767 81.7599 22.7397C81.5201 22.7027 81.3233 22.6347 81.1634 22.5483C80.9973 22.4557 80.8743 22.326 80.8005 22.1778C80.7144 22.0173 80.6714 21.8259 80.6714 21.5975V20.2762H81.3848V20.9306H83.7956V20.2762H84.509H84.4905ZM82.0859 18.9055C82.0859 18.8437 82.0736 18.7882 82.0551 18.7326C82.0305 18.677 81.9936 18.6338 81.9444 18.5906C81.8952 18.5474 81.8153 18.5165 81.7292 18.4918C81.6369 18.4733 81.5324 18.4609 81.3971 18.4609C81.1449 18.4609 80.9666 18.5103 80.862 18.5906C80.7575 18.6832 80.7083 18.782 80.7083 18.9055C80.7083 19.0413 80.7575 19.1463 80.862 19.2265C80.9604 19.3192 81.1388 19.3624 81.3971 19.3624C81.5324 19.3624 81.6369 19.35 81.7292 19.3253C81.8153 19.3068 81.8891 19.2698 81.9444 19.2327C81.9998 19.1957 82.0305 19.1463 82.0551 19.0907C82.0736 19.0351 82.0859 18.9857 82.0859 18.9178V18.9055ZM82.5779 22.2149C82.7931 22.2149 82.9715 22.2025 83.1314 22.1902C83.279 22.1717 83.402 22.1346 83.5065 22.0976C83.5988 22.0482 83.6664 21.9926 83.7218 21.9185C83.7587 21.8383 83.7894 21.7395 83.7894 21.616V21.5172H81.3786V21.616C81.3786 21.7333 81.3971 21.8383 81.4524 21.9185C81.4955 21.9926 81.5631 22.0544 81.6677 22.0976C81.7599 22.1346 81.8829 22.1717 82.0428 22.1902C82.1904 22.2025 82.3749 22.2149 82.5902 22.2149H82.5779ZM84.4905 17.8991H85.3146V18.3622C85.3146 18.4177 85.3023 18.4486 85.29 18.4671C85.2654 18.4918 85.2285 18.498 85.1793 18.498H84.4967V19.8625C84.4967 19.9551 84.4475 20.0045 84.3552 20.0045H83.7833V16.5778H84.4967V17.8991H84.4905Z" fill="#04B5CF"/>
<path id="Vector_17" d="M89.4297 18.4116C89.4297 18.1831 89.4727 17.9732 89.5588 17.7694C89.6388 17.5842 89.7495 17.4175 89.8971 17.2755C90.0385 17.1397 90.2046 17.0347 90.4014 16.9544C90.592 16.8803 90.8073 16.8433 91.0348 16.8433C91.2624 16.8433 91.4653 16.8803 91.6683 16.9544C91.8589 17.0347 92.0373 17.1397 92.1787 17.2755C92.3263 17.4175 92.437 17.5842 92.5231 17.7694C92.6031 17.967 92.64 18.1831 92.64 18.4116C92.64 18.6524 92.6031 18.8685 92.5231 19.0537C92.437 19.2451 92.3263 19.4118 92.1787 19.5476C92.0311 19.6896 91.8589 19.7946 91.6683 19.8687C91.4715 19.949 91.2624 19.9798 91.0348 19.9798C90.8073 19.9798 90.5982 19.949 90.4014 19.8687C90.2046 19.7946 90.0324 19.6896 89.8971 19.5476C89.7495 19.4118 89.6388 19.2451 89.5588 19.0475C89.4727 18.8623 89.4297 18.6462 89.4297 18.4116ZM91.9389 18.4116C91.9389 18.1337 91.8589 17.9053 91.7052 17.7139C91.5453 17.541 91.3177 17.4484 91.0348 17.4484C90.8995 17.4484 90.7765 17.4731 90.672 17.5163C90.5613 17.5719 90.4629 17.6336 90.3829 17.7139C90.303 17.8003 90.2415 17.8991 90.2046 18.0164C90.1554 18.1337 90.1369 18.2696 90.1369 18.4054C90.1369 18.6956 90.2169 18.924 90.3829 19.1031C90.5428 19.2883 90.7642 19.3747 91.0348 19.3747C91.3054 19.3747 91.5453 19.2883 91.7052 19.1031C91.8589 18.9302 91.9389 18.6956 91.9389 18.4177V18.4116ZM91.3485 21.758C91.3485 21.863 91.3669 21.9494 91.4161 22.005C91.453 22.0605 91.5207 22.0914 91.6314 22.1038C91.7851 22.1223 91.9266 22.1346 92.0434 22.1532C92.1603 22.1532 92.3017 22.1593 92.4616 22.1593C92.8122 22.1593 93.1689 22.1408 93.5133 22.0976C93.8515 22.0605 94.2082 22.005 94.5649 21.9371L94.6326 22.326C94.6449 22.4433 94.6018 22.5174 94.485 22.5483C94.1283 22.6162 93.7839 22.6656 93.4579 22.7027C93.1258 22.7274 92.7814 22.7397 92.4309 22.7397C92.271 22.7397 92.1234 22.7335 91.9758 22.7335L91.5145 22.6965C91.207 22.6594 90.9795 22.5854 90.8442 22.4619C90.6966 22.3446 90.6289 22.1408 90.6289 21.863V20.6837H91.3423V21.7642L91.3485 21.758ZM94.4727 20.9986C94.4727 21.0912 94.4235 21.1406 94.3312 21.1406H93.7593V19.3315H93.0213C92.9659 19.3315 92.929 19.3254 92.9167 19.3007C92.8921 19.2821 92.886 19.2451 92.886 19.1957V18.7326H93.7654V17.9979H93.0274C92.9721 17.9979 92.9352 17.9917 92.9229 17.967C92.8983 17.9485 92.8921 17.9114 92.8921 17.8621V17.399H93.7716V16.584H94.485V21.0047L94.4727 20.9986Z" fill="#04B5CF"/>
<path id="Vector_18" d="M101.895 20.622V22.5978C101.895 22.6904 101.845 22.7398 101.753 22.7398H101.181V20.622H98.8443C98.7889 20.622 98.752 20.6159 98.7397 20.5912C98.7151 20.5726 98.709 20.5356 98.709 20.4862V20.0293H104.379V20.4862C104.379 20.5418 104.367 20.5726 104.355 20.5912C104.33 20.6159 104.293 20.622 104.244 20.622H101.901H101.895ZM99.613 17.4979C99.5577 17.4979 99.5208 17.4917 99.5085 17.467C99.4839 17.4485 99.4777 17.4114 99.4777 17.362V16.9175H103.119C103.315 16.9175 103.463 16.9545 103.555 17.0348C103.641 17.1151 103.684 17.2571 103.684 17.4546C103.678 17.8127 103.66 18.1585 103.629 18.4857C103.598 18.8192 103.537 19.1649 103.457 19.5354C103.444 19.6033 103.414 19.6342 103.383 19.6465C103.346 19.665 103.291 19.665 103.217 19.6527L102.719 19.5601C102.799 19.202 102.854 18.8624 102.891 18.5722C102.922 18.2758 102.946 17.9918 102.959 17.6954C102.959 17.6213 102.952 17.5658 102.928 17.5411C102.897 17.5164 102.836 17.504 102.756 17.504H99.6192L99.613 17.4979Z" fill="#04B5CF"/>
<path id="Vector_19" d="M110.334 17.646C110.334 18.0659 110.438 18.4425 110.666 18.7697C110.887 19.1031 111.182 19.3625 111.564 19.56L111.268 19.9675C111.244 20.0108 111.207 20.0293 111.182 20.0293C111.145 20.0293 111.102 20.0169 111.053 19.9799C110.813 19.8379 110.616 19.6774 110.438 19.4921C110.26 19.3192 110.112 19.1155 109.995 18.9056C109.743 19.3748 109.368 19.7514 108.864 20.0602C108.808 20.091 108.771 20.1096 108.747 20.1096C108.704 20.1096 108.679 20.091 108.655 20.0478L108.359 19.6403C108.544 19.5477 108.71 19.4242 108.87 19.2946C109.024 19.1587 109.159 19.0167 109.276 18.8377C109.38 18.6771 109.466 18.4981 109.534 18.2943C109.596 18.1029 109.626 17.8868 109.626 17.6584V16.8619H110.327V17.646H110.334ZM110.377 21.7581C110.377 21.863 110.395 21.9495 110.444 22.005C110.481 22.0606 110.549 22.0915 110.659 22.1038C110.813 22.1224 110.985 22.1347 111.17 22.1532C111.354 22.1532 111.527 22.1594 111.687 22.1594C112.037 22.1594 112.394 22.1409 112.738 22.0977C113.076 22.0606 113.433 22.005 113.79 21.9371L113.857 22.3261C113.87 22.4434 113.827 22.5175 113.71 22.5484C113.353 22.6163 113.009 22.6657 112.683 22.7027C112.351 22.7274 112.006 22.7398 111.656 22.7398H111.397C111.299 22.7336 111.201 22.7336 111.102 22.7336C110.998 22.7274 110.893 22.7213 110.801 22.7213C110.703 22.7089 110.616 22.7027 110.543 22.6966C110.235 22.6595 110.008 22.5854 109.872 22.4619C109.725 22.3446 109.657 22.1409 109.657 21.863V20.6838H110.37V21.7643L110.377 21.7581ZM112.48 20.9307C112.48 21.0233 112.431 21.0727 112.338 21.0727H111.766V18.5042H111.115C111.059 18.5042 111.022 18.4981 111.01 18.4734C110.985 18.4549 110.979 18.4178 110.979 18.3684V17.9053H111.773V16.7137H112.486V20.9369L112.48 20.9307ZM113.698 20.9986C113.698 21.0913 113.648 21.1407 113.556 21.1407H112.984V16.5779H113.698V20.9986Z" fill="#04B5CF"/>
<path id="Vector_20" d="M121.33 16.9977V17.5905H119.085V18.7327H121.194V19.3254H119.085V20.3503C119.085 20.4553 119.103 20.5294 119.152 20.5664C119.195 20.6035 119.257 20.6282 119.343 20.6282C119.491 20.6282 119.669 20.622 119.884 20.5973C120.093 20.585 120.309 20.5541 120.536 20.5232C120.758 20.4985 120.973 20.4615 121.2 20.4244C121.416 20.3936 121.612 20.3503 121.785 20.3133L121.871 20.7332C121.889 20.8319 121.852 20.8937 121.742 20.9184C121.569 20.9554 121.385 20.9925 121.17 21.0233C120.948 21.0604 120.733 21.0913 120.505 21.116C120.278 21.1468 120.05 21.1777 119.841 21.19C119.614 21.2086 119.423 21.2209 119.251 21.2209C118.943 21.2271 118.716 21.1653 118.58 21.048C118.433 20.9307 118.365 20.727 118.365 20.4491V17.0039H121.323L121.33 16.9977ZM123.211 22.5978C123.211 22.6904 123.162 22.7398 123.07 22.7398H122.498V19.2328H121.692C121.637 19.2328 121.6 19.2266 121.588 19.2019C121.563 19.1834 121.557 19.1464 121.557 19.097V18.6339H122.504V16.5779H123.218V22.604L123.211 22.5978Z" fill="#04B5CF"/>
</g>
<g id="Group_3">
<g id="(&#234;&#176;&#128;&#235;&#161;&#156;)&#235;&#161;&#156;&#234;&#179;&#160;">
<g id="Group_4">
<g id="Group_5">
<path id="Vector_21" d="M3.71655 11.447C3.64275 11.8298 3.3906 12.0829 3.0585 12.015C2.72025 11.9471 2.5665 11.589 2.63415 11.2618C2.64645 11.1877 2.67105 11.1136 2.7141 11.0518C2.6772 11.305 2.78175 11.6137 3.06465 11.6693C3.32295 11.7187 3.4644 11.5581 3.5136 11.3235C3.5259 11.2556 3.53205 11.1815 3.5382 11.1136L2.1975 10.8481C2.03145 10.811 1.9146 10.7863 1.7916 10.9284H1.7793L1.89615 10.3418H1.90845C1.93305 10.5023 2.15445 10.5332 2.28975 10.5579L3.40905 10.7802C3.54435 10.8049 3.7596 10.8666 3.8457 10.7308H3.85185L3.7104 11.447H3.71655Z" fill="#004DA0"/>
<path id="Vector_22" d="M1.72992 13.4598C1.55772 13.324 1.49622 13.077 1.50237 12.8671C1.50852 12.6695 1.58232 12.4596 1.72992 12.3299C1.90827 12.1756 2.11737 12.1879 2.33262 12.2003L3.13827 12.225C3.27357 12.225 3.49497 12.2558 3.55647 12.1077H3.56262L3.54417 12.6757H3.53802C3.48267 12.5213 3.26127 12.5337 3.12597 12.5337L2.32032 12.509C1.91442 12.4966 1.72377 12.6572 1.71762 12.9659C1.71762 13.1326 1.77297 13.3055 1.91442 13.4104C2.00667 13.4783 2.08047 13.4783 2.18502 13.4845L3.09522 13.5154C3.23052 13.5154 3.45192 13.5463 3.51342 13.3981H3.52572L3.50727 13.9661H3.49497C3.43962 13.8118 3.22437 13.8241 3.08292 13.8179L1.93902 13.7809C1.80372 13.7809 1.58232 13.75 1.52082 13.9044H1.51467L1.52697 13.466H1.72992V13.4598Z" fill="#004DA0"/>
<path id="Vector_23" d="M3.32191 15.2875C3.42646 15.1578 3.46951 14.9664 3.45106 14.7997C3.42646 14.633 3.33421 14.4231 3.12511 14.454C2.71306 14.5034 2.85451 15.5283 2.30101 15.5962C1.98121 15.6394 1.63681 15.3431 1.57531 14.88C1.55071 14.6948 1.55686 14.5157 1.59376 14.3367L1.95661 14.2008C1.82746 14.3984 1.75981 14.6515 1.79056 14.8862C1.80901 15.0529 1.95046 15.2937 2.15956 15.269C2.62696 15.2072 2.41171 14.1946 3.04516 14.1144C3.42031 14.065 3.61711 14.4293 3.66631 14.7935C3.68476 14.9417 3.68476 15.0961 3.66016 15.2443L3.32191 15.2875Z" fill="#004DA0"/>
<path id="Vector_24" d="M3.0083 16.7568L2.84225 16.1888L3.6602 16.2691L3.0083 16.7568ZM2.81765 16.905L2.44865 17.1767C2.26415 17.3125 2.2457 17.3434 2.135 17.2199H2.12885L2.30105 17.8126H2.3072C2.3441 17.6212 2.4917 17.5224 2.6393 17.4113L3.96155 16.3925L3.8324 15.9356H3.82625C3.82625 16.09 3.6848 16.0715 3.56795 16.0591L2.21495 15.9233C2.03045 15.9048 1.8521 15.9048 1.72295 15.7566H1.7168L1.87055 16.2876H1.88285C1.89515 16.1332 1.9874 16.127 2.16575 16.1456L2.62085 16.1764L2.82995 16.905H2.81765Z" fill="#004DA0"/>
<path id="Vector_25" d="M2.86064 18.0843C2.70689 18.1583 2.59619 18.2077 2.58389 18.393H2.57159L2.33789 17.9175H2.34404C2.49779 18.0163 2.60849 17.9608 2.75609 17.8867L3.84464 17.368C3.99839 17.2939 4.10294 17.2384 4.12139 17.0593H4.12754L4.32434 17.4483C4.32434 17.4483 4.28744 17.4915 4.27514 17.5224L4.23824 17.5841L3.46949 19.1771L4.50269 18.6832C4.65644 18.6091 4.76714 18.5597 4.77329 18.3806H4.77944L5.01314 18.8499H5.00699C4.85324 18.7511 4.74869 18.8066 4.59494 18.8807L3.06974 19.6155C3.04514 19.3932 3.08819 19.2635 3.18659 19.0721L3.91844 17.578L2.86679 18.0843H2.86064Z" fill="#004DA0"/>
<path id="Vector_26" d="M4.5705 20.9986C4.44135 21.1097 4.3491 21.19 4.386 21.3691L4.0293 20.9801H4.03545C4.2138 21.0295 4.30605 20.9492 4.42905 20.8381L5.32695 20.0416C5.4561 19.9305 5.5422 19.8502 5.5053 19.6711H5.51145L5.80665 19.9922C5.7882 20.0231 5.78205 20.0478 5.78205 20.0786L5.7636 20.1527L5.4684 21.8939L6.3171 21.1344C6.4401 21.0233 6.5385 20.943 6.49545 20.764H6.5016L6.8583 21.1468H6.85215C6.67995 21.0974 6.5877 21.1777 6.4647 21.2888L5.20395 22.4125C5.1117 22.2026 5.124 22.0729 5.16705 21.8568L5.44995 20.2268L4.5828 20.9986H4.5705Z" fill="#004DA0"/>
<path id="Vector_27" d="M7.06168 22.6657L6.58813 22.3015L7.29538 21.8878L7.06168 22.6657ZM6.99403 22.888L6.85873 23.3202C6.79108 23.5363 6.79108 23.5734 6.63118 23.5363H6.62503L7.11703 23.9191H7.12318C7.04323 23.7401 7.09858 23.5734 7.15393 23.4005L7.60903 21.8075L7.23388 21.5173C7.31998 21.647 7.19698 21.7149 7.09858 21.7705L5.92393 22.4496C5.76403 22.5423 5.62258 22.641 5.42578 22.604L5.86243 22.9498C5.78248 22.8139 5.85013 22.7522 6.00388 22.6596L6.39133 22.4188L6.99403 22.8818V22.888Z" fill="#004DA0"/>
<path id="Vector_28" d="M8.02117 23.9869C7.93507 24.1351 7.87357 24.2339 7.96582 24.3944L7.44922 24.1042C7.60912 24.1227 7.70752 23.9252 7.77517 23.8078L8.45167 22.6533L8.21797 22.5236C8.10727 22.4619 7.97197 22.4186 7.84897 22.4495H7.83667L8.10727 22.1902H8.11342C8.13802 22.2272 8.16877 22.2458 8.19952 22.2705L8.26717 22.3075L9.24502 22.8694C9.28807 22.8941 9.33112 22.9187 9.37417 22.9187H9.38032L9.11587 23.1842H9.10972C9.12817 23.0669 9.02977 22.9928 8.94367 22.9434L8.70997 22.8076L8.01502 23.9869H8.02117Z" fill="#004DA0"/>
<path id="Vector_29" d="M9.44728 23.4066C9.50263 23.2831 9.61332 23.0917 9.49647 22.9744L10.0254 23.1966C9.85932 23.1966 9.78553 23.4066 9.73633 23.53L9.27508 24.5611C9.21973 24.6846 9.11517 24.876 9.23202 24.9872L8.70312 24.7649C8.86302 24.7649 8.93683 24.555 8.99218 24.4315L9.45343 23.4004L9.44728 23.4066Z" fill="#004DA0"/>
<path id="Vector_30" d="M11.1264 23.7399C11.5876 23.8634 11.7475 24.345 11.6245 24.771C11.5015 25.2032 11.1264 25.444 10.6836 25.3205C10.2223 25.197 10.0563 24.6969 10.167 24.2956C10.29 23.8572 10.6713 23.6164 11.1202 23.7399H11.1264ZM11.2063 23.5423C10.5975 23.3571 9.98863 23.6843 9.83488 24.2338C9.66883 24.8266 10.0378 25.3699 10.6159 25.5304C11.194 25.6909 11.809 25.4008 11.9751 24.808C12.1227 24.2894 11.8213 23.709 11.2063 23.5423Z" fill="#004DA0"/>
<path id="Vector_31" d="M12.4684 25.4502C12.4561 25.6169 12.4438 25.7404 12.5976 25.8392L12.0625 25.8083C12.2285 25.7219 12.2409 25.5984 12.2532 25.4317L12.3454 24.2401C12.3577 24.0672 12.3638 23.9499 12.2162 23.8511L12.6591 23.8758C12.6714 23.919 12.6775 23.9313 12.7021 23.956L12.739 24.0178L13.7415 25.4811L13.8276 24.345C13.8399 24.1783 13.8521 24.061 13.6984 23.956L14.2273 23.9869C14.0613 24.0733 14.0551 24.1968 14.0428 24.3635L13.9198 26.0368C13.7107 25.9503 13.6246 25.8454 13.5016 25.6663L12.5668 24.2894L12.4807 25.444L12.4684 25.4502Z" fill="#004DA0"/>
<path id="Vector_32" d="M15.4621 24.9069L14.8656 24.9686L15.087 24.1907L15.4621 24.9131V24.9069ZM15.5728 25.1168L15.7758 25.5181C15.8803 25.7157 15.9049 25.7466 15.7635 25.8269V25.8392L16.3846 25.7775C16.2063 25.6972 16.1325 25.5367 16.0464 25.3761L15.2592 23.9128L14.7856 23.9622C14.9394 23.9993 14.8902 24.1289 14.8594 24.2463L14.4843 25.5367C14.4351 25.7095 14.4043 25.8824 14.2383 25.9874V25.9997L14.7918 25.9442V25.9318C14.638 25.8948 14.6503 25.8022 14.6995 25.6293L14.8102 25.1909L15.5728 25.1168Z" fill="#004DA0"/>
<path id="Vector_33" d="M17.3811 25.2775C17.584 25.2342 17.7378 25.1231 17.8546 24.9626H17.8608L17.8116 25.3824L16.6062 25.7035C16.7415 25.6047 16.6677 25.3948 16.6308 25.2651L16.3356 24.1723C16.2987 24.0426 16.2618 23.8203 16.0957 23.808V23.7956L16.6492 23.6475C16.5139 23.7524 16.5939 23.9623 16.6308 24.092L16.969 25.3516L17.3749 25.2713L17.3811 25.2775Z" fill="#004DA0"/>
<path id="Vector_34" d="M20.3709 23.9809C20.334 24.197 20.1556 24.376 19.965 24.4748C19.7928 24.5674 19.5714 24.6168 19.3869 24.5489C19.1593 24.4748 19.0671 24.2957 18.9687 24.1043L18.5812 23.4005C18.5197 23.2832 18.4275 23.0794 18.2676 23.1041L18.7719 22.8263C18.6673 22.9559 18.7903 23.1412 18.8518 23.2585L19.2393 23.9623C19.4299 24.3081 19.6698 24.3945 19.9465 24.2463C20.0941 24.1661 20.211 24.0241 20.2356 23.8574C20.2479 23.7462 20.211 23.6783 20.1618 23.5857L19.7251 22.7954C19.6636 22.6781 19.5652 22.4743 19.4053 22.499L19.9096 22.2212C19.8051 22.3509 19.9219 22.5361 19.9896 22.6534L20.5369 23.6474C20.6046 23.7648 20.6907 23.9685 20.8567 23.9438L20.4631 24.1599L20.3709 23.987V23.9809Z" fill="#004DA0"/>
<path id="Vector_35" d="M21.366 23.0794C21.4767 23.209 21.5505 23.3016 21.735 23.2708H21.7412L21.3291 23.6165C21.3906 23.4375 21.3168 23.3448 21.2061 23.2152L20.4312 22.2952C20.3205 22.1717 20.2467 22.0791 20.0684 22.11L20.4066 21.8198C20.4374 21.8445 20.4558 21.8445 20.4866 21.8507L20.5604 21.8692L22.307 22.2273L21.569 21.3567C21.4583 21.2271 21.3845 21.1345 21.2 21.1653L21.612 20.8196C21.5505 20.9986 21.6243 21.0851 21.735 21.2147L22.8236 22.5052C22.6145 22.5854 22.4792 22.5731 22.2639 22.5237L20.6219 22.1841L21.3722 23.0732L21.366 23.0794Z" fill="#004DA0"/>
<path id="Vector_36" d="M22.1595 20.7763C22.055 20.6837 21.9012 20.5231 21.7598 20.5972L22.1411 20.165C22.0857 20.3194 22.2641 20.4552 22.3625 20.5417L23.2173 21.2888C23.3219 21.3814 23.4695 21.5419 23.6171 21.4616H23.6232L23.2419 21.8938H23.2358C23.2973 21.7395 23.1189 21.6036 23.0144 21.5172L22.1595 20.7639V20.7763Z" fill="#004DA0"/>
<path id="Vector_37" d="M23.4323 19.3007C23.3032 19.1093 23.1556 18.887 22.9895 18.9981H22.9834L23.2417 18.6277L24.4963 20.4553C24.2626 20.5479 24.2011 20.5911 23.9551 20.5294L22.6759 20.2021C22.516 20.1589 22.3438 20.0972 22.1839 20.1466H22.1777L22.4299 19.7823L22.4545 19.807C22.5098 19.844 22.6636 19.8811 22.7312 19.8996L24.0842 20.2515L23.4262 19.3069L23.4323 19.3007Z" fill="#004DA0"/>
<path id="Vector_38" d="M25.0086 18.8993L25.2116 18.572C25.3161 18.3992 25.353 18.1892 25.2977 17.9978L25.599 18.2819L25.0455 19.4056H25.0394C25.0578 19.2389 24.8487 19.1586 24.7257 19.0969L23.6987 18.6029C23.5757 18.5412 23.385 18.43 23.262 18.5473H23.2559L23.6802 17.683C23.7048 17.6397 23.7294 17.5965 23.7294 17.5471L24.0492 17.6953C23.9078 17.7385 23.8463 17.8435 23.7848 17.967C23.7356 18.0596 23.6925 18.1584 23.6679 18.251L24.1722 18.498L24.3321 18.1769C24.3506 18.1337 24.3752 18.0905 24.3752 18.0534L24.6642 18.1831C24.5658 18.1954 24.5105 18.3127 24.4674 18.393L24.369 18.5906L25.0148 18.8993H25.0086Z" fill="#004DA0"/>
<path id="Vector_39" d="M24.0599 16.6088C24.189 16.226 24.4535 16.084 24.7179 16.1704C24.9701 16.2507 25.0992 16.5347 25.0746 16.7879L25.7265 16.5471C25.9172 16.473 26.1263 16.3433 26.28 16.2137L26.1939 16.473C26.1447 16.6273 26.0771 16.7076 25.9418 16.757L25.3944 16.9669L24.9024 17.0966C24.9455 16.8558 24.927 16.5594 24.6564 16.4668C24.4473 16.3989 24.269 16.5409 24.2136 16.7323C24.1952 16.8002 24.1829 16.862 24.1706 16.9299L25.4559 17.3436C25.5851 17.3868 25.7942 17.4732 25.8926 17.3436H25.8987L25.7204 17.8931H25.7142C25.7142 17.7264 25.4867 17.677 25.3637 17.6337L24.2751 17.288C24.1398 17.2448 23.9369 17.1583 23.8323 17.288H23.8262L24.0476 16.6088H24.0599Z" fill="#004DA0"/>
<path id="Vector_40" d="M24.8653 14.6762C24.73 14.775 24.6316 14.9478 24.6008 15.1084C24.5701 15.2751 24.6008 15.4973 24.8099 15.5282C25.2158 15.5961 25.3819 14.5774 25.9354 14.67C26.2552 14.7194 26.5012 15.1022 26.4213 15.5653C26.3905 15.7443 26.3352 15.9172 26.2429 16.0777L25.8554 16.1024C26.0338 15.9542 26.1753 15.7258 26.2122 15.4973C26.2429 15.3306 26.1814 15.059 25.9723 15.0219C25.5049 14.9478 25.4188 15.9789 24.7854 15.874C24.4102 15.8122 24.3302 15.4109 24.3917 15.0466C24.4163 14.8984 24.4594 14.7503 24.5332 14.6206L24.8715 14.6762H24.8653Z" fill="#004DA0"/>
<path id="Vector_41" d="M24.9578 14.1638C24.8164 14.1576 24.6011 14.1205 24.5335 14.2687H24.5273L24.5581 13.7007H24.5642C24.6134 13.855 24.841 13.8489 24.9763 13.855L26.114 13.9168C26.2493 13.923 26.4707 13.9538 26.5384 13.8118H26.5445L26.5138 14.3799H26.5076C26.4646 14.2255 26.237 14.2317 26.1017 14.2255L24.964 14.1638H24.9578Z" fill="#004DA0"/>
<path id="Vector_42" d="M26.1153 12.6201C26.2875 12.6077 26.4043 12.6077 26.4904 12.441H26.5027L26.5335 13.0337H26.5212C26.4535 12.8856 26.2383 12.9164 26.103 12.9226L24.7561 12.9967L24.7684 13.2622C24.7746 13.3918 24.8176 13.5215 24.9099 13.6079L24.547 13.5339C24.5593 13.4906 24.5593 13.4536 24.5593 13.4104V13.3363L24.4917 12.2187C24.4917 12.1693 24.4855 12.12 24.4609 12.0829V12.0706L24.8238 12.1446C24.7192 12.2002 24.7131 12.3175 24.7192 12.4163L24.7315 12.688L26.1091 12.6139L26.1153 12.6201Z" fill="#004DA0"/>
<path id="Vector_43" d="M25.8509 10.8234C26.0293 10.7864 26.1154 10.7679 26.1953 10.6012H26.2015L26.3183 11.1692H26.306C26.2015 11.0457 26.017 11.1013 25.8755 11.1322L25.4389 11.2186L24.7439 11.8669C24.6271 11.9719 24.5471 12.0521 24.4979 12.2065L24.4426 11.941C24.4241 11.8484 24.4241 11.7558 24.4795 11.7064L25.156 11.0828L24.5287 10.8296C24.4426 10.7926 24.2888 10.7555 24.2396 10.9346H24.2335L24.1289 10.4221L25.3774 10.9222L25.8448 10.8296L25.8509 10.8234Z" fill="#004DA0"/>
<path id="Vector_44" d="M3.72812 8.6995C3.72812 8.84151 3.61127 8.95882 3.46367 8.95882C3.31607 8.95882 3.19922 8.84151 3.19922 8.6995C3.19922 8.5575 3.31607 8.44019 3.46367 8.44019C3.61127 8.44019 3.72812 8.5575 3.72812 8.6995Z" fill="#004DA0"/>
<path id="Vector_45" d="M24.8902 8.6995C24.8902 8.84151 24.7734 8.95882 24.6258 8.95882C24.4782 8.95882 24.3613 8.84151 24.3613 8.6995C24.3613 8.5575 24.4782 8.44019 24.6258 8.44019C24.7734 8.44019 24.8902 8.5575 24.8902 8.6995Z" fill="#004DA0"/>
</g>
<path id="Vector_46" d="M14.8055 1.30883H14.5472V0.691406H14.2397V2.28436C14.1351 2.3955 13.9568 2.38933 13.9568 2.38933H13.0958C13.0958 2.38933 13.0712 2.37698 13.0712 2.36463V1.1236H13.9937V0.876634H12.7637V2.36463C12.7637 2.51281 12.8867 2.63012 13.0343 2.63012H13.9506C13.9506 2.63012 14.0982 2.64247 14.2397 2.56838V3.4266H14.5472V1.5558H14.8055V3.4266H15.113V0.691406H14.8055V1.30883Z" fill="#004DA0"/>
<path id="Vector_47" d="M4.8427 7.11267L5.62375 6.25445L6.31255 6.87188L6.5155 6.64343L5.83285 6.03218L6.60775 5.18013L6.42325 5.01343L4.6582 6.95214L4.8427 7.11267Z" fill="#004DA0"/>
<path id="Vector_48" d="M4.47969 6.37193C4.59039 6.47071 4.76259 6.46454 4.86099 6.3534L5.84499 5.27908C5.94339 5.16795 5.93724 5.00124 5.82654 4.90245L5.05779 4.21094L4.84869 4.43938L5.16234 4.71723L4.22754 5.74215L3.91389 5.46431L3.71094 5.68658L4.47969 6.3781V6.37193ZM5.34684 4.87776L5.62359 5.12473C5.62359 5.12473 5.63589 5.14942 5.62359 5.1556L4.71954 6.14348C4.71954 6.14348 4.69494 6.15583 4.68879 6.14348L4.41204 5.89651L5.34684 4.87158V4.87776Z" fill="#004DA0"/>
<path id="Vector_49" d="M9.70673 1.43237L9.42383 1.56203L10.2418 3.37109L10.5247 3.2476L10.0634 2.22268L10.4324 2.05597L10.334 1.8337L9.95888 1.99423L9.70673 1.43237Z" fill="#004DA0"/>
<path id="Vector_50" d="M9.25808 4.29116L8.95673 3.61816L8.67383 3.74165L8.97518 4.41464C9.03668 4.55048 9.19658 4.61222 9.33188 4.55048L10.814 3.89601L10.7095 3.67373L9.28268 4.30351C9.28268 4.30351 9.25808 4.30351 9.25193 4.29116H9.25808Z" fill="#004DA0"/>
<path id="Vector_51" d="M8.58628 2.2906L8.47558 2.0498L8.19268 2.17329L8.30338 2.41409C8.62933 3.1303 8.00203 3.58719 7.95898 3.61189L8.22958 3.71685C8.37103 3.59337 8.66623 3.29083 8.69083 2.90185C8.99833 3.14265 9.42268 3.12412 9.61333 3.1056L9.71788 2.83393C9.65638 2.84628 8.90608 3.00064 8.58013 2.2906H8.58628Z" fill="#004DA0"/>
<g id="Group_6">
<path id="Vector_52" d="M23.0882 5.84083L22.8791 5.62473L22.0919 6.34712L21.8397 6.08162L22.6269 5.35306L22.4178 5.13696L21.6306 5.85935L21.194 5.39628L21.0156 5.55681L22.7684 7.41526L22.9467 7.24856L22.301 6.56939L23.0882 5.84083Z" fill="#004DA0"/>
<path id="Vector_53" d="M23.3105 6.13721C22.9907 6.43357 22.7324 6.52619 22.7324 6.52619L22.9415 6.74846C22.9415 6.74846 23.1998 6.65585 23.5135 6.35948L24.3068 5.62475L22.9169 4.15527L22.7386 4.32198L23.9194 5.56918L23.3044 6.13721H23.3105Z" fill="#004DA0"/>
</g>
<g id="Group_7">
<path id="Vector_54" d="M20.2836 3.12405L20.382 2.90178L20.0069 2.74125L20.2529 2.17939L19.97 2.05591L19.3242 3.53155L19.6071 3.65504L19.9085 2.96352L20.2836 3.12405Z" fill="#004DA0"/>
<path id="Vector_55" d="M19.558 3.76634L17.7745 3.00073L17.6699 3.22301L19.1767 3.8713L18.8692 4.56282L19.1521 4.68013L19.558 3.76634Z" fill="#004DA0"/>
<path id="Vector_56" d="M19.6558 2.18566L18.9424 1.87695L19.0654 1.59911L18.7825 1.47562L18.6595 1.75964L17.9461 1.45093L17.8477 1.67938L18.1982 1.82756C18.0691 1.8893 17.9645 1.98809 17.9092 2.11775C17.7677 2.43263 17.9461 2.81544 18.3028 2.96979C18.6595 3.12415 19.0592 2.98832 19.2007 2.67343C19.256 2.54377 19.2622 2.39559 19.2191 2.26593L19.5635 2.41411L19.6619 2.18566H19.6558ZM18.3889 2.74752C18.1921 2.66108 18.0998 2.43881 18.1798 2.24123C18.2659 2.04983 18.4934 1.96339 18.6902 2.04983C18.887 2.13627 18.9793 2.35854 18.8932 2.54994C18.8071 2.74135 18.5795 2.82779 18.3827 2.74752H18.3889Z" fill="#004DA0"/>
</g>
<g id="Group_8">
<path id="Vector_57" d="M27.5723 13.5031C27.5723 20.9616 21.5146 27.0062 14.0361 27.0062C6.55775 27.0062 0.5 20.9616 0.5 13.5031C0.5 6.04459 6.55775 0 14.0361 0C21.5146 0 27.5723 6.04459 27.5723 13.5031ZM14.0361 0.185228C6.6623 0.185228 0.6845 6.14338 0.6845 13.5031C0.6845 20.8628 6.6623 26.8209 14.0361 26.8209C21.41 26.8209 27.3878 20.8566 27.3878 13.5031C27.3878 6.14956 21.41 0.185228 14.0361 0.185228Z" fill="#004DA0"/>
<path id="Vector_58" d="M23.8451 13.503C23.8451 18.9055 19.454 23.2892 14.0358 23.2892C8.61766 23.2892 4.22656 18.9055 4.22656 13.503C4.22656 8.10052 8.61766 3.7168 14.0358 3.7168C19.454 3.7168 23.8451 8.09434 23.8451 13.503ZM14.0358 3.90202C8.72221 3.90202 4.41106 8.1993 4.41106 13.503C4.41106 18.8067 8.72221 23.1039 14.0358 23.1039C19.3494 23.1039 23.6606 18.8067 23.6606 13.503C23.6606 8.1993 19.3494 3.90202 14.0358 3.90202Z" fill="#004DA0"/>
</g>
</g>
</g>
<g id="Group_9">
<g id="Group_10">
<path id="Vector_59" d="M18.7233 20.1529H8.04688V19.486H18.7294C19.9041 19.486 20.8573 18.529 20.8573 17.3497C20.8573 16.1705 19.9041 15.2134 18.7294 15.2134H8.04688V14.5466H18.7294C20.2669 14.5466 21.5154 15.8 21.5154 17.3436C21.5154 18.8871 20.2669 20.1405 18.7294 20.1405L18.7233 20.1529Z" fill="#0C54B1"/>
<g id="Group_11">
<path id="Vector_60" d="M10.2554 16.8433C10.2554 17.0903 10.1816 17.2817 10.0463 17.4113C9.90486 17.5472 9.69576 17.6151 9.42516 17.6151H8.95161V18.5289C8.95161 18.5721 8.92701 18.5968 8.88396 18.5968H8.57031V16.0715H9.43131C9.70806 16.0715 9.91716 16.1394 10.0586 16.2753C10.1939 16.4111 10.2677 16.6025 10.2677 16.8495L10.2554 16.8433ZM9.40671 17.3064C9.54201 17.3064 9.65886 17.2693 9.74496 17.1952C9.83106 17.1212 9.87411 17.01 9.87411 16.8495C9.87411 16.689 9.83106 16.5778 9.74496 16.4976C9.65886 16.4235 9.54201 16.3802 9.40671 16.3802H8.94546V17.3064H9.40671Z" fill="#0C54B1"/>
<path id="Vector_61" d="M12.1866 18.5968L11.0858 16.4543V18.5289C11.0858 18.5721 11.0612 18.5968 11.0181 18.5968H10.7168V16.0715H11.2211L12.3219 18.1831V16.0715H12.6909V18.5289C12.6909 18.5721 12.6663 18.5968 12.6233 18.5968H12.1866Z" fill="#0C54B1"/>
<path id="Vector_62" d="M14.2351 18.6338C14.0998 18.6338 13.9768 18.6153 13.8599 18.5783C13.7431 18.5412 13.6385 18.4857 13.5524 18.4054C13.4663 18.3251 13.3925 18.2263 13.3433 18.0967C13.2941 17.9732 13.2695 17.8188 13.2695 17.6398V16.0715H13.657V17.6892C13.657 17.8065 13.6693 17.9053 13.7 17.9794C13.7246 18.0596 13.7615 18.1276 13.8169 18.1708C13.8661 18.2263 13.9276 18.2634 13.9952 18.2819C14.0629 18.3066 14.1428 18.319 14.2289 18.319C14.3089 18.319 14.3888 18.3066 14.4626 18.2819C14.5303 18.2634 14.5918 18.2263 14.641 18.1708C14.6902 18.1214 14.7271 18.0596 14.7578 17.9794C14.7824 17.8991 14.8009 17.8003 14.8009 17.6892V16.0715H15.1883V17.6398C15.1883 17.8188 15.1637 17.9732 15.1145 18.0967C15.0653 18.2263 14.9977 18.3313 14.9116 18.4054C14.8255 18.4857 14.7209 18.5412 14.6041 18.5783C14.4872 18.6153 14.3581 18.6338 14.2289 18.6338H14.2351Z" fill="#0C54B1"/>
<path id="Vector_63" d="M16.6326 18.5969C16.5772 18.5969 16.5588 18.5722 16.5772 18.5166L17.4321 16.0654H17.8441L18.6928 18.5166C18.7113 18.566 18.6928 18.5969 18.6375 18.5969H18.33L18.1147 17.9486H17.1553L16.9462 18.5969H16.6326ZM17.2476 17.6707H18.0163L17.6289 16.5038L17.2476 17.6707Z" fill="#0C54B1"/>
<path id="Vector_64" d="M19.1055 18.5968V16.0715H19.4868V18.5289C19.4868 18.5721 19.4622 18.5968 19.4191 18.5968H19.1055Z" fill="#0C54B1"/>
</g>
</g>
<g id="Group_12">
<path id="Vector_65" d="M11.4962 11.8606C11.6684 11.8606 11.8344 11.8977 11.9882 11.9718C11.9882 11.9718 11.9882 11.9718 11.9882 11.9656C11.9882 11.6013 12.2465 11.2926 12.5847 11.2123L12.8246 10.3418C12.677 10.1998 12.5909 9.99602 12.5909 9.7861C12.5909 9.36007 12.9353 9.01432 13.3596 9.01432C13.5134 9.01432 13.661 9.06371 13.7901 9.14398L15.0201 8.50185C15.0078 8.43394 15.0017 8.36602 15.0017 8.29193C15.0017 8.21166 15.0078 8.1314 15.0263 8.05731L14.4789 7.74242C14.3313 7.84738 14.153 7.90913 13.9623 7.90913C13.4765 7.90913 13.0767 7.51397 13.0767 7.02003C13.0767 6.52609 13.4703 6.13094 13.9623 6.13094C14.1345 6.13094 14.2944 6.18033 14.4297 6.26677C14.4174 6.20503 14.4113 6.14329 14.4113 6.07537C14.4113 5.90867 14.4605 5.75431 14.5404 5.61848C11.8959 5.40238 11.4531 7.1003 11.3301 7.75477C11.2994 7.9153 11.1948 8.05113 11.0411 8.11288L9.73112 8.65621C9.47282 8.76735 9.39902 9.10076 9.59582 9.31068L9.90332 9.63174C10.0263 9.7614 10.0263 9.95898 9.90332 10.0886L9.63887 10.3665C9.56507 10.4406 9.56507 10.5641 9.63887 10.6381C9.74957 10.7555 9.75572 10.9407 9.63887 11.058L9.56507 11.1383C9.49742 11.2123 9.49742 11.3297 9.56507 11.4038L9.60812 11.4531C9.67577 11.5272 9.68192 11.6445 9.61427 11.7248C9.54047 11.8174 9.44207 11.9409 9.34982 12.0829C9.20222 12.3052 9.22067 12.6077 9.41132 12.793C9.66347 13.0461 9.99557 13.256 10.3953 13.4289C10.3461 13.3054 10.3215 13.1634 10.3215 13.0214C10.3215 12.3793 10.8443 11.8545 11.4839 11.8545L11.4962 11.8606ZM12.0066 8.11905C12.0435 8.09435 12.0927 8.09435 12.1296 8.11905L12.6155 8.50185C12.6462 8.52655 12.6278 8.58212 12.5909 8.58212H11.9574C11.9021 8.58212 11.859 8.5389 11.859 8.48333C11.859 8.27341 11.9513 8.16227 12.0128 8.11905H12.0066Z" fill="url(#paint0_linear_1271_20652)"/>
<path id="Vector_66" d="M14.2753 13.077C14.2753 13.077 14.2753 13.0647 14.2753 13.0523L13.2175 12.5769C13.0822 12.6757 12.9223 12.7374 12.7501 12.7374C12.7009 12.7374 12.6579 12.7374 12.6087 12.7251C12.6333 12.8239 12.6456 12.9227 12.6456 13.0276C12.6456 13.3734 12.4918 13.6821 12.252 13.8982C13.0392 13.9846 13.8633 13.9661 14.632 13.8303C14.4106 13.6574 14.2692 13.3857 14.2692 13.0832L14.2753 13.077Z" fill="#0052B1"/>
<path id="Vector_67" d="M19.8355 10.0702C19.7125 10.0702 19.5957 10.1196 19.5157 10.1999L17.0188 8.68718C17.0742 8.56369 17.1111 8.42786 17.1111 8.28585C17.1111 8.16237 17.0865 8.03888 17.0373 7.92775L17.9659 7.40294C18.1012 7.56964 18.3042 7.68078 18.5317 7.68078C18.9315 7.68078 19.2574 7.35354 19.2574 6.95222C19.2574 6.55089 18.9315 6.22365 18.5317 6.22365C18.132 6.22365 17.806 6.55089 17.806 6.95222C17.806 7.04483 17.8245 7.13127 17.8552 7.20536L16.9266 7.73017C16.8589 7.64373 16.779 7.56347 16.6867 7.50172L16.9942 6.87812C17.025 6.8843 17.0557 6.89047 17.0926 6.89047C17.3448 6.89047 17.5477 6.68672 17.5477 6.43358C17.5477 6.18043 17.3448 5.97668 17.0926 5.97668C16.8405 5.97668 16.6375 6.18043 16.6375 6.43358C16.6375 6.57559 16.699 6.69907 16.7974 6.78551L16.4899 7.40911C16.3915 7.37206 16.2931 7.35354 16.1824 7.35354C16.1025 7.35354 16.0225 7.36589 15.9426 7.38441L15.6289 6.59411C15.8073 6.48297 15.9241 6.2854 15.9241 6.06312C15.9241 5.71736 15.6412 5.43335 15.2968 5.43335C14.9524 5.43335 14.6695 5.71736 14.6695 6.06312C14.6695 6.40888 14.9524 6.6929 15.2968 6.6929C15.3399 6.6929 15.3829 6.6929 15.426 6.68055L15.7396 7.46468C15.6228 7.52642 15.5244 7.61903 15.4444 7.724L14.5527 7.21153C14.5773 7.14362 14.5896 7.0757 14.5896 7.00161C14.5896 6.65585 14.3067 6.37184 13.9623 6.37184C13.6179 6.37184 13.335 6.65585 13.335 7.00161C13.335 7.34737 13.6179 7.63138 13.9623 7.63138C14.1529 7.63138 14.3251 7.54494 14.442 7.40294L15.3276 7.90922C15.2784 8.02036 15.2538 8.14385 15.2538 8.26733C15.2538 8.38464 15.2784 8.50195 15.3214 8.60691L13.747 9.42809C13.6548 9.31695 13.5133 9.24286 13.3534 9.24286C13.0705 9.24286 12.843 9.47131 12.843 9.75533C12.843 9.9529 12.9537 10.1258 13.1136 10.2122L12.7753 11.4285C12.7753 11.4285 12.7569 11.4285 12.7446 11.4285C12.4617 11.4285 12.2341 11.657 12.2341 11.941C12.2341 12.0275 12.2526 12.1077 12.2956 12.1818L12.105 12.3423C11.9451 12.1942 11.7298 12.0954 11.49 12.0954C10.9918 12.0954 10.5859 12.5029 10.5859 13.003C10.5859 13.5031 10.9918 13.9106 11.49 13.9106C11.9881 13.9106 12.394 13.5031 12.394 13.003C12.394 12.8239 12.3387 12.651 12.2464 12.509L12.4371 12.3485C12.5232 12.4164 12.6339 12.4535 12.7507 12.4535C12.9168 12.4535 13.0705 12.3732 13.1628 12.2435L14.5527 12.8733C14.5404 12.9289 14.5281 12.9906 14.5281 13.0524C14.5281 13.4352 14.8356 13.7439 15.2169 13.7439C15.5982 13.7439 15.9057 13.4352 15.9057 13.0524C15.9057 12.6696 15.5982 12.3609 15.2169 12.3609C15.2169 12.3609 15.2046 12.3609 15.1984 12.3609L15.0324 11.4594C15.3399 11.3545 15.5613 11.0643 15.5613 10.7185C15.5613 10.4654 15.4383 10.2431 15.2538 10.0949L15.8073 9.10085C15.918 9.15025 16.0471 9.18112 16.1763 9.18112C16.287 9.18112 16.3854 9.1626 16.4838 9.12555L17.2956 11.0457C17.1295 11.1569 17.0188 11.3483 17.0188 11.5644C17.0188 11.9101 17.3017 12.1942 17.6461 12.1942C17.9905 12.1942 18.2734 11.9101 18.2734 11.5644C18.2734 11.2186 17.9905 10.9346 17.6461 10.9346C17.5969 10.9346 17.5477 10.9408 17.4985 10.9531L16.6806 9.02059C16.7605 8.9712 16.8282 8.90328 16.8897 8.83536L19.3927 10.3481C19.3804 10.3913 19.3743 10.4345 19.3743 10.4839C19.3743 10.737 19.5772 10.9408 19.8294 10.9408C20.0815 10.9408 20.2845 10.737 20.2845 10.4839C20.2845 10.2307 20.0815 10.027 19.8294 10.027L19.8355 10.0702ZM18.5317 6.4521C18.8085 6.4521 19.036 6.68055 19.036 6.95839C19.036 7.23623 18.8085 7.46468 18.5317 7.46468C18.255 7.46468 18.0274 7.23623 18.0274 6.95839C18.0274 6.68055 18.255 6.4521 18.5317 6.4521ZM17.0988 6.20513C17.2279 6.20513 17.3325 6.31009 17.3325 6.43975C17.3325 6.56941 17.2279 6.67437 17.0988 6.67437C16.9696 6.67437 16.8651 6.56941 16.8651 6.43975C16.8651 6.31009 16.9696 6.20513 17.0988 6.20513ZM15.2968 6.48297C15.0754 6.48297 14.8909 6.29774 14.8909 6.07547C14.8909 5.8532 15.0754 5.66797 15.2968 5.66797C15.5182 5.66797 15.7027 5.8532 15.7027 6.07547C15.7027 6.29774 15.5182 6.48297 15.2968 6.48297ZM13.9684 7.42763C13.747 7.42763 13.5625 7.24241 13.5625 7.02013C13.5625 6.79786 13.747 6.61263 13.9684 6.61263C14.1898 6.61263 14.3743 6.79786 14.3743 7.02013C14.3743 7.24241 14.1898 7.42763 13.9684 7.42763ZM11.4961 13.7068C11.121 13.7068 10.8135 13.3981 10.8135 13.0215C10.8135 12.6449 11.121 12.3362 11.4961 12.3362C11.8713 12.3362 12.1788 12.6449 12.1788 13.0215C12.1788 13.3981 11.8713 13.7068 11.4961 13.7068ZM17.6584 11.2001C17.8798 11.2001 18.0643 11.3853 18.0643 11.6076C18.0643 11.8299 17.8798 12.0151 17.6584 12.0151C17.437 12.0151 17.2525 11.8299 17.2525 11.6076C17.2525 11.3853 17.437 11.2001 17.6584 11.2001ZM13.0705 9.78002C13.0705 9.61949 13.1997 9.48366 13.3657 9.48366C13.5318 9.48366 13.6609 9.61332 13.6609 9.78002C13.6609 9.94673 13.5318 10.0764 13.3657 10.0764C13.1997 10.0764 13.0705 9.94673 13.0705 9.78002ZM12.7569 12.2559C12.597 12.2559 12.4617 12.1262 12.4617 11.9595C12.4617 11.7928 12.5908 11.6632 12.7569 11.6632C12.9229 11.6632 13.0521 11.7928 13.0521 11.9595C13.0521 12.1262 12.9229 12.2559 12.7569 12.2559ZM14.6511 12.7004L13.2612 12.0707C13.2673 12.0336 13.2735 12.0028 13.2735 11.9657C13.2735 11.7681 13.1628 11.5953 13.0029 11.5088L13.3411 10.2925C13.3411 10.2925 13.3596 10.2925 13.3719 10.2925C13.5133 10.2925 13.6425 10.2307 13.7347 10.1381L14.0791 10.4221C14.0361 10.5209 14.0053 10.6321 14.0053 10.7494C14.0053 11.1816 14.3559 11.5335 14.7864 11.5335C14.7987 11.5335 14.811 11.5335 14.8233 11.5335L14.9893 12.435C14.8479 12.4843 14.731 12.577 14.6511 12.7004ZM15.223 12.614C15.4813 12.614 15.6904 12.8239 15.6904 13.0832C15.6904 13.3426 15.4813 13.5525 15.223 13.5525C14.9647 13.5525 14.7556 13.3426 14.7556 13.0832C14.7556 12.8239 14.9647 12.614 15.223 12.614ZM15.346 10.7494C15.346 11.0581 15.0939 11.3112 14.7864 11.3112C14.4789 11.3112 14.2267 11.0581 14.2267 10.7494C14.2267 10.4407 14.4789 10.1875 14.7864 10.1875C15.0939 10.1875 15.346 10.4407 15.346 10.7494ZM15.0631 10.0208C14.977 9.98377 14.8786 9.96525 14.7802 9.96525C14.5465 9.96525 14.3374 10.0702 14.1898 10.2369L13.8393 9.9529C13.8577 9.89733 13.87 9.84176 13.87 9.78002C13.87 9.73063 13.8639 9.68741 13.8516 9.64419L15.426 8.82301C15.4813 8.8971 15.5428 8.96502 15.6166 9.02059L15.057 10.0146L15.0631 10.0208ZM16.1886 8.99589C15.8011 8.99589 15.4875 8.68101 15.4875 8.29203C15.4875 7.90305 15.8011 7.58816 16.1886 7.58816C16.576 7.58816 16.8897 7.90305 16.8897 8.29203C16.8897 8.68101 16.576 8.99589 16.1886 8.99589ZM19.8355 10.7617C19.7064 10.7617 19.6018 10.6568 19.6018 10.5271C19.6018 10.3974 19.7064 10.2925 19.8355 10.2925C19.9647 10.2925 20.0692 10.3974 20.0692 10.5271C20.0692 10.6568 19.9647 10.7617 19.8355 10.7617Z" fill="#04B5CF"/>
<path id="Vector_68" d="M16.2216 8.77585C16.4892 8.75673 16.6907 8.52341 16.6717 8.2547C16.6527 7.98599 16.4202 7.78366 16.1526 7.80278C15.8849 7.8219 15.6834 8.05523 15.7025 8.32394C15.7215 8.59264 15.9539 8.79497 16.2216 8.77585Z" fill="#0052B1"/>
<path id="Vector_69" d="M13.9691 6.84717C13.8768 6.84717 13.7969 6.92126 13.7969 7.02005C13.7969 7.11883 13.8707 7.19293 13.9691 7.19293C14.0675 7.19293 14.1413 7.11883 14.1413 7.02005C14.1413 6.92126 14.0675 6.84717 13.9691 6.84717Z" fill="#04B5CF"/>
<path id="Vector_70" d="M17.6585 11.7742C17.7508 11.7742 17.8307 11.7001 17.8307 11.6013C17.8307 11.5026 17.7569 11.4285 17.6585 11.4285C17.5601 11.4285 17.4863 11.5026 17.4863 11.6013C17.4863 11.7001 17.5601 11.7742 17.6585 11.7742Z" fill="#04B5CF"/>
<path id="Vector_71" d="M15.2972 5.90259C15.2049 5.90259 15.125 5.97668 15.125 6.07547C15.125 6.17425 15.1988 6.24835 15.2972 6.24835C15.3956 6.24835 15.4694 6.17425 15.4694 6.07547C15.4694 5.97668 15.3956 5.90259 15.2972 5.90259Z" fill="#04B5CF"/>
<path id="Vector_72" d="M15.2226 13.324C15.3584 13.324 15.4686 13.2134 15.4686 13.077C15.4686 12.9407 15.3584 12.8301 15.2226 12.8301C15.0867 12.8301 14.9766 12.9407 14.9766 13.077C14.9766 13.2134 15.0867 13.324 15.2226 13.324Z" fill="#04B5CF"/>
<path id="Vector_73" d="M18.5312 7.20537C18.6665 7.20537 18.7772 7.09423 18.7772 6.9584C18.7772 6.82256 18.6665 6.71143 18.5312 6.71143C18.3959 6.71143 18.2852 6.82256 18.2852 6.9584C18.2852 7.09423 18.3959 7.20537 18.5312 7.20537Z" fill="#04B5CF"/>
<path id="Vector_74" d="M14.7802 11.0581C14.95 11.0581 15.0877 10.9199 15.0877 10.7494C15.0877 10.5789 14.95 10.4407 14.7802 10.4407C14.6103 10.4407 14.4727 10.5789 14.4727 10.7494C14.4727 10.9199 14.6103 11.0581 14.7802 11.0581Z" fill="#04B5CF"/>
<path id="Vector_75" d="M11.4957 12.6633C11.2927 12.6633 11.1328 12.8239 11.1328 13.0276C11.1328 13.2314 11.2927 13.3919 11.4957 13.3919C11.6986 13.3919 11.8585 13.2314 11.8585 13.0276C11.8585 12.8239 11.6986 12.6633 11.4957 12.6633Z" fill="#0052B1"/>
</g>
</g>
</g>
</g>
<defs>
<linearGradient id="paint0_linear_1271_20652" x1="9.62657" y1="8.43394" x2="13.9482" y2="10.0712" gradientUnits="userSpaceOnUse">
<stop offset="0.09" stop-color="#04B7D1"/>
<stop offset="1" stop-color="#0052B1"/>
</linearGradient>
<clipPath id="clip0_1271_20652">
<rect width="123" height="27" fill="white" transform="translate(0.5)"/>
</clipPath>
</defs>
</svg>
