<svg width="88" height="27" viewBox="0 0 88 27" fill="none" xmlns="http://www.w3.org/2000/svg">
<g id="_&#235;&#160;&#136;&#236;&#157;&#180;&#236;&#150;&#180;_1" clip-path="url(#clip0_1271_20292)">
<path id="Vector" d="M54.9862 12.567C66.1049 6.86676 64.7146 1.41746 53.3978 0.290631C41.2054 -0.919835 23.3898 1.70358 10.9818 6.71711L9.26135 7.45659C-3.66585 13.236 -2.44265 19.3588 9.09855 20.4724C21.7046 21.6917 40.871 19.2003 53.4198 13.3549L54.9862 12.5714V12.567Z" fill="#013D88"/>
<path id="Vector_2" d="M52.5846 13.6848C52.5846 13.6848 50.4594 13.8564 50.411 12.1442V8.8297C50.411 8.8297 50.147 7.003 52.5274 7.003C52.5274 7.003 54.0762 6.95018 54.4854 7.87453C54.4854 7.87453 54.6878 8.12103 54.635 9.13782H52.985V8.61842C52.985 8.61842 52.985 8.19586 52.5538 8.19586C52.5538 8.19586 52.105 8.21346 52.105 8.5656V11.9945C52.105 11.9945 52.0874 12.4567 52.589 12.4567C52.589 12.4567 53.0026 12.4479 53.0026 11.9637V10.9733H52.5538V10.049H54.6746V11.9945C54.6746 11.9945 54.6702 12.4039 54.4986 12.6416C54.4986 12.6416 54.327 12.9013 54.261 12.9497C54.261 12.9497 53.689 13.6848 52.5846 13.6848Z" fill="white"/>
<path id="Vector_3" d="M48.216 7.24951H46.566L46.6848 11.0482H46.61L44.9336 7.25391H42.9316V13.5087H44.564L44.4628 9.68365H44.5376L46.2712 13.5087H48.216V7.24951Z" fill="white"/>
<path id="Vector_4" d="M37.9848 7.22315H36.1984V11.9154C36.1984 11.9154 36.0136 13.6892 38.5216 13.6892C38.5216 13.6892 40.6996 13.7157 40.6996 11.9946V7.21875H38.9528V11.9374C38.9528 11.9374 38.9748 12.4524 38.4996 12.4524C38.4996 12.4524 37.998 12.4788 37.998 11.9506V7.21875L37.9848 7.22315Z" fill="white"/>
<path id="Vector_5" d="M34.1442 9.15983V8.37632C34.1442 8.37632 34.2674 7.09103 32.1994 7.03381C32.1994 7.03381 30.5758 6.92817 30.1094 7.7997C30.1094 7.7997 29.9246 7.99778 29.9246 8.67564V9.16863C29.9246 9.16863 29.907 9.73645 30.1974 10.1018C30.1974 10.1018 30.3602 10.3395 30.765 10.6036C30.765 10.6036 31.5834 11.0438 32.0762 11.2991C32.0762 11.2991 32.5734 11.5808 32.5074 12.0341C32.5074 12.0341 32.4678 12.4963 31.9882 12.4787C31.9882 12.4787 31.5526 12.4611 31.5526 12.0077V11.4751H29.797V12.2498C29.797 12.2498 29.7486 13.7288 32.0014 13.7288C32.0014 13.7288 34.153 13.7728 34.2542 12.2102V11.5808C34.2542 11.5808 34.329 10.6256 33.493 10.1194C33.493 10.1194 33.0442 9.84209 32.767 9.73645C32.767 9.73645 31.909 9.3403 31.7418 9.15102C31.7418 9.15102 31.4074 8.8341 31.6054 8.47316C31.6054 8.47316 31.689 8.23107 32.041 8.23107C32.041 8.23107 32.503 8.25748 32.503 8.63602V9.16863H34.1486L34.1442 9.15983Z" fill="white"/>
<path id="Vector_6" d="M21.1032 7.24951L20.9668 13.5087H22.5948L22.6168 8.79451H22.7444L23.6068 13.5087H25.3184L26.172 8.79451H26.2864L26.326 13.5087H27.9628L27.7868 7.24951H25.0632L24.5088 10.674H24.3812L23.8532 7.24951H21.1032Z" fill="white"/>
<path id="Vector_7" d="M19.2195 13.5043L18.1371 7.24512H15.3695L14.2871 13.5043H16.0383L16.6807 8.64926H16.8215L17.4639 13.5043H19.2195Z" fill="white"/>
<path id="Vector_8" d="M12.566 9.15983V8.37632C12.566 8.37632 12.6892 7.09103 10.6212 7.03381C10.6212 7.03381 8.99763 6.92817 8.53123 7.7997C8.53123 7.7997 8.34643 7.99778 8.34643 8.67564V9.16863C8.34643 9.16863 8.32883 9.73645 8.61923 10.1018C8.61923 10.1018 8.78203 10.3395 9.18683 10.6036C9.18683 10.6036 10.0052 11.0438 10.498 11.2991C10.498 11.2991 10.9952 11.5808 10.9292 12.0341C10.9292 12.0341 10.8896 12.4963 10.41 12.4787C10.41 12.4787 9.97443 12.4611 9.97443 12.0077V11.4751H8.21883V12.2498C8.21883 12.2498 8.17043 13.7288 10.4232 13.7288C10.4232 13.7288 12.5792 13.7728 12.6804 12.2102V11.5808C12.6804 11.5808 12.7552 10.6256 11.9192 10.1194C11.9192 10.1194 11.4704 9.84209 11.1932 9.73645C11.1932 9.73645 10.3352 9.3403 10.168 9.15102C10.168 9.15102 9.83363 8.8341 10.0272 8.47316C10.0272 8.47316 10.1108 8.23107 10.4628 8.23107C10.4628 8.23107 10.9248 8.25748 10.9248 8.63602V9.16863H12.5704L12.566 9.15983Z" fill="white"/>
<path id="Vector_9" d="M74.4125 17.8577H73.2949V20.8068H74.4125V17.8577Z" fill="#013D88"/>
<path id="Vector_10" d="M79.1606 17.8577H78.043V20.8068H79.1606V17.8577Z" fill="#013D88"/>
<path id="Vector_11" d="M78.7419 17.8533H73.8887V18.8128H78.7419V17.8533Z" fill="#013D88"/>
<path id="Vector_12" d="M78.7419 19.8428H73.8887V20.8023H78.7419V19.8428Z" fill="#013D88"/>
<path id="Vector_13" d="M79.8078 21.3613H72.627V22.3209H79.8078V21.3613Z" fill="#013D88"/>
<path id="Vector_14" d="M76.7446 21.9204H75.627V23.4918H76.7446V21.9204Z" fill="#013D88"/>
<path id="Vector_15" d="M79.1567 22.8977H78.0391V25.2438H79.1567V22.8977Z" fill="#013D88"/>
<path id="Vector_16" d="M74.4125 24.2974H73.2949V26.7623H74.4125V24.2974Z" fill="#013D88"/>
<path id="Vector_17" d="M78.7426 22.9021H73.2734V23.8617H78.7426V22.9021Z" fill="#013D88"/>
<path id="Vector_18" d="M79.1556 24.2974H73.4004V25.2569H79.1556V24.2974Z" fill="#013D88"/>
<path id="Vector_19" d="M79.1556 25.8071H73.4004V26.7667H79.1556V25.8071Z" fill="#013D88"/>
<path id="Vector_20" d="M86.9574 17.6245H85.8398V23.8837H86.9574V17.6245Z" fill="#013D88"/>
<path id="Vector_21" d="M88.0003 19.6843H86.1523V20.6439H88.0003V19.6843Z" fill="#013D88"/>
<path id="Vector_22" d="M82.6098 22.8271H81.4922V26.7403H82.6098V22.8271Z" fill="#013D88"/>
<path id="Vector_23" d="M87.0004 25.7852H81.6016V26.7447H87.0004V25.7852Z" fill="#013D88"/>
<path id="Vector_24" d="M82.6054 20.0805C82.2622 21.1765 80.8674 22.0964 80.8674 22.0964L80.2734 21.2733C82.2182 20.2962 82.0686 17.7388 82.0686 17.7388H83.1422C83.1422 17.7388 82.9882 20.3006 84.9374 21.2733L84.3434 22.0964C84.3434 22.0964 82.953 21.1809 82.6098 20.0805" fill="#013D88"/>
<path id="Vector_25" d="M62.7129 17.7036V22.431H63.8525V20.6704H64.8601V19.702H63.8701V17.7036H62.7129Z" fill="#013D88"/>
<path id="Vector_26" d="M62.7569 23.7647H59.5273V25.7455H62.7569V23.7647ZM58.4141 22.8184H63.8701V26.6875H58.4141V22.8184Z" fill="#013D88"/>
<path id="Vector_27" d="M70.8084 24.6891C70.8084 23.976 69.9548 23.3994 68.8988 23.3994C67.8428 23.3994 66.9892 23.976 66.9892 24.6891C66.9892 25.4021 67.8428 25.9788 68.8988 25.9788C69.9548 25.9788 70.8084 25.4021 70.8084 24.6891ZM68.8988 27C67.2048 27 65.832 25.9656 65.832 24.6891C65.832 23.4126 67.2048 22.3782 68.8988 22.3782C70.5928 22.3782 71.97 23.4126 71.97 24.6891C71.97 25.9656 70.5972 27 68.8988 27Z" fill="#013D88"/>
<path id="Vector_28" d="M59.9725 17.8796C59.9725 17.8796 59.8185 20.437 61.8909 21.4978L61.2969 22.3209C61.2969 22.3209 59.7789 21.3174 59.4357 20.2213C59.0925 21.3174 57.5745 22.3209 57.5745 22.3209L56.9805 21.4978C59.0529 20.437 58.8989 17.8796 58.8989 17.8796H59.9725Z" fill="#013D88"/>
<path id="Vector_29" d="M67.1538 20.2213C66.8106 21.3174 65.4202 22.2373 65.4202 22.2373L64.8262 21.4142C66.771 20.4414 66.617 17.884 66.617 17.884H67.6906C67.6906 17.884 67.5366 20.4414 69.4814 21.4142L68.8874 22.2373C68.8874 22.2373 67.497 21.3218 67.1538 20.2213Z" fill="#013D88"/>
<path id="Vector_30" d="M71.7454 17.6992V22.431H70.6058V20.2566H69.123V19.2882H70.5838V17.6992H71.7454Z" fill="#013D88"/>
</g>
<defs>
<clipPath id="clip0_1271_20292">
<rect width="88" height="27" fill="white"/>
</clipPath>
</defs>
</svg>
