<svg width="143" height="27" viewBox="0 0 143 27" fill="none" xmlns="http://www.w3.org/2000/svg">
<g id="_&#235;&#160;&#136;&#236;&#157;&#180;&#236;&#150;&#180;_1" clip-path="url(#clip0_1271_20583)">
<path id="Vector" d="M33.0114 0.0428659C38.8243 -0.293204 42.8712 1.27274 45.0305 6.96448C46.8037 11.648 46.7036 22.5667 42.0919 25.6843C38.0021 28.4515 35.8928 24.1684 33.1901 21.9947C27.3557 17.2968 20.792 17.354 14.071 20.1642C10.639 21.6014 5.29084 25.3268 1.51564 23.9467C-1.53741 22.8384 0.800644 19.3419 2.00184 17.6401C8.00069 9.20256 22.6153 0.636351 33.0114 0.0428659ZM34.9204 3.1247C32.2392 3.41072 30.0584 5.69885 31.4956 8.39456C33.6334 12.4059 41.8202 11.7696 41.1767 6.99308C40.8049 4.26162 37.38 2.86013 34.9204 3.1247Z" fill="#0E325A"/>
<g id="Group">
<path id="Vector_2" d="M60.4675 25.2553H59.252V19.3777H60.4675V25.2553Z" fill="#A8A7A7"/>
<path id="Vector_3" d="M62.6276 25.2553H61.4336V20.8578H62.5776V21.6229H62.6276C62.8278 21.1152 63.2997 20.8006 63.9575 20.7935C64.8727 20.8006 65.4805 21.4227 65.4662 22.4524V25.2553H64.2721V22.6669C64.2721 22.1163 63.979 21.7945 63.4785 21.7874C62.978 21.7945 62.6419 22.1306 62.6348 22.7026V25.2625L62.6276 25.2553Z" fill="#A8A7A7"/>
<path id="Vector_4" d="M68.7184 21.7517H67.889V23.9111C67.889 24.2543 68.0606 24.3402 68.3037 24.3402C68.4253 24.3473 68.6326 24.333 68.7828 24.3258V25.2697C68.6469 25.284 68.4324 25.3126 68.1536 25.3198C67.2741 25.3126 66.6807 24.9193 66.695 24.0613V21.7517H66.0801V20.8579H66.695V19.7925H67.889V20.8579H68.7184V21.7517Z" fill="#A8A7A7"/>
<path id="Vector_5" d="M69.2324 23.0816C69.2396 21.723 70.0761 20.8006 71.3774 20.7935C72.5214 20.8006 73.4366 21.53 73.4366 23.0387V23.3676H70.4336C70.4336 24.0326 70.8269 24.4473 71.4489 24.4473C71.8565 24.4473 72.1496 24.2614 72.264 24.0183H73.408C73.2364 24.8263 72.5143 25.3483 71.4346 25.3483C70.0761 25.3483 69.2539 24.4759 69.2396 23.0887L69.2324 23.0816ZM72.3069 22.6168C72.2998 22.0805 71.928 21.6944 71.3917 21.6873C70.8269 21.6944 70.4479 22.1091 70.4265 22.6168H72.2998H72.3069Z" fill="#A8A7A7"/>
<path id="Vector_6" d="M75.3815 25.2553H74.1875V19.3777H75.3815V25.2553Z" fill="#A8A7A7"/>
<path id="Vector_7" d="M77.5202 25.2553H76.3262V19.3777H77.5202V25.2553Z" fill="#A8A7A7"/>
<path id="Vector_8" d="M79.0653 19.0631C79.4228 19.056 79.716 19.3277 79.716 19.6638C79.716 19.9998 79.4228 20.2787 79.0653 20.2787C78.7078 20.2787 78.4075 20.007 78.4004 19.6638C78.4075 19.3348 78.7007 19.056 79.0653 19.0631ZM78.4719 20.8579H79.6659V25.2554H78.4719V20.8579Z" fill="#A8A7A7"/>
<path id="Vector_9" d="M80.5597 25.6271H81.7395C81.8038 25.9775 82.1399 26.1348 82.6189 26.142C83.1766 26.1348 83.5484 25.8989 83.5484 25.2982V24.4831H83.4984C83.3339 24.8406 82.9407 25.1981 82.24 25.1981C81.2461 25.1981 80.4453 24.4974 80.4453 23.0387C80.4453 21.58 81.2676 20.8078 82.24 20.7935C82.9764 20.8006 83.3339 21.2439 83.4984 21.5872H83.5484V20.8578H84.7282V25.3054C84.7282 26.428 83.8487 27 82.5832 27C81.3176 27 80.6241 26.4494 80.5597 25.62V25.6271ZM82.6189 24.2972C83.2052 24.2972 83.5484 23.8252 83.5484 23.053C83.5484 22.2807 83.2195 21.7588 82.6189 21.7588C82.0183 21.7588 81.6751 22.2879 81.6751 23.053C81.6751 23.8181 82.004 24.2972 82.6189 24.2972Z" fill="#A8A7A7"/>
<path id="Vector_10" d="M85.4785 23.0816C85.4857 21.723 86.3222 20.8006 87.6235 20.7935C88.7675 20.8006 89.6827 21.53 89.6827 23.0387V23.3676H86.6797C86.6797 24.0326 87.073 24.4473 87.695 24.4473C88.1026 24.4473 88.3957 24.2614 88.5101 24.0183H89.6541C89.4825 24.8263 88.7604 25.3483 87.6807 25.3483C86.3222 25.3483 85.5 24.4759 85.4857 23.0887L85.4785 23.0816ZM88.5459 22.6168C88.5387 22.0805 88.1669 21.6944 87.6307 21.6873C87.0658 21.6944 86.6869 22.1091 86.6654 22.6168H88.5387H88.5459Z" fill="#A8A7A7"/>
<path id="Vector_11" d="M91.6198 25.2553H90.4258V20.8578H91.5698V21.6229H91.6198C91.82 21.1152 92.2919 20.8006 92.9497 20.7935C93.8649 20.8006 94.4655 21.4227 94.4584 22.4524V25.2553H93.2643V22.6669C93.2643 22.1163 92.9712 21.7945 92.4707 21.7874C91.9702 21.7945 91.6341 22.1306 91.627 22.7026V25.2625L91.6198 25.2553Z" fill="#A8A7A7"/>
<path id="Vector_12" d="M95.2012 23.0673C95.2083 21.723 96.0306 20.8006 97.3605 20.7935C98.5045 20.8006 99.2695 21.4656 99.3196 22.4738H98.1899C98.1255 22.0448 97.8324 21.7445 97.3748 21.7445C96.8028 21.7445 96.4167 22.2235 96.431 23.053C96.4238 23.911 96.8028 24.3973 97.3748 24.3973C97.8038 24.3973 98.1112 24.1327 98.1899 23.6679H99.3196C99.2695 24.6618 98.5331 25.3483 97.3748 25.3483C96.0163 25.3483 95.2083 24.4187 95.2012 23.0744V23.0673Z" fill="#A8A7A7"/>
<path id="Vector_13" d="M99.8848 23.0816C99.8919 21.723 100.728 20.8006 102.03 20.7935C103.174 20.8006 104.089 21.53 104.089 23.0387V23.3676H101.086C101.086 24.0326 101.479 24.4473 102.101 24.4473C102.509 24.4473 102.802 24.2614 102.916 24.0183H104.06C103.889 24.8263 103.167 25.3483 102.087 25.3483C100.728 25.3483 99.9062 24.4759 99.8919 23.0887L99.8848 23.0816ZM102.959 22.6168C102.952 22.0805 102.58 21.6944 102.044 21.6873C101.479 21.6944 101.1 22.1091 101.079 22.6168H102.952H102.959Z" fill="#A8A7A7"/>
<path id="Vector_14" d="M107.343 19.0631C107.7 19.056 107.993 19.3277 107.993 19.6638C107.993 19.9998 107.7 20.2787 107.343 20.2787C106.985 20.2787 106.685 20.007 106.678 19.6638C106.685 19.3348 106.978 19.056 107.343 19.0631ZM106.742 20.8579H107.936V25.2554H106.742V20.8579Z" fill="#A8A7A7"/>
<path id="Vector_15" d="M110.081 25.2553H108.887V20.8578H110.031V21.6229H110.081C110.281 21.1152 110.753 20.8006 111.411 20.7935C112.326 20.8006 112.926 21.4227 112.919 22.4524V25.2553H111.725V22.6669C111.725 22.1163 111.432 21.7945 110.932 21.7874C110.431 21.7945 110.095 22.1306 110.088 22.7026V25.2625L110.081 25.2553Z" fill="#A8A7A7"/>
<path id="Vector_16" d="M116.81 19.3777L118.154 21.9161H118.219L119.563 19.3777H120.922L118.777 23.1603V25.2553H117.561V23.1603L115.416 19.3777H116.796H116.81Z" fill="#A8A7A7"/>
<path id="Vector_17" d="M123.838 25.3412C122.279 25.3412 121.1 24.2257 121.1 22.3165C121.1 20.4074 122.279 19.2991 123.838 19.3134C125.397 19.3062 126.584 20.4074 126.577 22.3165C126.584 24.2329 125.397 25.3412 123.838 25.3412ZM123.838 24.2615C124.753 24.2543 125.347 23.575 125.347 22.3165C125.347 21.0581 124.746 20.3788 123.838 20.3931C122.93 20.3859 122.337 21.0652 122.344 22.3165C122.337 23.5679 122.93 24.2543 123.838 24.2615Z" fill="#A8A7A7"/>
<path id="Vector_18" d="M132.324 19.3777V23.196C132.324 24.4831 131.352 25.3411 129.9 25.3411C128.449 25.3411 127.477 24.4831 127.477 23.196V19.3777H128.692V23.0959C128.692 23.7752 129.171 24.2686 129.908 24.2614C130.637 24.2686 131.109 23.7823 131.123 23.0959V19.3777H132.339H132.324Z" fill="#A8A7A7"/>
<path id="Vector_19" d="M133.32 19.3778H135.608C136.952 19.3849 137.717 20.1357 137.717 21.3012C137.717 22.0949 137.352 22.6813 136.68 22.9673L137.931 25.2483H136.573L135.45 23.1532H134.528V25.2483H133.312V19.3706L133.32 19.3778ZM135.393 22.1879C136.115 22.1879 136.466 21.8876 136.459 21.3084C136.466 20.7077 136.115 20.386 135.393 20.3931H134.528V22.1879H135.393Z" fill="#A8A7A7"/>
<path id="Vector_20" d="M140.74 20.3288C140.118 20.3288 139.775 20.6077 139.775 20.9938C139.761 21.4371 140.197 21.623 140.705 21.7446L141.234 21.8805C142.235 22.095 142.985 22.6098 142.993 23.5894C142.985 24.662 142.149 25.3484 140.719 25.3484C139.289 25.3484 138.395 24.6906 138.359 23.4393H139.539C139.589 24.0256 140.054 24.3188 140.705 24.3188C141.355 24.3188 141.756 24.0256 141.77 23.5894C141.763 23.189 141.405 23.0031 140.755 22.8386L140.125 22.6885C139.132 22.4382 138.524 21.952 138.517 21.0796C138.517 20.0285 139.46 19.3135 140.74 19.3206C142.042 19.3135 142.9 20.0357 142.914 21.0796H141.734C141.698 20.6077 141.327 20.3288 140.74 20.3288Z" fill="#A8A7A7"/>
</g>
<g id="Group_2">
<path id="Vector_21" d="M63.1122 4.10427C61.9682 4.10427 61.3461 4.6191 61.3461 5.31985C61.3175 6.12784 62.1255 6.47821 63.0478 6.69273L64.0202 6.93584C65.8578 7.32911 67.2306 8.27297 67.2449 10.0677C67.2306 12.0269 65.6933 13.2926 63.0764 13.2926C60.4595 13.2926 58.815 12.0913 58.7578 9.79601H60.9171C61.0101 10.8757 61.8609 11.412 63.0478 11.412C64.2347 11.412 64.9783 10.8829 64.9926 10.0749C64.9783 9.34553 64.3205 8.99516 63.1336 8.702L61.9753 8.43028C60.1521 7.97265 59.0367 7.07885 59.0224 5.47715C59.0224 3.54654 60.7598 2.23801 63.0979 2.25231C65.486 2.23801 67.0518 3.56084 67.0804 5.47715H64.9211C64.8568 4.61195 64.1775 4.10427 63.0979 4.10427H63.1122Z" fill="#231815"/>
<path id="Vector_22" d="M69.7409 1.94488C70.3915 1.93058 70.9278 2.43111 70.9278 3.03889C70.9278 3.64668 70.3987 4.16151 69.7409 4.16151C69.0831 4.16151 68.5397 3.66098 68.5254 3.03889C68.5397 2.43111 69.0759 1.93058 69.7409 1.94488ZM68.6469 5.22692H70.8348V13.2926H68.6469V5.22692Z" fill="#231815"/>
<path id="Vector_23" d="M72.2363 9.15262C72.2506 6.65712 73.7879 4.96962 76.1617 4.95532C78.2638 4.96962 79.9369 6.30675 79.9369 9.06682V9.6746H74.4314C74.4314 10.8902 75.1464 11.6553 76.2904 11.6553C77.034 11.6553 77.5702 11.3192 77.7847 10.8616H79.8868C79.5651 12.3346 78.2423 13.2927 76.2689 13.2927C73.7736 13.2927 72.2649 11.6982 72.2506 9.15262H72.2363ZM77.8634 8.30172C77.8491 7.31496 77.1627 6.61422 76.1903 6.59992C75.1535 6.61422 74.4528 7.37932 74.4242 8.30172H77.8634Z" fill="#231815"/>
<path id="Vector_24" d="M81.3027 5.22703H83.4334V6.62851H83.5264C83.8124 5.62745 84.5631 5.10547 85.4712 5.10547C85.7 5.10547 85.9717 5.13407 86.1719 5.16982V7.15049C85.9717 7.07184 85.5498 7.02893 85.2281 7.02893C84.2414 7.02893 83.5121 7.71537 83.4906 8.70213V13.2999H81.3027V5.22703Z" fill="#231815"/>
<path id="Vector_25" d="M87.2363 5.22703H89.367V6.62851H89.46C89.746 5.62745 90.4967 5.10547 91.4048 5.10547C91.6336 5.10547 91.9053 5.13407 92.1055 5.16982V7.15049C91.9053 7.07184 91.4834 7.02893 91.1617 7.02893C90.175 7.02893 89.4457 7.71537 89.4242 8.70213V13.2999H87.2363V5.22703Z" fill="#231815"/>
<path id="Vector_26" d="M107.929 3.13892H111.969C114.192 3.15322 115.308 4.22578 115.322 5.74882C115.308 6.95009 114.536 7.70089 113.485 7.9297V8.04411C114.629 8.08701 115.708 8.98796 115.723 10.511C115.708 12.1055 114.507 13.2925 112.226 13.2925H107.922V3.13892H107.929ZM111.661 7.41487C112.534 7.40057 113.199 6.91434 113.213 6.09919C113.199 5.36985 112.655 4.86932 111.69 4.86932H110.024V7.42202H111.661V7.41487ZM111.804 11.5693C113.02 11.555 113.556 11.0544 113.556 10.2822C113.556 9.43844 112.898 8.83065 111.862 8.85211H110.024V11.5764H111.804V11.5693Z" fill="#231815"/>
<path id="Vector_27" d="M116.473 13.2925L119.969 3.13892H122.693L126.19 13.2925H123.923L123.165 10.9686H119.497L118.739 13.2925H116.473ZM122.636 9.30973L121.378 5.44135H121.292L120.033 9.30973H122.643H122.636Z" fill="#231815"/>
<path id="Vector_28" d="M130.866 4.6335C129.794 4.6335 129.201 5.11973 129.201 5.77757C129.172 6.53551 129.93 6.86443 130.809 7.06464L131.724 7.29346C133.462 7.66528 134.749 8.55193 134.763 10.2466C134.749 12.0985 133.297 13.2855 130.838 13.2855C128.378 13.2855 126.827 12.1557 126.77 9.98917H128.807C128.893 11.0045 129.694 11.5122 130.816 11.5122C131.939 11.5122 132.64 11.0117 132.654 10.2537C132.64 9.56729 132.025 9.23837 130.902 8.96666L129.815 8.70924C128.092 8.28022 127.048 7.43646 127.034 5.92773C127.034 4.10437 128.671 2.87449 130.874 2.8888C133.126 2.87449 134.599 4.11867 134.627 5.92773H132.59C132.532 5.11258 131.889 4.64065 130.866 4.64065V4.6335Z" fill="#231815"/>
<path id="Vector_29" d="M136.143 3.13892H142.935V4.89077H138.23V7.35767H142.592V9.08092H138.23V11.5478H142.964V13.2997H136.143V3.13892Z" fill="#231815"/>
<path id="Vector_30" d="M98.9915 5.09108H101.072V13.0853H98.9915V12.2415C98.584 12.6133 98.1764 12.885 97.7689 13.0495C97.3613 13.214 96.918 13.2926 96.439 13.2926C95.3665 13.2926 94.4441 12.8922 93.6648 12.0913C92.8854 11.2905 92.4922 10.2966 92.4922 9.10247C92.4922 7.90835 92.8711 6.85724 93.629 6.07069C94.3869 5.28414 95.3021 4.89087 96.3818 4.89087C96.8823 4.89087 97.347 4.98382 97.7832 5.16258C98.2193 5.34135 98.6197 5.61306 98.9915 5.97773V5.09823V5.09108ZM96.5033 6.60697C95.8026 6.60697 95.2235 6.83578 94.7587 7.30056C94.294 7.76534 94.0652 8.35167 94.0652 9.07387C94.0652 9.79606 94.3011 10.3967 94.773 10.8686C95.2449 11.3406 95.8241 11.5694 96.5176 11.5694C97.2112 11.5694 97.8189 11.3406 98.2908 10.8758C98.7627 10.411 98.9915 9.81036 98.9915 9.05957C98.9915 8.30877 98.7556 7.73674 98.2908 7.27911C97.8189 6.82863 97.2255 6.59982 96.5105 6.59982L96.5033 6.60697Z" fill="#231815"/>
</g>
</g>
<defs>
<clipPath id="clip0_1271_20583">
<rect width="143" height="27" fill="white"/>
</clipPath>
</defs>
</svg>
