<svg width="45" height="27" viewBox="0 0 45 27" fill="none" xmlns="http://www.w3.org/2000/svg">
<g id="_&#235;&#160;&#136;&#236;&#157;&#180;&#236;&#150;&#180;_1" clip-path="url(#clip0_1271_20503)">
<g id="Group">
<path id="Vector" d="M29.41 8.79555C29.41 8.79555 29.4123 8.81116 29.419 8.81785C29.4258 8.82454 29.4325 8.82677 29.4415 8.82677H29.5248C29.5248 8.82677 29.5428 8.82454 29.5473 8.81785C29.554 8.81116 29.5563 8.80447 29.5563 8.79555V7.60942H29.968C29.968 7.60942 29.986 7.6072 29.9928 7.60051C29.9995 7.59382 30.004 7.58713 30.004 7.57821V7.50686C30.004 7.50686 29.9995 7.48903 29.9928 7.48234C29.986 7.47565 29.977 7.47119 29.968 7.47119H28.9983C28.9983 7.47119 28.9803 7.47565 28.9758 7.48234C28.969 7.48903 28.9668 7.49795 28.9668 7.50686V7.57821C28.9668 7.57821 28.969 7.59605 28.9758 7.60051C28.9825 7.6072 28.9893 7.60942 28.9983 7.60942H29.4123V8.79555H29.41Z" fill="#707070"/>
<path id="Vector_2" d="M31.019 7.60942C31.019 7.60942 31.037 7.6072 31.0437 7.60051C31.0505 7.59382 31.055 7.58713 31.055 7.57821V7.50686C31.055 7.50686 31.0505 7.48903 31.0437 7.48234C31.037 7.47565 31.028 7.47119 31.019 7.47119H30.2405C30.2405 7.47119 30.2247 7.47565 30.218 7.48234C30.2112 7.48903 30.209 7.49795 30.209 7.50686V8.79778C30.209 8.79778 30.2112 8.81339 30.218 8.82008C30.2247 8.82677 30.2315 8.82899 30.2405 8.82899H31.019C31.019 8.82899 31.037 8.82677 31.0437 8.82008C31.0505 8.81339 31.055 8.8067 31.055 8.79778V8.72421C31.055 8.72421 31.0505 8.7086 31.0437 8.70191C31.037 8.69522 31.028 8.69076 31.019 8.69076H30.3575V8.21141H30.8885C30.8885 8.21141 30.9065 8.20918 30.911 8.20249C30.9177 8.1958 30.92 8.18911 30.92 8.18019V8.10885C30.92 8.10885 30.9177 8.09101 30.911 8.08655C30.9042 8.07986 30.8975 8.07763 30.8885 8.07763H30.3575V7.61388H31.019V7.60942Z" fill="#707070"/>
<path id="Vector_3" d="M31.5362 7.48685C31.4754 7.51137 31.4214 7.54704 31.3764 7.59386C31.3314 7.64069 31.2954 7.69642 31.2707 7.76331C31.2459 7.8302 31.2324 7.90154 31.2324 7.97958V8.31847C31.2324 8.39651 31.2459 8.46785 31.2707 8.53251C31.2954 8.59717 31.3314 8.65291 31.3787 8.69973C31.4259 8.74655 31.4799 8.78222 31.5407 8.80675C31.6014 8.83127 31.6689 8.84465 31.7364 8.84465C31.8039 8.84465 31.8669 8.8335 31.9277 8.80898C31.9862 8.78445 32.0379 8.75324 32.0807 8.71087C32.1234 8.66851 32.1572 8.61946 32.1819 8.56595C32.2067 8.51021 32.2202 8.45448 32.2247 8.39428C32.2247 8.38759 32.2247 8.38313 32.2179 8.37867C32.2134 8.37421 32.2067 8.37198 32.2022 8.37198H32.0987C32.0852 8.37198 32.0762 8.3809 32.0739 8.39651C32.0627 8.49015 32.0289 8.56595 31.9682 8.62169C31.9074 8.67966 31.8309 8.70865 31.7364 8.70865C31.6757 8.70865 31.6217 8.69527 31.5744 8.67074C31.5272 8.64622 31.4912 8.615 31.4619 8.5771C31.4327 8.5392 31.4124 8.49684 31.4012 8.45225C31.3877 8.40542 31.3832 8.36083 31.3832 8.31847V7.98181C31.3832 7.92161 31.3922 7.86587 31.4124 7.81013C31.4327 7.75439 31.4619 7.7098 31.5024 7.67636C31.5429 7.64291 31.5812 7.61839 31.6217 7.60724C31.6622 7.59609 31.6982 7.58941 31.7342 7.58941C31.8039 7.58941 31.8647 7.60501 31.9142 7.63846C31.9659 7.6719 32.0042 7.7098 32.0267 7.75662C32.0492 7.80344 32.0649 7.8458 32.0717 7.88371C32.0762 7.90377 32.0852 7.91492 32.0964 7.91492H32.1954C32.2157 7.91492 32.2247 7.90377 32.2224 7.88371C32.2112 7.79453 32.1819 7.71649 32.1347 7.65183C32.0874 7.58718 32.0289 7.5359 31.9614 7.50245C31.8939 7.46901 31.8152 7.45117 31.7319 7.45117C31.6622 7.45117 31.5947 7.46232 31.5339 7.48907L31.5362 7.48685Z" fill="#707070"/>
<path id="Vector_4" d="M33.3255 8.81788C33.3255 8.81788 33.339 8.8268 33.348 8.8268H33.4312C33.4312 8.8268 33.4492 8.82457 33.456 8.81788C33.4627 8.81119 33.4672 8.8045 33.4672 8.79558V7.50467C33.4672 7.50467 33.4627 7.48683 33.456 7.48014C33.4492 7.47345 33.4402 7.46899 33.4312 7.46899H33.348C33.348 7.46899 33.3322 7.47345 33.3255 7.48014C33.3187 7.48683 33.3165 7.49575 33.3165 7.50467V8.06429H32.6527V7.50467C32.6527 7.50467 32.6482 7.48683 32.6415 7.48014C32.6347 7.47345 32.6257 7.46899 32.6167 7.46899H32.5335C32.5335 7.46899 32.5177 7.47345 32.511 7.48014C32.5042 7.48683 32.502 7.49575 32.502 7.50467V8.79558C32.502 8.79558 32.5042 8.81119 32.511 8.81788C32.5177 8.82457 32.5245 8.8268 32.5335 8.8268H32.6167C32.6167 8.8268 32.6347 8.82457 32.6415 8.81788C32.6482 8.81119 32.6527 8.8045 32.6527 8.79558V8.20029H33.3165V8.79558C33.3165 8.79558 33.3187 8.81119 33.3255 8.81788Z" fill="#707070"/>
<path id="Vector_5" d="M29.1858 9.79663C29.1858 9.79663 29.17 9.80109 29.1633 9.80778C29.1565 9.81447 29.1543 9.82339 29.1543 9.8323V11.1232C29.1543 11.1232 29.1565 11.1388 29.1633 11.1455C29.17 11.1522 29.1768 11.1544 29.1858 11.1544H29.269C29.269 11.1544 29.287 11.1522 29.2938 11.1455C29.3005 11.1388 29.305 11.1321 29.305 11.1232V9.8323C29.305 9.8323 29.3005 9.81447 29.2938 9.80778C29.287 9.80109 29.278 9.79663 29.269 9.79663H29.1858Z" fill="#707070"/>
<path id="Vector_6" d="M30.5052 9.79663C30.5052 9.79663 30.4895 9.80109 30.4827 9.80778C30.476 9.81447 30.4737 9.82339 30.4737 9.8323V10.878L29.8032 9.82562C29.792 9.80778 29.7785 9.79886 29.765 9.79886H29.6682C29.6682 9.79886 29.6525 9.80332 29.6457 9.81001C29.639 9.8167 29.6367 9.82562 29.6367 9.83453V11.1255C29.6367 11.1255 29.639 11.1411 29.6457 11.1477C29.6525 11.1544 29.6592 11.1567 29.6682 11.1567H29.7492C29.7492 11.1567 29.7672 11.1544 29.7717 11.1477C29.7785 11.1411 29.7807 11.1344 29.7807 11.1255V10.0463L30.467 11.121C30.4805 11.1455 30.4985 11.1589 30.5187 11.1589H30.5862C30.5862 11.1589 30.6042 11.1567 30.6087 11.15C30.6155 11.1433 30.6177 11.1366 30.6177 11.1277V9.83676C30.6177 9.83676 30.6155 9.81893 30.6087 9.81224C30.602 9.80555 30.5952 9.80109 30.5862 9.80109H30.5052V9.79663Z" fill="#707070"/>
<path id="Vector_7" d="M31.6018 11.1388C31.6603 11.1143 31.712 11.0831 31.7548 11.0407C31.7975 10.9983 31.8313 10.9493 31.856 10.8958C31.8808 10.84 31.8943 10.7843 31.8988 10.7241C31.8988 10.7174 31.8988 10.713 31.892 10.7085C31.8875 10.704 31.8808 10.7018 31.8763 10.7018H31.7728C31.7593 10.7018 31.7503 10.7107 31.748 10.7263C31.7368 10.82 31.703 10.8958 31.6423 10.9515C31.5815 11.0095 31.505 11.0385 31.4105 11.0385C31.3498 11.0385 31.2958 11.0251 31.2485 11.0006C31.2013 10.9761 31.1653 10.9448 31.136 10.9069C31.1068 10.869 31.0865 10.8267 31.0753 10.7821C31.0618 10.7353 31.0573 10.6907 31.0573 10.6483V10.3116C31.0573 10.2514 31.0663 10.1957 31.0865 10.14C31.1068 10.0842 31.136 10.0396 31.1765 10.0062C31.217 9.97275 31.2553 9.94822 31.2958 9.93708C31.3363 9.92593 31.3723 9.91924 31.4083 9.91924C31.478 9.91924 31.5388 9.93485 31.5883 9.96829C31.64 10.0017 31.6783 10.0396 31.7008 10.0865C31.7233 10.1333 31.739 10.1756 31.7458 10.2135C31.7503 10.2336 31.7593 10.2448 31.7705 10.2448H31.8695C31.8898 10.2448 31.8988 10.2336 31.8965 10.2135C31.8853 10.1244 31.856 10.0463 31.8088 9.98167C31.7615 9.91701 31.703 9.86573 31.6355 9.83229C31.568 9.79884 31.4893 9.78101 31.406 9.78101C31.3363 9.78101 31.2688 9.79215 31.208 9.81891C31.1473 9.84343 31.0933 9.87911 31.0483 9.92593C31.0033 9.97275 30.9673 10.0285 30.9425 10.0954C30.9178 10.1623 30.9043 10.2336 30.9043 10.3116V10.6505C30.9043 10.7286 30.9178 10.7999 30.9425 10.8646C30.9673 10.9292 31.0033 10.985 31.0505 11.0318C31.0978 11.0786 31.1518 11.1143 31.2125 11.1388C31.2733 11.1633 31.3408 11.1767 31.4083 11.1767C31.4758 11.1767 31.5388 11.1656 31.5995 11.141L31.6018 11.1388Z" fill="#707070"/>
<path id="Vector_8" d="M32.9544 11.0652C32.9904 11.034 33.0197 10.9983 33.0444 10.9582C33.0692 10.9158 33.0894 10.869 33.1029 10.8177C33.1164 10.7665 33.1232 10.7107 33.1232 10.6528V9.8345C33.1232 9.8345 33.1209 9.81666 33.1142 9.80998C33.1074 9.80329 33.1007 9.79883 33.0917 9.79883H33.0084C33.0084 9.79883 32.9904 9.80329 32.9859 9.80998C32.9792 9.81666 32.9769 9.82558 32.9769 9.8345V10.6528C32.9769 10.7286 32.9657 10.791 32.9432 10.8423C32.9207 10.8935 32.8937 10.9337 32.8599 10.9627C32.8262 10.9916 32.7924 11.0117 32.7542 11.0229C32.7159 11.034 32.6799 11.0385 32.6439 11.0385C32.5832 11.0385 32.5314 11.0273 32.4887 11.0028C32.4459 10.9783 32.4099 10.9493 32.3829 10.9114C32.3559 10.8735 32.3379 10.8333 32.3267 10.7865C32.3154 10.7397 32.3109 10.6951 32.3109 10.6528V9.8345C32.3109 9.8345 32.3064 9.81666 32.2997 9.80998C32.2929 9.80329 32.2839 9.79883 32.2749 9.79883H32.1917C32.1917 9.79883 32.1759 9.80329 32.1692 9.80998C32.1624 9.81666 32.1602 9.82558 32.1602 9.8345V10.6528C32.1602 10.7308 32.1737 10.8066 32.2007 10.8802C32.2277 10.9537 32.2682 11.0139 32.3199 11.0585C32.3739 11.1054 32.4279 11.1366 32.4819 11.1522C32.5359 11.1678 32.5899 11.1767 32.6394 11.1767C32.7092 11.1767 32.7699 11.1656 32.8217 11.1455C32.8734 11.1232 32.9184 11.0987 32.9522 11.0674L32.9544 11.0652Z" fill="#707070"/>
<path id="Vector_9" d="M34.3397 10.9961C34.378 10.9426 34.396 10.8757 34.396 10.7954V10.7709C34.396 10.7174 34.3847 10.6684 34.3645 10.6215C34.3442 10.5747 34.315 10.539 34.2813 10.5123C34.2475 10.4855 34.2137 10.4655 34.1822 10.4521C34.3015 10.3919 34.3623 10.3005 34.3623 10.1734V10.1422C34.3623 10.0708 34.3465 10.0084 34.315 9.95936C34.2835 9.91031 34.2363 9.87017 34.1733 9.84119C34.1103 9.81221 34.0292 9.79883 33.9325 9.79883H33.469C33.469 9.79883 33.4532 9.80329 33.4465 9.80998C33.4397 9.81666 33.4375 9.82558 33.4375 9.8345V11.1254C33.4375 11.1254 33.4397 11.141 33.4465 11.1477C33.4532 11.1544 33.46 11.1566 33.469 11.1566H33.9392C34.036 11.1566 34.117 11.1433 34.1845 11.1165C34.252 11.0897 34.3038 11.0496 34.342 10.9961H34.3397ZM33.5837 9.93706H33.9235C34.1148 9.93706 34.2115 10.0062 34.2115 10.1466V10.1756C34.2115 10.3161 34.1193 10.3852 33.937 10.3852H33.5837V9.93706ZM33.5837 11.0162V10.5212H33.9438C34.0045 10.5212 34.0563 10.5301 34.1035 10.548C34.1508 10.5658 34.1868 10.5926 34.2115 10.6282C34.2363 10.6639 34.2498 10.7107 34.2498 10.7642V10.7865C34.2498 10.9381 34.1485 11.0162 33.9438 11.0162H33.5837Z" fill="#707070"/>
<path id="Vector_10" d="M34.5371 11.1321C34.5371 11.1321 34.5394 11.1433 34.5439 11.1477C34.5484 11.1522 34.5529 11.1544 34.5596 11.1544H34.6564C34.6699 11.1544 34.6811 11.1477 34.6856 11.1344L34.8071 10.7932H35.4011L35.5271 11.1344C35.5316 11.1477 35.5406 11.1544 35.5586 11.1544H35.6576C35.6576 11.1544 35.6734 11.1522 35.6756 11.1455C35.6779 11.1388 35.6801 11.1366 35.6801 11.1321C35.6801 11.1255 35.6779 11.1143 35.6734 11.1054L35.2009 9.82562C35.1941 9.80555 35.1806 9.79663 35.1649 9.79663H35.0524C35.0344 9.79663 35.0231 9.80778 35.0141 9.82785L34.5506 11.0942L34.5394 11.1321H34.5371ZM35.1019 9.96831L35.3494 10.6595H34.8544L35.1019 9.96831Z" fill="#707070"/>
<path id="Vector_11" d="M36.3571 9.93706H36.7688C36.7688 9.93706 36.7868 9.93483 36.7936 9.92814C36.8003 9.92145 36.8048 9.91477 36.8048 9.90585V9.8345C36.8048 9.8345 36.8003 9.81666 36.7936 9.80998C36.7868 9.80329 36.7778 9.79883 36.7688 9.79883H35.7991C35.7991 9.79883 35.7811 9.80329 35.7766 9.80998C35.7698 9.81666 35.7676 9.82558 35.7676 9.8345V9.90585C35.7676 9.90585 35.7698 9.92368 35.7766 9.92814C35.7833 9.93483 35.7901 9.93706 35.7991 9.93706H36.2131V11.1232C36.2131 11.1232 36.2153 11.1388 36.2221 11.1455C36.2288 11.1522 36.2356 11.1544 36.2446 11.1544H36.3278C36.3278 11.1544 36.3458 11.1522 36.3503 11.1455C36.3571 11.1388 36.3593 11.1321 36.3593 11.1232V9.93706H36.3571Z" fill="#707070"/>
<path id="Vector_12" d="M37.8793 10.8601C37.9041 10.7955 37.9176 10.7241 37.9176 10.6461V10.3094C37.9176 10.2314 37.9041 10.1601 37.8793 10.0932C37.8546 10.0263 37.8186 9.97055 37.7736 9.92373C37.7286 9.87691 37.6746 9.84124 37.6116 9.81671C37.5486 9.79219 37.4833 9.77881 37.4158 9.77881C37.3483 9.77881 37.2763 9.79219 37.2066 9.82117C37.1368 9.85015 37.0806 9.89252 37.0333 9.95049C36.9861 10.0085 36.9546 10.0687 36.9388 10.1288C36.9208 10.1913 36.9141 10.2492 36.9141 10.3072V10.6439C36.9141 10.7219 36.9276 10.7933 36.9523 10.8579C36.9771 10.9226 37.0131 10.9783 37.0603 11.0251C37.1076 11.072 37.1616 11.1076 37.2223 11.1322C37.2831 11.1567 37.3506 11.1701 37.4181 11.1701C37.4856 11.1701 37.5531 11.1567 37.6138 11.1322C37.6768 11.1076 37.7286 11.072 37.7736 11.0251C37.8186 10.9783 37.8546 10.9226 37.8793 10.8579V10.8601ZM37.7691 10.6461C37.7691 10.7063 37.7578 10.762 37.7376 10.8178C37.7173 10.8735 37.6858 10.9181 37.6476 10.9516C37.6071 10.985 37.5688 11.0073 37.5283 11.0184C37.4901 11.0296 37.4518 11.0363 37.4158 11.0363C37.3551 11.0363 37.3011 11.0229 37.2538 10.9984C37.2066 10.9739 37.1706 10.9426 37.1413 10.9047C37.1121 10.8668 37.0918 10.8245 37.0806 10.7799C37.0671 10.7331 37.0626 10.6885 37.0626 10.6461V10.3117C37.0626 10.2515 37.0716 10.198 37.0896 10.1467C37.1076 10.0976 37.1323 10.0553 37.1638 10.0218C37.1953 9.98839 37.2336 9.96163 37.2763 9.9438C37.3191 9.92596 37.3641 9.91704 37.4136 9.91704C37.4631 9.91704 37.5081 9.92596 37.5508 9.9438C37.5936 9.96163 37.6318 9.98839 37.6633 10.0218C37.6948 10.0553 37.7218 10.0976 37.7398 10.1467C37.7578 10.1957 37.7668 10.2515 37.7668 10.3117V10.6461H37.7691Z" fill="#707070"/>
<path id="Vector_13" d="M38.2141 9.80778C38.2141 9.80778 38.2051 9.82339 38.2051 9.8323V11.1232C38.2051 11.1232 38.2073 11.1388 38.2141 11.1455C38.2208 11.1522 38.2276 11.1544 38.2366 11.1544H38.3198C38.3198 11.1544 38.3378 11.1522 38.3446 11.1455C38.3513 11.1388 38.3558 11.1321 38.3558 11.1232V10.606H38.6843L38.9588 11.1299C38.9678 11.1477 38.9813 11.1544 38.9971 11.1544H39.1051C39.1051 11.1544 39.1231 11.1522 39.1253 11.1455C39.1276 11.1388 39.1298 11.1366 39.1298 11.1321C39.1298 11.1277 39.1276 11.1188 39.1208 11.1054L38.8396 10.5814C38.9003 10.5658 38.9543 10.5413 39.0016 10.5056C39.0488 10.47 39.0826 10.4276 39.1028 10.3741C39.1231 10.3228 39.1343 10.2693 39.1343 10.2158V10.1868C39.1343 10.0619 39.0961 9.96608 39.0196 9.89696C38.9431 9.83007 38.8396 9.79663 38.7113 9.79663H38.2433C38.2433 9.79663 38.2276 9.80109 38.2208 9.80778H38.2141ZM38.3536 9.93709H38.6978C38.7541 9.93709 38.8036 9.94601 38.8463 9.96385C38.8891 9.98168 38.9206 10.0107 38.9431 10.0463C38.9656 10.082 38.9768 10.1311 38.9768 10.1868V10.218C38.9768 10.2782 38.9611 10.3273 38.9296 10.3674C38.8981 10.4075 38.8598 10.4343 38.8171 10.4477C38.7721 10.461 38.7338 10.4677 38.6978 10.4677H38.3536V9.93709Z" fill="#707070"/>
<path id="Vector_14" d="M29.5893 12.1243H29.1213C29.1213 12.1243 29.1056 12.1287 29.0988 12.1354C29.0921 12.1421 29.0898 12.151 29.0898 12.1599V13.4509C29.0898 13.4509 29.0921 13.4665 29.0988 13.4732C29.1056 13.4798 29.1123 13.4821 29.1213 13.4821H29.2046C29.2046 13.4821 29.2226 13.4798 29.2293 13.4732C29.2361 13.4665 29.2406 13.4598 29.2406 13.4509V12.9715H29.5916C29.7176 12.9715 29.8211 12.9336 29.8976 12.86C29.9741 12.7864 30.0146 12.6861 30.0146 12.559V12.5211C30.0146 12.3963 29.9763 12.2982 29.8998 12.2291C29.8233 12.1599 29.7198 12.1243 29.5916 12.1243H29.5893ZM29.8638 12.5613C29.8638 12.6281 29.8481 12.6839 29.8166 12.7262C29.7851 12.7686 29.7468 12.7976 29.7041 12.811C29.6591 12.8243 29.6208 12.8333 29.5848 12.8333H29.2406V12.2625H29.5848C29.6411 12.2625 29.6906 12.2714 29.7333 12.2915C29.7761 12.3116 29.8076 12.3405 29.8301 12.3784C29.8526 12.4163 29.8638 12.4632 29.8638 12.5211V12.5613Z" fill="#707070"/>
<path id="Vector_15" d="M31.0656 12.2246C30.9891 12.1577 30.8856 12.1243 30.7573 12.1243H30.2893C30.2893 12.1243 30.2736 12.1287 30.2668 12.1354C30.2601 12.1421 30.2578 12.151 30.2578 12.1599V13.4509C30.2578 13.4509 30.2601 13.4665 30.2668 13.4732C30.2736 13.4798 30.2803 13.4821 30.2893 13.4821H30.3726C30.3726 13.4821 30.3906 13.4798 30.3973 13.4732C30.4041 13.4665 30.4086 13.4598 30.4086 13.4509V12.9336H30.7371L31.0116 13.4575C31.0206 13.4754 31.0341 13.4821 31.0498 13.4821H31.1578C31.1578 13.4821 31.1758 13.4798 31.1781 13.4732C31.1803 13.4665 31.1826 13.4642 31.1826 13.4598C31.1826 13.4553 31.1803 13.4464 31.1736 13.433L30.8923 12.9091C30.9531 12.8935 31.0071 12.8689 31.0543 12.8333C31.1016 12.7976 31.1353 12.7552 31.1556 12.7017C31.1758 12.6504 31.1871 12.5969 31.1871 12.5434V12.5144C31.1871 12.3896 31.1488 12.2937 31.0723 12.2246H31.0656ZM31.0318 12.5479C31.0318 12.6081 31.0161 12.6571 30.9846 12.6973C30.9531 12.7374 30.9148 12.7642 30.8721 12.7775C30.8271 12.7909 30.7888 12.7976 30.7528 12.7976H30.4086V12.267H30.7528C30.8091 12.267 30.8586 12.2759 30.9013 12.2937C30.9441 12.3116 30.9756 12.3405 30.9981 12.3762C31.0206 12.4119 31.0318 12.4609 31.0318 12.5167V12.5479Z" fill="#707070"/>
<path id="Vector_16" d="M32.2657 12.2492C32.2207 12.2023 32.1667 12.1667 32.1037 12.1422C32.0407 12.1176 31.9755 12.1042 31.908 12.1042C31.8405 12.1042 31.7685 12.1176 31.6988 12.1466C31.629 12.1756 31.5727 12.218 31.5255 12.2759C31.4782 12.3339 31.4468 12.3941 31.431 12.4543C31.413 12.5167 31.4062 12.5747 31.4062 12.6327V12.9693C31.4062 13.0474 31.4197 13.1187 31.4445 13.1834C31.4692 13.248 31.5052 13.3038 31.5525 13.3506C31.5997 13.3974 31.6537 13.4331 31.7145 13.4576C31.7752 13.4821 31.8428 13.4955 31.9103 13.4955C31.9778 13.4955 32.0453 13.4821 32.106 13.4576C32.169 13.4331 32.2207 13.3974 32.2657 13.3506C32.3107 13.3038 32.3467 13.248 32.3715 13.1834C32.3962 13.1187 32.4097 13.0474 32.4097 12.9693V12.6327C32.4097 12.5546 32.3962 12.4833 32.3715 12.4164C32.3467 12.3495 32.3107 12.2938 32.2657 12.2469V12.2492ZM32.2613 12.9738C32.2613 13.034 32.25 13.0897 32.2298 13.1455C32.2095 13.2012 32.178 13.2458 32.1397 13.2792C32.0992 13.3127 32.061 13.335 32.0205 13.3461C31.9822 13.3573 31.944 13.364 31.908 13.364C31.8472 13.364 31.7932 13.3506 31.746 13.326C31.6987 13.3015 31.6627 13.2703 31.6335 13.2324C31.6042 13.1945 31.584 13.1521 31.5728 13.1076C31.5593 13.0607 31.5548 13.0161 31.5548 12.9738V12.6393C31.5548 12.5791 31.5637 12.5256 31.5817 12.4744C31.5997 12.4253 31.6245 12.3829 31.656 12.3495C31.6875 12.3161 31.7258 12.2893 31.7685 12.2715C31.8113 12.2536 31.8563 12.2447 31.9058 12.2447C31.9553 12.2447 32.0003 12.2536 32.043 12.2715C32.0858 12.2893 32.124 12.3161 32.1555 12.3495C32.187 12.3829 32.214 12.4253 32.232 12.4744C32.25 12.5234 32.259 12.5791 32.259 12.6393V12.9738H32.2613Z" fill="#707070"/>
<path id="Vector_17" d="M33.1515 13.5C33.2078 13.5 33.2618 13.4911 33.3135 13.471C33.3653 13.451 33.408 13.4264 33.4395 13.3975C33.471 13.3685 33.4958 13.3395 33.5115 13.3127V13.4487C33.5115 13.4487 33.5138 13.4643 33.5205 13.471C33.5273 13.4777 33.534 13.48 33.543 13.48H33.6128C33.6128 13.48 33.6308 13.4777 33.6353 13.471C33.642 13.4643 33.6443 13.4577 33.6443 13.4487V12.8245C33.6443 12.8245 33.642 12.8066 33.6353 12.8022C33.6285 12.7955 33.6218 12.7932 33.6128 12.7932H33.1673C33.1673 12.7932 33.1493 12.7955 33.1448 12.8022C33.138 12.8089 33.1358 12.8155 33.1358 12.8245V12.8936C33.1358 12.8936 33.138 12.9092 33.1448 12.9159C33.1515 12.9226 33.1583 12.9248 33.1673 12.9248H33.5025V13.0251C33.5025 13.0809 33.4868 13.1344 33.4575 13.1879C33.4283 13.2392 33.3878 13.2815 33.3383 13.315C33.2888 13.3462 33.228 13.3618 33.1583 13.3618C33.0975 13.3618 33.0435 13.3484 32.9963 13.3239C32.949 13.2994 32.913 13.2681 32.8838 13.2302C32.8545 13.1923 32.8343 13.15 32.8208 13.1054C32.8073 13.0586 32.8028 13.014 32.8028 12.9716V12.6372C32.8028 12.577 32.8118 12.5235 32.8298 12.4722C32.8478 12.4231 32.8725 12.3808 32.9063 12.3473C32.9378 12.3139 32.976 12.2871 33.0188 12.2693C33.0615 12.2515 33.1065 12.2425 33.156 12.2425C33.228 12.2425 33.291 12.2604 33.345 12.2938C33.3968 12.3295 33.435 12.3696 33.4575 12.4142C33.48 12.4588 33.4935 12.4989 33.498 12.5324C33.5025 12.5525 33.5093 12.5636 33.5228 12.5636H33.6285C33.642 12.5636 33.6488 12.5569 33.6488 12.5413V12.5101C33.6353 12.4544 33.6173 12.4008 33.5925 12.3518C33.5655 12.3027 33.5318 12.2582 33.4913 12.2203C33.4508 12.1823 33.4013 12.1534 33.345 12.1311C33.2888 12.1088 33.2258 12.0999 33.1583 12.0999C33.0908 12.0999 33.021 12.1132 32.9603 12.1378C32.8973 12.1623 32.8455 12.198 32.7983 12.2448C32.7533 12.2916 32.7173 12.3473 32.6925 12.4142C32.6678 12.4811 32.6543 12.5525 32.6543 12.6305V12.9672C32.6543 13.0385 32.6655 13.1054 32.688 13.17C32.7105 13.2347 32.7443 13.2904 32.787 13.3395C32.8298 13.3885 32.8838 13.4264 32.9468 13.4532C33.0098 13.48 33.0795 13.4956 33.156 13.4956L33.1515 13.5Z" fill="#707070"/>
<path id="Vector_18" d="M34.1035 13.4732C34.1035 13.4732 34.1147 13.4598 34.1147 13.4509V12.9336H34.4432L34.7177 13.4575C34.7267 13.4754 34.7402 13.4821 34.756 13.4821H34.864C34.864 13.4821 34.882 13.4798 34.8842 13.4732C34.8865 13.4665 34.8887 13.4642 34.8887 13.4598C34.8887 13.4553 34.8865 13.4464 34.8797 13.433L34.5985 12.9091C34.6592 12.8935 34.7132 12.8689 34.7605 12.8333C34.8077 12.7976 34.8415 12.7552 34.8617 12.7017C34.882 12.6504 34.8932 12.5969 34.8932 12.5434V12.5144C34.8932 12.3896 34.855 12.2937 34.7785 12.2246C34.702 12.1577 34.5985 12.1243 34.4702 12.1243H34.0022C34.0022 12.1243 33.9865 12.1287 33.9797 12.1354C33.973 12.1421 33.9707 12.151 33.9707 12.1599V13.4509C33.9707 13.4509 33.973 13.4665 33.9797 13.4732C33.9865 13.4798 33.9932 13.4821 34.0022 13.4821H34.0855C34.0855 13.4821 34.1035 13.4798 34.1102 13.4732H34.1035ZM34.1147 12.2647H34.459C34.5152 12.2647 34.5647 12.2736 34.6075 12.2915C34.6502 12.3093 34.6817 12.3383 34.7042 12.374C34.7267 12.4097 34.738 12.4587 34.738 12.5144V12.5457C34.738 12.6059 34.7222 12.6549 34.6907 12.695C34.6592 12.7352 34.621 12.7619 34.5782 12.7753C34.5332 12.7887 34.495 12.7954 34.459 12.7954H34.1147V12.2647Z" fill="#707070"/>
<path id="Vector_19" d="M35.6967 12.1533C35.6899 12.1332 35.6764 12.1243 35.6607 12.1243H35.5482C35.5302 12.1243 35.5189 12.1354 35.5099 12.1555L35.0464 13.4219L35.0352 13.4598C35.0352 13.4598 35.0374 13.4709 35.0419 13.4754C35.0464 13.4798 35.0509 13.4821 35.0577 13.4821H35.1544C35.1679 13.4821 35.1792 13.4754 35.1837 13.462L35.3052 13.1209H35.8992L36.0252 13.462C36.0297 13.4754 36.0387 13.4821 36.0567 13.4821H36.1557C36.1557 13.4821 36.1714 13.4798 36.1737 13.4732C36.1759 13.4665 36.1782 13.4642 36.1782 13.4598C36.1782 13.4531 36.1759 13.4419 36.1714 13.433L35.6989 12.1533H35.6967ZM35.3547 12.9849L35.6022 12.2937L35.8497 12.9849H35.3547Z" fill="#707070"/>
<path id="Vector_20" d="M37.5564 13.4732C37.5564 13.4732 37.5699 13.4821 37.5789 13.4821H37.6599C37.6599 13.4821 37.6779 13.4798 37.6824 13.4732C37.6892 13.4665 37.6914 13.4598 37.6914 13.4509V12.1599C37.6914 12.1599 37.6869 12.1421 37.6802 12.1354C37.6734 12.1287 37.6644 12.1243 37.6577 12.1243H37.5047C37.4934 12.1243 37.4844 12.131 37.4777 12.1466L37.0412 13.2836L36.6092 12.1443C36.6024 12.131 36.5912 12.1243 36.5777 12.1243H36.4202C36.4202 12.1243 36.4044 12.1287 36.3977 12.1354C36.3909 12.1421 36.3887 12.151 36.3887 12.1599V13.4509C36.3887 13.4509 36.3909 13.4665 36.3977 13.4732C36.4044 13.4798 36.4112 13.4821 36.4202 13.4821H36.4989C36.4989 13.4821 36.5169 13.4798 36.5214 13.4732C36.5282 13.4665 36.5304 13.4598 36.5304 13.4509V12.3316L36.9692 13.4598C36.9759 13.4732 36.9872 13.4821 37.0007 13.4821H37.0772C37.0907 13.4821 37.1019 13.4754 37.1087 13.4598L37.5452 12.3316V13.4509C37.5452 13.4509 37.5474 13.4665 37.5542 13.4732H37.5564Z" fill="#707070"/>
<path id="Vector_21" d="M29.8998 14.4519H29.1213C29.1213 14.4519 29.1056 14.4564 29.0988 14.4631C29.0921 14.4697 29.0898 14.4787 29.0898 14.4876V15.7785C29.0898 15.7785 29.0921 15.7941 29.0988 15.8008C29.1056 15.8075 29.1123 15.8097 29.1213 15.8097H29.2046C29.2046 15.8097 29.2226 15.8075 29.2293 15.8008C29.2361 15.7941 29.2406 15.7874 29.2406 15.7785V15.2345H29.7716C29.7716 15.2345 29.7896 15.2323 29.7941 15.2256C29.8008 15.2189 29.8031 15.2122 29.8031 15.2033V15.1319C29.8031 15.1319 29.8008 15.1141 29.7941 15.1096C29.7873 15.1029 29.7806 15.1007 29.7716 15.1007H29.2406V14.5946H29.9021C29.9021 14.5946 29.9201 14.5924 29.9268 14.5857C29.9336 14.579 29.9381 14.5723 29.9381 14.5634V14.492C29.9381 14.492 29.9336 14.4742 29.9268 14.4675C29.9201 14.4608 29.9111 14.4564 29.9021 14.4564L29.8998 14.4519Z" fill="#707070"/>
<path id="Vector_22" d="M30.9396 14.5768C30.8946 14.53 30.8406 14.4943 30.7776 14.4698C30.7146 14.4453 30.6493 14.4319 30.5818 14.4319C30.5143 14.4319 30.4423 14.4453 30.3726 14.4742C30.3028 14.5032 30.2466 14.5456 30.1993 14.6036C30.1521 14.6615 30.1206 14.7217 30.1048 14.7819C30.0868 14.8444 30.0801 14.9023 30.0801 14.9603V15.297C30.0801 15.375 30.0936 15.4463 30.1183 15.511C30.1431 15.5756 30.1791 15.6314 30.2263 15.6782C30.2736 15.725 30.3276 15.7607 30.3883 15.7852C30.4491 15.8098 30.5166 15.8231 30.5841 15.8231C30.6516 15.8231 30.7191 15.8098 30.7798 15.7852C30.8428 15.7607 30.8946 15.725 30.9396 15.6782C30.9846 15.6314 31.0206 15.5756 31.0453 15.511C31.0701 15.4463 31.0836 15.375 31.0836 15.297V14.9603C31.0836 14.8823 31.0701 14.8109 31.0453 14.744C31.0206 14.6771 30.9846 14.6214 30.9396 14.5746V14.5768ZM30.9351 15.3014C30.9351 15.3616 30.9238 15.4174 30.9036 15.4731C30.8833 15.5288 30.8518 15.5734 30.8136 15.6069C30.7731 15.6403 30.7348 15.6626 30.6943 15.6738C30.6561 15.6849 30.6178 15.6916 30.5818 15.6916C30.5211 15.6916 30.4671 15.6782 30.4198 15.6537C30.3726 15.6292 30.3366 15.5979 30.3073 15.56C30.2781 15.5221 30.2578 15.4798 30.2466 15.4352C30.2331 15.3884 30.2286 15.3438 30.2286 15.3014V14.967C30.2286 14.9068 30.2376 14.8533 30.2556 14.802C30.2736 14.7529 30.2983 14.7106 30.3298 14.6771C30.3613 14.6437 30.3996 14.6169 30.4423 14.5991C30.4851 14.5813 30.5301 14.5723 30.5796 14.5723C30.6291 14.5723 30.6741 14.5813 30.7168 14.5991C30.7596 14.6169 30.7978 14.6437 30.8293 14.6771C30.8608 14.7106 30.8878 14.7529 30.9058 14.802C30.9238 14.851 30.9328 14.9068 30.9328 14.967V15.3014H30.9351Z" fill="#707070"/>
<path id="Vector_23" d="M32.1788 14.5522C32.1023 14.4853 31.9988 14.4519 31.8706 14.4519H31.4026C31.4026 14.4519 31.3868 14.4564 31.3801 14.4631C31.3733 14.4697 31.3711 14.4787 31.3711 14.4876V15.7785C31.3711 15.7785 31.3733 15.7941 31.3801 15.8008C31.3868 15.8075 31.3936 15.8097 31.4026 15.8097H31.4858C31.4858 15.8097 31.5038 15.8075 31.5106 15.8008C31.5173 15.7941 31.5218 15.7874 31.5218 15.7785V15.2612H31.8503L32.1248 15.7852C32.1338 15.803 32.1473 15.8097 32.1631 15.8097H32.2711C32.2711 15.8097 32.2891 15.8075 32.2913 15.8008C32.2936 15.7941 32.2958 15.7919 32.2958 15.7874C32.2958 15.783 32.2936 15.774 32.2868 15.7607L32.0056 15.2367C32.0663 15.2211 32.1203 15.1966 32.1676 15.1609C32.2148 15.1252 32.2486 15.0829 32.2688 15.0294C32.2891 14.9781 32.3003 14.9246 32.3003 14.8711V14.8421C32.3003 14.7172 32.2621 14.6214 32.1856 14.5522H32.1788ZM32.1451 14.8733C32.1451 14.9335 32.1293 14.9825 32.0978 15.0227C32.0663 15.0628 32.0281 15.0896 31.9853 15.1029C31.9403 15.1163 31.9021 15.123 31.8661 15.123H31.5218V14.5924H31.8661C31.9223 14.5924 31.9718 14.6013 32.0146 14.6191C32.0573 14.637 32.0888 14.6659 32.1113 14.7016C32.1338 14.7373 32.1451 14.7863 32.1451 14.8421V14.8733Z" fill="#707070"/>
<path id="Vector_24" d="M33.8222 15.2167C33.793 15.1877 33.757 15.1632 33.7142 15.1409C33.6715 15.1186 33.595 15.0941 33.4825 15.0651C33.37 15.0361 33.2912 15.0071 33.2485 14.9826C33.2057 14.9581 33.1742 14.9269 33.1585 14.8934C33.1427 14.86 33.1337 14.8243 33.1337 14.7886C33.1337 14.7151 33.1562 14.6593 33.2035 14.6214C33.2507 14.5835 33.3272 14.5635 33.4375 14.5635C33.5297 14.5635 33.5995 14.5813 33.649 14.617C33.6962 14.6526 33.7232 14.7084 33.73 14.7864C33.7345 14.8065 33.7457 14.8154 33.7637 14.8154H33.847C33.847 14.8154 33.8627 14.8132 33.8695 14.8065C33.8762 14.7998 33.8807 14.7931 33.8807 14.7842C33.8807 14.7463 33.874 14.7062 33.8582 14.666C33.8425 14.6259 33.82 14.5858 33.7862 14.5501C33.7525 14.5144 33.7075 14.4854 33.649 14.4631C33.5905 14.4408 33.5207 14.4297 33.4375 14.4297C33.3542 14.4297 33.2822 14.4386 33.226 14.4587C33.1675 14.4787 33.1202 14.5055 33.0842 14.5389C33.0482 14.5724 33.0212 14.6103 33.0077 14.6549C32.9942 14.6995 32.9852 14.7418 32.9852 14.7886C32.9852 14.8511 32.9965 14.9046 33.0167 14.9514C33.037 14.9982 33.064 15.0339 33.0977 15.0584C33.1292 15.0852 33.1652 15.1075 33.208 15.1253C33.2485 15.1454 33.325 15.1699 33.4397 15.1989C33.5522 15.2301 33.6287 15.2569 33.6647 15.2814C33.703 15.3059 33.7277 15.3304 33.7435 15.3594C33.757 15.3862 33.766 15.4174 33.766 15.4486C33.766 15.5333 33.7367 15.5935 33.6782 15.6337C33.6197 15.6738 33.541 15.6938 33.4442 15.6938C33.3767 15.6938 33.3205 15.6849 33.2755 15.6649C33.2282 15.6448 33.1922 15.6203 33.1675 15.5891C33.1405 15.5578 33.1225 15.5266 33.1135 15.4932C33.1022 15.4597 33.0977 15.433 33.0977 15.4107C33.0977 15.404 33.0932 15.3951 33.0865 15.3884C33.0797 15.3817 33.073 15.3795 33.064 15.3795H32.9807C32.9807 15.3795 32.9627 15.3817 32.9582 15.3884C32.9515 15.3951 32.9492 15.4018 32.9492 15.4107C32.9492 15.4531 32.9582 15.4976 32.9762 15.5467C32.9942 15.5935 33.0235 15.6403 33.064 15.6827C33.1045 15.7251 33.1562 15.7607 33.2215 15.7875C33.2867 15.8142 33.361 15.8276 33.4465 15.8276C33.541 15.8276 33.622 15.812 33.694 15.783C33.7637 15.754 33.82 15.7117 33.8582 15.6559C33.8987 15.6002 33.919 15.5333 33.919 15.4508C33.919 15.4062 33.9122 15.3616 33.8965 15.3215C33.883 15.2792 33.8605 15.2457 33.829 15.2167H33.8222Z" fill="#707070"/>
<path id="Vector_25" d="M35.0612 14.5812C35.0612 14.5812 35.0724 14.5678 35.0724 14.5589V14.4876C35.0724 14.4876 35.0679 14.4697 35.0612 14.4631C35.0544 14.4564 35.0454 14.4519 35.0364 14.4519H34.0667C34.0667 14.4519 34.0487 14.4564 34.0442 14.4631C34.0374 14.4697 34.0352 14.4787 34.0352 14.4876V14.5589C34.0352 14.5589 34.0374 14.5768 34.0442 14.5812C34.0509 14.5879 34.0577 14.5901 34.0667 14.5901H34.4807V15.7763C34.4807 15.7763 34.4829 15.7919 34.4897 15.7986C34.4964 15.8052 34.5032 15.8075 34.5122 15.8075H34.5954C34.5954 15.8075 34.6134 15.8052 34.6179 15.7986C34.6247 15.7919 34.6269 15.7852 34.6269 15.7763V14.5901H35.0387C35.0387 14.5901 35.0567 14.5879 35.0634 14.5812H35.0612Z" fill="#707070"/>
<path id="Vector_26" d="M35.6537 14.4809C35.6469 14.4608 35.6334 14.4519 35.6177 14.4519H35.5052C35.4872 14.4519 35.4759 14.4631 35.4669 14.4831L35.0034 15.7495L34.9922 15.7874C34.9922 15.7874 34.9944 15.7986 34.9989 15.803C35.0034 15.8075 35.0079 15.8097 35.0147 15.8097H35.1114C35.1249 15.8097 35.1362 15.803 35.1407 15.7896L35.2622 15.4485H35.8562L35.9822 15.7896C35.9867 15.803 35.9957 15.8097 36.0137 15.8097H36.1127C36.1127 15.8097 36.1284 15.8075 36.1307 15.8008C36.1329 15.7941 36.1352 15.7919 36.1352 15.7874C36.1352 15.7807 36.1329 15.7696 36.1284 15.7607L35.6559 14.4809H35.6537ZM35.3117 15.3125L35.5592 14.6214L35.8067 15.3125H35.3117Z" fill="#707070"/>
<path id="Vector_27" d="M37.1574 14.5522C37.0809 14.4853 36.9774 14.4519 36.8491 14.4519H36.3811C36.3811 14.4519 36.3654 14.4564 36.3586 14.4631C36.3519 14.4697 36.3496 14.4787 36.3496 14.4876V15.7785C36.3496 15.7785 36.3519 15.7941 36.3586 15.8008C36.3654 15.8075 36.3721 15.8097 36.3811 15.8097H36.4644C36.4644 15.8097 36.4824 15.8075 36.4891 15.8008C36.4959 15.7941 36.5004 15.7874 36.5004 15.7785V15.2612H36.8289L37.1034 15.7852C37.1124 15.803 37.1259 15.8097 37.1416 15.8097H37.2496C37.2496 15.8097 37.2676 15.8075 37.2699 15.8008C37.2721 15.7941 37.2744 15.7919 37.2744 15.7874C37.2744 15.783 37.2721 15.774 37.2654 15.7607L36.9841 15.2367C37.0449 15.2211 37.0989 15.1966 37.1461 15.1609C37.1934 15.1252 37.2271 15.0829 37.2474 15.0294C37.2676 14.9781 37.2789 14.9246 37.2789 14.8711V14.8421C37.2789 14.7172 37.2406 14.6214 37.1641 14.5522H37.1574ZM37.1236 14.8733C37.1236 14.9335 37.1079 14.9825 37.0764 15.0227C37.0449 15.0628 37.0066 15.0896 36.9639 15.1029C36.9189 15.1163 36.8806 15.123 36.8446 15.123H36.5004V14.5924H36.8446C36.9009 14.5924 36.9504 14.6013 36.9931 14.6191C37.0359 14.637 37.0674 14.6659 37.0899 14.7016C37.1124 14.7373 37.1236 14.7863 37.1236 14.8421V14.8733Z" fill="#707070"/>
<path id="Vector_28" d="M38.4153 14.4519H37.4456C37.4456 14.4519 37.4276 14.4564 37.4231 14.4631C37.4163 14.4697 37.4141 14.4787 37.4141 14.4876V14.5589C37.4141 14.5589 37.4163 14.5768 37.4231 14.5812C37.4298 14.5879 37.4366 14.5901 37.4456 14.5901H37.8596V15.7763C37.8596 15.7763 37.8618 15.7919 37.8686 15.7986C37.8753 15.8052 37.8821 15.8075 37.8911 15.8075H37.9743C37.9743 15.8075 37.9923 15.8052 37.9968 15.7986C38.0036 15.7919 38.0058 15.7852 38.0058 15.7763V14.5901H38.4176C38.4176 14.5901 38.4356 14.5879 38.4423 14.5812C38.4491 14.5745 38.4536 14.5678 38.4536 14.5589V14.4876C38.4536 14.4876 38.4491 14.4697 38.4423 14.4631C38.4356 14.4564 38.4266 14.4519 38.4176 14.4519H38.4153Z" fill="#707070"/>
<path id="Vector_29" d="M39.5643 14.4519H39.4811C39.4811 14.4519 39.4631 14.4564 39.4586 14.4631C39.4518 14.4697 39.4496 14.4787 39.4496 14.4876V15.3058C39.4496 15.3816 39.4383 15.4441 39.4158 15.4953C39.3933 15.5466 39.3663 15.5868 39.3326 15.6157C39.2988 15.6447 39.2651 15.6648 39.2268 15.6759C39.1886 15.6871 39.1526 15.6915 39.1166 15.6915C39.0558 15.6915 39.0041 15.6804 38.9613 15.6559C38.9186 15.6313 38.8826 15.6024 38.8556 15.5645C38.8286 15.5266 38.8106 15.4864 38.7993 15.4396C38.7881 15.3928 38.7836 15.3482 38.7836 15.3058V14.4876C38.7836 14.4876 38.7791 14.4697 38.7723 14.4631C38.7656 14.4564 38.7566 14.4519 38.7476 14.4519H38.6643C38.6643 14.4519 38.6486 14.4564 38.6418 14.4631C38.6351 14.4697 38.6328 14.4787 38.6328 14.4876V15.3058C38.6328 15.3839 38.6463 15.4597 38.6733 15.5332C38.7003 15.6068 38.7408 15.667 38.7926 15.7116C38.8466 15.7584 38.9006 15.7896 38.9546 15.8052C39.0086 15.8209 39.0626 15.8298 39.1121 15.8298C39.1818 15.8298 39.2426 15.8186 39.2943 15.7986C39.3461 15.7763 39.3911 15.7517 39.4248 15.7205C39.4608 15.6893 39.4901 15.6536 39.5148 15.6135C39.5396 15.5711 39.5598 15.5243 39.5733 15.473C39.5868 15.4218 39.5936 15.366 39.5936 15.3081V14.4898C39.5936 14.4898 39.5913 14.472 39.5846 14.4653C39.5778 14.4586 39.5711 14.4541 39.5621 14.4541L39.5643 14.4519Z" fill="#707070"/>
<path id="Vector_30" d="M40.4097 14.4519H39.9417C39.9417 14.4519 39.9259 14.4564 39.9192 14.4631C39.9124 14.4697 39.9102 14.4787 39.9102 14.4876V15.7785C39.9102 15.7785 39.9124 15.7941 39.9192 15.8008C39.9259 15.8075 39.9327 15.8097 39.9417 15.8097H40.0249C40.0249 15.8097 40.0429 15.8075 40.0497 15.8008C40.0564 15.7941 40.0609 15.7874 40.0609 15.7785V15.2991H40.4119C40.5379 15.2991 40.6414 15.2612 40.7179 15.1877C40.7944 15.1141 40.8349 15.0138 40.8349 14.8867V14.8488C40.8349 14.7239 40.7967 14.6258 40.7202 14.5567C40.6437 14.4876 40.5402 14.4519 40.4119 14.4519H40.4097ZM40.6842 14.8889C40.6842 14.9558 40.6684 15.0115 40.6369 15.0539C40.6054 15.0962 40.5672 15.1252 40.5244 15.1386C40.4794 15.152 40.4412 15.1609 40.4052 15.1609H40.0609V14.5901H40.4052C40.4614 14.5901 40.5109 14.5991 40.5537 14.6191C40.5964 14.6392 40.6279 14.6682 40.6504 14.7061C40.6729 14.744 40.6842 14.7908 40.6842 14.8488V14.8889Z" fill="#707070"/>
<path id="Vector_31" d="M29.3125 5.4735H29.5285C29.5533 5.4735 29.5735 5.46681 29.5938 5.4512C29.6118 5.4356 29.623 5.41553 29.623 5.39324V4.32973L30.2328 3.66978L31.3375 5.40884C31.3623 5.45343 31.396 5.47573 31.441 5.47573H31.7403C31.765 5.47573 31.7808 5.46904 31.7875 5.45343C31.7943 5.43783 31.7988 5.42668 31.7988 5.41999C31.7988 5.40884 31.7853 5.37986 31.7583 5.33304L30.5095 3.3844L31.738 2.0645C31.7785 2.01768 31.801 1.982 31.801 1.95748C31.801 1.93072 31.7943 1.91289 31.7785 1.9062C31.7628 1.89951 31.7515 1.89505 31.7448 1.89505H31.4613C31.4298 1.89505 31.3848 1.92627 31.3218 1.98646L29.6298 3.82808V1.98646C29.6298 1.96194 29.6208 1.94187 29.6005 1.92181C29.5825 1.90397 29.56 1.89282 29.5353 1.89282H29.3193C29.299 1.89282 29.2788 1.90174 29.263 1.92181C29.245 1.93964 29.2383 1.96194 29.2383 1.98646V5.39324C29.2383 5.41776 29.2473 5.4356 29.263 5.4512C29.281 5.46681 29.299 5.4735 29.3193 5.4735H29.3125Z" fill="#707070"/>
<path id="Vector_32" d="M32.6149 5.14127C32.7364 5.2639 32.8804 5.35754 33.0424 5.42443C33.2067 5.49131 33.3777 5.52476 33.5622 5.52476C33.7467 5.52476 33.9177 5.49131 34.0819 5.42443C34.2462 5.35754 34.3857 5.2639 34.5049 5.14127C34.6242 5.01865 34.7164 4.8715 34.7839 4.69982C34.8514 4.52814 34.8852 4.33863 34.8852 4.13574V3.24614C34.8852 3.04103 34.8514 2.85151 34.7839 2.67538C34.7164 2.49924 34.6219 2.34986 34.5027 2.22723C34.3812 2.10461 34.2394 2.01097 34.0774 1.94408C33.9132 1.87719 33.7399 1.84375 33.5577 1.84375C33.3754 1.84375 33.1887 1.88165 33.0064 1.95523C32.8242 2.03103 32.6712 2.14474 32.5497 2.29858C32.4282 2.45242 32.3449 2.61072 32.2999 2.77125C32.2549 2.93401 32.2324 3.09008 32.2324 3.24392V4.13351C32.2324 4.33863 32.2662 4.52591 32.3337 4.69759C32.4012 4.86927 32.4957 5.01642 32.6172 5.13904L32.6149 5.14127ZM32.6284 3.24837C32.6284 3.0923 32.6532 2.94738 32.7004 2.81584C32.7477 2.68429 32.8152 2.57505 32.8984 2.48586C32.9817 2.39668 33.0807 2.32979 33.1954 2.28074C33.3079 2.23392 33.4294 2.2094 33.5577 2.2094C33.6859 2.2094 33.8052 2.23392 33.9199 2.28074C34.0324 2.32756 34.1337 2.39668 34.2192 2.48586C34.3047 2.57505 34.3722 2.68429 34.4194 2.81584C34.4667 2.94738 34.4914 3.0923 34.4914 3.24837V4.13351C34.4914 4.28958 34.4644 4.44119 34.4082 4.58611C34.3542 4.73103 34.2732 4.84697 34.1674 4.93615C34.0617 5.02534 33.9582 5.08553 33.8547 5.11452C33.7512 5.14573 33.6544 5.16134 33.5599 5.16134C33.3979 5.16134 33.2562 5.1279 33.1347 5.06324C33.0132 4.99858 32.9142 4.91609 32.8377 4.81799C32.7612 4.71989 32.7072 4.60841 32.6757 4.48801C32.6419 4.36761 32.6262 4.24945 32.6262 4.13351V3.24837H32.6284Z" fill="#707070"/>
<path id="Vector_33" d="M35.93 5.47347H36.146C36.1708 5.47347 36.191 5.46678 36.2113 5.45117C36.2293 5.43556 36.2405 5.4155 36.2405 5.3932V4.02648H37.1068L37.829 5.40658C37.8538 5.45117 37.8853 5.47347 37.928 5.47347H38.2115C38.2385 5.47347 38.2565 5.46678 38.2633 5.45117C38.27 5.43556 38.2745 5.42442 38.2745 5.41773C38.2745 5.40435 38.2655 5.37983 38.2498 5.34638L37.5073 3.96628C37.6693 3.92615 37.811 3.85703 37.9325 3.76339C38.054 3.66975 38.144 3.55381 38.198 3.41781C38.252 3.28181 38.2813 3.14134 38.2813 2.99865V2.92285C38.2813 2.59287 38.18 2.3387 37.9798 2.16034C37.7795 1.98197 37.5073 1.89502 37.1675 1.89502H35.9345C35.9143 1.89502 35.894 1.90394 35.8783 1.924C35.8603 1.94184 35.8535 1.96414 35.8535 1.98866V5.39543C35.8535 5.41996 35.8625 5.43779 35.8783 5.4534C35.8963 5.46901 35.9143 5.4757 35.9345 5.4757L35.93 5.47347ZM36.2405 2.26067H37.1495C37.298 2.26067 37.4263 2.28519 37.5388 2.33201C37.6513 2.37883 37.7368 2.45241 37.7975 2.55274C37.8583 2.65084 37.8875 2.7757 37.8875 2.92508V3.00757C37.8875 3.16364 37.847 3.29518 37.7638 3.39997C37.6805 3.50476 37.5815 3.57388 37.4645 3.60955C37.3475 3.64523 37.2418 3.66306 37.1495 3.66306H36.2405V2.26067Z" fill="#707070"/>
<path id="Vector_34" d="M41.555 1.89282H39.2802C39.26 1.89282 39.2397 1.90174 39.224 1.92181C39.206 1.93964 39.1992 1.96194 39.1992 1.98646V5.39324C39.1992 5.41776 39.2082 5.4356 39.224 5.4512C39.242 5.46681 39.26 5.4735 39.2802 5.4735H41.555C41.5797 5.4735 41.6 5.46681 41.6202 5.4512C41.6382 5.4356 41.6495 5.41553 41.6495 5.39324V5.19926C41.6495 5.1792 41.6405 5.15913 41.6202 5.14129C41.6022 5.12346 41.5797 5.11231 41.555 5.11231H39.5907V3.84815H41.2085C41.2332 3.84815 41.2535 3.83923 41.2715 3.82362C41.2895 3.80579 41.2962 3.78572 41.2962 3.7612V3.57168C41.2962 3.54716 41.2872 3.52709 41.2715 3.50926C41.2535 3.49142 41.2332 3.48473 41.2085 3.48473H39.5907V2.26293H41.555C41.5797 2.26293 41.6 2.25401 41.6202 2.2384C41.6382 2.22057 41.6495 2.2005 41.6495 2.17598V1.98646C41.6495 1.96194 41.6405 1.94187 41.6202 1.92181C41.6022 1.90397 41.5797 1.89282 41.555 1.89282Z" fill="#707070"/>
<path id="Vector_35" d="M44.9805 5.34418L43.7317 1.96863C43.7115 1.91735 43.68 1.89282 43.6395 1.89282H43.3447C43.2997 1.89282 43.2682 1.91958 43.2457 1.97532L42.0217 5.3152L41.9902 5.41776C41.9902 5.4356 41.997 5.44897 42.0082 5.45789C42.0195 5.46904 42.033 5.4735 42.0465 5.4735H42.3052C42.3435 5.4735 42.3682 5.45566 42.3817 5.42222L42.7012 4.52148H44.265L44.5957 5.42222C44.607 5.45566 44.634 5.4735 44.679 5.4735H44.9422C44.967 5.4735 44.9827 5.46681 44.9895 5.4512C44.9962 5.4356 45.0007 5.42445 45.0007 5.41776C45.0007 5.39769 44.994 5.37317 44.9805 5.34641V5.34418ZM42.8317 4.16252L43.482 2.34096L44.1367 4.16252H42.8317Z" fill="#707070"/>
</g>
<path id="Vector_36" d="M20.412 0V6.75112H13.6373V13.5H6.81075V20.2511H0V27H6.81075H13.6373H20.412H27.3577V20.2511V13.5V6.75112V0H20.412Z" fill="#C81250"/>
<g id="Group_2">
<path id="Vector_37" d="M25.3386 3.93077C25.2779 3.79922 25.1901 3.68775 25.0799 3.59187C24.9674 3.496 24.8391 3.41574 24.6906 3.35108C24.5421 3.28642 24.3824 3.23514 24.2114 3.19501L23.8401 3.10583C23.7276 3.07908 23.6196 3.04563 23.5184 3.00327C23.4171 2.96314 23.3361 2.90963 23.2776 2.84274C23.2191 2.77585 23.1876 2.69336 23.1876 2.59303C23.1876 2.50162 23.2146 2.42135 23.2664 2.35001C23.3181 2.27866 23.3946 2.22292 23.4959 2.18502C23.5971 2.14489 23.7164 2.12482 23.8581 2.12482C24.0674 2.12482 24.2339 2.16941 24.3599 2.2586C24.4859 2.34778 24.5556 2.47263 24.5691 2.63762H25.3791C25.3746 2.39906 25.3116 2.18948 25.1834 2.00889C25.0574 1.82606 24.8819 1.68337 24.6569 1.58304C24.4319 1.48271 24.1686 1.4292 23.8671 1.4292C23.5656 1.4292 23.3069 1.48048 23.0751 1.58081C22.8434 1.68337 22.6611 1.82383 22.5284 2.00666C22.3956 2.18948 22.3304 2.40352 22.3304 2.64877C22.3304 2.94307 22.4271 3.17941 22.6251 3.35777C22.8209 3.53614 23.0909 3.66768 23.4374 3.75017L23.8874 3.86165C24.0381 3.8951 24.1641 3.93523 24.2699 3.98205C24.3756 4.02887 24.4544 4.08238 24.5106 4.14481C24.5669 4.20723 24.5939 4.28527 24.5939 4.37668C24.5939 4.47924 24.5624 4.57065 24.5016 4.64869C24.4386 4.72672 24.3531 4.78692 24.2429 4.82928C24.1326 4.87164 24.0021 4.89394 23.8514 4.89394C23.7006 4.89394 23.5679 4.87164 23.4486 4.82482C23.3294 4.78023 23.2349 4.71111 23.1629 4.6197C23.0909 4.52829 23.0504 4.41458 23.0391 4.27858H22.2246C22.2314 4.56396 22.3034 4.80699 22.4384 5.00096C22.5734 5.19716 22.7624 5.34431 23.0054 5.44464C23.2484 5.54497 23.5319 5.59402 23.8604 5.59402C24.1889 5.59402 24.4746 5.54497 24.7109 5.44464C24.9471 5.34431 25.1271 5.20385 25.2509 5.02102C25.3746 4.8382 25.4376 4.62639 25.4376 4.38114C25.4376 4.21169 25.4061 4.06008 25.3454 3.93077H25.3386Z" fill="white"/>
<path id="Vector_38" d="M18.3045 8.63297C18.0795 8.52372 17.805 8.47021 17.4832 8.47021H15.834V12.4076H16.7002V11.0141H17.463C17.7892 11.0141 18.066 10.9606 18.2932 10.8536C18.5205 10.7466 18.696 10.5972 18.8152 10.4077C18.9345 10.2182 18.9952 9.99746 18.9952 9.74775C18.9952 9.49804 18.9367 9.27955 18.8175 9.0878C18.6982 8.89606 18.5272 8.74445 18.3022 8.63743L18.3045 8.63297ZM18.0187 10.08C17.9625 10.1758 17.877 10.2516 17.7622 10.3074C17.6475 10.3631 17.5012 10.3899 17.3235 10.3899H16.698V9.1101H17.319C17.4967 9.1101 17.643 9.13685 17.76 9.19036C17.8747 9.24387 17.9602 9.31745 18.0165 9.41332C18.0727 9.50919 18.0997 9.62067 18.0997 9.74775C18.0997 9.87484 18.0727 9.98632 18.0165 10.0822L18.0187 10.08Z" fill="white"/>
<path id="Vector_39" d="M10.6886 15.0764H9.85156V18.9648H10.6886V15.0764Z" fill="white"/>
<path id="Vector_40" d="M1.74219 22.6836H2.99544V25.9253H3.83469V22.6836H5.08344V21.9946H1.74219V22.6836Z" fill="white"/>
</g>
</g>
<defs>
<clipPath id="clip0_1271_20503">
<rect width="45" height="27" fill="white"/>
</clipPath>
</defs>
</svg>
