<?xml version="1.0" encoding="UTF-8"?>
<svg id="Artwork" xmlns="http://www.w3.org/2000/svg" viewBox="0 0 313.25 40.68">
  <defs>
    <style>
      .cls-1 {
        fill: #221e1f;
      }

      .cls-2 {
        fill: #fff;
      }

      .cls-3 {
        fill: #74b243;
      }
    </style>
  </defs>
  <g>
    <path class="cls-2" d="M39.03,17.93c.01,1.97-.74,3.83-2.12,5.23-.05.05-.1.08-.15.13-2.86,2.76-7.42,2.76-10.26-.05l-3.83-3.79,3.4-3.46,3.83,3.79c.99.98,2.58.96,3.55-.02.47-.48.73-1.11.72-1.79s-.27-1.3-.75-1.78l-3.66-3.61c-.86-.85-2.21-.89-3.13-.13l-1.11,1.12h-.03s-9.5,9.65-9.5,9.65c-1.35,1.37-3.15,2.13-5.07,2.15s-3.73-.72-5.1-2.08l-3.66-3.61C.79,18.29.01,16.44,0,14.47c-.01-1.97.74-3.83,2.12-5.23.08-.08.17-.15.25-.23,1.35-1.25,3.09-1.96,4.94-1.97,1.97-.01,3.82.74,5.22,2.12l3.82,3.78-3.41,3.46-3.82-3.78c-.48-.47-1.11-.73-1.78-.73s-1.3.27-1.77.75-.73,1.11-.72,1.79c0,.67.27,1.3.75,1.78l3.66,3.61c.9.89,2.35.89,3.26.02l.9-.92.09-.08,9.51-9.67c2.78-2.83,7.34-2.86,10.17-.07l3.66,3.61c1.4,1.38,2.18,3.23,2.19,5.2Z"/>
    <g>
      <polygon class="cls-2" points="57.87 17.73 60.94 17.73 60.94 6.57 57.87 6.57 57.87 8.59 56.06 8.59 56.06 11.39 57.87 11.39 57.87 12.86 56.06 12.86 56.06 15.65 57.87 15.65 57.87 17.73"/>
      <polygon class="cls-2" points="46.11 13.24 49.34 13.24 49.34 9.58 55.47 9.58 55.47 6.89 44.54 6.89 44.54 9.58 46.11 9.58 46.11 13.24"/>
      <path class="cls-2" d="M57.25,18.41h-8.96c-2.18,0-3.75,1.45-3.75,3.47s1.57,3.47,3.75,3.47h8.96c2.22,0,3.79-1.47,3.79-3.47s-1.57-3.47-3.79-3.47ZM56.06,22.69h-6.6c-.65,0-1.09-.3-1.09-.83s.44-.81,1.09-.81h6.6c.73,0,1.15.3,1.15.81s-.42.83-1.15.83Z"/>
      <polygon class="cls-2" points="55.47 14.6 53.9 14.6 53.9 10.93 50.67 10.93 50.67 14.6 44.54 14.6 44.54 17.28 55.47 17.28 55.47 14.6"/>
      <polygon class="cls-2" points="73.11 7.72 70.07 7.72 70.07 6.4 67.28 6.4 67.28 7.72 64 7.72 64 10.26 73.11 10.26 73.11 7.72"/>
      <path class="cls-2" d="M67.08,10.91c-1.55,0-2.84,1.41-2.84,3.19s1.29,3.19,2.84,3.19h2.98c1.57,0,2.84-1.41,2.84-3.19s-1.27-3.19-2.84-3.19h-2.98ZM69.32,14.82h-1.51c-.48,0-.77-.36-.77-.72,0-.4.28-.75.77-.75h1.51c.48,0,.77.34.77.75,0,.36-.28.72-.77.72Z"/>
      <polygon class="cls-2" points="76.82 13.75 77.55 13.75 77.55 17.73 80.55 17.73 80.55 6.57 77.55 6.57 77.55 10.65 76.82 10.65 76.82 6.57 73.88 6.57 73.88 17.73 76.82 17.73 76.82 13.75"/>
      <path class="cls-2" d="M77.04,18.48h-9.14c-2.14,0-3.67,1.44-3.67,3.42s1.53,3.45,3.67,3.45h9.14c2.18,0,3.71-1.46,3.71-3.46s-1.53-3.41-3.71-3.41ZM75.83,22.68h-6.72c-.61,0-1.03-.26-1.03-.78s.42-.79,1.03-.79h6.72c.69,0,1.09.28,1.09.78s-.4.79-1.09.79Z"/>
      <polygon class="cls-2" points="95.53 13.53 99.42 13.53 99.42 6.84 83.92 6.84 83.92 9.68 95.53 9.68 95.53 13.53"/>
      <path class="cls-2" d="M96.28,18.48h-9.19c-2.14,0-3.67,1.44-3.67,3.42s1.53,3.45,3.67,3.45h9.19c2.18,0,3.71-1.46,3.71-3.46s-1.53-3.41-3.71-3.41ZM95.07,22.68h-6.77c-.61,0-1.03-.26-1.03-.78s.42-.79,1.03-.79h6.77c.69,0,1.09.28,1.09.78s-.4.79-1.09.79Z"/>
      <polygon class="cls-2" points="92.24 11.09 89.26 11.09 89.26 14.4 83.15 14.4 83.15 17.28 100.17 17.28 100.17 14.4 92.24 14.4 92.24 11.09"/>
      <path class="cls-2" d="M113.75,8.92v-2.03h-11.19v2.96h7.9c0,2.32-2.93,5.05-7.9,5.05v2.96c6.4,0,11.19-3.16,11.19-8.94Z"/>
      <polygon class="cls-2" points="118.84 10.73 118.84 6.57 115.5 6.57 115.5 20.4 118.84 20.4 118.84 14.03 121.13 14.03 121.13 10.73 118.84 10.73"/>
      <polygon class="cls-2" points="107.32 18.74 103.43 18.74 103.43 25.35 119.24 25.35 119.24 22.31 107.32 22.31 107.32 18.74"/>
    </g>
    <g>
      <path class="cls-2" d="M49.55,30.93c-.09.23-.23.43-.4.59s-.38.3-.63.39c-.24.1-.52.14-.82.14h-1.41v2.44h-.94v-6.2h2.35c.3,0,.57.05.82.14.24.1.45.23.63.39s.31.36.4.6c.09.23.14.48.14.75s-.05.52-.14.75ZM48.45,29.41c-.2-.18-.47-.27-.8-.27h-1.36v2.06h1.36c.33,0,.6-.09.8-.26s.3-.43.3-.76-.1-.59-.3-.77Z"/>
      <path class="cls-2" d="M52.64,34.5v-.4c-.16.16-.33.28-.5.35-.18.07-.4.1-.67.1s-.51-.03-.7-.1c-.19-.07-.35-.17-.48-.3-.23-.24-.35-.56-.35-.95s.13-.68.38-.92.63-.36,1.15-.36h1.17v-.31c0-.28-.07-.49-.22-.62s-.4-.21-.75-.21c-.24,0-.44.03-.57.1-.14.06-.27.18-.39.33l-.58-.55c.21-.24.43-.41.67-.5s.54-.13.91-.13c1.21,0,1.82.51,1.82,1.52v2.95h-.87ZM52.62,32.55h-1.04c-.26,0-.46.06-.59.17-.13.11-.2.27-.2.47s.07.36.2.47c.13.11.34.16.61.16.17,0,.32-.01.45-.04.13-.03.26-.1.37-.21.13-.13.19-.35.19-.65v-.36Z"/>
      <path class="cls-2" d="M56.94,31.12c-.1-.1-.2-.17-.29-.22-.09-.05-.22-.07-.37-.07-.24,0-.45.09-.62.27s-.26.42-.26.73v2.68h-.89v-4.42h.87v.48c.12-.16.28-.28.49-.38.21-.1.44-.15.69-.15.22,0,.41.03.57.1.17.06.33.17.48.32l-.67.67Z"/>
      <path class="cls-2" d="M60.25,34.5v-.4c-.16.16-.33.28-.5.35-.18.07-.4.1-.67.1s-.51-.03-.7-.1c-.19-.07-.35-.17-.48-.3-.23-.24-.35-.56-.35-.95s.13-.68.38-.92.63-.36,1.15-.36h1.17v-.31c0-.28-.07-.49-.22-.62s-.4-.21-.75-.21c-.24,0-.44.03-.57.1-.14.06-.27.18-.39.33l-.58-.55c.21-.24.43-.41.67-.5s.54-.13.91-.13c1.21,0,1.82.51,1.82,1.52v2.95h-.87ZM60.23,32.55h-1.04c-.26,0-.46.06-.59.17-.13.11-.2.27-.2.47s.07.36.2.47c.13.11.34.16.61.16.17,0,.32-.01.45-.04.13-.03.26-.1.37-.21.13-.13.19-.35.19-.65v-.36Z"/>
      <path class="cls-2" d="M63.3,34.5c-.21,0-.39-.03-.54-.1-.15-.07-.28-.16-.38-.27-.1-.11-.17-.24-.22-.39-.05-.15-.07-.3-.07-.47v-4.98h.89v4.93c0,.17.04.3.1.38.07.09.19.13.37.13h.39v.76h-.55Z"/>
      <path class="cls-2" d="M65.63,34.5c-.21,0-.39-.03-.54-.1-.15-.07-.28-.16-.38-.27-.1-.11-.17-.24-.22-.39-.05-.15-.07-.3-.07-.47v-4.98h.89v4.93c0,.17.04.3.1.38.07.09.19.13.37.13h.39v.76h-.55Z"/>
      <path class="cls-2" d="M67.23,32.55c0,.38.1.69.29.91s.47.33.84.33c.25,0,.45-.04.61-.11.15-.07.31-.19.47-.35l.57.53c-.12.12-.23.22-.35.3-.11.08-.23.16-.37.21-.13.06-.27.1-.43.13-.15.03-.33.04-.52.04-.28,0-.54-.04-.78-.12-.24-.08-.45-.21-.63-.38-.18-.18-.32-.41-.43-.7-.1-.29-.16-.65-.16-1.06,0-.72.17-1.28.51-1.67.34-.39.8-.59,1.37-.59.3,0,.56.05.79.16s.43.25.59.44c.16.19.28.41.37.67.08.26.13.55.13.86v.39h-2.87ZM69.18,31.6c-.01-.09-.04-.18-.09-.27-.07-.17-.18-.3-.33-.4-.15-.1-.33-.15-.54-.15s-.39.05-.54.15c-.15.1-.27.24-.34.4-.05.1-.08.19-.09.27-.01.08-.02.19-.03.33h1.99c0-.13-.02-.24-.03-.33Z"/>
      <path class="cls-2" d="M72.07,34.5c-.21,0-.39-.03-.54-.1-.15-.07-.28-.16-.38-.27-.1-.11-.17-.24-.22-.39-.05-.15-.07-.3-.07-.47v-4.98h.89v4.93c0,.17.04.3.1.38.07.09.19.13.37.13h.39v.76h-.55Z"/>
      <path class="cls-2" d="M78.75,33.5c-.11.23-.26.42-.46.57-.2.16-.43.28-.71.36-.27.08-.57.12-.9.12-.47,0-.88-.06-1.23-.18-.35-.12-.67-.33-.97-.64l.63-.62c.23.23.47.38.72.47s.54.13.86.13c.41,0,.72-.08.94-.25.22-.17.34-.4.34-.7,0-.28-.08-.5-.24-.64-.08-.08-.17-.13-.26-.17-.09-.04-.23-.07-.42-.1l-.73-.1c-.5-.07-.9-.24-1.18-.5-.3-.28-.45-.68-.45-1.19,0-.27.05-.51.14-.74s.23-.42.41-.58.39-.29.65-.37.55-.13.87-.13c.41,0,.77.06,1.07.17.3.11.59.29.85.54l-.6.59c-.19-.18-.4-.31-.62-.38s-.47-.1-.73-.1c-.37,0-.65.09-.84.27-.19.18-.29.41-.29.69,0,.12.02.22.06.32.04.1.1.18.18.26.16.14.4.24.7.29l.71.1c.29.05.52.11.7.18.17.07.33.17.46.28.17.15.29.33.38.55.09.22.13.46.13.72,0,.28-.05.54-.17.77Z"/>
      <path class="cls-2" d="M83.31,32.8c0,.18-.03.34-.07.51-.04.17-.09.32-.15.47-.07.15-.16.27-.26.38-.12.12-.28.22-.46.29s-.39.1-.61.1c-.24,0-.45-.04-.64-.11-.19-.07-.36-.2-.52-.4v2.24h-.89v-6.2h.87v.47c.17-.2.35-.34.53-.41.18-.07.4-.11.64-.11.22,0,.43.03.61.1.19.07.34.17.47.29.11.11.2.24.26.38.07.14.12.3.15.46.03.16.06.33.07.5,0,.18.01.35.01.51s0,.34-.01.51ZM82.4,31.72c-.02-.18-.06-.33-.13-.47-.06-.13-.16-.24-.28-.32-.12-.08-.28-.12-.48-.12s-.36.04-.48.12c-.12.08-.21.18-.28.32-.07.13-.11.29-.13.47s-.03.36-.03.56,0,.39.03.56c.02.18.06.33.13.47s.16.24.28.32c.12.08.28.12.48.12s.36-.04.48-.12c.12-.08.22-.19.28-.32.06-.14.11-.29.13-.47.02-.18.03-.36.03-.56s0-.38-.03-.56Z"/>
      <path class="cls-2" d="M86.53,34.5v-.4c-.16.16-.33.28-.5.35-.18.07-.4.1-.67.1s-.51-.03-.7-.1c-.19-.07-.35-.17-.48-.3-.23-.24-.35-.56-.35-.95s.13-.68.38-.92.63-.36,1.15-.36h1.17v-.31c0-.28-.07-.49-.22-.62s-.4-.21-.75-.21c-.24,0-.44.03-.57.1-.14.06-.27.18-.39.33l-.58-.55c.21-.24.43-.41.67-.5s.54-.13.91-.13c1.21,0,1.82.51,1.82,1.52v2.95h-.87ZM86.51,32.55h-1.04c-.26,0-.46.06-.59.17-.13.11-.2.27-.2.47s.07.36.2.47c.13.11.34.16.61.16.17,0,.32-.01.45-.04.13-.03.26-.1.37-.21.13-.13.19-.35.19-.65v-.36Z"/>
      <path class="cls-2" d="M90.94,34.4c-.23.1-.49.15-.8.15-.25,0-.49-.04-.73-.12-.24-.08-.44-.21-.63-.39-.18-.18-.33-.41-.44-.7-.11-.29-.17-.64-.17-1.05s.06-.76.17-1.05c.11-.29.26-.52.44-.7.18-.18.39-.31.63-.39.23-.08.48-.12.73-.12.31,0,.57.05.8.14.23.1.44.25.65.48l-.61.59c-.14-.15-.27-.26-.4-.32-.12-.06-.27-.1-.45-.1-.35,0-.62.13-.82.39-.1.12-.17.26-.2.43-.04.17-.06.38-.06.64s.02.48.06.65c.04.17.11.31.2.44.2.26.47.39.82.39.18,0,.32-.03.45-.1.13-.06.26-.17.4-.32l.61.58c-.21.22-.43.38-.65.48Z"/>
      <path class="cls-2" d="M92.76,32.55c0,.38.1.69.29.91s.47.33.84.33c.25,0,.45-.04.61-.11.15-.07.31-.19.47-.35l.57.53c-.12.12-.23.22-.35.3-.11.08-.23.16-.37.21-.13.06-.27.1-.43.13-.15.03-.33.04-.52.04-.28,0-.54-.04-.78-.12-.24-.08-.45-.21-.63-.38-.18-.18-.32-.41-.43-.7-.1-.29-.16-.65-.16-1.06,0-.72.17-1.28.51-1.67.34-.39.8-.59,1.37-.59.3,0,.56.05.79.16s.43.25.59.44c.16.19.28.41.37.67.08.26.13.55.13.86v.39h-2.87ZM94.71,31.6c-.01-.09-.04-.18-.09-.27-.07-.17-.18-.3-.33-.4-.15-.1-.33-.15-.54-.15s-.39.05-.54.15c-.15.1-.27.24-.34.4-.05.1-.08.19-.09.27-.01.08-.02.19-.03.33h1.99c0-.13-.02-.24-.03-.33Z"/>
      <path class="cls-2" d="M100.68,34.4c-.23.1-.49.15-.8.15-.25,0-.49-.04-.73-.12-.24-.08-.44-.21-.63-.39-.18-.18-.33-.41-.44-.7-.11-.29-.17-.64-.17-1.05s.06-.76.17-1.05c.11-.29.26-.52.44-.7.18-.18.39-.31.63-.39.23-.08.48-.12.73-.12.31,0,.57.05.8.14.23.1.44.25.65.48l-.61.59c-.14-.15-.27-.26-.4-.32-.12-.06-.27-.1-.45-.1-.35,0-.62.13-.82.39-.1.12-.17.26-.2.43-.04.17-.06.38-.06.64s.02.48.06.65c.04.17.11.31.2.44.2.26.47.39.82.39.18,0,.32-.03.45-.1.13-.06.26-.17.4-.32l.61.58c-.21.22-.43.38-.65.48Z"/>
      <path class="cls-2" d="M105.21,33.27c-.07.28-.21.53-.42.75-.15.15-.33.28-.54.37-.22.1-.48.15-.78.15s-.56-.05-.78-.15-.4-.22-.54-.37c-.21-.22-.35-.47-.42-.75-.07-.28-.1-.61-.1-.99s.03-.7.1-.98c.07-.28.21-.53.42-.75.14-.15.32-.28.54-.37.22-.1.47-.15.78-.15s.56.05.78.15c.22.1.4.22.54.37.21.22.35.47.42.75.07.28.1.61.1.98s-.04.71-.1.99ZM104.37,31.6c-.03-.22-.12-.39-.25-.52-.17-.17-.39-.25-.65-.25s-.48.08-.64.25c-.13.13-.22.31-.25.52-.04.22-.05.44-.05.69s.02.47.05.69c.03.21.12.39.25.52.17.17.39.26.64.26s.48-.09.65-.26c.13-.13.22-.31.25-.52.04-.22.05-.44.05-.69s-.02-.47-.05-.69Z"/>
      <path class="cls-2" d="M106.11,34.5v-1.06h1.06v1.06h-1.06Z"/>
      <path class="cls-2" d="M108.16,35.85v-2.36h1.01v1.53l-1.01.83Z"/>
      <path class="cls-2" d="M111.37,34.5c-.21,0-.39-.03-.54-.1-.15-.07-.28-.16-.38-.27-.1-.11-.17-.24-.22-.39-.05-.15-.07-.3-.07-.47v-4.98h.89v4.93c0,.17.04.3.1.38.07.09.19.13.37.13h.39v.76h-.55Z"/>
      <path class="cls-2" d="M113.83,34.5c-.21,0-.39-.04-.54-.1-.15-.07-.28-.16-.38-.27-.1-.11-.17-.24-.22-.39-.05-.15-.07-.3-.07-.46v-2.43h-.51v-.68h.51v-1.34h.89v1.34h.85v.68h-.85v2.39c0,.16.04.29.12.38.08.09.2.13.37.13h.37v.76h-.53Z"/>
      <path class="cls-2" d="M117.66,34.5v-.47c-.17.2-.34.34-.53.41-.18.07-.4.11-.64.11-.22,0-.43-.04-.61-.1-.19-.07-.34-.17-.47-.29-.11-.11-.2-.24-.26-.38-.07-.14-.12-.3-.15-.47-.04-.17-.06-.34-.07-.51,0-.17-.01-.35-.01-.51s0-.34.01-.51c0-.17.03-.34.07-.5s.09-.32.15-.46c.07-.15.15-.27.26-.38.12-.12.28-.22.46-.29.19-.07.39-.1.61-.1.24,0,.45.03.64.1.19.07.36.2.52.39v-2.23h.89v6.2h-.87ZM117.61,31.72c-.02-.18-.06-.33-.13-.47-.06-.13-.16-.24-.28-.32-.12-.08-.28-.12-.48-.12s-.36.04-.48.12c-.12.08-.21.18-.28.32-.07.13-.11.29-.13.47-.02.18-.03.36-.03.56s0,.39.03.56c.02.18.06.33.13.47s.16.24.28.32c.12.08.28.12.48.12s.36-.04.48-.12c.12-.08.21-.19.28-.32s.11-.29.13-.47c.02-.18.03-.36.03-.56s0-.38-.03-.56Z"/>
      <path class="cls-2" d="M119.54,34.5v-1.06h1.06v1.06h-1.06Z"/>
    </g>
  </g>
  <polygon class="cls-2" points="172.46 8.68 170.9 7.12 159.23 18.78 147.57 7.12 146.01 8.68 157.67 20.34 146.01 32.01 147.57 33.57 159.23 21.9 170.9 33.57 172.46 32.01 160.79 20.34 172.46 8.68"/>
  <g id="Inception_Program" data-name="Inception Program">
    <rect class="cls-2" x="203.54" y=".98" width="108.72" height="38.72"/>
    <path class="cls-1" d="M202.56,0v40.68h110.69V0h-110.69ZM312.26,39.7h-108.72V.98h108.72v38.72ZM251.23,36.69h-.49V3.99h.49v32.7ZM259.85,18.17h-1.01v-6.14h1.01v6.14ZM264.27,15.53c0-.37-.08-.65-.24-.85-.16-.2-.4-.29-.72-.29h-.06c-.19,0-.37.05-.54.14-.17.09-.31.24-.41.43-.11.19-.16.44-.16.74v2.47h-.97v-4.49h.85v.68c.14-.25.33-.44.57-.58.24-.14.53-.22.86-.22h.09c.51,0,.91.16,1.22.47.3.32.46.77.46,1.37v2.77h-.97v-2.64ZM266.7,17.71c-.38-.38-.57-.93-.57-1.64v-.29c0-.47.09-.87.27-1.2.18-.33.43-.58.75-.76.32-.18.69-.26,1.11-.26h.09c.42,0,.77.1,1.06.3.29.2.5.46.63.79l-.77.34c-.09-.18-.21-.33-.36-.43-.15-.11-.33-.16-.56-.16h-.08c-.35,0-.63.11-.85.34-.22.23-.33.57-.33,1.03v.32c0,.47.11.82.32,1.04.21.22.5.33.86.33h.08c.23,0,.43-.05.59-.15.16-.1.28-.24.37-.42l.75.4c-.13.29-.34.53-.64.72-.3.19-.65.28-1.07.28h-.09c-.66,0-1.17-.19-1.56-.58ZM272.76,18.28h.13c.42,0,.77-.08,1.08-.23.3-.15.54-.37.69-.64l-.7-.46c-.11.18-.24.32-.42.41-.17.09-.39.14-.65.14h-.13c-.35,0-.62-.11-.81-.32-.2-.22-.3-.54-.32-.98h3.18v-.54c0-.64-.18-1.15-.53-1.54-.35-.38-.83-.57-1.44-.57h-.08c-.64,0-1.14.2-1.52.59-.37.4-.56.94-.56,1.64v.29c0,.71.18,1.25.55,1.64.37.38.88.58,1.53.58ZM271.98,14.64c.2-.2.45-.3.78-.3h.07c.33,0,.58.1.77.29.18.19.28.47.28.83v.06h-2.24c.04-.39.15-.68.35-.88ZM278.1,18.28c.37,0,.7-.09.98-.25s.51-.42.68-.75c.17-.33.25-.73.25-1.21v-.29c0-.48-.08-.88-.25-1.21-.17-.33-.39-.58-.68-.75s-.61-.26-.98-.26h-.05c-.35,0-.64.07-.89.21-.25.14-.44.33-.58.57v-.66h-.85v6.25h.97v-2.28c.15.2.33.36.57.47.23.11.5.17.79.17h.05ZM277.81,17.46c-.19,0-.38-.05-.55-.14-.18-.1-.32-.25-.43-.46-.11-.21-.16-.48-.16-.8v-.27c0-.33.05-.6.16-.81.11-.2.25-.35.42-.45.17-.09.36-.14.56-.14h.07c.33,0,.61.11.83.33.22.22.33.57.33,1.05v.3c0,.48-.11.83-.33,1.05-.22.22-.5.33-.83.33h-.07ZM281.26,14.47h-.95v-.8h.95v-1.32h.96v1.32h1.47l-.11.8h-1.35v2.22c0,.25.06.43.18.54.12.11.29.16.53.16h.76v.82h-.86c-.57,0-.97-.13-1.21-.38-.24-.25-.36-.62-.36-1.09v-2.26ZM284.54,11.87h1v1.01h-1v-1.01ZM284.56,13.67h.97v4.49h-.97v-4.49ZM287.5,18.02c.32.17.68.26,1.08.26h.08c.4,0,.77-.09,1.09-.26.32-.17.57-.43.76-.76.18-.33.28-.73.28-1.2v-.29c0-.47-.09-.87-.28-1.2-.18-.33-.44-.58-.76-.76-.32-.18-.68-.26-1.09-.26h-.08c-.4,0-.76.09-1.08.26-.32.18-.57.43-.76.76-.19.33-.28.73-.28,1.21v.28c0,.47.09.87.28,1.2.19.33.44.59.76.76ZM287.43,15.75c0-.46.11-.81.33-1.03s.5-.34.82-.34h.07c.33,0,.61.11.83.34s.33.57.33,1.03v.32c0,.46-.11.81-.33,1.03-.22.23-.5.34-.83.34h-.07c-.33,0-.6-.11-.82-.34-.22-.23-.33-.57-.33-1.03v-.32ZM295.79,15.39v2.77h-.97v-2.64c0-.37-.08-.65-.24-.85-.16-.2-.4-.29-.72-.29h-.06c-.19,0-.37.05-.54.14-.17.09-.31.24-.41.43-.11.19-.16.44-.16.74v2.47h-.97v-4.49h.85v.68c.14-.25.33-.44.57-.58s.53-.22.86-.22h.09c.51,0,.91.16,1.22.47.3.32.46.77.46,1.37ZM262.74,21.3c-.4-.34-.95-.5-1.65-.5h-2.25v6.14h1.01v-2.16h1.24c.7,0,1.25-.17,1.65-.5.4-.33.61-.8.61-1.41v-.18c0-.59-.2-1.05-.61-1.39ZM262.34,22.9c0,.35-.12.61-.35.77-.23.16-.54.25-.93.25h-1.21v-2.25h1.21c.39,0,.69.08.93.25s.35.42.35.76v.23ZM266.31,22.4h.46v.89h-.45c-.21,0-.41.05-.59.14-.18.09-.33.24-.45.44-.11.2-.17.47-.17.8v2.26h-.97v-4.49h.85v.85c.11-.27.27-.49.47-.66.2-.16.48-.25.85-.25ZM270.42,22.59c-.32-.18-.68-.26-1.09-.26h-.08c-.4,0-.76.09-1.08.26-.32.18-.57.43-.76.76-.19.33-.28.73-.28,1.21v.28c0,.47.09.87.28,1.2.19.33.44.59.76.76s.68.26,1.08.26h.08c.4,0,.77-.09,1.09-.26s.57-.43.76-.76c.18-.33.28-.73.28-1.2v-.29c0-.47-.09-.87-.28-1.2-.18-.33-.44-.58-.76-.76ZM270.5,24.85c0,.46-.11.81-.33,1.03-.22.23-.5.34-.83.34h-.07c-.33,0-.6-.11-.82-.34-.22-.23-.33-.57-.33-1.03v-.32c0-.46.11-.81.33-1.03.22-.23.5-.34.82-.34h.07c.33,0,.61.11.83.34.22.23.33.57.33,1.03v.32ZM275.6,23.12c-.29-.53-.78-.79-1.47-.79h-.06c-.38,0-.71.09-1,.27-.29.18-.51.44-.67.76-.16.33-.24.71-.24,1.14v.24c0,.43.08.81.24,1.14.16.33.38.58.67.76.29.18.62.27,1,.27h.06c.6,0,1.05-.21,1.35-.64v.47c0,.85-.37,1.27-1.12,1.27h-.11c-.29,0-.52-.04-.69-.13-.17-.08-.32-.22-.43-.42l-.69.52c.16.27.39.48.68.62.29.14.66.21,1.1.21h.18c.66,0,1.17-.18,1.53-.55.36-.37.54-.88.54-1.56v-4.26h-.85v.67ZM275.49,24.73c0,.41-.1.74-.31.99s-.48.37-.83.37h-.08c-.36,0-.64-.12-.84-.36-.21-.24-.31-.57-.31-.99v-.25c0-.42.1-.74.31-.98.2-.24.49-.36.84-.36h.08c.34,0,.62.12.83.36s.31.57.31.99v.22ZM279.8,22.4h.46v.89h-.45c-.21,0-.41.05-.59.14-.18.09-.33.24-.45.44-.11.2-.17.47-.17.8v2.26h-.97v-4.49h.85v.85c.11-.27.27-.49.47-.66.2-.16.48-.25.85-.25ZM282.68,22.33h-.13c-.44,0-.81.09-1.12.27-.31.18-.53.42-.66.73l.75.39c.11-.22.24-.37.41-.46.17-.09.38-.14.63-.14h.1c.6,0,.89.33.89,1v.04l-1.59.21c-.44.06-.78.2-1.01.44-.23.23-.35.54-.35.9,0,.43.13.76.39,1,.26.24.63.36,1.11.36h.06c.33,0,.63-.07.89-.22.26-.14.46-.34.6-.58v.68h.85v-2.84c0-.58-.16-1.02-.47-1.32-.31-.3-.76-.45-1.36-.45ZM283.54,25.11c0,.36-.1.64-.31.86-.2.21-.48.32-.82.32h-.09c-.25,0-.45-.06-.58-.17-.14-.11-.21-.27-.21-.47s.06-.34.18-.44c.12-.09.33-.16.64-.2l1.19-.18v.28ZM291.97,22.8c.28.32.43.77.43,1.37v2.77h-.96v-2.64c0-.37-.07-.65-.21-.85-.14-.2-.36-.29-.65-.29h-.07c-.16,0-.32.05-.48.14-.16.09-.28.24-.38.43-.1.19-.14.44-.14.74v2.47h-.96v-2.64c0-.37-.07-.65-.21-.85-.14-.2-.36-.29-.65-.29h-.07c-.16,0-.32.05-.48.14-.16.09-.28.24-.38.43-.1.19-.14.44-.14.74v2.47h-.97v-4.49h.85v.67c.13-.25.31-.44.54-.58.23-.14.49-.21.79-.21h.08c.68,0,1.15.28,1.4.83.14-.26.33-.46.57-.61.24-.15.52-.22.85-.22h.08c.49,0,.88.16,1.16.47Z"/>
    <g id="NVIDIA_Logo" data-name="NVIDIA Logo">
      <path id="NVIDIA" class="cls-1" d="M223.67,27v6.24h1.76v-6.24h-1.76ZM209.81,27v6.25h1.78v-4.74h1.38c.46,0,.78.11,1,.35.28.3.39.78.39,1.65v2.74h1.72s0-3.45,0-3.45c0-2.46-1.57-2.79-3.11-2.79h-3.16M226.5,27v6.24h2.86c1.52,0,2.02-.25,2.56-.82.38-.4.63-1.27.63-2.23,0-.88-.21-1.66-.57-2.15-.65-.87-1.59-1.04-3-1.04h-2.47ZM228.25,28.36h.76c1.1,0,1.81.49,1.81,1.77s-.71,1.77-1.81,1.77h-.76v-3.55ZM221.13,27l-1.47,4.94-1.41-4.94h-1.9s2.01,6.24,2.01,6.24h2.54l2.03-6.24h-1.8ZM233.36,33.24h1.76v-6.24h-1.76s0,6.24,0,6.24ZM238.3,27.01l-2.46,6.23h1.74l.39-1.1h2.91l.37,1.1h1.89l-2.48-6.23h-2.35ZM239.44,28.14l1.07,2.92h-2.17l1.1-2.92Z"/>
      <path id="Eye_Mark" data-name="Eye Mark" class="cls-3" d="M221.34,12.39v-1.5c.15-.01.29-.02.44-.02,4.1-.13,6.79,3.52,6.79,3.52,0,0-2.9,4.03-6.02,4.03-.45,0-.85-.07-1.21-.19v-4.54c1.6.19,1.92.9,2.88,2.5l2.13-1.8s-1.56-2.04-4.18-2.04c-.29,0-.56.02-.83.05M221.34,7.44v2.24c.15-.01.29-.02.44-.03,5.7-.19,9.41,4.67,9.41,4.67,0,0-4.26,5.19-8.71,5.19-.41,0-.79-.04-1.15-.1v1.38c.31.04.62.06.95.06,4.13,0,7.12-2.11,10.02-4.61.48.38,2.45,1.32,2.85,1.73-2.75,2.3-9.17,4.16-12.81,4.16-.35,0-.69-.02-1.02-.05v1.94h15.71V7.44h-15.71ZM221.34,18.23v1.18c-3.82-.68-4.89-4.66-4.89-4.66,0,0,1.84-2.03,4.89-2.36v1.3s0,0,0,0c-1.6-.19-2.85,1.3-2.85,1.3,0,0,.7,2.52,2.86,3.24M214.55,14.59s2.27-3.34,6.79-3.69v-1.21c-5.01.4-9.35,4.65-9.35,4.65,0,0,2.46,7.11,9.35,7.76v-1.29c-5.06-.64-6.79-6.21-6.79-6.21Z"/>
    </g>
  </g>
</svg>