<svg width="170" height="68" viewBox="0 0 170 68" fill="none" xmlns="http://www.w3.org/2000/svg">
<path fill-rule="evenodd" clip-rule="evenodd" d="M18.4755 0.565605C18.4306 0.565605 18.3704 0.550449 18.3054 0.530453C18.1647 0.413234 17.9244 0.31544 17.6842 0.43457L2.11584 0.434757C1.72004 0.434757 1.45618 0.696451 1.45618 1.08899V19.1645H0.517177C0.206571 19.1645 0 19.4262 0 19.8187V32.4923C0 32.8848 0.206571 33.1465 0.517177 33.1465H1.45618V37.7261C1.45618 38.1186 1.72004 38.3804 2.11584 38.3804H28.5023C28.8981 38.3804 29.1621 38.1186 29.1621 37.7261V33.1465H29.4828C29.7934 33.1465 30 32.8848 30 32.4923V19.8187C30 19.4262 29.7934 19.1645 29.4828 19.1645H29.1621V11.6877C29.1621 11.4259 29.1621 11.2951 29.0301 11.1643L18.4755 0.565605ZM2.7755 33.1465H27.8427V37.0719H2.7755V33.1465ZM28.5109 31.838H28.9656V20.473H1.03435V31.838H2.10732C2.11015 31.838 2.11299 31.838 2.11584 31.838H28.5023C28.5053 31.838 28.5081 31.838 28.5109 31.838ZM2.7755 1.74323H17.2884V11.6874C17.2884 12.08 17.5523 12.3417 17.9481 12.3417H27.8427V19.1459H2.7755V1.74323ZM22.939 7.02278L18.6078 2.67138V11.0332H26.9195L22.939 7.02278Z" fill="#717880"/>
<path d="M1.59375 61.3804V50.0679H8.60938V51.5522H3.3125V54.9741H8.10938V56.4429H3.3125V61.3804H1.59375ZM10.5312 61.3804V50.0679H14.6719C17.0781 50.0679 18.25 51.3647 18.25 53.0366C18.25 54.4429 17.3906 55.1616 16.3438 55.4272V55.5366C17.4688 55.5991 18.6875 56.5835 18.6875 58.3335C18.6875 60.0679 17.5 61.3804 14.8594 61.3804H10.5312ZM14.7031 59.9116C16.3281 59.9116 16.9844 59.1929 16.9844 58.2554C16.9844 57.1772 16.125 56.3022 14.7656 56.3022H12.25V59.9116H14.7031ZM14.5312 54.9585C15.6719 54.9585 16.5625 54.2554 16.5625 53.1772C16.5625 52.2397 15.9219 51.5366 14.5625 51.5366H12.25V54.9585H14.5312ZM21.7344 50.0679L24.4219 54.4741H24.5156L27.2188 50.0679H29.2031L25.6719 55.7241L29.2344 61.3804H27.2188L24.5156 57.021H24.4219L21.7031 61.3804H19.7031L23.3125 55.7241L19.7188 50.0679H21.7344Z" fill="#1B1B1B"/>
<path fill-rule="evenodd" clip-rule="evenodd" d="M88.4755 0.565605C88.4306 0.565605 88.3704 0.550449 88.3054 0.530453C88.1647 0.413234 87.9244 0.31544 87.6842 0.43457L72.1158 0.434757C71.72 0.434757 71.4562 0.696451 71.4562 1.08899V19.1645H70.5172C70.2066 19.1645 70 19.4262 70 19.8187V32.4923C70 32.8848 70.2066 33.1465 70.5172 33.1465H71.4562V37.7261C71.4562 38.1186 71.72 38.3804 72.1158 38.3804H98.5023C98.8981 38.3804 99.1621 38.1186 99.1621 37.7261V33.1465H99.4828C99.7934 33.1465 100 32.8848 100 32.4923V19.8187C100 19.4262 99.7934 19.1645 99.4828 19.1645H99.1621V11.6877C99.1621 11.4259 99.1621 11.2951 99.0301 11.1643L88.4755 0.565605ZM72.7755 33.1465H97.8427V37.0719H72.7755V33.1465ZM98.5109 31.838H98.9656V20.473H71.0344V31.838H72.1073C72.1102 31.838 72.113 31.838 72.1158 31.838H98.5023C98.5053 31.838 98.5081 31.838 98.5109 31.838ZM72.7755 1.74323H87.2884V11.6874C87.2884 12.08 87.5523 12.3417 87.9481 12.3417H97.8427V19.1459H72.7755V1.74323ZM92.939 7.02278L88.6078 2.67138V11.0332H96.9195L92.939 7.02278Z" fill="#717880"/>
<path d="M75.7734 50.0679V61.3804H74.0547V50.0679H75.7734ZM78.0703 61.3804V50.0679H85.0859V51.5522H79.7891V54.9741H84.5859V56.4429H79.7891V61.3804H78.0703ZM94.6641 53.7554C94.3828 52.3022 93.1797 51.4897 91.7422 51.4897C89.7891 51.4897 88.3359 52.9897 88.3359 55.7241C88.3359 58.4741 89.8047 59.9585 91.7422 59.9585C93.1641 59.9585 94.3672 59.1616 94.6641 57.7241L96.3984 57.7397C96.0391 59.9741 94.2109 61.5366 91.7266 61.5366C88.7734 61.5366 86.6328 59.3335 86.6328 55.7241C86.6328 52.0991 88.7891 49.9116 91.7266 49.9116C94.1172 49.9116 96.0078 51.3179 96.3984 53.7554H94.6641Z" fill="#1B1B1B"/>
<path fill-rule="evenodd" clip-rule="evenodd" d="M158.475 0.565605C158.431 0.565605 158.37 0.550449 158.305 0.530453C158.165 0.413234 157.924 0.31544 157.684 0.43457L142.116 0.434757C141.72 0.434757 141.456 0.696451 141.456 1.08899V19.1645H140.517C140.207 19.1645 140 19.4262 140 19.8187V32.4923C140 32.8848 140.207 33.1465 140.517 33.1465H141.456V37.7261C141.456 38.1186 141.72 38.3804 142.116 38.3804H168.502C168.898 38.3804 169.162 38.1186 169.162 37.7261V33.1465H169.483C169.793 33.1465 170 32.8848 170 32.4923V19.8187C170 19.4262 169.793 19.1645 169.483 19.1645H169.162V11.6877C169.162 11.4259 169.162 11.2951 169.03 11.1643L158.475 0.565605ZM142.776 33.1465H167.843V37.0719H142.776V33.1465ZM168.511 31.838H168.966V20.473H141.034V31.838H142.107C142.11 31.838 142.113 31.838 142.116 31.838H168.502C168.505 31.838 168.508 31.838 168.511 31.838ZM142.776 1.74323H157.288V11.6874C157.288 12.08 157.552 12.3417 157.948 12.3417H167.843V19.1459H142.776V1.74323ZM162.939 7.02278L158.608 2.67138V11.0332H166.919L162.939 7.02278Z" fill="#717880"/>
<path d="M148.125 53.0522C148.016 52.0054 147.094 51.396 145.797 51.396C144.406 51.396 143.531 52.0991 143.531 53.0679C143.531 54.146 144.703 54.5522 145.594 54.771L146.688 55.0679C148.141 55.4116 149.938 56.2085 149.953 58.2554C149.938 60.1616 148.422 61.5679 145.75 61.5679C143.219 61.5679 141.625 60.3022 141.516 58.2397H143.234C143.344 59.4741 144.422 60.0679 145.75 60.0679C147.188 60.0679 148.234 59.3335 148.25 58.2241C148.234 57.2397 147.312 56.8335 146.109 56.521L144.766 56.1616C142.953 55.6616 141.812 54.7397 141.812 53.1616C141.812 51.2085 143.562 49.9116 145.844 49.9116C148.141 49.9116 149.75 51.2241 149.797 53.0522H148.125ZM151.234 51.5522V50.0679H160V51.5522H156.484V61.3804H154.766V51.5522H151.234ZM161.75 61.3804V50.0679H163.469V59.896H168.578V61.3804H161.75Z" fill="#1B1B1B"/>
</svg>
