<?xml version="1.0" encoding="UTF-8"?>
<svg id="_레이어_1" data-name="레이어 1" xmlns="http://www.w3.org/2000/svg" viewBox="0 0 1056.69 159.39">
  <defs>
    <style>
      .cls-1 {
        fill: #0c2947;
      }

      .cls-2 {
        fill: #37bdec;
      }
    </style>
  </defs>
  <path class="cls-2" d="M279.74,92.15c.09,13.5-5.06,26.22-14.51,35.83-.32.33-.71.54-1.03.86-19.59,18.88-50.79,18.88-70.25-.36l-26.25-25.95,23.31-23.7,26.26,25.95c6.75,6.68,17.67,6.6,24.33-.17,3.23-3.28,4.99-7.62,4.95-12.23-.03-4.61-1.85-8.93-5.12-12.16l-25.04-24.75c-5.9-5.83-15.15-6.06-21.41-.89l-7.57,7.69-.21-.02-65.03,66.1c-9.23,9.39-21.56,14.6-34.71,14.7-13.15.09-25.55-4.95-34.91-14.21l-25.04-24.75c-9.59-9.48-14.92-22.13-15.01-35.62-.09-13.5,5.06-26.22,14.51-35.83.54-.56,1.14-1.05,1.7-1.57,9.25-8.59,21.15-13.39,33.83-13.48,13.47-.09,26.16,5.07,35.75,14.55l26.16,25.86-23.31,23.7-26.16-25.86c-3.27-3.23-7.6-5-12.2-4.97-4.6.03-8.9,1.86-12.13,5.14-3.23,3.28-4.99,7.62-4.95,12.23.03,4.61,1.85,8.93,5.12,12.16l25.04,24.75c6.18,6.11,16.08,6.11,22.31.13l6.18-6.28.59-.53,65.13-66.21c19.06-19.37,50.29-19.59,69.62-.49l25.04,24.75c9.59,9.48,14.92,22.13,15.01,35.62Z"/>
  <g>
    <path class="cls-1" d="M413.17,29.59c-7.81-7.8-17.39-11.76-28.47-11.76h-56.53v124.22h24.84v-43.48l32.11-.28c10.95-.13,20.42-4.16,28.16-11.96,7.73-7.81,11.65-17.33,11.65-28.27s-3.95-20.67-11.76-28.47ZM353.01,45.78h30.6c3.86,0,7.08,1.35,9.86,4.12,2.77,2.78,4.12,6,4.12,9.85s-1.33,7.09-4.07,9.87c-2.71,2.76-5.89,4.1-9.76,4.1l-30.75.27v-28.22Z"/>
    <path class="cls-1" d="M546.72,74.01c-5.14-2.3-11.79-4.7-19.8-7.17-5.97-1.76-10.62-3.28-13.85-4.52-2.87-1.09-5.19-2.57-7.08-4.51-1.59-1.64-2.37-3.68-2.37-6.22,0-2.76,1.09-4.66,3.53-6.14,5.43-3.29,15.15-3.7,27.42-.08,3.28.89,6.38,2.04,9.24,3.42,1.82.87,3.23,1.63,4.34,2.27l3.16,1.81,12.88-21.98-2.76-1.82c-1.79-1.18-3.93-2.51-6.04-3.59-3.85-1.98-7.82-3.25-11.85-4.46-7.43-2.27-15.09-3.42-22.8-3.42-8.85,0-16.86,1.41-23.78,4.19-7.12,2.87-12.73,7.05-16.65,12.43-3.98,5.43-6,11.8-6,18.91,0,7.82,2.06,14.3,6.11,19.25,3.89,4.76,8.58,8.39,13.95,10.79,5,2.23,11.67,4.54,19.77,6.87,5.74,1.74,10.37,3.29,13.73,4.6,2.92,1.15,5.4,2.72,7.35,4.66,1.63,1.64,2.43,3.73,2.43,6.38,0,3.31-1.35,5.74-4.24,7.65-6.37,4.18-19.04,4.84-32.86-1.12-3.79-1.48-7.36-3.61-10.49-5.49-2.16-1.3-4.36-2.93-5.89-4.14l-3.3-2.58-12.95,22.12,2.42,1.87c1.76,1.35,3.87,2.96,4.65,3.52,13.07,9.22,27.86,13.9,43.96,13.9,9.1,0,17.34-1.44,24.47-4.29,7.31-2.93,13.12-7.27,17.25-12.91,4.18-5.7,6.29-12.32,6.29-19.68,0-7.94-2.05-14.5-6.1-19.52-3.89-4.83-8.65-8.53-14.16-11Z"/>
    <path class="cls-1" d="M776.95,142.05h28.52l-58.86-124.22h-18.5l-59.29,124.22h28.81l13.56-27.95h52.18l13.58,27.95ZM723.13,89.25l14.13-29.14,14.15,29.14h-28.29Z"/>
    <path class="cls-1" d="M872.1,42.29c11.38,0,22,5.11,29.13,14.01l2.74,3.41,15.8-19.9-2.07-2.21c-11.93-12.71-28.81-20-46.31-20-34.76,0-63.04,27.77-63.04,61.9s28.28,61.9,63.04,61.9c17.5,0,34.38-7.29,46.31-20l2.07-2.21-15.8-19.9-2.74,3.41c-7.13,8.9-17.76,14.01-29.13,14.01-20.57,0-37.3-16.69-37.3-37.2s16.73-37.21,37.3-37.21Z"/>
    <path class="cls-1" d="M669.2,30.24c-7.83-8.17-18.92-12.42-30.24-12.42h-55.25v124.22h24.84v-43.48l32.02-.28c10.92-.13,20.37-4.16,28.09-11.96,7.71-7.81,11.62-17.33,11.62-28.27s-3.73-20.13-11.09-27.82ZM611.66,45.78h30.52c3.85,0,7.06,1.35,9.83,4.12,2.76,2.78,4.11,6,4.11,9.85s-1.32,7.09-4.06,9.87c-2.7,2.76-5.88,4.1-9.74,4.1l-30.67.27v-28.22Z"/>
    <polygon class="cls-1" points="1037.13 42.67 1037.13 17.83 970.18 17.83 943.96 17.83 943.96 44.11 943.96 66.32 943.96 92.6 943.96 115.77 943.96 142.05 971.91 142.05 1037.13 142.05 1037.13 117.2 971.91 117.2 971.91 92.36 1024.71 92.36 1024.71 67.52 971.91 67.52 971.91 42.67 1037.13 42.67"/>
    <rect class="cls-1" x="412.9" y="117.2" width="24.84" height="24.84"/>
  </g>
</svg>