<?xml version="1.0" encoding="UTF-8"?>
<svg id="_레이어_1" data-name="레이어 1" xmlns="http://www.w3.org/2000/svg" viewBox="0 0 1048.82 255.12">
  <defs>
    <style>
      .cls-1 {
        fill: #0c2947;
      }

      .cls-2 {
        fill: #37bdec;
      }
    </style>
  </defs>
  <path class="cls-2" d="M271.87,92.15c.09,13.5-5.06,26.22-14.51,35.83-.32.33-.71.54-1.03.86-19.59,18.88-50.79,18.88-70.25-.36l-26.25-25.95,23.31-23.7,26.26,25.95c6.75,6.68,17.67,6.6,24.33-.17,3.23-3.28,4.99-7.62,4.95-12.23-.03-4.61-1.85-8.93-5.12-12.16l-25.04-24.75c-5.9-5.83-15.15-6.06-21.41-.89l-7.57,7.69-.21-.02-65.03,66.1c-9.23,9.39-21.56,14.6-34.71,14.7-13.15.09-25.55-4.95-34.91-14.21l-25.04-24.75c-9.59-9.48-14.92-22.13-15.01-35.62-.09-13.5,5.06-26.22,14.51-35.83.54-.56,1.14-1.05,1.7-1.57,9.25-8.59,21.15-13.39,33.83-13.48,13.47-.09,26.16,5.07,35.75,14.55l26.16,25.86-23.31,23.7-26.16-25.86c-3.27-3.23-7.6-5-12.2-4.97-4.6.03-8.9,1.86-12.13,5.14-3.23,3.28-4.99,7.62-4.95,12.23.03,4.61,1.85,8.93,5.12,12.16l25.04,24.75c6.18,6.11,16.08,6.11,22.31.13l6.18-6.28.59-.53,65.13-66.21c19.06-19.37,50.29-19.59,69.62-.49l25.04,24.75c9.59,9.48,14.92,22.13,15.01,35.62Z"/>
  <g>
    <path class="cls-1" d="M405.3,29.59c-7.81-7.8-17.39-11.76-28.47-11.76h-56.53v124.22h24.84v-43.48l32.11-.28c10.95-.13,20.42-4.16,28.16-11.96,7.73-7.81,11.65-17.33,11.65-28.27s-3.95-20.67-11.76-28.47ZM345.14,45.78h30.6c3.86,0,7.08,1.35,9.86,4.12,2.77,2.78,4.12,6,4.12,9.85s-1.33,7.09-4.07,9.87c-2.71,2.76-5.89,4.1-9.76,4.1l-30.75.27v-28.22Z"/>
    <path class="cls-1" d="M538.85,74.01c-5.14-2.3-11.79-4.7-19.8-7.17-5.97-1.76-10.62-3.28-13.85-4.52-2.87-1.09-5.19-2.57-7.08-4.51-1.59-1.64-2.37-3.68-2.37-6.22,0-2.76,1.09-4.66,3.53-6.14,5.43-3.29,15.15-3.7,27.42-.08,3.28.89,6.38,2.04,9.24,3.42,1.82.87,3.23,1.63,4.34,2.27l3.16,1.81,12.88-21.98-2.76-1.82c-1.79-1.18-3.93-2.51-6.04-3.59-3.85-1.98-7.82-3.25-11.85-4.46-7.43-2.27-15.09-3.42-22.8-3.42-8.85,0-16.86,1.41-23.78,4.19-7.12,2.87-12.73,7.05-16.65,12.43-3.98,5.43-6,11.8-6,18.91,0,7.82,2.06,14.3,6.11,19.25,3.89,4.76,8.58,8.39,13.95,10.79,5,2.23,11.67,4.54,19.77,6.87,5.74,1.74,10.37,3.29,13.73,4.6,2.92,1.15,5.4,2.72,7.35,4.66,1.63,1.64,2.43,3.73,2.43,6.38,0,3.31-1.35,5.74-4.24,7.65-6.37,4.18-19.04,4.84-32.86-1.12-3.79-1.48-7.36-3.61-10.49-5.49-2.16-1.3-4.36-2.93-5.89-4.14l-3.3-2.58-12.95,22.12,2.42,1.87c1.76,1.35,3.87,2.96,4.65,3.52,13.07,9.22,27.86,13.9,43.96,13.9,9.1,0,17.34-1.44,24.47-4.29,7.31-2.93,13.12-7.27,17.25-12.91,4.18-5.7,6.29-12.32,6.29-19.68,0-7.94-2.05-14.5-6.1-19.52-3.89-4.83-8.65-8.53-14.16-11Z"/>
    <path class="cls-1" d="M769.07,142.05h28.52l-58.86-124.22h-18.5l-59.29,124.22h28.81l13.56-27.95h52.18l13.58,27.95ZM715.26,89.25l14.13-29.14,14.15,29.14h-28.29Z"/>
    <path class="cls-1" d="M864.23,42.29c11.38,0,22,5.11,29.13,14.01l2.74,3.41,15.8-19.9-2.07-2.21c-11.93-12.71-28.81-20-46.31-20-34.76,0-63.04,27.77-63.04,61.9s28.28,61.9,63.04,61.9c17.5,0,34.38-7.29,46.31-20l2.07-2.21-15.8-19.9-2.74,3.41c-7.13,8.9-17.76,14.01-29.13,14.01-20.57,0-37.3-16.69-37.3-37.2s16.73-37.21,37.3-37.21Z"/>
    <path class="cls-1" d="M661.33,30.24c-7.83-8.17-18.92-12.42-30.24-12.42h-55.25v124.22h24.84v-43.48l32.02-.28c10.92-.13,20.37-4.16,28.09-11.96,7.71-7.81,11.62-17.33,11.62-28.27s-3.73-20.13-11.09-27.82ZM603.79,45.78h30.52c3.85,0,7.06,1.35,9.83,4.12,2.76,2.78,4.11,6,4.11,9.85s-1.32,7.09-4.06,9.87c-2.7,2.76-5.88,4.1-9.74,4.1l-30.67.27v-28.22Z"/>
    <polygon class="cls-1" points="1029.25 42.67 1029.25 17.83 962.31 17.83 936.09 17.83 936.09 44.11 936.09 66.32 936.09 92.6 936.09 115.77 936.09 142.05 964.04 142.05 1029.25 142.05 1029.25 117.2 964.04 117.2 964.04 92.36 1016.83 92.36 1016.83 67.52 964.04 67.52 964.04 42.67 1029.25 42.67"/>
    <rect class="cls-1" x="405.03" y="117.2" width="24.84" height="24.84"/>
  </g>
  <g>
    <path class="cls-1" d="M503.28,196.77c-.71,1.75-1.73,3.25-3.05,4.51s-2.92,2.26-4.77,2.99c-1.86.73-3.94,1.09-6.24,1.09h-10.74v18.57h-7.16v-47.23h17.91c2.29,0,4.38.37,6.24,1.1,1.85.73,3.45,1.72,4.77,2.98,1.32,1.26,2.34,2.78,3.05,4.54.7,1.77,1.05,3.67,1.05,5.71s-.35,3.99-1.05,5.74ZM494.89,185.2c-1.53-1.37-3.55-2.05-6.07-2.05h-10.35v15.71h10.35c2.52,0,4.54-.67,6.07-2.02,1.53-1.35,2.29-3.29,2.29-5.8s-.76-4.47-2.29-5.84Z"/>
    <path class="cls-1" d="M526.82,223.93v-3.05c-1.23,1.24-2.52,2.13-3.84,2.66-1.33.53-3.04.8-5.11.8s-3.91-.26-5.34-.76c-1.44-.51-2.67-1.28-3.68-2.29-1.77-1.85-2.66-4.27-2.66-7.23s.96-5.15,2.89-6.97c1.92-1.81,4.83-2.72,8.73-2.72h8.88v-2.39c0-2.12-.56-3.7-1.69-4.74-1.13-1.04-3.02-1.56-5.67-1.56-1.85,0-3.31.25-4.38.73-1.05.49-2.05,1.33-2.98,2.53l-4.44-4.18c1.59-1.86,3.3-3.13,5.14-3.81,1.83-.68,4.15-1.03,6.93-1.03,9.24,0,13.86,3.85,13.86,11.54v22.49h-6.63ZM526.69,209.07h-7.89c-1.99,0-3.49.43-4.51,1.27-1.02.83-1.53,2.03-1.53,3.58s.5,2.73,1.49,3.54c1,.82,2.55,1.23,4.67,1.23,1.29,0,2.43-.1,3.45-.31,1.02-.19,1.97-.73,2.85-1.62.97-.97,1.46-2.63,1.46-4.98v-2.72Z"/>
    <path class="cls-1" d="M559.53,198.2c-.75-.75-1.49-1.31-2.22-1.69-.72-.38-1.67-.56-2.81-.56-1.86,0-3.44.68-4.75,2.03-1.3,1.35-1.95,3.19-1.95,5.53v20.43h-6.76v-33.63h6.63v3.65c.89-1.19,2.13-2.17,3.72-2.91,1.59-.76,3.34-1.13,5.24-1.13,1.64,0,3.1.24,4.38.73,1.29.48,2.5,1.3,3.65,2.45l-5.11,5.11Z"/>
    <path class="cls-1" d="M584.72,223.93v-3.05c-1.23,1.24-2.52,2.13-3.84,2.66-1.33.53-3.04.8-5.11.8s-3.91-.26-5.34-.76c-1.44-.51-2.67-1.28-3.68-2.29-1.77-1.85-2.66-4.27-2.66-7.23s.96-5.15,2.89-6.97c1.92-1.81,4.83-2.72,8.73-2.72h8.88v-2.39c0-2.12-.56-3.7-1.69-4.74-1.13-1.04-3.02-1.56-5.67-1.56-1.85,0-3.31.25-4.38.73-1.05.49-2.05,1.33-2.98,2.53l-4.44-4.18c1.59-1.86,3.3-3.13,5.14-3.81,1.83-.68,4.15-1.03,6.93-1.03,9.24,0,13.86,3.85,13.86,11.54v22.49h-6.63ZM584.59,209.07h-7.89c-1.99,0-3.49.43-4.51,1.27-1.02.83-1.53,2.03-1.53,3.58s.5,2.73,1.49,3.54c1,.82,2.55,1.23,4.67,1.23,1.29,0,2.43-.1,3.45-.31,1.02-.19,1.97-.73,2.85-1.62.97-.97,1.46-2.63,1.46-4.98v-2.72Z"/>
    <path class="cls-1" d="M607.94,223.93c-1.59,0-2.97-.25-4.15-.76-1.17-.51-2.13-1.18-2.88-2.03-.76-.84-1.3-1.82-1.67-2.95-.35-1.13-.53-2.31-.53-3.55v-37.94h6.76v37.54c0,1.29.27,2.26.8,2.92.54.67,1.48.99,2.85.99h2.99v5.77h-4.18Z"/>
    <path class="cls-1" d="M625.72,223.93c-1.59,0-2.97-.25-4.15-.76-1.17-.51-2.13-1.18-2.88-2.03-.76-.84-1.3-1.82-1.67-2.95-.35-1.13-.53-2.31-.53-3.55v-37.94h6.76v37.54c0,1.29.27,2.26.8,2.92.54.67,1.48.99,2.85.99h2.99v5.77h-4.18Z"/>
    <path class="cls-1" d="M637.86,209.07c0,2.92.73,5.22,2.19,6.9,1.46,1.68,3.58,2.52,6.37,2.52,1.9,0,3.44-.28,4.61-.82,1.18-.56,2.36-1.43,3.55-2.63l4.31,4.05c-.89.88-1.76,1.65-2.63,2.29-.86.64-1.79,1.18-2.79,1.63-.99.43-2.07.77-3.25.99-1.17.22-2.49.33-3.94.33-2.13,0-4.11-.3-5.94-.9-1.84-.59-3.43-1.56-4.79-2.91-1.37-1.35-2.45-3.13-3.26-5.34-.8-2.21-1.2-4.91-1.2-8.1,0-5.48,1.3-9.72,3.91-12.7,2.61-2.99,6.08-4.48,10.42-4.48,2.25,0,4.27.4,6.03,1.19,1.77.8,3.26,1.9,4.48,3.31,1.21,1.42,2.14,3.12,2.79,5.11.64,1.99.96,4.18.96,6.57v2.98h-21.83ZM652.76,201.88c-.11-.65-.34-1.34-.7-2.09-.53-1.29-1.37-2.31-2.52-3.08-1.15-.78-2.52-1.17-4.11-1.17s-2.98.39-4.15,1.17c-1.18.77-2.03,1.8-2.55,3.08-.36.75-.58,1.44-.67,2.09-.09.64-.16,1.47-.2,2.48h15.13c-.05-1.01-.13-1.84-.23-2.48Z"/>
    <path class="cls-1" d="M674.73,223.93c-1.59,0-2.97-.25-4.15-.76-1.17-.51-2.13-1.18-2.88-2.03-.76-.84-1.3-1.82-1.67-2.95-.35-1.13-.53-2.31-.53-3.55v-37.94h6.76v37.54c0,1.29.27,2.26.8,2.92.54.67,1.48.99,2.85.99h2.99v5.77h-4.18Z"/>
    <path class="cls-1" d="M725.61,216.31c-.84,1.72-2.01,3.18-3.52,4.38-1.5,1.19-3.29,2.1-5.37,2.72-2.08.62-4.36.93-6.84.93-3.58,0-6.7-.46-9.35-1.4-2.66-.93-5.11-2.54-7.37-4.84l4.77-4.71c1.73,1.73,3.56,2.91,5.51,3.55,1.94.64,4.14.96,6.57.96,3.09,0,5.49-.63,7.19-1.9,1.7-1.26,2.55-3.04,2.55-5.34,0-2.17-.62-3.8-1.85-4.9-.62-.57-1.29-1-1.99-1.26-.71-.27-1.78-.51-3.18-.73l-5.58-.8c-3.84-.53-6.83-1.8-8.95-3.78-2.3-2.17-3.45-5.17-3.45-9.02,0-2.03.36-3.9,1.09-5.6.73-1.7,1.77-3.17,3.12-4.41,1.35-1.24,3-2.18,4.94-2.85,1.94-.67,4.15-1,6.63-1,3.14,0,5.86.43,8.16,1.27,2.29.83,4.46,2.21,6.5,4.11l-4.57,4.51c-1.46-1.41-3.04-2.37-4.75-2.88-1.7-.51-3.54-.77-5.53-.77-2.79,0-4.92.69-6.4,2.09-1.48,1.39-2.22,3.15-2.22,5.27,0,.88.14,1.69.43,2.42.29.73.74,1.39,1.36,1.96,1.24,1.1,3.01,1.83,5.31,2.18l5.37.8c2.21.36,3.98.81,5.31,1.36,1.32.56,2.5,1.28,3.52,2.16,1.28,1.16,2.24,2.54,2.88,4.18.65,1.64.96,3.47.96,5.51,0,2.17-.42,4.11-1.26,5.84Z"/>
    <path class="cls-1" d="M760.27,211c-.07,1.33-.24,2.62-.5,3.89-.27,1.26-.66,2.44-1.17,3.54-.51,1.11-1.18,2.08-2.02,2.91-.93.93-2.1,1.67-3.52,2.19-1.42.53-2.96.8-4.65.8-1.81,0-3.42-.28-4.84-.83-1.42-.55-2.75-1.55-3.98-3.02v17.05h-6.76v-47.22h6.63v3.58c1.29-1.55,2.63-2.6,4.02-3.16,1.4-.55,3.02-.82,4.88-.82,1.67,0,3.24.26,4.67.8,1.43.53,2.62,1.26,3.55,2.18.83.84,1.51,1.81,2.02,2.92.51,1.1.9,2.28,1.17,3.52.26,1.24.43,2.52.5,3.84.06,1.33.09,2.64.09,3.91s-.03,2.59-.09,3.91ZM753.37,202.81c-.16-1.35-.47-2.54-.96-3.54-.48-1.02-1.19-1.83-2.12-2.42-.93-.6-2.15-.9-3.65-.9s-2.78.3-3.68.9c-.91.59-1.62,1.41-2.13,2.42-.51,1.01-.83,2.19-.99,3.54-.16,1.35-.23,2.78-.23,4.28s.07,2.93.23,4.28c.16,1.34.48,2.54.99,3.58.51,1.04,1.22,1.85,2.13,2.45.91.59,2.13.9,3.68.9s2.71-.31,3.65-.9c.93-.6,1.64-1.42,2.12-2.45.49-1.04.81-2.24.96-3.58.16-1.35.23-2.78.23-4.28s-.07-2.92-.23-4.28Z"/>
    <path class="cls-1" d="M784.78,223.93v-3.05c-1.23,1.24-2.52,2.13-3.84,2.66-1.33.53-3.04.8-5.11.8s-3.91-.26-5.34-.76c-1.44-.51-2.67-1.28-3.68-2.29-1.77-1.85-2.66-4.27-2.66-7.23s.96-5.15,2.89-6.97c1.92-1.81,4.83-2.72,8.73-2.72h8.88v-2.39c0-2.12-.56-3.7-1.69-4.74-1.13-1.04-3.02-1.56-5.67-1.56-1.85,0-3.31.25-4.38.73-1.05.49-2.05,1.33-2.98,2.53l-4.44-4.18c1.59-1.86,3.3-3.13,5.14-3.81,1.83-.68,4.15-1.03,6.93-1.03,9.24,0,13.86,3.85,13.86,11.54v22.49h-6.63ZM784.65,209.07h-7.89c-1.99,0-3.49.43-4.51,1.27-1.02.83-1.53,2.03-1.53,3.58s.5,2.73,1.49,3.54c1,.82,2.55,1.23,4.67,1.23,1.29,0,2.43-.1,3.45-.31,1.02-.19,1.97-.73,2.85-1.62.97-.97,1.46-2.63,1.46-4.98v-2.72Z"/>
    <path class="cls-1" d="M818.35,223.2c-1.73.75-3.77,1.13-6.11,1.13-1.9,0-3.75-.31-5.53-.93-1.8-.62-3.39-1.62-4.77-2.99-1.4-1.37-2.53-3.15-3.39-5.34-.86-2.18-1.3-4.85-1.3-8s.43-5.8,1.3-7.99c.86-2.19,1.99-3.96,3.39-5.31,1.39-1.35,2.98-2.33,4.77-2.95,1.79-.62,3.64-.93,5.53-.93,2.34,0,4.38.36,6.11,1.09,1.72.73,3.38,1.93,4.97,3.62l-4.64,4.51c-1.06-1.15-2.07-1.96-3.03-2.45-.94-.49-2.08-.73-3.41-.73-2.66,0-4.73,1-6.24,2.99-.75.93-1.27,2.02-1.55,3.28-.29,1.27-.43,2.89-.43,4.88s.15,3.63.43,4.91c.29,1.28.81,2.39,1.55,3.31,1.51,1.99,3.58,2.99,6.24,2.99,1.33,0,2.47-.24,3.41-.73.95-.49,1.96-1.3,3.03-2.45l4.64,4.44c-1.59,1.68-3.25,2.9-4.97,3.65Z"/>
    <path class="cls-1" d="M832.2,209.07c0,2.92.73,5.22,2.19,6.9,1.46,1.68,3.58,2.52,6.37,2.52,1.9,0,3.44-.28,4.61-.82,1.18-.56,2.36-1.43,3.55-2.63l4.31,4.05c-.89.88-1.76,1.65-2.63,2.29-.86.64-1.79,1.18-2.79,1.63-.99.43-2.07.77-3.25.99-1.17.22-2.49.33-3.94.33-2.13,0-4.11-.3-5.94-.9-1.84-.59-3.43-1.56-4.79-2.91-1.37-1.35-2.45-3.13-3.26-5.34-.8-2.21-1.2-4.91-1.2-8.1,0-5.48,1.3-9.72,3.91-12.7,2.61-2.99,6.08-4.48,10.42-4.48,2.25,0,4.27.4,6.03,1.19,1.77.8,3.26,1.9,4.48,3.31,1.21,1.42,2.14,3.12,2.79,5.11.64,1.99.96,4.18.96,6.57v2.98h-21.83ZM847.1,201.88c-.11-.65-.34-1.34-.7-2.09-.53-1.29-1.37-2.31-2.52-3.08-1.15-.78-2.52-1.17-4.11-1.17s-2.98.39-4.15,1.17c-1.18.77-2.03,1.8-2.55,3.08-.36.75-.58,1.44-.67,2.09-.09.64-.16,1.47-.2,2.48h15.13c-.05-1.01-.13-1.84-.23-2.48Z"/>
    <path class="cls-1" d="M892.5,223.2c-1.73.75-3.77,1.13-6.11,1.13-1.9,0-3.75-.31-5.53-.93-1.8-.62-3.39-1.62-4.77-2.99-1.4-1.37-2.53-3.15-3.39-5.34-.86-2.18-1.3-4.85-1.3-8s.43-5.8,1.3-7.99c.86-2.19,1.99-3.96,3.39-5.31,1.39-1.35,2.98-2.33,4.77-2.95,1.79-.62,3.64-.93,5.53-.93,2.34,0,4.38.36,6.11,1.09,1.72.73,3.38,1.93,4.97,3.62l-4.64,4.51c-1.06-1.15-2.07-1.96-3.03-2.45-.94-.49-2.08-.73-3.41-.73-2.66,0-4.73,1-6.24,2.99-.75.93-1.27,2.02-1.55,3.28-.29,1.27-.43,2.89-.43,4.88s.15,3.63.43,4.91c.29,1.28.81,2.39,1.55,3.31,1.51,1.99,3.58,2.99,6.24,2.99,1.33,0,2.47-.24,3.41-.73.95-.49,1.96-1.3,3.03-2.45l4.64,4.44c-1.59,1.68-3.25,2.9-4.97,3.65Z"/>
    <path class="cls-1" d="M926.99,214.61c-.54,2.15-1.59,4.05-3.18,5.74-1.11,1.15-2.49,2.1-4.15,2.85-1.67.75-3.65,1.13-5.94,1.13s-4.27-.38-5.9-1.13c-1.64-.75-3.01-1.7-4.11-2.85-1.59-1.68-2.66-3.59-3.18-5.74-.54-2.15-.8-4.65-.8-7.53s.26-5.31.8-7.46c.53-2.15,1.59-4.05,3.18-5.74,1.1-1.15,2.47-2.1,4.11-2.85,1.64-.76,3.6-1.13,5.9-1.13s4.28.37,5.94,1.13c1.66.75,3.04,1.7,4.15,2.85,1.59,1.68,2.65,3.59,3.18,5.74.53,2.15.8,4.64.8,7.46s-.27,5.39-.8,7.53ZM920.61,201.84c-.26-1.64-.91-2.96-1.92-3.98-1.29-1.29-2.94-1.92-4.98-1.92s-3.63.64-4.9,1.92c-1.02,1.02-1.67,2.34-1.92,3.98-.27,1.64-.4,3.39-.4,5.24s.13,3.61.4,5.25c.26,1.63.91,2.96,1.92,3.98,1.32,1.32,2.96,1.99,4.9,1.99s3.65-.67,4.98-1.99c1.01-1.02,1.66-2.35,1.92-3.98.27-1.64.41-3.39.41-5.25s-.14-3.6-.41-5.24Z"/>
    <path class="cls-1" d="M933.88,223.93v-8.09h8.1v8.09h-8.1Z"/>
    <path class="cls-1" d="M949.47,234.21v-17.97h7.7v11.67l-7.7,6.3Z"/>
    <path class="cls-1" d="M973.87,223.93c-1.59,0-2.97-.25-4.15-.76-1.17-.51-2.13-1.18-2.88-2.03-.76-.84-1.3-1.82-1.67-2.95-.35-1.13-.53-2.31-.53-3.55v-37.94h6.76v37.54c0,1.29.27,2.26.8,2.92.54.67,1.48.99,2.85.99h2.99v5.77h-4.18Z"/>
    <path class="cls-1" d="M992.65,223.93c-1.59,0-2.96-.27-4.11-.8-1.16-.53-2.1-1.23-2.86-2.09-.75-.86-1.31-1.86-1.68-2.98-.38-1.13-.56-2.29-.56-3.49v-18.51h-3.85v-5.17h3.85v-10.22h6.76v10.22h6.5v5.17h-6.5v18.17c0,1.24.3,2.2.9,2.89.59.68,1.54,1.03,2.81,1.03h2.79v5.77h-4.04Z"/>
    <path class="cls-1" d="M1021.76,223.93v-3.58c-1.28,1.55-2.62,2.6-4.01,3.15-1.4.56-3.02.83-4.88.83-1.68,0-3.24-.27-4.67-.8-1.44-.53-2.62-1.26-3.55-2.19-.84-.83-1.52-1.8-2.02-2.91-.51-1.1-.9-2.29-1.17-3.54-.27-1.27-.43-2.55-.5-3.89-.06-1.32-.09-2.63-.09-3.91s.03-2.58.09-3.91c.06-1.32.23-2.6.5-3.84.27-1.24.66-2.42,1.17-3.52.5-1.11,1.18-2.08,2.02-2.92.93-.93,2.1-1.66,3.52-2.18,1.42-.54,2.96-.8,4.65-.8,1.81,0,3.42.26,4.84.8,1.42.53,2.74,1.53,3.98,2.98v-16.98h6.76v47.23h-6.63ZM1021.4,202.81c-.16-1.35-.47-2.54-.96-3.54-.49-1.02-1.19-1.83-2.12-2.42-.93-.6-2.15-.9-3.65-.9s-2.78.3-3.68.9c-.91.59-1.62,1.41-2.13,2.42-.51,1.01-.84,2.19-.99,3.54-.16,1.35-.23,2.78-.23,4.28s.07,2.93.23,4.28c.15,1.34.48,2.54.99,3.58.51,1.04,1.22,1.85,2.13,2.45.91.59,2.13.9,3.68.9s2.71-.31,3.65-.9c.93-.6,1.63-1.42,2.12-2.45.49-1.04.81-2.24.96-3.58.16-1.35.23-2.78.23-4.28s-.07-2.92-.23-4.28Z"/>
    <path class="cls-1" d="M1036.09,223.93v-8.09h8.1v8.09h-8.1Z"/>
  </g>
</svg>