<?xml version="1.0" encoding="UTF-8"?>
<svg id="_레이어_1" data-name="레이어 1" xmlns="http://www.w3.org/2000/svg" viewBox="0 0 1048.82 255.12">
  <defs>
    <style>
      .cls-1 {
        fill: #fff;
      }

      .cls-2 {
        fill: #37bdec;
      }
    </style>
  </defs>
  <path class="cls-2" d="M342.36,98.68c.12,16.66-6.24,32.37-17.92,44.24-.39.4-.87.67-1.27,1.06-24.19,23.3-62.71,23.31-86.74-.44l-32.41-32.04,28.78-29.26,32.42,32.04c8.33,8.24,21.82,8.15,30.04-.21,3.98-4.05,6.16-9.41,6.12-15.1-.04-5.69-2.29-11.02-6.33-15.01l-30.91-30.55c-7.28-7.2-18.71-7.48-26.43-1.09l-9.35,9.5-.26-.02-80.29,81.61c-11.4,11.59-26.62,18.03-42.85,18.15-16.23.11-31.54-6.12-43.1-17.54l-30.91-30.55c-11.84-11.7-18.42-27.32-18.53-43.98-.12-16.66,6.24-32.37,17.92-44.24.67-.69,1.41-1.29,2.1-1.94,11.42-10.6,26.11-16.53,41.77-16.64,16.63-.12,32.3,6.26,44.14,17.96l32.3,31.93-28.79,29.26-32.3-31.93c-4.04-3.99-9.39-6.17-15.06-6.13-5.67.04-10.99,2.29-14.98,6.34-3.98,4.05-6.16,9.41-6.12,15.1.04,5.69,2.29,11.02,6.33,15.01l30.91,30.55c7.63,7.54,19.86,7.55,27.55.16l7.63-7.76.72-.66L206.96,24.74c23.53-23.92,62.09-24.19,85.95-.6l30.91,30.56c11.84,11.7,18.42,27.32,18.53,43.98Z"/>
  <g>
    <polygon class="cls-1" points="501.59 97.06 527.54 97.06 527.54 2.68 501.59 2.68 501.59 19.74 486.32 19.74 486.32 43.43 501.59 43.43 501.59 55.88 486.32 55.88 486.32 79.42 501.59 79.42 501.59 97.06"/>
    <polygon class="cls-1" points="402.24 59.1 429.53 59.1 429.53 28.09 481.38 28.09 481.38 5.42 388.93 5.42 388.93 28.09 402.24 28.09 402.24 59.1"/>
    <path class="cls-1" d="M496.39,102.77h-75.74c-18.42,0-31.72,12.28-31.72,29.33s13.3,29.33,31.72,29.33h75.74c18.75,0,32.05-12.45,32.05-29.33s-13.3-29.33-32.05-29.33ZM486.32,138.93h-55.79c-5.46,0-9.22-2.56-9.22-7s3.75-6.82,9.22-6.82h55.79c6.14,0,9.72,2.56,9.72,6.82s-3.58,7-9.72,7Z"/>
    <polygon class="cls-1" points="481.38 70.55 468.06 70.55 468.06 39.54 440.77 39.54 440.77 70.55 388.93 70.55 388.93 93.22 481.38 93.22 481.38 70.55"/>
    <polygon class="cls-1" points="630.48 12.4 604.74 12.4 604.74 1.25 581.2 1.25 581.2 12.4 553.42 12.4 553.42 33.88 630.48 33.88 630.48 12.4"/>
    <path class="cls-1" d="M579.5,39.35c-13.13,0-24.04,11.93-24.04,26.94s10.91,26.93,24.04,26.93h25.23c13.3,0,24.04-11.93,24.04-26.93s-10.74-26.94-24.04-26.94h-25.23ZM598.42,72.42h-12.78c-4.08,0-6.47-3.06-6.47-6.13,0-3.42,2.39-6.31,6.47-6.31h12.78c4.1,0,6.48,2.89,6.48,6.31,0,3.06-2.39,6.13-6.48,6.13Z"/>
    <polygon class="cls-1" points="661.8 63.39 668.03 63.39 668.03 97.06 693.39 97.06 693.39 2.68 668.03 2.68 668.03 37.13 661.8 37.13 661.8 2.68 636.95 2.68 636.95 97.06 661.8 97.06 661.8 63.39"/>
    <path class="cls-1" d="M663.71,103.4l-77.23.06c-18.07,0-31.03,12.11-31.03,28.81s12.96,29.16,31.03,29.16l77.23-.06c18.42,0,31.39-12.28,31.39-29.16s-12.97-28.81-31.39-28.81ZM653.49,138.87l-56.77.06c-5.12,0-8.7-2.23-8.7-6.66s3.58-6.64,8.7-6.64l56.77-.06c5.79,0,9.2,2.39,9.2,6.64s-3.41,6.66-9.2,6.66Z"/>
    <polygon class="cls-1" points="819.96 61.52 852.87 61.52 852.87 4.92 721.83 4.92 721.83 28.96 819.96 28.96 819.96 61.52"/>
    <path class="cls-1" d="M826.35,103.4l-77.71.06c-18.07,0-31.03,12.11-31.03,28.81s12.95,29.16,31.03,29.16l77.71-.06c18.42,0,31.39-12.28,31.39-29.16s-12.97-28.81-31.39-28.81ZM816.13,138.87l-57.25.06c-5.12,0-8.7-2.23-8.7-6.66s3.58-6.64,8.7-6.64l57.25-.06c5.79,0,9.2,2.39,9.2,6.64s-3.41,6.66-9.2,6.66Z"/>
    <polygon class="cls-1" points="792.17 40.89 767.01 40.89 767.01 68.85 715.35 68.85 715.35 93.22 859.18 93.22 859.18 68.85 792.17 68.85 792.17 40.89"/>
    <path class="cls-1" d="M974.03,22.57V5.43h-94.64v25.02h66.78c0,19.61-24.79,42.69-66.78,42.69v25.04c54.11,0,94.64-26.69,94.64-75.6Z"/>
    <polygon class="cls-1" points="1017.04 37.83 1017.04 2.68 988.84 2.68 988.84 119.6 1017.04 119.6 1017.04 65.77 1036.41 65.77 1036.41 37.83 1017.04 37.83"/>
    <polygon class="cls-1" points="919.68 105.55 886.76 105.55 886.76 161.43 1020.47 161.43 1020.47 135.71 919.68 135.71 919.68 105.55"/>
  </g>
  <g>
    <path class="cls-1" d="M431.29,208.61c-.79,1.94-1.92,3.61-3.39,5-1.47,1.4-3.25,2.51-5.3,3.32-2.07.81-4.38,1.21-6.93,1.21h-11.93v20.62h-7.95v-52.45h19.88c2.55,0,4.86.41,6.93,1.22,2.06.81,3.83,1.91,5.3,3.31,1.47,1.4,2.6,3.08,3.39,5.05.78,1.96,1.17,4.08,1.17,6.34s-.39,4.43-1.17,6.37ZM421.97,195.76c-1.7-1.52-3.95-2.28-6.74-2.28h-11.49v17.45h11.49c2.8,0,5.05-.74,6.74-2.24,1.7-1.5,2.54-3.65,2.54-6.44s-.84-4.96-2.54-6.48Z"/>
    <path class="cls-1" d="M457.43,238.77v-3.39c-1.37,1.38-2.8,2.36-4.26,2.95-1.48.59-3.37.88-5.67.88s-4.34-.29-5.93-.84c-1.6-.57-2.96-1.42-4.09-2.55-1.96-2.06-2.95-4.74-2.95-8.03s1.07-5.72,3.21-7.74c2.14-2.01,5.36-3.02,9.69-3.02h9.87v-2.65c0-2.35-.63-4.11-1.88-5.26-1.25-1.15-3.35-1.74-6.3-1.74-2.06,0-3.68.28-4.86.81-1.17.54-2.28,1.48-3.31,2.81l-4.93-4.64c1.77-2.07,3.67-3.47,5.7-4.23,2.03-.76,4.6-1.14,7.7-1.14,10.27,0,15.39,4.27,15.39,12.81v24.97h-7.37ZM457.28,222.27h-8.77c-2.21,0-3.87.47-5,1.41-1.13.92-1.7,2.25-1.7,3.98s.55,3.03,1.65,3.94c1.11.91,2.84,1.37,5.19,1.37,1.43,0,2.7-.11,3.83-.34,1.13-.22,2.19-.81,3.17-1.8,1.08-1.08,1.62-2.92,1.62-5.53v-3.02Z"/>
    <path class="cls-1" d="M493.74,210.2c-.83-.83-1.65-1.46-2.47-1.88-.8-.42-1.85-.63-3.12-.63-2.07,0-3.82.75-5.27,2.25-1.45,1.5-2.17,3.55-2.17,6.15v22.69h-7.51v-37.34h7.36v4.05c.99-1.33,2.36-2.4,4.13-3.24,1.77-.84,3.71-1.25,5.82-1.25,1.82,0,3.44.27,4.86.81,1.43.53,2.77,1.45,4.05,2.72l-5.67,5.67Z"/>
    <path class="cls-1" d="M521.73,238.77v-3.39c-1.37,1.38-2.8,2.36-4.26,2.95-1.48.59-3.37.88-5.67.88s-4.34-.29-5.93-.84c-1.6-.57-2.96-1.42-4.09-2.55-1.96-2.06-2.95-4.74-2.95-8.03s1.07-5.72,3.21-7.74c2.14-2.01,5.36-3.02,9.69-3.02h9.87v-2.65c0-2.35-.63-4.11-1.88-5.26s-3.35-1.74-6.3-1.74c-2.06,0-3.68.28-4.86.81-1.17.54-2.28,1.48-3.31,2.81l-4.93-4.64c1.77-2.07,3.67-3.47,5.7-4.23,2.03-.76,4.6-1.14,7.7-1.14,10.27,0,15.39,4.27,15.39,12.81v24.97h-7.37ZM521.58,222.27h-8.77c-2.21,0-3.87.47-5,1.41-1.13.92-1.7,2.25-1.7,3.98s.55,3.03,1.65,3.94c1.11.91,2.84,1.37,5.19,1.37,1.43,0,2.7-.11,3.83-.34,1.13-.22,2.19-.81,3.17-1.8,1.08-1.08,1.62-2.92,1.62-5.53v-3.02Z"/>
    <path class="cls-1" d="M547.51,238.77c-1.77,0-3.3-.28-4.6-.84-1.29-.57-2.36-1.32-3.2-2.25-.84-.94-1.45-2.02-1.85-3.28-.39-1.25-.59-2.57-.59-3.95v-42.13h7.51v41.69c0,1.43.3,2.51.88,3.25.6.74,1.64,1.1,3.17,1.1h3.32v6.41h-4.64Z"/>
    <path class="cls-1" d="M567.25,238.77c-1.77,0-3.3-.28-4.6-.84-1.29-.57-2.36-1.32-3.2-2.25-.84-.94-1.45-2.02-1.85-3.28-.39-1.25-.59-2.57-.59-3.95v-42.13h7.51v41.69c0,1.43.3,2.51.88,3.25.6.74,1.64,1.1,3.17,1.1h3.32v6.41h-4.64Z"/>
    <path class="cls-1" d="M580.73,222.27c0,3.25.81,5.8,2.44,7.67,1.62,1.87,3.98,2.8,7.07,2.8,2.11,0,3.82-.31,5.12-.91,1.31-.62,2.62-1.58,3.95-2.92l4.79,4.5c-.99.98-1.95,1.83-2.92,2.54-.96.71-1.98,1.32-3.09,1.81-1.1.48-2.3.85-3.61,1.1-1.29.25-2.76.37-4.38.37-2.36,0-4.56-.33-6.6-1-2.04-.66-3.81-1.74-5.32-3.24-1.52-1.5-2.72-3.47-3.62-5.93-.88-2.46-1.34-5.46-1.34-8.99,0-6.08,1.45-10.79,4.35-14.1,2.9-3.32,6.75-4.97,11.57-4.97,2.5,0,4.74.44,6.7,1.33,1.96.88,3.62,2.11,4.97,3.68,1.35,1.57,2.37,3.46,3.09,5.67.71,2.21,1.07,4.64,1.07,7.3v3.31h-24.24ZM597.28,214.29c-.12-.72-.38-1.49-.78-2.32-.59-1.43-1.52-2.57-2.8-3.42-1.27-.86-2.8-1.29-4.56-1.29s-3.31.43-4.6,1.29c-1.31.85-2.25,1.99-2.84,3.42-.4.83-.65,1.6-.74,2.32-.1.71-.17,1.63-.23,2.75h16.8c-.05-1.12-.14-2.04-.26-2.75Z"/>
    <path class="cls-1" d="M621.68,238.77c-1.77,0-3.3-.28-4.6-.84-1.29-.57-2.36-1.32-3.2-2.25-.84-.94-1.45-2.02-1.85-3.28-.39-1.25-.59-2.57-.59-3.95v-42.13h7.51v41.69c0,1.43.3,2.51.88,3.25.6.74,1.64,1.1,3.17,1.1h3.32v6.41h-4.64Z"/>
    <path class="cls-1" d="M678.18,230.31c-.94,1.91-2.23,3.53-3.9,4.86-1.66,1.33-3.66,2.33-5.96,3.02-2.31.69-4.84,1.03-7.59,1.03-3.98,0-7.44-.51-10.38-1.55-2.95-1.03-5.67-2.82-8.18-5.37l5.3-5.23c1.92,1.92,3.96,3.24,6.11,3.95,2.16.71,4.59,1.07,7.3,1.07,3.43,0,6.09-.7,7.98-2.11,1.89-1.4,2.84-3.37,2.84-5.93,0-2.4-.69-4.22-2.06-5.45-.69-.64-1.43-1.11-2.21-1.4-.79-.3-1.97-.57-3.53-.81l-6.2-.88c-4.26-.59-7.58-1.99-9.94-4.2-2.56-2.4-3.83-5.74-3.83-10.02,0-2.25.4-4.33,1.21-6.22.81-1.89,1.96-3.52,3.46-4.9,1.5-1.38,3.33-2.43,5.49-3.17,2.16-.74,4.61-1.11,7.37-1.11,3.48,0,6.5.47,9.06,1.41,2.55.92,4.95,2.46,7.21,4.56l-5.08,5c-1.62-1.56-3.38-2.63-5.27-3.2-1.89-.57-3.94-.85-6.15-.85-3.1,0-5.47.77-7.11,2.32-1.64,1.54-2.47,3.49-2.47,5.86,0,.98.15,1.88.47,2.68.32.81.82,1.54,1.51,2.18,1.38,1.22,3.34,2.03,5.9,2.43l5.96.88c2.46.4,4.42.9,5.9,1.51,1.47.62,2.77,1.42,3.9,2.39,1.42,1.28,2.49,2.83,3.2,4.64.72,1.82,1.07,3.85,1.07,6.11,0,2.4-.46,4.56-1.4,6.48Z"/>
    <path class="cls-1" d="M716.67,224.41c-.08,1.48-.27,2.91-.55,4.32-.3,1.4-.73,2.71-1.29,3.94-.57,1.23-1.32,2.31-2.24,3.24-1.04,1.04-2.33,1.85-3.9,2.44s-3.29.88-5.16.88c-2.01,0-3.8-.31-5.37-.92-1.57-.61-3.05-1.73-4.42-3.35v18.93h-7.51v-52.44h7.36v3.98c1.43-1.72,2.92-2.89,4.46-3.5,1.55-.61,3.35-.91,5.42-.91,1.86,0,3.6.29,5.19.88,1.59.59,2.91,1.4,3.95,2.43.92.94,1.68,2.01,2.24,3.25.57,1.22,1,2.53,1.29,3.9.29,1.38.47,2.8.55,4.26.07,1.48.1,2.93.1,4.35s-.03,2.88-.1,4.35ZM709.01,215.31c-.17-1.5-.52-2.82-1.07-3.94-.53-1.13-1.33-2.03-2.35-2.69-1.04-.67-2.38-1-4.05-1s-3.08.33-4.09,1c-1.01.66-1.8,1.56-2.36,2.69-.57,1.12-.92,2.44-1.1,3.94-.17,1.5-.26,3.08-.26,4.75s.08,3.26.26,4.76c.17,1.49.53,2.83,1.1,3.98.57,1.15,1.36,2.06,2.36,2.72,1.01.66,2.36,1,4.09,1s3.01-.34,4.05-1c1.03-.67,1.82-1.57,2.35-2.72.54-1.15.89-2.49,1.07-3.98.17-1.5.26-3.08.26-4.76s-.08-3.25-.26-4.75Z"/>
    <path class="cls-1" d="M743.89,238.77v-3.39c-1.37,1.38-2.8,2.36-4.26,2.95-1.48.59-3.37.88-5.67.88s-4.34-.29-5.93-.84c-1.6-.57-2.96-1.42-4.09-2.55-1.96-2.06-2.95-4.74-2.95-8.03s1.07-5.72,3.21-7.74c2.14-2.01,5.36-3.02,9.69-3.02h9.87v-2.65c0-2.35-.63-4.11-1.88-5.26-1.25-1.15-3.35-1.74-6.3-1.74-2.06,0-3.68.28-4.86.81-1.17.54-2.28,1.48-3.31,2.81l-4.93-4.64c1.77-2.07,3.67-3.47,5.7-4.23,2.03-.76,4.6-1.14,7.7-1.14,10.27,0,15.39,4.27,15.39,12.81v24.97h-7.37ZM743.74,222.27h-8.77c-2.21,0-3.87.47-5,1.41-1.13.92-1.7,2.25-1.7,3.98s.55,3.03,1.65,3.94c1.11.91,2.84,1.37,5.19,1.37,1.43,0,2.7-.11,3.83-.34,1.13-.22,2.19-.81,3.17-1.8,1.08-1.08,1.62-2.92,1.62-5.53v-3.02Z"/>
    <path class="cls-1" d="M781.17,237.96c-1.92.83-4.18,1.25-6.78,1.25-2.11,0-4.16-.34-6.15-1.03-1.99-.69-3.76-1.8-5.3-3.32-1.55-1.52-2.81-3.49-3.76-5.93-.96-2.43-1.44-5.38-1.44-8.88s.48-6.44,1.44-8.87c.96-2.44,2.21-4.4,3.76-5.9,1.54-1.5,3.31-2.59,5.3-3.28,1.98-.69,4.04-1.03,6.15-1.03,2.6,0,4.86.4,6.78,1.21,1.91.81,3.75,2.15,5.52,4.02l-5.15,5c-1.18-1.27-2.3-2.18-3.36-2.72-1.05-.54-2.31-.81-3.79-.81-2.95,0-5.25,1.11-6.93,3.32-.83,1.03-1.41,2.24-1.73,3.64-.32,1.41-.48,3.21-.48,5.42s.16,4.03.48,5.46c.32,1.42.89,2.65,1.73,3.68,1.68,2.21,3.98,3.32,6.93,3.32,1.48,0,2.74-.27,3.79-.81,1.06-.54,2.18-1.45,3.36-2.72l5.15,4.93c-1.77,1.87-3.61,3.22-5.52,4.05Z"/>
    <path class="cls-1" d="M796.55,222.27c0,3.25.81,5.8,2.44,7.67,1.62,1.87,3.98,2.8,7.07,2.8,2.11,0,3.82-.31,5.12-.91,1.31-.62,2.62-1.58,3.95-2.92l4.79,4.5c-.99.98-1.95,1.83-2.92,2.54-.96.71-1.98,1.32-3.09,1.81-1.1.48-2.3.85-3.61,1.1-1.29.25-2.76.37-4.38.37-2.36,0-4.56-.33-6.6-1-2.04-.66-3.81-1.74-5.32-3.24-1.52-1.5-2.72-3.47-3.62-5.93-.88-2.46-1.34-5.46-1.34-8.99,0-6.08,1.45-10.79,4.35-14.1,2.9-3.32,6.75-4.97,11.57-4.97,2.5,0,4.74.44,6.7,1.33,1.96.88,3.62,2.11,4.97,3.68,1.35,1.57,2.37,3.46,3.09,5.67.71,2.21,1.07,4.64,1.07,7.3v3.31h-24.24ZM813.09,214.29c-.12-.72-.38-1.49-.78-2.32-.59-1.43-1.52-2.57-2.8-3.42-1.27-.86-2.8-1.29-4.56-1.29s-3.31.43-4.6,1.29c-1.31.85-2.25,1.99-2.84,3.42-.4.83-.65,1.6-.74,2.32-.1.71-.17,1.63-.23,2.75h16.8c-.05-1.12-.14-2.04-.26-2.75Z"/>
    <path class="cls-1" d="M863.51,237.96c-1.92.83-4.18,1.25-6.78,1.25-2.11,0-4.16-.34-6.15-1.03-1.99-.69-3.76-1.8-5.3-3.32-1.55-1.52-2.81-3.49-3.76-5.93-.96-2.43-1.44-5.38-1.44-8.88s.48-6.44,1.44-8.87c.96-2.44,2.21-4.4,3.76-5.9,1.54-1.5,3.31-2.59,5.3-3.28,1.98-.69,4.04-1.03,6.15-1.03,2.6,0,4.86.4,6.78,1.21,1.91.81,3.75,2.15,5.52,4.02l-5.15,5c-1.18-1.27-2.3-2.18-3.36-2.72-1.05-.54-2.31-.81-3.79-.81-2.95,0-5.25,1.11-6.93,3.32-.83,1.03-1.41,2.24-1.73,3.64-.32,1.41-.48,3.21-.48,5.42s.16,4.03.48,5.46c.32,1.42.89,2.65,1.73,3.68,1.68,2.21,3.98,3.32,6.93,3.32,1.48,0,2.74-.27,3.79-.81,1.06-.54,2.18-1.45,3.36-2.72l5.15,4.93c-1.77,1.87-3.61,3.22-5.52,4.05Z"/>
    <path class="cls-1" d="M901.81,228.43c-.6,2.38-1.77,4.5-3.53,6.37-1.23,1.27-2.76,2.33-4.6,3.17-1.85.83-4.05,1.25-6.6,1.25s-4.74-.42-6.56-1.25c-1.82-.83-3.34-1.89-4.56-3.17-1.77-1.87-2.95-3.99-3.53-6.37-.6-2.38-.88-5.17-.88-8.36s.29-5.9.88-8.28c.59-2.38,1.77-4.5,3.53-6.37,1.22-1.27,2.74-2.33,4.56-3.17,1.82-.84,4-1.25,6.56-1.25s4.75.41,6.6,1.25c1.84.83,3.37,1.89,4.6,3.17,1.77,1.87,2.94,3.99,3.53,6.37.59,2.38.88,5.15.88,8.28s-.3,5.98-.88,8.36ZM894.73,214.25c-.29-1.82-1.01-3.29-2.13-4.42-1.43-1.43-3.27-2.14-5.53-2.14s-4.03.71-5.45,2.14c-1.13,1.13-1.85,2.6-2.14,4.42-.3,1.82-.44,3.76-.44,5.82s.14,4.01.44,5.83c.29,1.81,1.01,3.29,2.14,4.42,1.47,1.47,3.29,2.21,5.45,2.21s4.05-.74,5.53-2.21c1.12-1.13,1.84-2.61,2.13-4.42.3-1.82.45-3.76.45-5.83s-.15-4-.45-5.82Z"/>
    <path class="cls-1" d="M909.46,238.77v-8.98h8.99v8.98h-8.99Z"/>
    <path class="cls-1" d="M926.78,250.19v-19.96h8.55v12.96l-8.55,7Z"/>
    <path class="cls-1" d="M953.88,238.77c-1.77,0-3.3-.28-4.6-.84-1.29-.57-2.36-1.32-3.2-2.25-.84-.94-1.45-2.02-1.85-3.28-.39-1.25-.59-2.57-.59-3.95v-42.13h7.51v41.69c0,1.43.3,2.51.88,3.25.6.74,1.64,1.1,3.17,1.1h3.32v6.41h-4.64Z"/>
    <path class="cls-1" d="M974.73,238.77c-1.77,0-3.29-.3-4.56-.88-1.28-.59-2.33-1.37-3.18-2.32-.83-.96-1.46-2.07-1.87-3.31-.42-1.25-.63-2.55-.63-3.87v-20.55h-4.27v-5.74h4.27v-11.34h7.51v11.34h7.21v5.74h-7.21v20.18c0,1.38.33,2.45,1,3.21.66.76,1.71,1.14,3.12,1.14h3.09v6.41h-4.49Z"/>
    <path class="cls-1" d="M1007.06,238.77v-3.98c-1.42,1.72-2.91,2.89-4.45,3.49-1.55.62-3.35.92-5.42.92-1.87,0-3.6-.3-5.19-.88-1.6-.59-2.91-1.4-3.95-2.44-.94-.92-1.69-2-2.24-3.24-.57-1.22-1-2.54-1.29-3.94-.3-1.41-.48-2.84-.55-4.32-.07-1.47-.1-2.92-.1-4.35s.03-2.87.1-4.35c.07-1.47.26-2.89.55-4.26s.73-2.68,1.29-3.9c.55-1.23,1.31-2.31,2.24-3.25,1.04-1.03,2.33-1.84,3.9-2.43,1.57-.6,3.29-.88,5.16-.88,2.01,0,3.8.29,5.37.88,1.57.59,3.04,1.7,4.42,3.31v-18.86h7.51v52.45h-7.37ZM1006.66,215.31c-.17-1.5-.52-2.82-1.07-3.94-.54-1.13-1.33-2.03-2.35-2.69-1.04-.67-2.38-1-4.05-1s-3.08.33-4.09,1c-1.01.66-1.8,1.56-2.36,2.69-.57,1.12-.94,2.44-1.1,3.94-.17,1.5-.26,3.08-.26,4.75s.08,3.26.26,4.76c.16,1.49.53,2.83,1.1,3.98.57,1.15,1.36,2.06,2.36,2.72,1.01.66,2.36,1,4.09,1s3.01-.34,4.05-1c1.03-.67,1.81-1.57,2.35-2.72.54-1.15.89-2.49,1.07-3.98.17-1.5.26-3.08.26-4.76s-.08-3.25-.26-4.75Z"/>
    <path class="cls-1" d="M1022.97,238.77v-8.98h8.99v8.98h-8.99Z"/>
  </g>
</svg>